<?xml version="1.0" encoding="utf-8"?>
<!-- Generator: Adobe Illustrator 22.1.0, SVG Export Plug-In . SVG Version: 6.00 Build 0)  -->
<svg version="1.1" id="Слой_1" xmlns="http://www.w3.org/2000/svg" xmlns:xlink="http://www.w3.org/1999/xlink" x="0px" y="0px"
	 viewBox="0 0 218 222" style="enable-background:new 0 0 218 222;" xml:space="preserve">
<style type="text/css">
	.st0{fill:#E7533B;}
</style>
<path class="st0" d="M35.7,184.7c-0.4-2.1-1.7-7.5-5.6-11.5c-3.9-3.9-9.4-5.2-11.5-5.6c0.4,2.1,1.7,7.5,5.6,11.5
	C28.2,183,33.6,184.3,35.7,184.7z"/>
<path class="st0" d="M35.7,186.3c-2.1,0.4-7.5,1.7-11.5,5.6c-3.9,3.9-5.2,9.4-5.6,11.5c2.1-0.4,7.5-1.7,11.5-5.6
	C34,193.8,35.3,188.4,35.7,186.3z"/>
<path class="st0" d="M0,222c2.1-0.4,7.5-1.7,11.5-5.6c3.9-3.9,5.2-9.4,5.6-11.5c-2.1,0.4-7.5,1.7-11.5,5.6
	C1.7,214.5,0.4,219.9,0,222z"/>
<path class="st0" d="M18.6,204.9c0.4,2.1,1.7,7.5,5.6,11.5c3.9,3.9,9.4,5.2,11.5,5.6c-0.4-2.1-1.7-7.5-5.6-11.5
	C26.2,206.6,20.7,205.3,18.6,204.9z"/>
<path class="st0" d="M0,184.7c2.1-0.4,7.5-1.7,11.5-5.6c3.9-3.9,5.2-9.4,5.6-11.5c-2.1,0.4-7.5,1.7-11.5,5.6
	C1.7,177.2,0.4,182.6,0,184.7z"/>
<path class="st0" d="M0,186.3c0.4,2.1,1.7,7.5,5.6,11.5c3.9,3.9,9.4,5.2,11.5,5.6c-0.4-2.1-1.7-7.5-5.6-11.5
	C7.5,188,2.1,186.7,0,186.3z"/>
<path class="st0" d="M0,149c0.4,2.1,1.7,7.5,5.6,11.5c3.9,3.9,9.4,5.2,11.5,5.6c-0.4-2.1-1.7-7.5-5.6-11.5
	C7.5,150.7,2.1,149.4,0,149z"/>
<path class="st0" d="M35.7,149c-2.1,0.4-7.5,1.7-11.5,5.6c-3.9,3.9-5.2,9.4-5.6,11.5c2.1-0.4,7.5-1.7,11.5-5.6
	C34,156.5,35.3,151.1,35.7,149z"/>
<path class="st0" d="M55.9,203.4c2.1-0.4,7.5-1.7,11.5-5.6c3.9-3.9,5.2-9.4,5.6-11.5c-2.1,0.4-7.5,1.7-11.5,5.6
	C57.6,195.8,56.3,201.3,55.9,203.4z"/>
<path class="st0" d="M55.9,166.1c2.1-0.4,7.5-1.7,11.5-5.6c3.9-3.9,5.2-9.4,5.6-11.5c-2.1,0.4-7.5,1.7-11.5,5.6
	C57.6,158.5,56.3,164,55.9,166.1z"/>
<path class="st0" d="M55.9,167.6c0.4,2.1,1.7,7.5,5.6,11.5c3.9,3.9,9.4,5.2,11.5,5.6c-0.4-2.1-1.7-7.5-5.6-11.5
	C63.5,169.3,58,168,55.9,167.6z"/>
<path class="st0" d="M55.9,204.9c0.4,2.1,1.7,7.5,5.6,11.5c3.9,3.9,9.4,5.2,11.5,5.6c-0.4-2.1-1.7-7.5-5.6-11.5
	C63.5,206.6,58,205.3,55.9,204.9z"/>
<path class="st0" d="M54.4,167.6c-2.1,0.4-7.5,1.7-11.5,5.6c-3.9,3.9-5.2,9.4-5.6,11.5c2.1-0.4,7.5-1.7,11.5-5.6
	C52.7,175.2,54,169.7,54.4,167.6z"/>
<path class="st0" d="M37.3,149c0.4,2.1,1.7,7.5,5.6,11.5c3.9,3.9,9.4,5.2,11.5,5.6c-0.4-2.1-1.7-7.5-5.6-11.5
	C44.8,150.7,39.4,149.4,37.3,149z"/>
<path class="st0" d="M37.3,186.3c0.4,2.1,1.7,7.5,5.6,11.5c3.9,3.9,9.4,5.2,11.5,5.6c-0.4-2.1-1.7-7.5-5.6-11.5
	C44.8,188,39.4,186.7,37.3,186.3z"/>
<path class="st0" d="M37.3,222c2.1-0.4,7.5-1.7,11.5-5.6c3.9-3.9,5.2-9.4,5.6-11.5c-2.1,0.4-7.5,1.7-11.5,5.6
	C39,214.5,37.7,219.9,37.3,222z"/>
</svg>
