<?xml version="1.0" encoding="utf-8"?>
<!-- Generator: Adobe Illustrator 22.1.0, SVG Export Plug-In . SVG Version: 6.00 Build 0)  -->
<svg version="1.1" id="Слой_1" xmlns="http://www.w3.org/2000/svg" xmlns:xlink="http://www.w3.org/1999/xlink" x="0px" y="0px"
	 viewBox="0 0 218 222" style="enable-background:new 0 0 218 222;" xml:space="preserve">
<style type="text/css">
	.st0{fill:#FDD84A;}
	.st1{fill:#E7533B;}
</style>
<g>
	<g>
		<path class="st0" d="M144.8,186.5c-0.4-0.2-0.8-0.2-1.2-0.1c-0.4,0.1-0.8,0.3-1,0.6l-31.6,31.6c-0.3,0.3-0.5,0.6-0.6,1
			c-0.1,0.4,0,0.8,0.1,1.2c0.2,0.4,0.4,0.7,0.7,0.9s0.7,0.3,1.1,0.3H144c0.5,0,1.1-0.2,1.4-0.6c0.4-0.4,0.6-0.9,0.6-1.4v-31.6
			c0-0.4-0.1-0.8-0.3-1.1C145.4,186.9,145.1,186.6,144.8,186.5L144.8,186.5z"/>
		<path class="st0" d="M144.9,169.9c-0.2-0.2-0.6-0.4-0.9-0.4s-0.7,0.1-0.9,0.4L93.9,219c-0.1,0.1-0.2,0.3-0.3,0.4
			c-0.1,0.2-0.1,0.3-0.1,0.5c0,0.2,0,0.3,0.1,0.5c0.1,0.2,0.2,0.3,0.3,0.4c0.1,0.1,0.3,0.2,0.4,0.3c0.2,0.1,0.3,0.1,0.5,0.1
			c0.2,0,0.3,0,0.5-0.1c0.2-0.1,0.3-0.2,0.4-0.3l49.2-49.2c0.2-0.2,0.4-0.6,0.4-0.9C145.3,170.5,145.1,170.1,144.9,169.9
			L144.9,169.9z"/>
		<path class="st0" d="M1.3,111.5c0.4,0.2,0.8,0.2,1.2,0.1c0.4-0.1,0.8-0.3,1-0.6l31.6-31.6c0.3-0.3,0.5-0.6,0.6-1
			c0.1-0.4,0-0.8-0.1-1.2c-0.2-0.4-0.4-0.7-0.7-0.9c-0.3-0.2-0.7-0.3-1.1-0.3H2c-0.5,0-1.1,0.2-1.4,0.6C0.2,77,0,77.5,0,78l0,31.6
			c0,0.4,0.1,0.8,0.3,1.1C0.6,111.1,0.9,111.4,1.3,111.5z"/>
		<path class="st0" d="M1.1,128.1c0.1,0.1,0.3,0.2,0.4,0.3c0.2,0.1,0.3,0.1,0.5,0.1c0.2,0,0.3,0,0.5-0.1c0.2-0.1,0.3-0.2,0.4-0.3
			l49.2-49.2c0.2-0.2,0.4-0.6,0.4-0.9c0-0.3-0.1-0.7-0.4-0.9c-0.2-0.2-0.6-0.4-0.9-0.4c-0.3,0-0.7,0.1-0.9,0.4L1.1,126.3
			c-0.1,0.1-0.2,0.3-0.3,0.4s-0.1,0.3-0.1,0.5c0,0.2,0,0.3,0.1,0.5C0.9,127.9,1,128,1.1,128.1L1.1,128.1z"/>
		<path class="st0" d="M142.5,111.1c0.2,0.2,0.4,0.3,0.7,0.4c0.2,0.1,0.5,0.2,0.8,0.2c0.3,0,0.5-0.1,0.8-0.2
			c0.4-0.2,0.7-0.4,0.9-0.7c0.2-0.3,0.3-0.7,0.3-1.1V78c0-0.3-0.1-0.5-0.2-0.8c-0.1-0.2-0.3-0.5-0.4-0.7c-0.2-0.2-0.4-0.3-0.7-0.4
			c-0.2-0.1-0.5-0.2-0.8-0.2h-31.6c-0.4,0-0.8,0.1-1.1,0.3c-0.3,0.2-0.6,0.5-0.7,0.9c-0.2,0.4-0.2,0.8-0.1,1.2
			c0.1,0.4,0.3,0.8,0.6,1L142.5,111.1z"/>
		<path class="st0" d="M143,128.1c0.2,0.2,0.6,0.4,0.9,0.4c0.3,0,0.7-0.1,0.9-0.4c0.2-0.2,0.4-0.6,0.4-0.9c0-0.3-0.1-0.7-0.4-0.9
			L95.7,77.1c-0.2-0.2-0.6-0.4-0.9-0.4c-0.3,0-0.7,0.1-0.9,0.4c-0.1,0.1-0.2,0.3-0.3,0.4c-0.1,0.2-0.1,0.3-0.1,0.5
			c0,0.2,0,0.3,0.1,0.5c0.1,0.2,0.2,0.3,0.3,0.4L143,128.1z"/>
		<path class="st0" d="M3.5,186.9c-0.4-0.4-0.9-0.6-1.4-0.6c-0.3,0-0.5,0.1-0.8,0.2c-0.4,0.2-0.7,0.4-0.9,0.7
			c-0.2,0.3-0.3,0.7-0.3,1.1L0,220c0,0.5,0.2,1.1,0.6,1.4C1,221.8,1.5,222,2,222h31.6c0.4,0,0.8-0.1,1.1-0.3
			c0.3-0.2,0.6-0.5,0.7-0.9c0.2-0.4,0.2-0.8,0.1-1.2c-0.1-0.4-0.3-0.8-0.6-1L3.5,186.9z"/>
		<path class="st0" d="M3,169.9c-0.2-0.2-0.6-0.4-0.9-0.4c-0.3,0-0.5,0.1-0.7,0.2c-0.2,0.1-0.4,0.3-0.5,0.6
			c-0.1,0.2-0.1,0.5-0.1,0.8c0.1,0.3,0.2,0.5,0.4,0.7l49.2,49.2c0.2,0.2,0.6,0.4,0.9,0.4c0.3,0,0.7-0.1,0.9-0.4
			c0.2-0.2,0.4-0.6,0.4-0.9c0-0.3-0.1-0.7-0.4-0.9L3,169.9z"/>
		<path class="st0" d="M74.5,163.7c-0.2-0.2-0.4-0.4-0.7-0.5c-0.3-0.1-0.5-0.2-0.8-0.2s-0.6,0.1-0.8,0.2c-0.3,0.1-0.5,0.3-0.7,0.5
			c-2.3,2.6-4.3,5.4-6,8.4c-3.7,6.2-5.8,13.2-6,20.4c0.2,7.2,2.3,14.2,6,20.4c1.7,3,3.7,5.8,6,8.4c0.2,0.2,0.4,0.4,0.7,0.5
			c0.3,0.1,0.5,0.2,0.8,0.2s0.6-0.1,0.8-0.2c0.3-0.1,0.5-0.3,0.7-0.5c2.3-2.6,4.3-5.4,6-8.4c3.7-6.2,5.8-13.2,6-20.4
			c-0.2-7.2-2.3-14.2-6-20.4C78.8,169.1,76.8,166.3,74.5,163.7L74.5,163.7z"/>
		<path class="st0" d="M71.5,134.3c0.2,0.2,0.4,0.4,0.7,0.5s0.5,0.2,0.8,0.2c0.3,0,0.6-0.1,0.8-0.2c0.3-0.1,0.5-0.3,0.7-0.5
			c2.3-2.6,4.3-5.4,6-8.4c3.7-6.2,5.8-13.2,6-20.4c-0.2-7.2-2.3-14.2-6-20.4c-1.7-3-3.7-5.8-6-8.4c-0.2-0.2-0.4-0.4-0.7-0.5
			C73.6,76.1,73.3,76,73,76c-0.3,0-0.6,0.1-0.8,0.2c-0.3,0.1-0.5,0.3-0.7,0.5c-2.3,2.6-4.3,5.4-6,8.4c-3.7,6.2-5.8,13.2-6,20.4
			c0.2,7.2,2.3,14.2,6,20.4C67.2,128.9,69.2,131.7,71.5,134.3L71.5,134.3z"/>
		<path class="st0" d="M137,156.5c3-1.7,5.8-3.7,8.4-6c0.2-0.2,0.4-0.4,0.5-0.7c0.1-0.3,0.2-0.5,0.2-0.8c0-0.3-0.1-0.6-0.2-0.8
			c-0.1-0.3-0.3-0.5-0.5-0.7c-2.6-2.3-5.4-4.3-8.4-6c-6.2-3.7-13.2-5.8-20.4-6c-7.2,0.2-14.2,2.3-20.4,6c-3,1.7-5.8,3.7-8.4,6
			c-0.2,0.2-0.4,0.4-0.5,0.7c-0.1,0.3-0.2,0.5-0.2,0.8c0,0.3,0.1,0.6,0.2,0.8c0.1,0.3,0.3,0.5,0.5,0.7c2.6,2.3,5.4,4.3,8.4,6
			c6.2,3.7,13.2,5.8,20.4,6C123.7,162.2,130.8,160.2,137,156.5L137,156.5z"/>
		<path class="st0" d="M58.3,150.5c0.2-0.2,0.4-0.4,0.5-0.7c0.1-0.3,0.2-0.5,0.2-0.8c0-0.3-0.1-0.6-0.2-0.8
			c-0.1-0.3-0.3-0.5-0.5-0.7c-2.6-2.3-5.4-4.3-8.4-6c-6.2-3.7-13.2-5.8-20.4-6c-7.2,0.2-14.2,2.3-20.4,6c-3,1.7-5.8,3.7-8.4,6
			c-0.2,0.2-0.4,0.4-0.5,0.7C0.1,148.4,0,148.7,0,149c0,0.3,0.1,0.6,0.2,0.8c0.1,0.3,0.3,0.5,0.5,0.7c2.6,2.3,5.4,4.3,8.4,6
			c6.2,3.7,13.2,5.8,20.4,6c7.2-0.2,14.2-2.3,20.4-6C52.9,154.8,55.7,152.8,58.3,150.5z"/>
		<path class="st0" d="M68.7,149c0,0.8,0.2,1.7,0.7,2.4c0.5,0.7,1.1,1.3,1.9,1.6c0.8,0.3,1.6,0.4,2.5,0.2c0.8-0.2,1.6-0.6,2.2-1.2
			c0.6-0.6,1-1.4,1.2-2.2c0.2-0.8,0.1-1.7-0.2-2.5c-0.3-0.8-0.9-1.5-1.6-1.9c-0.7-0.5-1.5-0.7-2.4-0.7c-0.6,0-1.1,0.1-1.6,0.3
			c-0.5,0.2-1,0.5-1.4,0.9c-0.4,0.4-0.7,0.9-0.9,1.4S68.7,148.4,68.7,149L68.7,149z"/>
		<path class="st0" d="M62,136.6c-1.6-2.2-15.8-21.9-17.5-23.6c-1-1-2.4-1.6-3.8-1.6c-1.4,0-2.8,0.6-3.8,1.6c-1,1-1.6,2.4-1.6,3.8
			c0,1.4,0.6,2.8,1.6,3.8c1.7,1.7,21.4,15.9,23.6,17.5c0.2,0.1,0.4,0.2,0.7,0.2c0.2,0,0.5-0.1,0.6-0.3c0.2-0.2,0.3-0.4,0.3-0.6
			C62.2,137.1,62.2,136.8,62,136.6L62,136.6z"/>
		<path class="st0" d="M85.4,138c2.2-1.6,21.9-15.8,23.6-17.5c1-1,1.6-2.4,1.6-3.8c0-1.4-0.6-2.8-1.6-3.8c-1-1-2.4-1.6-3.8-1.6
			c-1.4,0-2.8,0.6-3.8,1.6c0.1-0.1-14.4,19.3-17.5,23.6c-0.1,0.2-0.2,0.4-0.2,0.7c0,0.2,0.1,0.5,0.3,0.6c0.2,0.2,0.4,0.3,0.6,0.3
			C84.9,138.2,85.2,138.2,85.4,138L85.4,138z"/>
		<path class="st0" d="M40.8,186.6c0.7,0,1.4-0.1,2.1-0.4c0.7-0.3,1.2-0.7,1.7-1.2c1.7-1.7,15.9-21.4,17.5-23.6
			c0.1-0.2,0.2-0.4,0.2-0.7c0-0.2-0.1-0.5-0.3-0.6c-0.1-0.1-0.2-0.2-0.3-0.2c-0.1-0.1-0.3-0.1-0.4-0.1c-0.2,0-0.4,0.1-0.6,0.2
			c-2.2,1.6-20.1,13.9-21.8,15.7c-2.1,2.1-3.9,7.3-1.8,9.4c0.5,0.5,1.1,0.9,1.7,1.2C39.4,186.4,40.1,186.6,40.8,186.6L40.8,186.6z"
			/>
		<path class="st0" d="M84,161.4c2.2,3,14.9,21.1,17.4,23.6c0.5,0.5,1.1,0.9,1.7,1.2c0.7,0.3,1.3,0.4,2.1,0.4c0.7,0,1.4-0.1,2.1-0.4
			c0.7-0.3,1.2-0.7,1.7-1.2c0.5-0.5,0.9-1.1,1.2-1.7c0.3-0.7,0.4-1.3,0.4-2.1c0-0.7-0.1-1.4-0.4-2.1c-0.3-0.7-0.7-1.2-1.2-1.7
			c-1.7-1.7-21.4-15.9-23.6-17.5c-0.2-0.1-0.4-0.2-0.6-0.2h0c-0.1,0-0.3,0-0.4,0.1c-0.1,0.1-0.2,0.1-0.3,0.2
			c-0.1,0.1-0.2,0.2-0.2,0.3c-0.1,0.1-0.1,0.3-0.1,0.4C83.8,161,83.9,161.3,84,161.4L84,161.4z"/>
		<path class="st1" d="M182.3,37.3c0.4,2.1,1.7,7.5,5.6,11.5c3.9,3.9,9.4,5.2,11.5,5.6c-0.4-2.1-1.7-7.5-5.6-11.5
			C189.8,39,184.4,37.7,182.3,37.3z"/>
		<path class="st1" d="M182.3,35.7c2.1-0.4,7.5-1.7,11.5-5.6c3.9-3.9,5.2-9.4,5.6-11.5c-2.1,0.4-7.5,1.7-11.5,5.6
			C184,28.2,182.7,33.6,182.3,35.7z"/>
		<path class="st1" d="M218,0c-2.1,0.4-7.5,1.7-11.5,5.6c-3.9,3.9-5.2,9.4-5.6,11.5c2.1-0.4,7.5-1.7,11.5-5.6
			C216.3,7.5,217.6,2.1,218,0z"/>
		<path class="st1" d="M199.4,17.1c-0.4-2.1-1.7-7.5-5.6-11.5c-3.9-3.9-9.4-5.2-11.5-5.6c0.4,2.1,1.7,7.5,5.6,11.5
			C191.8,15.4,197.3,16.7,199.4,17.1z"/>
		<path class="st1" d="M218,37.3c-2.1,0.4-7.5,1.7-11.5,5.6c-3.9,3.9-5.2,9.4-5.6,11.5c2.1-0.4,7.5-1.7,11.5-5.6
			C216.3,44.8,217.6,39.4,218,37.3z"/>
		<path class="st1" d="M218,35.7c-0.4-2.1-1.7-7.5-5.6-11.5c-3.9-3.9-9.4-5.2-11.5-5.6c0.4,2.1,1.7,7.5,5.6,11.5
			C210.5,34,215.9,35.3,218,35.7z"/>
		<path class="st1" d="M218,73c-0.4-2.1-1.7-7.5-5.6-11.5c-3.9-3.9-9.4-5.2-11.5-5.6c0.4,2.1,1.7,7.5,5.6,11.5
			C210.5,71.3,215.9,72.6,218,73z"/>
		<path class="st1" d="M182.3,73c2.1-0.4,7.5-1.7,11.5-5.6c3.9-3.9,5.2-9.4,5.6-11.5c-2.1,0.4-7.5,1.7-11.5,5.6
			C184,65.5,182.7,70.9,182.3,73z"/>
		<path class="st1" d="M162.1,18.6c-2.1,0.4-7.5,1.7-11.5,5.6c-3.9,3.9-5.2,9.4-5.6,11.5c2.1-0.4,7.5-1.7,11.5-5.6
			C160.4,26.2,161.7,20.7,162.1,18.6z"/>
		<path class="st1" d="M162.1,55.9c-2.1,0.4-7.5,1.7-11.5,5.6c-3.9,3.9-5.2,9.4-5.6,11.5c2.1-0.4,7.5-1.7,11.5-5.6
			C160.4,63.5,161.7,58,162.1,55.9z"/>
		<path class="st1" d="M162.1,54.4c-0.4-2.1-1.7-7.5-5.6-11.5c-3.9-3.9-9.4-5.2-11.5-5.6c0.4,2.1,1.7,7.5,5.6,11.5
			C154.5,52.7,160,54,162.1,54.4z"/>
		<path class="st1" d="M162.1,17.1c-0.4-2.1-1.7-7.5-5.6-11.5c-3.9-3.9-9.4-5.2-11.5-5.6c0.4,2.1,1.7,7.5,5.6,11.5
			C154.5,15.4,160,16.7,162.1,17.1z"/>
		<path class="st1" d="M163.6,54.4c2.1-0.4,7.5-1.7,11.5-5.6c3.9-3.9,5.2-9.4,5.6-11.5c-2.1,0.4-7.5,1.7-11.5,5.6
			C165.3,46.8,164,52.3,163.6,54.4z"/>
		<path class="st1" d="M180.7,73c-0.4-2.1-1.7-7.5-5.6-11.5c-3.9-3.9-9.4-5.2-11.5-5.6c0.4,2.1,1.7,7.5,5.6,11.5
			C173.2,71.3,178.6,72.6,180.7,73z"/>
		<path class="st1" d="M180.7,35.7c-0.4-2.1-1.7-7.5-5.6-11.5c-3.9-3.9-9.4-5.2-11.5-5.6c0.4,2.1,1.7,7.5,5.6,11.5
			C173.2,34,178.6,35.3,180.7,35.7z"/>
		<path class="st1" d="M180.7,0c-2.1,0.4-7.5,1.7-11.5,5.6c-3.9,3.9-5.2,9.4-5.6,11.5c2.1-0.4,7.5-1.7,11.5-5.6
			C179,7.5,180.3,2.1,180.7,0z"/>
	</g>
</g>
</svg>
