<?xml version="1.0" encoding="utf-8"?>
<!-- Generator: Adobe Illustrator 22.1.0, SVG Export Plug-In . SVG Version: 6.00 Build 0)  -->
<svg version="1.1" id="Слой_1" xmlns="http://www.w3.org/2000/svg" xmlns:xlink="http://www.w3.org/1999/xlink" x="0px" y="0px"
	 viewBox="0 0 148 246" style="enable-background:new 0 0 148 246;" xml:space="preserve">
<style type="text/css">
	.st0{fill:#FDD84A;}
</style>
<path class="st0" d="M75.6,17.8c0.2,0.1,0.4,0.1,0.6,0.1s0.4-0.1,0.5-0.3L92.5,1.7c0.1-0.1,0.2-0.3,0.3-0.5c0-0.2,0-0.4-0.1-0.6
	s-0.2-0.3-0.4-0.5C92.2,0.1,92,0,91.8,0H76c-0.3,0-0.5,0.1-0.7,0.3C75.1,0.5,75,0.7,75,1v15.8c0,0.2,0.1,0.4,0.2,0.6
	C75.3,17.6,75.4,17.7,75.6,17.8z"/>
<path class="st0" d="M75.6,26.1c0.1,0.1,0.3,0.2,0.5,0.2s0.3-0.1,0.5-0.2l24.6-24.6c0.1-0.1,0.1-0.1,0.1-0.2s0.1-0.2,0.1-0.3
	s0-0.2,0-0.3s-0.1-0.2-0.1-0.2c-0.1-0.1-0.1-0.1-0.2-0.1s-0.2,0-0.3,0s-0.2,0-0.3,0.1c-0.1,0-0.2,0.1-0.2,0.1L75.6,25.1
	c-0.1,0.1-0.2,0.3-0.2,0.5S75.4,25.9,75.6,26.1z"/>
<path class="st0" d="M147.4,55.2c-0.2-0.1-0.4-0.1-0.6-0.1c-0.2,0-0.4,0.1-0.5,0.3l-15.8,15.8c-0.1,0.1-0.2,0.3-0.3,0.5
	c0,0.2,0,0.4,0.1,0.6s0.2,0.3,0.4,0.5c0.2,0.1,0.4,0.2,0.6,0.2H147c0.3,0,0.5-0.1,0.7-0.3c0.2-0.2,0.3-0.4,0.3-0.7V56.2
	c0-0.2-0.1-0.4-0.2-0.6C147.7,55.4,147.6,55.3,147.4,55.2z"/>
<path class="st0" d="M147.4,46.9c-0.1-0.1-0.1-0.1-0.2-0.1c-0.1,0-0.2,0-0.3,0s-0.2,0-0.2,0c-0.1,0-0.2,0.1-0.2,0.1l-24.6,24.6
	c-0.1,0.1-0.2,0.3-0.2,0.5s0.1,0.3,0.2,0.5c0.1,0.1,0.3,0.2,0.5,0.2s0.3-0.1,0.5-0.2l24.6-24.6c0.1-0.1,0.1-0.1,0.1-0.2
	c0-0.1,0-0.2,0-0.3s0-0.2,0-0.2C147.6,47.1,147.5,47,147.4,46.9z"/>
<path class="st0" d="M76.7,55.5c-0.1-0.1-0.2-0.2-0.3-0.2c-0.1-0.1-0.3-0.1-0.4-0.1s-0.3,0-0.4,0.1c-0.2,0.1-0.3,0.2-0.5,0.4
	c0,0.1-0.1,0.3-0.1,0.5V72c0,0.1,0,0.3,0.1,0.4s0.1,0.2,0.2,0.3c0.1,0.1,0.2,0.2,0.3,0.2C75.7,73,75.9,73,76,73h15.8
	c0.2,0,0.4-0.1,0.6-0.2s0.3-0.3,0.4-0.5s0.1-0.4,0.1-0.6s-0.1-0.4-0.3-0.5L76.7,55.5z"/>
<path class="st0" d="M76.5,46.9c-0.1-0.1-0.3-0.2-0.5-0.2s-0.3,0.1-0.5,0.2c-0.1,0.1-0.2,0.3-0.2,0.5s0.1,0.3,0.2,0.5l24.6,24.6
	c0.1,0.1,0.3,0.2,0.5,0.2s0.3-0.1,0.5-0.2c0.1-0.1,0.1-0.1,0.1-0.2s0-0.2,0-0.3c0-0.1,0-0.2,0-0.2c0-0.1-0.1-0.2-0.1-0.2L76.5,46.9z
	"/>
<path class="st0" d="M146.3,17.5c0.2,0.2,0.4,0.3,0.7,0.3c0.1,0,0.3,0,0.4-0.1c0.2-0.1,0.3-0.2,0.5-0.4c0.1-0.2,0.2-0.4,0.2-0.6V1
	c0-0.3-0.1-0.5-0.3-0.7C147.5,0.1,147.3,0,147,0h-15.8c-0.2,0-0.4,0.1-0.6,0.2c-0.2,0.1-0.3,0.3-0.4,0.5c-0.1,0.2-0.1,0.4-0.1,0.6
	s0.1,0.4,0.3,0.5L146.3,17.5z"/>
<path class="st0" d="M146.5,26.1c0.1,0.1,0.3,0.2,0.5,0.2c0.1,0,0.3,0,0.4-0.1c0.1-0.1,0.2-0.2,0.2-0.3c0.1-0.1,0.1-0.3,0-0.4
	c0-0.1-0.1-0.2-0.2-0.3L122.9,0.6c-0.1-0.1-0.1-0.1-0.2-0.1s-0.2-0.1-0.3-0.1c-0.1,0-0.2,0-0.3,0.1c-0.1,0-0.2,0.1-0.2,0.1
	c-0.1,0.1-0.1,0.1-0.1,0.2s0,0.2,0,0.2c0,0.1,0,0.2,0,0.3s0.1,0.2,0.1,0.2L146.5,26.1z"/>
<path class="st0" d="M110.8,29.1c0.1,0.1,0.2,0.2,0.3,0.2c0.1,0.1,0.3,0.1,0.4,0.1s0.3,0,0.4-0.1s0.2-0.1,0.3-0.2
	c1.1-1.3,2.1-2.7,3-4.2c1.9-3,3-6.6,3-10.2s-1-7.2-3-10.2c-0.8-1.5-1.8-2.9-3-4.2c-0.1-0.1-0.2-0.2-0.3-0.2S111.6,0,111.5,0
	s-0.3,0-0.4,0.1s-0.2,0.1-0.3,0.2c-1.1,1.3-2.1,2.7-3,4.2c-1.9,3-3,6.6-3,10.2s1,7.2,3,10.2C108.6,26.4,109.6,27.8,110.8,29.1z"/>
<path class="st0" d="M112.2,43.9c-0.1-0.1-0.2-0.2-0.3-0.2c-0.1-0.1-0.3-0.1-0.4-0.1s-0.3,0-0.4,0.1s-0.2,0.1-0.3,0.2
	c-1.1,1.3-2.1,2.7-3,4.2c-1.9,3-3,6.6-3,10.2c0,3.6,1,7.2,3,10.2c0.8,1.5,1.8,2.9,3,4.2c0.1,0.1,0.2,0.2,0.3,0.2
	c0.1,0.1,0.3,0.1,0.4,0.1s0.3,0,0.4-0.1s0.2-0.1,0.3-0.2c1.1-1.3,2.1-2.7,3-4.2c1.9-3,3-6.6,3-10.2c0-3.6-1-7.2-3-10.2
	C114.4,46.6,113.4,45.2,112.2,43.9z"/>
<path class="st0" d="M79.5,32.8c-1.5,0.8-2.9,1.8-4.2,3c-0.1,0.1-0.2,0.2-0.2,0.3C75,36.2,75,36.4,75,36.5s0,0.3,0.1,0.4
	c0.1,0.1,0.1,0.2,0.2,0.3c1.3,1.1,2.7,2.1,4.2,3c3,1.9,6.6,3,10.2,3s7.2-1,10.2-3c1.5-0.8,2.9-1.9,4.2-3c0.1-0.1,0.2-0.2,0.2-0.3
	c0.1-0.1,0.1-0.3,0.1-0.4c0-0.1,0-0.3-0.1-0.4c-0.1-0.1-0.1-0.2-0.2-0.3c-1.3-1.1-2.7-2.1-4.2-3c-3-1.9-6.6-3-10.2-3
	C86.1,29.8,82.6,30.8,79.5,32.8z"/>
<path class="st0" d="M118.9,35.8c-0.1,0.1-0.2,0.2-0.2,0.3c-0.1,0.1-0.1,0.3-0.1,0.4c0,0.1,0,0.3,0.1,0.4c0.1,0.1,0.1,0.2,0.2,0.3
	c1.3,1.1,2.7,2.1,4.2,3c3,1.9,6.6,3,10.2,3s7.2-1,10.2-3c1.5-0.8,2.9-1.8,4.2-3c0.1-0.1,0.2-0.2,0.2-0.3c0.1-0.1,0.1-0.3,0.1-0.4
	c0-0.1,0-0.3-0.1-0.4c-0.1-0.1-0.1-0.2-0.2-0.3c-1.3-1.1-2.7-2.1-4.2-3c-3-1.9-6.6-3-10.2-3c-3.6,0-7.2,1-10.2,3
	C121.6,33.6,120.2,34.6,118.9,35.8z"/>
<path class="st0" d="M113.6,36.5c0-0.4-0.1-0.8-0.4-1.2c-0.2-0.4-0.6-0.6-1-0.8s-0.8-0.2-1.2-0.1c-0.4,0.1-0.8,0.3-1.1,0.6
	c-0.3,0.3-0.5,0.7-0.6,1.1c-0.1,0.4,0,0.8,0.1,1.2c0.2,0.4,0.4,0.7,0.8,1c0.4,0.2,0.8,0.4,1.2,0.4c0.3,0,0.6-0.1,0.8-0.2
	c0.3-0.1,0.5-0.3,0.7-0.5s0.4-0.4,0.5-0.7C113.6,37.1,113.6,36.8,113.6,36.5z"/>
<path class="st0" d="M117,42.7c0.8,1.1,7.9,11,8.7,11.8c0.5,0.5,1.2,0.8,1.9,0.8s1.4-0.3,1.9-0.8s0.8-1.2,0.8-1.9s-0.3-1.4-0.8-1.9
	c-0.9-0.9-10.7-7.9-11.8-8.7c-0.1-0.1-0.2-0.1-0.3-0.1c-0.1,0-0.2,0.1-0.3,0.1c-0.1,0.1-0.1,0.2-0.1,0.3
	C116.9,42.5,116.9,42.6,117,42.7z"/>
<path class="st0" d="M105.3,42c-1.1,0.8-11,7.9-11.8,8.7c-0.5,0.5-0.8,1.2-0.8,1.9s0.3,1.4,0.8,1.9s1.2,0.8,1.9,0.8
	c0.7,0,1.4-0.3,1.9-0.8c-0.1,0.1,7.2-9.7,8.7-11.8c0.1-0.1,0.1-0.2,0.1-0.3s-0.1-0.2-0.1-0.3c-0.1-0.1-0.2-0.1-0.3-0.1
	C105.5,41.9,105.4,41.9,105.3,42z"/>
<path class="st0" d="M127.6,17.7c-0.4,0-0.7,0.1-1,0.2s-0.6,0.3-0.9,0.6c-0.9,0.9-7.9,10.7-8.7,11.8c-0.1,0.1-0.1,0.2-0.1,0.3
	c0,0.1,0.1,0.2,0.1,0.3c0,0,0.1,0.1,0.2,0.1s0.1,0,0.2,0s0.2,0,0.3-0.1c1.1-0.8,10.1-7,10.9-7.8c1-1,2-3.7,0.9-4.7
	c-0.2-0.3-0.5-0.4-0.9-0.6C128.3,17.8,128,17.7,127.6,17.7z"/>
<path class="st0" d="M106,30.3c-1.1-1.5-7.5-10.5-8.7-11.8c-0.5-0.5-1.2-0.8-1.9-0.8c-0.7,0-1.4,0.3-1.9,0.8s-0.8,1.2-0.8,1.9
	c0,0.7,0.3,1.4,0.8,1.9c0.9,0.9,10.7,7.9,11.8,8.7c0.1,0.1,0.2,0.1,0.3,0.1l0,0c0.1,0,0.1,0,0.2,0s0.1-0.1,0.2-0.1
	c0,0,0.1-0.1,0.1-0.2s0-0.1,0-0.2C106.1,30.5,106.1,30.4,106,30.3z"/>
</svg>
