<?xml version="1.0" encoding="utf-8"?>
<!-- Generator: Adobe Illustrator 22.1.0, SVG Export Plug-In . SVG Version: 6.00 Build 0)  -->
<svg version="1.1" id="Слой_1" xmlns="http://www.w3.org/2000/svg" xmlns:xlink="http://www.w3.org/1999/xlink" x="0px" y="0px"
	 viewBox="0 0 148 246" style="enable-background:new 0 0 148 246;" xml:space="preserve">
<style type="text/css">
	.st0{fill:#E7533B;}
</style>
<path class="st0" d="M104,142.1l-1-0.2c-3.4-0.6-6.8-0.9-10.2-1c-2.3,0-4.6,0.2-6.8,0.8v-0.1h-0.1c-1.9-3.6-6-7.6-12.2-11.9
	l-0.8-0.6l-0.8,0.6C66,134.1,62,138.1,60,141.6h-0.1v0.1c-2.2-0.6-4.5-0.9-6.8-0.9c-3.5,0.1-6.9,0.4-10.3,1h-0.3l0,0l-0.7,0.1
	l-0.1,0.7l0,0v0.2c-1.2,7.4-1.2,13.1-0.1,17c-3.6,1.9-7.6,6-12,12.2l-0.6,0.8l0.6,0.8c4.4,6.1,8.4,10.1,11.9,12.1v0.1h0.1
	c-1.2,3.9-1.1,9.6,0.1,17v0.3l0,0l0.1,0.7l0.7,0.1l0,0h0.2c3.3,0.6,6.7,0.9,10.1,0.9l0,0c2.3,0,4.6-0.2,6.9-0.8v0.1h0.1
	c1.9,3.5,6,7.6,12.1,11.9l0.8,0.6l0.8-0.6c6.1-4.4,10.2-8.4,12.1-11.9h0.1V204c2.2,0.6,4.5,0.9,6.8,0.8c3.4,0,6.8-0.4,10.2-1
	l0.6-0.1l0.3-0.1l0.2-1c1.2-7.4,1.3-13.1,0.2-17h0.1v-0.1c3.5-1.9,7.6-6,11.9-12.1l0.6-0.8l-0.6-0.8c-4.4-6.1-8.4-10.2-11.9-12.1
	v-0.1H104c1.2-3.8,1.1-9.5-0.2-17l-0.1-0.3l0,0L104,142.1z M101.6,144.5c1,6.5,1.1,11.4,0.1,14.6h-0.1c-0.3-0.1-0.6-0.2-0.9-0.3l0,0
	c-0.3-0.1-0.6-0.2-0.9-0.3h-0.1c-0.3-0.1-0.6-0.2-0.9-0.2l0,0c-3.8-0.8-7.7-0.7-11.5,0.4l0,0c0.1-0.3,0.1-0.5,0.2-0.8v-0.2
	c0.1-0.3,0.1-0.5,0.2-0.8l0,0c0.1-0.3,0.1-0.5,0.1-0.8v-0.2c0-0.3,0.1-0.5,0.1-0.8V155c0-0.2,0.1-0.5,0.1-0.7v-0.2
	c0-0.3,0-0.5,0.1-0.8v-0.1c0-0.2,0-0.5,0-0.7v-0.2c0-0.3,0-0.5,0-0.8v-0.2c0-0.2,0-0.5,0-0.7v-0.1c0-0.3,0-0.5-0.1-0.8v-0.2
	c0-0.2-0.1-0.5-0.1-0.7v-0.1c0-0.3-0.1-0.5-0.1-0.8v-0.2c0-0.3-0.1-0.5-0.2-0.8l0,0c-0.1-0.3-0.1-0.5-0.2-0.8v-0.2
	c-0.1-0.3-0.1-0.5-0.2-0.8V145c-0.1-0.2-0.2-0.5-0.2-0.7v-0.1C90.3,143.4,95.3,143.5,101.6,144.5z M73,132.6
	c5.3,3.8,8.8,7.3,10.4,10.2c-0.3,0.1-0.6,0.3-0.8,0.4l-0.1,0.1c-0.3,0.2-0.6,0.3-0.8,0.5l-0.3,0.2c-0.2,0.1-0.4,0.3-0.7,0.4
	l-0.3,0.2c-0.3,0.2-0.5,0.4-0.8,0.5l-0.1,0.1c-0.3,0.2-0.6,0.4-0.8,0.7l-0.2,0.2c-0.2,0.2-0.4,0.3-0.6,0.5l-0.3,0.2
	c-0.2,0.2-0.4,0.4-0.6,0.6l-0.2,0.2c-0.3,0.3-0.5,0.5-0.7,0.8l-0.1,0.1c-0.2,0.2-0.4,0.4-0.6,0.7l-0.2,0.3c-0.2,0.2-0.3,0.4-0.5,0.6
	l-0.2,0.3c-0.2,0.3-0.4,0.6-0.6,0.8l0,0c-0.2,0.3-0.4,0.6-0.6,0.9l-0.2,0.3l-0.2,0.4l-0.2-0.4l-0.2-0.3c-0.2-0.3-0.4-0.6-0.6-0.9
	l0,0c-0.2-0.3-0.4-0.6-0.6-0.8l-0.2-0.3c-0.2-0.2-0.3-0.4-0.5-0.6l-0.2-0.3c-0.2-0.2-0.4-0.4-0.6-0.7l-0.1-0.1
	c-0.2-0.3-0.5-0.5-0.7-0.8l-0.2-0.2c-0.2-0.2-0.4-0.4-0.6-0.6l-0.3-0.2c-0.2-0.2-0.4-0.3-0.6-0.5l-0.2-0.2c-0.3-0.2-0.6-0.4-0.8-0.7
	l-0.1-0.1c-0.2-0.2-0.5-0.3-0.7-0.5l-0.3-0.2c-0.2-0.1-0.4-0.3-0.6-0.4l-0.3-0.2c-0.3-0.2-0.6-0.3-0.8-0.5h-0.1
	c-0.3-0.1-0.5-0.3-0.8-0.4C64.3,139.8,67.8,136.4,73,132.6L73,132.6z M75.2,163.2c0,0.6-0.2,1.2-0.7,1.6c-0.4,0.4-1,0.7-1.6,0.7
	s-1.2-0.2-1.6-0.7c-0.4-0.4-0.7-1-0.7-1.6c0.3-1.5,1.1-2.9,2.2-4l0.1,0.2l0.1-0.2C74.2,160.3,74.9,161.7,75.2,163.2L75.2,163.2z
	 M44.4,144.4c6.4-1,11.4-1.1,14.6-0.2v0.1c-0.1,0.2-0.2,0.5-0.2,0.7v0.1c-0.1,0.3-0.2,0.5-0.2,0.8v0.2c-0.1,0.2-0.1,0.5-0.2,0.7v0.1
	c-0.1,0.3-0.1,0.5-0.2,0.8v0.2c0,0.3-0.1,0.5-0.1,0.8l0,0c0,0.3-0.1,0.5-0.1,0.8v0.2c0,0.3-0.1,0.5-0.1,0.8v0.1c0,0.2,0,0.5,0,0.7
	v0.2c0,0.3,0,0.5,0,0.8v0.1c0,0.2,0,0.5,0,0.7v0.2c0,0.3,0,0.5,0.1,0.8v0.2c0,0.2,0,0.5,0.1,0.7v0.1c0,0.3,0.1,0.5,0.1,0.8v0.2
	c0,0.3,0.1,0.5,0.1,0.8l0,0c0.1,0.3,0.1,0.5,0.2,0.8v0.2c0.1,0.3,0.1,0.5,0.2,0.8l0,0c-4.7-1.3-9.7-1.2-14.3,0.4
	C43.4,155.7,43.5,150.8,44.4,144.4z M43.2,182.5c-0.1,0.3-0.3,0.6-0.4,0.8c-3-1.7-6.4-5.2-10.2-10.4c3.8-5.3,7.3-8.8,10.2-10.4
	c2.1,4.4,5.6,8,9.8,10.4l-0.4,0.2l-0.3,0.2c-0.3,0.2-0.6,0.4-0.9,0.6l0,0c-0.3,0.2-0.6,0.4-0.8,0.6l-0.3,0.2
	c-0.2,0.2-0.4,0.3-0.6,0.5l-0.3,0.2c-0.2,0.2-0.4,0.4-0.7,0.6l-0.2,0.1c-0.3,0.2-0.5,0.5-0.8,0.7l-0.2,0.2c-0.2,0.2-0.4,0.4-0.5,0.6
	l-0.2,0.3c-0.2,0.2-0.3,0.4-0.5,0.6l-0.2,0.2c-0.2,0.3-0.4,0.5-0.7,0.8l-0.1,0.2c-0.2,0.2-0.3,0.5-0.5,0.7l-0.2,0.3
	c-0.1,0.2-0.3,0.4-0.4,0.6l-0.2,0.3C43.6,181.9,43.4,182.1,43.2,182.5L43.2,182.5z M44.4,201.6c-1-6.4-1.1-11.4-0.1-14.6
	c0.3,0.1,0.6,0.2,1,0.3l0.2,0.1c0.3,0.1,0.6,0.2,0.8,0.2l0.5,0.1c0.2,0,0.4,0.1,0.6,0.1c0.2,0,0.4,0.1,0.6,0.1l0.5,0.1
	c0.2,0,0.4,0.1,0.7,0.1h0.3c0.3,0,0.5,0.1,0.8,0.1h0.1c0.7,0.1,1.3,0.1,2,0.1c1.9,0,3.8-0.2,5.7-0.7l0,0c0.3-0.1,0.5-0.1,0.8-0.2
	l0,0l0,0c-0.1,0.3-0.1,0.5-0.2,0.8v0.2c-0.1,0.3-0.1,0.5-0.2,0.8l0,0c-0.1,0.3-0.1,0.5-0.1,0.8v0.2c0,0.3-0.1,0.5-0.1,0.8v0.1
	c0,0.2-0.1,0.5-0.1,0.7v0.2c0,0.3,0,0.5-0.1,0.8v0.1c0,0.2,0,0.5,0,0.7v0.2c0,0.3,0,0.5,0,0.8v0.2c0,0.2,0,0.5,0,0.7v0.1
	c0,0.3,0,0.5,0.1,0.8v0.2c0,0.2,0.1,0.5,0.1,0.7v0.1c0,0.3,0.1,0.5,0.1,0.8v0.2c0,0.3,0.1,0.5,0.1,0.7v0.1c0.1,0.3,0.1,0.5,0.2,0.8
	v0.2c0.1,0.3,0.1,0.5,0.2,0.8l0,0c0.1,0.2,0.1,0.5,0.2,0.7v0.1C55.7,202.6,50.7,202.5,44.4,201.6L44.4,201.6z M72.9,213.4
	c-5.3-3.8-8.8-7.3-10.4-10.2c0.3-0.1,0.6-0.3,0.9-0.5l0.2-0.1c0.2-0.1,0.5-0.3,0.7-0.4l0.3-0.2c0.2-0.1,0.4-0.3,0.6-0.4l0.3-0.2
	c0.3-0.2,0.6-0.4,0.9-0.6l0,0c0.3-0.2,0.5-0.4,0.8-0.6l0.2-0.2c0.2-0.2,0.4-0.3,0.6-0.5l0.3-0.2c0.2-0.2,0.4-0.4,0.6-0.6l0.2-0.2
	c0.2-0.3,0.5-0.5,0.7-0.8l0.2-0.2c0.2-0.2,0.4-0.4,0.5-0.6l0.2-0.3c0.2-0.2,0.3-0.4,0.5-0.6l0.2-0.2c0.2-0.3,0.4-0.6,0.6-0.9l0,0
	c0.2-0.3,0.4-0.6,0.6-0.9l0.2-0.3l0.2-0.4l0.2,0.4l0.2,0.3c0.2,0.3,0.4,0.6,0.6,0.9v0.1c0.2,0.3,0.4,0.6,0.6,0.8l0.2,0.3
	c0.1,0.2,0.3,0.4,0.5,0.6l0.2,0.3c0.2,0.2,0.4,0.4,0.6,0.7l0.1,0.1c0.2,0.3,0.5,0.5,0.7,0.8l0.2,0.2c0.2,0.2,0.4,0.4,0.6,0.6
	l0.3,0.2c0.2,0.2,0.4,0.3,0.6,0.5l0.2,0.2c0.3,0.2,0.6,0.4,0.8,0.7l0.1,0.1c0.2,0.2,0.5,0.4,0.7,0.5l0.3,0.2
	c0.2,0.1,0.4,0.3,0.6,0.4l0.3,0.2c0.3,0.2,0.6,0.3,0.9,0.5h0.1c0.3,0.1,0.6,0.3,0.8,0.4C81.7,206.2,78.2,209.6,72.9,213.4z
	 M70.8,182.8c0-0.6,0.2-1.2,0.7-1.6c0.4-0.4,1-0.7,1.6-0.7s1.2,0.2,1.6,0.7c0.4,0.4,0.7,1,0.7,1.6c-0.3,1.5-1.1,2.9-2.2,4l-0.1-0.2
	l-0.1,0.2C71.8,185.7,71.1,184.3,70.8,182.8z M86.6,184.3c-0.3-0.1-0.6-0.2-1-0.4l-3.1-1.3l1.3,3.1c0.1,0.3,0.3,0.6,0.4,1l0.1,0.3
	c0.1,0.2,0.1,0.4,0.2,0.6l0.1,0.4c0.1,0.2,0.1,0.4,0.2,0.6L85,189c0,0.2,0.1,0.4,0.1,0.6l0.1,0.4c0,0.2,0.1,0.4,0.1,0.6l0.1,0.4
	c0,0.2,0,0.4,0.1,0.6v0.4c0,0.2,0,0.4,0,0.6v0.4c0,0.2,0,0.4,0,0.6v0.4c0,0.2,0,0.4,0,0.6v0.4c0,0.2,0,0.4,0,0.7v0.3
	c0,0.3-0.1,0.6-0.1,1l0,0c0,0.3-0.1,0.7-0.2,1l-0.1,0.3c0,0.2-0.1,0.4-0.1,0.7l-0.1,0.4c0,0.2-0.1,0.4-0.2,0.6l-0.1,0.4l-0.1,0.4
	l-0.4-0.2l-0.4-0.2c-0.2-0.1-0.4-0.2-0.5-0.3l-0.3-0.2c-0.2-0.1-0.4-0.2-0.6-0.4l-0.3-0.2c-0.3-0.2-0.5-0.4-0.8-0.6h-0.1
	c-0.2-0.2-0.5-0.4-0.7-0.6l-0.3-0.2c-0.2-0.1-0.3-0.3-0.5-0.4l-0.3-0.3l-0.4-0.4l-0.3-0.3l-0.4-0.4l-0.3-0.3l-0.4-0.4l-0.3-0.3
	l-0.3-0.4l-0.3-0.4l-0.3-0.5l-0.2-0.4c-0.1-0.2-0.2-0.3-0.3-0.5l-0.2-0.4c-0.1-0.2-0.2-0.4-0.3-0.5l-0.2-0.4
	c-0.1-0.2-0.2-0.4-0.3-0.6l-0.1-0.3c-0.1-0.3-0.3-0.6-0.4-0.9l0,0c1.8-2,3.7-4.6,3.7-6.9c0-1.3-0.5-2.6-1.5-3.5
	c-0.9-0.9-2.2-1.4-3.5-1.4s-2.6,0.5-3.5,1.4s-1.5,2.2-1.5,3.5c0,2.3,1.9,4.8,3.7,6.8v0.1c-0.1,0.3-0.3,0.6-0.4,0.9l-0.1,0.3
	c-0.1,0.2-0.2,0.4-0.3,0.6l-0.2,0.3c-0.1,0.2-0.2,0.4-0.3,0.5l-0.2,0.4c-0.1,0.2-0.2,0.3-0.3,0.5l-0.2,0.4l-0.3,0.5l-0.3,0.4
	l-0.3,0.4l-0.3,0.3l-0.4,0.4l-0.3,0.3l-0.4,0.4l-0.3,0.3l-0.4,0.4l-0.3,0.3l-0.5,0.4l-0.3,0.3c-0.2,0.1-0.4,0.3-0.5,0.4l-0.2,0.2
	c-0.3,0.2-0.5,0.4-0.8,0.6l-0.1,0.1c-0.2,0.2-0.5,0.3-0.7,0.5l-0.3,0.2c-0.2,0.1-0.4,0.2-0.6,0.3l-0.4,0.2l-0.4,0.2l-0.1-0.4
	l-0.1-0.4c-0.1-0.2-0.1-0.4-0.2-0.6l-0.1-0.4c-0.1-0.2-0.1-0.4-0.1-0.6l-0.1-0.3c-0.1-0.3-0.1-0.7-0.2-1V197c0-0.3-0.1-0.6-0.1-0.9
	v-0.4c0-0.2,0-0.4,0-0.6v-0.4c0-0.2,0-0.4,0-0.6v-0.4c0-0.2,0-0.4,0-0.6v-0.4c0-0.2,0-0.4,0-0.6v-0.4c0-0.2,0-0.4,0.1-0.6l0.1-0.4
	c0-0.2,0.1-0.4,0.1-0.6l0.1-0.4c0-0.2,0.1-0.4,0.1-0.6l0.1-0.4c0.1-0.2,0.1-0.4,0.2-0.6l0.1-0.4c0.1-0.2,0.1-0.4,0.2-0.6l0.1-0.3
	c0.1-0.3,0.2-0.6,0.4-1l1.3-3.1l-3.1,1.3c-0.3,0.1-0.6,0.3-1,0.4l-0.3,0.1c-0.2,0.1-0.4,0.2-0.7,0.2l-0.3,0.1
	c-0.2,0.1-0.4,0.1-0.6,0.2l-0.3,0.1c-0.2,0.1-0.5,0.1-0.7,0.2l-0.3,0.1c-0.3,0-0.5,0.1-0.8,0.1h-0.2c-0.3,0-0.6,0.1-0.9,0.1h-0.1
	c-0.7,0.1-1.4,0.1-2.1,0.1c-1.4,0-2.7-0.1-4-0.4l-0.3-0.1c-0.2,0-0.4-0.1-0.7-0.1l-0.4-0.1c-0.2,0-0.4-0.1-0.5-0.1l-0.4-0.1
	l-0.4-0.1l0.2-0.4l0.2-0.4c0.1-0.2,0.2-0.4,0.3-0.5l0.2-0.3c0.1-0.2,0.2-0.4,0.4-0.6l0.2-0.3c0.2-0.3,0.4-0.6,0.6-0.8
	c0.2-0.3,0.4-0.5,0.6-0.8l0.2-0.2c0.1-0.2,0.3-0.3,0.4-0.5l0.3-0.3l0.4-0.4l0.3-0.3l0.4-0.4l0.3-0.3l0.4-0.4l0.3-0.3l0.5-0.4
	l0.3-0.3c0.2-0.1,0.3-0.2,0.5-0.3l0.4-0.2c0.2-0.1,0.3-0.2,0.5-0.3l0.4-0.2c0.2-0.1,0.4-0.2,0.5-0.3l0.3-0.2
	c0.2-0.1,0.4-0.2,0.6-0.3l0.3-0.1c0.3-0.1,0.6-0.3,0.9-0.4l0,0c2,1.8,4.6,3.7,6.9,3.7c1.3,0,2.6-0.5,3.5-1.4s1.5-2.2,1.5-3.5
	s-0.5-2.6-1.5-3.5c-0.9-0.9-2.2-1.5-3.5-1.5c-2.3,0-4.8,1.9-6.8,3.7h-0.1c-4.8-1.9-8.7-5.6-11-10.2c4.9-1.6,10.2-1.4,15,0.6l3.1,1.3
	l-1.3-3.1c-0.1-0.3-0.3-0.6-0.4-0.9l-0.1-0.3c-0.1-0.2-0.1-0.4-0.2-0.6l-0.1-0.4c-0.1-0.2-0.1-0.4-0.2-0.6L61,157
	c0-0.2-0.1-0.4-0.1-0.6l-0.1-0.4c0-0.2-0.1-0.4-0.1-0.6l-0.1-0.4c0-0.2-0.1-0.4-0.1-0.6V154c0-0.2,0-0.4,0-0.6V153
	c0-0.2,0-0.4,0-0.6V152c0-0.2,0-0.4,0-0.6V151c0-0.2,0-0.4,0-0.6V150c0-0.2,0.1-0.5,0.1-0.7V149c0-0.3,0.1-0.7,0.2-1v-0.1
	c0.1-0.3,0.1-0.6,0.2-0.9l0.1-0.3c0.1-0.2,0.1-0.4,0.2-0.6l0.1-0.4l0.1-0.4l0.4,0.2l0.4,0.2c0.2,0.1,0.4,0.2,0.5,0.3l0.3,0.2
	c0.2,0.1,0.4,0.2,0.6,0.4l0.3,0.2c0.3,0.2,0.5,0.4,0.8,0.6l0,0c0.3,0.2,0.5,0.4,0.8,0.6l0.2,0.2c0.2,0.1,0.3,0.3,0.5,0.4l0.3,0.3
	l0.4,0.4l0.3,0.3l0.4,0.4l0.3,0.3l0.4,0.4l0.3,0.3l0.3,0.5l0.3,0.4l0.3,0.5l0.2,0.4c0.1,0.2,0.2,0.3,0.3,0.5l0.2,0.4
	c0.1,0.2,0.2,0.4,0.3,0.5l0.2,0.4c0.1,0.2,0.2,0.4,0.3,0.6l0.1,0.3c0.1,0.3,0.3,0.6,0.4,0.9l0,0c-1.8,2-3.7,4.6-3.7,6.9
	c0,1.3,0.5,2.6,1.5,3.5c0.9,0.9,2.2,1.4,3.5,1.4s2.6-0.5,3.5-1.4s1.5-2.2,1.5-3.5c0-2.3-1.9-4.8-3.7-6.8v-0.1
	c0.1-0.3,0.3-0.6,0.4-0.9l0.1-0.3c0.1-0.2,0.2-0.4,0.3-0.6l0.2-0.4c0.1-0.2,0.2-0.4,0.3-0.5l0.2-0.4c0.1-0.2,0.2-0.3,0.3-0.5
	l0.2-0.4l0.3-0.5l0.3-0.4l0.3-0.4l0.3-0.3l0.4-0.4l0.3-0.3l0.4-0.4l0.3-0.3l0.4-0.4l0.3-0.3c0.2-0.1,0.3-0.3,0.5-0.4l0.3-0.2
	c0.2-0.2,0.5-0.4,0.7-0.6l0,0c0.3-0.2,0.5-0.4,0.8-0.6l0.3-0.2c0.2-0.1,0.4-0.2,0.6-0.4l0.3-0.2c0.2-0.1,0.4-0.2,0.5-0.3l0.4-0.2
	l0.4-0.2l0.1,0.4l0.1,0.4c0.1,0.2,0.1,0.4,0.2,0.6l0.1,0.4c0.1,0.2,0.1,0.4,0.1,0.7l0.1,0.3c0.1,0.3,0.1,0.7,0.2,1l0,0
	c0,0.3,0.1,0.6,0.1,1v0.3c0,0.2,0,0.4,0,0.7v0.4c0,0.2,0,0.4,0,0.6v0.4c0,0.2,0,0.4,0,0.6v0.4c0,0.2,0,0.4,0,0.6v0.4
	c0,0.2,0,0.4-0.1,0.6l-0.1,0.4c0,0.2-0.1,0.4-0.1,0.6l-0.1,0.4c0,0.2-0.1,0.4-0.1,0.6l-0.1,0.4c-0.1,0.2-0.1,0.4-0.2,0.6l-0.1,0.4
	c-0.1,0.2-0.1,0.4-0.2,0.6l-0.1,0.3c-0.1,0.3-0.2,0.6-0.4,0.9l-1.3,3.1l3.1-1.3c0.3-0.1,0.6-0.3,1-0.4l0.3-0.1
	c0.2-0.1,0.4-0.2,0.7-0.2l0.3-0.1c0.2-0.1,0.4-0.1,0.7-0.2l0.3-0.1c0.2-0.1,0.5-0.1,0.7-0.2h0.2c0.3-0.1,0.5-0.1,0.8-0.1h0.1
	c0.3,0,0.6-0.1,0.9-0.1l0,0c0.7-0.1,1.4-0.1,2.1-0.1c1.4,0,2.7,0.1,4.1,0.4h0.2c0.2,0.1,0.5,0.1,0.7,0.2l0.4,0.1
	c0.2,0.1,0.4,0.1,0.6,0.2l0.4,0.1l0.4,0.1l-0.2,0.4l-0.2,0.4c-0.1,0.2-0.2,0.4-0.3,0.5l-0.2,0.3c-0.1,0.2-0.2,0.4-0.4,0.6l-0.2,0.3
	c-0.2,0.3-0.4,0.6-0.6,0.8l0,0c-0.2,0.3-0.4,0.5-0.6,0.8l-0.2,0.3c-0.1,0.2-0.3,0.3-0.4,0.5l-0.3,0.3l-0.4,0.4l-0.3,0.3l-0.4,0.4
	l-0.3,0.3l-0.4,0.4l-0.3,0.3l-0.5,0.3l-0.4,0.3c-0.2,0.1-0.3,0.2-0.5,0.3l-0.4,0.2c-0.2,0.1-0.3,0.2-0.5,0.3l-0.4,0.2
	c-0.2,0.1-0.4,0.2-0.5,0.3l-0.4,0.2c-0.2,0.1-0.4,0.2-0.6,0.3l-0.3,0.2c-0.3,0.1-0.6,0.3-0.9,0.4l0,0l0,0c-2-1.8-4.6-3.7-6.9-3.7
	c-1.3,0-2.6,0.5-3.5,1.5c-0.9,0.9-1.5,2.2-1.5,3.5s0.5,2.6,1.5,3.5c0.9,0.9,2.2,1.5,3.5,1.5c2.3,0,4.8-1.9,6.8-3.7h0.1
	c0.3,0.1,0.6,0.3,0.9,0.4l0.3,0.1c0.2,0.1,0.4,0.2,0.6,0.3l0.4,0.2c0.2,0.1,0.4,0.2,0.5,0.3l0.4,0.2c0.2,0.1,0.3,0.2,0.5,0.3
	l0.4,0.2c0.2,0.1,0.3,0.2,0.5,0.3l0.3,0.3l0.5,0.4l0.3,0.3l0.4,0.4l0.3,0.3L96,179l0.3,0.3l0.4,0.4L97,180c0.2,0.2,0.3,0.3,0.4,0.5
	l0.2,0.2c0.2,0.3,0.4,0.5,0.6,0.8l0,0c0.2,0.3,0.4,0.5,0.6,0.8l0.2,0.3c0.1,0.2,0.2,0.4,0.4,0.6l0.2,0.3c0.1,0.2,0.2,0.4,0.3,0.5
	l0.2,0.4l0.2,0.4l-0.3,0.1l-0.4,0.1c-0.2,0.1-0.4,0.1-0.6,0.2l0-0.2c-0.2,0.1-0.5,0.1-0.7,0.2l-0.2,0.1c-1.3,0.3-2.7,0.4-4,0.4
	c-0.7,0-1.4,0-2.1-0.1l0,0c-0.3,0-0.6-0.1-1-0.1h-0.2c-0.3,0-0.5-0.1-0.8-0.1h-0.3c-0.2-0.1-0.5-0.1-0.7-0.2l-0.3-0.1
	c-0.2-0.1-0.4-0.1-0.7-0.2l-0.3-0.1c-0.2-0.1-0.5-0.1-0.7-0.2L86.6,184.3z M59.2,172.9c1.1-1.1,2.5-1.8,4-2.1c0.3,0,0.6,0.1,0.9,0.2
	c0.3,0.1,0.5,0.3,0.7,0.5s0.4,0.5,0.5,0.7c0.1,0.3,0.2,0.6,0.2,0.9s-0.1,0.6-0.2,0.9c-0.1,0.3-0.3,0.5-0.5,0.7s-0.5,0.4-0.7,0.5
	c-0.3,0.1-0.6,0.2-0.9,0.2c-1.5-0.3-2.9-1.1-4-2.2l0.2-0.1L59.2,172.9z M86.8,173.1c-1.1,1.1-2.5,1.8-4,2.1c-0.6,0-1.2-0.2-1.6-0.7
	c-0.4-0.4-0.7-1-0.7-1.6s0.2-1.2,0.7-1.6c0.4-0.4,1-0.7,1.6-0.7c1.5,0.3,2.9,1.1,4,2.2l-0.2,0.1L86.8,173.1z M101.5,201.6
	c-2.9,0.5-5.8,0.7-8.8,0.8c-2,0-3.9-0.2-5.8-0.7v-0.1c0.1-0.2,0.2-0.5,0.2-0.7v-0.1c0.1-0.3,0.1-0.5,0.2-0.8v-0.2
	c0.1-0.3,0.1-0.5,0.2-0.8l0,0c0.1-0.3,0.1-0.5,0.2-0.8V198c0-0.3,0.1-0.5,0.1-0.8v-0.1c0-0.2,0.1-0.5,0.1-0.7v-0.2
	c0-0.3,0.1-0.5,0.1-0.8v-0.1c0-0.2,0-0.5,0-0.7v-0.1c0-0.3,0-0.5,0-0.8v-0.2c0-0.2,0-0.5,0-0.7v-0.1c0-0.3,0-0.5-0.1-0.8v-0.2
	c0-0.3,0-0.5-0.1-0.8v-0.1c0-0.3-0.1-0.5-0.1-0.8v-0.2c0-0.3-0.1-0.5-0.1-0.8l0,0c-0.1-0.3-0.1-0.5-0.2-0.8V188
	c-0.1-0.3-0.1-0.5-0.2-0.8l0,0l0,0c2.1,0.6,4.3,0.9,6.6,0.9c1.6,0,3.3-0.2,4.9-0.5l0,0c0.3-0.1,0.6-0.1,0.9-0.2l0,0
	c0.3-0.1,0.6-0.2,0.9-0.2l0,0c0.3-0.1,0.6-0.2,0.8-0.3h0.1C102.6,190.3,102.5,195.2,101.5,201.6L101.5,201.6z M113.4,173.1
	c-3.8,5.3-7.3,8.8-10.2,10.4c-0.1-0.3-0.3-0.6-0.4-0.8l-0.1-0.1c-0.1-0.3-0.3-0.5-0.5-0.8l-0.2-0.3c-0.1-0.2-0.3-0.4-0.4-0.6
	l-0.2-0.3c-0.2-0.2-0.3-0.5-0.5-0.7l-0.1-0.1c-0.2-0.3-0.4-0.6-0.7-0.8l-0.2-0.2c-0.2-0.2-0.3-0.4-0.5-0.6l-0.2-0.3
	c-0.2-0.2-0.4-0.4-0.5-0.6l-0.2-0.2c-0.3-0.2-0.5-0.5-0.8-0.7l-0.2-0.1c-0.2-0.2-0.4-0.4-0.7-0.6l-0.3-0.2c-0.2-0.2-0.4-0.3-0.6-0.5
	l-0.3-0.2c-0.3-0.2-0.6-0.4-0.8-0.6l0,0c-0.3-0.2-0.6-0.4-0.9-0.6l-0.3-0.2l-0.4-0.2l0.4-0.2l0.3-0.2c0.3-0.2,0.6-0.4,0.9-0.6h0.1
	c0.3-0.2,0.6-0.4,0.8-0.6l0.3-0.2c0.2-0.2,0.4-0.3,0.6-0.5l0.3-0.2c0.2-0.2,0.4-0.4,0.7-0.6l0.2-0.1c0.3-0.2,0.5-0.5,0.8-0.7
	l0.2-0.2c0.2-0.2,0.4-0.4,0.5-0.6l0.2-0.3c0.2-0.2,0.3-0.4,0.5-0.6l0.2-0.2c0.2-0.3,0.4-0.6,0.7-0.8l0.1-0.1
	c0.2-0.2,0.4-0.5,0.5-0.7l0.2-0.3c0.1-0.2,0.3-0.4,0.4-0.6l0.2-0.3c0.2-0.3,0.3-0.6,0.5-0.8l0.1-0.1c0.1-0.3,0.3-0.6,0.4-0.8
	C106.2,164.3,109.6,167.8,113.4,173.1L113.4,173.1z"/>
<path class="st0" d="M42.1,142l0.7-0.1l-10.3-10.3h-0.8v0.8L42,142.8L42.1,142z"/>
<path class="st0" d="M42.1,142.1l0.7-0.1l0,0L42.1,142.1l-0.1,0.7L42.1,142.1z"/>
<path class="st0" d="M103.9,142L103.9,142L103.9,142l0.1,0.7l10.3-10.3v-0.8h-0.8l-10.3,10.3L103.9,142z"/>
<path class="st0" d="M104,142.1l0.1,0.6l0,0L104,142.1L104,142.1z"/>
<path class="st0" d="M103.9,204L103.9,204l-0.3,0.1l-0.4,0.1l10.3,10.3h0.9v-0.8L104,203.3L103.9,204z"/>
<path class="st0" d="M103.9,204L103.9,204h-0.3H103.9z"/>
<path class="st0" d="M42,203.9l-0.1-0.7l-10.3,10.3v0.8h0.8L42.7,204L42,203.9z"/>
<path class="st0" d="M42,203.9l-0.1-0.7l0,0L42,203.9l0.7,0.1l0,0L42,203.9z"/>
<path class="st0" d="M139.2,157c-2.9-3.8-6.7-6.8-11.1-8.6v-30.5H97.7c-1.8-4.4-4.8-8.2-8.6-11.1c-4.6-3.5-10.3-5.3-16-5.3
	s-11.4,1.9-16,5.3c-3.8,2.9-6.8,6.7-8.6,11.1H17.8v30.5c-4.4,1.9-8.2,4.8-11.1,8.6c-3.5,4.6-5.3,10.3-5.3,16c0,5.8,1.9,11.4,5.3,16
	c2.9,3.8,6.7,6.8,11.1,8.6v30.5h30.5c1.8,4.4,4.8,8.2,8.6,11.1c4.6,3.5,10.3,5.3,16,5.3s11.4-1.9,16-5.3c3.8-2.9,6.8-6.7,8.6-11.1
	H128v-30.5c4.4-1.8,8.2-4.8,11.1-8.6c3.5-4.6,5.3-10.3,5.3-16C144.6,167.2,142.7,161.6,139.2,157L139.2,157z M123.4,191.2l-3,0.9
	v28.4H92.1l-0.9,3c-1.2,3.9-3.6,7.3-6.9,9.7s-7.2,3.7-11.3,3.7c-4.1,0-8-1.3-11.3-3.7s-5.7-5.8-6.9-9.7l-0.9-3H25.5v-28.4l-3-0.9
	c-3.9-1.2-7.3-3.6-9.7-6.9s-3.7-7.2-3.7-11.3s1.3-8,3.7-11.3s5.8-5.7,9.7-6.9l3-0.9v-28.4h28.4l0.9-3c1.2-3.9,3.6-7.3,6.9-9.7
	s7.2-3.7,11.3-3.7c4.1,0,8,1.3,11.3,3.7c3.3,2.4,5.7,5.8,6.9,9.7l0.9,3h28.4v28.4l3,0.9c3.9,1.2,7.3,3.6,9.7,6.9
	c2.4,3.3,3.7,7.2,3.7,11.3s-1.3,8-3.7,11.3S127.3,190,123.4,191.2L123.4,191.2z"/>
<path class="st0" d="M140.4,156.1c-2.8-3.8-6.5-6.7-10.8-8.7v-31h-31c-2-4.3-4.9-8-8.7-10.8C85,102,79.1,100,73,100l0,0
	c-6.1,0-12,2-16.9,5.6c-3.7,2.8-6.7,6.5-8.7,10.8h-31v31c-4.3,2-8,4.9-10.8,8.7C2,161,0,166.9,0,173s2,12,5.6,16.9
	c2.8,3.7,6.5,6.7,10.8,8.7v31h31c2,4.3,4.9,8,8.7,10.8C61,244,66.9,246,73,246s12-2,16.9-5.6c3.7-2.8,6.7-6.5,8.7-10.8h31v-31
	c4.3-2,8-4.9,10.8-8.7c3.7-4.9,5.6-10.8,5.6-16.9l0,0C146,166.9,144,161,140.4,156.1z M139.8,189.5c-2.8,3.8-6.6,6.8-10.9,8.7v30.7
	H98.1c-1.9,4.3-4.9,8.1-8.7,10.9c-4.7,3.6-10.5,5.5-16.5,5.5c-5.9,0-11.7-1.9-16.5-5.5c-3.8-2.8-6.8-6.6-8.7-10.9H17.1v-30.7
	c-4.3-1.9-8.1-4.9-10.9-8.7C2.6,184.7,0.7,179,0.7,173c0-5.9,1.9-11.7,5.5-16.5c2.8-3.8,6.6-6.8,10.9-8.7v-30.7h30.7
	c1.9-4.3,4.9-8.1,8.7-10.9c4.7-3.6,10.5-5.5,16.5-5.5c5.9,0,11.7,1.9,16.5,5.5c3.8,2.8,6.8,6.6,8.7,10.9h30.7v30.7
	c4.3,1.9,8.1,4.9,10.9,8.7c3.6,4.8,5.5,10.5,5.5,16.5C145.3,178.9,143.4,184.7,139.8,189.5L139.8,189.5z"/>
<path class="st0" d="M139.8,156.5c-2.8-3.8-6.6-6.8-10.9-8.7v-30.7H98.1c-1.9-4.3-4.9-8.1-8.7-10.9c-4.8-3.6-10.5-5.5-16.5-5.5
	c-5.9,0-11.7,1.9-16.5,5.5c-3.8,2.8-6.8,6.6-8.7,10.9H17.1v30.7c-4.3,1.9-8.1,4.9-10.9,8.7C2.6,161.3,0.7,167,0.7,173
	c0,5.9,1.9,11.7,5.5,16.5c2.8,3.8,6.6,6.8,10.9,8.7v30.7h30.7c1.9,4.3,4.9,8.1,8.7,10.9c4.7,3.6,10.5,5.5,16.5,5.5
	c5.9,0,11.7-1.9,16.5-5.5c3.8-2.8,6.8-6.6,8.7-10.9h30.7v-30.7c4.3-1.9,8.1-4.9,10.9-8.7c3.6-4.7,5.5-10.5,5.5-16.5
	C145.3,167.1,143.4,161.3,139.8,156.5L139.8,156.5z M139.2,189c-2.9,3.8-6.7,6.8-11.1,8.6v30.5H97.7c-1.8,4.4-4.8,8.2-8.6,11.1
	c-4.6,3.5-10.3,5.3-16,5.3c-5.8,0-11.4-1.9-16-5.3c-3.8-2.9-6.8-6.7-8.6-11.1H17.8v-30.5c-4.4-1.8-8.2-4.8-11.1-8.6
	c-3.5-4.6-5.3-10.3-5.3-16c0-5.8,1.9-11.4,5.3-16c2.9-3.8,6.7-6.8,11.1-8.6v-30.5h30.5c1.8-4.4,4.8-8.2,8.6-11.1
	c4.6-3.5,10.3-5.3,16-5.3c5.8,0,11.4,1.9,16,5.3c3.8,2.9,6.8,6.7,8.6,11.1H128v30.5c4.4,1.9,8.2,4.8,11.1,8.6
	c3.5,4.6,5.3,10.3,5.3,16C144.6,178.8,142.7,184.4,139.2,189L139.2,189z"/>
<path class="st0" d="M122.5,157.9l-5.3-1.6v-27.5H89.7l-1.6-5.3c-1-3.2-3-6-5.7-8s-6-3.1-9.4-3.1s-6.7,1.1-9.4,3.1
	c-2.7,2-4.7,4.8-5.7,8l-1.6,5.3H28.8v27.5l-5.3,1.6c-3.2,1-6,3-8,5.7s-3.1,6-3.1,9.4s1.1,6.7,3.1,9.4s4.8,4.7,8,5.7l5.3,1.6v27.5
	h27.5l1.6,5.3c1,3.2,3,6,5.7,8c2.7,2,6,3.1,9.4,3.1s6.7-1.1,9.4-3.1c2.7-2,4.7-4.8,5.7-8l1.6-5.3h27.5v-27.5l5.3-1.6
	c3.2-1,6-3,8-5.7s3.1-6,3.1-9.4s-1.1-6.7-3.1-9.4S125.7,158.9,122.5,157.9z M121.7,185.4l-7.3,2.2v26l2.4,2.4l0,0v0.8h-0.9l-2.4-2.4
	H87.6l-2.2,7.3c-0.8,2.6-2.5,5-4.7,6.6s-4.9,2.5-7.7,2.5c-2.8,0-5.5-0.9-7.7-2.5s-3.9-4-4.7-6.6l-2.2-7.3h-26l-2.4,2.4h-0.8V216
	l2.4-2.4v-26l-7.3-2.2c-2.6-0.8-5-2.5-6.6-4.7s-2.5-4.9-2.5-7.7s0.9-5.5,2.5-7.7s4-3.9,6.6-4.7l7.3-2.2v-26l-2.4-2.4l0,0v-0.8H30
	l2.4,2.4h25.9l2.2-7.3c0.8-2.6,2.5-5,4.7-6.6c2.2-1.6,4.9-2.5,7.7-2.5c2.8,0,5.5,0.9,7.7,2.5s3.9,4,4.7,6.6l2.2,7.3h26l2.4-2.4h0.8
	v0.8l-2.4,2.4v26l7.3,2.2c2.6,0.8,5,2.5,6.6,4.7s2.5,4.9,2.5,7.7s-0.9,5.5-2.5,7.7C126.6,182.9,124.3,184.6,121.7,185.4L121.7,185.4
	z"/>
<path class="st0" d="M32.4,131.6l-2.4-2.4h-0.8v0.8l0,0l2.4,2.4v-0.8H32.4z"/>
<path class="st0" d="M114.4,132.4l2.4-2.4v-0.8H116l-2.4,2.4h0.8V132.4z"/>
<path class="st0" d="M113.5,214.4l2.4,2.4h0.9V216l0,0l-2.4-2.4v0.8H113.5z"/>
<path class="st0" d="M31.6,213.6l-2.4,2.4v0.8H30l2.4-2.4h-0.8C31.6,214.4,31.6,213.6,31.6,213.6z"/>
</svg>
