<?xml version="1.0" encoding="utf-8"?>
<!-- Generator: Adobe Illustrator 22.1.0, SVG Export Plug-In . SVG Version: 6.00 Build 0)  -->
<svg version="1.1" id="Слой_1" xmlns="http://www.w3.org/2000/svg" xmlns:xlink="http://www.w3.org/1999/xlink" x="0px" y="0px"
	 viewBox="0 0 219 580" style="enable-background:new 0 0 219 580;" xml:space="preserve">
<style type="text/css">
	.st0{fill:#E7533B;}
	.st1{fill:#2C3B8C;}
</style>
<g>
	<path class="st0" d="M144,430.4c-0.3,0.3-0.5,0.6-0.7,1c-0.1,0.4-0.2,0.8-0.2,1.2c0,0.4,0.1,0.8,0.2,1.2c0.2,0.4,0.4,0.7,0.7,1
		c0.6,0.6,1.4,0.9,2.2,0.9s1.6-0.3,2.2-0.9c0.3-0.3,0.5-0.6,0.7-1c0.1-0.4,0.2-0.8,0.2-1.2c0-0.4-0.1-0.8-0.2-1.2
		c-0.2-0.4-0.4-0.7-0.7-1c-0.6-0.6-1.4-0.9-2.2-0.9S144.6,429.8,144,430.4z"/>
	<path class="st0" d="M141.8,428.9c0.1,0,0.2,0,0.3,0s0.2-0.1,0.3-0.2s0.1-0.2,0.2-0.3c0-0.1,0-0.2,0-0.3c-0.9-4-2.8-7.6-5.7-10.5
		c-2.9-2.7-6.5-4.7-10.4-5.6v0.9h-0.9c0.9,3.9,2.8,7.5,5.6,10.3C134.2,426.1,137.8,428.1,141.8,428.9z"/>
	<path class="st0" d="M150.6,436.2c-0.1,0-0.2,0-0.3,0s-0.2,0.1-0.3,0.2s-0.1,0.2-0.2,0.3s0,0.2,0,0.3c0.9,4,2.8,7.6,5.6,10.5
		c2.9,2.7,6.5,4.7,10.4,5.6v-0.9h0.9c-0.9-3.9-2.8-7.5-5.6-10.3C158.2,439,154.6,437,150.6,436.2z"/>
	<path class="st0" d="M142.5,436.9c0-0.1,0-0.2,0-0.3s-0.1-0.2-0.2-0.3c-0.1-0.1-0.2-0.1-0.3-0.2c-0.1,0-0.2,0-0.3,0
		c-4,0.9-7.7,2.8-10.6,5.6c-2.8,2.9-4.7,6.4-5.6,10.3h0.9v0.9c3.9-0.9,7.5-2.8,10.4-5.6C139.7,444.5,141.7,440.8,142.5,436.9z"/>
	<path class="st0" d="M149.8,428.2c0,0.1,0,0.2,0,0.3s0.1,0.2,0.2,0.3c0.1,0.1,0.2,0.1,0.3,0.2c0.1,0,0.2,0,0.3,0
		c4-0.9,7.7-2.8,10.6-5.6c2.8-2.9,4.7-6.4,5.6-10.3h-0.9v-0.9c-3.9,0.9-7.5,2.8-10.4,5.6C152.7,420.6,150.7,424.2,149.8,428.2z"/>
	<path class="st0" d="M140.4,432c-3.4-2.2-7.4-3.3-11.4-3.4c-4.1,0.1-8.1,1.3-11.5,3.5c-0.1,0.1-0.2,0.1-0.2,0.2s-0.1,0.2-0.1,0.3
		c0,0.1,0,0.2,0.1,0.3c0.1,0.1,0.1,0.2,0.2,0.2c3.4,2.2,7.4,3.4,11.5,3.5c4.1-0.1,8.1-1.3,11.5-3.5l0.1-0.1l0,0
		c0.1-0.1,0.1-0.1,0.1-0.2s0.1-0.2,0.1-0.2s0-0.2-0.1-0.2c0-0.1-0.1-0.1-0.1-0.2L140.4,432z"/>
	<path class="st0" d="M174.8,432c-3.4-2.2-7.4-3.3-11.4-3.4c-4.1,0.1-8.1,1.3-11.5,3.5c-0.1,0.1-0.2,0.1-0.2,0.2s-0.1,0.2-0.1,0.3
		c0,0.1,0,0.2,0.1,0.3c0,0.1,0.1,0.2,0.2,0.2c3.4,2.2,7.4,3.4,11.5,3.5c4.1-0.1,8.1-1.3,11.5-3.5l0.1-0.1l0,0
		c0.1-0.1,0.1-0.1,0.1-0.2s0.1-0.2,0.1-0.2s0-0.2-0.1-0.2c0-0.1-0.1-0.1-0.1-0.2L174.8,432z"/>
	<path class="st0" d="M146.2,437.9c-0.1,0-0.2,0-0.3,0.1c-0.1,0-0.2,0.1-0.2,0.2c-2.2,3.4-3.4,7.3-3.5,11.4c0.1,4,1.3,8,3.5,11.4
		c0,0.1,0.1,0.1,0.2,0.2c0.1,0,0.2,0.1,0.3,0.1s0.2,0,0.3,0s0.2-0.1,0.2-0.1l0.1-0.1c2.2-3.4,3.4-7.3,3.5-11.4
		c-0.1-4-1.3-8-3.5-11.4c0-0.1-0.1-0.2-0.2-0.2C146.4,437.9,146.3,437.9,146.2,437.9z"/>
	<path class="st0" d="M146.2,427.2c0.1,0,0.2,0,0.2,0c0.1,0,0.1-0.1,0.2-0.1l0.1-0.1c2.2-3.4,3.4-7.3,3.5-11.4
		c-0.1-4-1.3-8-3.5-11.4c0-0.1-0.1-0.2-0.2-0.2c-0.1,0-0.2-0.1-0.3-0.1s-0.2,0-0.3,0.1c-0.1,0-0.2,0.1-0.2,0.2
		c-2.2,3.4-3.4,7.3-3.5,11.4c0.1,4,1.3,8,3.5,11.4c0,0.1,0.1,0.2,0.2,0.2S146.1,427.2,146.2,427.2z"/>
	<path class="st0" d="M111.7,361.3c-9.5-0.5-10.7,5.2-10.7,6.8c0,5.2,3.8,6.1,3.8,6.1c-2.2,1.1-10.2,1.1-10.2-6.7
		c0-0.9,0.2-1.8,0.7-2.6c0.5-0.8,1.1-1.4,1.9-1.8h-0.1c-1.4,0.8-2.9,1.2-4.5,1.3c-1.9-0.2-3.7-1-5-2.3c-0.9-0.7-2.5-2.1-2.5-2.1
		h-6.7c0,0,14.9,18.9,27.9,18.9c2.1,0,4.1-0.6,5.8-1.8c1.7-1.2,2.9-2.9,3.5-4.9s0.6-4.1-0.1-6C114.7,364.1,113.4,362.5,111.7,361.3z
		"/>
	<path class="st0" d="M73,365.3L73,365.3v6.7l0,0c0,0,1.5,1.6,2.2,2.5c1.3,1.4,2.1,3.1,2.3,5c-0.1,1.6-0.5,3.1-1.3,4.5v0.1
		c0.4-0.8,1.1-1.5,1.9-1.9c0.8-0.5,1.7-0.7,2.6-0.6c7.9,0,7.9,8,6.8,10.1c0,0-0.9-3.7-6.1-3.7c-1.6,0-7.3,1.1-6.9,10.6
		c1.2,1.7,2.9,3,4.8,3.7s4.1,0.7,6,0.1c2-0.6,3.7-1.8,4.9-3.5c1.2-1.7,1.9-3.7,1.9-5.7C92,380,73,365.3,73,365.3z"/>
	<path class="st0" d="M213.7,360H207c0,0-1.6,1.4-2.5,2.1c-1.4,1.3-3.1,2.1-5,2.3c-1.6-0.1-3.1-0.5-4.5-1.3h-0.1
		c0.8,0.4,1.5,1,1.9,1.8c0.5,0.8,0.7,1.7,0.7,2.6c0,7.8-8,7.8-10.2,6.7c0,0,3.8-0.9,3.8-6.1c0-1.6-1.2-7.3-10.7-6.8
		c-1.7,1.2-3,2.8-3.7,4.8c-0.7,1.9-0.7,4.1-0.1,6c0.6,2,1.8,3.7,3.5,4.9c1.7,1.2,3.7,1.9,5.8,1.8C198.8,378.9,213.7,360,213.7,360z"
		/>
	<path class="st0" d="M219,365.3c0,0-19,14.8-19,27.7c0,2.1,0.7,4.1,1.9,5.7c1.2,1.7,3,2.9,4.9,3.5c2,0.6,4.1,0.6,6-0.1
		s3.6-2,4.8-3.7c0.5-9.4-5.3-10.6-6.9-10.6c-5.2,0-6.1,3.7-6.1,3.7c-1.2-2.1-1.1-10.1,6.8-10.1c0.9,0,1.8,0.2,2.6,0.7
		s1.4,1.1,1.8,1.9v-0.1c-0.8-1.4-1.2-2.9-1.3-4.5c0.2-1.9,1-3.6,2.3-5c0.7-0.9,2.2-2.5,2.2-2.5l0,0V365.3L219,365.3z"/>
	<path class="st0" d="M185.8,487.1c-2.1,0-4.1,0.6-5.8,1.8s-2.9,2.9-3.5,4.9s-0.6,4.1,0.1,6c0.7,1.9,2,3.6,3.7,4.8
		c9.5,0.5,10.7-5.2,10.7-6.8c0-5.2-3.8-6.1-3.8-6.1c2.2-1.2,10.2-1.1,10.2,6.7c0,0.9-0.2,1.8-0.7,2.6c-0.5,0.8-1.1,1.4-1.9,1.8h0.1
		c1.4-0.8,2.9-1.2,4.5-1.3c1.9,0.2,3.7,1,5,2.3c0.9,0.7,2.5,2.1,2.5,2.2h6.7C213.7,506,198.8,487.1,185.8,487.1z"/>
	<path class="st0" d="M216.8,491.6c-1.3-1.4-2.1-3.1-2.3-5c0.1-1.6,0.5-3.1,1.3-4.5V482c-0.4,0.8-1.1,1.5-1.8,1.9
		c-0.8,0.5-1.7,0.7-2.6,0.6c-7.9,0-7.9-8-6.8-10.1c0,0,0.9,3.7,6.1,3.7c1.6,0,7.3-1.1,6.9-10.6c-1.2-1.7-2.9-3-4.8-3.7
		c-1.9-0.7-4.1-0.7-6-0.1c-2,0.6-3.7,1.8-4.9,3.5c-1.2,1.6-1.9,3.6-1.9,5.7c0,12.9,19,27.7,19,27.7l0,0v-6.7l0,0
		C219,494.1,217.5,492.5,216.8,491.6z"/>
	<path class="st0" d="M92.6,501.6c1.6,0.1,3.1,0.6,4.5,1.3h0.1c-0.8-0.4-1.5-1.1-1.9-1.8c-0.5-0.8-0.7-1.7-0.7-2.6
		c0-7.8,8-7.8,10.2-6.7c0,0-3.8,0.9-3.8,6.1c0,1.6,1.1,7.3,10.7,6.8c1.7-1.1,3-2.8,3.7-4.8c0.7-1.9,0.7-4.1,0.1-6s-1.8-3.7-3.5-4.9
		s-3.7-1.9-5.8-1.8c-13,0-27.9,18.8-27.9,18.9H85c0,0,1.6-1.4,2.5-2.2C88.9,502.6,90.7,501.8,92.6,501.6z"/>
	<path class="st0" d="M92,473c0-2.1-0.7-4.1-1.9-5.7c-1.2-1.7-3-2.9-4.9-3.5c-2-0.6-4.1-0.6-6,0.1s-3.6,2-4.8,3.7
		c-0.5,9.4,5.3,10.6,6.9,10.6c5.2,0,6.1-3.7,6.1-3.7c1.2,2.2,1.1,10.1-6.8,10.1c-0.9,0-1.8-0.2-2.6-0.6c-0.8-0.5-1.4-1.1-1.9-1.9
		v0.1c0.8,1.4,1.2,2.9,1.3,4.5c-0.2,1.9-1,3.6-2.3,5c-0.7,0.9-2.2,2.5-2.2,2.5l0,0v6.7l0,0C73,500.7,92,486,92,473z"/>
	<path class="st0" d="M169.3,379.5V360H123v19.5l-30.4,30.1H73v3.4v16.1l0,0v6.9l0,0v16.1v3.4h19.7l30.4,30.1V506h46.3v-20.4
		l30.4-30.1H219v-45.9h-19.3L169.3,379.5z M196.2,452.1h-29.4c0,0.1,0,0.2,0,0.2c0,0.1,0,0.2,0,0.3c0,0.1-0.1,0.2-0.2,0.3
		c-0.1,0.1-0.2,0.1-0.3,0.2s-0.2,0-0.3,0c0,0-0.1,0-0.2,0v29.2l-19.7,19.5l-19.7-19.5V453c-0.1,0-0.2,0-0.2,0c-0.1,0-0.2,0-0.3,0
		c-0.1,0-0.2-0.1-0.3-0.2c-0.1-0.1-0.1-0.2-0.2-0.3c0-0.1,0-0.2,0-0.3c0,0,0-0.1,0-0.2H96.2l-19.7-19.5L96.2,413h29.4
		c0-0.1,0-0.2,0-0.2c0-0.1,0-0.2,0-0.3c0-0.1,0.1-0.2,0.2-0.3c0.1-0.1,0.2-0.1,0.3-0.2c0.1,0,0.2,0,0.3,0c0,0,0.1,0,0.2,0v-29
		l19.7-19.5L166,383v29.1c0.1,0,0.2,0,0.2,0c0.1,0,0.2,0,0.3,0s0.2,0.1,0.3,0.2s0.1,0.2,0.2,0.3c0,0.1,0,0.2,0,0.3c0,0,0,0.1,0,0.2
		h29.4l19.7,19.6L196.2,452.1z"/>
	<path class="st0" d="M126.5,412.1c-0.1,0-0.2,0-0.2,0c-0.1,0-0.2,0-0.3,0c-0.1,0-0.2,0.1-0.3,0.2c-0.1,0.1-0.1,0.2-0.2,0.3
		c0,0.1,0,0.2,0,0.3c0,0,0,0.1,0,0.2h0.9L126.5,412.1L126.5,412.1z"/>
	<path class="st0" d="M165.9,453c0.1,0,0.2,0,0.2,0c0.1,0,0.2,0,0.3,0s0.2-0.1,0.3-0.2s0.1-0.2,0.2-0.3c0-0.1,0-0.2,0-0.3
		c0,0,0-0.1,0-0.2H166v1H165.9z"/>
	<path class="st0" d="M125.6,452.1c0,0.1,0,0.2,0,0.2c0,0.1,0,0.2,0,0.3c0,0.1,0.1,0.2,0.2,0.3c0.1,0.1,0.2,0.1,0.3,0.2
		c0.1,0,0.2,0,0.3,0c0,0,0.1,0,0.2,0v-0.9h-1V452.1z"/>
	<path class="st0" d="M166.8,413c0-0.1,0-0.2,0-0.2c0-0.1,0-0.2,0-0.3c0-0.1-0.1-0.2-0.2-0.3c-0.1-0.1-0.2-0.1-0.3-0.2
		c-0.1,0-0.2,0-0.3,0c0,0-0.1,0-0.2,0v0.9h1V413z"/>
	<path class="st1" d="M52,528.1l-0.5-0.1c-1.7-0.3-3.4-0.5-5.1-0.5c-1.1,0-2.3,0.1-3.4,0.4l0,0l0,0c-0.9-1.8-3-3.8-6.1-6l-0.4-0.3
		l-0.4,0.3c-3,2.2-5.1,4.2-6,5.9l0,0l0,0c-1.1-0.3-2.2-0.4-3.4-0.4c-1.7,0-3.5,0.2-5.1,0.5h-0.1l0,0L21,528l-0.1,0.4l0,0v0.1
		c-0.6,3.7-0.6,6.6,0,8.5c-1.8,0.9-3.8,3-6,6.1l-0.3,0.4l0.3,0.4c2.2,3,4.2,5.1,5.9,6l0,0l0,0c-0.6,1.9-0.6,4.8,0.1,8.5v0.1l0,0
		L21,559l0.3,0.1l0,0h0.1c1.7,0.3,3.4,0.4,5.1,0.5l0,0c1.2,0,2.3-0.1,3.4-0.4l0,0l0,0c0.9,1.8,3,3.8,6.1,6l0.4,0.3l0.4-0.3
		c3.1-2.2,5.1-4.2,6.1-5.9l0,0l0,0c1.1,0.3,2.3,0.4,3.4,0.4c1.7,0,3.4-0.2,5.1-0.5l0.3-0.1h0.1l0.1-0.5c0.6-3.7,0.7-6.6,0.1-8.5l0,0
		l0,0c1.8-0.9,3.8-3,6-6l0.3-0.4l-0.3-0.4c-2.2-3.1-4.2-5.1-5.9-6.1l0,0l0,0c0.6-1.9,0.6-4.8-0.1-8.5v-0.2l0,0L52,528.1z
		 M50.8,529.2c0.5,3.2,0.5,5.7,0.1,7.3l0,0c-0.1-0.1-0.3-0.1-0.4-0.1l0,0c-0.2,0-0.3-0.1-0.5-0.1l0,0c-0.2,0-0.3-0.1-0.5-0.1l0,0
		c-1.9-0.4-3.9-0.3-5.7,0.2l0,0c0-0.1,0.1-0.3,0.1-0.4v-0.1c0-0.1,0.1-0.3,0.1-0.4l0,0c0-0.1,0-0.3,0.1-0.4V535c0-0.1,0-0.3,0-0.4
		l0,0c0-0.1,0-0.3,0-0.4v-0.1c0-0.1,0-0.3,0-0.4v-0.1c0-0.1,0-0.2,0-0.3v-0.1c0-0.1,0-0.3,0-0.4v-0.1c0-0.1,0-0.2,0-0.4v-0.1
		c0-0.1,0-0.3,0-0.4v-0.1c0-0.1,0-0.2,0-0.4v-0.1c0-0.1,0-0.3-0.1-0.4v-0.1c0-0.1,0-0.3-0.1-0.4l0,0c0-0.1-0.1-0.3-0.1-0.4v-0.1
		c0-0.1-0.1-0.3-0.1-0.4l0,0c0-0.1-0.1-0.2-0.1-0.4l0,0C45.2,528.7,47.6,528.7,50.8,529.2z M36.5,523.3c2.7,1.9,4.4,3.6,5.2,5.1
		c-0.1,0.1-0.3,0.1-0.4,0.2h-0.1c-0.1,0.1-0.3,0.2-0.4,0.2l-0.1,0.1c-0.1,0.1-0.2,0.1-0.3,0.2l-0.1,0.1c-0.1,0.1-0.3,0.2-0.4,0.3
		h-0.1c-0.1,0.1-0.3,0.2-0.4,0.3l-0.1,0.1c-0.1,0.1-0.2,0.2-0.3,0.3l-0.1,0.1c-0.1,0.1-0.2,0.2-0.3,0.3l-0.1,0.1
		c-0.1,0.1-0.2,0.3-0.4,0.4l-0.1,0.1c-0.1,0.1-0.2,0.2-0.3,0.3l-0.1,0.1c-0.1,0.1-0.2,0.2-0.2,0.3l-0.1,0.1
		c-0.1,0.1-0.2,0.3-0.3,0.4l0,0c-0.1,0.1-0.2,0.3-0.3,0.5l-0.1,0.1l-0.1,0.2l-0.1-0.2l-0.1-0.1c-0.1-0.2-0.2-0.3-0.3-0.5l0,0
		c-0.1-0.1-0.2-0.3-0.3-0.4l-0.1-0.1c-0.1-0.1-0.2-0.2-0.2-0.3l-0.1-0.1c-0.1-0.1-0.2-0.2-0.3-0.3l-0.1-0.1
		c-0.1-0.1-0.2-0.3-0.4-0.4l-0.1-0.1c-0.1-0.1-0.2-0.2-0.3-0.3l-0.1-0.1c-0.1-0.1-0.2-0.2-0.3-0.3l-0.1-0.1
		c-0.1-0.1-0.3-0.2-0.4-0.3h-0.1c-0.1-0.1-0.2-0.2-0.4-0.3l-0.1-0.1c-0.1-0.1-0.2-0.1-0.3-0.2l-0.2-0.1c-0.1-0.1-0.3-0.2-0.4-0.2
		l0,0c-0.1-0.1-0.3-0.2-0.4-0.2C32.2,526.9,33.9,525.2,36.5,523.3L36.5,523.3z M37.6,538.6c0,0.3-0.1,0.6-0.3,0.8s-0.5,0.3-0.8,0.3
		s-0.6-0.1-0.8-0.3s-0.3-0.5-0.3-0.8c0.2-0.8,0.5-1.4,1.1-2v0.1v-0.1C37.1,537.2,37.5,537.8,37.6,538.6L37.6,538.6z M22.2,529.2
		c3.2-0.5,5.7-0.5,7.3-0.1l0,0c0,0.1-0.1,0.2-0.1,0.3v0.1c0,0.1-0.1,0.3-0.1,0.4v0.1c0,0.1-0.1,0.2-0.1,0.3v0.1
		c0,0.1-0.1,0.3-0.1,0.4v0.1c0,0.1,0,0.3-0.1,0.4l0,0c0,0.1,0,0.3,0,0.4v0.1c0,0.1,0,0.3,0,0.4l0,0c0,0.1,0,0.3,0,0.4v0.1
		c0,0.1,0,0.3,0,0.4v0.1c0,0.1,0,0.2,0,0.4v0.1c0,0.1,0,0.3,0,0.4v0.1c0,0.1,0,0.2,0,0.4v0.1c0,0.1,0,0.3,0.1,0.4v0.1
		c0,0.1,0,0.3,0.1,0.4l0,0c0,0.1,0.1,0.3,0.1,0.4v0.1c0,0.1,0.1,0.3,0.1,0.4l0,0c-2.3-0.7-4.8-0.6-7.2,0.2
		C21.7,534.8,21.7,532.4,22.2,529.2z M21.6,548.3c-0.1,0.1-0.2,0.3-0.2,0.4c-1.5-0.8-3.2-2.6-5.1-5.2c1.9-2.7,3.6-4.4,5.1-5.2
		c1.1,2.2,2.8,4,4.9,5.2l-0.2,0.1l-0.1,0.1c-0.2,0.1-0.3,0.2-0.4,0.3l0,0c-0.1,0.1-0.3,0.2-0.4,0.3l-0.1,0.1
		c-0.1,0.1-0.2,0.2-0.3,0.2l-0.1,0.1c-0.1,0.1-0.2,0.2-0.3,0.3l-0.1,0.1c-0.1,0.1-0.3,0.2-0.4,0.4l-0.1,0.1
		c-0.1,0.1-0.2,0.2-0.3,0.3l-0.1,0.1c-0.1,0.1-0.2,0.2-0.3,0.3l-0.1,0.1c-0.1,0.1-0.2,0.3-0.3,0.4l-0.1,0.1
		c-0.1,0.1-0.2,0.2-0.3,0.4l-0.1,0.1c-0.1,0.1-0.1,0.2-0.2,0.3l-0.1,0.2C21.8,547.9,21.7,548.1,21.6,548.3L21.6,548.3z M22.2,557.8
		c-0.5-3.2-0.5-5.7-0.1-7.3c0.2,0.1,0.3,0.1,0.5,0.2h0.1c0.1,0,0.3,0.1,0.4,0.1l0.2,0.1c0.1,0,0.2,0,0.3,0.1c0.1,0,0.2,0,0.3,0h0.2
		c0.1,0,0.2,0,0.3,0.1h0.2c0.1,0,0.3,0,0.4,0l0,0c0.3,0,0.7,0.1,1,0.1c1,0,1.9-0.1,2.8-0.3l0,0c0.1,0,0.3-0.1,0.4-0.1l0,0l0,0
		c0,0.1-0.1,0.3-0.1,0.4v0.1c0,0.1-0.1,0.3-0.1,0.4l0,0c0,0.1,0,0.3-0.1,0.4v0.1c0,0.1,0,0.3-0.1,0.4l0,0c0,0.1,0,0.3,0,0.4v0.1
		c0,0.1,0,0.3,0,0.4v0.1c0,0.1,0,0.2,0,0.3v0.1c0,0.1,0,0.3,0,0.4v0.1c0,0.1,0,0.2,0,0.4v0.1c0,0.1,0,0.3,0,0.4v0.1
		c0,0.1,0,0.2,0,0.4v0.1c0,0.1,0,0.3,0.1,0.4v0.1c0,0.1,0,0.3,0.1,0.4l0,0c0,0.1,0.1,0.3,0.1,0.4v0.1c0,0.1,0.1,0.3,0.1,0.4l0,0
		c0,0.1,0.1,0.2,0.1,0.4l0,0C27.8,558.3,25.4,558.3,22.2,557.8L22.2,557.8z M36.5,563.7c-2.6-1.9-4.4-3.6-5.2-5.1
		c0.2-0.1,0.3-0.2,0.4-0.2l0.1-0.1c0.1-0.1,0.2-0.1,0.4-0.2l0.2-0.1c0.1-0.1,0.2-0.1,0.3-0.2l0.1-0.1c0.1-0.1,0.3-0.2,0.4-0.3l0,0
		c0.1-0.1,0.3-0.2,0.4-0.3l0.1-0.1c0.1-0.1,0.2-0.2,0.3-0.3l0.1-0.1c0.1-0.1,0.2-0.2,0.3-0.3l0.1-0.1c0.1-0.1,0.2-0.3,0.4-0.4
		l0.1-0.1c0.1-0.1,0.2-0.2,0.3-0.3l0.1-0.1c0.1-0.1,0.2-0.2,0.2-0.3l0.1-0.1c0.1-0.2,0.2-0.3,0.3-0.4l0,0c0.1-0.1,0.2-0.3,0.3-0.4
		l0.1-0.1l0.1-0.2l0.1,0.2l0.1,0.1c0.1,0.2,0.2,0.3,0.3,0.4l0,0c0.1,0.1,0.2,0.3,0.3,0.4l0.1,0.1c0.1,0.1,0.2,0.2,0.2,0.3l0.1,0.1
		c0.1,0.1,0.2,0.2,0.3,0.3l0.1,0.1c0.1,0.1,0.2,0.3,0.4,0.4l0.1,0.1c0.1,0.1,0.2,0.2,0.3,0.3l0.1,0.1c0.1,0.1,0.2,0.2,0.3,0.3
		l0.1,0.1c0.1,0.1,0.3,0.2,0.4,0.3h0.1c0.1,0.1,0.3,0.2,0.4,0.3l0.1,0.1c0.1,0.1,0.2,0.1,0.3,0.2l0.1,0.1c0.1,0.1,0.3,0.2,0.4,0.2
		h0.1c0.1,0.1,0.3,0.1,0.4,0.2C40.8,560.1,39.1,561.8,36.5,563.7z M35.4,548.4c0-0.3,0.1-0.6,0.3-0.8s0.5-0.3,0.8-0.3
		s0.6,0.1,0.8,0.3s0.3,0.5,0.3,0.8c-0.2,0.8-0.5,1.4-1.1,2v-0.1v0.1C35.9,549.8,35.5,549.2,35.4,548.4z M43.3,549.2
		c-0.2-0.1-0.3-0.1-0.5-0.2l-1.5-0.7l0.6,1.5c0.1,0.2,0.1,0.3,0.2,0.5l0.1,0.2c0,0.1,0.1,0.2,0.1,0.3l0.1,0.2c0,0.1,0.1,0.2,0.1,0.3
		v0.2c0,0.1,0.1,0.2,0.1,0.3v0.2c0,0.1,0,0.2,0.1,0.3v0.2c0,0.1,0,0.2,0,0.3v0.2c0,0.1,0,0.2,0,0.3v0.2c0,0.1,0,0.2,0,0.3v0.2
		c0,0.1,0,0.2,0,0.3v0.2c0,0.1,0,0.2,0,0.3v0.2c0,0.2,0,0.3,0,0.5l0,0c0,0.2-0.1,0.3-0.1,0.5v0.2c0,0.1,0,0.2-0.1,0.3v0.2
		c0,0.1-0.1,0.2-0.1,0.3l-0.1,0.2l-0.1,0.2l-0.2-0.1l-0.2-0.1c-0.1,0-0.2-0.1-0.3-0.2l-0.2-0.1c-0.1-0.1-0.2-0.1-0.3-0.2l-0.2-0.1
		c-0.1-0.1-0.3-0.2-0.4-0.3l0,0c-0.1-0.1-0.3-0.2-0.4-0.3l-0.1-0.1c-0.1-0.1-0.2-0.1-0.2-0.2l-0.2-0.1l-0.2-0.2l-0.1-0.2L39,555
		l-0.1-0.2l-0.2-0.2l-0.1-0.2l-0.2-0.2l-0.1-0.2l-0.2-0.2l-0.1-0.2c-0.1-0.1-0.1-0.2-0.2-0.2l-0.1-0.2c-0.1-0.1-0.1-0.2-0.2-0.3
		l-0.1-0.2c-0.1-0.1-0.1-0.2-0.2-0.3l-0.1-0.2c-0.1-0.2-0.1-0.3-0.2-0.5l0,0c0.9-1,1.9-2.3,1.9-3.4c0-0.7-0.3-1.3-0.7-1.8
		c-0.5-0.5-1.1-0.7-1.8-0.7s-1.3,0.3-1.8,0.7c-0.5,0.5-0.7,1.1-0.7,1.8c0,1.1,1,2.4,1.8,3.4l0,0c-0.1,0.2-0.1,0.3-0.2,0.5l-0.1,0.1
		c0,0.1-0.1,0.2-0.1,0.3l-0.1,0.2c0,0.1-0.1,0.2-0.1,0.3l-0.1,0.2c0,0.1-0.1,0.2-0.1,0.2l-0.1,0.2l-0.2,0.2l-0.1,0.2l-0.2,0.2
		l-0.1,0.2l-0.2,0.2l-0.1,0.2l-0.2,0.2l-0.2,0.2l-0.2,0.2l-0.2,0.1l-0.2,0.2l-0.1,0.1c-0.1,0.1-0.2,0.1-0.3,0.2l-0.1,0.1
		c-0.1,0.1-0.3,0.2-0.4,0.3h-0.1c-0.1,0.1-0.2,0.2-0.4,0.2l-0.2,0.1c-0.1,0.1-0.2,0.1-0.3,0.2l-0.2,0.1l-0.2,0.1l-0.1-0.2l-0.1-0.2
		c0-0.1-0.1-0.2-0.1-0.3l-0.1-0.2c0-0.1-0.1-0.2-0.1-0.3v-0.2c0-0.2-0.1-0.3-0.1-0.5l0,0c0-0.2,0-0.3-0.1-0.5v-0.2
		c0-0.1,0-0.2,0-0.3v-0.2c0-0.1,0-0.2,0-0.3v-0.2c0-0.1,0-0.2,0-0.3v-0.2c0-0.1,0-0.2,0-0.3v-0.2c0-0.1,0-0.2,0-0.3v-0.2
		c0-0.1,0-0.2,0.1-0.3l0.1-0.2c0-0.1,0-0.2,0.1-0.3l0.1-0.2c0-0.1,0.1-0.2,0.1-0.3l0.1-0.2c0-0.1,0.1-0.2,0.1-0.3l0.1-0.2
		c0.1-0.2,0.1-0.3,0.2-0.5l0.7-1.5l-1.5,0.6c-0.2,0.1-0.3,0.1-0.5,0.2l-0.2,0.1c-0.1,0-0.2,0.1-0.3,0.1h-0.2c-0.1,0-0.2,0.1-0.3,0.1
		h-0.2c-0.1,0-0.2,0.1-0.3,0.1h-0.1c-0.1,0-0.3,0.1-0.4,0.1h-0.1c-0.2,0-0.3,0-0.4,0.1h-0.1c-0.3,0-0.7,0.1-1,0.1
		c-0.7,0-1.4-0.1-2-0.2h-0.1c-0.1,0-0.2-0.1-0.3-0.1h-0.2c-0.1,0-0.2-0.1-0.3-0.1l-0.2-0.1l-0.2-0.1l0.1-0.2l0.1-0.2
		c0.1-0.1,0.1-0.2,0.2-0.3l0.1-0.2c0.1-0.1,0.1-0.2,0.2-0.3l0.1-0.1c0.1-0.1,0.2-0.3,0.3-0.4c0.1-0.1,0.2-0.3,0.3-0.4l0.1-0.1
		c0.1-0.1,0.1-0.2,0.2-0.3l0.1-0.1l0.2-0.2l0.2-0.1l0.2-0.2l0.2-0.1l0.2-0.2l0.2-0.1l0.2-0.2l0.2-0.1c0.1-0.1,0.2-0.1,0.2-0.2
		l0.2-0.1c0.1-0.1,0.2-0.1,0.3-0.2l0.2-0.1c0.1-0.1,0.2-0.1,0.3-0.2l0.2-0.1c0.1-0.1,0.2-0.1,0.3-0.2l0.1-0.1
		c0.2-0.1,0.3-0.1,0.5-0.2l0,0c1,0.9,2.3,1.9,3.4,1.9c0.7,0,1.3-0.3,1.8-0.7c0.5-0.5,0.7-1.1,0.7-1.8s-0.3-1.3-0.7-1.8
		c-0.5-0.5-1.1-0.7-1.8-0.7c-1.1,0-2.4,1-3.4,1.8l0,0c-2.4-1-4.3-2.8-5.5-5.1c2.4-0.8,5.1-0.7,7.5,0.3l1.5,0.6l-0.6-1.5
		c-0.1-0.2-0.1-0.3-0.2-0.5l-0.1-0.2c0-0.1-0.1-0.2-0.1-0.3l-0.1-0.2c0-0.1-0.1-0.2-0.1-0.3v-0.2c0-0.1,0-0.2-0.1-0.3v-0.2
		c0-0.1,0-0.2-0.1-0.3v-0.2c0-0.1,0-0.2,0-0.3v-0.2c0-0.1,0-0.2,0-0.3v-0.2c0-0.1,0-0.2,0-0.3v0.2c0-0.1,0-0.2,0-0.3v-0.2
		c0-0.1,0-0.2,0-0.3V532c0-0.1,0-0.2,0-0.3v-0.2c0-0.2,0.1-0.3,0.1-0.5v-0.1c0-0.2,0.1-0.3,0.1-0.4v-0.2c0-0.1,0.1-0.2,0.1-0.3
		l0.1-0.2l0.1-0.2l0.2,0.1l0.2,0.1c0.1,0.1,0.2,0.1,0.3,0.2l0.2,0.1c0.1,0.1,0.2,0.1,0.3,0.2l0.1,0.1c0.1,0.1,0.3,0.2,0.4,0.3l0,0
		c0.1,0.1,0.3,0.2,0.4,0.3l0.1,0.1c0.1,0.1,0.2,0.1,0.3,0.2l0.2,0.1l0.2,0.2l0.1,0.2l0.2,0.2l0.1,0.2l0.2,0.2l0.1,0.2l0.2,0.2
		l0.1,0.2l0.2,0.2l0.1,0.2c0.1,0.1,0.1,0.2,0.2,0.3l0.1,0.2c0.1,0.1,0.1,0.2,0.2,0.3l0.1,0.2c0.1,0.1,0.1,0.2,0.2,0.3l0.1,0.1
		c0.1,0.2,0.1,0.3,0.2,0.5l0,0c-0.9,1-1.9,2.3-1.9,3.4c0,0.7,0.3,1.3,0.7,1.8c0.5,0.5,1.1,0.7,1.8,0.7s1.3-0.3,1.8-0.7
		c0.5-0.5,0.7-1.1,0.7-1.8c0-1.1-1-2.4-1.8-3.4l0,0c0.1-0.2,0.1-0.3,0.2-0.5l0.1-0.1c0-0.1,0.1-0.2,0.2-0.3l0.1-0.2
		c0-0.1,0.1-0.2,0.1-0.3l0.1-0.2c0-0.1,0.1-0.2,0.2-0.3l0.1-0.2l0.2-0.2l0.1-0.2l0.2-0.2l0.1-0.2l0.2-0.2l0.1-0.2l0.2-0.2l0.2-0.2
		l0.2-0.2l0.2-0.1c0.1-0.1,0.2-0.1,0.3-0.2l0.1-0.1c0.1-0.1,0.2-0.2,0.4-0.3l0,0c0.1-0.1,0.3-0.2,0.4-0.3l0.1-0.1
		c0.1-0.1,0.2-0.1,0.3-0.2l0.2-0.1c0.1-0.1,0.2-0.1,0.3-0.2l0.2-0.1l0.2-0.1l0.1,0.2L43,530c0,0.1,0.1,0.2,0.1,0.3l0.1,0.2
		c0,0.1,0.1,0.2,0.1,0.3v0.2c0,0.2,0.1,0.3,0.1,0.5l0,0c0,0.2,0,0.3,0.1,0.5v0.2c0,0.1,0,0.2,0,0.3v0.2c0,0.1,0,0.2,0,0.3v0.2
		c0,0.1,0,0.2,0,0.3v0.2c0,0.1,0,0.2,0,0.3v0.2c0,0.1,0,0.2,0,0.3v0.2c0,0.1,0,0.2-0.1,0.3v0.2c0,0.1,0,0.2-0.1,0.3l-0.1,0.2
		c0,0.1-0.1,0.2-0.1,0.3l-0.1,0.2c0,0.1-0.1,0.2-0.1,0.3l-0.1,0.2c-0.1,0.2-0.1,0.3-0.2,0.5l-0.7,1.5l1.5-0.6
		c0.2-0.1,0.3-0.1,0.5-0.2l0.2-0.1c0.1,0,0.2-0.1,0.3-0.1h0.2c0.1,0,0.2-0.1,0.3-0.1H45c0.1,0,0.2-0.1,0.4-0.1h0.1
		c0.1,0,0.3-0.1,0.4-0.1H46c0.1,0,0.3,0,0.5-0.1l0,0c0.3,0,0.7-0.1,1-0.1c0.7,0,1.4,0.1,2.1,0.2h0.1c0.1,0,0.3,0.1,0.4,0.1h0.2
		c0.1,0,0.2,0.1,0.3,0.1l0.2,0.1l0.2,0.1l-0.1,0.2l-0.1,0.2c-0.1,0.1-0.1,0.2-0.2,0.3l-0.1,0.2c-0.1,0.1-0.1,0.2-0.2,0.3l-0.1,0.1
		c-0.1,0.1-0.2,0.3-0.3,0.4l0,0c-0.1,0.1-0.2,0.3-0.3,0.4l-0.1,0.1c-0.1,0.1-0.1,0.2-0.2,0.3l-0.1,0.2l-0.2,0.2l-0.2,0.1l-0.2,0.2
		l-0.2,0.1l-0.2,0.2l-0.2,0.1l-0.2,0.2l-0.2,0.1c-0.1,0-0.2,0.1-0.2,0.2l-0.2,0.1c-0.1,0.1-0.2,0.1-0.2,0.2l-0.2,0.1
		c-0.1,0.1-0.2,0.1-0.3,0.2l-0.2,0.1c-0.1,0.1-0.2,0.1-0.3,0.2l-0.2,0.1c-0.2,0.1-0.3,0.1-0.5,0.2l0,0l0,0c-1-0.9-2.3-1.9-3.4-1.9
		c-0.7,0-1.3,0.3-1.8,0.7c-0.5,0.5-0.7,1.1-0.7,1.8s0.3,1.3,0.7,1.8c0.5,0.5,1.1,0.7,1.8,0.7c1.1,0,2.4-1,3.4-1.8l0,0
		c0.2,0.1,0.3,0.1,0.5,0.2l0.1,0.1c0.1,0,0.2,0.1,0.3,0.1l0.2,0.1c0.1,0,0.2,0.1,0.3,0.1l0.2,0.1c0.1,0,0.2,0.1,0.3,0.2l0.2,0.1
		c0.1,0.1,0.2,0.1,0.2,0.2l0.2,0.1l0.2,0.2l0.2,0.1l0.2,0.2l0.2,0.1l0.2,0.2l0.2,0.2l0.2,0.2l0.1,0.1c0.1,0.1,0.2,0.2,0.2,0.3
		l0.1,0.1c0.1,0.1,0.2,0.3,0.3,0.4l0,0c0.1,0.1,0.2,0.3,0.3,0.4l0.1,0.1c0.1,0.1,0.1,0.2,0.2,0.3l0.1,0.2c0.1,0.1,0.1,0.2,0.2,0.3
		l0.1,0.2l0.1,0.2l-0.2,0.1l-0.2,0.1c-0.1,0-0.2,0.1-0.3,0.1l-0.2,0.1c-0.1,0-0.2,0.1-0.3,0.1h-0.1c-0.7,0.1-1.3,0.2-2,0.2
		c-0.3,0-0.7,0-1.1-0.1l0,0c-0.2,0-0.3,0-0.5-0.1H46c-0.1,0-0.3,0-0.4-0.1h-0.1c-0.1,0-0.2-0.1-0.4-0.1h-0.2c-0.1,0-0.2-0.1-0.3-0.1
		l-0.2-0.1c-0.1,0-0.2-0.1-0.3-0.1L43.3,549.2z M29.6,543.4c0.5-0.5,1.2-0.9,2-1.1c0.2,0,0.3,0,0.4,0.1c0.1,0.1,0.3,0.1,0.4,0.2
		c0.1,0.1,0.2,0.2,0.2,0.4c0.1,0.1,0.1,0.3,0.1,0.4s0,0.3-0.1,0.4c-0.1,0.1-0.1,0.3-0.2,0.4c-0.1,0.1-0.2,0.2-0.4,0.2
		c-0.1,0.1-0.3,0.1-0.4,0.1C30.8,544.5,30.2,544.1,29.6,543.4L29.6,543.4L29.6,543.4z M43.4,543.6c-0.5,0.5-1.2,0.9-2,1.1
		c-0.3,0-0.6-0.1-0.8-0.3s-0.3-0.5-0.3-0.8s0.1-0.6,0.3-0.8s0.5-0.3,0.8-0.3C42.2,542.5,42.8,542.9,43.4,543.6L43.4,543.6
		L43.4,543.6z M50.8,557.8c-1.5,0.2-2.9,0.4-4.4,0.4c-1,0-2-0.1-2.9-0.3v-0.1c0-0.1,0.1-0.2,0.1-0.4l0,0c0-0.1,0.1-0.3,0.1-0.4v-0.1
		c0-0.1,0.1-0.3,0.1-0.4l0,0c0-0.1,0.1-0.3,0.1-0.4V556c0-0.1,0-0.3,0.1-0.4l0,0c0-0.1,0-0.3,0-0.4v-0.1c0-0.1,0-0.3,0-0.4v-0.1
		c0-0.1,0-0.2,0-0.4v-0.1c0-0.1,0-0.3,0-0.4v-0.1c0-0.1,0-0.2,0-0.4v-0.1c0-0.1,0-0.3,0-0.4v-0.1c0-0.1,0-0.3,0-0.4l0,0
		c0-0.1,0-0.3-0.1-0.4v-0.1c0-0.1,0-0.3-0.1-0.4l0,0c0-0.1-0.1-0.3-0.1-0.4v-0.1c0-0.1-0.1-0.3-0.1-0.4l0,0l0,0
		c1.1,0.3,2.2,0.5,3.3,0.5c0.8,0,1.6-0.1,2.4-0.3l0,0c0.2,0,0.3-0.1,0.5-0.1l0,0c0.2,0,0.3-0.1,0.4-0.1l0,0c0.1-0.1,0.3-0.1,0.4-0.1
		l0,0C51.3,552.2,51.3,554.6,50.8,557.8L50.8,557.8z M56.7,543.5c-1.9,2.6-3.6,4.4-5.1,5.2c-0.1-0.1-0.1-0.3-0.2-0.4v-0.1
		c-0.1-0.1-0.2-0.3-0.2-0.4l-0.1-0.2c-0.1-0.1-0.1-0.2-0.2-0.3l-0.1-0.1c-0.1-0.1-0.2-0.2-0.3-0.4v-0.1c-0.1-0.1-0.2-0.3-0.3-0.4
		l-0.1-0.1c-0.1-0.1-0.2-0.2-0.3-0.3l-0.1-0.1c-0.1-0.1-0.2-0.2-0.3-0.3l-0.1-0.1c-0.1-0.1-0.3-0.2-0.4-0.4l-0.1-0.1
		c-0.1-0.1-0.2-0.2-0.3-0.3l-0.1-0.1c-0.1-0.1-0.2-0.2-0.3-0.2l-0.1-0.1c-0.1-0.1-0.3-0.2-0.4-0.3l0,0c-0.1-0.1-0.3-0.2-0.4-0.3
		l-0.1-0.1l-0.2-0.1l0.2-0.1l0.1-0.1c0.2-0.1,0.3-0.2,0.4-0.3l0,0c0.1-0.1,0.3-0.2,0.4-0.3l0.1-0.1c0.1-0.1,0.2-0.2,0.3-0.2l0.1-0.1
		c0.1-0.1,0.2-0.2,0.3-0.3l0.1-0.1c0.1-0.1,0.3-0.2,0.4-0.4l0.1-0.1c0.1-0.1,0.2-0.2,0.3-0.3l0.1-0.1c0.1-0.1,0.2-0.2,0.3-0.3
		l0.1-0.1c0.1-0.1,0.2-0.3,0.3-0.4V540c0.1-0.1,0.2-0.3,0.3-0.4l0.1-0.1c0.1-0.1,0.1-0.2,0.2-0.3l0.1-0.2c0.1-0.1,0.2-0.3,0.2-0.4
		v-0.1c0.1-0.1,0.2-0.3,0.2-0.4C53.1,539.2,54.8,540.9,56.7,543.5L56.7,543.5z"/>
	<path class="st1" d="M21,528l0.3-0.1l-5.2-5.2h-0.4v0.4l5.2,5.2L21,528z"/>
	<path class="st1" d="M21,528l0.3-0.1l0,0L21,528l-0.1,0.4L21,528z"/>
	<path class="st1" d="M52,528L52,528L52,528l0.1,0.3l5.2-5.1v-0.4h-0.4l-5.2,5.1L52,528z"/>
	<path class="st1" d="M52,528.1l0.1,0.3l0,0L52,528.1L52,528.1z"/>
	<path class="st1" d="M51.9,559L51.9,559L51.9,559h-0.3l5.2,5.1h0.4v-0.4l-5.2-5.2L51.9,559z"/>
	<path class="st1" d="M51.9,559L51.9,559L51.9,559L51.9,559z"/>
	<path class="st1" d="M21,559l-0.1-0.3l-5.1,5.2v0.4h0.4l5.1-5.2L21,559z"/>
	<path class="st1" d="M21,559l-0.1-0.3l0,0L21,559l0.3,0.1l0,0L21,559z"/>
	<path class="st1" d="M69.6,535.5c-1.4-1.9-3.3-3.4-5.5-4.3v-15.3H48.8c-0.9-2.2-2.4-4.1-4.3-5.5c-2.3-1.7-5.1-2.7-8-2.7
		s-5.7,0.9-8,2.7c-1.9,1.4-3.4,3.3-4.3,5.5H8.9v15.3c-2.2,0.9-4.1,2.4-5.5,4.3c-1.7,2.3-2.7,5.1-2.7,8s0.9,5.7,2.7,8
		c1.4,1.9,3.3,3.4,5.5,4.3v15.3h15.3c0.9,2.2,2.4,4.1,4.3,5.5c2.3,1.7,5.1,2.7,8,2.7s5.7-0.9,8-2.7c1.9-1.4,3.4-3.3,4.3-5.5h15.3
		v-15.3c2.2-0.9,4.1-2.4,5.5-4.3c1.7-2.3,2.7-5.1,2.7-8S71.4,537.8,69.6,535.5L69.6,535.5z M61.7,552.6l-1.5,0.5v14.2H46.1l-0.5,1.5
		c-0.6,2-1.8,3.7-3.4,4.9c-1.6,1.2-3.6,1.9-5.7,1.9s-4-0.7-5.7-1.9c-1.6-1.2-2.8-2.9-3.4-4.9l-0.5-1.5H12.8v-14.2l-1.5-0.5
		c-2-0.6-3.7-1.8-4.9-3.4c-1.2-1.6-1.9-3.6-1.9-5.7s0.7-4,1.9-5.7c1.2-1.6,2.9-2.8,4.9-3.4l1.5-0.5v-14.2H27l0.5-1.5
		c0.6-2,1.8-3.7,3.4-4.9s3.6-1.9,5.7-1.9s4,0.7,5.7,1.9c1.6,1.2,2.8,2.9,3.4,4.9l0.5,1.5h14.2v14.2l1.5,0.5c2,0.6,3.7,1.8,4.9,3.4
		c1.2,1.6,1.9,3.6,1.9,5.7s-0.7,4-1.9,5.7C65.4,550.8,63.7,552,61.7,552.6L61.7,552.6z"/>
	<path class="st1" d="M70.2,535.1c-1.4-1.9-3.3-3.4-5.4-4.4v-15.5H49.3c-1-2.1-2.5-4-4.4-5.4c-2.4-1.8-5.4-2.8-8.4-2.8l0,0
		c-3,0-6,1-8.4,2.8c-1.9,1.4-3.4,3.3-4.4,5.4H8.2v15.5c-2.1,1-4,2.5-5.4,4.4C1,537.5,0,540.5,0,543.5s1,6,2.8,8.4
		c1.4,1.9,3.3,3.4,5.4,4.4v15.5h15.5c1,2.1,2.5,4,4.4,5.4c2.4,1.8,5.4,2.8,8.4,2.8s6-1,8.4-2.8c1.9-1.4,3.4-3.3,4.4-5.4h15.5v-15.5
		c2.1-1,4-2.5,5.4-4.4c1.8-2.4,2.8-5.4,2.8-8.4l0,0C73,540.4,72,537.5,70.2,535.1z M69.9,551.7c-1.4,1.9-3.3,3.4-5.5,4.3v15.4H49.1
		c-1,2.2-2.4,4-4.3,5.5c-2.4,1.8-5.3,2.7-8.2,2.7s-5.9-1-8.2-2.7c-1.9-1.4-3.4-3.3-4.3-5.5H8.6V556c-2.2-1-4-2.4-5.5-4.3
		c-1.8-2.4-2.7-5.3-2.7-8.2s1-5.9,2.7-8.2c1.4-1.9,3.3-3.4,5.5-4.3v-15.4H24c1-2.2,2.4-4,4.3-5.5c2.4-1.8,5.3-2.8,8.2-2.8
		s5.9,1,8.2,2.8c1.9,1.4,3.4,3.3,4.3,5.5h15.4V531c2.2,1,4,2.4,5.5,4.3c1.8,2.4,2.8,5.3,2.8,8.2S71.7,549.4,69.9,551.7L69.9,551.7z"
		/>
	<path class="st1" d="M69.9,535.3c-1.4-1.9-3.3-3.4-5.5-4.3v-15.4H49.1c-1-2.2-2.4-4-4.3-5.5c-2.4-1.8-5.3-2.8-8.2-2.8
		s-5.9,1-8.2,2.8c-1.9,1.4-3.4,3.3-4.3,5.5H8.6V531c-2.2,1-4,2.4-5.5,4.3c-1.8,2.4-2.8,5.3-2.8,8.2s1,5.9,2.8,8.2
		c1.4,1.9,3.3,3.4,5.5,4.3v15.4H24c1,2.2,2.4,4.1,4.3,5.5c2.4,1.8,5.3,2.7,8.2,2.7s5.9-1,8.2-2.7c1.9-1.4,3.4-3.3,4.3-5.5h15.4V556
		c2.2-1,4.1-2.4,5.5-4.3c1.8-2.4,2.7-5.3,2.7-8.2S71.7,537.6,69.9,535.3L69.9,535.3z M69.6,551.5c-1.4,1.9-3.3,3.4-5.5,4.3v15.3
		H48.8c-0.9,2.2-2.4,4.1-4.3,5.5c-2.3,1.7-5.1,2.7-8,2.7s-5.7-0.9-8-2.7c-1.9-1.4-3.4-3.3-4.3-5.5H8.9v-15.3
		c-2.2-0.9-4.1-2.4-5.5-4.3c-1.7-2.3-2.7-5.1-2.7-8s0.9-5.7,2.7-8c1.4-1.9,3.3-3.4,5.5-4.3v-15.3h15.3c0.9-2.2,2.4-4.1,4.3-5.5
		c2.3-1.7,5.1-2.7,8-2.7s5.7,0.9,8,2.7c1.9,1.4,3.4,3.3,4.3,5.5h15.3v15.3c2.2,0.9,4.1,2.4,5.5,4.3c1.7,2.3,2.7,5.1,2.7,8
		S71.4,549.2,69.6,551.5L69.6,551.5z"/>
	<path class="st1" d="M61.2,536l-2.6-0.8v-13.8H44.8l-0.8-2.6c-0.5-1.6-1.5-3-2.8-4c-1.4-1-3-1.5-4.7-1.5s-3.3,0.5-4.7,1.5
		c-1.4,1-2.4,2.4-2.8,4l-0.8,2.6H14.4v13.8l-2.6,0.8c-1.6,0.5-3,1.5-4,2.8c-1,1.4-1.5,3-1.5,4.7s0.5,3.3,1.5,4.7s2.4,2.4,4,2.8
		l2.6,0.8v13.8h13.8l0.8,2.6c0.5,1.6,1.5,3,2.8,4c1.4,1,3,1.5,4.7,1.5s3.3-0.5,4.7-1.5s2.4-2.4,2.8-4l0.8-2.6h13.8v-13.8l2.6-0.8
		c1.6-0.5,3-1.5,4-2.8c1-1.4,1.5-3,1.5-4.7s-0.5-3.3-1.5-4.7C64.3,537.5,62.8,536.5,61.2,536z M60.8,549.7l-3.6,1.1v13l1.2,1.2l0,0
		v0.4H58l-1.2-1.2h-13l-1.1,3.6c-0.4,1.3-1.2,2.5-2.3,3.3s-2.5,1.3-3.8,1.3c-1.4,0-2.7-0.5-3.8-1.3c-1.1-0.8-1.9-2-2.3-3.3l-1.1-3.6
		h-13l-1.2,1.2h-0.4V565l1.2-1.2v-13l-3.6-1.1c-1.3-0.4-2.5-1.2-3.3-2.3s-1.3-2.5-1.3-3.8s0.5-2.7,1.3-3.8s2-1.9,3.3-2.3l3.6-1.1
		v-13l-1.2-1.2l0,0v-0.4H15l1.2,1.2h13l1.1-3.6c0.4-1.3,1.2-2.5,2.3-3.3c1.1-0.8,2.5-1.3,3.8-1.3c1.4,0,2.7,0.5,3.8,1.3
		s1.9,2,2.3,3.3l1.1,3.6h13l1.2-1.2h0.4v0.4l-1.2,1.2v13l3.6,1.1c1.3,0.4,2.5,1.2,3.3,2.3s1.3,2.5,1.3,3.8s-0.5,2.7-1.3,3.8
		C63.3,548.5,62.2,549.3,60.8,549.7L60.8,549.7z"/>
	<path class="st1" d="M16.2,522.8l-1.2-1.2h-0.4v0.4l0,0l1.2,1.2v-0.4H16.2z"/>
	<path class="st1" d="M57.2,523.2l1.2-1.2v-0.4H58l-1.2,1.2h0.4V523.2z"/>
	<path class="st1" d="M56.8,564.2l1.2,1.2h0.4V565l0,0l-1.2-1.2v0.4H56.8z"/>
	<path class="st1" d="M15.8,563.8l-1.2,1.2v0.4H15l1.2-1.2h-0.4C15.8,564.2,15.8,563.8,15.8,563.8z"/>
</g>
</svg>
