<?xml version="1.0" encoding="utf-8"?>
<!-- Generator: Adobe Illustrator 22.1.0, SVG Export Plug-In . SVG Version: 6.00 Build 0)  -->
<svg version="1.1" id="Слой_1" xmlns="http://www.w3.org/2000/svg" xmlns:xlink="http://www.w3.org/1999/xlink" x="0px" y="0px"
	 viewBox="0 0 298 581" style="enable-background:new 0 0 298 581;" xml:space="preserve">
<style type="text/css">
	.st0{fill:#E7533B;}
	.st1{fill:#2C3B8C;}
</style>
<g>
	<path class="st0" d="M186.1,473.9c1.7,0,3.5,0.1,5.2,0.4c-0.7-4.9-0.4-9.8,0.9-14.5c1.4-4.7,3.7-9.1,6.9-12.8
		c3.2-3.7,7.2-6.7,11.6-8.8c4.5-2.1,9.3-3.1,14.2-3.1h-31.3c0,1-0.2,2.1-0.6,3c-0.4,1-1,1.8-1.7,2.6c-0.7,0.7-1.6,1.3-2.6,1.7
		c-1,0.4-2,0.6-3,0.6c-4.4,0-26.5-3.5-26.5-7.9H152v73c0-9,3.6-17.7,10-24.1C168.4,477.5,177.1,473.9,186.1,473.9z M180.9,460.3
		c0.3,0.3,0.6,0.8,0.7,1.3c0.1,0.5,0,1-0.1,1.4c-0.2,0.5-0.5,0.8-0.9,1.1c-0.4,0.3-0.9,0.4-1.4,0.4s-1-0.1-1.4-0.4s-0.7-0.7-0.9-1.1
		c-0.2-0.5-0.2-1-0.1-1.4c0.1-0.5,0.3-0.9,0.7-1.3c0.5-0.5,1.1-0.7,1.8-0.7S180.4,459.9,180.9,460.3z M152,435h3.5
		c0,0.5-0.1,0.9-0.3,1.3s-0.4,0.8-0.8,1.1c-0.3,0.3-0.7,0.6-1.1,0.8c-0.4,0.2-0.9,0.3-1.3,0.3L152,435L152,435z M152,476.6v-34.4
		c4.4,0,7.9,22.1,7.9,26.5c0,1-0.2,2.1-0.6,3c-0.4,1-1,1.8-1.7,2.6c-0.7,0.7-1.6,1.3-2.6,1.7C154.1,476.4,153,476.6,152,476.6z
		 M160.5,443.5c1.6-1.6,13.3,6.3,15.3,8.2c0.5,0.5,0.8,1,1.1,1.6s0.4,1.3,0.4,1.9c0,0.7-0.1,1.3-0.4,1.9s-0.6,1.2-1.1,1.6
		c-0.5,0.5-1,0.8-1.6,1.1c-0.6,0.2-1.3,0.4-1.9,0.4c-0.7,0-1.3-0.1-1.9-0.4s-1.1-0.6-1.6-1.1C166.8,456.9,159,445.1,160.5,443.5z"/>
	<path class="st0" d="M186,536.1c2.8,0,5.6-0.4,8.3-1.3l1.2-0.4c0.1-0.4,0.3-0.8,0.6-1.1c0.2-0.2,0.5-0.4,0.8-0.5s0.6-0.2,1-0.2
		c0.3,0,0.7,0.1,1,0.2c0.3,0.1,0.6,0.3,0.8,0.5s0.4,0.5,0.5,0.8s0.2,0.6,0.2,1s-0.1,0.7-0.2,1c-0.1,0.3-0.3,0.6-0.5,0.8
		c-0.3,0.3-0.7,0.5-1.1,0.6l-0.4,1.2c-1.3,4.2-1.6,8.6-0.9,13c0.7,4.3,2.5,8.4,5.1,12c2.6,3.5,6,6.4,9.9,8.4s8.3,3,12.7,3
		s8.7-1,12.7-3c3.9-2,7.3-4.9,9.9-8.4c2.6-3.5,4.3-7.6,5.1-12c0.7-4.3,0.4-8.8-0.9-13l-0.4-1.2c-0.4-0.1-0.8-0.3-1.1-0.6
		c-0.2-0.2-0.4-0.5-0.5-0.8s-0.2-0.6-0.2-1s0.1-0.7,0.2-1c0.1-0.3,0.3-0.6,0.5-0.8s0.5-0.4,0.8-0.5s0.6-0.2,1-0.2
		c0.3,0,0.7,0.1,1,0.2c0.3,0.1,0.6,0.3,0.8,0.5c0.3,0.3,0.5,0.7,0.6,1.1l1.2,0.4c4.2,1.3,8.6,1.6,13,0.9c4.3-0.7,8.4-2.5,12-5.1
		c3.5-2.6,6.4-6,8.4-9.9s3-8.3,3-12.6c0-4.4-1-8.7-3-12.7c-2-3.9-4.9-7.3-8.4-9.9s-7.6-4.3-12-5.1c-4.3-0.7-8.8-0.4-13,0.9l-1.2,0.4
		c-0.1,0.4-0.3,0.8-0.6,1.1c-0.2,0.2-0.5,0.4-0.8,0.5s-0.6,0.2-1,0.2c-0.3,0-0.7-0.1-1-0.2s-0.6-0.3-0.8-0.5s-0.4-0.5-0.5-0.8
		s-0.2-0.6-0.2-1s0.1-0.7,0.2-1c0.1-0.3,0.3-0.6,0.5-0.8c0.3-0.3,0.7-0.5,1.1-0.6l0.4-1.2c1.3-4.2,1.6-8.6,0.9-13
		c-0.7-4.3-2.5-8.4-5.1-12s-6-6.4-9.9-8.4s-8.3-3-12.7-3s-8.7,1-12.7,3c-3.9,2-7.3,4.9-9.9,8.4s-4.3,7.6-5.1,12
		c-0.7,4.3-0.4,8.8,0.9,13l0.4,1.2c0.4,0.1,0.8,0.3,1.1,0.6c0.5,0.5,0.7,1.1,0.7,1.8c0,0.7-0.3,1.3-0.7,1.8
		c-0.5,0.5-1.1,0.7-1.8,0.7s-1.3-0.3-1.8-0.7c-0.3-0.3-0.5-0.7-0.6-1.1l-1.2-0.4c-3.9-1.2-7.9-1.6-11.9-1s-7.9,1.9-11.3,4
		c-3.4,2.1-6.3,5-8.6,8.4c-2.2,3.4-3.7,7.2-4.3,11.2s-0.3,8.1,0.8,12s3.1,7.5,5.7,10.5c2.6,3.1,5.9,5.5,9.6,7.2
		C178,535.2,182,536.1,186,536.1L186,536.1z M208.2,531.8c-0.9,0.9-2.2,1.5-3.5,1.5s-2.6-0.5-3.5-1.5c-0.9-0.9-1.5-2.2-1.5-3.5
		s0.5-2.6,1.4-3.5c1.9-1.9,13.7-9.8,15.3-8.3C218.1,518.1,210.2,529.9,208.2,531.8z M225,549.6c-2.1,0-4.1-0.8-5.6-2.3
		s-2.3-3.5-2.3-5.6c0-4.4,3.5-26.5,7.9-26.5s7.9,22.1,7.9,26.5c0,1-0.2,2.1-0.6,3c-0.4,1-1,1.8-1.7,2.6c-0.7,0.7-1.6,1.3-2.6,1.7
		C227.1,549.4,226,549.6,225,549.6L225,549.6z M221.5,508c0-0.7,0.2-1.4,0.6-2c0.4-0.6,0.9-1,1.6-1.3c0.6-0.3,1.3-0.3,2-0.2
		c0.7,0.1,1.3,0.5,1.8,1s0.8,1.1,1,1.8c0.1,0.7,0.1,1.4-0.2,2s-0.7,1.2-1.3,1.6s-1.3,0.6-2,0.6c-0.5,0-0.9-0.1-1.3-0.3
		c-0.4-0.2-0.8-0.4-1.1-0.8c-0.3-0.3-0.6-0.7-0.8-1.1C221.6,508.9,221.5,508.5,221.5,508z M248.8,531.8c-0.9,0.9-2.2,1.5-3.5,1.5
		s-2.6-0.5-3.5-1.5c-1.9-1.9-9.8-13.7-8.2-15.3s13.3,6.3,15.3,8.3c0.5,0.5,0.8,1,1.1,1.6s0.4,1.2,0.4,1.9s-0.1,1.3-0.4,1.9
		C249.6,530.8,249.3,531.3,248.8,531.8z M258.7,500.1c2.1,0,4.1,0.8,5.6,2.3s2.3,3.5,2.3,5.6s-0.8,4.1-2.3,5.6s-3.5,2.3-5.6,2.3
		c-4.4,0-26.5-3.5-26.5-7.9C232.2,503.6,254.4,500.1,258.7,500.1L258.7,500.1z M241.8,484.2c0.9-0.9,2.2-1.5,3.5-1.5
		s2.6,0.5,3.5,1.5c0.9,0.9,1.5,2.2,1.5,3.5s-0.5,2.6-1.5,3.5c-1.9,1.9-13.7,9.8-15.3,8.2C231.9,497.9,239.8,486.1,241.8,484.2
		L241.8,484.2z M225,466.4c2.1,0,4.1,0.8,5.6,2.3s2.3,3.5,2.3,5.6c0,4.4-3.5,26.5-7.9,26.5s-7.9-22.1-7.9-26.5
		c0-2.1,0.8-4.1,2.3-5.6C220.9,467.2,222.9,466.4,225,466.4z M201.2,484.2c0.9-0.9,2.2-1.5,3.5-1.5s2.6,0.5,3.5,1.5
		c1.9,1.9,9.8,13.7,8.2,15.3c-1.6,1.6-13.3-6.3-15.3-8.2c-0.9-0.9-1.5-2.2-1.5-3.5C199.8,486.4,200.3,485.1,201.2,484.2z
		 M191.3,500.1c4.4,0,26.5,3.5,26.5,7.9c0,4.4-22.1,7.9-26.5,7.9c-2.1,0-4.1-0.8-5.6-2.3s-2.3-3.5-2.3-5.6s0.8-4.1,2.3-5.6
		C187.2,500.9,189.2,500.1,191.3,500.1z"/>
	<path class="st0" d="M298,438.5c-0.9,0-1.8-0.4-2.5-1c-0.7-0.7-1-1.6-1-2.5h-3.7c0,4.4-22.1,7.9-26.5,7.9c-1,0-2.1-0.2-3-0.6
		c-1-0.4-1.8-1-2.6-1.7c-0.7-0.7-1.3-1.6-1.7-2.6c-0.4-1-0.6-2-0.6-3H225c4.9,0,9.8,1.1,14.2,3.1c4.5,2.1,8.4,5.1,11.6,8.8
		c3.2,3.7,5.6,8.1,6.9,12.8c1.3,4.7,1.7,9.7,0.9,14.5c1.7-0.3,3.5-0.4,5.2-0.4c4.7,0,9.3,1,13.6,2.9c4.3,1.9,8.2,4.6,11.4,8.1
		c3.2,3.4,5.6,7.5,7.2,11.9c1.5,4.4,2.2,9.1,1.8,13.8c-0.4,4.7-1.7,9.2-3.9,13.4s-5.2,7.8-8.9,10.7c-3.7,2.9-7.9,5-12.5,6.3
		c-4.5,1.2-9.3,1.5-13.9,0.7c0.7,4.9,0.4,9.8-0.9,14.5c-1.4,4.7-3.7,9.1-6.9,12.8s-7.2,6.7-11.6,8.8c-4.5,2.1-9.3,3.1-14.2,3.1
		s-9.8-1.1-14.2-3.1c-4.5-2.1-8.4-5-11.6-8.8s-5.6-8.1-6.9-12.8c-1.4-4.7-1.7-9.7-0.9-14.5c-4.9,0.7-9.8,0.4-14.6-0.9
		c-4.7-1.4-9.1-3.7-12.8-6.9s-6.7-7.2-8.8-11.6c-2.1-4.5-3.1-9.3-3.1-14.2v73h146V435l0,0v3.5H298z M177.3,552.1
		c0.3-0.3,0.8-0.6,1.3-0.7c0.5-0.1,1,0,1.4,0.1c0.5,0.2,0.8,0.5,1.1,0.9s0.4,0.9,0.4,1.4s-0.1,1-0.4,1.4c-0.3,0.4-0.7,0.7-1.1,0.9
		c-0.5,0.2-1,0.2-1.4,0.1c-0.5-0.1-0.9-0.3-1.3-0.7c-0.5-0.5-0.7-1.1-0.7-1.8S176.9,552.6,177.3,552.1z M168.8,557.2
		c0.5-0.5,1-0.8,1.6-1.1s1.2-0.4,1.9-0.4s1.3,0.1,1.9,0.4c0.6,0.2,1.2,0.6,1.6,1.1c0.5,0.5,0.8,1,1.1,1.6c0.2,0.6,0.4,1.3,0.4,1.9
		c0,0.7-0.1,1.3-0.4,1.9c-0.3,0.6-0.6,1.1-1.1,1.6c-1.9,1.9-13.7,9.8-15.3,8.2C159,570.9,166.8,559.1,168.8,557.2z M152,539.4
		c1,0,2.1,0.2,3,0.6c1,0.4,1.8,1,2.6,1.7c0.7,0.7,1.3,1.6,1.7,2.6s0.6,2,0.6,3c0,4.4-3.5,26.5-7.9,26.5L152,539.4L152,539.4z
		 M152,581v-3.5c0.5,0,0.9,0.1,1.3,0.3c0.4,0.2,0.8,0.4,1.1,0.8c0.3,0.3,0.6,0.7,0.8,1.1c0.2,0.4,0.3,0.9,0.3,1.3L152,581L152,581z
		 M159.2,581c0-4.4,22.1-7.9,26.5-7.9c2.1,0,4.1,0.8,5.6,2.3s2.3,3.5,2.3,5.6L159.2,581L159.2,581z M272.7,463.9
		c-0.4,0.4-0.8,0.6-1.3,0.7s-1,0-1.4-0.1c-0.5-0.2-0.8-0.5-1.1-0.9c-0.3-0.4-0.4-0.9-0.4-1.4s0.1-1,0.4-1.4s0.7-0.7,1.1-0.9
		c0.5-0.2,1-0.2,1.4-0.1c0.5,0.1,0.9,0.3,1.3,0.7c0.5,0.5,0.7,1.1,0.7,1.8C273.4,462.8,273.2,463.4,272.7,463.9z M281.2,458.8
		c-0.5,0.5-1,0.8-1.6,1.1c-0.6,0.3-1.2,0.4-1.9,0.4c-0.7,0-1.3-0.1-1.9-0.4c-0.6-0.2-1.1-0.6-1.6-1.1s-0.8-1-1.1-1.6
		c-0.2-0.6-0.4-1.2-0.4-1.9c0-0.7,0.1-1.3,0.4-1.9c0.2-0.6,0.6-1.1,1.1-1.6c1.9-1.9,13.7-9.8,15.3-8.2
		C291.1,445.1,283.2,456.9,281.2,458.8z M298,539.4v34.4c-4.4,0-7.9-22.1-7.9-26.5c0-2.1,0.8-4.1,2.3-5.6
		C293.9,540.2,295.9,539.4,298,539.4L298,539.4z M281.2,557.2c1.9,1.9,9.8,13.7,8.2,15.3c-1.6,1.6-13.3-6.3-15.3-8.2
		c-0.9-0.9-1.5-2.2-1.5-3.5s0.5-2.6,1.5-3.5c0.9-0.9,2.2-1.5,3.5-1.5C279,555.8,280.3,556.3,281.2,557.2z M269.1,552.1
		c0.3-0.3,0.8-0.6,1.3-0.7c0.5-0.1,1,0,1.4,0.1c0.5,0.2,0.8,0.5,1.1,0.9c0.3,0.4,0.4,0.9,0.4,1.4s-0.1,1-0.4,1.4s-0.7,0.7-1.1,0.9
		c-0.5,0.2-1,0.2-1.4,0.1c-0.5-0.1-0.9-0.3-1.3-0.7c-0.5-0.5-0.7-1.1-0.7-1.8S268.7,552.6,269.1,552.1L269.1,552.1z M256.4,581
		c0-2.1,0.8-4.1,2.3-5.6s3.5-2.3,5.6-2.3c4.4,0,26.5,3.5,26.5,7.9L256.4,581L256.4,581z M298,581h-3.5c0-0.9,0.4-1.8,1-2.5
		c0.7-0.7,1.6-1,2.5-1V581z M298,476.6c-1,0-2.1-0.2-3-0.6c-1-0.4-1.8-1-2.6-1.7c-0.7-0.7-1.3-1.6-1.7-2.6c-0.4-1-0.6-2-0.6-3
		c0-4.4,3.5-26.5,7.9-26.5L298,476.6L298,476.6z"/>
	<path class="st1" d="M117.3,397.7c2.1-0.4,7.5-1.7,11.5-5.6c3.9-3.9,5.2-9.4,5.6-11.5c-2.1,0.4-7.5,1.7-11.5,5.6
		C119,390.2,117.7,395.6,117.3,397.7z"/>
	<path class="st1" d="M115.7,397.7c-0.4-2.1-1.7-7.5-5.6-11.5c-3.9-3.9-9.4-5.2-11.5-5.6c0.4,2.1,1.7,7.5,5.6,11.5
		C108.2,396,113.6,397.3,115.7,397.7z"/>
	<path class="st1" d="M80,362c0.4,2.1,1.7,7.5,5.6,11.5c3.9,3.9,9.4,5.2,11.5,5.6c-0.4-2.1-1.7-7.5-5.6-11.5
		C87.5,363.7,82.1,362.4,80,362z"/>
	<path class="st1" d="M97.1,380.6c-2.1,0.4-7.5,1.7-11.5,5.6c-3.9,3.9-5.2,9.4-5.6,11.5c2.1-0.4,7.5-1.7,11.5-5.6
		C95.4,388.2,96.7,382.7,97.1,380.6z"/>
	<path class="st1" d="M117.3,362c0.4,2.1,1.7,7.5,5.6,11.5c3.9,3.9,9.4,5.2,11.5,5.6c-0.4-2.1-1.7-7.5-5.6-11.5
		C124.8,363.7,119.4,362.4,117.3,362z"/>
	<path class="st1" d="M115.7,362c-2.1,0.4-7.5,1.7-11.5,5.6c-3.9,3.9-5.2,9.4-5.6,11.5c2.1-0.4,7.5-1.7,11.5-5.6
		C114,369.5,115.3,364.1,115.7,362z"/>
	<path class="st1" d="M153,362c-2.1,0.4-7.5,1.7-11.5,5.6c-3.9,3.9-5.2,9.4-5.6,11.5c2.1-0.4,7.5-1.7,11.5-5.6
		C151.3,369.5,152.6,364.1,153,362z"/>
	<path class="st1" d="M153,397.7c-0.4-2.1-1.7-7.5-5.6-11.5c-3.9-3.9-9.4-5.2-11.5-5.6c0.4,2.1,1.7,7.5,5.6,11.5
		C145.5,396,150.9,397.3,153,397.7z"/>
	<path class="st1" d="M98.6,417.9c0.4,2.1,1.7,7.5,5.6,11.5c3.9,3.9,9.4,5.2,11.5,5.6c-0.4-2.1-1.7-7.5-5.6-11.5
		C106.2,419.6,100.7,418.3,98.6,417.9z"/>
	<path class="st1" d="M135.9,417.9c0.4,2.1,1.7,7.5,5.6,11.5c3.9,3.9,9.4,5.2,11.5,5.6c-0.4-2.1-1.7-7.5-5.6-11.5
		C143.5,419.6,138,418.3,135.9,417.9z"/>
	<path class="st1" d="M134.4,417.9c-2.1,0.4-7.5,1.7-11.5,5.6c-3.9,3.9-5.2,9.4-5.6,11.5c2.1-0.4,7.5-1.7,11.5-5.6
		C132.7,425.5,134,420,134.4,417.9z"/>
	<path class="st1" d="M97.1,417.9c-2.1,0.4-7.5,1.7-11.5,5.6c-3.9,3.9-5.2,9.4-5.6,11.5c2.1-0.4,7.5-1.7,11.5-5.6
		C95.4,425.5,96.7,420,97.1,417.9z"/>
	<path class="st1" d="M134.4,416.4c-0.4-2.1-1.7-7.5-5.6-11.5c-3.9-3.9-9.4-5.2-11.5-5.6c0.4,2.1,1.7,7.5,5.6,11.5
		C126.8,414.7,132.3,416,134.4,416.4z"/>
	<path class="st1" d="M153,399.3c-2.1,0.4-7.5,1.7-11.5,5.6c-3.9,3.9-5.2,9.4-5.6,11.5c2.1-0.4,7.5-1.7,11.5-5.6
		C151.3,406.8,152.6,401.4,153,399.3z"/>
	<path class="st1" d="M115.7,399.3c-2.1,0.4-7.5,1.7-11.5,5.6c-3.9,3.9-5.2,9.4-5.6,11.5c2.1-0.4,7.5-1.7,11.5-5.6
		C114,406.8,115.3,401.4,115.7,399.3z"/>
	<path class="st1" d="M80,399.3c0.4,2.1,1.7,7.5,5.6,11.5c3.9,3.9,9.4,5.2,11.5,5.6c-0.4-2.1-1.7-7.5-5.6-11.5
		C87.5,401,82.1,399.7,80,399.3z"/>
</g>
</svg>
