<?xml version="1.0" encoding="utf-8"?>
<!-- Generator: Adobe Illustrator 22.1.0, SVG Export Plug-In . SVG Version: 6.00 Build 0)  -->
<svg version="1.1" id="Слой_1" xmlns="http://www.w3.org/2000/svg" xmlns:xlink="http://www.w3.org/1999/xlink" x="0px" y="0px"
	 viewBox="0 0 219 580" style="enable-background:new 0 0 219 580;" xml:space="preserve">
<style type="text/css">
	.st0{fill:#E7533B;}
	.st1{fill:#2C3B8C;}
</style>
<g>
	<path class="st0" d="M161.5,129.5c-3.2,0.6-6.2,2.1-8.5,4.4c-2.3,2.3-3.8,5.3-4.4,8.5c3.2-0.6,6.2-2.1,8.5-4.4
		C159.4,135.7,160.9,132.7,161.5,129.5z"/>
	<path class="st0" d="M145,126.8V145c1.9-2.7,2.9-5.8,2.9-9.1S146.9,129.5,145,126.8z"/>
	<path class="st0" d="M145.9,146h18.2c-2.7-1.9-5.8-2.9-9.1-2.9S148.6,144.1,145.9,146z"/>
	<path class="st0" d="M201.5,129.5c0.6,3.2,2.1,6.2,4.4,8.5c2.3,2.3,5.3,3.8,8.5,4.4c-0.6-3.2-2.1-6.2-4.4-8.5
		C207.7,131.6,204.7,130.1,201.5,129.5z"/>
	<path class="st0" d="M218,145.1v-18.2l0,0V145.1L218,145.1z"/>
	<path class="st0" d="M218,145.1v-18.2c-1.9,2.7-2.9,5.8-2.9,9.1S216.1,142.4,218,145.1z"/>
	<path class="st0" d="M198.8,146H217c-2.7-1.9-5.8-2.9-9.1-2.9S201.5,144.1,198.8,146z"/>
	<path class="st0" d="M214.4,76.6c-3.2,0.6-6.2,2.1-8.5,4.4s-3.8,5.3-4.4,8.5c3.2-0.6,6.2-2.1,8.5-4.4
		C212.3,82.8,213.8,79.8,214.4,76.6z"/>
	<path class="st0" d="M218,92.2L218,92.2V73.9l0,0V92.2z"/>
	<path class="st0" d="M215.1,83c0.1,3.2,1.1,6.4,2.9,9.1V74C216.2,76.7,215.2,79.8,215.1,83z"/>
	<path class="st0" d="M217.1,73h-18.2c2.7,1.9,5.8,2.9,9.1,2.9S214.4,74.9,217.1,73z"/>
	<path class="st0" d="M161.5,89.5c-0.6-3.2-2.1-6.2-4.4-8.5c-2.3-2.3-5.3-3.8-8.5-4.4c0.6,3.2,2.1,6.2,4.4,8.5
		C155.3,87.4,158.3,88.9,161.5,89.5z"/>
	<path class="st0" d="M145,73.9v18.2c1.9-2.7,2.9-5.8,2.9-9.1S146.9,76.6,145,73.9z"/>
	<path class="st0" d="M164.2,73H146c2.7,1.9,5.8,2.9,9.1,2.9S161.5,74.9,164.2,73z"/>
	<path class="st0" d="M181.5,104.8c0,0,11.8-9.2,11.8-17.3c0-1.3-0.4-2.5-1.2-3.6s-1.8-1.8-3.1-2.2c-1.2-0.4-2.5-0.3-3.8,0.1
		c-1.2,0.4-2.2,1.2-3,2.3c-0.3,5.9,3.2,6.6,4.2,6.6c3.2,0,3.8-2.3,3.8-2.3c0.7,1.3,0.7,6.3-4.2,6.3c-0.6,0-1.1-0.1-1.6-0.4
		s-0.9-0.7-1.1-1.2l0,0c0.5,0.9,0.8,1.8,0.8,2.8c-0.1,1.2-0.6,2.3-1.4,3.1c-0.4,0.6-1.3,1.6-1.3,1.6s-0.9-1-1.3-1.6
		c-0.8-0.9-1.3-1.9-1.4-3.1c0.1-1,0.3-1.9,0.8-2.8l0,0c-0.3,0.5-0.7,0.9-1.1,1.2c-0.5,0.3-1.1,0.4-1.6,0.4c-4.9,0-4.9-5-4.2-6.3
		c0,0,0.6,2.3,3.8,2.3c1,0,4.5-0.7,4.2-6.6c-0.7-1.1-1.8-1.9-3-2.3s-2.5-0.5-3.8-0.1c-1.2,0.4-2.3,1.1-3.1,2.2s-1.2,2.3-1.2,3.6
		C169.7,95.6,181.5,104.8,181.5,104.8z"/>
	<path class="st0" d="M181.5,114.2c0,0-11.8,9.2-11.8,17.3c0,1.3,0.4,2.5,1.2,3.6s1.8,1.8,3.1,2.2c1.2,0.4,2.5,0.3,3.8-0.1
		c1.2-0.4,2.2-1.2,3-2.3c0.3-5.9-3.2-6.6-4.2-6.6c-3.2,0-3.8,2.3-3.8,2.3c-0.7-1.3-0.7-6.3,4.2-6.3c0.6,0,1.1,0.1,1.6,0.4
		s0.9,0.7,1.1,1.2l0,0c-0.5-0.9-0.8-1.8-0.8-2.8c0.1-1.2,0.6-2.3,1.4-3.1c0.4-0.6,1.3-1.6,1.3-1.6s0.9,1,1.3,1.6
		c0.8,0.8,1.3,1.9,1.4,3.1c-0.1,1-0.3,1.9-0.8,2.8l0,0c0.3-0.5,0.6-0.9,1.1-1.2c0.5-0.3,1.1-0.4,1.6-0.4c4.9,0,4.9,5,4.2,6.3
		c0,0-0.6-2.3-3.8-2.3c-1,0-4.5,0.7-4.2,6.6c0.7,1.1,1.8,1.9,3,2.3c1.2,0.4,2.5,0.5,3.8,0.1c1.2-0.4,2.3-1.1,3.1-2.2
		s1.2-2.3,1.2-3.6C193.3,123.4,181.5,114.2,181.5,114.2z"/>
	<path class="st0" d="M176.8,109.5c0,0-9.2-11.8-17.3-11.8c-1.3,0-2.5,0.4-3.6,1.2c-1,0.8-1.8,1.8-2.2,3.1c-0.4,1.2-0.3,2.5,0.1,3.7
		c0.4,1.2,1.2,2.3,2.3,3c5.9,0.3,6.6-3.2,6.6-4.2c0-3.2-2.3-3.8-2.3-3.8c1.3-0.7,6.3-0.7,6.3,4.2c0,0.6-0.1,1.1-0.4,1.6
		c-0.3,0.5-0.7,0.9-1.2,1.1l0,0c0.9-0.5,1.8-0.7,2.8-0.8c1.2,0.1,2.3,0.6,3.1,1.4c0.6,0.4,1.6,1.3,1.6,1.3s-1,0.9-1.6,1.3
		c-0.9,0.8-1.9,1.3-3.1,1.4c-1-0.1-1.9-0.3-2.8-0.8l0,0c0.5,0.3,0.9,0.7,1.2,1.1c0.3,0.5,0.4,1,0.4,1.6c0,4.9-5,4.9-6.3,4.2
		c0,0,2.3-0.6,2.3-3.8c0-1-0.7-4.5-6.6-4.2c-1,0.7-1.9,1.8-2.3,3c-0.4,1.2-0.5,2.5-0.1,3.7s1.1,2.3,2.2,3.1s2.3,1.2,3.6,1.2
		C167.6,121.3,176.8,109.5,176.8,109.5z"/>
	<path class="st0" d="M186.2,109.5c0,0,9.2,11.8,17.3,11.8c1.3,0,2.5-0.4,3.6-1.2s1.8-1.8,2.2-3.1c0.4-1.2,0.3-2.5-0.1-3.7
		c-0.4-1.2-1.2-2.3-2.3-3c-5.9-0.3-6.6,3.2-6.6,4.2c0,3.2,2.3,3.8,2.3,3.8c-1.3,0.7-6.3,0.7-6.3-4.2c0-0.6,0.1-1.1,0.4-1.6
		c0.3-0.5,0.7-0.9,1.2-1.1l0,0c-0.9,0.5-1.8,0.8-2.8,0.8c-1.2-0.1-2.3-0.6-3.1-1.4c-0.6-0.4-1.6-1.3-1.6-1.3s1-0.9,1.6-1.3
		c0.9-0.8,1.9-1.3,3.1-1.4c1,0.1,1.9,0.3,2.8,0.8l0,0c-0.5-0.3-0.9-0.7-1.2-1.1c-0.3-0.5-0.4-1-0.4-1.6c0-4.9,5-4.9,6.3-4.2
		c0,0-2.3,0.6-2.3,3.8c0,1,0.7,4.5,6.6,4.2c1.1-0.7,1.9-1.8,2.3-3c0.4-1.2,0.5-2.5,0.1-3.7s-1.1-2.3-2.2-3.1s-2.3-1.2-3.6-1.2
		C195.4,97.7,186.2,109.5,186.2,109.5z"/>
	<path class="st0" d="M203.2,126.1c1.9,0,3.8-0.5,5.5-1.5s3.1-2.4,4-4.1s1.4-3.6,1.4-5.5s-0.6-3.8-1.6-5.5c1-1.7,1.6-3.6,1.6-5.5
		s-0.4-3.9-1.4-5.6s-2.3-3.1-4-4.1s-3.6-1.5-5.5-1.5c-2.3,0-4.5,0.5-6.5,1.5c0.9-2,1.4-4.3,1.5-6.5c0-1.9-0.5-3.8-1.5-5.5
		s-2.4-3.1-4.1-4c-1.7-1-3.6-1.4-5.6-1.4c-1.9,0-3.8,0.6-5.5,1.6c-1.7-1-3.6-1.6-5.5-1.6s-3.9,0.4-5.6,1.4c-1.7,1-3.1,2.3-4.1,4
		s-1.5,3.6-1.5,5.5c0,2.2,0.6,4.5,1.5,6.5c-2-0.9-4.3-1.4-6.5-1.5c-1.9,0-3.8,0.5-5.5,1.5s-3.1,2.4-4,4.1s-1.4,3.6-1.4,5.5
		s0.6,3.8,1.6,5.5c-1,1.7-1.6,3.6-1.6,5.5s0.4,3.9,1.4,5.5c1,1.7,2.3,3.1,4,4.1s3.6,1.5,5.5,1.5c2.3,0,4.5-0.5,6.5-1.5
		c-0.9,2-1.4,4.3-1.5,6.5c0,1.9,0.5,3.8,1.5,5.5s2.4,3.1,4.1,4c1.7,1,3.6,1.4,5.6,1.4c1.9,0,3.8-0.6,5.5-1.6c1.7,1,3.6,1.6,5.5,1.6
		s3.8-0.4,5.5-1.4s3.1-2.3,4.1-4s1.5-3.6,1.5-5.5c0-2.2-0.5-4.5-1.5-6.5C198.7,125.6,200.9,126.1,203.2,126.1z M196.8,131.1
		c0,1.7-0.5,3.4-1.3,4.9c-0.9,1.5-2.1,2.7-3.7,3.5c-1.5,0.8-3.2,1.2-4.9,1.2c-1.7-0.1-3.4-0.6-4.9-1.5l-0.5-0.3l-0.5,0.3
		c-1.5,0.9-3.1,1.4-4.9,1.5c-1.7,0.1-3.4-0.4-4.9-1.2s-2.8-2.1-3.7-3.5c-0.9-1.5-1.3-3.2-1.3-4.9c0-2.3,0.6-4.6,1.7-6.6l0.8-1.7
		c-0.1,0-0.2-0.1-0.3-0.2s-0.1-0.2-0.2-0.3l-1.7,0.8c-2.1,1-4.3,1.6-6.6,1.7c-1.7,0-3.4-0.5-4.9-1.3c-1.5-0.9-2.7-2.1-3.5-3.7
		c-0.8-1.5-1.2-3.2-1.2-4.9c0.1-1.7,0.6-3.4,1.5-4.9l0.3-0.5l-0.3-0.5c-0.9-1.5-1.4-3.1-1.5-4.9c-0.1-1.7,0.4-3.4,1.2-4.9
		s2.1-2.8,3.5-3.6c1.5-0.9,3.2-1.3,4.9-1.3c2.3,0.1,4.6,0.6,6.6,1.7l1.7,0.8c0-0.1,0.1-0.2,0.2-0.3c0.1-0.1,0.2-0.1,0.3-0.2
		l-0.8-1.7c-1-2.1-1.6-4.3-1.7-6.6c0-1.7,0.5-3.4,1.3-4.9c0.9-1.5,2.1-2.7,3.7-3.5s3.2-1.2,4.9-1.2c1.7,0.1,3.4,0.6,4.9,1.5l0.5,0.3
		l0.5-0.3c1.5-0.9,3.1-1.4,4.9-1.5c1.7-0.1,3.4,0.4,4.9,1.2c1.5,0.8,2.8,2.1,3.7,3.5c0.9,1.5,1.3,3.2,1.3,4.9
		c-0.1,2.3-0.6,4.6-1.7,6.6l-0.8,1.7c0.1,0,0.2,0.1,0.3,0.2s0.1,0.2,0.2,0.3l1.7-0.8c2.1-1,4.3-1.6,6.6-1.7c1.7,0,3.4,0.5,4.9,1.3
		c1.5,0.9,2.7,2.1,3.5,3.6s1.2,3.2,1.2,4.9c-0.1,1.7-0.6,3.4-1.5,4.9l-0.3,0.5l0.3,0.5c0.9,1.5,1.4,3.1,1.5,4.9
		c0,1.7-0.4,3.4-1.2,4.9s-2.1,2.8-3.5,3.6c-1.5,0.9-3.2,1.3-4.9,1.3c-2.3-0.1-4.6-0.6-6.6-1.7l-1.7-0.8c0,0.1-0.1,0.2-0.2,0.3
		c-0.1,0.1-0.2,0.1-0.3,0.2l0.8,1.7C196.2,126.6,196.8,128.8,196.8,131.1z"/>
	<path class="st0" d="M168.3,98.1c0.5,0.5,2.3,0.6,2.3,0.6s-0.1-1.8-0.6-2.3c-0.2-0.2-0.4-0.3-0.7-0.3s-0.5,0-0.8,0.1l0.4,0.9
		l-0.9-0.4c-0.1,0.2-0.2,0.5-0.1,0.8C168.1,97.6,168.2,97.9,168.3,98.1z"/>
	<path class="st0" d="M168.6,96.2c-0.1,0-0.2,0.1-0.3,0.2s-0.1,0.2-0.2,0.3l0.9,0.4L168.6,96.2z"/>
	<path class="st0" d="M194.7,120.9c-0.5-0.5-2.3-0.6-2.3-0.6s0.1,1.8,0.6,2.3c0.2,0.2,0.4,0.3,0.7,0.3s0.5,0,0.8-0.1l-0.4-0.9
		l0.9,0.4c0.1-0.2,0.2-0.5,0.2-0.8C194.9,121.4,194.8,121.1,194.7,120.9z"/>
	<path class="st0" d="M194.4,122.8c0.1,0,0.2-0.1,0.3-0.2s0.1-0.2,0.2-0.3l-0.9-0.4L194.4,122.8z"/>
	<path class="st0" d="M170.1,122.6c0.5-0.5,0.6-2.3,0.6-2.3s-1.8,0.1-2.3,0.6c-0.2,0.2-0.3,0.4-0.3,0.7c0,0.3,0,0.5,0.1,0.8l0.9-0.4
		l-0.4,0.9c0.2,0.1,0.5,0.2,0.8,0.1S169.9,122.8,170.1,122.6z"/>
	<path class="st0" d="M168.2,122.4c0,0.1,0.1,0.2,0.2,0.3c0.1,0.1,0.2,0.1,0.3,0.2l0.4-0.9L168.2,122.4z"/>
	<path class="st0" d="M192.9,96.4c-0.5,0.5-0.6,2.3-0.6,2.3s1.8-0.1,2.3-0.6c0.2-0.2,0.3-0.4,0.3-0.7c0-0.3,0-0.5-0.1-0.8l-0.9,0.4
		l0.4-0.9c-0.2-0.1-0.5-0.2-0.8-0.1C193.3,96,193.1,96.2,192.9,96.4z"/>
	<path class="st0" d="M194.8,96.6c0-0.1-0.1-0.2-0.2-0.3c-0.1-0.1-0.2-0.1-0.3-0.2l-0.4,0.9L194.8,96.6z"/>
	<path class="st0" d="M178,73.1L178,73.1L178,73.1L178,73.1v0.2v0.1v0.1v0.1l0.1,0.1v0.1l0.1,0.1h0.1h0.1h0.1l0,0l0,0l0,0
		c0.5,0.1,0.9,0.4,1.2,0.7c0.4,0.3,0.6,0.7,0.8,1.2V76l0.1,0.1v0.1l0,0l0.1,0.1l0,0l0.1,0.1l0,0l0.1,0.1l0,0h0.1l0,0h0.1h0.1h0.1
		h0.1l0,0h0.1l0,0h0.1l0,0l0.1-0.1l0,0c0.1-0.1,0.2-0.3,0.3-0.4v-0.1c0.2-0.5,0.4-0.9,0.8-1.2c0.4-0.3,0.8-0.6,1.3-0.7l0,0h0.1l0,0
		l0.1-0.1l0,0c0.1-0.1,0.2-0.2,0.2-0.3c0.1-0.1,0.1-0.3,0.1-0.4H183c-0.8,0.4-1.5,1.1-2,1.9c-0.4-0.8-1.1-1.5-2-1.9h-1.6L178,73.1
		L178,73.1z"/>
	<path class="st0" d="M185,145.9L185,145.9L185,145.9v-0.1v-0.1v-0.1v-0.1v-0.1l-0.1-0.1v-0.1l-0.1-0.1h-0.1h-0.1h-0.1l0,0l0,0l0,0
		c-0.5-0.1-0.9-0.4-1.2-0.7c-0.4-0.3-0.6-0.7-0.8-1.2V143l-0.1-0.1v-0.1l0,0l-0.1-0.1l0,0l-0.1-0.1l0,0l-0.1-0.1l0,0H182l0,0h-0.1
		h-0.2h-0.1h-0.1l0,0h-0.1l0,0h-0.1l0,0l-0.1,0.1l0,0c-0.1,0.1-0.2,0.3-0.3,0.4v0.1c-0.2,0.5-0.4,0.9-0.8,1.2
		c-0.4,0.3-0.8,0.6-1.3,0.7h-0.1h-0.1l0,0l-0.1,0.1l0,0c-0.1,0.1-0.2,0.2-0.2,0.3c-0.1,0.1-0.1,0.3-0.1,0.4h1.6
		c0.8-0.4,1.5-1.1,2-1.9c0.4,0.8,1.1,1.5,2,1.9h1.6L185,145.9L185,145.9z"/>
	<path class="st0" d="M145.1,113L145.1,113L145.1,113h0.1h0.1h0.1h0.1h0.1h0.1l0.1-0.1v-0.1l0.1-0.1v-0.1v-0.1l0,0l0,0l0,0
		c0.1-0.5,0.4-0.9,0.7-1.2c0.3-0.3,0.7-0.6,1.2-0.8h0.2l0.1-0.1h0.1h0.1l0.1-0.1l0,0l0.1-0.1l0,0l0.1-0.1l0,0l0.1-0.1l0,0v-0.1v-0.1
		v-0.1v-0.1l0,0v-0.1v-0.1v-0.1l0,0l-0.1-0.1l0,0c-0.1-0.1-0.3-0.2-0.4-0.3h-0.1c-0.5-0.1-0.9-0.4-1.2-0.8s-0.6-0.8-0.7-1.3v-0.1
		v-0.1l0,0l-0.1-0.1l0,0c-0.1-0.1-0.2-0.2-0.3-0.2c-0.1-0.1-0.3-0.1-0.4-0.1v1.6c0.5,0,1,0.2,1.4,0.6c0.3,0.4,0.6,0.9,0.6,1.4
		s-0.2,1-0.6,1.4c-0.4,0.4-0.8,0.6-1.4,0.6v1.6L145.1,113L145.1,113z"/>
	<path class="st0" d="M218,113.1v-1.6l0,0V113.1L218,113.1z"/>
	<path class="st0" d="M218,107.5V106l0,0V107.5L218,107.5z"/>
	<path class="st0" d="M217.9,106L217.9,106L217.9,106h-0.1h-0.1h-0.1h-0.1h-0.1h-0.1l-0.1,0.1l-0.1,0.1v0.1v0.1v0.1l0,0l0,0l0,0
		c-0.1,0.5-0.4,0.9-0.7,1.2c-0.3,0.3-0.7,0.6-1.2,0.8H215l-0.1,0.1h-0.1h-0.1l-0.1,0.1l0,0l-0.1,0.1l0,0l-0.1,0.1l0,0l-0.1,0.1l0,0
		v0.1v0.1v0.1v0.1l0,0v0.1v0.1v0.1l0,0l0.1,0.1l0,0c0.1,0.1,0.3,0.2,0.4,0.3h0.1c0.5,0.1,0.9,0.4,1.2,0.8s0.6,0.8,0.7,1.3v0.1v0.1
		l0,0l0.1,0.1l0,0c0.1,0.1,0.2,0.2,0.3,0.2c0.1,0.1,0.3,0.1,0.4,0.1v-1.6c-0.5,0-1-0.2-1.4-0.6c-0.3-0.4-0.6-0.9-0.6-1.4
		s0.2-1,0.6-1.4c0.4-0.4,0.8-0.6,1.4-0.6V106H217.9L217.9,106z"/>
	<path class="st1" d="M88.1,19.4c0.9,0,1.7,0.1,2.6,0.2c-0.4-2.4-0.2-4.9,0.5-7.3C91.8,10,93,7.8,94.6,6c1.6-1.9,3.6-3.4,5.8-4.4
		c2.2-1,4.7-1.6,7.1-1.6H91.8c0,0.5-0.1,1-0.3,1.5C91.3,2,91,2.4,90.7,2.8s-0.8,0.7-1.3,0.9c-0.5,0.2-1,0.3-1.5,0.3
		c-2.2,0-13.2-1.8-13.2-4H71v36.5c0-4.5,1.8-8.9,5-12C79.2,21.3,83.5,19.5,88.1,19.4z M85.4,12.7c0.2,0.2,0.3,0.4,0.3,0.6
		c0,0.2,0,0.5-0.1,0.7s-0.3,0.4-0.5,0.6c-0.2,0.1-0.4,0.2-0.7,0.2c-0.2,0-0.5-0.1-0.7-0.2c-0.2-0.1-0.4-0.3-0.5-0.6
		c-0.1-0.2-0.1-0.5-0.1-0.7c0.1-0.2,0.2-0.5,0.3-0.6c0.2-0.2,0.5-0.4,0.9-0.4C84.9,12.3,85.2,12.4,85.4,12.7L85.4,12.7z M71,0h1.8
		c0,0.2-0.1,0.5-0.1,0.7c-0.1,0.2-0.2,0.4-0.4,0.6c-0.2,0.2-0.3,0.3-0.6,0.4c-0.2,0.1-0.4,0.1-0.7,0.1C71,1.8,71,0,71,0z M71,20.8
		V3.6c2.2,0,3.9,11.1,3.9,13.2c0,0.5-0.1,1-0.3,1.5c-0.2,0.5-0.5,0.9-0.8,1.3c-0.4,0.4-0.8,0.7-1.3,0.9C72,20.7,71.5,20.8,71,20.8
		L71,20.8z M75.3,4.3c0.8-0.8,6.7,3.2,7.6,4.1c0.5,0.5,0.7,1.1,0.7,1.8s-0.3,1.3-0.7,1.8c-0.5,0.5-1.1,0.7-1.8,0.7s-1.3-0.3-1.8-0.7
		C78.4,10.9,74.5,5.1,75.3,4.3z"/>
	<path class="st1" d="M88,50.5c1.4,0,2.8-0.2,4.2-0.6l0.6-0.2c0-0.2,0.2-0.4,0.3-0.6c0.2-0.2,0.6-0.4,0.9-0.4s0.7,0.1,0.9,0.4
		c0.2,0.2,0.4,0.6,0.4,0.9s-0.1,0.6-0.4,0.9c-0.2,0.1-0.3,0.3-0.6,0.3l-0.2,0.6c-0.7,2.1-0.8,4.3-0.4,6.5s1.2,4.2,2.5,6
		c1.3,1.8,3,3.2,5,4.2s4.1,1.5,6.3,1.5s4.4-0.5,6.3-1.5c2-1,3.7-2.4,5-4.2c1.3-1.8,2.2-3.8,2.5-6c0.4-2.2,0.2-4.4-0.4-6.5l-0.2-0.6
		c-0.2,0-0.4-0.2-0.6-0.3c-0.2-0.2-0.4-0.6-0.4-0.9c0-0.3,0.1-0.6,0.4-0.9c0.2-0.2,0.5-0.4,0.9-0.4c0.3,0,0.6,0.1,0.9,0.4
		c0.1,0.2,0.3,0.4,0.3,0.6l0.6,0.2c2.1,0.6,4.3,0.8,6.5,0.4c2.2-0.4,4.2-1.2,6-2.5s3.2-3,4.2-5s1.5-4.1,1.5-6.3s-0.5-4.4-1.5-6.3
		c-1-2-2.4-3.7-4.2-5s-3.8-2.2-6-2.5c-2.2-0.4-4.4-0.2-6.5,0.4l-0.6,0.2c0,0.2-0.2,0.4-0.3,0.6c-0.1,0.1-0.3,0.2-0.4,0.3
		s-0.3,0.1-0.5,0.1s-0.3,0-0.5-0.1s-0.3-0.2-0.4-0.3c-0.1-0.1-0.2-0.3-0.3-0.4c-0.1-0.2-0.1-0.3-0.1-0.5s0-0.3,0.1-0.5
		s0.2-0.3,0.3-0.4c0.2-0.1,0.3-0.3,0.6-0.3l0.2-0.6c0.7-2.1,0.8-4.3,0.4-6.5s-1.2-4.2-2.5-6s-3-3.2-5-4.2S109.7,3,107.5,3
		s-4.4,0.5-6.3,1.5c-2,1-3.7,2.4-5,4.2s-2.2,3.8-2.5,6c-0.4,2.2-0.2,4.4,0.4,6.5l0.2,0.6c0.2,0,0.4,0.2,0.6,0.3
		c0.1,0.1,0.2,0.3,0.3,0.4c0.1,0.2,0.1,0.3,0.1,0.5s0,0.3-0.1,0.5s-0.2,0.3-0.3,0.4c-0.1,0.1-0.3,0.2-0.4,0.3
		c-0.2,0.1-0.3,0.1-0.5,0.1s-0.3,0-0.5-0.1s-0.3-0.2-0.4-0.3c-0.1-0.2-0.3-0.4-0.3-0.6l-0.6-0.2c-1.9-0.6-4-0.8-6-0.5
		s-3.9,0.9-5.6,2s-3.2,2.5-4.3,4.2c-1.1,1.7-1.9,3.6-2.2,5.6c-0.3,2-0.2,4,0.4,6c0.5,1.9,1.5,3.7,2.8,5.3c1.3,1.5,2.9,2.8,4.8,3.6
		C84,50.1,86,50.5,88,50.5z M99.1,48.4c-0.5,0.5-1.1,0.7-1.8,0.7s-1.3-0.3-1.8-0.7c-0.5-0.5-0.7-1.1-0.7-1.8s0.3-1.3,0.7-1.8
		c1-1,6.8-4.9,7.6-4.1C104,41.6,100.1,47.4,99.1,48.4z M107.5,57.3c-1.1,0-2.1-0.4-2.8-1.2c-0.7-0.7-1.1-1.7-1.1-2.8
		c0-2.2,1.8-13.2,3.9-13.2s3.9,11.1,3.9,13.2c0,0.5-0.1,1-0.3,1.5c-0.2,0.5-0.5,0.9-0.9,1.3c-0.4,0.4-0.8,0.7-1.3,0.9
		C108.5,57.2,108,57.3,107.5,57.3z M105.7,36.5c0-0.3,0.1-0.7,0.3-1c0.2-0.3,0.5-0.5,0.8-0.6s0.7-0.2,1-0.1c0.3,0.1,0.7,0.2,0.9,0.5
		c0.3,0.2,0.4,0.6,0.5,0.9c0.1,0.3,0,0.7-0.1,1s-0.4,0.6-0.7,0.8c-0.3,0.2-0.6,0.3-1,0.3c-0.2,0-0.5,0-0.7-0.1s-0.4-0.2-0.6-0.4
		s-0.3-0.4-0.4-0.6C105.8,37,105.7,36.7,105.7,36.5z M119.4,48.4c-0.5,0.5-1.1,0.7-1.8,0.7s-1.3-0.3-1.8-0.7c-1-1-4.9-6.8-4.1-7.6
		s6.7,3.2,7.6,4.1c0.2,0.2,0.4,0.5,0.5,0.8s0.2,0.6,0.2,1c0,0.3-0.1,0.6-0.2,0.9C119.8,47.9,119.6,48.2,119.4,48.4z M124.4,32.5
		c1.1,0,2.1,0.4,2.8,1.2c0.7,0.7,1.2,1.7,1.2,2.8c0,1-0.4,2.1-1.2,2.8c-0.7,0.7-1.7,1.2-2.8,1.2c-2.2,0-13.2-1.8-13.2-4
		C111.1,34.3,122.2,32.5,124.4,32.5z M115.9,24.6c0.2-0.2,0.5-0.4,0.8-0.5s0.6-0.2,1-0.2c0.3,0,0.7,0.1,0.9,0.2
		c0.3,0.1,0.6,0.3,0.8,0.5c0.2,0.2,0.4,0.5,0.5,0.8s0.2,0.6,0.2,1c0,0.3-0.1,0.6-0.2,1c-0.1,0.3-0.3,0.6-0.5,0.8
		c-1,1-6.8,4.9-7.6,4.1C111,31.5,114.9,25.6,115.9,24.6L115.9,24.6z M107.5,15.7c1.1,0,2.1,0.4,2.8,1.2c0.7,0.7,1.2,1.7,1.2,2.8
		c0,2.2-1.8,13.2-3.9,13.2s-3.9-11.1-3.9-13.2c0-1,0.4-2.1,1.1-2.8C105.4,16.1,106.4,15.7,107.5,15.7L107.5,15.7z M95.6,24.6
		c0.5-0.5,1.1-0.7,1.8-0.7s1.3,0.3,1.8,0.7c1,1,4.9,6.8,4.1,7.6s-6.7-3.2-7.6-4.1C95.2,27.6,95,27,95,26.3
		C94.9,25.7,95.1,25.1,95.6,24.6L95.6,24.6z M90.6,32.5c2.2,0,13.2,1.8,13.2,4s-11.1,4-13.2,4c-1.1,0-2.1-0.4-2.8-1.2
		c-0.7-0.7-1.2-1.7-1.2-2.8c0-1,0.4-2.1,1.2-2.8C88.6,33,89.6,32.5,90.6,32.5z"/>
	<path class="st1" d="M144,1.8c-0.5,0-0.9-0.2-1.3-0.5c-0.3-0.3-0.5-0.8-0.5-1.2h-1.9c0,2.2-11.1,4-13.2,4c-0.5,0-1-0.1-1.5-0.3
		s-0.9-0.5-1.3-0.9s-0.7-0.8-0.9-1.3c-0.2-0.5-0.3-1-0.3-1.5h-15.7c2.5,0,4.9,0.5,7.1,1.6c2.2,1,4.2,2.5,5.8,4.4
		c1.6,1.9,2.8,4.1,3.5,6.4c0.7,2.4,0.8,4.8,0.4,7.3c0.9-0.1,1.7-0.2,2.6-0.2c2.4,0,4.7,0.5,6.8,1.4c2.2,0.9,4.1,2.3,5.7,4
		c1.6,1.7,2.8,3.8,3.6,6s1.1,4.6,0.9,6.9c-0.2,2.3-0.8,4.6-1.9,6.7c-1.1,2.1-2.6,3.9-4.5,5.4c-1.8,1.5-4,2.5-6.2,3.1
		c-2.3,0.6-4.6,0.7-7,0.4c0.4,2.4,0.2,4.9-0.5,7.3c-0.7,2.4-1.9,4.5-3.5,6.4c-1.6,1.9-3.6,3.4-5.8,4.4c-2.2,1-4.7,1.6-7.1,1.6
		s-4.9-0.5-7.1-1.6s-4.2-2.5-5.8-4.4c-1.6-1.9-2.8-4.1-3.5-6.4c-0.7-2.4-0.8-4.8-0.5-7.3c-2.4,0.4-4.9,0.2-7.3-0.5s-4.6-1.9-6.4-3.5
		c-1.9-1.6-3.4-3.6-4.4-5.8s-1.6-4.7-1.6-7.1V73h73V0l0,0v1.8H144z M83.7,58.6c0.2-0.2,0.4-0.3,0.6-0.3s0.5,0,0.7,0.1
		s0.4,0.3,0.6,0.5c0.1,0.2,0.2,0.4,0.2,0.7c0,0.2-0.1,0.5-0.2,0.7s-0.3,0.4-0.6,0.5c-0.2,0.1-0.5,0.1-0.7,0.1s-0.5-0.2-0.6-0.3
		c-0.2-0.2-0.4-0.6-0.4-0.9C83.3,59.1,83.4,58.8,83.7,58.6z M79.4,61.1c0.5-0.5,1.1-0.7,1.8-0.7c0.7,0,1.3,0.3,1.8,0.7
		c0.5,0.5,0.7,1.1,0.7,1.8s-0.3,1.3-0.7,1.8c-1,1-6.8,4.9-7.6,4.1C74.5,67.9,78.4,62.1,79.4,61.1z M71,52.2c0.5,0,1,0.1,1.5,0.3
		s0.9,0.5,1.3,0.9s0.6,0.8,0.8,1.3c0.2,0.5,0.3,1,0.3,1.5c0,2.2-1.8,13.2-3.9,13.2C71,69.4,71,52.2,71,52.2z M71,73v-1.8
		c0.2,0,0.5,0,0.7,0.1s0.4,0.2,0.6,0.4c0.2,0.2,0.3,0.4,0.4,0.6s0.1,0.4,0.1,0.7C72.8,73,71,73,71,73z M74.6,73c0-2.2,11.1-4,13.2-4
		c1.1,0,2.1,0.4,2.8,1.2c0.7,0.7,1.2,1.7,1.2,2.8H74.6z M131.3,14.4c-0.2,0.2-0.4,0.3-0.6,0.3c-0.2,0-0.5,0-0.7-0.1
		s-0.4-0.3-0.6-0.5c-0.1-0.2-0.2-0.4-0.2-0.7c0-0.2,0.1-0.5,0.2-0.7c0.1-0.2,0.3-0.4,0.6-0.5c0.2-0.1,0.5-0.1,0.7-0.1
		s0.5,0.2,0.6,0.3c0.2,0.2,0.4,0.6,0.4,0.9C131.7,13.9,131.6,14.2,131.3,14.4z M135.6,11.9c-0.5,0.5-1.1,0.7-1.8,0.7
		s-1.3-0.3-1.8-0.7c-0.5-0.5-0.7-1.1-0.7-1.8s0.3-1.3,0.7-1.8c1-1,6.8-4.9,7.6-4.1S136.6,10.9,135.6,11.9z M144,52.2v17.2
		c-2.2,0-4-11.1-4-13.2c0-1,0.4-2.1,1.2-2.8C141.9,52.6,142.9,52.2,144,52.2z M135.6,61.1c1,1,4.9,6.8,4.1,7.6
		c-0.8,0.8-6.7-3.2-7.6-4.1c-0.2-0.2-0.4-0.5-0.5-0.8s-0.2-0.6-0.2-1s0.1-0.6,0.2-1c0.1-0.3,0.3-0.6,0.5-0.8s0.5-0.4,0.8-0.5
		s0.6-0.2,0.9-0.2c0.3,0,0.7,0.1,1,0.2C135.1,60.7,135.4,60.9,135.6,61.1z M129.6,58.6c0.2-0.2,0.4-0.3,0.6-0.3c0.2,0,0.5,0,0.7,0.1
		s0.4,0.3,0.6,0.5c0.1,0.2,0.2,0.4,0.2,0.7c0,0.2-0.1,0.5-0.2,0.7c-0.1,0.2-0.3,0.4-0.6,0.5c-0.2,0.1-0.5,0.1-0.7,0.1
		s-0.5-0.2-0.6-0.3c-0.2-0.2-0.4-0.6-0.4-0.9C129.2,59.1,129.3,58.8,129.6,58.6z M123.2,73c0-1,0.4-2.1,1.2-2.8
		c0.7-0.7,1.8-1.2,2.8-1.2c2.2,0,13.2,1.8,13.2,4H123.2z M144,73h-1.8c0-0.5,0.2-0.9,0.5-1.2c0.3-0.3,0.8-0.5,1.3-0.5V73z M144,20.8
		c-0.5,0-1-0.1-1.5-0.3c-0.5-0.2-0.9-0.5-1.3-0.9c-0.4-0.4-0.7-0.8-0.8-1.3c-0.2-0.5-0.3-1-0.3-1.5c0-2.2,1.8-13.2,4-13.2L144,20.8
		L144,20.8z"/>
</g>
</svg>
