<?xml version="1.0" encoding="utf-8"?>
<!-- Generator: Adobe Illustrator 22.1.0, SVG Export Plug-In . SVG Version: 6.00 Build 0)  -->
<svg version="1.1" id="Слой_1" xmlns="http://www.w3.org/2000/svg" xmlns:xlink="http://www.w3.org/1999/xlink" x="0px" y="0px"
	 viewBox="0 0 298 581" style="enable-background:new 0 0 298 581;" xml:space="preserve">
<style type="text/css">
	.st0{fill:#2C3B8C;}
	.st1{fill:#6678D6;}
</style>
<g>
	<path class="st0" d="M144.8,254.5c-0.4-0.2-0.8-0.2-1.2-0.1c-0.4,0.1-0.8,0.3-1,0.6L111,286.6c-0.3,0.3-0.5,0.6-0.6,1
		s0,0.8,0.1,1.2c0.2,0.4,0.4,0.7,0.7,0.9c0.3,0.2,0.7,0.3,1.1,0.3H144c0.5,0,1.1-0.2,1.4-0.6c0.4-0.4,0.6-0.9,0.6-1.4v-31.6
		c0-0.4-0.1-0.8-0.3-1.1C145.4,254.9,145.1,254.6,144.8,254.5z"/>
	<path class="st0" d="M144.9,237.9c-0.2-0.2-0.6-0.4-0.9-0.4c-0.3,0-0.7,0.1-0.9,0.4L93.9,287c-0.1,0.1-0.2,0.3-0.3,0.4
		c-0.1,0.2-0.1,0.3-0.1,0.5s0,0.3,0.1,0.5s0.2,0.3,0.3,0.4c0.1,0.1,0.3,0.2,0.4,0.3c0.2,0.1,0.3,0.1,0.5,0.1s0.3,0,0.5-0.1
		s0.3-0.2,0.4-0.3l49.2-49.2c0.2-0.2,0.4-0.6,0.4-0.9C145.3,238.5,145.1,238.1,144.9,237.9z"/>
	<path class="st0" d="M1.3,179.5c0.4,0.2,0.8,0.2,1.2,0.1c0.4-0.1,0.8-0.3,1-0.6l31.6-31.6c0.3-0.3,0.5-0.6,0.6-1s0-0.8-0.1-1.2
		c-0.2-0.4-0.4-0.7-0.7-0.9s-0.7-0.3-1.1-0.3H2c-0.5,0-1.1,0.2-1.4,0.6C0.2,145,0,145.5,0,146v31.6c0,0.4,0.1,0.8,0.3,1.1
		C0.6,179.1,0.9,179.4,1.3,179.5z"/>
	<path class="st0" d="M1.1,196.1c0.1,0.1,0.3,0.2,0.4,0.3c0.2,0.1,0.3,0.1,0.5,0.1s0.3,0,0.5-0.1s0.3-0.2,0.4-0.3l49.2-49.2
		c0.2-0.2,0.4-0.6,0.4-0.9c0-0.3-0.1-0.7-0.4-0.9c-0.2-0.2-0.6-0.4-0.9-0.4c-0.3,0-0.7,0.1-0.9,0.4L1.1,194.3
		c-0.1,0.1-0.2,0.3-0.3,0.4s-0.1,0.3-0.1,0.5s0,0.3,0.1,0.5S1,196,1.1,196.1z"/>
	<path class="st0" d="M142.5,179.1c0.2,0.2,0.4,0.3,0.7,0.4c0.2,0.1,0.5,0.2,0.8,0.2s0.5-0.1,0.8-0.2c0.4-0.2,0.7-0.4,0.9-0.7
		s0.3-0.7,0.3-1.1V146c0-0.3-0.1-0.5-0.2-0.8c-0.1-0.2-0.3-0.5-0.4-0.7c-0.2-0.2-0.4-0.3-0.7-0.4c-0.2-0.1-0.5-0.2-0.8-0.2h-31.6
		c-0.4,0-0.8,0.1-1.1,0.3c-0.3,0.2-0.6,0.5-0.7,0.9c-0.2,0.4-0.2,0.8-0.1,1.2s0.3,0.8,0.6,1L142.5,179.1z"/>
	<path class="st0" d="M143,196.1c0.2,0.2,0.6,0.4,0.9,0.4c0.3,0,0.7-0.1,0.9-0.4c0.2-0.2,0.4-0.6,0.4-0.9c0-0.3-0.1-0.7-0.4-0.9
		l-49.2-49.2c-0.2-0.2-0.6-0.4-0.9-0.4s-0.7,0.1-0.9,0.4c-0.1,0.1-0.2,0.3-0.3,0.4c-0.1,0.2-0.1,0.3-0.1,0.5s0,0.3,0.1,0.5
		s0.2,0.3,0.3,0.4L143,196.1z"/>
	<path class="st0" d="M3.5,254.9c-0.4-0.4-0.9-0.6-1.4-0.6c-0.3,0-0.5,0.1-0.8,0.2c-0.4,0.2-0.7,0.4-0.9,0.7s-0.3,0.7-0.3,1.1L0,288
		c0,0.5,0.2,1.1,0.6,1.4C1,289.8,1.5,290,2,290h31.6c0.4,0,0.8-0.1,1.1-0.3c0.3-0.2,0.6-0.5,0.7-0.9c0.2-0.4,0.2-0.8,0.1-1.2
		c-0.1-0.4-0.3-0.8-0.6-1L3.5,254.9z"/>
	<path class="st0" d="M3,237.9c-0.2-0.2-0.6-0.4-0.9-0.4s-0.5,0.1-0.7,0.2c-0.2,0.1-0.4,0.3-0.5,0.6c-0.1,0.2-0.1,0.5-0.1,0.8
		c0.1,0.3,0.2,0.5,0.4,0.7L50.4,289c0.2,0.2,0.6,0.4,0.9,0.4c0.3,0,0.7-0.1,0.9-0.4c0.2-0.2,0.4-0.6,0.4-0.9s-0.1-0.7-0.4-0.9
		L3,237.9z"/>
	<path class="st0" d="M74.5,231.7c-0.2-0.2-0.4-0.4-0.7-0.5c-0.3-0.1-0.5-0.2-0.8-0.2s-0.6,0.1-0.8,0.2c-0.3,0.1-0.5,0.3-0.7,0.5
		c-2.3,2.6-4.3,5.4-6,8.4c-3.7,6.2-5.8,13.2-6,20.4c0.2,7.2,2.3,14.2,6,20.4c1.7,3,3.7,5.8,6,8.4c0.2,0.2,0.4,0.4,0.7,0.5
		c0.3,0.1,0.5,0.2,0.8,0.2s0.6-0.1,0.8-0.2c0.3-0.1,0.5-0.3,0.7-0.5c2.3-2.6,4.3-5.4,6-8.4c3.7-6.2,5.8-13.2,6-20.4
		c-0.2-7.2-2.3-14.2-6-20.4C78.8,237.1,76.8,234.3,74.5,231.7z"/>
	<path class="st0" d="M71.5,202.3c0.2,0.2,0.4,0.4,0.7,0.5c0.3,0.1,0.5,0.2,0.8,0.2s0.6-0.1,0.8-0.2c0.3-0.1,0.5-0.3,0.7-0.5
		c2.3-2.6,4.3-5.4,6-8.4c3.7-6.2,5.8-13.2,6-20.4c-0.2-7.2-2.3-14.2-6-20.4c-1.7-3-3.7-5.8-6-8.4c-0.2-0.2-0.4-0.4-0.7-0.5
		c-0.3-0.1-0.5-0.2-0.8-0.2s-0.6,0.1-0.8,0.2c-0.3,0.1-0.5,0.3-0.7,0.5c-2.3,2.6-4.3,5.4-6,8.4c-3.7,6.2-5.8,13.2-6,20.4
		c0.2,7.2,2.3,14.2,6,20.4C67.2,196.9,69.2,199.7,71.5,202.3z"/>
	<path class="st0" d="M136.9,224.5c3-1.7,5.8-3.7,8.4-6c0.2-0.2,0.4-0.4,0.5-0.7s0.2-0.5,0.2-0.8s-0.1-0.6-0.2-0.8
		c-0.1-0.3-0.3-0.5-0.5-0.7c-2.6-2.3-5.4-4.3-8.4-6c-6.2-3.7-13.2-5.8-20.4-6c-7.2,0.2-14.2,2.3-20.4,6c-3,1.7-5.8,3.7-8.4,6
		c-0.2,0.2-0.4,0.4-0.5,0.7S87,216.7,87,217s0.1,0.6,0.2,0.8c0.1,0.3,0.3,0.5,0.5,0.7c2.6,2.3,5.4,4.3,8.4,6
		c6.2,3.7,13.2,5.8,20.4,6C123.7,230.2,130.8,228.2,136.9,224.5z"/>
	<path class="st0" d="M58.3,218.5c0.2-0.2,0.4-0.4,0.5-0.7s0.2-0.5,0.2-0.8s-0.1-0.6-0.2-0.8c-0.1-0.3-0.3-0.5-0.5-0.7
		c-2.6-2.3-5.4-4.3-8.4-6c-6.2-3.7-13.2-5.8-20.4-6c-7.2,0.2-14.2,2.3-20.4,6c-3,1.7-5.8,3.7-8.4,6c-0.2,0.2-0.4,0.4-0.5,0.7
		C0.1,216.4,0,216.7,0,217s0.1,0.6,0.2,0.8c0.1,0.3,0.3,0.5,0.5,0.7c2.6,2.3,5.4,4.3,8.4,6c6.2,3.7,13.2,5.8,20.4,6
		c7.2-0.2,14.2-2.3,20.4-6C52.9,222.8,55.7,220.8,58.3,218.5z"/>
	<path class="st0" d="M68.7,217c0,0.8,0.2,1.7,0.7,2.4s1.1,1.3,1.9,1.6s1.6,0.4,2.5,0.2c0.8-0.2,1.6-0.6,2.2-1.2
		c0.6-0.6,1-1.4,1.2-2.2s0.1-1.7-0.2-2.5c-0.3-0.8-0.9-1.5-1.6-1.9c-0.7-0.5-1.5-0.7-2.4-0.7c-0.6,0-1.1,0.1-1.6,0.3s-1,0.5-1.4,0.9
		s-0.7,0.9-0.9,1.4C68.8,215.9,68.7,216.4,68.7,217z"/>
	<path class="st1" d="M62,204.6c-1.6-2.2-15.8-21.9-17.5-23.6c-1-1-2.4-1.6-3.8-1.6c-1.4,0-2.8,0.6-3.8,1.6s-1.6,2.4-1.6,3.8
		c0,1.4,0.6,2.8,1.6,3.8c1.7,1.7,21.4,15.9,23.6,17.5c0.2,0.1,0.4,0.2,0.7,0.2c0.2,0,0.5-0.1,0.6-0.3c0.2-0.2,0.3-0.4,0.3-0.6
		C62.2,205.1,62.2,204.8,62,204.6L62,204.6z"/>
	<path class="st1" d="M85.4,206c2.2-1.6,21.9-15.8,23.6-17.5c1-1,1.6-2.4,1.6-3.8c0-1.4-0.6-2.8-1.6-3.8s-2.4-1.6-3.8-1.6
		s-2.8,0.6-3.8,1.6c0.1-0.1-14.4,19.3-17.5,23.6c-0.1,0.2-0.2,0.4-0.2,0.7c0,0.2,0.1,0.5,0.3,0.6c0.2,0.2,0.4,0.3,0.6,0.3
		C84.9,206.2,85.2,206.2,85.4,206L85.4,206z"/>
	<path class="st1" d="M40.8,254.6c0.7,0,1.4-0.1,2.1-0.4c0.7-0.3,1.2-0.7,1.7-1.2c1.7-1.7,15.9-21.4,17.5-23.6
		c0.1-0.2,0.2-0.4,0.2-0.7c0-0.2-0.1-0.5-0.3-0.6c-0.1-0.1-0.2-0.2-0.3-0.2c-0.1-0.1-0.3-0.1-0.4-0.1c-0.2,0-0.4,0.1-0.6,0.2
		c-2.2,1.6-20.1,13.9-21.8,15.7c-2.1,2.1-3.9,7.3-1.8,9.4c0.5,0.5,1.1,0.9,1.7,1.2C39.4,254.4,40.1,254.6,40.8,254.6z"/>
	<path class="st1" d="M84,229.4c2.2,3,14.9,21.1,17.4,23.6c0.5,0.5,1.1,0.9,1.7,1.2c0.7,0.3,1.3,0.4,2.1,0.4c0.7,0,1.4-0.1,2.1-0.4
		c0.7-0.3,1.2-0.7,1.7-1.2s0.9-1.1,1.2-1.7c0.3-0.7,0.4-1.3,0.4-2.1s-0.1-1.4-0.4-2.1c-0.3-0.7-0.7-1.2-1.2-1.7
		c-1.7-1.7-21.4-15.9-23.6-17.5c-0.2-0.1-0.4-0.2-0.6-0.2l0,0c-0.1,0-0.3,0-0.4,0.1s-0.2,0.1-0.3,0.2c-0.1,0.1-0.2,0.2-0.2,0.3
		s-0.1,0.3-0.1,0.4C83.8,229,83.9,229.3,84,229.4z"/>
</g>
</svg>
