<?xml version="1.0" encoding="utf-8"?>
<!-- Generator: Adobe Illustrator 22.1.0, SVG Export Plug-In . SVG Version: 6.00 Build 0)  -->
<svg version="1.1" id="Слой_1" xmlns="http://www.w3.org/2000/svg" xmlns:xlink="http://www.w3.org/1999/xlink" x="0px" y="0px"
	 viewBox="0 0 294 289" style="enable-background:new 0 0 294 289;" xml:space="preserve">
<style type="text/css">
	.st0{fill:#2C3B8C;}
	.st1{fill:#E7533B;}
</style>
<g>
	<path class="st0" d="M182.7,35.7c-0.4-2.1-1.7-7.5-5.6-11.5c-3.9-3.9-9.4-5.2-11.5-5.6c0.4,2.1,1.7,7.5,5.6,11.5
		C175.2,34,180.6,35.3,182.7,35.7z"/>
	<path class="st0" d="M182.7,37.3c-2.1,0.4-7.5,1.7-11.5,5.6c-3.9,3.9-5.2,9.4-5.6,11.5c2.1-0.4,7.5-1.7,11.5-5.6
		C181,44.8,182.3,39.4,182.7,37.3z"/>
	<path class="st0" d="M147,73c2.1-0.4,7.5-1.7,11.5-5.6c3.9-3.9,5.2-9.4,5.6-11.5c-2.1,0.4-7.5,1.7-11.5,5.6
		C148.7,65.5,147.4,70.9,147,73z"/>
	<path class="st0" d="M165.6,55.9c0.4,2.1,1.7,7.5,5.6,11.5s9.4,5.2,11.5,5.6c-0.4-2.1-1.7-7.5-5.6-11.5
		C173.2,57.6,167.7,56.3,165.6,55.9z"/>
	<path class="st0" d="M147,35.7c2.1-0.4,7.5-1.7,11.5-5.6c3.9-3.9,5.2-9.4,5.6-11.5c-2.1,0.4-7.5,1.7-11.5,5.6
		C148.7,28.2,147.4,33.6,147,35.7z"/>
	<path class="st0" d="M147,37.3c0.4,2.1,1.7,7.5,5.6,11.5c3.9,3.9,9.4,5.2,11.5,5.6c-0.4-2.1-1.7-7.5-5.6-11.5
		C154.5,39,149.1,37.7,147,37.3z"/>
	<path class="st0" d="M147,0c0.4,2.1,1.7,7.5,5.6,11.5c3.9,3.9,9.4,5.2,11.5,5.6c-0.4-2.1-1.7-7.5-5.6-11.5
		C154.5,1.7,149.1,0.4,147,0z"/>
	<path class="st0" d="M182.7,0c-2.1,0.4-7.5,1.7-11.5,5.6c-3.9,3.9-5.2,9.4-5.6,11.5c2.1-0.4,7.5-1.7,11.5-5.6
		C181,7.5,182.3,2.1,182.7,0z"/>
	<path class="st0" d="M202.9,54.4c2.1-0.4,7.5-1.7,11.5-5.6c3.9-3.9,5.2-9.4,5.6-11.5c-2.1,0.4-7.5,1.7-11.5,5.6
		C204.6,46.8,203.3,52.3,202.9,54.4z"/>
	<path class="st0" d="M202.9,17.1c2.1-0.4,7.5-1.7,11.5-5.6c3.9-3.9,5.2-9.4,5.6-11.5c-2.1,0.4-7.5,1.7-11.5,5.6
		C204.6,9.5,203.3,15,202.9,17.1z"/>
	<path class="st0" d="M202.9,18.6c0.4,2.1,1.7,7.5,5.6,11.5c3.9,3.9,9.4,5.2,11.5,5.6c-0.4-2.1-1.7-7.5-5.6-11.5
		C210.5,20.3,205,19,202.9,18.6z"/>
	<path class="st0" d="M202.9,55.9c0.4,2.1,1.7,7.5,5.6,11.5c3.9,3.9,9.4,5.2,11.5,5.6c-0.4-2.1-1.7-7.5-5.6-11.5
		C210.5,57.6,205,56.3,202.9,55.9z"/>
	<path class="st0" d="M201.4,18.6c-2.1,0.4-7.5,1.7-11.5,5.6c-3.9,3.9-5.2,9.4-5.6,11.5c2.1-0.4,7.5-1.7,11.5-5.6
		C199.7,26.2,201,20.7,201.4,18.6z"/>
	<path class="st0" d="M184.3,0c0.4,2.1,1.7,7.5,5.6,11.5c3.9,3.9,9.4,5.2,11.5,5.6c-0.4-2.1-1.7-7.5-5.6-11.5
		C191.8,1.7,186.4,0.4,184.3,0z"/>
	<path class="st0" d="M184.3,37.3c0.4,2.1,1.7,7.5,5.6,11.5c3.9,3.9,9.4,5.2,11.5,5.6c-0.4-2.1-1.7-7.5-5.6-11.5
		C191.8,39,186.4,37.7,184.3,37.3z"/>
	<path class="st0" d="M184.3,73c2.1-0.4,7.5-1.7,11.5-5.6c3.9-3.9,5.2-9.4,5.6-11.5c-2.1,0.4-7.5,1.7-11.5,5.6
		C186,65.5,184.7,70.9,184.3,73z"/>
	<path class="st1" d="M256.5,107.2c-0.1,0.1-0.3,0.3-0.3,0.5c-0.1,0.2-0.1,0.4-0.1,0.6s0,0.4,0.1,0.6s0.2,0.4,0.3,0.5
		c0.3,0.3,0.7,0.5,1.1,0.5s0.8-0.2,1.1-0.5c0.1-0.1,0.3-0.3,0.3-0.5c0.1-0.2,0.1-0.4,0.1-0.6s0-0.4-0.1-0.6s-0.2-0.4-0.3-0.5
		c-0.3-0.3-0.7-0.5-1.1-0.5S256.8,106.9,256.5,107.2L256.5,107.2z"/>
	<path class="st1" d="M255.4,106.5h0.1c0,0,0.1,0,0.1-0.1l0.1-0.1v-0.1c-0.4-2-1.4-3.8-2.8-5.3c-1.5-1.4-3.3-2.3-5.2-2.8v0.4h-0.4
		c0.5,1.9,1.4,3.7,2.8,5.2C251.6,105.1,253.4,106,255.4,106.5L255.4,106.5z"/>
	<path class="st1" d="M259.8,110.1c-0.1,0-0.1,0-0.1,0s-0.1,0-0.1,0.1s-0.1,0.1-0.1,0.1v0.1c0.4,2,1.4,3.8,2.8,5.3
		c1.5,1.4,3.3,2.3,5.2,2.8V118h0.4c-0.5-1.9-1.4-3.7-2.8-5.2C263.6,111.5,261.8,110.5,259.8,110.1L259.8,110.1z"/>
	<path class="st1" d="M255.8,110.4L255.8,110.4c0-0.1,0-0.2-0.1-0.2l-0.1-0.1h-0.1c-2,0.4-3.8,1.4-5.3,2.8c-1.4,1.4-2.4,3.2-2.8,5.2
		h0.4v0.4c2-0.4,3.8-1.4,5.2-2.8C254.4,114.2,255.3,112.4,255.8,110.4L255.8,110.4z"/>
	<path class="st1" d="M259.4,106.1L259.4,106.1c0,0.1,0,0.2,0.1,0.2l0.1,0.1h0.1c2-0.4,3.8-1.4,5.3-2.8c1.4-1.4,2.4-3.2,2.8-5.2
		h-0.4V98c-2,0.4-3.8,1.4-5.2,2.8C260.8,102.3,259.9,104.1,259.4,106.1L259.4,106.1z"/>
	<path class="st1" d="M254.7,108c-1.7-1.1-3.7-1.7-5.7-1.7c-2,0.1-4,0.7-5.7,1.7l-0.1,0.1v0.1v0.1l0.1,0.1c1.7,1.1,3.7,1.7,5.7,1.7
		s4-0.7,5.7-1.7l0,0l0,0l0.1-0.1v-0.1v-0.1C254.9,108.1,254.8,108.1,254.7,108L254.7,108z"/>
	<path class="st1" d="M271.9,108c-1.7-1.1-3.7-1.7-5.7-1.7c-2,0.1-4,0.7-5.7,1.7l-0.1,0.1v0.1v0.1l0.1,0.1c1.7,1.1,3.7,1.7,5.7,1.7
		s4-0.7,5.7-1.7l0,0l0,0l0.1-0.1v-0.1v-0.1C272,108.1,272,108.1,271.9,108L271.9,108z"/>
	<path class="st1" d="M257.6,111c-0.1,0-0.1,0-0.1,0l-0.1,0.1c-1.1,1.7-1.7,3.7-1.8,5.7c0.1,2,0.7,4,1.8,5.7l0.1,0.1h0.1h0.1
		c0,0,0.1,0,0.1-0.1l0,0c1.1-1.7,1.7-3.7,1.8-5.7c-0.1-2-0.7-4-1.8-5.7l-0.1-0.1H257.6L257.6,111z"/>
	<path class="st1" d="M257.6,105.6h0.1c0,0,0.1,0,0.1-0.1l0,0c1.1-1.7,1.7-3.7,1.8-5.7c-0.1-2-0.7-4-1.8-5.7l-0.1-0.1h-0.1
		c-0.1,0-0.1,0-0.1,0l-0.1,0.1c-1.1,1.7-1.7,3.7-1.8,5.7c0.1,2,0.7,4,1.8,5.7l0.1,0.1C257.5,105.6,257.5,105.6,257.6,105.6
		L257.6,105.6z"/>
	<path class="st1" d="M240.3,72.7c-4.8-0.2-5.3,2.6-5.3,3.4c0,2.6,1.9,3,1.9,3c-1.1,0.6-5.1,0.6-5.1-3.3c0-0.5,0.1-0.9,0.3-1.3
		s0.6-0.7,1-0.9l0,0c-0.7,0.4-1.5,0.6-2.3,0.7c-0.9-0.1-1.8-0.5-2.5-1.1c-0.5-0.4-1.3-1.1-1.3-1.1h-3.4c0,0,7.5,9.4,14,9.4
		c1,0,2-0.3,2.9-0.9c0.8-0.6,1.5-1.5,1.8-2.5s0.3-2-0.1-3C241.8,74.1,241.2,73.2,240.3,72.7L240.3,72.7z"/>
	<path class="st1" d="M221,74.6L221,74.6v3.3l0,0c0,0,0.7,0.8,1.1,1.3c0.7,0.7,1.1,1.6,1.2,2.5c-0.1,0.8-0.3,1.6-0.7,2.2l0,0
		c0.2-0.4,0.5-0.7,0.9-1c0.4-0.2,0.8-0.3,1.3-0.3c3.9,0,4,4,3.4,5.1c0,0-0.5-1.9-3.1-1.9c-0.8,0-3.7,0.6-3.4,5.3
		c0.6,0.8,1.4,1.5,2.4,1.8s2,0.4,3,0.1s1.9-0.9,2.5-1.7c0.6-0.8,1-1.8,1-2.9C230.5,82,221,74.6,221,74.6z"/>
	<path class="st1" d="M291.3,72H288c0,0-0.8,0.7-1.3,1.1c-0.7,0.6-1.6,1-2.5,1.1c-0.8-0.1-1.6-0.3-2.3-0.7l0,0
		c0.4,0.2,0.7,0.5,1,0.9c0.2,0.4,0.3,0.8,0.3,1.3c0,3.9-4,3.9-5.1,3.3c0,0,1.9-0.5,1.9-3c0-0.8-0.6-3.6-5.3-3.4
		c-0.9,0.6-1.5,1.4-1.8,2.4s-0.4,2-0.1,3s0.9,1.8,1.8,2.5c0.8,0.6,1.8,0.9,2.9,0.9C283.9,81.4,291.3,72,291.3,72z"/>
	<path class="st1" d="M294,74.6c0,0-9.5,7.4-9.5,13.8c0,1,0.4,2,1,2.9c0.6,0.8,1.5,1.4,2.5,1.7c1,0.3,2,0.3,3-0.1
		c1-0.3,1.8-1,2.4-1.8c0.2-4.7-2.6-5.3-3.4-5.3c-2.6,0-3.1,1.9-3.1,1.9c-0.6-1.1-0.6-5,3.4-5.1c0.5,0,0.9,0.1,1.3,0.3
		c0.4,0.2,0.7,0.6,0.9,1l0,0c-0.4-0.7-0.6-1.5-0.7-2.2c0.1-0.9,0.5-1.8,1.2-2.5c0.4-0.5,1.1-1.3,1.1-1.3l0,0L294,74.6L294,74.6z"/>
	<path class="st1" d="M277.4,135.6c-1,0-2,0.3-2.9,0.9c-0.8,0.6-1.5,1.5-1.8,2.5s-0.3,2,0.1,3c0.3,1,1,1.8,1.8,2.4
		c4.8,0.2,5.3-2.6,5.3-3.4c0-2.6-1.9-3-1.9-3c1.1-0.6,5.1-0.6,5.1,3.3c0,0.5-0.1,0.9-0.3,1.3c-0.2,0.4-0.6,0.7-1,0.9l0,0
		c0.7-0.4,1.5-0.6,2.3-0.7c0.9,0.1,1.8,0.5,2.5,1.1c0.5,0.4,1.3,1.1,1.3,1.1h3.4C291.3,145,283.9,135.6,277.4,135.6z"/>
	<path class="st1" d="M292.9,137.8c-0.7-0.7-1.1-1.6-1.2-2.5c0.1-0.8,0.3-1.6,0.7-2.2l0,0c-0.2,0.4-0.5,0.7-0.9,1
		c-0.4,0.2-0.8,0.3-1.3,0.3c-3.9,0-4-4-3.4-5.1c0,0,0.5,1.9,3.1,1.9c0.8,0,3.7-0.6,3.4-5.3c-0.6-0.8-1.4-1.5-2.4-1.8s-2-0.4-3-0.1
		s-1.9,0.9-2.5,1.7c-0.6,0.8-1,1.8-1,2.9c0,6.5,9.5,13.8,9.5,13.8l0,0V139l0,0C294,139,293.3,138.3,292.9,137.8z"/>
	<path class="st1" d="M230.8,142.8c0.8,0.1,1.6,0.3,2.3,0.7l0,0c-0.4-0.2-0.7-0.5-1-0.9c-0.2-0.4-0.3-0.8-0.3-1.3
		c0-3.9,4-3.9,5.1-3.3c0,0-1.9,0.5-1.9,3c0,0.8,0.6,3.6,5.3,3.4c0.9-0.6,1.5-1.4,1.8-2.4s0.4-2,0.1-3c-0.3-1-0.9-1.8-1.8-2.5
		c-0.8-0.6-1.8-0.9-2.9-0.9c-6.5,0-14,9.4-14,9.4h3.4c0,0,0.8-0.7,1.3-1.1C229,143.3,229.9,142.9,230.8,142.8z"/>
	<path class="st1" d="M230.5,128.5c0-1-0.4-2-1-2.9c-0.6-0.8-1.5-1.4-2.5-1.7c-1-0.3-2-0.3-3,0.1c-1,0.3-1.8,1-2.4,1.8
		c-0.2,4.7,2.6,5.3,3.4,5.3c2.6,0,3.1-1.9,3.1-1.9c0.6,1.1,0.6,5-3.4,5.1c-0.5,0-0.9-0.1-1.3-0.3c-0.4-0.2-0.7-0.6-0.9-1l0,0
		c0.4,0.7,0.6,1.5,0.7,2.2c-0.1,0.9-0.5,1.8-1.2,2.5c-0.4,0.5-1.1,1.3-1.1,1.3l0,0v3.3l0,0C221,142.4,230.5,135,230.5,128.5z"/>
	<path class="st1" d="M269.2,81.8V72H246v9.8l-15.2,15H221v1.7v8.1l0,0v3.4l0,0v8.1v1.7h9.8l15.2,15V145h23.2v-10.2l15.2-15h9.6v-23
		h-9.7L269.2,81.8z M282.6,118h-14.7v0.1v0.1c0,0,0,0.1-0.1,0.1l-0.1,0.1h-0.1c0,0,0,0-0.1,0V133l-9.9,9.8l-9.9-9.8v-14.6h-0.1h-0.1
		c0,0-0.1,0-0.1-0.1l-0.1-0.1v-0.1c0,0,0,0,0-0.1h-14.7l-9.9-9.8l9.9-9.8h14.7v-0.1v-0.1c0,0,0-0.1,0.1-0.1l0.1-0.1h0.1
		c0,0,0,0,0.1,0V83.5l9.9-9.8l9.9,9.8v14.6h0.1c0.1,0,0.1,0,0.1,0s0.1,0,0.1,0.1l0.1,0.1v0.1c0,0,0,0,0,0.1h14.7l9.9,9.8L282.6,118z
		"/>
	<path class="st1" d="M247.7,98.1C247.7,98.1,247.7,98,247.7,98.1c-0.1,0-0.2,0-0.2,0s-0.1,0-0.1,0.1l-0.1,0.1v0.1c0,0,0,0,0,0.1
		h0.4L247.7,98.1L247.7,98.1z"/>
	<path class="st1" d="M267.5,118.5L267.5,118.5c0.1,0,0.2,0,0.2,0s0.1,0,0.1-0.1l0.1-0.1v-0.1c0,0,0,0,0-0.1h-0.4L267.5,118.5
		L267.5,118.5z"/>
	<path class="st1" d="M247.3,118C247.3,118.1,247.3,118.1,247.3,118c0,0.1,0,0.2,0,0.2s0,0.1,0.1,0.1l0.1,0.1h0.1c0,0,0,0,0.1,0V118
		H247.3z"/>
	<path class="st1" d="M267.9,98.5C267.9,98.5,267.9,98.4,267.9,98.5c0-0.1,0-0.2,0-0.2s0-0.1-0.1-0.1l-0.1-0.1c0,0-0.1,0-0.2,0
		c0,0,0,0-0.1,0v0.4C267.4,98.5,267.9,98.5,267.9,98.5z"/>
</g>
</svg>
