<?xml version="1.0" encoding="utf-8"?>
<!-- Generator: Adobe Illustrator 22.1.0, SVG Export Plug-In . SVG Version: 6.00 Build 0)  -->
<svg version="1.1" id="Слой_1" xmlns="http://www.w3.org/2000/svg" xmlns:xlink="http://www.w3.org/1999/xlink" x="0px" y="0px"
	 viewBox="0 0 294 289" style="enable-background:new 0 0 294 289;" xml:space="preserve">
<style type="text/css">
	.st0{fill:#2C3B8C;}
	.st1{fill:#6678D6;}
</style>
<g>
	<path class="st0" d="M1.2,178.5c0.4,0.2,0.8,0.2,1.2,0.1c0.4-0.1,0.8-0.3,1-0.6L35,146.4c0.3-0.3,0.5-0.6,0.6-1s0-0.8-0.1-1.2
		c-0.2-0.4-0.4-0.7-0.7-0.9s-0.7-0.3-1.1-0.3H2c-0.5,0-1.1,0.2-1.4,0.6C0.2,144,0,144.5,0,145v31.6c0,0.4,0.1,0.8,0.3,1.1
		C0.6,178.1,0.9,178.4,1.2,178.5L1.2,178.5z"/>
	<path class="st0" d="M1.1,195.1c0.2,0.2,0.6,0.4,0.9,0.4s0.7-0.1,0.9-0.4L52.1,146c0.1-0.1,0.2-0.3,0.3-0.4
		c0.1-0.2,0.1-0.3,0.1-0.5s0-0.3-0.1-0.5s-0.2-0.3-0.3-0.4c-0.1-0.1-0.3-0.2-0.4-0.3c-0.2-0.1-0.3-0.1-0.5-0.1s-0.3,0-0.5,0.1
		s-0.3,0.2-0.4,0.3L1.1,193.3c-0.2,0.2-0.4,0.6-0.4,0.9C0.7,194.5,0.9,194.9,1.1,195.1L1.1,195.1z"/>
	<path class="st0" d="M144.7,253.5c-0.4-0.2-0.8-0.2-1.2-0.1c-0.4,0.1-0.8,0.3-1,0.6l-31.6,31.6c-0.3,0.3-0.5,0.6-0.6,1
		s0,0.8,0.1,1.2c0.2,0.4,0.4,0.7,0.7,0.9c0.3,0.2,0.7,0.3,1.1,0.3H144c0.5,0,1.1-0.2,1.4-0.6c0.4-0.4,0.6-0.9,0.6-1.4v-31.6
		c0-0.4-0.1-0.8-0.3-1.1C145.4,253.9,145.1,253.6,144.7,253.5z"/>
	<path class="st0" d="M144.9,236.9c-0.1-0.1-0.3-0.2-0.4-0.3c-0.2-0.1-0.3-0.1-0.5-0.1s-0.3,0-0.5,0.1s-0.3,0.2-0.4,0.3l-49.2,49.2
		c-0.2,0.2-0.4,0.6-0.4,0.9s0.1,0.7,0.4,0.9c0.2,0.2,0.6,0.4,0.9,0.4s0.7-0.1,0.9-0.4l49.2-49.2c0.1-0.1,0.2-0.3,0.3-0.4
		s0.1-0.3,0.1-0.5s0-0.3-0.1-0.5S145,237,144.9,236.9L144.9,236.9z"/>
	<path class="st0" d="M3.5,253.9c-0.2-0.2-0.4-0.3-0.7-0.4c-0.2-0.1-0.5-0.2-0.8-0.2s-0.5,0.1-0.8,0.2c-0.4,0.2-0.7,0.4-0.9,0.7
		S0,254.9,0,255.3V287c0,0.3,0.1,0.5,0.2,0.8c0.1,0.2,0.2,0.5,0.4,0.7s0.4,0.3,0.7,0.4c0.2,0.1,0.5,0.2,0.8,0.2h31.6
		c0.4,0,0.8-0.1,1.1-0.3c0.3-0.2,0.6-0.5,0.7-0.9c0.2-0.4,0.2-0.8,0.1-1.2c-0.1-0.4-0.3-0.8-0.6-1L3.5,253.9z"/>
	<path class="st0" d="M3,236.9c-0.2-0.2-0.6-0.4-0.9-0.4s-0.7,0.1-0.9,0.4c-0.2,0.2-0.4,0.6-0.4,0.9c0,0.3,0.1,0.7,0.4,0.9
		l49.2,49.2c0.2,0.2,0.6,0.4,0.9,0.4s0.7-0.1,0.9-0.4c0.1-0.1,0.2-0.3,0.3-0.4c0.1-0.2,0.1-0.3,0.1-0.5s0-0.3-0.1-0.5
		s-0.2-0.3-0.3-0.4L3,236.9z"/>
	<path class="st0" d="M142.5,178.1c0.4,0.4,0.9,0.6,1.4,0.6c0.3,0,0.5-0.1,0.8-0.2c0.4-0.2,0.7-0.4,0.9-0.7s0.3-0.7,0.3-1.1V145
		c0-0.5-0.2-1.1-0.6-1.4c-0.4-0.4-0.9-0.6-1.4-0.6h-31.6c-0.4,0-0.8,0.1-1.1,0.3c-0.3,0.2-0.6,0.5-0.7,0.9c-0.2,0.4-0.2,0.8-0.1,1.2
		s0.3,0.8,0.6,1L142.5,178.1z"/>
	<path class="st0" d="M143,195.1c0.2,0.2,0.6,0.4,0.9,0.4c0.3,0,0.5-0.1,0.7-0.2c0.2-0.1,0.4-0.3,0.5-0.6c0.1-0.2,0.1-0.5,0.1-0.8
		s-0.2-0.5-0.4-0.7L95.6,144c-0.2-0.2-0.6-0.4-0.9-0.4s-0.7,0.1-0.9,0.4c-0.2,0.2-0.4,0.6-0.4,0.9c0,0.3,0.1,0.7,0.4,0.9L143,195.1z
		"/>
	<path class="st0" d="M71.5,201.3c0.2,0.2,0.4,0.4,0.7,0.5c0.3,0.1,0.5,0.2,0.8,0.2s0.6-0.1,0.8-0.2c0.3-0.1,0.5-0.3,0.7-0.5
		c2.3-2.6,4.3-5.4,6-8.4c3.7-6.2,5.8-13.2,6-20.4c-0.2-7.2-2.3-14.2-6-20.4c-1.7-3-3.7-5.8-6-8.4c-0.2-0.2-0.4-0.4-0.7-0.5
		c-0.3-0.1-0.5-0.2-0.8-0.2s-0.6,0.1-0.8,0.2c-0.3,0.1-0.5,0.3-0.7,0.5c-2.3,2.6-4.3,5.4-6,8.4c-3.7,6.2-5.8,13.2-6,20.4
		c0.2,7.2,2.3,14.2,6,20.4C67.2,195.9,69.2,198.7,71.5,201.3L71.5,201.3z"/>
	<path class="st0" d="M74.5,230.7c-0.2-0.2-0.4-0.4-0.7-0.5c-0.3-0.1-0.5-0.2-0.8-0.2s-0.6,0.1-0.8,0.2c-0.3,0.1-0.5,0.3-0.7,0.5
		c-2.3,2.6-4.3,5.4-6,8.4c-3.7,6.2-5.8,13.2-6,20.4c0.2,7.2,2.3,14.2,6,20.4c1.7,3,3.7,5.8,6,8.4c0.2,0.2,0.4,0.4,0.7,0.5
		c0.3,0.1,0.5,0.2,0.8,0.2s0.6-0.1,0.8-0.2c0.3-0.1,0.5-0.3,0.7-0.5c2.3-2.6,4.3-5.4,6-8.4c3.7-6.2,5.8-13.2,6-20.4
		c-0.2-7.2-2.3-14.2-6-20.4C78.8,236.1,76.8,233.3,74.5,230.7L74.5,230.7z"/>
	<path class="st0" d="M9.1,208.5c-3,1.7-5.8,3.7-8.4,6c-0.2,0.2-0.4,0.4-0.5,0.7C0.1,215.4,0,215.7,0,216s0.1,0.6,0.2,0.8
		c0.1,0.3,0.3,0.5,0.5,0.7c2.6,2.3,5.4,4.3,8.4,6c6.2,3.7,13.2,5.8,20.4,6c7.2-0.2,14.2-2.3,20.4-6c3-1.7,5.8-3.7,8.4-6
		c0.2-0.2,0.4-0.4,0.5-0.7s0.2-0.5,0.2-0.8s-0.1-0.6-0.2-0.8c-0.1-0.3-0.3-0.5-0.5-0.7c-2.6-2.3-5.4-4.3-8.4-6
		c-6.2-3.7-13.2-5.8-20.4-6C22.3,202.8,15.2,204.8,9.1,208.5L9.1,208.5z"/>
	<path class="st0" d="M87.7,214.5c-0.2,0.2-0.4,0.4-0.5,0.7S87,215.7,87,216s0.1,0.6,0.2,0.8c0.1,0.3,0.3,0.5,0.5,0.7
		c2.6,2.3,5.4,4.3,8.4,6c6.2,3.7,13.2,5.8,20.4,6c7.2-0.2,14.2-2.3,20.4-6c3-1.7,5.8-3.7,8.4-6c0.2-0.2,0.4-0.4,0.5-0.7
		s0.2-0.5,0.2-0.8s-0.1-0.6-0.2-0.8c-0.1-0.3-0.3-0.5-0.5-0.7c-2.6-2.3-5.4-4.3-8.4-6c-6.2-3.7-13.2-5.8-20.4-6
		c-7.2,0.2-14.2,2.3-20.4,6C93.1,210.2,90.3,212.2,87.7,214.5z"/>
	<path class="st0" d="M77.3,216c0-0.8-0.2-1.7-0.7-2.4s-1.1-1.3-1.9-1.6s-1.6-0.4-2.5-0.2c-0.8,0.2-1.6,0.6-2.2,1.2
		c-0.6,0.6-1,1.4-1.2,2.2s-0.1,1.7,0.2,2.5c0.3,0.8,0.9,1.5,1.6,1.9c0.7,0.5,1.5,0.7,2.4,0.7c0.6,0,1.1-0.1,1.6-0.3s1-0.5,1.4-0.9
		s0.7-0.9,0.9-1.4C77.2,217.1,77.3,216.6,77.3,216L77.3,216z"/>
	<path class="st1" d="M84,228.4c1.6,2.2,15.8,21.9,17.5,23.6c1,1,2.4,1.6,3.8,1.6s2.8-0.6,3.8-1.6s1.6-2.4,1.6-3.8
		c0-1.4-0.6-2.8-1.6-3.8c-1.7-1.7-21.4-15.9-23.6-17.5c-0.2-0.1-0.4-0.2-0.7-0.2c-0.2,0-0.5,0.1-0.6,0.3c-0.2,0.2-0.3,0.4-0.3,0.6
		C83.8,227.9,83.8,228.2,84,228.4L84,228.4z"/>
	<path class="st1" d="M60.6,227c-2.2,1.6-21.9,15.8-23.6,17.5c-1,1-1.6,2.4-1.6,3.8S36,251,37,252s2.4,1.6,3.8,1.6
		c1.4,0,2.8-0.6,3.8-1.6c-0.1,0.1,14.4-19.3,17.5-23.6c0.1-0.2,0.2-0.4,0.2-0.7c0-0.2-0.1-0.5-0.3-0.6c-0.2-0.2-0.4-0.3-0.6-0.3
		C61.1,226.8,60.8,226.8,60.6,227L60.6,227z"/>
	<path class="st1" d="M105.2,178.4c-0.7,0-1.4,0.1-2.1,0.4c-0.7,0.3-1.2,0.7-1.7,1.2c-1.7,1.7-15.9,21.4-17.5,23.6
		c-0.1,0.2-0.2,0.4-0.2,0.7c0,0.2,0.1,0.5,0.3,0.6c0.1,0.1,0.2,0.2,0.3,0.2c0.1,0.1,0.3,0.1,0.4,0.1c0.2,0,0.4-0.1,0.6-0.2
		c2.2-1.6,20.1-13.9,21.8-15.7c2.1-2.1,3.9-7.3,1.8-9.4c-0.5-0.5-1.1-0.9-1.7-1.2C106.6,178.6,105.9,178.4,105.2,178.4L105.2,178.4z
		"/>
	<path class="st1" d="M62,203.6c-2.2-3-14.9-21.1-17.4-23.6c-0.5-0.5-1.1-0.9-1.7-1.2c-0.7-0.3-1.4-0.4-2.1-0.4
		c-0.7,0-1.4,0.1-2.1,0.4c-0.7,0.3-1.2,0.7-1.7,1.2s-0.9,1.1-1.2,1.7c-0.3,0.7-0.4,1.3-0.4,2.1s0.1,1.4,0.4,2.1
		c0.3,0.7,0.7,1.2,1.2,1.7c1.7,1.7,21.4,15.9,23.6,17.5c0.2,0.1,0.4,0.2,0.6,0.2l0,0c0.1,0,0.3,0,0.4-0.1c0.1-0.1,0.2-0.1,0.3-0.2
		c0.1-0.1,0.2-0.2,0.2-0.3c0.1-0.1,0.1-0.3,0.1-0.4C62.2,204,62.2,203.7,62,203.6L62,203.6z"/>
</g>
</svg>
