<?xml version="1.0" encoding="utf-8"?>
<!-- Generator: Adobe Illustrator 22.1.0, SVG Export Plug-In . SVG Version: 6.00 Build 0)  -->
<svg version="1.1" id="Слой_1" xmlns="http://www.w3.org/2000/svg" xmlns:xlink="http://www.w3.org/1999/xlink" x="0px" y="0px"
	 viewBox="0 0 298 581" style="enable-background:new 0 0 298 581;" xml:space="preserve">
<style type="text/css">
	.st0{fill:#2C3B8C;}
	.st1{fill:#6678D6;}
</style>
<g>
	<g>
		<path class="st0" d="M153.2,326.5c0.4,0.1,0.8,0.2,1.2,0.1s0.8-0.3,1-0.6l31.6-31.6c0.3-0.3,0.5-0.7,0.6-1c0.1-0.4,0-0.8-0.1-1.2
			c-0.2-0.4-0.4-0.7-0.7-0.9c-0.3-0.2-0.7-0.3-1.1-0.3H154c-0.5,0-1.1,0.2-1.4,0.6c-0.4,0.4-0.6,0.9-0.6,1.4v31.6
			c0,0.4,0.1,0.8,0.3,1.1C152.6,326.1,152.9,326.4,153.2,326.5z"/>
		<path class="st0" d="M153.1,343.1c0.2,0.3,0.6,0.4,0.9,0.4c0.3,0,0.7-0.1,0.9-0.4l49.2-49.2c0.1-0.1,0.2-0.3,0.3-0.4
			c0.1-0.2,0.1-0.3,0.1-0.5s0-0.3-0.1-0.5s-0.2-0.3-0.3-0.4s-0.3-0.2-0.4-0.3c-0.2-0.1-0.3-0.1-0.5-0.1s-0.3,0-0.5,0.1
			s-0.3,0.2-0.4,0.3l-49.2,49.2c-0.2,0.3-0.4,0.6-0.4,0.9C152.7,342.6,152.9,342.9,153.1,343.1z"/>
		<path class="st0" d="M296.7,401.5c-0.4-0.1-0.8-0.2-1.2-0.1c-0.4,0.1-0.8,0.3-1,0.6l-31.6,31.6c-0.3,0.3-0.5,0.6-0.6,1
			s0,0.8,0.1,1.2c0.2,0.4,0.4,0.7,0.7,0.9c0.3,0.2,0.7,0.3,1.1,0.3H296c0.5,0,1.1-0.2,1.4-0.6c0.4-0.4,0.6-0.9,0.6-1.4v-31.6
			c0-0.4-0.1-0.8-0.3-1.1C297.4,401.9,297.1,401.6,296.7,401.5z"/>
		<path class="st0" d="M296.9,384.9c-0.1-0.1-0.3-0.2-0.4-0.3c-0.2-0.1-0.3-0.1-0.5-0.1s-0.3,0-0.5,0.1s-0.3,0.2-0.4,0.3l-49.2,49.2
			c-0.2,0.3-0.4,0.6-0.4,0.9s0.1,0.7,0.4,0.9c0.2,0.2,0.6,0.4,0.9,0.4c0.3,0,0.7-0.1,0.9-0.4l49.2-49.2c0.1-0.1,0.2-0.3,0.3-0.4
			c0.1-0.2,0.1-0.3,0.1-0.5s0-0.3-0.1-0.5C297.1,385.2,297,385,296.9,384.9z"/>
		<path class="st0" d="M155.5,401.9c-0.2-0.2-0.4-0.3-0.7-0.5c-0.2-0.1-0.5-0.1-0.8-0.1s-0.5,0-0.8,0.1c-0.4,0.2-0.7,0.4-0.9,0.8
			c-0.2,0.3-0.3,0.7-0.3,1.1V435c0,0.3,0.1,0.5,0.2,0.8c0.1,0.3,0.3,0.5,0.4,0.7c0.2,0.2,0.4,0.3,0.7,0.4c0.2,0.1,0.5,0.2,0.8,0.2
			h31.6c0.4,0,0.8-0.1,1.1-0.3c0.3-0.2,0.6-0.5,0.7-0.9c0.2-0.4,0.2-0.8,0.1-1.2c-0.1-0.4-0.3-0.8-0.6-1L155.5,401.9z"/>
		<path class="st0" d="M155,384.9c-0.2-0.2-0.6-0.4-0.9-0.4s-0.7,0.1-0.9,0.4c-0.2,0.2-0.4,0.6-0.4,0.9s0.1,0.7,0.4,0.9l49.2,49.2
			c0.2,0.2,0.6,0.4,0.9,0.4c0.3,0,0.7-0.1,0.9-0.4c0.1-0.1,0.2-0.3,0.3-0.4c0.1-0.2,0.1-0.3,0.1-0.5s0-0.3-0.1-0.5s-0.2-0.3-0.3-0.4
			L155,384.9z"/>
		<path class="st0" d="M294.5,326.1c0.4,0.4,0.9,0.6,1.4,0.6c0.3,0,0.5,0,0.8-0.1c0.4-0.2,0.7-0.4,0.9-0.8c0.2-0.3,0.3-0.7,0.3-1.1
			V293c0-0.5-0.2-1.1-0.6-1.4c-0.4-0.4-0.9-0.6-1.4-0.6h-31.6c-0.4,0-0.8,0.1-1.1,0.3c-0.3,0.2-0.6,0.5-0.7,0.9s-0.2,0.8-0.1,1.2
			c0.1,0.4,0.3,0.8,0.6,1L294.5,326.1z"/>
		<path class="st0" d="M295,343.1c0.2,0.2,0.6,0.4,0.9,0.4s0.5-0.1,0.7-0.2s0.4-0.3,0.5-0.6c0.1-0.2,0.1-0.5,0.1-0.8
			c-0.1-0.3-0.2-0.5-0.4-0.7L247.6,292c-0.2-0.3-0.6-0.4-0.9-0.4c-0.3,0-0.7,0.1-0.9,0.4c-0.2,0.2-0.4,0.6-0.4,0.9s0.1,0.7,0.4,0.9
			L295,343.1z"/>
		<path class="st0" d="M223.5,349.3c0.2,0.2,0.4,0.4,0.7,0.5s0.5,0.2,0.8,0.2s0.6-0.1,0.8-0.2c0.3-0.1,0.5-0.3,0.7-0.5
			c2.3-2.6,4.3-5.4,6-8.4c3.7-6.2,5.8-13.2,6-20.4c-0.2-7.2-2.3-14.2-6-20.4c-1.7-3-3.7-5.8-6-8.4c-0.2-0.2-0.4-0.4-0.7-0.5
			s-0.5-0.2-0.8-0.2s-0.6,0.1-0.8,0.2c-0.3,0.1-0.5,0.3-0.7,0.5c-2.3,2.6-4.3,5.4-6,8.4c-3.7,6.2-5.8,13.2-6,20.4
			c0.2,7.2,2.3,14.2,6,20.4C219.2,343.9,221.2,346.7,223.5,349.3z"/>
		<path class="st0" d="M226.5,378.7c-0.2-0.2-0.4-0.4-0.7-0.5s-0.5-0.2-0.8-0.2s-0.6,0.1-0.8,0.2c-0.3,0.1-0.5,0.3-0.7,0.5
			c-2.3,2.6-4.3,5.4-6,8.4c-3.7,6.2-5.8,13.2-6,20.4c0.2,7.2,2.3,14.2,6,20.4c1.7,3,3.7,5.8,6,8.4c0.2,0.2,0.4,0.4,0.7,0.5
			s0.5,0.2,0.8,0.2s0.6-0.1,0.8-0.2c0.3-0.1,0.5-0.3,0.7-0.5c2.3-2.6,4.3-5.4,6-8.4c3.7-6.2,5.8-13.2,6-20.4
			c-0.2-7.2-2.3-14.2-6-20.4C230.8,384.1,228.8,381.3,226.5,378.7z"/>
		<path class="st0" d="M161.1,356.5c-3,1.7-5.8,3.7-8.4,6c-0.2,0.2-0.4,0.4-0.5,0.7c-0.1,0.3-0.2,0.5-0.2,0.8s0.1,0.6,0.2,0.8
			c0.1,0.3,0.3,0.5,0.5,0.7c2.6,2.3,5.4,4.3,8.4,6c6.2,3.7,13.2,5.8,20.4,6c7.2-0.2,14.2-2.3,20.4-6c3-1.7,5.8-3.7,8.4-6
			c0.2-0.2,0.4-0.4,0.5-0.7c0.1-0.3,0.2-0.5,0.2-0.8s-0.1-0.6-0.2-0.8c-0.1-0.3-0.3-0.5-0.5-0.7c-2.6-2.3-5.4-4.3-8.4-6
			c-6.2-3.7-13.2-5.8-20.4-6C174.3,350.8,167.2,352.8,161.1,356.5z"/>
		<path class="st0" d="M239.7,362.5c-0.2,0.2-0.4,0.4-0.5,0.7c-0.1,0.3-0.2,0.5-0.2,0.8s0.1,0.6,0.2,0.8c0.1,0.3,0.3,0.5,0.5,0.7
			c2.6,2.3,5.4,4.3,8.4,6c6.2,3.7,13.2,5.8,20.4,6c7.2-0.2,14.2-2.3,20.4-6c3-1.7,5.8-3.7,8.4-6c0.2-0.2,0.4-0.4,0.5-0.7
			c0.1-0.3,0.2-0.5,0.2-0.8s-0.1-0.6-0.2-0.8c-0.1-0.3-0.3-0.5-0.5-0.7c-2.6-2.3-5.4-4.3-8.4-6c-6.2-3.7-13.2-5.8-20.4-6
			c-7.2,0.2-14.2,2.3-20.4,6C245.1,358.2,242.3,360.2,239.7,362.5z"/>
		<path class="st0" d="M229.3,364c0-0.8-0.2-1.7-0.7-2.4c-0.5-0.7-1.1-1.3-1.9-1.6c-0.8-0.3-1.6-0.4-2.5-0.2
			c-0.8,0.2-1.6,0.6-2.2,1.2c-0.6,0.6-1,1.4-1.2,2.2c-0.2,0.8-0.1,1.7,0.2,2.5s0.9,1.4,1.6,1.9c0.7,0.5,1.5,0.7,2.4,0.7
			c0.6,0,1.1-0.1,1.6-0.3c0.5-0.2,1-0.5,1.4-0.9s0.7-0.9,0.9-1.4C229.2,365.1,229.3,364.6,229.3,364z"/>
		<path class="st1" d="M236,376.4c1.6,2.2,15.8,21.9,17.5,23.7c1,1,2.4,1.6,3.8,1.5c1.4,0,2.8-0.6,3.8-1.6s1.6-2.4,1.6-3.8
			s-0.6-2.8-1.6-3.8c-1.7-1.7-21.4-15.9-23.6-17.5c-0.2-0.1-0.4-0.2-0.7-0.2c-0.2,0-0.5,0.1-0.6,0.3c-0.2,0.2-0.3,0.4-0.3,0.6
			S235.8,376.2,236,376.4L236,376.4z"/>
		<path class="st1" d="M212.6,375c-2.2,1.6-21.9,15.8-23.6,17.5c-1,1-1.6,2.4-1.6,3.8s0.6,2.8,1.6,3.8s2.4,1.6,3.8,1.6
			c1.4,0,2.8-0.6,3.8-1.6c-0.1,0.1,14.4-19.3,17.5-23.6c0.1-0.2,0.2-0.4,0.2-0.7s-0.1-0.5-0.3-0.6c-0.2-0.2-0.4-0.3-0.6-0.3
			C213.1,374.8,212.8,374.8,212.6,375L212.6,375z"/>
		<path class="st1" d="M257.2,326.4c-0.7,0-1.4,0.1-2.1,0.4c-0.7,0.3-1.2,0.7-1.7,1.2c-1.7,1.7-15.9,21.4-17.5,23.6
			c-0.1,0.2-0.2,0.4-0.2,0.7c0,0.2,0.1,0.5,0.3,0.6c0.1,0.1,0.2,0.2,0.3,0.2s0.3,0.1,0.4,0.1c0.2,0,0.4-0.1,0.6-0.2
			c2.2-1.6,20.1-14,21.8-15.7c2.1-2.1,3.9-7.3,1.8-9.4c-0.5-0.5-1.1-0.9-1.7-1.2C258.6,326.6,257.9,326.4,257.2,326.4z"/>
		<path class="st1" d="M214,351.6c-2.2-3-14.9-21.1-17.4-23.6c-0.5-0.5-1.1-0.9-1.7-1.2c-0.7-0.3-1.4-0.4-2.1-0.4
			c-0.7,0-1.4,0.1-2.1,0.4c-0.7,0.3-1.2,0.7-1.7,1.2s-0.9,1.1-1.2,1.7c-0.3,0.7-0.4,1.3-0.4,2.1c0,0.7,0.1,1.4,0.4,2
			c0.3,0.7,0.7,1.2,1.2,1.7c1.7,1.7,21.4,15.9,23.6,17.5c0.2,0.1,0.4,0.2,0.6,0.2l0,0c0.1,0,0.3,0,0.4-0.1c0.1-0.1,0.2-0.1,0.3-0.2
			s0.2-0.2,0.2-0.3s0.1-0.3,0.1-0.4C214.2,352,214.1,351.7,214,351.6z"/>
	</g>
</g>
</svg>
