<?xml version="1.0" encoding="utf-8"?>
<!-- Generator: Adobe Illustrator 22.1.0, SVG Export Plug-In . SVG Version: 6.00 Build 0)  -->
<svg version="1.1" id="Слой_1" xmlns="http://www.w3.org/2000/svg" xmlns:xlink="http://www.w3.org/1999/xlink" x="0px" y="0px"
	 viewBox="0 0 298 581" style="enable-background:new 0 0 298 581;" xml:space="preserve">
<style type="text/css">
	.st0{fill:#E7533B;}
	.st1{fill:#2C3B8C;}
</style>
<g>
	<g>
		<path class="st0" d="M115.3,545.3c0.4,2.1,1.7,7.5,5.6,11.5c3.9,3.9,9.4,5.2,11.5,5.6c-0.4-2.1-1.7-7.5-5.6-11.5
			C122.8,547,117.4,545.7,115.3,545.3z"/>
		<path class="st0" d="M115.3,543.7c2.1-0.4,7.5-1.7,11.5-5.6c3.9-3.9,5.2-9.4,5.6-11.5c-2.1,0.4-7.5,1.7-11.5,5.6
			C117,536.2,115.7,541.6,115.3,543.7z"/>
		<path class="st0" d="M151,508c-2.1,0.4-7.5,1.7-11.5,5.6s-5.2,9.4-5.6,11.5c2.1-0.4,7.5-1.7,11.5-5.6
			C149.3,515.5,150.6,510.1,151,508z"/>
		<path class="st0" d="M132.4,525.1c-0.4-2.1-1.7-7.5-5.6-11.5s-9.4-5.2-11.5-5.6c0.4,2.1,1.7,7.5,5.6,11.5
			C124.8,523.4,130.3,524.7,132.4,525.1z"/>
		<path class="st0" d="M151,545.3c-2.1,0.4-7.5,1.7-11.5,5.6c-3.9,3.9-5.2,9.4-5.6,11.5c2.1-0.4,7.5-1.7,11.5-5.6
			C149.3,552.8,150.6,547.4,151,545.3z"/>
		<path class="st0" d="M151,543.7c-0.4-2.1-1.7-7.5-5.6-11.5c-3.9-3.9-9.4-5.2-11.5-5.6c0.4,2.1,1.7,7.5,5.6,11.5
			C143.5,542,148.9,543.3,151,543.7z"/>
		<path class="st0" d="M151,581c-0.4-2.1-1.7-7.6-5.6-11.5c-3.9-3.9-9.4-5.2-11.5-5.6c0.4,2.1,1.7,7.5,5.6,11.5
			C143.5,579.3,148.9,580.6,151,581z"/>
		<path class="st0" d="M115.3,581c2.1-0.4,7.5-1.7,11.5-5.6c3.9-3.9,5.2-9.4,5.6-11.5c-2.1,0.4-7.5,1.7-11.5,5.6
			C117,573.4,115.7,578.9,115.3,581z"/>
		<path class="st0" d="M95.1,526.6c-2.1,0.4-7.5,1.7-11.5,5.6c-3.9,3.9-5.2,9.4-5.6,11.5c2.1-0.4,7.5-1.7,11.5-5.6
			C93.4,534.2,94.7,528.7,95.1,526.6z"/>
		<path class="st0" d="M95.1,563.9c-2.1,0.4-7.5,1.7-11.5,5.6c-3.9,3.9-5.2,9.4-5.6,11.5c2.1-0.4,7.5-1.7,11.5-5.6
			C93.4,571.5,94.7,566,95.1,563.9z"/>
		<path class="st0" d="M95.1,562.4c-0.4-2.1-1.7-7.5-5.6-11.5c-3.9-3.9-9.4-5.2-11.5-5.6c0.4,2.1,1.7,7.5,5.6,11.5
			C87.5,560.7,93,562,95.1,562.4z"/>
		<path class="st0" d="M95.1,525.1c-0.4-2.1-1.7-7.5-5.6-11.5c-3.9-3.9-9.4-5.2-11.5-5.6c0.4,2.1,1.7,7.5,5.6,11.5
			C87.5,523.4,93,524.7,95.1,525.1z"/>
		<path class="st0" d="M96.6,562.4c2.1-0.4,7.5-1.7,11.5-5.6c3.9-3.9,5.2-9.4,5.6-11.5c-2.1,0.4-7.5,1.7-11.5,5.6
			C98.3,554.8,97,560.3,96.6,562.4z"/>
		<path class="st0" d="M113.7,581c-0.4-2.1-1.7-7.6-5.6-11.5s-9.4-5.2-11.5-5.6c0.4,2.1,1.7,7.5,5.6,11.5
			C106.2,579.3,111.6,580.6,113.7,581z"/>
		<path class="st0" d="M113.7,543.7c-0.4-2.1-1.7-7.5-5.6-11.5c-3.9-3.9-9.4-5.2-11.5-5.6c0.4,2.1,1.7,7.5,5.6,11.5
			C106.2,542,111.6,543.3,113.7,543.7z"/>
		<path class="st0" d="M113.7,508c-2.1,0.4-7.5,1.7-11.5,5.6c-3.9,3.9-5.2,9.4-5.6,11.5c2.1-0.4,7.5-1.7,11.5-5.6
			C112,515.5,113.3,510.1,113.7,508z"/>
		<path class="st1" d="M41.5,473.8c0.1-0.1,0.3-0.3,0.3-0.5c0.1-0.2,0.1-0.4,0.1-0.6s0-0.4-0.1-0.6s-0.2-0.4-0.3-0.5
			c-0.3-0.3-0.7-0.5-1.1-0.5c-0.4,0-0.8,0.2-1.1,0.5c-0.1,0.1-0.3,0.3-0.3,0.5c-0.1,0.2-0.1,0.4-0.1,0.6s0,0.4,0.1,0.6
			s0.2,0.4,0.3,0.5c0.3,0.3,0.7,0.4,1.1,0.4C40.8,474.3,41.2,474.1,41.5,473.8z"/>
		<path class="st1" d="M42.6,474.5C42.5,474.5,42.5,474.5,42.6,474.5c-0.1,0-0.2,0-0.2,0.1l-0.1,0.1c0,0,0,0.1,0,0.2
			c0.4,2,1.4,3.8,2.8,5.3c1.5,1.4,3.3,2.3,5.2,2.8v-0.4h0.4c-0.5-1.9-1.4-3.7-2.8-5.2C46.4,475.9,44.6,475,42.6,474.5z"/>
		<path class="st1" d="M38.2,470.9C38.3,470.9,38.3,470.9,38.2,470.9c0.1,0,0.2,0,0.2-0.1l0.1-0.1v-0.1c-0.4-2-1.4-3.8-2.8-5.3
			c-1.5-1.4-3.3-2.3-5.2-2.8v0.4h-0.4c0.5,1.9,1.4,3.7,2.8,5.2C34.4,469.5,36.2,470.5,38.2,470.9z"/>
		<path class="st1" d="M42.2,470.6v0.1c0,0.1,0,0.1,0.1,0.1l0.1,0.1h0.1c2-0.4,3.8-1.4,5.3-2.8c1.4-1.4,2.4-3.2,2.8-5.2h-0.4v-0.4
			c-2,0.4-3.8,1.4-5.2,2.8C43.6,466.8,42.7,468.6,42.2,470.6z"/>
		<path class="st1" d="M38.6,474.9c0-0.1,0-0.1,0-0.2s0-0.1-0.1-0.1l-0.1-0.1h-0.1c-2,0.4-3.8,1.4-5.3,2.8c-1.4,1.4-2.4,3.2-2.8,5.2
			h0.4v0.4c2-0.4,3.8-1.4,5.2-2.8C37.2,478.7,38.1,476.9,38.6,474.9z"/>
		<path class="st1" d="M43.3,473c1.7,1.1,3.7,1.7,5.7,1.7s4-0.7,5.7-1.7l0.1-0.1c0-0.1,0-0.1,0-0.2v-0.1l-0.1-0.1
			c-1.7-1.1-3.7-1.7-5.7-1.7c-2,0.1-4,0.7-5.7,1.7l0,0l0,0l-0.1,0.1v0.1v0.1C43.1,472.9,43.2,472.9,43.3,473L43.3,473z"/>
		<path class="st1" d="M26.1,473c1.7,1.1,3.7,1.7,5.7,1.7s4-0.7,5.7-1.7l0.1-0.1v-0.1c0-0.1,0-0.1,0-0.2l-0.1-0.1
			c-1.7-1.1-3.7-1.7-5.7-1.7c-2,0.1-4,0.7-5.7,1.7l0,0l0,0l-0.1,0.1v0.1v0.1C26,472.9,26,472.9,26.1,473L26.1,473z"/>
		<path class="st1" d="M40.4,470L40.4,470l0.2-0.1c1.1-1.7,1.7-3.7,1.8-5.7c-0.1-2-0.7-4-1.8-5.7l-0.1-0.1h-0.1h-0.1
			c0,0-0.1,0-0.1,0.1l0,0c-1.1,1.7-1.7,3.7-1.8,5.7c0.1,2,0.7,4,1.8,5.7L40.4,470C40.3,470,40.4,470,40.4,470z"/>
		<path class="st1" d="M40.4,475.4L40.4,475.4c-0.1,0-0.2,0-0.2,0.1l0,0c-1.1,1.7-1.7,3.7-1.8,5.7c0.1,2,0.7,4,1.8,5.7l0.1,0.1h0.1
			h0.1l0.1-0.1c1.1-1.7,1.7-3.7,1.8-5.7c-0.1-2-0.7-4-1.8-5.7L40.4,475.4C40.5,475.4,40.5,475.4,40.4,475.4z"/>
		<path class="st1" d="M57.7,508.3c4.8,0.2,5.3-2.6,5.3-3.4c0-2.6-1.9-3-1.9-3c1.1-0.6,5.1-0.6,5.1,3.3c0,0.5-0.1,0.9-0.3,1.3
			c-0.2,0.4-0.6,0.7-1,0.9l0,0c0.7-0.4,1.5-0.6,2.3-0.7c0.9,0.1,1.8,0.5,2.5,1.2c0.5,0.3,1.3,1.1,1.3,1.1h3.4c0,0-7.5-9.4-14-9.4
			c-1,0-2,0.3-2.9,0.9c-0.8,0.6-1.5,1.5-1.8,2.4c-0.3,1-0.3,2.1,0.1,3C56.2,506.9,56.8,507.8,57.7,508.3z"/>
		<path class="st1" d="M77,506.4L77,506.4v-3.3l0,0c0,0-0.7-0.8-1.1-1.3c-0.7-0.7-1.1-1.6-1.2-2.5c0.1-0.8,0.3-1.6,0.7-2.3l0,0
			c-0.2,0.4-0.5,0.7-0.9,1c-0.4,0.2-0.8,0.3-1.3,0.3c-3.9,0-4-4-3.4-5.1c0,0,0.5,1.9,3.1,1.9c0.8,0,3.7-0.6,3.4-5.3
			c-0.6-0.8-1.4-1.5-2.4-1.8s-2-0.4-3-0.1s-1.9,0.9-2.5,1.7c-0.6,0.8-1,1.8-1,2.9C67.5,499,77,506.4,77,506.4z"/>
		<path class="st1" d="M6.7,509H10c0,0,0.8-0.7,1.3-1.1c0.7-0.7,1.6-1.1,2.5-1.2c0.8,0.1,1.6,0.3,2.3,0.7l0,0
			c-0.4-0.2-0.7-0.5-1-0.9c-0.2-0.4-0.3-0.8-0.3-1.3c0-3.9,4-3.9,5.1-3.3c0,0-1.9,0.5-1.9,3c0,0.8,0.6,3.6,5.3,3.4
			c0.9-0.6,1.5-1.4,1.9-2.4c0.3-1,0.4-2,0.1-3s-0.9-1.8-1.8-2.4c-0.8-0.6-1.8-0.9-2.9-0.9C14.1,499.6,6.7,509,6.7,509z"/>
		<path class="st1" d="M4,506.4c0,0,9.5-7.4,9.5-13.8c0-1-0.4-2-1-2.9c-0.6-0.8-1.5-1.4-2.5-1.7c-1-0.3-2-0.3-3,0.1s-1.8,1-2.4,1.8
			c-0.2,4.7,2.6,5.3,3.4,5.3c2.6,0,3.1-1.9,3.1-1.9c0.6,1.1,0.6,5-3.4,5.1c-0.5,0-0.9-0.1-1.3-0.3c-0.4-0.2-0.7-0.6-0.9-1l0,0
			c0.4,0.7,0.6,1.5,0.7,2.3c-0.1,0.9-0.5,1.8-1.2,2.5c-0.3,0.4-1,1.1-1,1.1l0,0V506.4L4,506.4z"/>
		<path class="st1" d="M20.6,445.4c1,0,2-0.3,2.9-0.9c0.8-0.6,1.4-1.5,1.8-2.5c0.3-1,0.3-2-0.1-3c-0.3-1-1-1.8-1.9-2.4
			c-4.8-0.2-5.3,2.6-5.3,3.4c0,2.6,1.9,3,1.9,3c-1.1,0.6-5.1,0.6-5.1-3.3c0-0.5,0.1-0.9,0.3-1.3s0.6-0.7,1-0.9l0,0
			c-0.7,0.4-1.5,0.6-2.3,0.6c-0.9-0.1-1.8-0.5-2.5-1.1c-0.5-0.3-1.3-1.1-1.3-1.1H6.7C6.7,436,14.1,445.4,20.6,445.4z"/>
		<path class="st1" d="M5.1,443.2c0.7,0.7,1.1,1.6,1.2,2.5c-0.1,0.8-0.3,1.6-0.7,2.3l0,0c0.2-0.4,0.5-0.7,0.9-1
			c0.4-0.2,0.8-0.3,1.3-0.3c3.9,0,4,4,3.4,5.1c0,0-0.5-1.9-3.1-1.9c-0.8,0-3.7,0.6-3.4,5.3c0.6,0.8,1.4,1.5,2.4,1.8s2,0.4,3,0.1
			s1.9-0.9,2.5-1.7c0.6-0.8,1-1.8,1-2.9c0-6.4-9.5-13.8-9.5-13.8l0,0v3.3l0,0C4,442,4.7,442.8,5.1,443.2z"/>
		<path class="st1" d="M67.2,438.2c-0.8,0-1.6-0.3-2.3-0.6l0,0c0.4,0.2,0.7,0.5,1,0.9c0.2,0.4,0.3,0.8,0.3,1.3c0,3.9-4,3.9-5.1,3.3
			c0,0,1.9-0.5,1.9-3c0-0.8-0.6-3.6-5.3-3.4c-0.9,0.6-1.5,1.4-1.9,2.4c-0.3,1-0.4,2-0.1,3c0.3,1,0.9,1.8,1.8,2.5
			c0.8,0.6,1.8,0.9,2.9,0.9c6.5,0,14-9.4,14-9.4H71c0,0-0.8,0.7-1.3,1.1C69,437.7,68.1,438.1,67.2,438.2z"/>
		<path class="st1" d="M67.5,452.5c0,1,0.4,2,1,2.9c0.6,0.8,1.5,1.4,2.5,1.7c1,0.3,2,0.3,3-0.1c1-0.3,1.8-1,2.4-1.8
			c0.2-4.7-2.6-5.3-3.4-5.3c-2.6,0-3.1,1.9-3.1,1.9c-0.6-1.1-0.6-5,3.4-5.1c0.5,0,0.9,0.1,1.3,0.3c0.4,0.2,0.7,0.6,0.9,1l0,0
			c-0.4-0.7-0.6-1.5-0.7-2.3c0.1-0.9,0.5-1.8,1.2-2.5c0.4-0.5,1.1-1.3,1.1-1.3l0,0v-3.3l0,0C77,438.6,67.5,446,67.5,452.5z"/>
		<path class="st1" d="M28.8,499.2v9.8H52v-9.8l15.2-15H77v-1.7v-8.1l0,0V471l0,0v-8.1v-1.7h-9.8l-15.2-15V436H28.8v10.2l-15.2,15H4
			v22.9h9.7L28.8,499.2z M15.4,462.9h14.7v-0.1c0,0,0-0.1,0-0.2c0,0,0-0.1,0.1-0.1l0.1-0.1h0.1c0,0,0,0,0.1,0v-14.6l9.9-9.8l9.9,9.8
			v14.6h0.1c0.1,0,0.1,0,0.1,0s0.1,0,0.1,0.1l0.1,0.1c0,0.1,0,0.1,0,0.2c0,0,0,0,0,0.1h14.7l9.9,9.8l-9.9,9.8H50.7
			c0,0.1,0,0.1,0,0.1c0,0.1,0,0.1,0,0.2s0,0.1-0.1,0.1l-0.1,0.1c0,0-0.1,0-0.2,0c0,0,0,0-0.1,0v14.6l-9.9,9.8l-9.9-9.8V483h-0.1
			c-0.1,0-0.1,0-0.2,0c0,0-0.1,0-0.1-0.1l-0.1-0.1c0-0.1,0-0.1,0-0.2c0,0,0,0,0-0.1H15.4l-9.9-9.8L15.4,462.9z"/>
		<path class="st1" d="M50.3,482.9L50.3,482.9c0.1,0,0.2,0,0.2,0s0.1,0,0.1-0.1l0.1-0.1c0,0,0-0.1,0-0.2c0,0,0,0,0-0.1h-0.4
			C50.3,482.4,50.3,482.9,50.3,482.9z"/>
		<path class="st1" d="M30.5,462.5L30.5,462.5c-0.1,0-0.2,0-0.2,0s-0.1,0-0.1,0.1l-0.1,0.1c0,0,0,0.1,0,0.2c0,0,0,0,0,0.1h0.4
			C30.5,463,30.5,462.5,30.5,462.5z"/>
		<path class="st1" d="M50.7,462.9L50.7,462.9c0-0.1,0-0.2,0-0.2s0-0.1-0.1-0.1l-0.1-0.1h-0.1c0,0,0,0-0.1,0v0.4L50.7,462.9
			L50.7,462.9z"/>
		<path class="st1" d="M30.1,482.5C30.1,482.6,30.1,482.6,30.1,482.5c0,0.1,0,0.2,0,0.2s0,0.1,0.1,0.1l0.1,0.1h0.1c0,0,0,0,0.1,0
			v-0.4L30.1,482.5L30.1,482.5z"/>
	</g>
</g>
</svg>
