<?xml version="1.0" encoding="utf-8"?>
<!-- Generator: Adobe Illustrator 22.1.0, SVG Export Plug-In . SVG Version: 6.00 Build 0)  -->
<svg version="1.1" id="Слой_1" xmlns="http://www.w3.org/2000/svg" xmlns:xlink="http://www.w3.org/1999/xlink" x="0px" y="0px"
	 viewBox="0 0 298 581" style="enable-background:new 0 0 298 581;" xml:space="preserve">
<style type="text/css">
	.st0{fill:#E7533B;}
	.st1{fill:#2C3B8C;}
</style>
<g>
	<g>
		<path class="st0" d="M111.9,107.1c-1.7,0-3.5-0.1-5.2-0.4c0.7,4.9,0.4,9.8-0.9,14.5c-1.4,4.7-3.7,9.1-6.9,12.8
			c-3.2,3.7-7.2,6.7-11.6,8.8c-4.5,2.1-9.3,3.1-14.2,3.1h31.3c0-1,0.2-2.1,0.6-3s1-1.8,1.7-2.6c0.7-0.7,1.6-1.3,2.6-1.7s2-0.6,3-0.6
			c4.4,0,26.5,3.5,26.5,7.9h7.2V73c0,9-3.6,17.7-10,24.1S120.9,107.1,111.9,107.1z M117.1,120.7c-0.4-0.4-0.6-0.8-0.7-1.3
			s0-1,0.1-1.4c0.2-0.5,0.5-0.8,0.9-1.1c0.4-0.3,0.9-0.4,1.4-0.4s1,0.2,1.4,0.4c0.4,0.3,0.7,0.7,0.9,1.1c0.2,0.5,0.2,1,0.1,1.4
			c-0.1,0.5-0.3,0.9-0.7,1.3c-0.5,0.5-1.1,0.7-1.8,0.7C118.3,121.4,117.6,121.2,117.1,120.7z M146,146h-3.5c0-0.5,0.1-0.9,0.3-1.3
			c0.2-0.4,0.4-0.8,0.8-1.1c0.3-0.3,0.7-0.6,1.1-0.8c0.4-0.2,0.9-0.3,1.3-0.3L146,146L146,146z M146,104.4v34.4
			c-4.4,0-7.9-22.1-7.9-26.5c0-1,0.2-2.1,0.6-3c0.4-1,1-1.8,1.7-2.6c0.7-0.7,1.6-1.3,2.6-1.7C143.9,104.6,145,104.4,146,104.4z
			 M137.5,137.5c-1.6,1.6-13.3-6.3-15.3-8.2c-0.5-0.5-0.8-1-1.1-1.6c-0.3-0.6-0.4-1.3-0.4-1.9c0-0.7,0.1-1.3,0.4-1.9
			s0.6-1.2,1.1-1.6c0.5-0.5,1-0.8,1.6-1.1s1.3-0.4,1.9-0.4c0.7,0,1.3,0.1,1.9,0.4s1.2,0.6,1.6,1.1
			C131.2,124.2,139.1,135.9,137.5,137.5z"/>
		<path class="st0" d="M112,44.9c-2.8,0-5.6,0.4-8.3,1.3l-1.2,0.4c-0.1,0.4-0.3,0.8-0.6,1.1c-0.2,0.2-0.5,0.4-0.8,0.5
			s-0.6,0.2-1,0.2c-0.3,0-0.7-0.1-1-0.2c-0.3-0.1-0.6-0.3-0.8-0.5c-0.2-0.2-0.4-0.5-0.5-0.8s-0.2-0.6-0.2-0.9c0-0.3,0.1-0.7,0.2-1
			s0.3-0.6,0.5-0.8c0.3-0.3,0.7-0.5,1.1-0.6l0.4-1.2c1.3-4.2,1.6-8.7,0.9-13s-2.5-8.4-5.1-12c-2.6-3.5-6-6.4-9.9-8.4S77.4,6,73,6
			c-4.4,0-8.7,1-12.7,3s-7.3,4.9-9.9,8.4s-4.3,7.6-5.1,12c-0.7,4.3-0.4,8.8,0.9,13l0.4,1.2c0.4,0.1,0.8,0.3,1.1,0.6
			c0.2,0.2,0.4,0.5,0.5,0.8s0.2,0.6,0.2,1c0,0.3-0.1,0.7-0.2,1c-0.1,0.3-0.3,0.6-0.5,0.8s-0.5,0.4-0.8,0.5s-0.6,0.2-1,0.2
			c-0.3,0-0.7-0.1-1-0.2c-0.3-0.1-0.6-0.3-0.8-0.5c-0.3-0.3-0.5-0.7-0.6-1.1l-1.2-0.4c-4.2-1.3-8.6-1.6-13-0.9
			c-4.3,0.7-8.4,2.5-12,5.1c-3.5,2.6-6.4,6-8.4,9.9s-3,8.3-3,12.7c0,4.4,1,8.7,3,12.7c2,3.9,4.9,7.3,8.4,9.9s7.6,4.3,12,5.1
			c4.3,0.7,8.8,0.4,13-0.9l1.2-0.4c0.1-0.4,0.3-0.8,0.6-1.1c0.2-0.2,0.5-0.4,0.8-0.5s0.6-0.2,1-0.2s0.7,0.1,1,0.2s0.6,0.3,0.8,0.5
			s0.4,0.5,0.5,0.8s0.2,0.6,0.2,1c0,0.3-0.1,0.7-0.2,1c-0.1,0.3-0.3,0.6-0.5,0.8c-0.3,0.3-0.7,0.5-1.1,0.6l-0.4,1.2
			c-1.3,4.2-1.6,8.6-0.9,13c0.7,4.3,2.5,8.4,5.1,12c2.6,3.5,6,6.4,9.9,8.4s8.3,3,12.7,3c4.4,0,8.7-1,12.7-3c3.9-2,7.3-4.9,9.9-8.4
			s4.3-7.6,5.1-12c0.7-4.3,0.4-8.8-0.9-13l-0.4-1.2c-0.4-0.1-0.8-0.3-1.1-0.6c-0.5-0.5-0.7-1.1-0.7-1.8c0-0.7,0.3-1.3,0.7-1.8
			c0.5-0.5,1.1-0.7,1.8-0.7s1.3,0.3,1.8,0.7c0.3,0.3,0.5,0.7,0.6,1.1l1.2,0.4c3.9,1.2,7.9,1.6,11.9,1c4-0.5,7.9-1.9,11.3-4
			s6.3-5,8.6-8.4c2.2-3.4,3.7-7.2,4.3-11.2s0.3-8.1-0.8-12s-3.1-7.5-5.7-10.6c-2.6-3.1-5.9-5.5-9.6-7.2C120,45.8,116,44.9,112,44.9
			L112,44.9z M89.8,49.2c0.9-0.9,2.2-1.4,3.5-1.4s2.6,0.5,3.5,1.4s1.5,2.2,1.5,3.5s-0.5,2.6-1.4,3.5C95,58.1,83.2,66,81.6,64.5
			C79.9,62.9,87.8,51.2,89.8,49.2z M73,31.4c2.1,0,4.1,0.8,5.6,2.3s2.3,3.5,2.3,5.6c0,4.4-3.5,26.5-7.9,26.5s-7.9-22.1-7.9-26.5
			c0-1,0.2-2.1,0.6-3c0.4-1,1-1.8,1.7-2.6C68.1,33,69,32.4,70,32C70.9,31.6,72,31.4,73,31.4L73,31.4z M76.5,73c0,0.7-0.2,1.4-0.6,2
			s-0.9,1-1.6,1.3c-0.6,0.3-1.3,0.3-2,0.2c-0.7-0.1-1.3-0.5-1.8-1s-0.8-1.1-1-1.8c-0.1-0.7-0.1-1.4,0.2-2c0.3-0.6,0.7-1.2,1.3-1.6
			s1.3-0.6,2-0.6c0.5,0,0.9,0.1,1.3,0.3c0.4,0.2,0.8,0.4,1.1,0.8c0.3,0.3,0.6,0.7,0.8,1.1C76.4,72.1,76.5,72.5,76.5,73z M49.2,49.2
			c0.9-0.9,2.2-1.4,3.5-1.4s2.6,0.5,3.5,1.4c1.9,1.9,9.8,13.7,8.2,15.3s-13.3-6.3-15.3-8.3c-0.5-0.5-0.8-1-1.1-1.6s-0.4-1.3-0.4-1.9
			s0.1-1.3,0.4-1.9C48.4,50.2,48.8,49.7,49.2,49.2z M39.3,80.9c-2.1,0-4.1-0.8-5.6-2.3s-2.3-3.5-2.3-5.6s0.8-4.1,2.3-5.6
			s3.5-2.3,5.6-2.3c4.4,0,26.5,3.6,26.5,7.9C65.8,77.4,43.6,80.9,39.3,80.9L39.3,80.9z M56.2,96.8c-0.9,0.9-2.2,1.4-3.5,1.4
			s-2.6-0.5-3.5-1.4s-1.5-2.2-1.5-3.5s0.5-2.6,1.5-3.5c1.9-1.9,13.7-9.8,15.3-8.2C66.1,83.1,58.2,94.8,56.2,96.8L56.2,96.8z
			 M73,114.6c-2.1,0-4.1-0.8-5.6-2.3s-2.3-3.5-2.3-5.6c0-4.4,3.5-26.5,7.9-26.5s7.9,22.1,7.9,26.5c0,2.1-0.8,4.1-2.3,5.6
			C77.1,113.8,75.1,114.6,73,114.6z M96.8,96.8c-0.9,0.9-2.2,1.4-3.5,1.4s-2.6-0.5-3.5-1.4c-1.9-1.9-9.8-13.7-8.2-15.3
			c1.6-1.6,13.3,6.3,15.3,8.2c0.9,0.9,1.5,2.2,1.5,3.5C98.2,94.6,97.7,95.9,96.8,96.8z M106.7,80.9c-4.4,0-26.5-3.5-26.5-7.9
			s22.1-7.9,26.5-7.9c2.1,0,4.1,0.8,5.6,2.3s2.3,3.5,2.3,5.6s-0.8,4.1-2.3,5.6C110.8,80.1,108.8,80.9,106.7,80.9z"/>
		<path class="st0" d="M0,142.5c0.9,0,1.8,0.4,2.5,1c0.7,0.7,1,1.5,1,2.5h3.7c0-4.4,22.1-7.9,26.5-7.9c1,0,2.1,0.2,3,0.6
			c1,0.4,1.8,1,2.6,1.7s1.3,1.6,1.7,2.6s0.6,2,0.6,3H73c-4.9,0-9.8-1.1-14.2-3.1c-4.5-2.1-8.4-5.1-11.6-8.8
			c-3.2-3.7-5.6-8.1-6.9-12.8c-1.3-4.7-1.7-9.7-0.9-14.6c-1.7,0.3-3.5,0.4-5.2,0.4c-4.7,0-9.3-1-13.6-2.8c-4.3-1.9-8.2-4.6-11.4-8.1
			s-5.6-7.5-7.2-12c-1.5-4.4-2.2-9.1-1.8-13.8C0.5,65.7,1.8,61.2,4,57s5.2-7.8,8.9-10.7s7.9-5.1,12.5-6.3c4.5-1.2,9.3-1.5,13.9-0.8
			c-0.7-4.9-0.4-9.8,0.9-14.5c1.4-4.7,3.7-9.1,6.9-12.8s7.2-6.7,11.6-8.8C63.2,1.1,68.1,0,73,0s9.8,1.1,14.2,3.1
			c4.5,2,8.4,5,11.6,8.8c3.2,3.7,5.6,8.1,6.9,12.8s1.7,9.7,0.9,14.5c4.9-0.8,9.8-0.4,14.6,0.9c4.7,1.4,9.1,3.7,12.8,6.9
			s6.7,7.2,8.8,11.6c2.1,4.5,3.1,9.3,3.1,14.2V0H0v146l0,0V142.5z M120.7,28.8c-0.3,0.3-0.8,0.6-1.3,0.7s-1,0-1.4-0.1
			c-0.5-0.2-0.8-0.5-1.1-0.9c-0.3-0.4-0.4-0.9-0.4-1.4s0.1-1,0.4-1.4s0.7-0.7,1.1-0.9c0.5-0.2,1-0.2,1.4-0.1
			c0.5,0.1,0.9,0.3,1.3,0.7c0.5,0.5,0.7,1.1,0.7,1.8C121.4,27.8,121.1,28.4,120.7,28.8z M129.2,23.8c-0.5,0.5-1,0.8-1.6,1.1
			s-1.2,0.4-1.9,0.4c-0.7,0-1.3-0.1-1.9-0.4s-1.2-0.6-1.6-1.1c-0.5-0.5-0.8-1-1.1-1.6c-0.2-0.6-0.4-1.3-0.4-1.9
			c0-0.7,0.1-1.3,0.4-1.9s0.6-1.2,1.1-1.6c1.9-1.9,13.7-9.8,15.3-8.2C139.1,10.1,131.2,21.8,129.2,23.8z M146,41.6
			c-1,0-2.1-0.2-3-0.6c-1-0.4-1.8-1-2.6-1.7c-0.7-0.7-1.3-1.6-1.7-2.6c-0.4-0.9-0.6-2-0.6-3c0-4.4,3.5-26.5,7.9-26.5L146,41.6
			L146,41.6z M146,0v3.5c-0.5,0-0.9-0.1-1.3-0.3c-0.4-0.2-0.8-0.4-1.1-0.8c-0.3-0.3-0.6-0.7-0.8-1.1s-0.3-0.9-0.3-1.3
			C142.5,0,146,0,146,0z M138.8,0c0,4.4-22.1,7.9-26.5,7.9c-2.1,0-4.1-0.8-5.6-2.3s-2.3-3.5-2.3-5.6C104.4,0,138.8,0,138.8,0z
			 M25.3,117.1c0.3-0.3,0.8-0.6,1.3-0.7s1,0,1.4,0.1c0.5,0.2,0.8,0.5,1.1,0.9s0.4,0.9,0.4,1.4s-0.1,1-0.4,1.4s-0.7,0.7-1.1,0.9
			c-0.5,0.2-1,0.2-1.4,0.2c-0.5-0.1-0.9-0.3-1.3-0.7c-0.5-0.5-0.7-1.1-0.7-1.8C24.6,118.3,24.9,117.6,25.3,117.1z M16.8,122.2
			c0.5-0.5,1-0.8,1.6-1.1c0.6-0.3,1.2-0.4,1.9-0.4c0.7,0,1.3,0.1,1.9,0.4s1.1,0.6,1.6,1.1s0.8,1,1.1,1.6c0.2,0.6,0.4,1.3,0.4,1.9
			s-0.1,1.3-0.4,1.9s-0.6,1.2-1.1,1.6c-1.9,1.9-13.7,9.8-15.3,8.2C6.9,135.9,14.8,124.2,16.8,122.2z M0,41.6V7.2
			c4.4,0,7.9,22.1,7.9,26.5c0,2.1-0.8,4.1-2.3,5.6S2.1,41.6,0,41.6L0,41.6z M16.8,23.8C14.9,21.9,7,10.1,8.6,8.5s13.3,6.3,15.3,8.2
			c0.9,0.9,1.5,2.2,1.5,3.5s-0.5,2.6-1.5,3.5c-0.9,0.9-2.2,1.4-3.5,1.5C19,25.3,17.7,24.7,16.8,23.8z M28.9,28.8
			c-0.3,0.3-0.8,0.6-1.3,0.7s-1,0-1.4-0.1c-0.5-0.2-0.8-0.5-1.1-0.9c-0.3-0.4-0.4-0.9-0.4-1.4s0.1-1,0.4-1.4s0.7-0.7,1.1-0.9
			c0.5-0.2,1-0.2,1.4-0.1c0.5,0.1,0.9,0.3,1.3,0.7c0.5,0.5,0.7,1.1,0.7,1.8C29.6,27.8,29.3,28.4,28.9,28.8L28.9,28.8z M41.6,0
			c0,2.1-0.8,4.1-2.3,5.6s-3.5,2.3-5.6,2.3C29.4,7.9,7.2,4.4,7.2,0H41.6z M0,0h3.5c0,0.9-0.4,1.8-1,2.5c-0.7,0.7-1.6,1-2.5,1V0z
			 M0,104.4c1,0,2.1,0.2,3,0.6c1,0.4,1.8,1,2.6,1.7c0.7,0.7,1.3,1.6,1.7,2.6c0.4,1,0.6,2,0.6,3c0,4.4-3.5,26.5-7.9,26.5V104.4z"/>
		<path class="st1" d="M180.7,183.3c-2.1,0.4-7.5,1.7-11.5,5.6c-3.9,3.9-5.2,9.4-5.6,11.5c2.1-0.4,7.5-1.7,11.5-5.6
			C179,190.8,180.3,185.4,180.7,183.3z"/>
		<path class="st1" d="M182.3,183.3c0.4,2.1,1.7,7.5,5.6,11.5c3.9,3.9,9.4,5.2,11.5,5.6c-0.4-2.1-1.7-7.5-5.6-11.5
			C189.8,185,184.4,183.7,182.3,183.3z"/>
		<path class="st1" d="M218,219c-0.4-2.1-1.7-7.6-5.6-11.5c-3.9-3.9-9.4-5.2-11.5-5.6c0.4,2.1,1.7,7.5,5.6,11.5
			C210.5,217.3,215.9,218.6,218,219z"/>
		<path class="st1" d="M200.9,200.4c2.1-0.4,7.5-1.7,11.5-5.6c3.9-3.9,5.2-9.4,5.6-11.5c-2.1,0.4-7.5,1.7-11.5,5.6
			C202.6,192.8,201.3,198.3,200.9,200.4z"/>
		<path class="st1" d="M180.7,219c-0.4-2.1-1.7-7.6-5.6-11.5c-3.9-3.9-9.4-5.2-11.5-5.6c0.4,2.1,1.7,7.5,5.6,11.5
			C173.2,217.3,178.6,218.6,180.7,219z"/>
		<path class="st1" d="M182.3,219c2.1-0.4,7.5-1.7,11.5-5.6c3.9-3.9,5.2-9.4,5.6-11.5c-2.1,0.4-7.5,1.7-11.5,5.6
			C184,211.4,182.7,216.9,182.3,219z"/>
		<path class="st1" d="M145,219c2.1-0.4,7.5-1.7,11.5-5.6c3.9-3.9,5.2-9.4,5.6-11.5c-2.1,0.4-7.5,1.7-11.5,5.6
			C146.7,211.5,145.4,216.9,145,219z"/>
		<path class="st1" d="M145,183.3c0.4,2.1,1.7,7.5,5.6,11.5c3.9,3.9,9.4,5.2,11.5,5.6c-0.4-2.1-1.7-7.5-5.6-11.5
			C152.5,185,147.1,183.7,145,183.3z"/>
		<path class="st1" d="M199.4,163.1c-0.4-2.1-1.7-7.5-5.6-11.5c-3.9-3.9-9.4-5.2-11.5-5.6c0.4,2.1,1.7,7.5,5.6,11.5
			C191.8,161.4,197.3,162.7,199.4,163.1z"/>
		<path class="st1" d="M162.1,163.1c-0.4-2.1-1.7-7.5-5.6-11.5c-3.9-3.9-9.4-5.2-11.5-5.6c0.4,2.1,1.7,7.5,5.6,11.5
			C154.5,161.4,160,162.7,162.1,163.1z"/>
		<path class="st1" d="M163.6,163.1c2.1-0.4,7.5-1.7,11.5-5.6c3.9-3.9,5.2-9.4,5.6-11.5c-2.1,0.4-7.5,1.7-11.5,5.6
			C165.3,155.5,164,161,163.6,163.1z"/>
		<path class="st1" d="M200.9,163.1c2.1-0.4,7.5-1.7,11.5-5.6c3.9-3.9,5.2-9.4,5.6-11.5c-2.1,0.4-7.5,1.7-11.5,5.6
			C202.6,155.5,201.3,161,200.9,163.1z"/>
		<path class="st1" d="M163.6,164.6c0.4,2.1,1.7,7.5,5.6,11.5c3.9,3.9,9.4,5.2,11.5,5.6c-0.4-2.1-1.7-7.5-5.6-11.5
			C171.2,166.3,165.7,165,163.6,164.6z"/>
		<path class="st1" d="M145,181.7c2.1-0.4,7.5-1.7,11.5-5.6c3.9-3.9,5.2-9.4,5.6-11.5c-2.1,0.4-7.5,1.7-11.5,5.6
			C146.7,174.2,145.4,179.6,145,181.7z"/>
		<path class="st1" d="M182.3,181.7c2.1-0.4,7.5-1.7,11.5-5.6c3.9-3.9,5.2-9.4,5.6-11.5c-2.1,0.4-7.5,1.7-11.5,5.6
			C184,174.2,182.7,179.6,182.3,181.7z"/>
		<path class="st1" d="M218,181.7c-0.4-2.1-1.7-7.5-5.6-11.5c-3.9-3.9-9.4-5.2-11.5-5.6c0.4,2.1,1.7,7.5,5.6,11.5
			C210.5,180,215.9,181.3,218,181.7z"/>
	</g>
</g>
</svg>
