<?xml version="1.0" encoding="utf-8"?>
<!-- Generator: Adobe Illustrator 22.1.0, SVG Export Plug-In . SVG Version: 6.00 Build 0)  -->
<svg version="1.1" id="Слой_1" xmlns="http://www.w3.org/2000/svg" xmlns:xlink="http://www.w3.org/1999/xlink" x="0px" y="0px"
	 viewBox="0 0 1166 512" style="enable-background:new 0 0 1166 512;" xml:space="preserve">
<style type="text/css">
	.st0{fill:#E7533B;}
	.st1{fill:#2C3B8C;}
	.st2{fill:#6678D6;}
	.st3{fill:#FDD84A;}
</style>
<path class="st0" d="M472,262.1l-1-0.2c-3.4-0.6-6.8-0.9-10.2-1c-2.3,0-4.6,0.2-6.8,0.8l0-0.1l-0.1,0c-1.9-3.6-6-7.6-12.2-11.9
	l-0.8-0.6l-0.8,0.6c-6.1,4.4-10.1,8.4-12.1,11.9l-0.1,0l0,0.1c-2.2-0.6-4.5-0.9-6.8-0.9c-3.5,0.1-6.9,0.4-10.3,1l-0.3,0l0,0
	l-0.7,0.1l-0.1,0.7v0l0,0.2c-1.2,7.4-1.2,13.1-0.1,17c-3.6,1.9-7.6,6-12,12.2l-0.6,0.8l0.6,0.8c4.4,6.1,8.4,10.1,11.9,12.1l0,0.1
	l0.1,0c-1.2,3.9-1.1,9.6,0.1,17l0,0.3l0,0l0.1,0.7l0.7,0.1l0,0l0.2,0c3.3,0.6,6.7,0.9,10.1,0.9h0c2.3,0,4.6-0.2,6.9-0.8l0,0.1l0.1,0
	c1.9,3.6,6,7.6,12.1,11.9l0.8,0.6l0.8-0.6c6.1-4.4,10.2-8.4,12.1-11.9l0.1,0l0-0.1c2.2,0.6,4.5,0.9,6.8,0.8c3.4,0,6.8-0.4,10.2-1
	l0.6-0.1l0.3-0.1l0.2-1c1.2-7.4,1.3-13.1,0.2-17l0.1,0l0-0.1c3.5-1.9,7.6-6,11.9-12.1l0.6-0.8l-0.6-0.8c-4.4-6.1-8.4-10.2-11.9-12.1
	l0-0.1l-0.1,0c1.2-3.8,1.1-9.5-0.2-17l-0.1-0.3l0,0L472,262.1z M469.6,264.5c1,6.5,1.1,11.4,0.1,14.6l-0.1,0
	c-0.3-0.1-0.6-0.2-0.9-0.3h0c-0.3-0.1-0.6-0.2-0.9-0.3l-0.1,0c-0.3-0.1-0.6-0.2-0.9-0.2l0,0c-3.8-0.8-7.7-0.7-11.4,0.4l0,0
	c0.1-0.3,0.1-0.5,0.2-0.8l0-0.2c0.1-0.3,0.1-0.5,0.2-0.8l0,0c0.1-0.3,0.1-0.5,0.1-0.8l0-0.2c0-0.3,0.1-0.5,0.1-0.8l0-0.1
	c0-0.2,0.1-0.5,0.1-0.7l0-0.2c0-0.3,0-0.5,0.1-0.8l0-0.1c0-0.2,0-0.5,0-0.7l0-0.2c0-0.3,0-0.5,0-0.8l0-0.2c0-0.2,0-0.5,0-0.7l0-0.1
	c0-0.3,0-0.5-0.1-0.8l0-0.2c0-0.2-0.1-0.5-0.1-0.7l0-0.1c0-0.3-0.1-0.5-0.1-0.8l0-0.2c0-0.3-0.1-0.5-0.2-0.8l0,0
	c-0.1-0.3-0.1-0.5-0.2-0.8l0-0.2c-0.1-0.3-0.1-0.5-0.2-0.8l0-0.1c-0.1-0.2-0.2-0.5-0.2-0.7l0-0.1
	C458.3,263.4,463.3,263.5,469.6,264.5z M441,252.6c5.3,3.8,8.8,7.3,10.4,10.2c-0.3,0.1-0.6,0.3-0.8,0.4l-0.1,0.1
	c-0.3,0.2-0.6,0.3-0.8,0.5l-0.3,0.2c-0.2,0.1-0.4,0.3-0.7,0.4l-0.3,0.2c-0.3,0.2-0.5,0.4-0.8,0.5l-0.1,0.1c-0.3,0.2-0.6,0.4-0.8,0.7
	l-0.2,0.2c-0.2,0.2-0.4,0.3-0.6,0.5l-0.3,0.2c-0.2,0.2-0.4,0.4-0.6,0.6l-0.2,0.2c-0.2,0.3-0.5,0.5-0.7,0.8l-0.1,0.1
	c-0.2,0.2-0.4,0.4-0.6,0.7l-0.2,0.3c-0.2,0.2-0.3,0.4-0.5,0.6l-0.2,0.3c-0.2,0.3-0.4,0.6-0.6,0.8l0,0c-0.2,0.3-0.4,0.6-0.6,0.9
	l-0.2,0.3l-0.2,0.4l-0.2-0.4l-0.2-0.3c-0.2-0.3-0.4-0.6-0.6-0.9l0,0c-0.2-0.3-0.4-0.6-0.6-0.8l-0.2-0.3c-0.2-0.2-0.3-0.4-0.5-0.6
	l-0.2-0.3c-0.2-0.2-0.4-0.4-0.6-0.7l-0.1-0.1c-0.2-0.3-0.5-0.5-0.7-0.8l-0.2-0.2c-0.2-0.2-0.4-0.4-0.6-0.6l-0.3-0.2
	c-0.2-0.2-0.4-0.3-0.6-0.5l-0.2-0.2c-0.3-0.2-0.6-0.4-0.8-0.7l-0.1-0.1c-0.2-0.2-0.5-0.3-0.7-0.5l-0.3-0.2c-0.2-0.1-0.4-0.3-0.6-0.4
	l-0.3-0.2c-0.3-0.2-0.6-0.3-0.9-0.5l-0.1,0c-0.3-0.1-0.5-0.3-0.8-0.4C432.3,259.8,435.8,256.4,441,252.6L441,252.6z M443.2,283.2
	c0,0.6-0.2,1.2-0.7,1.6c-0.4,0.4-1,0.7-1.6,0.7c-0.6,0-1.2-0.2-1.6-0.7c-0.4-0.4-0.7-1-0.7-1.6c0.3-1.5,1.1-2.9,2.2-4l0.1,0.2
	l0.1-0.2C442.2,280.3,442.9,281.7,443.2,283.2L443.2,283.2z M412.4,264.4c6.4-1,11.4-1.1,14.6-0.2l0,0.1c-0.1,0.2-0.2,0.5-0.2,0.7
	l0,0.1c-0.1,0.3-0.2,0.5-0.2,0.8l0,0.2c-0.1,0.2-0.1,0.5-0.2,0.7l0,0.1c-0.1,0.3-0.1,0.5-0.2,0.8l0,0.2c0,0.3-0.1,0.5-0.1,0.8l0,0
	c0,0.3-0.1,0.5-0.1,0.8l0,0.2c0,0.3-0.1,0.5-0.1,0.8l0,0.1c0,0.2,0,0.5,0,0.7l0,0.2c0,0.3,0,0.5,0,0.8l0,0.1c0,0.2,0,0.5,0,0.7
	l0,0.2c0,0.3,0,0.5,0.1,0.8l0,0.2c0,0.2,0,0.5,0.1,0.7l0,0.1c0,0.3,0.1,0.5,0.1,0.8l0,0.2c0,0.3,0.1,0.5,0.1,0.8l0,0
	c0.1,0.3,0.1,0.5,0.2,0.8l0,0.2c0.1,0.3,0.1,0.5,0.2,0.8l0,0c-4.7-1.3-9.7-1.2-14.3,0.4C411.4,275.7,411.5,270.8,412.4,264.4z
	 M411.2,302.5c-0.1,0.3-0.3,0.6-0.4,0.8c-3-1.7-6.4-5.2-10.2-10.4c3.8-5.3,7.3-8.8,10.2-10.4c2.1,4.4,5.6,8,9.8,10.4l-0.4,0.2
	l-0.3,0.2c-0.3,0.2-0.6,0.4-0.9,0.6l0,0c-0.3,0.2-0.6,0.4-0.8,0.6l-0.3,0.2c-0.2,0.2-0.4,0.3-0.6,0.5l-0.3,0.2
	c-0.2,0.2-0.4,0.4-0.7,0.6l-0.2,0.1c-0.3,0.2-0.5,0.5-0.8,0.7l-0.2,0.2c-0.2,0.2-0.4,0.4-0.5,0.6l-0.2,0.3c-0.2,0.2-0.3,0.4-0.5,0.6
	l-0.2,0.2c-0.2,0.3-0.4,0.5-0.7,0.8l-0.1,0.2c-0.2,0.2-0.3,0.5-0.5,0.7l-0.2,0.3c-0.1,0.2-0.3,0.4-0.4,0.6l-0.2,0.3
	C411.6,301.9,411.4,302.1,411.2,302.5L411.2,302.5z M412.4,321.6c-1-6.4-1.1-11.4-0.1-14.6c0.3,0.1,0.6,0.2,1,0.3l0.2,0.1
	c0.3,0.1,0.6,0.2,0.8,0.2l0.5,0.1c0.2,0,0.4,0.1,0.6,0.1c0.2,0,0.4,0.1,0.6,0.1l0.5,0.1c0.2,0,0.4,0.1,0.7,0.1l0.3,0
	c0.3,0,0.5,0.1,0.8,0.1l0.1,0c0.6,0.1,1.3,0.1,1.9,0.1c1.9,0,3.8-0.2,5.7-0.7l0,0c0.3-0.1,0.5-0.1,0.8-0.2l0,0l0,0
	c-0.1,0.3-0.1,0.5-0.2,0.8l0,0.2c-0.1,0.3-0.1,0.5-0.2,0.8l0,0c-0.1,0.3-0.1,0.5-0.1,0.8l0,0.2c0,0.3-0.1,0.5-0.1,0.8l0,0.1
	c0,0.2-0.1,0.5-0.1,0.7l0,0.2c0,0.3,0,0.5-0.1,0.8l0,0.1c0,0.2,0,0.5,0,0.7l0,0.2c0,0.3,0,0.5,0,0.8l0,0.2c0,0.2,0,0.5,0,0.7l0,0.1
	c0,0.3,0,0.5,0.1,0.8l0,0.2c0,0.2,0.1,0.5,0.1,0.7l0,0.1c0,0.3,0.1,0.5,0.1,0.8l0,0.2c0,0.3,0.1,0.5,0.1,0.7l0,0.1
	c0.1,0.3,0.1,0.5,0.2,0.8l0,0.2c0.1,0.3,0.1,0.5,0.2,0.8l0,0c0.1,0.2,0.2,0.5,0.2,0.7l0,0.1C423.7,322.6,418.7,322.5,412.4,321.6
	L412.4,321.6z M440.9,333.4c-5.3-3.8-8.8-7.3-10.4-10.2c0.3-0.1,0.6-0.3,0.9-0.5l0.2-0.1c0.2-0.1,0.5-0.3,0.7-0.4l0.3-0.2
	c0.2-0.1,0.4-0.3,0.6-0.4l0.3-0.2c0.3-0.2,0.6-0.4,0.9-0.6l0,0c0.3-0.2,0.5-0.4,0.8-0.6l0.2-0.2c0.2-0.2,0.4-0.3,0.6-0.5l0.3-0.2
	c0.2-0.2,0.4-0.4,0.6-0.6l0.2-0.2c0.2-0.3,0.5-0.5,0.7-0.8l0.2-0.2c0.2-0.2,0.4-0.4,0.5-0.6l0.2-0.3c0.2-0.2,0.3-0.4,0.5-0.6
	l0.2-0.2c0.2-0.3,0.4-0.6,0.6-0.9l0,0c0.2-0.3,0.4-0.6,0.6-0.9l0.2-0.3l0.2-0.4l0.2,0.4l0.2,0.3c0.2,0.3,0.4,0.6,0.6,0.9l0,0.1
	c0.2,0.3,0.4,0.6,0.6,0.8l0.2,0.3c0.2,0.2,0.3,0.4,0.5,0.6l0.2,0.3c0.2,0.2,0.4,0.4,0.6,0.7l0.1,0.1c0.2,0.3,0.5,0.5,0.7,0.8
	l0.2,0.2c0.2,0.2,0.4,0.4,0.6,0.6l0.3,0.2c0.2,0.2,0.4,0.3,0.6,0.5l0.2,0.2c0.3,0.2,0.6,0.4,0.8,0.7l0.1,0.1
	c0.2,0.2,0.5,0.4,0.7,0.5l0.3,0.2c0.2,0.1,0.4,0.3,0.6,0.4l0.3,0.2c0.3,0.2,0.6,0.3,0.9,0.5l0.1,0c0.3,0.1,0.6,0.3,0.8,0.4
	C449.7,326.2,446.2,329.6,440.9,333.4z M438.8,302.8c0-0.6,0.2-1.2,0.7-1.6c0.4-0.4,1-0.7,1.6-0.7c0.6,0,1.2,0.2,1.6,0.7
	c0.4,0.4,0.7,1,0.7,1.6c-0.3,1.5-1.1,2.9-2.2,4l-0.1-0.2l-0.1,0.2C439.8,305.7,439.1,304.3,438.8,302.8z M454.6,304.3
	c-0.3-0.1-0.6-0.2-1-0.4l-3.1-1.3l1.3,3.1c0.1,0.3,0.3,0.6,0.4,1l0.1,0.3c0.1,0.2,0.1,0.4,0.2,0.6l0.1,0.4c0.1,0.2,0.1,0.4,0.2,0.6
	l0.1,0.4c0,0.2,0.1,0.4,0.1,0.6l0.1,0.4c0,0.2,0.1,0.4,0.1,0.6l0.1,0.4c0,0.2,0,0.4,0.1,0.6l0,0.4c0,0.2,0,0.4,0,0.6l0,0.4
	c0,0.2,0,0.4,0,0.6l0,0.4c0,0.2,0,0.4,0,0.6l0,0.4c0,0.2,0,0.4,0,0.7l0,0.3c0,0.3-0.1,0.6-0.1,1l0,0c0,0.3-0.1,0.7-0.2,1l-0.1,0.3
	c0,0.2-0.1,0.4-0.1,0.7l-0.1,0.4c-0.1,0.2-0.1,0.4-0.2,0.6l-0.1,0.4l-0.1,0.4l-0.4-0.2l-0.4-0.2c-0.2-0.1-0.4-0.2-0.5-0.3l-0.3-0.2
	c-0.2-0.1-0.4-0.2-0.6-0.4l-0.3-0.2c-0.3-0.2-0.5-0.4-0.8-0.6l-0.1,0c-0.3-0.2-0.5-0.4-0.7-0.6l-0.3-0.2c-0.2-0.1-0.3-0.3-0.5-0.4
	l-0.3-0.3l-0.4-0.4l-0.3-0.3l-0.4-0.4l-0.3-0.3l-0.4-0.4l-0.3-0.3l-0.3-0.4l-0.3-0.4l-0.3-0.5l-0.2-0.4c-0.1-0.2-0.2-0.3-0.3-0.5
	l-0.2-0.4c-0.1-0.2-0.2-0.4-0.3-0.5l-0.2-0.4c-0.1-0.2-0.2-0.4-0.3-0.6l-0.1-0.3c-0.1-0.3-0.3-0.6-0.4-0.9l0,0
	c1.8-2,3.7-4.6,3.7-6.9c0-1.3-0.5-2.6-1.5-3.5s-2.2-1.4-3.5-1.4s-2.6,0.5-3.5,1.4c-0.9,0.9-1.5,2.2-1.5,3.5c0,2.3,1.9,4.8,3.7,6.8
	l0,0.1c-0.1,0.3-0.3,0.6-0.4,0.9l-0.1,0.3c-0.1,0.2-0.2,0.4-0.3,0.6l-0.2,0.3c-0.1,0.2-0.2,0.4-0.3,0.5l-0.2,0.4
	c-0.1,0.2-0.2,0.3-0.3,0.5l-0.2,0.4l-0.3,0.5l-0.3,0.4l-0.3,0.4l-0.3,0.3l-0.4,0.4l-0.3,0.3l-0.4,0.4l-0.3,0.3l-0.4,0.4l-0.3,0.3
	l-0.5,0.4l-0.3,0.3c-0.2,0.1-0.4,0.3-0.5,0.4l-0.2,0.2c-0.3,0.2-0.5,0.4-0.8,0.6l-0.1,0.1c-0.2,0.2-0.5,0.3-0.7,0.5l-0.3,0.2
	c-0.2,0.1-0.4,0.2-0.6,0.3l-0.4,0.2l-0.4,0.2l-0.1-0.4l-0.1-0.4c-0.1-0.2-0.1-0.4-0.2-0.6l-0.1-0.4c-0.1-0.2-0.1-0.4-0.1-0.6
	l-0.1-0.3c-0.1-0.3-0.1-0.7-0.2-1l0-0.1c0-0.3-0.1-0.6-0.1-0.9l0-0.4c0-0.2,0-0.4,0-0.6l0-0.4c0-0.2,0-0.4,0-0.6l0-0.4
	c0-0.2,0-0.4,0-0.6l0-0.4c0-0.2,0-0.4,0-0.6l0-0.4c0-0.2,0-0.4,0.1-0.6l0.1-0.4c0-0.2,0.1-0.4,0.1-0.6l0.1-0.4
	c0-0.2,0.1-0.4,0.1-0.6l0.1-0.4c0.1-0.2,0.1-0.4,0.2-0.6l0.1-0.4c0.1-0.2,0.1-0.4,0.2-0.6l0.1-0.3c0.1-0.3,0.2-0.6,0.4-1l1.3-3.1
	l-3.1,1.3c-0.3,0.1-0.6,0.3-0.9,0.4l-0.3,0.1c-0.2,0.1-0.4,0.2-0.7,0.2l-0.3,0.1c-0.2,0.1-0.4,0.1-0.6,0.2l-0.3,0.1
	c-0.2,0.1-0.5,0.1-0.7,0.2l-0.3,0.1c-0.3,0-0.5,0.1-0.8,0.1l-0.2,0c-0.3,0-0.6,0.1-0.9,0.1l-0.1,0c-0.7,0.1-1.4,0.1-2.1,0.1
	c-1.4,0-2.7-0.1-4-0.4l-0.3-0.1c-0.2,0-0.4-0.1-0.7-0.1l-0.4-0.1c-0.2,0-0.4-0.1-0.5-0.1l-0.4-0.1l-0.4-0.1l0.2-0.4l0.2-0.4
	c0.1-0.2,0.2-0.4,0.3-0.5l0.2-0.3c0.1-0.2,0.2-0.4,0.4-0.6l0.2-0.3c0.2-0.3,0.4-0.6,0.6-0.8c0.2-0.3,0.4-0.5,0.6-0.8l0.2-0.2
	c0.1-0.2,0.3-0.3,0.4-0.5l0.3-0.3l0.4-0.4l0.3-0.3l0.4-0.4l0.3-0.3l0.4-0.4l0.3-0.3l0.5-0.4l0.3-0.3c0.2-0.1,0.3-0.2,0.5-0.3
	l0.4-0.2c0.2-0.1,0.3-0.2,0.5-0.3l0.4-0.2c0.2-0.1,0.4-0.2,0.5-0.3l0.3-0.2c0.2-0.1,0.4-0.2,0.6-0.3l0.3-0.1
	c0.3-0.1,0.6-0.3,0.9-0.4l0,0c2,1.8,4.6,3.7,6.9,3.7c1.3,0,2.6-0.5,3.5-1.4c0.9-0.9,1.5-2.2,1.5-3.5s-0.5-2.6-1.5-3.5
	c-0.9-0.9-2.2-1.5-3.5-1.5c-2.3,0-4.8,1.9-6.8,3.7l-0.1,0c-4.8-1.9-8.7-5.6-11-10.2c4.9-1.6,10.2-1.4,15,0.6l3.1,1.3l-1.3-3.1
	c-0.1-0.3-0.3-0.6-0.4-0.9l-0.1-0.3c-0.1-0.2-0.1-0.4-0.2-0.6l-0.1-0.4c-0.1-0.2-0.1-0.4-0.2-0.6L429,277c0-0.2-0.1-0.4-0.1-0.6
	l-0.1-0.4c0-0.2-0.1-0.4-0.1-0.6l-0.1-0.4c0-0.2,0-0.4-0.1-0.6l0-0.4c0-0.2,0-0.4,0-0.6l0-0.4c0-0.2,0-0.4,0-0.6l0-0.4
	c0-0.2,0-0.4,0-0.6l0-0.4c0-0.2,0-0.4,0-0.6l0-0.4c0-0.2,0.1-0.5,0.1-0.7l0-0.3c0-0.3,0.1-0.7,0.2-1l0-0.1c0.1-0.3,0.1-0.6,0.2-0.9
	l0.1-0.3c0.1-0.2,0.1-0.4,0.2-0.6l0.1-0.4l0.1-0.4l0.4,0.2l0.4,0.2c0.2,0.1,0.4,0.2,0.5,0.3l0.3,0.2c0.2,0.1,0.4,0.2,0.6,0.4
	l0.3,0.2c0.3,0.2,0.5,0.4,0.8,0.6l0,0c0.3,0.2,0.5,0.4,0.8,0.6l0.2,0.2c0.2,0.1,0.3,0.3,0.5,0.4l0.3,0.3l0.4,0.4l0.3,0.3l0.4,0.4
	l0.3,0.3l0.4,0.4l0.3,0.3l0.3,0.5l0.3,0.4l0.3,0.5l0.2,0.4c0.1,0.2,0.2,0.3,0.3,0.5l0.2,0.4c0.1,0.2,0.2,0.4,0.3,0.5l0.2,0.4
	c0.1,0.2,0.2,0.4,0.3,0.6l0.1,0.3c0.1,0.3,0.3,0.6,0.4,0.9l0,0c-1.8,2-3.7,4.6-3.7,6.9c0,1.3,0.5,2.6,1.5,3.5
	c0.9,0.9,2.2,1.4,3.5,1.4s2.6-0.5,3.5-1.4s1.5-2.2,1.5-3.5c0-2.3-1.9-4.8-3.7-6.8l0-0.1c0.1-0.3,0.3-0.6,0.4-0.9l0.1-0.3
	c0.1-0.2,0.2-0.4,0.3-0.6l0.2-0.4c0.1-0.2,0.2-0.4,0.3-0.5l0.2-0.4c0.1-0.2,0.2-0.3,0.3-0.5l0.2-0.4l0.3-0.5l0.3-0.4l0.3-0.4
	l0.3-0.3l0.4-0.4l0.3-0.3l0.4-0.4l0.3-0.3l0.4-0.4l0.3-0.3c0.2-0.1,0.3-0.3,0.5-0.4l0.3-0.2c0.2-0.2,0.5-0.4,0.7-0.6l0,0
	c0.3-0.2,0.5-0.4,0.8-0.6l0.3-0.2c0.2-0.1,0.4-0.2,0.6-0.4l0.3-0.2c0.2-0.1,0.4-0.2,0.5-0.3l0.4-0.2l0.4-0.2l0.1,0.4l0.1,0.4
	c0.1,0.2,0.1,0.4,0.2,0.6l0.1,0.4c0.1,0.2,0.1,0.4,0.1,0.7l0.1,0.3c0.1,0.3,0.1,0.7,0.2,1l0,0c0,0.3,0.1,0.6,0.1,1l0,0.3
	c0,0.2,0,0.4,0,0.7l0,0.4c0,0.2,0,0.4,0,0.6l0,0.4c0,0.2,0,0.4,0,0.6l0,0.4c0,0.2,0,0.4,0,0.6l0,0.4c0,0.2,0,0.4-0.1,0.6l-0.1,0.4
	c0,0.2-0.1,0.4-0.1,0.6l-0.1,0.4c0,0.2-0.1,0.4-0.1,0.6l-0.1,0.4c-0.1,0.2-0.1,0.4-0.2,0.6l-0.1,0.4c-0.1,0.2-0.1,0.4-0.2,0.6
	l-0.1,0.3c-0.1,0.3-0.2,0.6-0.4,0.9l-1.3,3.1l3.1-1.3c0.3-0.1,0.6-0.3,1-0.4l0.3-0.1c0.2-0.1,0.4-0.2,0.7-0.2l0.3-0.1
	c0.2-0.1,0.4-0.1,0.7-0.2l0.3-0.1c0.2-0.1,0.5-0.1,0.7-0.2l0.2,0c0.3-0.1,0.5-0.1,0.8-0.1l0.1,0c0.3,0,0.6-0.1,0.9-0.1l0,0
	c0.7-0.1,1.4-0.1,2.1-0.1c1.4,0,2.7,0.1,4.1,0.4l0.2,0c0.2,0.1,0.5,0.1,0.7,0.2l0.4,0.1c0.2,0.1,0.4,0.1,0.6,0.2l0.4,0.1l0.4,0.1
	l-0.2,0.4l-0.2,0.4c-0.1,0.2-0.2,0.4-0.3,0.5l-0.2,0.3c-0.1,0.2-0.2,0.4-0.4,0.6l-0.2,0.3c-0.2,0.3-0.4,0.6-0.6,0.8l0,0
	c-0.2,0.3-0.4,0.5-0.6,0.8l-0.2,0.3c-0.1,0.2-0.3,0.3-0.4,0.5l-0.3,0.3l-0.4,0.4l-0.3,0.3l-0.4,0.4l-0.3,0.3l-0.4,0.4l-0.3,0.3
	l-0.5,0.3l-0.4,0.3c-0.2,0.1-0.3,0.2-0.5,0.3l-0.4,0.2c-0.2,0.1-0.3,0.2-0.5,0.3l-0.4,0.2c-0.2,0.1-0.4,0.2-0.5,0.3l-0.4,0.2
	c-0.2,0.1-0.4,0.2-0.6,0.3l-0.3,0.2c-0.3,0.1-0.6,0.3-0.9,0.4l0,0l0,0c-2-1.8-4.6-3.7-6.9-3.7c-1.3,0-2.6,0.5-3.5,1.5
	c-0.9,0.9-1.5,2.2-1.5,3.5s0.5,2.6,1.5,3.5c0.9,0.9,2.2,1.5,3.5,1.5c2.3,0,4.8-1.9,6.8-3.7l0.1,0c0.3,0.1,0.6,0.3,0.9,0.4l0.3,0.1
	c0.2,0.1,0.4,0.2,0.6,0.3l0.4,0.2c0.2,0.1,0.4,0.2,0.5,0.3l0.4,0.2c0.2,0.1,0.3,0.2,0.5,0.3l0.4,0.2c0.2,0.1,0.3,0.2,0.5,0.3
	l0.3,0.3l0.5,0.4l0.3,0.3l0.4,0.4l0.3,0.3l0.4,0.4l0.3,0.3l0.4,0.4l0.3,0.3c0.2,0.2,0.3,0.3,0.4,0.5l0.2,0.2
	c0.2,0.3,0.4,0.5,0.6,0.8l0,0c0.2,0.3,0.4,0.5,0.6,0.8l0.2,0.3c0.1,0.2,0.2,0.4,0.4,0.6l0.2,0.3c0.1,0.2,0.2,0.4,0.3,0.5l0.2,0.4
	l0.2,0.4l-0.3,0.1l-0.4,0.1c-0.2,0.1-0.4,0.1-0.6,0.2L467,305c-0.2,0.1-0.5,0.1-0.7,0.2l-0.2,0.1c-1.3,0.3-2.7,0.4-4,0.4
	c-0.7,0-1.4,0-2.1-0.1l0,0c-0.3,0-0.6-0.1-1-0.1l-0.2,0c-0.3,0-0.5-0.1-0.8-0.1l-0.3,0c-0.2-0.1-0.5-0.1-0.7-0.2l-0.3-0.1
	c-0.2-0.1-0.4-0.1-0.7-0.2l-0.3-0.1c-0.2-0.1-0.5-0.1-0.7-0.2L454.6,304.3z M427.2,292.9c1.1-1.1,2.5-1.8,4-2.1
	c0.3,0,0.6,0.1,0.9,0.2c0.3,0.1,0.5,0.3,0.7,0.5c0.2,0.2,0.4,0.5,0.5,0.7c0.1,0.3,0.2,0.6,0.2,0.9s-0.1,0.6-0.2,0.9
	c-0.1,0.3-0.3,0.5-0.5,0.7s-0.5,0.4-0.7,0.5c-0.3,0.1-0.6,0.2-0.9,0.2c-1.5-0.3-2.9-1.1-4-2.2l0.2-0.1L427.2,292.9z M454.8,293.1
	c-1.1,1.1-2.5,1.8-4,2.1c-0.6,0-1.2-0.2-1.6-0.7c-0.4-0.4-0.7-1-0.7-1.6c0-0.6,0.2-1.2,0.7-1.6c0.4-0.4,1-0.7,1.6-0.7
	c1.5,0.3,2.9,1.1,4,2.2l-0.2,0.1L454.8,293.1z M469.5,321.6c-2.9,0.5-5.8,0.7-8.8,0.8c-2,0-3.9-0.2-5.8-0.7l0-0.1
	c0.1-0.2,0.2-0.5,0.2-0.7l0-0.1c0.1-0.3,0.2-0.5,0.2-0.8l0-0.2c0.1-0.3,0.1-0.5,0.2-0.8l0,0c0.1-0.3,0.1-0.5,0.2-0.8l0-0.2
	c0-0.3,0.1-0.5,0.1-0.8l0-0.1c0-0.2,0.1-0.5,0.1-0.7l0-0.2c0-0.3,0.1-0.5,0.1-0.8l0-0.1c0-0.2,0-0.5,0-0.7l0-0.1c0-0.3,0-0.5,0-0.8
	l0-0.2c0-0.2,0-0.5,0-0.7l0-0.1c0-0.3,0-0.5-0.1-0.8l0-0.2c0-0.3,0-0.5-0.1-0.8l0-0.1c0-0.3-0.1-0.5-0.1-0.8l0-0.2
	c0-0.3-0.1-0.5-0.1-0.8l0,0c-0.1-0.3-0.1-0.5-0.2-0.8l0-0.2c-0.1-0.3-0.1-0.5-0.2-0.8l0,0l0,0c2.1,0.6,4.3,0.9,6.6,0.9
	c1.6,0,3.3-0.2,4.9-0.5h0c0.3-0.1,0.6-0.1,0.9-0.2l0,0c0.3-0.1,0.6-0.2,0.9-0.2l0,0c0.3-0.1,0.6-0.2,0.8-0.3l0.1,0
	C470.6,310.3,470.5,315.2,469.5,321.6L469.5,321.6z M481.4,293.1c-3.8,5.3-7.3,8.8-10.2,10.4c-0.1-0.3-0.3-0.6-0.4-0.8l-0.1-0.1
	c-0.1-0.3-0.3-0.5-0.5-0.8l-0.2-0.3c-0.1-0.2-0.3-0.4-0.4-0.6l-0.2-0.3c-0.2-0.2-0.3-0.5-0.5-0.7l-0.1-0.1c-0.2-0.3-0.4-0.6-0.7-0.8
	l-0.2-0.2c-0.2-0.2-0.3-0.4-0.5-0.6l-0.2-0.3c-0.2-0.2-0.4-0.4-0.5-0.6l-0.2-0.2c-0.3-0.2-0.5-0.5-0.8-0.7l-0.1-0.1
	c-0.2-0.2-0.4-0.4-0.7-0.6l-0.3-0.2c-0.2-0.2-0.4-0.3-0.6-0.5l-0.3-0.2c-0.3-0.2-0.6-0.4-0.8-0.6l0,0c-0.3-0.2-0.6-0.4-0.9-0.6
	l-0.3-0.2l-0.4-0.2l0.4-0.2l0.3-0.2c0.3-0.2,0.6-0.4,0.9-0.6l0,0c0.3-0.2,0.6-0.4,0.8-0.6l0.3-0.2c0.2-0.2,0.4-0.3,0.6-0.5l0.3-0.2
	c0.2-0.2,0.4-0.4,0.7-0.6l0.2-0.1c0.3-0.2,0.5-0.5,0.8-0.7l0.2-0.2c0.2-0.2,0.4-0.4,0.5-0.6l0.2-0.3c0.2-0.2,0.3-0.4,0.5-0.6
	l0.2-0.2c0.2-0.3,0.4-0.6,0.7-0.8l0.1-0.1c0.2-0.2,0.4-0.5,0.5-0.7l0.2-0.3c0.1-0.2,0.3-0.4,0.4-0.6l0.2-0.3
	c0.2-0.3,0.3-0.6,0.5-0.8l0.1-0.1c0.1-0.3,0.3-0.6,0.4-0.8C474.2,284.3,477.6,287.8,481.4,293.1L481.4,293.1z"/>
<path class="st0" d="M410.1,262l0.7-0.1l-10.3-10.3h-0.8v0.8l10.3,10.4L410.1,262z"/>
<path class="st0" d="M410.1,262.1l0.7-0.1l0,0L410.1,262.1l-0.1,0.7L410.1,262.1z"/>
<path class="st0" d="M471.9,262L471.9,262L471.9,262l0.1,0.7l10.3-10.3v-0.8h-0.8l-10.3,10.3L471.9,262z"/>
<path class="st0" d="M472,262.1l0.1,0.6l0,0L472,262.1L472,262.1z"/>
<path class="st0" d="M471.9,324L471.9,324l-0.3,0.1l-0.4,0.1l10.3,10.3h0.9v-0.8L472,323.3L471.9,324z"/>
<path class="st0" d="M471.9,324L471.9,324l-0.3,0L471.9,324z"/>
<path class="st0" d="M410,323.9l-0.1-0.7l-10.3,10.3v0.8h0.8l10.3-10.3L410,323.9z"/>
<path class="st0" d="M410,323.9l-0.1-0.7l0,0L410,323.9l0.7,0.1l0,0L410,323.9z"/>
<path class="st0" d="M507.2,277c-2.9-3.8-6.7-6.8-11.1-8.6v-30.5h-30.5c-1.9-4.4-4.8-8.2-8.6-11.1c-4.6-3.5-10.3-5.3-16-5.3
	c-5.8,0-11.4,1.9-16,5.3c-3.8,2.9-6.8,6.7-8.6,11.1h-30.5v30.5c-4.4,1.9-8.2,4.8-11.1,8.6c-3.5,4.6-5.3,10.3-5.3,16
	c0,5.8,1.9,11.4,5.3,16c2.9,3.8,6.7,6.8,11.1,8.6v30.5h30.5c1.8,4.4,4.8,8.2,8.6,11.1c4.6,3.5,10.3,5.3,16,5.3
	c5.8,0,11.4-1.9,16-5.3c3.8-2.9,6.8-6.7,8.6-11.1h30.5v-30.5c4.4-1.8,8.2-4.8,11.1-8.6c3.5-4.6,5.3-10.3,5.3-16
	C512.6,287.2,510.7,281.6,507.2,277L507.2,277z M491.4,311.2l-3,0.9v28.4h-28.4l-0.9,3c-1.2,3.9-3.6,7.3-6.9,9.7
	c-3.3,2.4-7.2,3.7-11.3,3.7c-4.1,0-8-1.3-11.3-3.7c-3.3-2.4-5.7-5.8-6.9-9.7l-0.9-3h-28.4v-28.4l-3-0.9c-3.9-1.2-7.3-3.6-9.7-6.9
	s-3.7-7.2-3.7-11.3c0-4.1,1.3-8,3.7-11.3c2.4-3.3,5.8-5.7,9.7-6.9l3-0.9v-28.4h28.4l0.9-3c1.2-3.9,3.6-7.3,6.9-9.7
	c3.3-2.4,7.2-3.7,11.3-3.7c4.1,0,8,1.3,11.3,3.7s5.7,5.8,6.9,9.7l0.9,3h28.4v28.4l3,0.9c3.9,1.2,7.3,3.6,9.7,6.9
	c2.4,3.3,3.7,7.2,3.7,11.3c0,4.1-1.3,8-3.7,11.3C498.7,307.6,495.3,310,491.4,311.2L491.4,311.2z"/>
<path class="st0" d="M508.4,276.1c-2.8-3.8-6.5-6.7-10.8-8.7v-31h-31c-2-4.3-4.9-8-8.7-10.8C453,222,447.1,220,441,220h0
	c-6.1,0-12,2-16.9,5.6c-3.7,2.8-6.7,6.5-8.7,10.8h-31v31c-4.3,2-8,4.9-10.8,8.7C370,281,368,286.9,368,293c0,6.1,2,12,5.6,16.9
	c2.8,3.7,6.5,6.7,10.8,8.7v31h31c2,4.3,4.9,8,8.7,10.8c4.9,3.7,10.8,5.6,16.9,5.6c6.1,0,12-2,16.9-5.6c3.7-2.8,6.7-6.5,8.7-10.8h31
	v-31c4.3-2,8-4.9,10.8-8.7c3.7-4.9,5.6-10.8,5.6-16.9v0C514,286.9,512,281,508.4,276.1z M507.8,309.5c-2.8,3.8-6.6,6.8-10.9,8.7
	v30.7h-30.7c-1.9,4.3-4.9,8.1-8.7,10.9c-4.7,3.6-10.5,5.5-16.5,5.5c-5.9,0-11.7-1.9-16.5-5.5c-3.8-2.8-6.8-6.6-8.7-10.9h-30.7v-30.7
	c-4.3-1.9-8.1-4.9-10.9-8.7c-3.6-4.8-5.5-10.5-5.5-16.5c0-5.9,1.9-11.7,5.5-16.5c2.8-3.8,6.6-6.8,10.9-8.7v-30.7h30.7
	c1.9-4.3,4.9-8.1,8.7-10.9c4.7-3.6,10.5-5.5,16.5-5.5c5.9,0,11.7,1.9,16.5,5.5c3.8,2.8,6.8,6.6,8.7,10.9h30.7v30.7
	c4.3,1.9,8.1,4.9,10.9,8.7c3.6,4.8,5.5,10.5,5.5,16.5C513.3,298.9,511.4,304.7,507.8,309.5L507.8,309.5z"/>
<path class="st0" d="M507.8,276.5c-2.8-3.8-6.6-6.8-10.9-8.7v-30.7h-30.7c-1.9-4.3-4.9-8.1-8.7-10.9c-4.8-3.6-10.5-5.5-16.5-5.5
	c-5.9,0-11.7,1.9-16.5,5.5c-3.8,2.8-6.8,6.6-8.7,10.9h-30.7v30.7c-4.3,1.9-8.1,4.9-10.9,8.7c-3.6,4.8-5.5,10.5-5.5,16.5
	c0,5.9,1.9,11.7,5.5,16.5c2.8,3.8,6.6,6.8,10.9,8.7v30.7h30.7c1.9,4.3,4.9,8.1,8.7,10.9c4.7,3.6,10.5,5.5,16.5,5.5
	c5.9,0,11.7-1.9,16.5-5.5c3.8-2.8,6.8-6.6,8.7-10.9h30.7v-30.7c4.3-1.9,8.1-4.9,10.9-8.7c3.6-4.8,5.5-10.5,5.5-16.5
	C513.3,287.1,511.4,281.3,507.8,276.5L507.8,276.5z M507.2,309c-2.9,3.8-6.7,6.8-11.1,8.6v30.5h-30.5c-1.8,4.4-4.8,8.2-8.6,11.1
	c-4.6,3.5-10.3,5.3-16,5.3c-5.8,0-11.4-1.9-16-5.3c-3.8-2.9-6.8-6.7-8.6-11.1h-30.5v-30.5c-4.4-1.8-8.2-4.8-11.1-8.6
	c-3.5-4.6-5.3-10.3-5.3-16c0-5.8,1.9-11.4,5.3-16c2.9-3.8,6.7-6.8,11.1-8.6v-30.5h30.5c1.8-4.4,4.8-8.2,8.6-11.1
	c4.6-3.5,10.3-5.3,16-5.3c5.8,0,11.4,1.9,16,5.3c3.8,2.9,6.8,6.7,8.6,11.1h30.5v30.5c4.4,1.9,8.2,4.8,11.1,8.6
	c3.5,4.6,5.3,10.3,5.3,16C512.6,298.8,510.7,304.4,507.2,309L507.2,309z"/>
<path class="st0" d="M490.5,277.9l-5.3-1.6v-27.5h-27.5l-1.6-5.3c-1-3.2-3-6-5.7-8c-2.7-2-6-3.1-9.4-3.1c-3.4,0-6.7,1.1-9.4,3.1
	c-2.7,2-4.7,4.8-5.7,8l-1.6,5.3h-27.5v27.5l-5.3,1.6c-3.2,1-6,3-8,5.7c-2,2.7-3.1,6-3.1,9.4c0,3.4,1.1,6.7,3.1,9.4
	c2,2.7,4.8,4.7,8,5.7l5.3,1.6v27.5h27.5l1.6,5.3c1,3.2,3,6,5.7,8c2.7,2,6,3.1,9.4,3.1c3.4,0,6.7-1.1,9.4-3.1c2.7-2,4.7-4.8,5.7-8
	l1.6-5.3h27.5v-27.5l5.3-1.6c3.2-1,6-3,8-5.7c2-2.7,3.1-6,3.1-9.4c0-3.4-1.1-6.7-3.1-9.4C496.5,280.9,493.7,278.9,490.5,277.9z
	 M489.7,305.4l-7.3,2.2v26l2.4,2.4l0,0v0.8h-0.9l-2.4-2.4h-25.9l-2.2,7.3c-0.8,2.6-2.5,5-4.7,6.6c-2.2,1.6-4.9,2.5-7.7,2.5
	s-5.5-0.9-7.7-2.5s-3.9-4-4.7-6.6l-2.2-7.3h-26l-2.4,2.4h-0.8V336l2.4-2.4v-26l-7.3-2.2c-2.6-0.8-5-2.5-6.6-4.7s-2.5-4.9-2.5-7.7
	c0-2.8,0.9-5.5,2.5-7.7s4-3.9,6.6-4.7l7.3-2.2v-26l-2.4-2.4l0,0v-0.8h0.8l2.4,2.4h25.9l2.2-7.3c0.8-2.6,2.5-5,4.7-6.6
	c2.2-1.6,4.9-2.5,7.7-2.5c2.8,0,5.5,0.9,7.7,2.5c2.2,1.6,3.9,4,4.7,6.6l2.2,7.3h26l2.4-2.4h0.8v0.8l-2.4,2.4v26l7.3,2.2
	c2.6,0.8,5,2.5,6.6,4.7c1.6,2.2,2.5,4.9,2.5,7.7c0,2.8-0.9,5.5-2.5,7.7C494.6,302.9,492.3,304.6,489.7,305.4L489.7,305.4z"/>
<path class="st0" d="M400.4,251.6l-2.4-2.4h-0.8v0.8l0,0l2.4,2.4v-0.8H400.4z"/>
<path class="st0" d="M482.4,252.4l2.4-2.4v-0.8H484l-2.4,2.4h0.8V252.4z"/>
<path class="st0" d="M481.5,334.4l2.4,2.4h0.9v-0.8l0,0l-2.4-2.4v0.8H481.5z"/>
<path class="st0" d="M399.6,333.6l-2.4,2.4v0.8h0.8l2.4-2.4h-0.8V333.6z"/>
<path class="st1" d="M769.5,258.2c-0.1,0.1-0.3,0.3-0.3,0.5c-0.1,0.2-0.1,0.4-0.1,0.6c0,0.2,0,0.4,0.1,0.6c0.1,0.2,0.2,0.4,0.3,0.5
	c0.3,0.3,0.7,0.5,1.1,0.5c0.4,0,0.8-0.2,1.1-0.5c0.1-0.1,0.3-0.3,0.3-0.5c0.1-0.2,0.1-0.4,0.1-0.6c0-0.2,0-0.4-0.1-0.6
	c-0.1-0.2-0.2-0.4-0.3-0.5c-0.3-0.3-0.7-0.5-1.1-0.5C770.2,257.7,769.8,257.9,769.5,258.2z"/>
<path class="st1" d="M768.4,257.5c0,0,0.1,0,0.1,0c0,0,0.1,0,0.1-0.1c0,0,0.1-0.1,0.1-0.1s0-0.1,0-0.1c-0.4-2-1.4-3.8-2.8-5.3
	c-1.5-1.4-3.3-2.3-5.2-2.8v0.4h-0.4c0.5,1.9,1.4,3.7,2.8,5.2C764.6,256.1,766.4,257,768.4,257.5z"/>
<path class="st1" d="M772.8,261.1c0,0-0.1,0-0.1,0c0,0-0.1,0-0.1,0.1c0,0-0.1,0.1-0.1,0.1c0,0,0,0.1,0,0.1c0.4,2,1.4,3.8,2.8,5.3
	c1.5,1.4,3.3,2.3,5.2,2.8V269h0.4c-0.5-1.9-1.4-3.7-2.8-5.2C776.6,262.5,774.8,261.5,772.8,261.1z"/>
<path class="st1" d="M768.8,261.4c0,0,0-0.1,0-0.1s0-0.1-0.1-0.1c0,0-0.1-0.1-0.1-0.1c0,0-0.1,0-0.2,0c-2,0.4-3.8,1.4-5.3,2.8
	c-1.4,1.4-2.4,3.2-2.8,5.2h0.4v0.4c2-0.4,3.8-1.4,5.2-2.8C767.4,265.2,768.3,263.4,768.8,261.4z"/>
<path class="st1" d="M772.4,257.1c0,0,0,0.1,0,0.1s0,0.1,0.1,0.1c0,0,0.1,0.1,0.1,0.1c0,0,0.1,0,0.1,0c2-0.4,3.8-1.4,5.3-2.8
	c1.4-1.4,2.4-3.2,2.8-5.2h-0.4v-0.4c-2,0.4-3.8,1.4-5.2,2.8C773.8,253.3,772.9,255.1,772.4,257.1z"/>
<path class="st1" d="M767.7,259c-1.7-1.1-3.7-1.7-5.7-1.7c-2,0.1-4,0.7-5.7,1.7c0,0-0.1,0.1-0.1,0.1c0,0,0,0.1,0,0.1
	c0,0.1,0,0.1,0,0.1c0,0,0.1,0.1,0.1,0.1c1.7,1.1,3.7,1.7,5.7,1.7c2-0.1,4-0.7,5.7-1.7l0,0l0,0c0,0,0.1-0.1,0.1-0.1c0,0,0-0.1,0-0.1
	c0,0,0-0.1,0-0.1C767.9,259.1,767.8,259.1,767.7,259L767.7,259z"/>
<path class="st1" d="M784.9,259c-1.7-1.1-3.7-1.7-5.7-1.7c-2,0.1-4,0.7-5.7,1.7c0,0-0.1,0.1-0.1,0.1c0,0,0,0.1,0,0.1
	c0,0.1,0,0.1,0,0.1c0,0,0.1,0.1,0.1,0.1c1.7,1.1,3.7,1.7,5.7,1.7c2-0.1,4-0.7,5.7-1.7l0,0l0,0c0,0,0.1-0.1,0.1-0.1c0,0,0-0.1,0-0.1
	c0,0,0-0.1,0-0.1C785,259.1,785,259.1,784.9,259L784.9,259z"/>
<path class="st1" d="M770.6,262c0,0-0.1,0-0.1,0c0,0-0.1,0.1-0.1,0.1c-1.1,1.7-1.7,3.7-1.8,5.7c0.1,2,0.7,4,1.8,5.7
	c0,0,0.1,0.1,0.1,0.1c0,0,0.1,0,0.1,0c0,0,0.1,0,0.1,0c0,0,0.1,0,0.1-0.1l0,0c1.1-1.7,1.7-3.7,1.8-5.7c-0.1-2-0.7-4-1.8-5.7
	c0,0-0.1-0.1-0.1-0.1C770.7,262,770.6,262,770.6,262z"/>
<path class="st1" d="M770.6,256.6c0,0,0.1,0,0.1,0c0,0,0.1,0,0.1-0.1l0,0c1.1-1.7,1.7-3.7,1.8-5.7c-0.1-2-0.7-4-1.8-5.7
	c0,0-0.1-0.1-0.1-0.1c0,0-0.1,0-0.1,0c0,0-0.1,0-0.1,0c0,0-0.1,0.1-0.1,0.1c-1.1,1.7-1.7,3.7-1.8,5.7c0.1,2,0.7,4,1.8,5.7
	c0,0,0.1,0.1,0.1,0.1C770.5,256.6,770.5,256.6,770.6,256.6z"/>
<path class="st1" d="M753.3,223.7c-4.8-0.2-5.3,2.6-5.3,3.4c0,2.6,1.9,3,1.9,3c-1.1,0.6-5.1,0.6-5.1-3.3c0-0.5,0.1-0.9,0.3-1.3
	c0.2-0.4,0.6-0.7,1-0.9l0,0c-0.7,0.4-1.5,0.6-2.3,0.7c-0.9-0.1-1.8-0.5-2.5-1.1c-0.5-0.4-1.3-1.1-1.3-1.1h-3.4c0,0,7.5,9.4,14,9.4
	c1,0,2-0.3,2.9-0.9c0.8-0.6,1.4-1.5,1.8-2.5c0.3-1,0.3-2-0.1-3C754.8,225.1,754.2,224.2,753.3,223.7z"/>
<path class="st1" d="M734,225.6L734,225.6l0,3.3l0,0c0,0,0.7,0.8,1.1,1.3c0.7,0.7,1.1,1.6,1.2,2.5c-0.1,0.8-0.3,1.6-0.7,2.2l0,0
	c0.2-0.4,0.5-0.7,0.9-1s0.8-0.3,1.3-0.3c3.9,0,4,4,3.4,5.1c0,0-0.5-1.9-3.1-1.9c-0.8,0-3.7,0.6-3.4,5.3c0.6,0.9,1.4,1.5,2.4,1.8
	c1,0.3,2,0.4,3,0.1c1-0.3,1.9-0.9,2.5-1.7c0.6-0.8,1-1.8,1-2.9C743.5,233,734,225.6,734,225.6z"/>
<path class="st1" d="M804.3,223H801c0,0-0.8,0.7-1.3,1.1c-0.7,0.6-1.6,1.1-2.5,1.1c-0.8-0.1-1.6-0.3-2.3-0.7l0,0
	c0.4,0.2,0.7,0.5,1,0.9c0.2,0.4,0.3,0.8,0.3,1.3c0,3.9-4,3.9-5.1,3.3c0,0,1.9-0.5,1.9-3c0-0.8-0.6-3.6-5.3-3.4
	c-0.9,0.6-1.5,1.4-1.8,2.4c-0.3,1-0.4,2-0.1,3c0.3,1,0.9,1.8,1.8,2.5c0.8,0.6,1.8,0.9,2.9,0.9C796.9,232.4,804.3,223,804.3,223z"/>
<path class="st1" d="M807,225.6c0,0-9.5,7.4-9.5,13.8c0,1,0.3,2,1,2.9c0.6,0.8,1.5,1.4,2.5,1.7c1,0.3,2,0.3,3-0.1
	c1-0.3,1.8-1,2.4-1.8c0.2-4.7-2.6-5.3-3.4-5.3c-2.6,0-3.1,1.9-3.1,1.9c-0.6-1.1-0.6-5,3.4-5.1c0.5,0,0.9,0.1,1.3,0.3
	c0.4,0.2,0.7,0.6,0.9,1l0,0c-0.4-0.7-0.6-1.5-0.7-2.2c0.1-0.9,0.5-1.8,1.2-2.5c0.4-0.5,1.1-1.3,1.1-1.3l0,0L807,225.6L807,225.6z"/>
<path class="st1" d="M790.4,286.6c-1,0-2,0.3-2.9,0.9c-0.8,0.6-1.5,1.5-1.8,2.5c-0.3,1-0.3,2,0.1,3c0.3,1,1,1.8,1.8,2.4
	c4.8,0.2,5.3-2.6,5.3-3.4c0-2.6-1.9-3-1.9-3c1.1-0.6,5.1-0.6,5.1,3.3c0,0.5-0.1,0.9-0.3,1.3c-0.2,0.4-0.6,0.7-1,0.9l0,0
	c0.7-0.4,1.5-0.6,2.3-0.7c0.9,0.1,1.8,0.5,2.5,1.1c0.5,0.4,1.3,1.1,1.3,1.1h3.4C804.3,296,796.9,286.6,790.4,286.6z"/>
<path class="st1" d="M805.9,288.8c-0.7-0.7-1.1-1.6-1.2-2.5c0.1-0.8,0.3-1.6,0.7-2.2l0,0c-0.2,0.4-0.5,0.7-0.9,1
	c-0.4,0.2-0.8,0.3-1.3,0.3c-3.9,0-4-4-3.4-5.1c0,0,0.5,1.9,3.1,1.9c0.8,0,3.7-0.6,3.4-5.3c-0.6-0.9-1.4-1.5-2.4-1.8
	c-1-0.3-2-0.4-3-0.1c-1,0.3-1.9,0.9-2.5,1.7c-0.6,0.8-1,1.8-1,2.9c0,6.5,9.5,13.8,9.5,13.8h0V290h0C807,290,806.3,289.3,805.9,288.8
	z"/>
<path class="st1" d="M743.8,293.8c0.8,0.1,1.6,0.3,2.3,0.7l0,0c-0.4-0.2-0.7-0.5-1-0.9c-0.2-0.4-0.3-0.8-0.3-1.3
	c0-3.9,4-3.9,5.1-3.3c0,0-1.9,0.5-1.9,3c0,0.8,0.6,3.6,5.3,3.4c0.9-0.6,1.5-1.4,1.9-2.4c0.3-1,0.4-2,0.1-3s-0.9-1.8-1.8-2.5
	c-0.8-0.6-1.8-0.9-2.9-0.9c-6.5,0-14,9.4-14,9.4h3.4c0,0,0.8-0.7,1.3-1.1C742,294.3,742.9,293.9,743.8,293.8z"/>
<path class="st1" d="M743.5,279.5c0-1-0.3-2-1-2.9c-0.6-0.8-1.5-1.4-2.5-1.7c-1-0.3-2-0.3-3,0.1c-1,0.3-1.8,1-2.4,1.8
	c-0.2,4.7,2.6,5.3,3.4,5.3c2.6,0,3.1-1.9,3.1-1.9c0.6,1.1,0.6,5-3.4,5.1c-0.5,0-0.9-0.1-1.3-0.3c-0.4-0.2-0.7-0.6-0.9-1l0,0
	c0.4,0.7,0.6,1.5,0.7,2.2c-0.1,0.9-0.5,1.8-1.2,2.5c-0.4,0.5-1.1,1.3-1.1,1.3h0v3.3h0C734,293.4,743.5,286,743.5,279.5z"/>
<path class="st2" d="M782.2,232.8V223H759v9.8l-15.2,15H734v1.7l0,8.1l0,0v3.4l0,0l0,8.1v1.7h9.8l15.2,15V296h23.2v-10.2l15.2-15
	h9.6v-22.9h-9.7L782.2,232.8z M795.6,269h-14.7c0,0,0,0.1,0,0.1c0,0,0,0.1,0,0.1c0,0,0,0.1-0.1,0.1c0,0-0.1,0.1-0.1,0.1
	c0,0-0.1,0-0.1,0c0,0,0,0-0.1,0v14.6l-9.9,9.8l-9.9-9.8v-14.6c0,0-0.1,0-0.1,0c0,0-0.1,0-0.1,0c0,0-0.1,0-0.1-0.1
	c0,0-0.1-0.1-0.1-0.1s0-0.1,0-0.1c0,0,0,0,0-0.1h-14.7l-9.9-9.8l9.9-9.8h14.7c0,0,0-0.1,0-0.1c0,0,0-0.1,0-0.1c0,0,0-0.1,0.1-0.1
	c0,0,0.1-0.1,0.1-0.1c0,0,0.1,0,0.1,0c0,0,0,0,0.1,0v-14.6l9.9-9.8l9.9,9.8v14.6c0,0,0.1,0,0.1,0c0,0,0.1,0,0.2,0c0,0,0.1,0,0.1,0.1
	c0,0,0.1,0.1,0.1,0.1c0,0,0,0.1,0,0.1c0,0,0,0,0,0.1h14.7l9.9,9.8L795.6,269z"/>
<path class="st2" d="M760.7,249.1C760.7,249.1,760.7,249,760.7,249.1c-0.1,0-0.2,0-0.2,0c0,0-0.1,0-0.1,0.1c0,0-0.1,0.1-0.1,0.1
	c0,0,0,0.1,0,0.1c0,0,0,0,0,0.1h0.4V249.1z"/>
<path class="st2" d="M780.5,269.5C780.5,269.5,780.5,269.5,780.5,269.5c0.1,0,0.2,0,0.2,0c0,0,0.1,0,0.1-0.1c0,0,0.1-0.1,0.1-0.1
	c0,0,0-0.1,0-0.1c0,0,0,0,0-0.1h-0.4V269.5z"/>
<path class="st2" d="M760.3,269C760.3,269.1,760.3,269.1,760.3,269c0,0.1,0,0.2,0,0.2s0,0.1,0.1,0.1c0,0,0.1,0.1,0.1,0.1
	c0,0,0.1,0,0.1,0c0,0,0,0,0.1,0V269H760.3z"/>
<path class="st2" d="M780.9,249.5C780.9,249.5,780.9,249.4,780.9,249.5c0-0.1,0-0.2,0-0.2c0,0,0-0.1-0.1-0.1c0,0-0.1-0.1-0.1-0.1
	c0,0-0.1,0-0.1,0c0,0,0,0-0.1,0v0.4H780.9z"/>
<path class="st3" d="M1053.5,74L1053.5,74L1053.5,74L1053.5,74z"/>
<path class="st0" d="M1128.5,35.2c-0.2,0.1-0.3,0.3-0.3,0.5c-0.1,0.2-0.1,0.4-0.1,0.6c0,0.2,0,0.4,0.1,0.6c0.1,0.2,0.2,0.4,0.3,0.5
	c0.3,0.3,0.7,0.5,1.1,0.5c0.4,0,0.8-0.2,1.1-0.5c0.2-0.1,0.3-0.3,0.3-0.5c0.1-0.2,0.1-0.4,0.1-0.6s0-0.4-0.1-0.6
	c-0.1-0.2-0.2-0.4-0.3-0.5c-0.3-0.3-0.7-0.5-1.1-0.5C1129.2,34.7,1128.8,34.9,1128.5,35.2z"/>
<path class="st0" d="M1127.4,34.5c0,0,0.1,0,0.2,0c0,0,0.1,0,0.1-0.1c0,0,0.1-0.1,0.1-0.1c0,0,0-0.1,0-0.1c-0.4-2-1.4-3.8-2.8-5.3
	c-1.5-1.4-3.3-2.3-5.2-2.8v0.4h-0.4c0.5,1.9,1.4,3.7,2.8,5.2C1123.6,33.1,1125.4,34,1127.4,34.5z"/>
<path class="st0" d="M1131.8,38.1c-0.1,0-0.1,0-0.2,0c-0.1,0-0.1,0-0.1,0.1c0,0-0.1,0.1-0.1,0.1c0,0,0,0.1,0,0.1
	c0.4,2,1.4,3.8,2.8,5.3c1.5,1.4,3.3,2.3,5.2,2.8V46h0.4c-0.5-1.9-1.4-3.7-2.8-5.2C1135.6,39.5,1133.8,38.5,1131.8,38.1z"/>
<path class="st0" d="M1127.8,38.4c0,0,0-0.1,0-0.1c0,0,0-0.1-0.1-0.1c0,0-0.1-0.1-0.1-0.1c0,0-0.1,0-0.2,0c-2,0.4-3.8,1.4-5.3,2.8
	c-1.4,1.4-2.3,3.2-2.8,5.2h0.4v0.4c1.9-0.4,3.8-1.4,5.2-2.8C1126.3,42.2,1127.3,40.4,1127.8,38.4z"/>
<path class="st0" d="M1131.4,34.1c0,0,0,0.1,0,0.1c0,0,0,0.1,0.1,0.1c0,0,0.1,0.1,0.1,0.1c0,0,0.1,0,0.1,0c2-0.4,3.8-1.4,5.3-2.8
	c1.4-1.4,2.3-3.2,2.8-5.2h-0.4v-0.4c-2,0.4-3.8,1.4-5.2,2.8C1132.8,30.3,1131.9,32.1,1131.4,34.1z"/>
<path class="st0" d="M1126.7,36c-1.7-1.1-3.7-1.7-5.7-1.7c-2,0.1-4,0.7-5.8,1.7c0,0-0.1,0.1-0.1,0.1s0,0.1,0,0.1c0,0,0,0.1,0,0.1
	c0,0,0.1,0.1,0.1,0.1c1.7,1.1,3.7,1.7,5.8,1.7c2,0,4-0.7,5.7-1.7l0.1,0v0c0,0,0-0.1,0.1-0.1c0,0,0-0.1,0-0.1c0,0,0-0.1,0-0.1
	C1126.8,36.1,1126.8,36.1,1126.7,36L1126.7,36z"/>
<path class="st0" d="M1143.9,36c-1.7-1.1-3.7-1.7-5.7-1.7c-2,0.1-4,0.7-5.7,1.7c0,0-0.1,0.1-0.1,0.1c0,0,0,0.1,0,0.1
	c0,0.1,0,0.1,0,0.1c0,0,0.1,0.1,0.1,0.1c1.7,1.1,3.7,1.7,5.7,1.7c2-0.1,4-0.7,5.8-1.7l0,0l0,0c0,0,0.1-0.1,0.1-0.1c0,0,0-0.1,0-0.1
	c0,0,0-0.1,0-0.1C1144,36.1,1144,36.1,1143.9,36L1143.9,36z"/>
<path class="st0" d="M1129.6,39c-0.1,0-0.1,0-0.2,0c0,0-0.1,0.1-0.1,0.1c-1.1,1.7-1.7,3.7-1.8,5.7c0.1,2,0.7,4,1.8,5.7
	c0,0,0.1,0.1,0.1,0.1c0,0,0.1,0,0.1,0c0,0,0.1,0,0.1,0c0,0,0.1,0,0.1-0.1l0,0c1.1-1.7,1.7-3.7,1.8-5.7c0-2-0.7-4-1.8-5.7
	c0,0-0.1-0.1-0.1-0.1C1129.7,39,1129.7,39,1129.6,39z"/>
<path class="st0" d="M1129.6,33.6c0,0,0.1,0,0.1,0c0,0,0.1,0,0.1-0.1l0,0c1.1-1.7,1.7-3.7,1.8-5.7c0-2-0.7-4-1.8-5.7
	c0,0-0.1-0.1-0.1-0.1c0,0-0.1,0-0.1,0c-0.1,0-0.1,0-0.2,0c0,0-0.1,0.1-0.1,0.1c-1.1,1.7-1.7,3.7-1.8,5.7c0.1,2,0.7,4,1.8,5.7
	c0,0,0.1,0.1,0.1,0.1C1129.5,33.6,1129.5,33.6,1129.6,33.6z"/>
<path class="st0" d="M1112.3,0.7c-4.8-0.2-5.3,2.6-5.3,3.4c0,2.6,1.9,3,1.9,3c-1.1,0.6-5.1,0.6-5.1-3.3c0-0.5,0.1-0.9,0.3-1.3
	c0.2-0.4,0.6-0.7,1-0.9l0,0c-0.7,0.4-1.5,0.6-2.3,0.7c-0.9-0.1-1.8-0.5-2.5-1.1c-0.5-0.4-1.3-1.1-1.3-1.1h-3.4c0,0,7.4,9.4,14,9.4
	c1,0,2-0.3,2.9-0.9c0.8-0.6,1.4-1.5,1.8-2.5c0.3-1,0.3-2-0.1-3C1113.8,2.1,1113.2,1.2,1112.3,0.7z"/>
<path class="st0" d="M1093,2.6L1093,2.6V6v0c0,0,0.7,0.8,1.1,1.3c0.7,0.7,1.1,1.6,1.2,2.5c-0.1,0.8-0.3,1.6-0.7,2.2l0,0
	c0.2-0.4,0.5-0.7,0.9-1c0.4-0.2,0.8-0.3,1.3-0.3c3.9,0,3.9,4,3.4,5.1c0,0-0.5-1.9-3.1-1.9c-0.8,0-3.7,0.6-3.4,5.3
	c0.6,0.9,1.4,1.5,2.4,1.8c1,0.3,2,0.4,3,0.1c1-0.3,1.9-0.9,2.5-1.7c0.6-0.8,0.9-1.8,1-2.9C1102.5,10,1093,2.6,1093,2.6z"/>
<path class="st0" d="M1163.3,0h-3.4c0,0-0.8,0.7-1.3,1.1c-0.7,0.6-1.6,1.1-2.5,1.1c-0.8-0.1-1.6-0.3-2.3-0.7l0,0
	c0.4,0.2,0.7,0.5,1,0.9s0.3,0.8,0.3,1.3c0,3.9-4,3.9-5.1,3.3c0,0,1.9-0.5,1.9-3c0-0.8-0.6-3.6-5.3-3.4c-0.9,0.6-1.5,1.4-1.8,2.4
	c-0.4,1-0.4,2-0.1,3c0.3,1,0.9,1.8,1.8,2.5c0.8,0.6,1.8,0.9,2.9,0.9C1155.9,9.4,1163.3,0,1163.3,0z"/>
<path class="st0" d="M1166,2.6c0,0-9.5,7.4-9.5,13.8c0,1,0.3,2,1,2.9c0.6,0.8,1.5,1.4,2.5,1.7c1,0.3,2,0.3,3-0.1
	c1-0.3,1.8-1,2.4-1.8c0.2-4.7-2.6-5.3-3.4-5.3c-2.6,0-3.1,1.9-3.1,1.9c-0.6-1.1-0.5-5,3.4-5.1c0.5,0,0.9,0.1,1.3,0.3s0.7,0.6,0.9,1
	l0,0c-0.4-0.7-0.6-1.5-0.7-2.2c0.1-0.9,0.5-1.8,1.2-2.5c0.4-0.5,1.1-1.3,1.1-1.3v0V2.6L1166,2.6z"/>
<path class="st0" d="M1149.4,63.6c-1,0-2,0.3-2.9,0.9c-0.8,0.6-1.5,1.5-1.8,2.5c-0.3,1-0.3,2,0.1,3c0.3,1,1,1.8,1.8,2.4
	c4.8,0.2,5.3-2.6,5.3-3.4c0-2.6-1.9-3-1.9-3c1.1-0.6,5.1-0.6,5.1,3.3c0,0.5-0.1,0.9-0.3,1.3c-0.2,0.4-0.6,0.7-1,0.9l0,0
	c0.7-0.4,1.5-0.6,2.3-0.7c0.9,0.1,1.8,0.5,2.5,1.1c0.5,0.4,1.3,1.1,1.3,1.1h3.4C1163.3,73,1155.9,63.6,1149.4,63.6z"/>
<path class="st0" d="M1164.9,65.8c-0.7-0.7-1.1-1.6-1.2-2.5c0.1-0.8,0.3-1.6,0.7-2.2l0,0c-0.2,0.4-0.5,0.7-0.9,1s-0.8,0.3-1.3,0.3
	c-3.9,0-3.9-4-3.4-5.1c0,0,0.5,1.9,3.1,1.9c0.8,0,3.7-0.6,3.4-5.3c-0.6-0.9-1.4-1.5-2.4-1.8c-1-0.3-2-0.4-3-0.1
	c-1,0.3-1.9,0.9-2.5,1.7c-0.6,0.8-0.9,1.8-1,2.9c0,6.5,9.5,13.8,9.5,13.8l0,0V67l0,0C1166,67,1165.3,66.3,1164.9,65.8z"/>
<path class="st0" d="M1102.8,70.8c0.8,0.1,1.6,0.3,2.3,0.7l0,0c-0.4-0.2-0.7-0.5-1-0.9c-0.2-0.4-0.3-0.8-0.3-1.3
	c0-3.9,4-3.9,5.1-3.3c0,0-1.9,0.5-1.9,3c0,0.8,0.6,3.6,5.3,3.4c0.9-0.6,1.5-1.4,1.8-2.4c0.4-1,0.4-2,0.1-3c-0.3-1-0.9-1.8-1.8-2.5
	c-0.8-0.6-1.8-0.9-2.9-0.9c-6.5,0-14,9.4-14,9.4h3.4c0,0,0.8-0.7,1.3-1.1C1101,71.3,1101.9,70.9,1102.8,70.8z"/>
<path class="st0" d="M1102.5,56.5c0-1-0.3-2-1-2.9c-0.6-0.8-1.5-1.4-2.5-1.7c-1-0.3-2-0.3-3,0.1c-1,0.3-1.8,1-2.4,1.8
	c-0.2,4.7,2.6,5.3,3.4,5.3c2.6,0,3.1-1.9,3.1-1.9c0.6,1.1,0.6,5-3.4,5.1c-0.5,0-0.9-0.1-1.3-0.3s-0.7-0.6-0.9-1l0,0
	c0.4,0.7,0.6,1.5,0.7,2.2c-0.1,0.9-0.5,1.8-1.2,2.5c-0.3,0.5-1.1,1.3-1.1,1.3l0,0v3.3l0,0C1093,70.4,1102.5,63,1102.5,56.5z"/>
<path class="st0" d="M1141.2,9.8V0H1118v9.8l-15.2,15h-9.8v1.7v8.1v0V38v0V46v1.7h9.8l15.2,15V73h23.2V62.8l15.2-15h9.7V24.8h-9.7
	L1141.2,9.8z M1154.6,46h-14.7c0,0,0,0.1,0,0.1c0,0,0,0.1,0,0.1c0,0-0.1,0.1-0.1,0.1c0,0-0.1,0.1-0.1,0.1c0,0-0.1,0-0.1,0
	c0,0-0.1,0-0.1,0v14.6l-9.9,9.8l-9.9-9.8V46.5c-0.1,0-0.1,0-0.1,0c-0.1,0-0.1,0-0.2,0c-0.1,0-0.1,0-0.1-0.1c0,0-0.1-0.1-0.1-0.1
	c0,0,0-0.1,0-0.1c0,0,0,0,0-0.1h-14.7l-9.9-9.8l9.9-9.8h14.7c0,0,0-0.1,0-0.1c0,0,0-0.1,0-0.1c0,0,0-0.1,0.1-0.1
	c0,0,0.1-0.1,0.1-0.1c0.1,0,0.1,0,0.2,0c0,0,0,0,0.1,0V11.5l9.9-9.8l9.9,9.8v14.6c0,0,0.1,0,0.1,0c0,0,0.1,0,0.1,0
	c0.1,0,0.1,0,0.1,0.1c0,0,0.1,0.1,0.1,0.1c0,0,0,0.1,0,0.1c0,0,0,0,0,0.1h14.7l9.9,9.8L1154.6,46z"/>
<path class="st0" d="M1119.7,26.1C1119.7,26.1,1119.7,26,1119.7,26.1c-0.2,0-0.2,0-0.3,0c-0.1,0-0.1,0-0.1,0.1c0,0-0.1,0.1-0.1,0.1
	c0,0,0,0.1,0,0.1c0,0,0,0,0,0.1h0.4V26.1z"/>
<path class="st0" d="M1139.5,46.5C1139.5,46.5,1139.5,46.5,1139.5,46.5c0.1,0,0.2,0,0.2,0c0.1,0,0.1,0,0.1-0.1c0,0,0.1-0.1,0.1-0.1
	c0,0,0-0.1,0-0.1c0,0,0,0,0-0.1h-0.4V46.5z"/>
<path class="st0" d="M1119.3,46C1119.3,46.1,1119.3,46.1,1119.3,46c0,0.1,0,0.2,0,0.2c0,0,0,0.1,0.1,0.1c0,0,0.1,0.1,0.1,0.1
	c0.1,0,0.1,0,0.2,0c0,0,0,0,0.1,0V46H1119.3z"/>
<path class="st0" d="M1139.9,26.5C1139.9,26.5,1139.9,26.4,1139.9,26.5c0-0.1,0-0.2,0-0.2c0,0-0.1-0.1-0.1-0.1c0,0-0.1-0.1-0.1-0.1
	c0,0-0.1,0-0.1,0c0,0-0.1,0-0.1,0v0.4H1139.9z"/>
</svg>
