<?xml version="1.0" encoding="utf-8"?>
<!-- Generator: Adobe Illustrator 22.1.0, SVG Export Plug-In . SVG Version: 6.00 Build 0)  -->
<svg version="1.1" id="Слой_1" xmlns="http://www.w3.org/2000/svg" xmlns:xlink="http://www.w3.org/1999/xlink" x="0px" y="0px"
	 viewBox="0 0 1166 512" style="enable-background:new 0 0 1166 512;" xml:space="preserve">
<style type="text/css">
	.st0{fill:#E7533B;}
	.st1{fill:#FDD84A;}
</style>
<path class="st0" d="M217.4,437.4c-0.7-4.2-3.4-15.1-11.2-22.9c-7.9-7.9-18.8-10.5-22.9-11.2c0.7,4.2,3.4,15.1,11.2,22.9
	C202.3,434.1,213.3,436.7,217.4,437.4z"/>
<path class="st0" d="M217.4,440.6c-4.2,0.7-15.1,3.4-22.9,11.2c-7.9,7.9-10.5,18.8-11.2,22.9c4.2-0.7,15.1-3.4,22.9-11.2
	C214.1,455.7,216.7,444.7,217.4,440.6z"/>
<path class="st0" d="M146,512c4.2-0.7,15.1-3.4,22.9-11.2c7.8-7.8,10.5-18.8,11.2-22.9c-4.2,0.7-15.1,3.4-22.9,11.2
	C149.4,496.9,146.7,507.8,146,512z"/>
<path class="st0" d="M183.3,477.9c0.7,4.2,3.4,15.1,11.2,22.9c7.8,7.8,18.8,10.5,22.9,11.2c-0.7-4.2-3.4-15.1-11.2-22.9
	C198.4,481.2,187.5,478.6,183.3,477.9z"/>
<path class="st0" d="M146,437.4c4.2-0.7,15.1-3.4,22.9-11.2c7.9-7.9,10.5-18.8,11.2-22.9c-4.2,0.7-15.1,3.4-22.9,11.2
	C149.4,422.4,146.7,433.3,146,437.4z"/>
<path class="st0" d="M146,440.6c0.7,4.2,3.4,15.1,11.2,22.9c7.9,7.9,18.8,10.5,22.9,11.2c-0.7-4.2-3.4-15.1-11.2-22.9
	S150.2,441.3,146,440.6z"/>
<path class="st0" d="M146,366c0.7,4.2,3.4,15.1,11.2,22.9c7.9,7.9,18.8,10.5,22.9,11.2c-0.7-4.2-3.4-15.1-11.2-22.9
	C161.1,369.4,150.2,366.7,146,366z"/>
<path class="st0" d="M217.4,366c-4.2,0.7-15.1,3.4-22.9,11.2c-7.8,7.8-10.5,18.8-11.2,22.9c4.2-0.7,15.1-3.4,22.9-11.2
	C214.1,381.1,216.7,370.2,217.4,366z"/>
<path class="st0" d="M257.9,474.7c4.2-0.7,15.1-3.4,22.9-11.2c7.8-7.8,10.5-18.8,11.2-22.9c-4.2,0.7-15.1,3.4-22.9,11.2
	C261.2,459.6,258.6,470.5,257.9,474.7z"/>
<path class="st0" d="M257.9,400.1c4.2-0.7,15.1-3.4,22.9-11.2c7.8-7.8,10.5-18.8,11.2-22.9c-4.2,0.7-15.1,3.4-22.9,11.2
	C261.2,385.1,258.6,396,257.9,400.1z"/>
<path class="st0" d="M257.9,403.3c0.7,4.2,3.4,15.1,11.2,22.9c7.8,7.8,18.8,10.5,22.9,11.2c-0.7-4.2-3.4-15.1-11.2-22.9
	C272.9,406.6,262,404,257.9,403.3z"/>
<path class="st0" d="M257.9,477.9c0.7,4.2,3.4,15.1,11.2,22.9c7.8,7.8,18.8,10.5,22.9,11.2c-0.7-4.2-3.4-15.1-11.2-22.9
	C272.9,481.2,262,478.6,257.9,477.9z"/>
<path class="st0" d="M254.7,403.3c-4.2,0.7-15.1,3.4-22.9,11.2c-7.9,7.9-10.5,18.8-11.2,22.9c4.2-0.7,15.1-3.4,22.9-11.2
	C251.4,418.4,254,407.4,254.7,403.3z"/>
<path class="st0" d="M220.6,366c0.7,4.2,3.4,15.1,11.2,22.9c7.9,7.9,18.8,10.5,22.9,11.2c-0.7-4.2-3.4-15.1-11.2-22.9
	C235.6,369.4,224.7,366.7,220.6,366z"/>
<path class="st0" d="M220.6,440.6c0.7,4.2,3.4,15.1,11.2,22.9c7.9,7.9,18.8,10.5,22.9,11.2c-0.7-4.2-3.4-15.1-11.2-22.9
	C235.7,443.9,224.7,441.3,220.6,440.6z"/>
<path class="st0" d="M220.6,512c4.2-0.7,15.1-3.4,22.9-11.2c7.9-7.9,10.5-18.8,11.2-22.9c-4.2,0.7-15.1,3.4-22.9,11.2
	C223.9,496.9,221.3,507.8,220.6,512z"/>
<path class="st1" d="M457.5,204.5c-3.2,0.6-6.2,2.1-8.5,4.4c-2.3,2.3-3.8,5.3-4.4,8.5c3.2-0.6,6.2-2.1,8.5-4.4
	C455.4,210.7,456.9,207.7,457.5,204.5z"/>
<path class="st1" d="M441,201.8v18.2c1.9-2.7,2.9-5.8,2.9-9.1C443.9,207.7,442.9,204.5,441,201.8z"/>
<path class="st1" d="M441.9,221h18.2c-2.7-1.9-5.8-2.9-9.1-2.9C447.8,218.1,444.6,219.1,441.9,221z"/>
<path class="st1" d="M497.5,204.5c0.6,3.2,2.1,6.2,4.4,8.5c2.3,2.3,5.3,3.8,8.5,4.4c-0.6-3.2-2.1-6.2-4.4-8.5
	C503.7,206.6,500.7,205.1,497.5,204.5z"/>
<path class="st1" d="M514,220.1v-18.2l0,0L514,220.1L514,220.1z"/>
<path class="st1" d="M514,220.1v-18.2c-1.9,2.7-2.9,5.8-2.9,9.1S512.1,217.4,514,220.1z"/>
<path class="st1" d="M494.8,221h18.2c-2.7-1.9-5.8-2.9-9.1-2.9C500.7,218.1,497.5,219.1,494.8,221z"/>
<path class="st1" d="M510.4,151.6c-3.2,0.6-6.2,2.1-8.5,4.4c-2.3,2.3-3.8,5.3-4.4,8.5c3.2-0.6,6.2-2.1,8.5-4.4
	C508.3,157.8,509.8,154.8,510.4,151.6z"/>
<path class="st1" d="M514,167.2L514,167.2l0-18.2l0,0V167.2z"/>
<path class="st1" d="M511.1,158.1c0.1,3.2,1.1,6.4,2.9,9.1v-18.2C512.2,151.7,511.2,154.8,511.1,158.1z"/>
<path class="st1" d="M513.1,148h-18.2c2.7,1.9,5.8,2.9,9.1,2.9C507.2,150.9,510.4,149.9,513.1,148z"/>
<path class="st1" d="M457.5,164.5c-0.6-3.2-2.1-6.2-4.4-8.5c-2.3-2.3-5.3-3.8-8.5-4.4c0.6,3.2,2.1,6.2,4.4,8.5
	C451.3,162.4,454.3,163.9,457.5,164.5z"/>
<path class="st1" d="M441,148.9v18.2c1.9-2.7,2.9-5.8,2.9-9.1S442.9,151.6,441,148.9z"/>
<path class="st1" d="M460.2,148h-18.2c2.7,1.9,5.8,2.9,9.1,2.9C454.3,150.9,457.5,149.9,460.2,148z"/>
<path class="st1" d="M477.5,179.8c0,0,11.8-9.2,11.8-17.3c0-1.3-0.4-2.5-1.2-3.6c-0.8-1-1.8-1.8-3.1-2.2c-1.2-0.4-2.5-0.4-3.7,0.1
	c-1.2,0.4-2.2,1.2-3,2.3c-0.3,5.9,3.2,6.6,4.2,6.6c3.2,0,3.8-2.3,3.8-2.3c0.7,1.3,0.7,6.3-4.2,6.3c-0.6,0-1.1-0.1-1.6-0.4
	c-0.5-0.3-0.9-0.7-1.1-1.2l0,0c0.5,0.9,0.8,1.8,0.8,2.8c-0.1,1.2-0.6,2.3-1.4,3.1c-0.4,0.6-1.3,1.6-1.3,1.6s-0.9-1-1.3-1.6
	c-0.8-0.9-1.3-1.9-1.4-3.1c0.1-1,0.3-1.9,0.8-2.8l0,0c-0.3,0.5-0.7,0.9-1.1,1.2c-0.5,0.3-1,0.4-1.6,0.4c-4.9,0-4.9-5-4.2-6.3
	c0,0,0.6,2.3,3.8,2.3c1,0,4.5-0.7,4.2-6.6c-0.7-1.1-1.8-1.9-3-2.3c-1.2-0.4-2.5-0.5-3.7-0.1c-1.2,0.4-2.3,1.1-3.1,2.2
	c-0.8,1-1.2,2.3-1.2,3.6C465.7,170.6,477.5,179.8,477.5,179.8z"/>
<path class="st1" d="M477.5,189.2c0,0-11.8,9.2-11.8,17.3c0,1.3,0.4,2.5,1.2,3.6c0.8,1,1.8,1.8,3.1,2.2c1.2,0.4,2.5,0.4,3.7-0.1
	c1.2-0.4,2.2-1.2,3-2.3c0.3-5.9-3.2-6.6-4.2-6.6c-3.2,0-3.8,2.3-3.8,2.3c-0.7-1.3-0.7-6.3,4.2-6.3c0.6,0,1.1,0.1,1.6,0.4
	c0.5,0.3,0.9,0.7,1.1,1.2l0,0c-0.5-0.9-0.7-1.8-0.8-2.8c0.1-1.2,0.6-2.3,1.4-3.1c0.4-0.6,1.3-1.6,1.3-1.6s0.9,1,1.3,1.6
	c0.8,0.8,1.3,1.9,1.4,3.1c-0.1,1-0.3,1.9-0.8,2.8l0,0c0.3-0.5,0.7-0.9,1.1-1.2c0.5-0.3,1-0.4,1.6-0.4c4.9,0,4.9,5,4.2,6.3
	c0,0-0.6-2.3-3.8-2.3c-1,0-4.5,0.7-4.2,6.6c0.7,1.1,1.8,1.9,3,2.3c1.2,0.4,2.5,0.5,3.7,0.1c1.2-0.4,2.3-1.1,3.1-2.2s1.2-2.3,1.2-3.6
	C489.3,198.4,477.5,189.2,477.5,189.2z"/>
<path class="st1" d="M472.8,184.5c0,0-9.2-11.8-17.3-11.8c-1.3,0-2.5,0.4-3.6,1.2c-1,0.8-1.8,1.8-2.2,3.1c-0.4,1.2-0.4,2.5,0.1,3.7
	c0.4,1.2,1.2,2.3,2.3,3c5.9,0.3,6.6-3.2,6.6-4.2c0-3.2-2.3-3.8-2.3-3.8c1.3-0.7,6.3-0.7,6.3,4.2c0,0.6-0.1,1.1-0.4,1.6
	c-0.3,0.5-0.7,0.9-1.2,1.1l0,0c0.9-0.5,1.8-0.7,2.8-0.8c1.2,0.1,2.3,0.6,3.1,1.4c0.6,0.4,1.6,1.3,1.6,1.3s-1,0.9-1.6,1.3
	c-0.9,0.8-1.9,1.3-3.1,1.4c-1-0.1-1.9-0.3-2.8-0.8l0,0c0.5,0.3,0.9,0.7,1.2,1.1c0.3,0.5,0.4,1,0.4,1.6c0,4.9-5,4.9-6.3,4.2
	c0,0,2.3-0.6,2.3-3.8c0-1-0.7-4.5-6.6-4.2c-1.1,0.7-1.9,1.8-2.3,3c-0.4,1.2-0.5,2.5-0.1,3.7c0.4,1.2,1.1,2.3,2.2,3.1
	c1,0.8,2.3,1.2,3.6,1.2C463.6,196.3,472.8,184.5,472.8,184.5z"/>
<path class="st1" d="M482.2,184.5c0,0,9.2,11.8,17.3,11.8c1.3,0,2.5-0.4,3.6-1.2c1-0.8,1.8-1.8,2.2-3.1c0.4-1.2,0.4-2.5-0.1-3.7
	c-0.4-1.2-1.2-2.3-2.3-3c-5.9-0.3-6.6,3.2-6.6,4.2c0,3.2,2.3,3.8,2.3,3.8c-1.3,0.7-6.3,0.7-6.3-4.2c0-0.6,0.1-1.1,0.4-1.6
	c0.3-0.5,0.7-0.9,1.2-1.1l0,0c-0.9,0.5-1.8,0.8-2.8,0.8c-1.2-0.1-2.3-0.6-3.1-1.4c-0.6-0.4-1.6-1.3-1.6-1.3s1-0.9,1.6-1.3
	c0.9-0.8,1.9-1.3,3.1-1.4c1,0.1,1.9,0.3,2.8,0.8l0,0c-0.5-0.3-0.9-0.7-1.2-1.1c-0.3-0.5-0.4-1-0.4-1.6c0-4.9,5-4.9,6.3-4.2
	c0,0-2.3,0.6-2.3,3.8c0,1,0.7,4.5,6.6,4.2c1.1-0.7,1.9-1.8,2.3-3c0.4-1.2,0.5-2.5,0.1-3.7c-0.4-1.2-1.1-2.3-2.2-3.1
	c-1-0.8-2.3-1.2-3.6-1.2C491.4,172.7,482.2,184.5,482.2,184.5z"/>
<path class="st1" d="M499.1,201.1c1.9,0,3.8-0.5,5.5-1.5c1.7-1,3.1-2.4,4-4.1c1-1.7,1.4-3.6,1.4-5.6c0-1.9-0.6-3.8-1.6-5.5
	c1-1.7,1.6-3.6,1.6-5.5c0-1.9-0.4-3.9-1.4-5.6c-1-1.7-2.3-3.1-4-4.1c-1.7-1-3.6-1.5-5.5-1.5c-2.2,0-4.5,0.5-6.5,1.5
	c0.9-2,1.4-4.3,1.5-6.5c0-1.9-0.5-3.8-1.5-5.5c-1-1.7-2.4-3.1-4.1-4c-1.7-1-3.6-1.4-5.5-1.4c-1.9,0-3.8,0.6-5.5,1.6
	c-1.7-1-3.6-1.6-5.5-1.6c-1.9,0-3.9,0.4-5.5,1.4c-1.7,1-3.1,2.3-4.1,4c-1,1.7-1.5,3.6-1.5,5.5c0,2.2,0.5,4.5,1.5,6.5
	c-2-0.9-4.3-1.4-6.5-1.5c-1.9,0-3.8,0.5-5.5,1.5c-1.7,1-3.1,2.4-4,4.1c-1,1.7-1.4,3.6-1.4,5.6c0,1.9,0.6,3.8,1.6,5.5
	c-1,1.7-1.6,3.6-1.6,5.5c0,1.9,0.5,3.9,1.4,5.5c1,1.7,2.3,3.1,4,4.1c1.7,1,3.6,1.5,5.5,1.5c2.2,0,4.5-0.5,6.5-1.5
	c-0.9,2-1.4,4.3-1.5,6.5c0,1.9,0.5,3.8,1.5,5.5c1,1.7,2.4,3.1,4.1,4c1.7,1,3.6,1.4,5.6,1.4c1.9,0,3.8-0.6,5.5-1.6
	c1.7,1,3.6,1.6,5.5,1.6c1.9,0,3.9-0.4,5.5-1.4c1.7-1,3.1-2.3,4.1-4c1-1.7,1.5-3.6,1.5-5.5c0-2.2-0.5-4.5-1.5-6.5
	C494.7,200.6,496.9,201.1,499.1,201.1z M492.8,206.1c0,1.7-0.5,3.4-1.3,4.9c-0.9,1.5-2.1,2.7-3.7,3.5c-1.5,0.8-3.2,1.2-4.9,1.2
	c-1.7-0.1-3.4-0.6-4.9-1.5l-0.5-0.3l-0.5,0.3c-1.5,0.9-3.1,1.4-4.9,1.5c-1.7,0.1-3.4-0.4-4.9-1.2s-2.8-2.1-3.6-3.5
	c-0.9-1.5-1.3-3.2-1.3-4.9c0.1-2.3,0.6-4.6,1.7-6.6l0.8-1.7c-0.1,0-0.2-0.1-0.3-0.2c-0.1-0.1-0.1-0.2-0.2-0.3l-1.7,0.8
	c-2.1,1-4.3,1.6-6.6,1.7c-1.7,0-3.4-0.5-4.9-1.3c-1.5-0.9-2.7-2.1-3.5-3.6c-0.8-1.5-1.2-3.2-1.2-4.9c0.1-1.7,0.6-3.4,1.5-4.9
	l0.3-0.5l-0.3-0.5c-0.9-1.5-1.4-3.1-1.5-4.9c-0.1-1.7,0.4-3.4,1.2-4.9c0.8-1.5,2.1-2.8,3.5-3.6c1.5-0.9,3.2-1.3,4.9-1.3
	c2.3,0.1,4.6,0.6,6.6,1.7l1.7,0.8c0-0.1,0.1-0.2,0.2-0.3c0.1-0.1,0.2-0.1,0.3-0.2l-0.8-1.7c-1-2.1-1.6-4.3-1.7-6.6
	c0-1.7,0.5-3.4,1.3-4.9c0.9-1.5,2.1-2.7,3.7-3.5c1.5-0.8,3.2-1.2,4.9-1.2c1.7,0.1,3.4,0.6,4.9,1.5l0.5,0.3l0.5-0.3
	c1.5-0.9,3.1-1.4,4.9-1.5c1.7-0.1,3.4,0.4,4.9,1.2c1.5,0.8,2.8,2.1,3.6,3.5c0.9,1.5,1.3,3.2,1.3,4.9c-0.1,2.3-0.6,4.6-1.7,6.6
	l-0.8,1.7c0.1,0,0.2,0.1,0.3,0.2c0.1,0.1,0.1,0.2,0.2,0.3l1.7-0.8c2.1-1,4.3-1.6,6.6-1.7c1.7,0,3.4,0.5,4.9,1.3
	c1.5,0.9,2.7,2.1,3.5,3.6c0.8,1.5,1.2,3.2,1.2,4.9c-0.1,1.7-0.6,3.4-1.5,4.9l-0.3,0.5l0.3,0.5c0.9,1.5,1.4,3.1,1.5,4.9
	c0.1,1.7-0.4,3.4-1.2,4.9c-0.8,1.5-2.1,2.8-3.5,3.6c-1.5,0.9-3.2,1.3-4.9,1.3c-2.3-0.1-4.6-0.6-6.6-1.7l-1.7-0.8
	c0,0.1-0.1,0.2-0.2,0.3c-0.1,0.1-0.2,0.1-0.3,0.2l0.8,1.7C492.2,201.6,492.8,203.8,492.8,206.1z"/>
<path class="st1" d="M464.4,173.1c0.5,0.5,2.3,0.6,2.3,0.6s-0.1-1.8-0.6-2.3c-0.2-0.2-0.4-0.3-0.7-0.3c-0.3,0-0.5,0-0.8,0.1l0.4,0.9
	l-0.9-0.4c-0.1,0.2-0.2,0.5-0.1,0.8C464,172.6,464.2,172.9,464.4,173.1z"/>
<path class="st1" d="M464.6,171.2c-0.1,0-0.2,0.1-0.3,0.2c-0.1,0.1-0.1,0.2-0.2,0.3l0.9,0.4L464.6,171.2z"/>
<path class="st1" d="M490.6,195.9c-0.5-0.5-2.3-0.6-2.3-0.6s0.1,1.8,0.6,2.3c0.2,0.2,0.4,0.3,0.7,0.3c0.3,0,0.5,0,0.8-0.1l-0.4-0.9
	l0.9,0.4c0.1-0.2,0.2-0.5,0.1-0.8C490.9,196.4,490.8,196.1,490.6,195.9z"/>
<path class="st1" d="M490.4,197.8c0.1,0,0.2-0.1,0.3-0.2c0.1-0.1,0.1-0.2,0.2-0.3l-0.9-0.4L490.4,197.8z"/>
<path class="st1" d="M466.1,197.6c0.5-0.5,0.6-2.3,0.6-2.3s-1.8,0.1-2.3,0.6c-0.2,0.2-0.3,0.4-0.3,0.7c0,0.3,0,0.5,0.1,0.8l0.9-0.4
	l-0.4,0.9c0.2,0.1,0.5,0.2,0.8,0.1C465.6,198,465.9,197.8,466.1,197.6z"/>
<path class="st1" d="M464.2,197.4c0,0.1,0.1,0.2,0.2,0.3c0.1,0.1,0.2,0.1,0.3,0.2l0.4-0.9L464.2,197.4z"/>
<path class="st1" d="M488.9,171.4c-0.5,0.5-0.6,2.3-0.6,2.3s1.8-0.1,2.3-0.6c0.2-0.2,0.3-0.4,0.3-0.7c0-0.3,0-0.5-0.1-0.8l-0.9,0.4
	l0.4-0.9c-0.2-0.1-0.5-0.2-0.8-0.1C489.4,171.1,489.1,171.2,488.9,171.4z"/>
<path class="st1" d="M490.8,171.6c0-0.1-0.1-0.2-0.2-0.3c-0.1-0.1-0.2-0.1-0.3-0.2l-0.4,0.9L490.8,171.6z"/>
<path class="st1" d="M474,148.1L474,148.1L474,148.1l0,0.1l0,0.1l0,0.1l0,0.1l0,0.1l0,0.1l0.1,0.1l0.1,0.1l0.1,0l0.1,0l0.1,0l0,0
	l0,0l0,0c0.5,0.1,0.9,0.4,1.2,0.7s0.6,0.7,0.8,1.2v0.2l0.1,0.1l0,0.1l0,0l0.1,0.1l0,0l0.1,0.1l0,0l0.1,0.1l0,0l0.1,0l0,0l0.1,0
	l0.1,0l0.1,0l0.1,0l0,0l0.1,0l0.1,0l0.1,0l0,0l0.1-0.1l0,0c0.1-0.1,0.2-0.3,0.3-0.4l0-0.1c0.1-0.5,0.4-0.9,0.8-1.2
	c0.4-0.3,0.8-0.6,1.3-0.7l0.1,0l0.1,0l0,0l0.1-0.1l0,0c0.1-0.1,0.2-0.2,0.2-0.3c0.1-0.1,0.1-0.3,0.1-0.4h-1.6
	c-0.9,0.4-1.6,1.1-2,1.9c-0.4-0.8-1.1-1.5-2-1.9H474L474,148.1L474,148.1z"/>
<path class="st1" d="M481,220.9L481,220.9L481,220.9l0-0.1l0-0.1l0-0.1l0-0.1l0-0.1l0-0.1l-0.1-0.1l-0.1-0.1l-0.1,0l-0.1,0l-0.1,0
	l0,0l0,0l0,0c-0.5-0.1-0.9-0.4-1.2-0.7c-0.3-0.3-0.6-0.7-0.8-1.2v-0.2l-0.1-0.1l0-0.1l0,0l-0.1-0.1l0,0l-0.1-0.1l0,0l-0.1-0.1l0,0
	l-0.1,0l0,0l-0.1,0l-0.1,0l-0.1,0l-0.1,0l0,0l-0.1,0l0,0l-0.1,0l0,0l-0.1,0.1l0,0c-0.1,0.1-0.2,0.3-0.3,0.4l0,0.1
	c-0.1,0.5-0.4,0.9-0.8,1.2c-0.4,0.3-0.8,0.6-1.3,0.7l-0.1,0l-0.1,0l0,0l-0.1,0.1l0,0c-0.1,0.1-0.2,0.2-0.2,0.3
	c-0.1,0.1-0.1,0.3-0.1,0.4h1.6c0.9-0.4,1.6-1.1,2-1.9c0.4,0.8,1.1,1.5,2,1.9h1.6L481,220.9L481,220.9z"/>
<path class="st1" d="M441.1,188L441.1,188L441.1,188l0.1,0l0.1,0l0.1,0l0.1,0l0.1,0l0.1,0l0.1-0.1l0.1-0.1l0-0.1l0-0.1l0-0.1l0,0
	l0,0l0,0c0.1-0.5,0.4-0.9,0.7-1.2c0.3-0.3,0.7-0.6,1.2-0.8h0.2l0.1-0.1l0.1,0l0,0l0.1-0.1l0,0l0.1-0.1l0,0l0.1-0.1l0,0l0-0.1l0,0
	l0-0.1l0-0.1l0-0.1l0-0.1l0,0l0-0.1l0-0.1l0-0.1l0,0l-0.1-0.1l0,0c-0.1-0.1-0.3-0.2-0.4-0.3l-0.1,0c-0.5-0.1-0.9-0.4-1.2-0.8
	c-0.3-0.4-0.6-0.8-0.7-1.3l0-0.1l0-0.1l0,0l-0.1-0.1l0,0c-0.1-0.1-0.2-0.2-0.3-0.2c-0.1-0.1-0.3-0.1-0.4-0.1v1.6
	c0.5,0,1,0.2,1.4,0.6c0.4,0.4,0.6,0.9,0.6,1.4s-0.2,1-0.6,1.4c-0.4,0.4-0.8,0.6-1.4,0.6v1.6L441.1,188L441.1,188z"/>
<path class="st1" d="M514,188.1v-1.6l0,0L514,188.1L514,188.1z"/>
<path class="st1" d="M514,182.5v-1.6h0L514,182.5L514,182.5z"/>
<path class="st1" d="M513.9,181L513.9,181L513.9,181l-0.1,0l-0.1,0l-0.1,0l-0.1,0l-0.1,0l-0.1,0l-0.1,0.1l-0.1,0.1l0,0.1l0,0.1
	l0,0.1l0,0l0,0l0,0c-0.1,0.5-0.4,0.9-0.7,1.2c-0.3,0.3-0.7,0.6-1.2,0.8h-0.2l-0.1,0.1l-0.1,0l0,0l-0.1,0.1l0,0l-0.1,0.1l0,0
	l-0.1,0.1l0,0l0,0.1l0,0l0,0.1l0,0.1l0,0.1l0,0.1l0,0l0,0.1l0,0.1l0,0.1l0,0l0.1,0.1l0,0c0.1,0.1,0.3,0.2,0.4,0.3l0.1,0
	c0.5,0.1,0.9,0.4,1.2,0.8c0.3,0.4,0.6,0.8,0.7,1.3l0,0.1l0,0.1l0,0l0.1,0.1l0,0c0.1,0.1,0.2,0.2,0.3,0.2c0.1,0.1,0.3,0.1,0.4,0.1
	v-1.6c-0.5,0-1-0.2-1.4-0.6c-0.4-0.4-0.6-0.9-0.6-1.4s0.2-1,0.6-1.4c0.4-0.4,0.8-0.6,1.4-0.6V181L513.9,181L513.9,181z"/>
<path class="st0" d="M73.6,164.8c0.2,0.1,0.4,0.1,0.6,0.1s0.4-0.1,0.5-0.3l15.8-15.8c0.1-0.1,0.2-0.3,0.3-0.5c0-0.2,0-0.4-0.1-0.6
	c-0.1-0.2-0.2-0.3-0.4-0.5c-0.2-0.1-0.4-0.2-0.6-0.2H74c-0.3,0-0.5,0.1-0.7,0.3c-0.2,0.2-0.3,0.4-0.3,0.7v15.8
	c0,0.2,0.1,0.4,0.2,0.6C73.3,164.6,73.4,164.7,73.6,164.8z"/>
<path class="st0" d="M73.6,173.1c0.1,0.1,0.3,0.2,0.5,0.2c0.2,0,0.3-0.1,0.5-0.2l24.6-24.6c0.1-0.1,0.1-0.1,0.1-0.2
	c0-0.1,0.1-0.2,0.1-0.3c0-0.1,0-0.2,0-0.3c0-0.1-0.1-0.2-0.1-0.2s-0.1-0.1-0.2-0.1c-0.1,0-0.2,0-0.3,0c-0.1,0-0.2,0-0.3,0.1
	c-0.1,0-0.2,0.1-0.2,0.1l-24.6,24.6c-0.1,0.1-0.2,0.3-0.2,0.5S73.4,172.9,73.6,173.1z"/>
<path class="st0" d="M145.4,202.2c-0.2-0.1-0.4-0.1-0.6-0.1c-0.2,0-0.4,0.1-0.5,0.3l-15.8,15.8c-0.1,0.1-0.2,0.3-0.3,0.5
	c0,0.2,0,0.4,0.1,0.6c0.1,0.2,0.2,0.3,0.4,0.5c0.2,0.1,0.4,0.2,0.6,0.2H145c0.3,0,0.5-0.1,0.7-0.3c0.2-0.2,0.3-0.4,0.3-0.7v-15.8
	c0-0.2-0.1-0.4-0.2-0.6C145.7,202.4,145.6,202.3,145.4,202.2z"/>
<path class="st0" d="M145.4,193.9c-0.1-0.1-0.1-0.1-0.2-0.1c-0.1,0-0.2-0.1-0.3-0.1c-0.1,0-0.2,0-0.2,0.1c-0.1,0-0.2,0.1-0.2,0.1
	l-24.6,24.6c-0.1,0.1-0.2,0.3-0.2,0.5s0.1,0.3,0.2,0.5c0.1,0.1,0.3,0.2,0.5,0.2c0.2,0,0.3-0.1,0.5-0.2l24.6-24.6
	c0.1-0.1,0.1-0.1,0.1-0.2c0-0.1,0.1-0.2,0.1-0.2c0-0.1,0-0.2-0.1-0.3C145.6,194.1,145.5,194,145.4,193.9z"/>
<path class="st0" d="M74.7,202.5c-0.1-0.1-0.2-0.2-0.3-0.2c-0.1-0.1-0.3-0.1-0.4-0.1c-0.1,0-0.3,0-0.4,0.1c-0.2,0.1-0.3,0.2-0.5,0.4
	c-0.1,0.2-0.2,0.4-0.2,0.6V219c0,0.1,0,0.3,0.1,0.4c0.1,0.1,0.1,0.2,0.2,0.3c0.1,0.1,0.2,0.2,0.3,0.2c0.1,0.1,0.3,0.1,0.4,0.1h15.8
	c0.2,0,0.4-0.1,0.6-0.2c0.2-0.1,0.3-0.3,0.4-0.5s0.1-0.4,0.1-0.6c0-0.2-0.1-0.4-0.3-0.5L74.7,202.5z"/>
<path class="st0" d="M74.5,193.9c-0.1-0.1-0.3-0.2-0.5-0.2c-0.2,0-0.3,0.1-0.5,0.2c-0.1,0.1-0.2,0.3-0.2,0.5c0,0.2,0.1,0.3,0.2,0.5
	l24.6,24.6c0.1,0.1,0.3,0.2,0.5,0.2c0.2,0,0.3-0.1,0.5-0.2c0.1-0.1,0.1-0.1,0.1-0.2s0-0.2,0-0.3c0-0.1,0-0.2,0-0.2
	c0-0.1-0.1-0.2-0.1-0.2L74.5,193.9z"/>
<path class="st0" d="M144.3,164.5c0.2,0.2,0.4,0.3,0.7,0.3c0.1,0,0.3,0,0.4-0.1c0.2-0.1,0.3-0.2,0.5-0.4c0.1-0.2,0.2-0.4,0.2-0.6
	V148c0-0.3-0.1-0.5-0.3-0.7c-0.2-0.2-0.4-0.3-0.7-0.3h-15.8c-0.2,0-0.4,0.1-0.6,0.2c-0.2,0.1-0.3,0.3-0.4,0.5
	c-0.1,0.2-0.1,0.4-0.1,0.6c0,0.2,0.1,0.4,0.3,0.5L144.3,164.5z"/>
<path class="st0" d="M144.5,173.1c0.1,0.1,0.3,0.2,0.5,0.2c0.1,0,0.3,0,0.4-0.1c0.1-0.1,0.2-0.2,0.2-0.3c0-0.1,0.1-0.3,0-0.4
	c0-0.1-0.1-0.2-0.2-0.3l-24.6-24.6c-0.1-0.1-0.3-0.2-0.5-0.2c-0.2,0-0.3,0.1-0.5,0.2c-0.1,0.1-0.2,0.3-0.2,0.5
	c0,0.2,0.1,0.3,0.2,0.5L144.5,173.1z"/>
<path class="st0" d="M108.8,176.1c0.1,0.1,0.2,0.2,0.3,0.2c0.1,0.1,0.3,0.1,0.4,0.1s0.3,0,0.4-0.1s0.2-0.1,0.3-0.2
	c1.1-1.3,2.1-2.7,3-4.2c1.9-3.1,2.9-6.6,3-10.2c-0.1-3.6-1.1-7.1-3-10.2c-0.8-1.5-1.8-2.9-3-4.2c-0.1-0.1-0.2-0.2-0.3-0.2
	s-0.3-0.1-0.4-0.1s-0.3,0-0.4,0.1c-0.1,0.1-0.2,0.1-0.3,0.2c-1.1,1.3-2.1,2.7-3,4.2c-1.9,3.1-2.9,6.6-3,10.2c0.1,3.6,1.1,7.1,3,10.2
	C106.6,173.4,107.6,174.8,108.8,176.1z"/>
<path class="st0" d="M110.2,190.9c-0.1-0.1-0.2-0.2-0.3-0.2c-0.1-0.1-0.3-0.1-0.4-0.1c-0.1,0-0.3,0-0.4,0.1
	c-0.1,0.1-0.2,0.1-0.3,0.2c-1.1,1.3-2.1,2.7-3,4.2c-1.9,3.1-2.9,6.6-3,10.2c0.1,3.6,1.1,7.1,3,10.2c0.8,1.5,1.8,2.9,3,4.2
	c0.1,0.1,0.2,0.2,0.3,0.2c0.1,0.1,0.3,0.1,0.4,0.1c0.1,0,0.3,0,0.4-0.1c0.1-0.1,0.2-0.1,0.3-0.2c1.1-1.3,2.1-2.7,3-4.2
	c1.9-3.1,2.9-6.6,3-10.2c-0.1-3.6-1.1-7.1-3-10.2C112.4,193.6,111.4,192.2,110.2,190.9z"/>
<path class="st0" d="M77.5,179.8c-1.5,0.8-2.9,1.8-4.2,3c-0.1,0.1-0.2,0.2-0.2,0.3c-0.1,0.1-0.1,0.3-0.1,0.4c0,0.1,0,0.3,0.1,0.4
	c0.1,0.1,0.1,0.2,0.2,0.3c1.3,1.1,2.7,2.1,4.2,3c3.1,1.9,6.6,2.9,10.2,3c3.6-0.1,7.1-1.1,10.2-3c1.5-0.8,2.9-1.9,4.2-3
	c0.1-0.1,0.2-0.2,0.2-0.3c0.1-0.1,0.1-0.3,0.1-0.4c0-0.1,0-0.3-0.1-0.4s-0.1-0.2-0.2-0.3c-1.3-1.1-2.7-2.1-4.2-3
	c-3.1-1.9-6.6-2.9-10.2-3C84.1,176.9,80.6,177.9,77.5,179.8z"/>
<path class="st0" d="M116.9,182.8c-0.1,0.1-0.2,0.2-0.2,0.3c-0.1,0.1-0.1,0.3-0.1,0.4c0,0.1,0,0.3,0.1,0.4c0.1,0.1,0.1,0.2,0.2,0.3
	c1.3,1.1,2.7,2.1,4.2,3c3.1,1.9,6.6,2.9,10.2,3c3.6-0.1,7.1-1.1,10.2-3c1.5-0.8,2.9-1.8,4.2-3c0.1-0.1,0.2-0.2,0.2-0.3
	c0.1-0.1,0.1-0.3,0.1-0.4c0-0.1,0-0.3-0.1-0.4c-0.1-0.1-0.1-0.2-0.2-0.3c-1.3-1.1-2.7-2.1-4.2-3c-3.1-1.9-6.6-2.9-10.2-3
	c-3.6,0.1-7.1,1.1-10.2,3C119.6,180.6,118.2,181.6,116.9,182.8z"/>
<path class="st0" d="M111.6,183.5c0-0.4-0.1-0.8-0.4-1.2c-0.2-0.4-0.6-0.6-1-0.8c-0.4-0.2-0.8-0.2-1.2-0.1c-0.4,0.1-0.8,0.3-1.1,0.6
	c-0.3,0.3-0.5,0.7-0.6,1.1c-0.1,0.4,0,0.8,0.1,1.2c0.2,0.4,0.4,0.7,0.8,1c0.4,0.2,0.8,0.4,1.2,0.4c0.3,0,0.6-0.1,0.8-0.2
	c0.3-0.1,0.5-0.3,0.7-0.5c0.2-0.2,0.4-0.4,0.5-0.7C111.6,184.1,111.6,183.8,111.6,183.5z"/>
<path class="st0" d="M115,189.7c0.8,1.1,7.9,11,8.7,11.8c0.5,0.5,1.2,0.8,1.9,0.8c0.7,0,1.4-0.3,1.9-0.8c0.5-0.5,0.8-1.2,0.8-1.9
	c0-0.7-0.3-1.4-0.8-1.9c-0.9-0.9-10.7-7.9-11.8-8.7c-0.1-0.1-0.2-0.1-0.3-0.1c-0.1,0-0.2,0.1-0.3,0.1c-0.1,0.1-0.1,0.2-0.1,0.3
	C114.9,189.5,114.9,189.6,115,189.7L115,189.7z"/>
<path class="st0" d="M103.3,189c-1.1,0.8-11,7.9-11.8,8.7c-0.5,0.5-0.8,1.2-0.8,1.9s0.3,1.4,0.8,1.9c0.5,0.5,1.2,0.8,1.9,0.8
	c0.7,0,1.4-0.3,1.9-0.8c-0.1,0.1,7.2-9.7,8.7-11.8c0.1-0.1,0.1-0.2,0.1-0.3c0-0.1-0.1-0.2-0.1-0.3c-0.1-0.1-0.2-0.1-0.3-0.1
	C103.5,188.9,103.4,188.9,103.3,189L103.3,189z"/>
<path class="st0" d="M125.6,164.7c-0.4,0-0.7,0.1-1,0.2c-0.3,0.1-0.6,0.3-0.9,0.6c-0.9,0.9-7.9,10.7-8.7,11.8
	c-0.1,0.1-0.1,0.2-0.1,0.3c0,0.1,0.1,0.2,0.1,0.3c0,0,0.1,0.1,0.2,0.1c0.1,0,0.1,0,0.2,0c0.1,0,0.2,0,0.3-0.1
	c1.1-0.8,10.1-7,10.9-7.8c1-1,2-3.7,0.9-4.7c-0.2-0.3-0.5-0.4-0.9-0.6C126.3,164.8,126,164.7,125.6,164.7z"/>
<path class="st0" d="M104,177.3c-1.1-1.5-7.5-10.5-8.7-11.8c-0.2-0.2-0.5-0.4-0.9-0.6c-0.3-0.1-0.7-0.2-1-0.2s-0.7,0.1-1,0.2
	s-0.6,0.3-0.9,0.6c-0.2,0.2-0.4,0.5-0.6,0.9c-0.1,0.3-0.2,0.7-0.2,1c0,0.4,0.1,0.7,0.2,1c0.1,0.3,0.3,0.6,0.6,0.9
	c0.9,0.9,10.7,7.9,11.8,8.7c0.1,0.1,0.2,0.1,0.3,0.1h0c0.1,0,0.1,0,0.2,0c0.1,0,0.1-0.1,0.2-0.1c0,0,0.1-0.1,0.1-0.2
	c0-0.1,0-0.1,0-0.2C104.1,177.5,104.1,177.4,104,177.3z"/>
<path class="st1" d="M1069,95l-0.5-0.1c-1.7-0.3-3.4-0.5-5.1-0.5c-1.1,0-2.3,0.1-3.4,0.4l0,0l0,0c-0.9-1.8-3-3.8-6.1-6l-0.4-0.3
	l-0.4,0.3c-3,2.2-5.1,4.2-6,5.9l0,0l0,0c-1.1-0.3-2.2-0.4-3.4-0.4c-1.7,0-3.5,0.2-5.1,0.5l-0.1,0l0,0L1038,95l-0.1,0.4v0l0,0.1
	c-0.6,3.7-0.6,6.6,0,8.5c-1.8,0.9-3.8,3-6,6.1l-0.3,0.4l0.3,0.4c2.2,3,4.2,5.1,5.9,6l0,0l0,0c-0.6,1.9-0.6,4.8,0.1,8.5l0,0.1l0,0
	l0.1,0.4l0.3,0.1v0l0.1,0c1.7,0.3,3.4,0.4,5.1,0.5l0,0c1.2,0,2.3-0.1,3.4-0.4l0,0l0,0c0.9,1.8,3,3.8,6.1,6l0.4,0.3l0.4-0.3
	c3.1-2.2,5.1-4.2,6.1-5.9l0,0l0,0c1.1,0.3,2.3,0.4,3.4,0.4c1.7,0,3.4-0.2,5.1-0.5l0.3-0.1l0.1,0l0.1-0.5c0.6-3.7,0.7-6.6,0.1-8.5
	l0,0l0,0c1.8-1,3.8-3,6-6.1l0.3-0.4l-0.3-0.4c-2.2-3.1-4.2-5.1-5.9-6.1l0,0l0,0c0.6-1.9,0.6-4.8-0.1-8.5l0-0.2v0L1069,95z
	 M1067.8,96.2c0.5,3.2,0.5,5.7,0.1,7.3l0,0c-0.1,0-0.3-0.1-0.4-0.1h0c-0.2,0-0.3-0.1-0.5-0.1l0,0c-0.2,0-0.3-0.1-0.5-0.1h0
	c-1.9-0.4-3.9-0.3-5.7,0.2v0c0-0.1,0.1-0.3,0.1-0.4l0-0.1c0-0.1,0.1-0.3,0.1-0.4l0,0c0-0.1,0-0.3,0.1-0.4l0-0.1c0-0.1,0-0.3,0-0.4
	l0,0c0-0.1,0-0.2,0-0.4l0-0.1c0-0.1,0-0.3,0-0.4v-0.1c0-0.1,0-0.2,0-0.4v-0.1c0-0.1,0-0.3,0-0.4v-0.1c0-0.1,0-0.2,0-0.3v-0.1
	c0-0.1,0-0.3,0-0.4v-0.1c0-0.1,0-0.2,0-0.4v-0.1c0-0.1,0-0.3-0.1-0.4l0-0.1c0-0.1,0-0.3-0.1-0.4v0c0-0.1-0.1-0.3-0.1-0.4l0-0.1
	c0-0.1-0.1-0.3-0.1-0.4l0,0c0-0.1-0.1-0.2-0.1-0.4l0-0.1C1062.2,95.7,1064.6,95.7,1067.8,96.2z M1053.5,90.3
	c2.7,1.9,4.4,3.6,5.2,5.1c-0.1,0.1-0.3,0.1-0.4,0.2l-0.1,0c-0.1,0.1-0.3,0.2-0.4,0.2l-0.1,0.1c-0.1,0.1-0.2,0.1-0.3,0.2l-0.1,0.1
	c-0.1,0.1-0.3,0.2-0.4,0.3l-0.1,0c-0.1,0.1-0.3,0.2-0.4,0.3l-0.1,0.1c-0.1,0.1-0.2,0.2-0.3,0.3l-0.1,0.1c-0.1,0.1-0.2,0.2-0.3,0.3
	l-0.1,0.1c-0.1,0.1-0.2,0.3-0.4,0.4l-0.1,0.1c-0.1,0.1-0.2,0.2-0.3,0.3l-0.1,0.1c-0.1,0.1-0.2,0.2-0.2,0.3l-0.1,0.1
	c-0.1,0.1-0.2,0.3-0.3,0.4v0c-0.1,0.1-0.2,0.3-0.3,0.5l-0.1,0.1l-0.1,0.2l-0.1-0.2l-0.1-0.1c-0.1-0.2-0.2-0.3-0.3-0.5l0,0
	c-0.1-0.1-0.2-0.3-0.3-0.4l-0.1-0.1c-0.1-0.1-0.2-0.2-0.2-0.3l-0.1-0.1c-0.1-0.1-0.2-0.2-0.3-0.3l-0.1-0.1c-0.1-0.1-0.2-0.3-0.4-0.4
	l-0.1-0.1c-0.1-0.1-0.2-0.2-0.3-0.3l-0.1-0.1c-0.1-0.1-0.2-0.2-0.3-0.3l-0.1-0.1c-0.1-0.1-0.3-0.2-0.4-0.3l-0.1-0.1
	c-0.1-0.1-0.2-0.2-0.4-0.3l-0.1-0.1c-0.1-0.1-0.2-0.1-0.3-0.2l-0.2-0.1c-0.1-0.1-0.3-0.2-0.4-0.2l0,0c-0.1-0.1-0.3-0.1-0.4-0.2
	C1049.2,93.9,1050.9,92.2,1053.5,90.3z M1054.6,105.6c0,0.3-0.1,0.6-0.3,0.8c-0.2,0.2-0.5,0.3-0.8,0.3c-0.3,0-0.6-0.1-0.8-0.3
	c-0.2-0.2-0.3-0.5-0.3-0.8c0.2-0.8,0.5-1.5,1.1-2l0,0.1l0-0.1C1054.1,104.2,1054.5,104.9,1054.6,105.6z M1039.2,96.2
	c3.2-0.5,5.7-0.5,7.3-0.1l0,0c0,0.1-0.1,0.2-0.1,0.3l0,0.1c0,0.1-0.1,0.3-0.1,0.4l0,0.1c0,0.1-0.1,0.2-0.1,0.4l0,0.1
	c0,0.1-0.1,0.3-0.1,0.4l0,0.1c0,0.1,0,0.3-0.1,0.4l0,0c0,0.1,0,0.3,0,0.4l0,0.1c0,0.1,0,0.3,0,0.4v0c0,0.1,0,0.2,0,0.4v0.1
	c0,0.1,0,0.3,0,0.4v0.1c0,0.1,0,0.2,0,0.4v0.1c0,0.1,0,0.3,0,0.4v0.1c0,0.1,0,0.2,0,0.4l0,0.1c0,0.1,0,0.3,0.1,0.4l0,0.1
	c0,0.1,0,0.3,0.1,0.4v0c0,0.1,0.1,0.3,0.1,0.4l0,0.1c0,0.1,0.1,0.3,0.1,0.4v0c-2.3-0.7-4.8-0.6-7.2,0.2
	C1038.7,101.8,1038.7,99.4,1039.2,96.2z M1038.6,115.3c-0.1,0.1-0.2,0.3-0.2,0.4c-1.5-0.8-3.2-2.6-5.1-5.2c1.9-2.7,3.6-4.4,5.1-5.2
	c1.1,2.2,2.8,4,4.9,5.2l-0.2,0.1l-0.1,0.1c-0.2,0.1-0.3,0.2-0.4,0.3l0,0c-0.1,0.1-0.3,0.2-0.4,0.3l-0.1,0.1
	c-0.1,0.1-0.2,0.2-0.3,0.2l-0.1,0.1c-0.1,0.1-0.2,0.2-0.3,0.3l-0.1,0.1c-0.1,0.1-0.3,0.2-0.4,0.4l-0.1,0.1c-0.1,0.1-0.2,0.2-0.3,0.3
	l-0.1,0.1c-0.1,0.1-0.2,0.2-0.3,0.3l-0.1,0.1c-0.1,0.1-0.2,0.3-0.3,0.4l-0.1,0.1c-0.1,0.1-0.2,0.2-0.3,0.4l-0.1,0.1
	c-0.1,0.1-0.1,0.2-0.2,0.3l-0.1,0.1C1038.8,114.9,1038.7,115.1,1038.6,115.3L1038.6,115.3z M1039.2,124.8c-0.5-3.2-0.5-5.7-0.1-7.3
	c0.2,0.1,0.3,0.1,0.5,0.2l0.1,0c0.1,0,0.3,0.1,0.4,0.1l0.2,0.1c0.1,0,0.2,0,0.3,0.1c0.1,0,0.2,0,0.3,0.1l0.2,0c0.1,0,0.2,0,0.3,0
	l0.2,0c0.1,0,0.3,0,0.4,0l0,0c0.3,0,0.7,0,1,0c1,0,1.9-0.1,2.8-0.3l0,0c0.1,0,0.3-0.1,0.4-0.1v0v0c0,0.1-0.1,0.3-0.1,0.4l0,0.1
	c0,0.1-0.1,0.3-0.1,0.4l0,0c0,0.1,0,0.3-0.1,0.4l0,0.1c0,0.1,0,0.3-0.1,0.4v0c0,0.1,0,0.3,0,0.4l0,0.1c0,0.1,0,0.3,0,0.4v0.1
	c0,0.1,0,0.2,0,0.4v0.1c0,0.1,0,0.3,0,0.4v0.1c0,0.1,0,0.2,0,0.3v0.1c0,0.1,0,0.3,0,0.4v0.1c0,0.1,0,0.2,0,0.4v0.1
	c0,0.1,0,0.3,0.1,0.4l0,0.1c0,0.1,0,0.3,0.1,0.4v0c0,0.1,0.1,0.3,0.1,0.4l0,0.1c0,0.1,0.1,0.3,0.1,0.4l0,0c0,0.1,0.1,0.2,0.1,0.4
	l0,0.1C1044.8,125.3,1042.4,125.3,1039.2,124.8z M1053.5,130.7c-2.6-1.9-4.4-3.6-5.2-5.1c0.2-0.1,0.3-0.2,0.4-0.2l0.1-0.1
	c0.1-0.1,0.2-0.1,0.4-0.2l0.2-0.1c0.1-0.1,0.2-0.1,0.3-0.2l0.1-0.1c0.1-0.1,0.3-0.2,0.4-0.3l0,0c0.1-0.1,0.3-0.2,0.4-0.3l0.1-0.1
	c0.1-0.1,0.2-0.2,0.3-0.2l0.1-0.1c0.1-0.1,0.2-0.2,0.3-0.3l0.1-0.1c0.1-0.1,0.2-0.3,0.4-0.4l0.1-0.1c0.1-0.1,0.2-0.2,0.3-0.3
	l0.1-0.1c0.1-0.1,0.2-0.2,0.2-0.3l0.1-0.1c0.1-0.1,0.2-0.3,0.3-0.4l0,0c0.1-0.1,0.2-0.3,0.3-0.4l0.1-0.1l0.1-0.2l0.1,0.2l0.1,0.1
	c0.1,0.2,0.2,0.3,0.3,0.5l0,0c0.1,0.1,0.2,0.3,0.3,0.4l0.1,0.1c0.1,0.1,0.2,0.2,0.2,0.3l0.1,0.1c0.1,0.1,0.2,0.2,0.3,0.3l0.1,0.1
	c0.1,0.1,0.2,0.3,0.4,0.4l0.1,0.1c0.1,0.1,0.2,0.2,0.3,0.3l0.1,0.1c0.1,0.1,0.2,0.2,0.3,0.3l0.1,0.1c0.1,0.1,0.3,0.2,0.4,0.3l0.1,0
	c0.1,0.1,0.3,0.2,0.4,0.3l0.1,0.1c0.1,0.1,0.2,0.1,0.3,0.2l0.1,0.1c0.1,0.1,0.3,0.2,0.4,0.2l0.1,0c0.1,0.1,0.3,0.1,0.4,0.2
	C1057.8,127.1,1056.1,128.8,1053.5,130.7z M1052.4,115.4c0-0.3,0.1-0.6,0.3-0.8c0.2-0.2,0.5-0.3,0.8-0.3c0.3,0,0.6,0.1,0.8,0.3
	c0.2,0.2,0.3,0.5,0.3,0.8c-0.2,0.8-0.5,1.5-1.1,2l0-0.1l0,0.1C1052.9,116.8,1052.5,116.1,1052.4,115.4z M1060.3,116.2
	c-0.2-0.1-0.3-0.1-0.5-0.2l-1.5-0.7l0.6,1.5c0.1,0.2,0.1,0.3,0.2,0.5l0.1,0.2c0,0.1,0.1,0.2,0.1,0.3l0.1,0.2c0,0.1,0.1,0.2,0.1,0.3
	l0,0.2c0,0.1,0.1,0.2,0.1,0.3l0,0.2c0,0.1,0,0.2,0.1,0.3l0,0.2c0,0.1,0,0.2,0,0.3l0,0.2c0,0.1,0,0.2,0,0.3l0,0.2c0,0.1,0,0.2,0,0.3
	v0.2c0,0.1,0,0.2,0,0.3l0,0.2c0,0.1,0,0.2,0,0.3l0,0.2c0,0.2,0,0.3,0,0.5l0,0c0,0.2-0.1,0.3-0.1,0.5l0,0.2c0,0.1,0,0.2-0.1,0.3
	l0,0.2c0,0.1-0.1,0.2-0.1,0.3l-0.1,0.2l-0.1,0.2l-0.2-0.1l-0.2-0.1c-0.1,0-0.2-0.1-0.3-0.2l-0.2-0.1c-0.1-0.1-0.2-0.1-0.3-0.2
	l-0.2-0.1c-0.1-0.1-0.3-0.2-0.4-0.3l0,0c-0.1-0.1-0.3-0.2-0.4-0.3l-0.1-0.1c-0.1-0.1-0.2-0.1-0.2-0.2l-0.2-0.1l-0.2-0.2l-0.1-0.2
	l-0.2-0.2l-0.1-0.2l-0.2-0.2l-0.1-0.2l-0.2-0.2l-0.1-0.2l-0.2-0.2l-0.1-0.2c-0.1-0.1-0.1-0.2-0.2-0.2l-0.1-0.2
	c-0.1-0.1-0.1-0.2-0.2-0.3l-0.1-0.2c-0.1-0.1-0.1-0.2-0.2-0.3l-0.1-0.2c-0.1-0.2-0.1-0.3-0.2-0.5l0,0c0.9-1,1.9-2.3,1.9-3.4
	c0-0.7-0.3-1.3-0.7-1.7c-0.5-0.5-1.1-0.7-1.8-0.7s-1.3,0.3-1.8,0.7c-0.5,0.5-0.7,1.1-0.7,1.7c0,1.1,1,2.4,1.8,3.4l0,0
	c-0.1,0.2-0.1,0.3-0.2,0.5l-0.1,0.2c0,0.1-0.1,0.2-0.1,0.3l-0.1,0.2c0,0.1-0.1,0.2-0.1,0.3l-0.1,0.2c0,0.1-0.1,0.2-0.1,0.2l-0.1,0.2
	l-0.2,0.2l-0.1,0.2l-0.2,0.2l-0.1,0.2l-0.2,0.2l-0.1,0.2l-0.2,0.2l-0.2,0.2l-0.2,0.2l-0.2,0.1l-0.2,0.2l-0.1,0.1
	c-0.1,0.1-0.2,0.1-0.3,0.2l-0.1,0.1c-0.1,0.1-0.3,0.2-0.4,0.3l-0.1,0c-0.1,0.1-0.2,0.2-0.4,0.2l-0.2,0.1c-0.1,0.1-0.2,0.1-0.3,0.2
	l-0.2,0.1l-0.2,0.1l-0.1-0.2l-0.1-0.2c0-0.1-0.1-0.2-0.1-0.3l-0.1-0.2c0-0.1-0.1-0.2-0.1-0.3l0-0.2c0-0.2-0.1-0.3-0.1-0.5l0,0
	c0-0.2,0-0.3-0.1-0.5l0-0.2c0-0.1,0-0.2,0-0.3v-0.2c0-0.1,0-0.2,0-0.3v-0.2c0-0.1,0-0.2,0-0.3l0-0.2c0-0.1,0-0.2,0-0.3l0-0.2
	c0-0.1,0-0.2,0-0.3l0-0.2c0-0.1,0-0.2,0.1-0.3l0.1-0.2c0-0.1,0-0.2,0.1-0.3l0.1-0.2c0-0.1,0.1-0.2,0.1-0.3l0.1-0.2
	c0-0.1,0.1-0.2,0.1-0.3l0.1-0.2c0.1-0.2,0.1-0.3,0.2-0.5l0.7-1.5l-1.5,0.6c-0.2,0.1-0.3,0.1-0.5,0.2l-0.2,0.1
	c-0.1,0-0.2,0.1-0.3,0.1l-0.2,0.1c-0.1,0-0.2,0.1-0.3,0.1l-0.2,0c-0.1,0-0.2,0.1-0.3,0.1l-0.1,0c-0.1,0-0.3,0-0.4,0.1l-0.1,0
	c-0.2,0-0.3,0-0.4,0.1l-0.1,0c-0.3,0-0.7,0.1-1,0.1c-0.7,0-1.4-0.1-2-0.2l-0.1,0c-0.1,0-0.2,0-0.3-0.1l-0.2-0.1
	c-0.1,0-0.2,0-0.3-0.1l-0.2-0.1l-0.2-0.1l0.1-0.2l0.1-0.2c0.1-0.1,0.1-0.2,0.2-0.3l0.1-0.2c0.1-0.1,0.1-0.2,0.2-0.3l0.1-0.1
	c0.1-0.1,0.2-0.3,0.3-0.4c0.1-0.1,0.2-0.3,0.3-0.4l0.1-0.1c0.1-0.1,0.1-0.2,0.2-0.3l0.1-0.1l0.2-0.2l0.2-0.1l0.2-0.2l0.2-0.1
	l0.2-0.2l0.2-0.1l0.2-0.2l0.2-0.1c0.1-0.1,0.2-0.1,0.2-0.2l0.2-0.1c0.1-0.1,0.2-0.1,0.3-0.2l0.2-0.1c0.1-0.1,0.2-0.1,0.3-0.2
	l0.2-0.1c0.1-0.1,0.2-0.1,0.3-0.2l0.1-0.1c0.2-0.1,0.3-0.1,0.5-0.2l0,0c1,0.9,2.3,1.9,3.4,1.9c0.7,0,1.3-0.3,1.8-0.7
	c0.5-0.5,0.7-1.1,0.7-1.8s-0.3-1.3-0.7-1.8c-0.5-0.5-1.1-0.7-1.8-0.7c-1.1,0-2.4,1-3.4,1.8l0,0c-2.4-1-4.3-2.8-5.5-5.1
	c2.4-0.8,5.1-0.7,7.5,0.3l1.5,0.7l-0.6-1.5c-0.1-0.2-0.1-0.3-0.2-0.5l-0.1-0.2c0-0.1-0.1-0.2-0.1-0.3l-0.1-0.2
	c0-0.1-0.1-0.2-0.1-0.3l0-0.2c0-0.1,0-0.2-0.1-0.3l0-0.2c0-0.1,0-0.2-0.1-0.3l0-0.2c0-0.1,0-0.2,0-0.3l0-0.2c0-0.1,0-0.2,0-0.3
	l0-0.2c0-0.1,0-0.2,0-0.3V100c0-0.1,0-0.2,0-0.3l0-0.2c0-0.1,0-0.2,0-0.3l0-0.2c0-0.1,0-0.2,0-0.3l0-0.2c0-0.2,0.1-0.3,0.1-0.5
	l0-0.1c0-0.1,0.1-0.3,0.1-0.4l0-0.2c0-0.1,0.1-0.2,0.1-0.3l0.1-0.2l0.1-0.2l0.2,0.1l0.2,0.1c0.1,0.1,0.2,0.1,0.3,0.2l0.2,0.1
	c0.1,0.1,0.2,0.1,0.3,0.2l0.1,0.1c0.1,0.1,0.3,0.2,0.4,0.3l0,0c0.1,0.1,0.3,0.2,0.4,0.3l0.1,0.1c0.1,0.1,0.2,0.1,0.3,0.2l0.2,0.1
	l0.2,0.2l0.1,0.2l0.2,0.2l0.1,0.2l0.2,0.2l0.1,0.2l0.2,0.2l0.1,0.2l0.2,0.2l0.1,0.2c0.1,0.1,0.1,0.2,0.2,0.2l0.1,0.2
	c0.1,0.1,0.1,0.2,0.2,0.3l0.1,0.2c0.1,0.1,0.1,0.2,0.2,0.3l0.1,0.2c0.1,0.2,0.1,0.3,0.2,0.5l0,0c-0.9,1-1.9,2.3-1.9,3.4
	c0,0.7,0.3,1.3,0.7,1.7c0.5,0.5,1.1,0.7,1.8,0.7s1.3-0.3,1.8-0.7c0.5-0.5,0.7-1.1,0.7-1.7c0-1.1-1-2.4-1.8-3.4l0,0
	c0.1-0.2,0.1-0.3,0.2-0.5l0.1-0.2c0-0.1,0.1-0.2,0.2-0.3l0.1-0.2c0-0.1,0.1-0.2,0.1-0.3l0.1-0.2c0-0.1,0.1-0.2,0.2-0.2l0.1-0.2
	l0.2-0.2l0.1-0.2l0.2-0.2l0.1-0.2l0.2-0.2l0.1-0.2l0.2-0.2l0.2-0.2l0.2-0.2l0.2-0.1c0.1-0.1,0.2-0.1,0.3-0.2l0.1-0.1
	c0.1-0.1,0.2-0.2,0.4-0.3l0,0c0.1-0.1,0.3-0.2,0.4-0.3l0.1-0.1c0.1-0.1,0.2-0.1,0.3-0.2l0.2-0.1c0.1-0.1,0.2-0.1,0.3-0.2l0.2-0.1
	l0.2-0.1l0.1,0.2l0.1,0.2c0,0.1,0.1,0.2,0.1,0.3l0.1,0.2c0,0.1,0.1,0.2,0.1,0.3l0,0.2c0,0.2,0.1,0.3,0.1,0.5l0,0
	c0,0.2,0,0.3,0.1,0.5l0,0.2c0,0.1,0,0.2,0,0.3v0.2c0,0.1,0,0.2,0,0.3v0.2c0,0.1,0,0.2,0,0.3l0,0.2c0,0.1,0,0.2,0,0.3l0,0.2
	c0,0.1,0,0.2,0,0.3l0,0.2c0,0.1,0,0.2-0.1,0.3l0,0.2c0,0.1,0,0.2-0.1,0.3l-0.1,0.2c0,0.1-0.1,0.2-0.1,0.3l-0.1,0.2
	c0,0.1-0.1,0.2-0.1,0.3l-0.1,0.2c-0.1,0.2-0.1,0.3-0.2,0.5l-0.6,1.5l1.5-0.6c0.2-0.1,0.3-0.1,0.5-0.2l0.2-0.1c0.1,0,0.2-0.1,0.3-0.1
	l0.2,0c0.1,0,0.2-0.1,0.3-0.1l0.1,0c0.1,0,0.2-0.1,0.4-0.1l0.1,0c0.1,0,0.3-0.1,0.4-0.1l0.1,0c0.1,0,0.3,0,0.5-0.1l0,0
	c0.3,0,0.7-0.1,1-0.1c0.7,0,1.4,0.1,2.1,0.2l0.1,0c0.1,0,0.3,0.1,0.4,0.1l0.2,0c0.1,0,0.2,0.1,0.3,0.1l0.2,0.1l0.2,0.1l-0.1,0.2
	l-0.1,0.2c-0.1,0.1-0.1,0.2-0.2,0.3l-0.1,0.2c-0.1,0.1-0.1,0.2-0.2,0.3l-0.1,0.1c-0.1,0.1-0.2,0.3-0.3,0.4l0,0
	c-0.1,0.1-0.2,0.3-0.3,0.4l-0.1,0.1c-0.1,0.1-0.1,0.2-0.2,0.3l-0.1,0.1l-0.2,0.2l-0.2,0.1l-0.2,0.2l-0.2,0.1l-0.2,0.2l-0.2,0.1
	l-0.2,0.2l-0.2,0.1c-0.1,0.1-0.2,0.1-0.2,0.2l-0.2,0.1c-0.1,0.1-0.2,0.1-0.2,0.2l-0.2,0.1c-0.1,0.1-0.2,0.1-0.3,0.1l-0.2,0.1
	c-0.1,0.1-0.2,0.1-0.3,0.1l-0.2,0.1c-0.2,0.1-0.3,0.1-0.5,0.2l0,0l0,0c-1-0.9-2.3-1.9-3.4-1.9c-0.7,0-1.3,0.3-1.8,0.7
	c-0.5,0.5-0.7,1.1-0.7,1.8s0.3,1.3,0.7,1.8c0.5,0.5,1.1,0.7,1.8,0.7c1.1,0,2.4-1,3.4-1.8l0,0c0.2,0.1,0.3,0.1,0.5,0.2l0.1,0.1
	c0.1,0,0.2,0.1,0.3,0.2l0.2,0.1c0.1,0,0.2,0.1,0.3,0.1l0.2,0.1c0.1,0.1,0.2,0.1,0.3,0.2l0.2,0.1c0.1,0.1,0.2,0.1,0.2,0.2l0.2,0.1
	l0.2,0.2l0.2,0.1l0.2,0.2l0.2,0.1l0.2,0.2l0.2,0.1l0.2,0.2l0.1,0.1c0.1,0.1,0.2,0.2,0.2,0.3l0.1,0.1c0.1,0.1,0.2,0.3,0.3,0.4l0,0
	c0.1,0.1,0.2,0.3,0.3,0.4l0.1,0.1c0.1,0.1,0.1,0.2,0.2,0.3l0.1,0.2c0.1,0.1,0.1,0.2,0.2,0.3l0.1,0.2l0.1,0.2l-0.2,0.1l-0.2,0.1
	c-0.1,0-0.2,0.1-0.3,0.1l-0.2,0c-0.1,0-0.2,0.1-0.3,0.1l-0.1,0c-0.7,0.1-1.3,0.2-2,0.2c-0.3,0-0.7,0-1.1-0.1l0,0
	c-0.2,0-0.3,0-0.5-0.1l-0.1,0c-0.1,0-0.3,0-0.4-0.1l-0.1,0c-0.1,0-0.2-0.1-0.4-0.1l-0.2,0c-0.1,0-0.2-0.1-0.3-0.1l-0.2-0.1
	c-0.1,0-0.2-0.1-0.3-0.1L1060.3,116.2z M1046.6,110.5c0.5-0.5,1.2-0.9,2-1.1c0.3,0,0.6,0.1,0.8,0.3c0.2,0.2,0.3,0.5,0.3,0.8
	s-0.1,0.6-0.3,0.8s-0.5,0.3-0.8,0.3C1047.8,111.5,1047.2,111.1,1046.6,110.5L1046.6,110.5L1046.6,110.5z M1060.4,110.5
	c-0.5,0.5-1.2,0.9-2,1.1c-0.3,0-0.6-0.1-0.8-0.3s-0.3-0.5-0.3-0.8s0.1-0.6,0.3-0.8c0.2-0.2,0.5-0.3,0.8-0.3
	C1059.2,109.5,1059.8,109.9,1060.4,110.5L1060.4,110.5L1060.4,110.5z M1067.8,124.8c-1.5,0.2-2.9,0.4-4.4,0.4c-1,0-2-0.1-2.9-0.3
	l0-0.1c0-0.1,0.1-0.2,0.1-0.4l0,0c0-0.1,0.1-0.3,0.1-0.4l0-0.1c0-0.1,0.1-0.3,0.1-0.4v0c0-0.1,0.1-0.3,0.1-0.4l0-0.1
	c0-0.1,0-0.3,0.1-0.4l0,0c0-0.1,0-0.2,0-0.4v-0.1c0-0.1,0-0.3,0-0.4v-0.1c0-0.1,0-0.2,0-0.4v-0.1c0-0.1,0-0.3,0-0.4l0-0.1
	c0-0.1,0-0.2,0-0.4l0-0.1c0-0.1,0-0.3,0-0.4l0-0.1c0-0.1,0-0.3,0-0.4v0c0-0.1,0-0.3-0.1-0.4l0-0.1c0-0.1,0-0.3-0.1-0.4v0
	c0-0.1-0.1-0.3-0.1-0.4l0-0.1c0-0.1-0.1-0.3-0.1-0.4v0l0,0c1.1,0.3,2.2,0.5,3.3,0.5c0.8,0,1.6-0.1,2.4-0.3l0,0
	c0.2,0,0.3-0.1,0.5-0.1l0,0c0.2,0,0.3-0.1,0.4-0.1l0,0c0.1,0,0.3-0.1,0.4-0.1l0,0C1068.3,119.2,1068.3,121.6,1067.8,124.8z
	 M1073.7,110.5c-1.9,2.6-3.6,4.4-5.1,5.2c-0.1-0.1-0.1-0.3-0.2-0.4l0-0.1c-0.1-0.1-0.2-0.3-0.2-0.4l-0.1-0.1
	c-0.1-0.1-0.1-0.2-0.2-0.3l-0.1-0.1c-0.1-0.1-0.2-0.2-0.3-0.4l0-0.1c-0.1-0.1-0.2-0.3-0.3-0.4l-0.1-0.1c-0.1-0.1-0.2-0.2-0.3-0.3
	l-0.1-0.1c-0.1-0.1-0.2-0.2-0.3-0.3l-0.1-0.1c-0.1-0.1-0.3-0.2-0.4-0.4l-0.1-0.1c-0.1-0.1-0.2-0.2-0.3-0.3l-0.1-0.1
	c-0.1-0.1-0.2-0.2-0.3-0.2l-0.1-0.1c-0.1-0.1-0.3-0.2-0.4-0.3l0,0c-0.1-0.1-0.3-0.2-0.4-0.3l-0.1-0.1l-0.2-0.1l0.2-0.1l0.1-0.1
	c0.2-0.1,0.3-0.2,0.4-0.3l0,0c0.1-0.1,0.3-0.2,0.4-0.3l0.1-0.1c0.1-0.1,0.2-0.2,0.3-0.2l0.1-0.1c0.1-0.1,0.2-0.2,0.3-0.3l0.1-0.1
	c0.1-0.1,0.3-0.2,0.4-0.4l0.1-0.1c0.1-0.1,0.2-0.2,0.3-0.3l0.1-0.1c0.1-0.1,0.2-0.2,0.3-0.3l0.1-0.1c0.1-0.1,0.2-0.3,0.3-0.4l0-0.1
	c0.1-0.1,0.2-0.2,0.3-0.4l0.1-0.1c0.1-0.1,0.1-0.2,0.2-0.3l0.1-0.1c0.1-0.1,0.2-0.3,0.2-0.4l0,0c0.1-0.1,0.2-0.3,0.2-0.4
	C1070.1,106.2,1071.8,107.9,1073.7,110.5z"/>
<path class="st1" d="M1038,95l0.3-0.1l-5.2-5.2h-0.4v0.4l5.2,5.2L1038,95z"/>
<path class="st1" d="M1038,95l0.3-0.1l0,0L1038,95l-0.1,0.4l0,0L1038,95z"/>
<path class="st1" d="M1069,95L1069,95L1069,95l0.1,0.3l5.2-5.1v-0.4h-0.4l-5.2,5.1L1069,95z"/>
<path class="st1" d="M1069,95l0.1,0.3v0L1069,95L1069,95z"/>
<path class="st1" d="M1068.9,126L1068.9,126L1068.9,126l-0.1,0l-0.2,0l5.2,5.1h0.4v-0.4l-5.2-5.2L1068.9,126z"/>
<path class="st1" d="M1068.9,126L1068.9,126l-0.1,0L1068.9,126z"/>
<path class="st1" d="M1038,126l-0.1-0.3l-5.1,5.2v0.4h0.4l5.1-5.2L1038,126z"/>
<path class="st1" d="M1038,126l-0.1-0.4v0L1038,126l0.3,0.1v0L1038,126z"/>
<path class="st1" d="M1086.6,102.5c-1.4-1.9-3.3-3.4-5.5-4.3V82.9h-15.3c-0.9-2.2-2.4-4.1-4.3-5.5c-2.3-1.7-5.1-2.7-8-2.7
	s-5.7,0.9-8,2.7c-1.9,1.4-3.4,3.3-4.3,5.5h-15.3v15.3c-2.2,0.9-4.1,2.4-5.5,4.3c-1.7,2.3-2.7,5.1-2.7,8c0,2.9,0.9,5.7,2.7,8
	c1.4,1.9,3.3,3.4,5.5,4.3v15.3h15.3c0.9,2.2,2.4,4.1,4.3,5.5c2.3,1.7,5.1,2.7,8,2.7s5.7-0.9,8-2.7c1.9-1.4,3.4-3.3,4.3-5.5h15.3
	v-15.3c2.2-0.9,4.1-2.4,5.5-4.3c1.7-2.3,2.7-5.1,2.7-8C1089.3,107.6,1088.4,104.8,1086.6,102.5z M1078.7,119.6l-1.5,0.5v14.2h-14.2
	l-0.5,1.5c-0.6,1.9-1.8,3.7-3.4,4.9c-1.6,1.2-3.6,1.9-5.7,1.9s-4-0.7-5.7-1.9c-1.6-1.2-2.8-2.9-3.4-4.9l-0.5-1.5h-14.2v-14.2
	l-1.5-0.5c-2-0.6-3.7-1.8-4.9-3.4c-1.2-1.6-1.9-3.6-1.9-5.7c0-2,0.7-4,1.9-5.7c1.2-1.6,2.9-2.8,4.9-3.4l1.5-0.5V86.8h14.2l0.5-1.5
	c0.6-1.9,1.8-3.7,3.4-4.9c1.6-1.2,3.6-1.9,5.7-1.9s4,0.7,5.7,1.9c1.6,1.2,2.8,2.9,3.4,4.9l0.5,1.5h14.2v14.2l1.5,0.5
	c2,0.6,3.7,1.8,4.9,3.4c1.2,1.6,1.9,3.6,1.9,5.7c0,2-0.7,4-1.9,5.7C1082.4,117.8,1080.7,119,1078.7,119.6z"/>
<path class="st1" d="M1053.5,74L1053.5,74L1053.5,74L1053.5,74z"/>
<path class="st1" d="M1087.2,102.1c-1.4-1.9-3.3-3.4-5.4-4.3V82.2h-15.5c-1-2.1-2.5-4-4.4-5.4c-2.4-1.8-5.4-2.8-8.4-2.8h0
	c-3,0-6,1-8.4,2.8c-1.9,1.4-3.4,3.3-4.4,5.4h-15.5v15.5c-2.1,1-4,2.5-5.4,4.3c-1.8,2.4-2.8,5.4-2.8,8.4c0,3,1,6,2.8,8.4
	c1.4,1.9,3.3,3.4,5.4,4.3v15.5h15.5c1,2.1,2.5,4,4.4,5.4c2.4,1.8,5.4,2.8,8.4,2.8s6-1,8.4-2.8c1.9-1.4,3.4-3.3,4.4-5.4h15.5v-15.5
	c2.1-1,4-2.5,5.4-4.3c1.8-2.4,2.8-5.4,2.8-8.4v0C1090,107.4,1089,104.5,1087.2,102.1z M1086.9,118.7c-1.4,1.9-3.3,3.4-5.5,4.3v15.4
	h-15.4c-1,2.2-2.4,4-4.3,5.5c-2.4,1.8-5.3,2.7-8.2,2.7s-5.9-1-8.2-2.7c-1.9-1.4-3.4-3.3-4.3-5.5h-15.4v-15.4c-2.2-1-4-2.4-5.5-4.3
	c-1.8-2.4-2.7-5.3-2.7-8.2c0-3,1-5.9,2.7-8.2c1.4-1.9,3.3-3.4,5.5-4.3V82.6h15.4c1-2.2,2.4-4,4.3-5.5c2.4-1.8,5.3-2.7,8.2-2.7
	s5.9,1,8.2,2.7c1.9,1.4,3.4,3.3,4.3,5.5h15.4v15.4c2.2,1,4,2.4,5.5,4.3c1.8,2.4,2.8,5.3,2.8,8.2
	C1089.7,113.5,1088.7,116.4,1086.9,118.7z"/>
<path class="st1" d="M1086.9,102.3c-1.4-1.9-3.3-3.4-5.5-4.3V82.6h-15.4c-1-2.2-2.4-4-4.3-5.5c-2.4-1.8-5.3-2.7-8.2-2.7
	s-5.9,1-8.2,2.7c-1.9,1.4-3.4,3.3-4.3,5.5h-15.4v15.4c-2.2,1-4,2.4-5.5,4.3c-1.8,2.4-2.8,5.3-2.8,8.2c0,3,1,5.9,2.8,8.2
	c1.4,1.9,3.3,3.4,5.5,4.3v15.4h15.4c1,2.2,2.4,4,4.3,5.5c2.4,1.8,5.3,2.7,8.2,2.7s5.9-1,8.2-2.7c1.9-1.4,3.4-3.3,4.3-5.5h15.4v-15.4
	c2.2-1,4-2.4,5.5-4.3c1.8-2.4,2.8-5.3,2.8-8.2C1089.7,107.5,1088.7,104.6,1086.9,102.3z M1086.6,118.5c-1.4,1.9-3.3,3.4-5.5,4.3
	v15.3h-15.3c-0.9,2.2-2.4,4.1-4.3,5.5c-2.3,1.7-5.1,2.7-8,2.7s-5.7-0.9-8-2.7c-1.9-1.4-3.4-3.3-4.3-5.5h-15.3v-15.3
	c-2.2-0.9-4.1-2.4-5.5-4.3c-1.7-2.3-2.7-5.1-2.7-8c0-2.9,0.9-5.7,2.7-8c1.4-1.9,3.3-3.4,5.5-4.3V82.9h15.3c0.9-2.2,2.4-4.1,4.3-5.5
	c2.3-1.7,5.1-2.7,8-2.7s5.7,0.9,8,2.7c1.9,1.4,3.4,3.3,4.3,5.5h15.3v15.3c2.2,0.9,4.1,2.4,5.5,4.3c1.7,2.3,2.7,5.1,2.7,8
	C1089.3,113.4,1088.4,116.2,1086.6,118.5L1086.6,118.5z"/>
<path class="st1" d="M1078.2,103l-2.6-0.8V88.4h-13.8l-0.8-2.6c-0.5-1.6-1.5-3-2.8-4c-1.4-1-3-1.5-4.7-1.5s-3.3,0.5-4.7,1.5
	c-1.4,1-2.4,2.4-2.8,4l-0.8,2.6h-13.8v13.8l-2.6,0.8c-1.6,0.5-3,1.5-4,2.8c-1,1.4-1.5,3-1.5,4.7s0.5,3.3,1.5,4.7
	c1,1.4,2.4,2.4,4,2.8l2.6,0.8v13.8h13.8l0.8,2.6c0.5,1.6,1.5,3,2.8,4c1.4,1,3,1.5,4.7,1.5s3.3-0.5,4.7-1.5c1.4-1,2.4-2.4,2.8-4
	l0.8-2.6h13.8v-13.8l2.6-0.8c1.6-0.5,3-1.5,4-2.8c1-1.4,1.5-3,1.5-4.7s-0.5-3.3-1.5-4.7C1081.3,104.5,1079.8,103.5,1078.2,103z
	 M1077.8,116.7l-3.6,1.1v13l1.2,1.2v0v0.4h-0.4l-1.2-1.2h-13l-1.1,3.6c-0.4,1.3-1.2,2.5-2.3,3.3c-1.1,0.8-2.5,1.3-3.8,1.3
	c-1.4,0-2.7-0.4-3.8-1.3c-1.1-0.8-1.9-2-2.3-3.3l-1.1-3.6h-13l-1.2,1.2h-0.4V132l1.2-1.2v-13l-3.6-1.1c-1.3-0.4-2.5-1.2-3.3-2.3
	c-0.8-1.1-1.3-2.5-1.3-3.8s0.5-2.7,1.3-3.8c0.8-1.1,2-1.9,3.3-2.3l3.6-1.1v-13l-1.2-1.2l0,0v-0.4h0.4l1.2,1.2h13l1.1-3.6
	c0.4-1.3,1.2-2.5,2.3-3.3c1.1-0.8,2.5-1.3,3.8-1.3s2.7,0.4,3.8,1.3c1.1,0.8,1.9,2,2.3,3.3l1.1,3.6h13l1.2-1.2h0.4V89l-1.2,1.2v13
	l3.6,1.1c1.3,0.4,2.5,1.2,3.3,2.3c0.8,1.1,1.3,2.5,1.3,3.8s-0.5,2.7-1.3,3.8C1080.3,115.5,1079.2,116.3,1077.8,116.7L1077.8,116.7z"
	/>
<path class="st1" d="M1033.2,89.8l-1.2-1.2h-0.4V89l0,0l1.2,1.2v-0.4H1033.2z"/>
<path class="st1" d="M1074.2,90.2l1.2-1.2v-0.4h-0.4l-1.2,1.2h0.4V90.2z"/>
<path class="st1" d="M1073.8,131.2l1.2,1.2h0.4V132l0,0l-1.2-1.2v0.4H1073.8z"/>
<path class="st1" d="M1032.8,130.8l-1.2,1.2v0.4h0.4l1.2-1.2h-0.4V130.8z"/>
</svg>
