<?xml version="1.0" encoding="utf-8"?>
<!-- Generator: Adobe Illustrator 22.1.0, SVG Export Plug-In . SVG Version: 6.00 Build 0)  -->
<svg version="1.1" id="Слой_1" xmlns="http://www.w3.org/2000/svg" xmlns:xlink="http://www.w3.org/1999/xlink" x="0px" y="0px"
	 viewBox="0 0 1166 512" style="enable-background:new 0 0 1166 512;" xml:space="preserve">
<style type="text/css">
	.st0{fill:#2C3B8C;}
	.st1{fill:#E7533B;}
	.st2{fill:#6678D6;}
</style>
<path class="st0" d="M585.4,73.4c-0.7-4.2-3.4-15.1-11.2-22.9c-7.9-7.9-18.8-10.5-22.9-11.2c0.7,4.2,3.4,15.1,11.2,22.9
	C570.3,70.1,581.3,72.7,585.4,73.4z"/>
<path class="st0" d="M585.4,76.6c-4.2,0.7-15.1,3.4-22.9,11.2c-7.9,7.9-10.5,18.8-11.2,22.9c4.2-0.7,15.1-3.4,22.9-11.2
	C582.1,91.7,584.7,80.7,585.4,76.6z"/>
<path class="st0" d="M514,148c4.2-0.7,15.1-3.4,22.9-11.2c7.8-7.8,10.5-18.8,11.2-22.9c-4.2,0.7-15.1,3.4-22.9,11.2
	C517.4,132.9,514.7,143.8,514,148z"/>
<path class="st0" d="M551.3,113.9c0.7,4.2,3.4,15.1,11.2,22.9c7.8,7.8,18.8,10.5,22.9,11.2c-0.7-4.2-3.4-15.1-11.2-22.9
	C566.4,117.2,555.5,114.6,551.3,113.9z"/>
<path class="st0" d="M514,73.4c4.2-0.7,15.1-3.4,22.9-11.2c7.9-7.9,10.5-18.8,11.2-22.9c-4.2,0.7-15.1,3.4-22.9,11.2
	C517.4,58.4,514.7,69.3,514,73.4z"/>
<path class="st0" d="M514,76.6c0.7,4.2,3.4,15.1,11.2,22.9c7.9,7.9,18.8,10.5,22.9,11.2c-0.7-4.2-3.4-15.1-11.2-22.9
	C529.1,79.9,518.2,77.3,514,76.6z"/>
<path class="st0" d="M514,2c0.7,4.2,3.4,15.1,11.2,22.9c7.9,7.9,18.8,10.5,22.9,11.2c-0.7-4.2-3.4-15.1-11.2-22.9
	C529.1,5.4,518.2,2.7,514,2z"/>
<path class="st0" d="M585.4,2c-4.2,0.7-15.1,3.4-22.9,11.2c-7.8,7.8-10.5,18.8-11.2,22.9c4.2-0.7,15.1-3.4,22.9-11.2
	C582.1,17.1,584.7,6.2,585.4,2z"/>
<path class="st0" d="M625.9,110.7c4.2-0.7,15.1-3.4,22.9-11.2c7.8-7.8,10.5-18.8,11.2-22.9c-4.2,0.7-15.1,3.4-22.9,11.2
	C629.2,95.6,626.6,106.5,625.9,110.7z"/>
<path class="st0" d="M625.9,36.1c4.2-0.7,15.1-3.4,22.9-11.2C656.6,17.1,659.3,6.2,660,2c-4.2,0.7-15.1,3.4-22.9,11.2
	C629.2,21.1,626.6,32,625.9,36.1z"/>
<path class="st0" d="M625.9,39.3c0.7,4.2,3.4,15.1,11.2,22.9c7.8,7.8,18.8,10.5,22.9,11.2c-0.7-4.2-3.4-15.1-11.2-22.9
	C640.9,42.6,630,40,625.9,39.3z"/>
<path class="st0" d="M625.9,113.9c0.7,4.2,3.4,15.1,11.2,22.9c7.8,7.8,18.8,10.5,22.9,11.2c-0.7-4.2-3.4-15.1-11.2-22.9
	C640.9,117.2,630,114.6,625.9,113.9z"/>
<path class="st0" d="M622.7,39.3c-4.2,0.7-15.1,3.4-22.9,11.2c-7.9,7.9-10.5,18.8-11.2,22.9c4.2-0.7,15.1-3.4,22.9-11.2
	C619.4,54.4,622,43.4,622.7,39.3z"/>
<path class="st0" d="M588.6,2c0.7,4.2,3.4,15.1,11.2,22.9c7.9,7.9,18.8,10.5,22.9,11.2c-0.7-4.2-3.4-15.1-11.2-22.9
	C603.6,5.4,592.7,2.7,588.6,2z"/>
<path class="st0" d="M588.6,76.6c0.7,4.2,3.4,15.1,11.2,22.9c7.9,7.9,18.8,10.5,22.9,11.2c-0.7-4.2-3.4-15.1-11.2-22.9
	C603.7,79.9,592.7,77.3,588.6,76.6z"/>
<path class="st0" d="M588.6,148c4.2-0.7,15.1-3.4,22.9-11.2c7.9-7.9,10.5-18.8,11.2-22.9c-4.2,0.7-15.1,3.4-22.9,11.2
	C591.9,132.9,589.3,143.8,588.6,148z"/>
<path class="st1" d="M1017.3,401.5c0.4,0.2,0.8,0.2,1.2,0.1c0.4-0.1,0.8-0.3,1-0.6l31.6-31.6c0.3-0.3,0.5-0.6,0.6-1
	c0.1-0.4,0-0.8-0.1-1.2c-0.2-0.4-0.4-0.7-0.7-0.9c-0.3-0.2-0.7-0.3-1.1-0.3H1018c-0.5,0-1.1,0.2-1.4,0.6c-0.4,0.4-0.6,0.9-0.6,1.4
	v31.6c0,0.4,0.1,0.8,0.3,1.1C1016.6,401.1,1016.9,401.4,1017.3,401.5z"/>
<path class="st1" d="M1017.1,418.1c0.2,0.2,0.6,0.4,0.9,0.4c0.3,0,0.7-0.1,0.9-0.4l49.2-49.2c0.1-0.1,0.2-0.3,0.3-0.4
	c0.1-0.2,0.1-0.3,0.1-0.5c0-0.2,0-0.3-0.1-0.5c-0.1-0.2-0.2-0.3-0.3-0.4c-0.1-0.1-0.3-0.2-0.4-0.3c-0.2-0.1-0.3-0.1-0.5-0.1
	c-0.2,0-0.3,0-0.5,0.1c-0.2,0.1-0.3,0.2-0.4,0.3l-49.2,49.2c-0.3,0.2-0.4,0.6-0.4,0.9C1016.7,417.5,1016.9,417.9,1017.1,418.1z"/>
<path class="st1" d="M1160.8,476.5c-0.4-0.2-0.8-0.2-1.2-0.1c-0.4,0.1-0.8,0.3-1,0.6l-31.6,31.6c-0.3,0.3-0.5,0.6-0.6,1
	c-0.1,0.4,0,0.8,0.1,1.2c0.2,0.4,0.4,0.7,0.8,0.9c0.3,0.2,0.7,0.3,1.1,0.3h31.6c0.5,0,1.1-0.2,1.4-0.6c0.4-0.4,0.6-0.9,0.6-1.4
	v-31.6c0-0.4-0.1-0.8-0.3-1.1C1161.4,476.9,1161.1,476.6,1160.8,476.5z"/>
<path class="st1" d="M1160.9,459.9c-0.1-0.1-0.3-0.2-0.4-0.3c-0.2-0.1-0.3-0.1-0.5-0.1c-0.2,0-0.3,0-0.5,0.1
	c-0.2,0.1-0.3,0.2-0.4,0.3l-49.2,49.2c-0.3,0.2-0.4,0.6-0.4,0.9c0,0.3,0.1,0.7,0.4,0.9c0.3,0.2,0.6,0.4,0.9,0.4
	c0.3,0,0.7-0.1,0.9-0.4l49.2-49.2c0.1-0.1,0.2-0.3,0.3-0.4c0.1-0.2,0.1-0.3,0.1-0.5c0-0.2,0-0.3-0.1-0.5
	C1161.1,460.1,1161,460,1160.9,459.9z"/>
<path class="st1" d="M1019.5,476.9c-0.2-0.2-0.4-0.3-0.7-0.4c-0.2-0.1-0.5-0.2-0.8-0.2c-0.3,0-0.5,0.1-0.8,0.2
	c-0.4,0.2-0.7,0.4-0.9,0.7c-0.2,0.3-0.3,0.7-0.3,1.1V510c0,0.3,0,0.5,0.2,0.8c0.1,0.2,0.3,0.5,0.4,0.7c0.2,0.2,0.4,0.3,0.7,0.4
	c0.3,0.1,0.5,0.2,0.8,0.2h31.6c0.4,0,0.8-0.1,1.1-0.3c0.3-0.2,0.6-0.5,0.7-0.9c0.2-0.4,0.2-0.8,0.1-1.2c-0.1-0.4-0.3-0.8-0.6-1
	L1019.5,476.9z"/>
<path class="st1" d="M1019,459.9c-0.2-0.2-0.6-0.4-0.9-0.4c-0.4,0-0.7,0.1-0.9,0.4c-0.3,0.2-0.4,0.6-0.4,0.9s0.1,0.7,0.4,0.9
	l49.2,49.2c0.3,0.2,0.6,0.4,0.9,0.4c0.3,0,0.7-0.1,0.9-0.4c0.1-0.1,0.2-0.3,0.3-0.4c0.1-0.2,0.1-0.3,0.1-0.5c0-0.2,0-0.3-0.1-0.5
	c-0.1-0.2-0.2-0.3-0.3-0.4L1019,459.9z"/>
<path class="st1" d="M1158.5,401.1c0.4,0.4,0.9,0.6,1.4,0.6c0.3,0,0.5-0.1,0.8-0.2c0.4-0.2,0.7-0.4,0.9-0.7c0.2-0.3,0.3-0.7,0.3-1.1
	V368c0-0.5-0.2-1.1-0.6-1.4c-0.4-0.4-0.9-0.6-1.4-0.6h-31.6c-0.4,0-0.8,0.1-1.1,0.3c-0.3,0.2-0.6,0.5-0.8,0.9
	c-0.1,0.4-0.2,0.8-0.1,1.2c0.1,0.4,0.3,0.8,0.6,1L1158.5,401.1z"/>
<path class="st1" d="M1159.1,418.1c0.2,0.2,0.6,0.4,0.9,0.4c0.3,0,0.5-0.1,0.7-0.2c0.2-0.1,0.4-0.3,0.5-0.6c0.1-0.2,0.1-0.5,0.1-0.8
	c-0.1-0.3-0.2-0.5-0.4-0.7l-49.2-49.2c-0.3-0.2-0.6-0.4-0.9-0.4c-0.3,0-0.7,0.1-0.9,0.4c-0.3,0.2-0.4,0.6-0.4,0.9
	c0,0.3,0.1,0.7,0.4,0.9L1159.1,418.1z"/>
<path class="st1" d="M1087.5,424.3c0.2,0.2,0.4,0.4,0.7,0.5c0.3,0.1,0.5,0.2,0.8,0.2s0.6-0.1,0.8-0.2c0.3-0.1,0.5-0.3,0.7-0.5
	c2.3-2.6,4.3-5.4,6-8.4c3.7-6.2,5.8-13.2,6-20.4c-0.2-7.2-2.3-14.2-6-20.4c-1.7-3-3.7-5.8-6-8.4c-0.2-0.2-0.4-0.4-0.7-0.5
	c-0.3-0.1-0.5-0.2-0.8-0.2s-0.6,0.1-0.8,0.2c-0.3,0.1-0.5,0.3-0.7,0.5c-2.3,2.6-4.3,5.4-6,8.4c-3.7,6.2-5.8,13.2-6,20.4
	c0.2,7.2,2.3,14.2,6,20.4C1083.2,418.9,1085.2,421.7,1087.5,424.3z"/>
<path class="st1" d="M1090.5,453.7c-0.2-0.2-0.4-0.4-0.7-0.5c-0.3-0.1-0.5-0.2-0.8-0.2s-0.6,0.1-0.8,0.2c-0.3,0.1-0.5,0.3-0.7,0.5
	c-2.3,2.6-4.3,5.4-6,8.4c-3.7,6.2-5.8,13.2-6,20.4c0.2,7.2,2.3,14.2,6,20.4c1.7,3,3.7,5.8,6,8.4c0.2,0.2,0.4,0.4,0.7,0.5
	c0.3,0.1,0.5,0.2,0.8,0.2s0.6-0.1,0.8-0.2c0.3-0.1,0.5-0.3,0.7-0.5c2.3-2.6,4.3-5.4,6-8.4c3.7-6.2,5.8-13.2,6-20.4
	c-0.2-7.2-2.3-14.2-6-20.4C1094.8,459.1,1092.8,456.3,1090.5,453.7z"/>
<path class="st1" d="M1025.1,431.5c-3,1.7-5.8,3.7-8.4,6c-0.2,0.2-0.4,0.4-0.5,0.7c-0.1,0.3-0.2,0.5-0.2,0.8c0,0.3,0.1,0.6,0.2,0.8
	c0.1,0.3,0.3,0.5,0.5,0.7c2.6,2.3,5.4,4.3,8.4,6c6.2,3.7,13.2,5.8,20.4,6c7.2-0.2,14.2-2.3,20.4-6c3-1.7,5.8-3.7,8.4-6
	c0.2-0.2,0.4-0.4,0.5-0.7c0.1-0.3,0.2-0.5,0.2-0.8c0-0.3-0.1-0.6-0.2-0.8s-0.3-0.5-0.5-0.7c-2.6-2.3-5.4-4.3-8.4-6
	c-6.2-3.7-13.2-5.8-20.4-6C1038.3,425.8,1031.2,427.8,1025.1,431.5z"/>
<path class="st1" d="M1103.7,437.5c-0.2,0.2-0.4,0.4-0.5,0.7c-0.1,0.3-0.2,0.5-0.2,0.8c0,0.3,0.1,0.6,0.2,0.8
	c0.1,0.3,0.3,0.5,0.5,0.7c2.6,2.3,5.4,4.3,8.4,6c6.2,3.7,13.2,5.8,20.4,6c7.2-0.2,14.2-2.3,20.4-6c3-1.7,5.8-3.7,8.4-6
	c0.2-0.2,0.4-0.4,0.5-0.7c0.1-0.3,0.2-0.5,0.2-0.8c0-0.3-0.1-0.6-0.2-0.8c-0.1-0.3-0.3-0.5-0.5-0.7c-2.6-2.3-5.4-4.3-8.4-6
	c-6.2-3.7-13.2-5.8-20.4-6c-7.2,0.2-14.2,2.3-20.4,6C1109.1,433.2,1106.3,435.2,1103.7,437.5z"/>
<path class="st1" d="M1093.3,439c0-0.8-0.3-1.7-0.7-2.4c-0.5-0.7-1.1-1.3-1.9-1.6c-0.8-0.3-1.6-0.4-2.5-0.2
	c-0.8,0.2-1.6,0.6-2.2,1.2c-0.6,0.6-1,1.4-1.2,2.2c-0.2,0.8-0.1,1.7,0.2,2.5c0.3,0.8,0.9,1.5,1.6,1.9c0.7,0.5,1.5,0.7,2.4,0.7
	c0.6,0,1.1-0.1,1.6-0.3s1-0.5,1.4-0.9c0.4-0.4,0.7-0.9,0.9-1.4C1093.2,440.1,1093.3,439.6,1093.3,439z"/>
<path class="st1" d="M1100,451.4c1.6,2.2,15.8,21.9,17.5,23.6c1,1,2.4,1.6,3.8,1.6c1.4,0,2.8-0.6,3.8-1.6c1-1,1.6-2.4,1.6-3.8
	c0-1.4-0.6-2.8-1.6-3.8c-1.7-1.7-21.4-15.9-23.6-17.5c-0.2-0.1-0.4-0.2-0.7-0.2c-0.2,0-0.5,0.1-0.6,0.3c-0.2,0.2-0.3,0.4-0.3,0.6
	C1099.8,450.9,1099.8,451.2,1100,451.4L1100,451.4z"/>
<path class="st1" d="M1076.6,450c-2.2,1.6-21.9,15.8-23.6,17.5c-1,1-1.6,2.4-1.6,3.8s0.6,2.8,1.6,3.8c1,1,2.4,1.6,3.8,1.6
	c1.4,0,2.8-0.6,3.8-1.6c-0.1,0.1,14.4-19.3,17.5-23.6c0.1-0.2,0.2-0.4,0.2-0.7c0-0.2-0.1-0.5-0.3-0.6c-0.2-0.2-0.4-0.3-0.6-0.3
	C1077.1,449.8,1076.8,449.8,1076.6,450L1076.6,450z"/>
<path class="st1" d="M1121.2,401.4c-0.7,0-1.4,0.1-2.1,0.4c-0.7,0.3-1.2,0.7-1.7,1.2c-1.7,1.7-15.9,21.4-17.5,23.6
	c-0.1,0.2-0.2,0.4-0.2,0.7s0.1,0.5,0.3,0.6c0.1,0.1,0.2,0.2,0.3,0.2c0.1,0.1,0.3,0.1,0.4,0.1c0.2,0,0.4-0.1,0.6-0.2
	c2.2-1.6,20.1-13.9,21.8-15.7c2.1-2.1,3.9-7.3,1.8-9.4c-0.5-0.5-1.1-0.9-1.7-1.2C1122.6,401.6,1121.9,401.4,1121.2,401.4z"/>
<path class="st1" d="M1078,426.6c-2.2-3-14.9-21.1-17.4-23.6c-0.5-0.5-1.1-0.9-1.7-1.2c-0.7-0.3-1.3-0.4-2.1-0.4
	c-0.7,0-1.4,0.1-2.1,0.4s-1.3,0.7-1.7,1.2c-0.5,0.5-0.9,1.1-1.2,1.7c-0.3,0.7-0.4,1.3-0.4,2.1c0,0.7,0.1,1.4,0.4,2.1
	c0.3,0.7,0.7,1.2,1.2,1.7c1.7,1.7,21.4,15.9,23.6,17.5c0.2,0.1,0.4,0.2,0.6,0.2l0,0c0.1,0,0.3,0,0.4-0.1c0.1-0.1,0.2-0.1,0.3-0.2
	c0.1-0.1,0.2-0.2,0.2-0.3c0-0.1,0.1-0.3,0.1-0.4C1078.2,427,1078.2,426.7,1078,426.6z"/>
<path class="st0" d="M181.5,109.2c-0.1,0.1-0.3,0.3-0.3,0.5c-0.1,0.2-0.1,0.4-0.1,0.6c0,0.2,0,0.4,0.1,0.6c0.1,0.2,0.2,0.4,0.3,0.5
	c0.3,0.3,0.7,0.5,1.1,0.5s0.8-0.2,1.1-0.5c0.1-0.1,0.3-0.3,0.3-0.5c0.1-0.2,0.1-0.4,0.1-0.6c0-0.2,0-0.4-0.1-0.6
	c-0.1-0.2-0.2-0.4-0.3-0.5c-0.3-0.3-0.7-0.4-1.1-0.4C182.2,108.7,181.8,108.9,181.5,109.2z"/>
<path class="st0" d="M180.4,108.5c0.1,0,0.1,0,0.1,0c0,0,0.1,0,0.1-0.1c0,0,0.1-0.1,0.1-0.1c0,0,0-0.1,0-0.1c-0.4-2-1.4-3.8-2.8-5.3
	c-1.5-1.4-3.3-2.3-5.2-2.8v0.4h-0.4c0.5,1.9,1.4,3.7,2.8,5.2C176.6,107.1,178.4,108,180.4,108.5z"/>
<path class="st0" d="M184.8,112.1c-0.1,0-0.1,0-0.1,0c0,0-0.1,0-0.1,0.1c0,0-0.1,0.1-0.1,0.1c0,0,0,0.1,0,0.1c0.4,2,1.4,3.8,2.8,5.3
	c1.5,1.4,3.3,2.3,5.2,2.8V120h0.4c-0.5-1.9-1.4-3.7-2.8-5.2C188.6,113.5,186.8,112.5,184.8,112.1z"/>
<path class="st0" d="M180.8,112.4c0,0,0-0.1,0-0.1c0,0,0-0.1-0.1-0.1c0,0-0.1-0.1-0.1-0.1c0,0-0.1,0-0.1,0c-2,0.4-3.8,1.4-5.3,2.8
	c-1.4,1.4-2.4,3.2-2.8,5.2h0.4v0.4c2-0.4,3.8-1.4,5.2-2.8C179.4,116.2,180.3,114.4,180.8,112.4z"/>
<path class="st0" d="M184.4,108.1c0,0,0,0.1,0,0.1c0,0,0,0.1,0.1,0.1c0,0,0.1,0.1,0.1,0.1s0.1,0,0.1,0c2-0.4,3.8-1.4,5.3-2.8
	c1.4-1.4,2.4-3.2,2.8-5.2h-0.4v-0.4c-2,0.4-3.8,1.4-5.2,2.8C185.8,104.3,184.9,106.1,184.4,108.1z"/>
<path class="st0" d="M179.7,110c-1.7-1.1-3.7-1.7-5.7-1.7c-2,0.1-4,0.7-5.7,1.7c0,0-0.1,0.1-0.1,0.1c0,0,0,0.1,0,0.1
	c0,0,0,0.1,0,0.1c0,0,0.1,0.1,0.1,0.1c1.7,1.1,3.7,1.7,5.7,1.7c2-0.1,4-0.7,5.7-1.7l0,0l0,0c0,0,0.1-0.1,0.1-0.1c0,0,0-0.1,0-0.1
	c0,0,0-0.1,0-0.1C179.9,110.1,179.8,110.1,179.7,110L179.7,110z"/>
<path class="st0" d="M196.9,110c-1.7-1.1-3.7-1.7-5.7-1.7c-2,0.1-4,0.7-5.7,1.7c0,0-0.1,0.1-0.1,0.1c0,0,0,0.1,0,0.1
	c0,0,0,0.1,0,0.1c0,0,0.1,0.1,0.1,0.1c1.7,1.1,3.7,1.7,5.7,1.7c2-0.1,4-0.7,5.7-1.7l0,0l0,0c0,0,0.1-0.1,0.1-0.1c0,0,0-0.1,0-0.1
	c0,0,0-0.1,0-0.1C197,110.1,197,110.1,196.9,110L196.9,110z"/>
<path class="st0" d="M182.6,113c-0.1,0-0.1,0-0.1,0c0,0-0.1,0.1-0.1,0.1c-1.1,1.7-1.7,3.7-1.8,5.7c0.1,2,0.7,4,1.8,5.7
	c0,0,0.1,0.1,0.1,0.1c0,0,0.1,0,0.1,0c0,0,0.1,0,0.1,0s0.1,0,0.1-0.1l0,0c1.1-1.7,1.7-3.7,1.8-5.7c-0.1-2-0.7-4-1.8-5.7
	c0,0-0.1-0.1-0.1-0.1C182.7,113,182.6,113,182.6,113z"/>
<path class="st0" d="M182.6,107.6c0,0,0.1,0,0.1,0c0,0,0.1,0,0.1-0.1l0,0c1.1-1.7,1.7-3.7,1.8-5.7c-0.1-2-0.7-4-1.8-5.7
	c0,0-0.1-0.1-0.1-0.1c0,0-0.1,0-0.1,0s-0.1,0-0.1,0c0,0-0.1,0.1-0.1,0.1c-1.1,1.7-1.7,3.7-1.8,5.7c0.1,2,0.7,4,1.8,5.7
	c0,0,0.1,0.1,0.1,0.1C182.5,107.6,182.5,107.6,182.6,107.6z"/>
<path class="st0" d="M165.3,74.7c-4.8-0.2-5.3,2.6-5.3,3.4c0,2.6,1.9,3,1.9,3c-1.1,0.6-5.1,0.6-5.1-3.3c0-0.5,0.1-0.9,0.3-1.3
	c0.2-0.4,0.6-0.7,1-0.9l0,0c-0.7,0.4-1.5,0.6-2.3,0.7c-0.9-0.1-1.8-0.5-2.5-1.1c-0.5-0.4-1.3-1.1-1.3-1.1h-3.4c0,0,7.5,9.4,14,9.4
	c1,0,2-0.3,2.9-0.9c0.8-0.6,1.4-1.5,1.8-2.5s0.3-2-0.1-3C166.8,76.1,166.2,75.2,165.3,74.7z"/>
<path class="st0" d="M146,76.6L146,76.6l0,3.3l0,0c0,0,0.7,0.8,1.1,1.3c0.7,0.7,1.1,1.6,1.2,2.5c-0.1,0.8-0.3,1.6-0.7,2.2l0,0
	c0.2-0.4,0.5-0.7,0.9-1c0.4-0.2,0.8-0.3,1.3-0.3c3.9,0,4,4,3.4,5.1c0,0-0.5-1.9-3.1-1.9c-0.8,0-3.7,0.6-3.4,5.3
	c0.6,0.9,1.4,1.5,2.4,1.8s2,0.4,3,0.1c1-0.3,1.9-0.9,2.5-1.7c0.6-0.8,1-1.8,1-2.9C155.5,84,146,76.6,146,76.6z"/>
<path class="st0" d="M216.3,74H213c0,0-0.8,0.7-1.3,1.1c-0.7,0.6-1.6,1.1-2.5,1.1c-0.8-0.1-1.6-0.3-2.3-0.7l0,0
	c0.4,0.2,0.7,0.5,1,0.9c0.2,0.4,0.3,0.8,0.3,1.3c0,3.9-4,3.9-5.1,3.3c0,0,1.9-0.5,1.9-3c0-0.8-0.6-3.6-5.3-3.4
	c-0.9,0.6-1.5,1.4-1.8,2.4c-0.3,1-0.4,2-0.1,3c0.3,1,0.9,1.8,1.8,2.5c0.8,0.6,1.8,0.9,2.9,0.9C208.9,83.4,216.3,74,216.3,74z"/>
<path class="st0" d="M219,76.6c0,0-9.5,7.4-9.5,13.8c0,1,0.4,2,1,2.9c0.6,0.8,1.5,1.4,2.5,1.7c1,0.3,2,0.3,3-0.1
	c1-0.3,1.8-1,2.4-1.8c0.2-4.7-2.6-5.3-3.4-5.3c-2.6,0-3.1,1.9-3.1,1.9c-0.6-1.1-0.6-5,3.4-5.1c0.5,0,0.9,0.1,1.3,0.3s0.7,0.6,0.9,1
	l0,0c-0.4-0.7-0.6-1.5-0.7-2.2c0.1-0.9,0.5-1.8,1.2-2.5c0.4-0.5,1.1-1.3,1.1-1.3l0,0L219,76.6L219,76.6z"/>
<path class="st0" d="M202.4,137.6c-1,0-2,0.3-2.9,0.9c-0.8,0.6-1.5,1.5-1.8,2.5c-0.3,1-0.3,2,0.1,3c0.3,1,1,1.8,1.8,2.4
	c4.8,0.2,5.3-2.6,5.3-3.4c0-2.6-1.9-3-1.9-3c1.1-0.6,5.1-0.6,5.1,3.3c0,0.5-0.1,0.9-0.3,1.3c-0.2,0.4-0.6,0.7-1,0.9l0,0
	c0.7-0.4,1.5-0.6,2.3-0.7c0.9,0.1,1.8,0.5,2.5,1.1c0.5,0.4,1.3,1.1,1.3,1.1h3.4C216.3,147,208.9,137.6,202.4,137.6z"/>
<path class="st0" d="M217.9,139.8c-0.7-0.7-1.1-1.6-1.2-2.5c0.1-0.8,0.3-1.6,0.7-2.2l0,0c-0.2,0.4-0.5,0.7-0.9,1
	c-0.4,0.2-0.8,0.3-1.3,0.3c-3.9,0-4-4-3.4-5.1c0,0,0.5,1.9,3.1,1.9c0.8,0,3.7-0.6,3.4-5.3c-0.6-0.9-1.4-1.5-2.4-1.8
	c-1-0.3-2-0.4-3-0.1c-1,0.3-1.9,0.9-2.5,1.7c-0.6,0.8-1,1.8-1,2.9c0,6.5,9.5,13.8,9.5,13.8h0V141h0C219,141,218.3,140.3,217.9,139.8
	z"/>
<path class="st0" d="M155.8,144.8c0.8,0.1,1.6,0.3,2.3,0.7l0,0c-0.4-0.2-0.7-0.5-1-0.9c-0.2-0.4-0.3-0.8-0.3-1.3
	c0-3.9,4-3.9,5.1-3.3c0,0-1.9,0.5-1.9,3c0,0.8,0.6,3.6,5.3,3.4c0.9-0.6,1.5-1.4,1.9-2.4c0.3-1,0.4-2,0.1-3c-0.3-1-0.9-1.8-1.8-2.5
	c-0.8-0.6-1.8-0.9-2.9-0.9c-6.5,0-14,9.4-14,9.4h3.4c0,0,0.8-0.7,1.3-1.1C154,145.3,154.9,144.9,155.8,144.8z"/>
<path class="st0" d="M155.5,130.5c0-1-0.3-2-1-2.9c-0.6-0.8-1.5-1.4-2.5-1.7c-1-0.3-2-0.3-3,0.1c-1,0.3-1.8,1-2.4,1.8
	c-0.2,4.7,2.6,5.3,3.4,5.3c2.6,0,3.1-1.9,3.1-1.9c0.6,1.1,0.6,5-3.4,5.1c-0.5,0-0.9-0.1-1.3-0.3c-0.4-0.2-0.7-0.6-0.9-1l0,0
	c0.4,0.7,0.6,1.5,0.7,2.2c-0.1,0.9-0.5,1.8-1.2,2.5c-0.4,0.5-1.1,1.3-1.1,1.3h0v3.3h0C146,144.4,155.5,137,155.5,130.5z"/>
<path class="st2" d="M194.2,83.8V74H171v9.8l-15.2,15H146v1.7l0,8.1l0,0v3.4l0,0l0,8.1v1.7h9.8l15.2,15V147h23.2v-10.2l15.2-15h9.6
	V98.8h-9.7L194.2,83.8z M207.6,120h-14.7c0,0,0,0.1,0,0.1c0,0.1,0,0.1,0,0.1s0,0.1-0.1,0.1c0,0-0.1,0.1-0.1,0.1c0,0-0.1,0-0.1,0
	c0,0,0,0-0.1,0v14.6l-9.9,9.8l-9.9-9.8v-14.6c0,0-0.1,0-0.1,0c0,0-0.1,0-0.1,0s-0.1,0-0.1-0.1c0,0-0.1-0.1-0.1-0.1s0-0.1,0-0.1
	c0,0,0,0,0-0.1h-14.7l-9.9-9.8l9.9-9.8h14.7c0,0,0-0.1,0-0.1c0,0,0-0.1,0-0.1c0,0,0-0.1,0.1-0.1c0,0,0.1-0.1,0.1-0.1
	c0,0,0.1,0,0.1,0c0,0,0,0,0.1,0V85.5l9.9-9.8l9.9,9.8v14.6c0,0,0.1,0,0.1,0c0.1,0,0.1,0,0.1,0c0,0,0.1,0,0.1,0.1
	c0,0,0.1,0.1,0.1,0.1c0,0,0,0.1,0,0.1c0,0,0,0,0,0.1h14.7l9.9,9.8L207.6,120z"/>
<path class="st2" d="M172.7,100.1C172.7,100.1,172.7,100,172.7,100.1c-0.1,0-0.2,0-0.2,0c0,0-0.1,0-0.1,0.1c0,0-0.1,0.1-0.1,0.1
	c0,0,0,0.1,0,0.1c0,0,0,0,0,0.1h0.4V100.1z"/>
<path class="st2" d="M192.5,120.5C192.5,120.5,192.5,120.5,192.5,120.5c0.1,0,0.2,0,0.2,0c0,0,0.1,0,0.1-0.1c0,0,0.1-0.1,0.1-0.1
	s0-0.1,0-0.1c0,0,0,0,0-0.1h-0.4V120.5z"/>
<path class="st2" d="M172.3,120C172.3,120.1,172.3,120.1,172.3,120c0,0.1,0,0.2,0,0.2s0,0.1,0.1,0.1c0,0,0.1,0.1,0.1,0.1
	s0.1,0,0.1,0c0,0,0,0,0.1,0V120H172.3z"/>
<path class="st2" d="M192.9,100.5C192.9,100.5,192.9,100.4,192.9,100.5c0-0.1,0-0.2,0-0.2c0,0,0-0.1-0.1-0.1c0,0-0.1-0.1-0.1-0.1
	c0,0-0.1,0-0.2,0c0,0,0,0-0.1,0v0.4H192.9z"/>
</svg>
