<?xml version="1.0" encoding="utf-8"?>
<!-- Generator: Adobe Illustrator 22.1.0, SVG Export Plug-In . SVG Version: 6.00 Build 0)  -->
<svg version="1.1" id="Слой_1" xmlns="http://www.w3.org/2000/svg" xmlns:xlink="http://www.w3.org/1999/xlink" x="0px" y="0px"
	 viewBox="0 0 1166 512" style="enable-background:new 0 0 1166 512;" xml:space="preserve">
<style type="text/css">
	.st0{fill:#FDD84A;}
	.st1{fill:#6678D6;}
	.st2{fill:#2C3B8C;}
	.st3{fill:#E7533B;}
</style>
<path class="st0" d="M34.1,258.9c1.7,0,3.5,0.1,5.2,0.4c-0.7-4.9-0.4-9.8,0.9-14.5c1.4-4.7,3.7-9.1,6.9-12.8
	c3.2-3.7,7.2-6.7,11.6-8.8c4.5-2.1,9.3-3.1,14.2-3.1H41.6c0,1-0.2,2.1-0.6,3c-0.4,1-1,1.8-1.7,2.6c-0.7,0.7-1.6,1.3-2.6,1.7
	c-1,0.4-2,0.6-3,0.6c-4.4,0-26.5-3.5-26.5-7.9H0v73c0-9,3.6-17.7,10-24.1C16.4,262.5,25.1,258.9,34.1,258.9z M28.9,245.3
	c0.3,0.3,0.6,0.8,0.7,1.3c0.1,0.5,0,1-0.1,1.4c-0.2,0.5-0.5,0.8-0.9,1.1c-0.4,0.3-0.9,0.4-1.4,0.4c-0.5,0-1-0.1-1.4-0.4
	c-0.4-0.3-0.7-0.7-0.9-1.1c-0.2-0.5-0.2-1-0.1-1.4c0.1-0.5,0.3-0.9,0.7-1.3c0.5-0.5,1.1-0.7,1.8-0.7
	C27.7,244.6,28.4,244.9,28.9,245.3z M0,220h3.5c0,0.5-0.1,0.9-0.3,1.3c-0.2,0.4-0.4,0.8-0.8,1.1c-0.3,0.3-0.7,0.6-1.1,0.8
	c-0.4,0.2-0.9,0.3-1.3,0.3V220z M0,261.6v-34.4c4.4,0,7.9,22.1,7.9,26.5c0,1-0.2,2.1-0.6,3c-0.4,1-1,1.8-1.7,2.6S4,260.6,3,261
	C2.1,261.4,1,261.6,0,261.6z M8.5,228.5c1.6-1.6,13.3,6.3,15.3,8.2c0.5,0.5,0.8,1,1.1,1.6s0.4,1.3,0.4,1.9c0,0.7-0.1,1.3-0.4,1.9
	c-0.2,0.6-0.6,1.2-1.1,1.6s-1,0.8-1.6,1.1c-0.6,0.2-1.3,0.4-1.9,0.4c-0.7,0-1.3-0.1-1.9-0.4c-0.6-0.3-1.2-0.6-1.6-1.1
	C14.8,241.9,6.9,230.1,8.5,228.5z"/>
<path class="st0" d="M34,321.1c2.8,0,5.6-0.4,8.3-1.3l1.2-0.4c0.1-0.4,0.3-0.8,0.6-1.1c0.2-0.2,0.5-0.4,0.8-0.5
	c0.3-0.1,0.6-0.2,1-0.2c0.3,0,0.7,0.1,1,0.2c0.3,0.1,0.6,0.3,0.8,0.5c0.2,0.2,0.4,0.5,0.5,0.8c0.1,0.3,0.2,0.6,0.2,1
	c0,0.3-0.1,0.7-0.2,1c-0.1,0.3-0.3,0.6-0.5,0.8c-0.3,0.3-0.7,0.5-1.1,0.6l-0.4,1.2c-1.3,4.2-1.6,8.6-0.9,13c0.7,4.3,2.5,8.4,5.1,12
	c2.6,3.5,6,6.4,9.9,8.4c3.9,2,8.3,3,12.7,3c4.4,0,8.7-1,12.7-3c3.9-2,7.3-4.9,9.9-8.4c2.6-3.5,4.3-7.6,5.1-12
	c0.7-4.3,0.4-8.8-0.9-13l-0.4-1.2c-0.4-0.1-0.8-0.3-1.1-0.6c-0.2-0.2-0.4-0.5-0.5-0.8c-0.1-0.3-0.2-0.6-0.2-1s0.1-0.7,0.2-1
	c0.1-0.3,0.3-0.6,0.5-0.8c0.2-0.2,0.5-0.4,0.8-0.5s0.6-0.2,1-0.2c0.3,0,0.7,0.1,1,0.2c0.3,0.1,0.6,0.3,0.8,0.5
	c0.3,0.3,0.5,0.7,0.6,1.1l1.2,0.4c4.2,1.3,8.6,1.6,13,0.9c4.3-0.7,8.4-2.5,12-5.1c3.5-2.6,6.4-6,8.4-9.9c2-3.9,3-8.3,3-12.6
	c0-4.4-1-8.7-3-12.7c-2-3.9-4.9-7.3-8.4-9.9c-3.5-2.6-7.6-4.3-12-5.1c-4.3-0.7-8.8-0.4-13,0.9l-1.2,0.4c-0.1,0.4-0.3,0.8-0.6,1.1
	c-0.2,0.2-0.5,0.4-0.8,0.5c-0.3,0.1-0.6,0.2-1,0.2c-0.3,0-0.7-0.1-1-0.2s-0.6-0.3-0.8-0.5c-0.2-0.2-0.4-0.5-0.5-0.8
	c-0.1-0.3-0.2-0.6-0.2-1s0.1-0.7,0.2-1c0.1-0.3,0.3-0.6,0.5-0.8c0.3-0.3,0.7-0.5,1.1-0.6l0.4-1.2c1.3-4.2,1.6-8.6,0.9-13
	c-0.7-4.3-2.5-8.4-5.1-12c-2.6-3.5-6-6.4-9.9-8.4c-3.9-2-8.3-3-12.7-3c-4.4,0-8.7,1-12.7,3c-3.9,2-7.3,4.9-9.9,8.4
	c-2.6,3.5-4.3,7.6-5.1,12c-0.7,4.3-0.4,8.8,0.9,13l0.4,1.2c0.4,0.1,0.8,0.3,1.1,0.6c0.5,0.5,0.7,1.1,0.7,1.8c0,0.7-0.3,1.3-0.7,1.8
	c-0.5,0.5-1.1,0.7-1.8,0.7s-1.3-0.3-1.8-0.7c-0.3-0.3-0.5-0.7-0.6-1.1l-1.2-0.4c-3.9-1.2-7.9-1.6-11.9-1s-7.9,1.9-11.3,4
	c-3.4,2.1-6.3,5-8.6,8.4c-2.2,3.4-3.7,7.2-4.3,11.2c-0.6,4-0.3,8.1,0.8,12c1.1,3.9,3.1,7.5,5.7,10.5c2.6,3.1,5.9,5.5,9.6,7.2
	C26,320.2,30,321.1,34,321.1L34,321.1z M56.2,316.8c-0.9,0.9-2.2,1.5-3.5,1.5c-1.3,0-2.6-0.5-3.5-1.5c-0.9-0.9-1.5-2.2-1.5-3.5
	c0-1.3,0.5-2.6,1.4-3.5c1.9-1.9,13.7-9.8,15.3-8.3C66.1,303.1,58.2,314.9,56.2,316.8z M73,334.6c-2.1,0-4.1-0.8-5.6-2.3
	c-1.5-1.5-2.3-3.5-2.3-5.6c0-4.4,3.5-26.5,7.9-26.5c4.4,0,7.9,22.1,7.9,26.5c0,1-0.2,2.1-0.6,3c-0.4,1-1,1.8-1.7,2.6
	c-0.7,0.7-1.6,1.3-2.6,1.7C75.1,334.4,74,334.6,73,334.6L73,334.6z M69.5,293c0-0.7,0.2-1.4,0.6-2c0.4-0.6,0.9-1,1.6-1.3
	c0.6-0.3,1.3-0.3,2-0.2c0.7,0.1,1.3,0.5,1.8,1c0.5,0.5,0.8,1.1,1,1.8c0.1,0.7,0.1,1.4-0.2,2c-0.3,0.6-0.7,1.2-1.3,1.6
	c-0.6,0.4-1.3,0.6-2,0.6c-0.5,0-0.9-0.1-1.3-0.3c-0.4-0.2-0.8-0.4-1.1-0.8c-0.3-0.3-0.6-0.7-0.8-1.1C69.6,293.9,69.5,293.5,69.5,293
	z M96.8,316.8c-0.9,0.9-2.2,1.5-3.5,1.5c-1.3,0-2.6-0.5-3.5-1.5c-1.9-1.9-9.8-13.7-8.2-15.3c1.6-1.6,13.3,6.3,15.3,8.3
	c0.5,0.5,0.8,1,1.1,1.6c0.2,0.6,0.4,1.2,0.4,1.9c0,0.7-0.1,1.3-0.4,1.9C97.6,315.8,97.3,316.3,96.8,316.8z M106.7,285.1
	c2.1,0,4.1,0.8,5.6,2.3c1.5,1.5,2.3,3.5,2.3,5.6s-0.8,4.1-2.3,5.6c-1.5,1.5-3.5,2.3-5.6,2.3c-4.4,0-26.5-3.5-26.5-7.9
	C80.2,288.6,102.4,285.1,106.7,285.1L106.7,285.1z M89.8,269.2c0.9-0.9,2.2-1.5,3.5-1.5c1.3,0,2.6,0.5,3.5,1.5
	c0.9,0.9,1.5,2.2,1.5,3.5c0,1.3-0.5,2.6-1.5,3.5c-1.9,1.9-13.7,9.8-15.3,8.2C79.9,282.9,87.8,271.1,89.8,269.2L89.8,269.2z
	 M73,251.4c2.1,0,4.1,0.8,5.6,2.3c1.5,1.5,2.3,3.5,2.3,5.6c0,4.4-3.5,26.5-7.9,26.5c-4.4,0-7.9-22.1-7.9-26.5c0-2.1,0.8-4.1,2.3-5.6
	C68.9,252.2,70.9,251.4,73,251.4z M49.2,269.2c0.9-0.9,2.2-1.5,3.5-1.5c1.3,0,2.6,0.5,3.5,1.5c1.9,1.9,9.8,13.7,8.2,15.3
	c-1.6,1.6-13.3-6.3-15.3-8.2c-0.9-0.9-1.5-2.2-1.5-3.5C47.8,271.4,48.3,270.1,49.2,269.2z M39.3,285.1c4.4,0,26.5,3.5,26.5,7.9
	c0,4.4-22.1,7.9-26.5,7.9c-2.1,0-4.1-0.8-5.6-2.3s-2.3-3.5-2.3-5.6c0-2.1,0.8-4.1,2.3-5.6S37.2,285.1,39.3,285.1z"/>
<path class="st0" d="M146,223.5c-0.9,0-1.8-0.4-2.5-1c-0.7-0.7-1-1.6-1-2.5h-3.7c0,4.4-22.1,7.9-26.5,7.9c-1,0-2.1-0.2-3-0.6
	c-1-0.4-1.8-1-2.6-1.7c-0.7-0.7-1.3-1.6-1.7-2.6c-0.4-1-0.6-2-0.6-3H73c4.9,0,9.8,1.1,14.2,3.1c4.5,2.1,8.4,5.1,11.6,8.8
	c3.2,3.7,5.6,8.1,6.9,12.8c1.3,4.7,1.7,9.7,0.9,14.5c1.7-0.3,3.5-0.4,5.2-0.4c4.7,0,9.3,1,13.6,2.9c4.3,1.9,8.2,4.6,11.4,8.1
	c3.2,3.4,5.6,7.5,7.2,11.9c1.5,4.4,2.2,9.1,1.8,13.8c-0.4,4.7-1.7,9.2-3.9,13.4s-5.2,7.8-8.9,10.7c-3.7,2.9-7.9,5-12.5,6.3
	c-4.5,1.2-9.3,1.5-13.9,0.7c0.7,4.9,0.4,9.8-0.9,14.5c-1.4,4.7-3.7,9.1-6.9,12.8c-3.2,3.7-7.2,6.7-11.6,8.8
	c-4.5,2.1-9.3,3.1-14.2,3.1c-4.9,0-9.8-1.1-14.2-3.1c-4.5-2.1-8.4-5-11.6-8.8c-3.2-3.7-5.6-8.1-6.9-12.8c-1.4-4.7-1.7-9.7-0.9-14.5
	c-4.9,0.7-9.8,0.4-14.6-0.9c-4.7-1.4-9.1-3.7-12.8-6.9c-3.7-3.2-6.7-7.2-8.8-11.6C1.1,302.8,0,297.9,0,293v73h146V220h0V223.5z
	 M25.3,337.1c0.3-0.3,0.8-0.6,1.3-0.7c0.5-0.1,1,0,1.4,0.1c0.5,0.2,0.8,0.5,1.1,0.9c0.3,0.4,0.4,0.9,0.4,1.4s-0.1,1-0.4,1.4
	c-0.3,0.4-0.7,0.7-1.1,0.9c-0.5,0.2-1,0.2-1.4,0.1c-0.5-0.1-0.9-0.3-1.3-0.7c-0.5-0.5-0.7-1.1-0.7-1.8S24.9,337.6,25.3,337.1z
	 M16.8,342.2c0.5-0.5,1-0.8,1.6-1.1c0.6-0.3,1.2-0.4,1.9-0.4c0.7,0,1.3,0.1,1.9,0.4c0.6,0.2,1.2,0.6,1.6,1.1c0.5,0.5,0.8,1,1.1,1.6
	c0.2,0.6,0.4,1.3,0.4,1.9c0,0.7-0.1,1.3-0.4,1.9s-0.6,1.1-1.1,1.6c-1.9,1.9-13.7,9.8-15.3,8.2C6.9,355.9,14.8,344.1,16.8,342.2z
	 M0,324.4c1,0,2.1,0.2,3,0.6s1.8,1,2.6,1.7c0.7,0.7,1.3,1.6,1.7,2.6c0.4,1,0.6,2,0.6,3c0,4.4-3.5,26.5-7.9,26.5V324.4z M0,366v-3.5
	c0.5,0,0.9,0.1,1.3,0.3c0.4,0.2,0.8,0.4,1.1,0.8c0.3,0.3,0.6,0.7,0.8,1.1c0.2,0.4,0.3,0.9,0.3,1.3H0z M7.2,366
	c0-4.4,22.1-7.9,26.5-7.9c2.1,0,4.1,0.8,5.6,2.3c1.5,1.5,2.3,3.5,2.3,5.6H7.2z M120.7,248.9c-0.3,0.4-0.8,0.6-1.3,0.7
	c-0.5,0.1-1,0-1.4-0.1c-0.5-0.2-0.8-0.5-1.1-0.9c-0.3-0.4-0.4-0.9-0.4-1.4c0-0.5,0.1-1,0.4-1.4c0.3-0.4,0.7-0.7,1.1-0.9
	c0.5-0.2,1-0.2,1.4-0.1c0.5,0.1,0.9,0.3,1.3,0.7c0.5,0.5,0.7,1.1,0.7,1.8C121.4,247.8,121.2,248.4,120.7,248.9z M129.2,243.8
	c-0.5,0.5-1,0.8-1.6,1.1c-0.6,0.3-1.2,0.4-1.9,0.4c-0.7,0-1.3-0.1-1.9-0.4c-0.6-0.2-1.1-0.6-1.6-1.1c-0.5-0.5-0.8-1-1.1-1.6
	c-0.2-0.6-0.4-1.2-0.4-1.9c0-0.7,0.1-1.3,0.4-1.9c0.3-0.6,0.6-1.1,1.1-1.6c1.9-1.9,13.7-9.8,15.3-8.2
	C139.1,230.1,131.2,241.9,129.2,243.8z M146,324.4v34.4c-4.4,0-7.9-22.1-7.9-26.5c0-2.1,0.8-4.1,2.3-5.6
	C141.9,325.2,143.9,324.4,146,324.4L146,324.4z M129.2,342.2c1.9,1.9,9.8,13.7,8.2,15.3c-1.6,1.6-13.3-6.3-15.3-8.2
	c-0.9-0.9-1.5-2.2-1.5-3.5c0-1.3,0.5-2.6,1.5-3.5c0.9-0.9,2.2-1.5,3.5-1.5C127,340.8,128.3,341.3,129.2,342.2z M117.1,337.1
	c0.3-0.3,0.8-0.6,1.3-0.7c0.5-0.1,1,0,1.4,0.1c0.5,0.2,0.8,0.5,1.1,0.9c0.3,0.4,0.4,0.9,0.4,1.4c0,0.5-0.1,1-0.4,1.4
	c-0.3,0.4-0.7,0.7-1.1,0.9c-0.5,0.2-1,0.2-1.4,0.1c-0.5-0.1-0.9-0.3-1.3-0.7c-0.5-0.5-0.7-1.1-0.7-1.8S116.7,337.6,117.1,337.1
	L117.1,337.1z M104.4,366c0-2.1,0.8-4.1,2.3-5.6c1.5-1.5,3.5-2.3,5.6-2.3c4.4,0,26.5,3.5,26.5,7.9H104.4z M146,366h-3.5
	c0-0.9,0.4-1.8,1-2.5c0.7-0.7,1.6-1,2.5-1V366z M146,261.6c-1,0-2.1-0.2-3-0.6c-1-0.4-1.8-1-2.6-1.7c-0.7-0.7-1.3-1.6-1.7-2.6
	c-0.4-1-0.6-2-0.6-3c0-4.4,3.5-26.5,7.9-26.5V261.6z"/>
<path class="st1" d="M903,333c-6.3,1.3-12.2,4.4-16.9,8.8c-4.4,4.7-7.5,10.6-8.8,16.9c6.4-1.3,12.2-4.4,16.9-8.8
	C898.6,345.2,901.7,339.4,903,333z"/>
<path class="st2" d="M870,327.7v36.4c3.6-5.4,5.5-11.7,5.7-18.2C875.5,339.4,873.6,333.1,870,327.7z"/>
<path class="st2" d="M871.9,366h36.4c-5.4-3.6-11.7-5.5-18.2-5.7C883.6,360.5,877.3,362.4,871.9,366z"/>
<path class="st1" d="M983,333c1.3,6.3,4.4,12.2,8.8,16.9c4.7,4.4,10.6,7.5,16.9,8.8c-1.3-6.4-4.4-12.2-8.8-16.9
	C995.2,337.4,989.4,334.3,983,333z"/>
<path class="st2" d="M1016,364.1v-36.4c-3.5,5.4-5.5,11.7-5.7,18.2C1010.5,352.4,1012.4,358.7,1016,364.1z"/>
<path class="st2" d="M977.7,366h36.4c-5.4-3.6-11.7-5.5-18.2-5.7C989.4,360.5,983.1,362.4,977.7,366z"/>
<path class="st1" d="M1008.8,227.2c-6.4,1.3-12.2,4.4-16.9,8.8c-4.4,4.7-7.5,10.6-8.8,16.9c6.3-1.3,12.2-4.4,16.9-8.8
	C1004.4,239.4,1007.5,233.6,1008.8,227.2z"/>
<path class="st2" d="M1010.3,240.1c0.2,6.5,2.2,12.8,5.7,18.2v-36.4C1012.4,227.3,1010.5,233.6,1010.3,240.1z"/>
<path class="st2" d="M1014.1,220h-36.4c5.4,3.6,11.7,5.5,18.2,5.7C1002.4,225.5,1008.7,223.6,1014.1,220z"/>
<path class="st1" d="M903,253c-1.3-6.3-4.4-12.2-8.8-16.9c-4.7-4.4-10.6-7.5-16.9-8.8c1.3,6.4,4.4,12.2,8.8,16.9
	C890.8,248.6,896.6,251.7,903,253z"/>
<path class="st2" d="M870,221.9v36.4c3.6-5.4,5.5-11.7,5.7-18.2C875.5,233.6,873.6,227.3,870,221.9z"/>
<path class="st2" d="M908.3,220h-36.4c5.4,3.6,11.7,5.5,18.2,5.7C896.6,225.5,902.9,223.6,908.3,220z"/>
<path class="st2" d="M943,283.6c0,0,23.5-18.4,23.5-34.5c0-2.6-0.8-5.1-2.3-7.1c-1.5-2.1-3.7-3.6-6.1-4.3c-2.4-0.8-5.1-0.7-7.5,0.1
	c-2.4,0.9-4.5,2.5-5.9,4.6c-0.6,11.8,6.5,13.2,8.5,13.2c6.5,0,7.6-4.6,7.6-4.6c1.4,2.7,1.4,12.6-8.3,12.6c-1.1,0-2.2-0.2-3.2-0.8
	c-1-0.6-1.8-1.4-2.3-2.4l0,0.1c0.9,1.7,1.5,3.6,1.6,5.6c-0.2,2.3-1.2,4.5-2.8,6.2c-0.9,1.2-2.7,3.1-2.7,3.1s-1.8-2-2.7-3.1
	c-1.6-1.7-2.6-3.9-2.9-6.2c0.1-2,0.7-3.9,1.6-5.6l0-0.1c-0.5,1-1.3,1.8-2.3,2.4c-1,0.6-2.1,0.9-3.2,0.8c-9.7,0-9.8-9.9-8.3-12.6
	c0,0,1.2,4.6,7.6,4.6c2,0,9-1.4,8.5-13.2c-1.4-2.1-3.5-3.7-5.9-4.6c-2.4-0.9-5-0.9-7.5-0.1c-2.4,0.8-4.6,2.3-6.1,4.3
	c-1.5,2.1-2.3,4.6-2.3,7.1C919.5,265.2,943,283.6,943,283.6z"/>
<path class="st2" d="M943,302.4c0,0-23.5,18.4-23.5,34.5c0,2.6,0.8,5.1,2.3,7.1c1.5,2.1,3.7,3.6,6.1,4.3c2.4,0.8,5.1,0.7,7.5-0.1
	c2.4-0.8,4.5-2.5,5.9-4.6c0.6-11.8-6.5-13.2-8.5-13.2c-6.5,0-7.6,4.6-7.6,4.6c-1.4-2.7-1.4-12.6,8.3-12.6c1.1,0,2.2,0.2,3.2,0.8
	c1,0.6,1.8,1.4,2.3,2.4l0-0.1c-0.9-1.7-1.5-3.6-1.6-5.6c0.2-2.3,1.2-4.5,2.9-6.2c0.9-1.2,2.7-3.1,2.7-3.1s1.8,2,2.7,3.1
	c1.6,1.7,2.6,3.9,2.8,6.2c-0.1,2-0.7,3.9-1.6,5.6l0,0.1c0.5-1,1.3-1.8,2.3-2.4c1-0.6,2.1-0.9,3.2-0.8c9.7,0,9.8,9.9,8.3,12.6
	c0,0-1.2-4.6-7.6-4.6c-2,0-9,1.4-8.5,13.2c1.4,2.1,3.5,3.7,5.9,4.6c2.4,0.9,5,0.9,7.5,0.1c2.4-0.8,4.6-2.3,6.1-4.3
	c1.5-2.1,2.3-4.6,2.3-7.1C966.5,320.8,943,302.4,943,302.4z"/>
<path class="st2" d="M933.6,293c0,0-18.4-23.5-34.5-23.5c-2.6,0-5.1,0.8-7.1,2.3c-2.1,1.5-3.6,3.7-4.3,6.1c-0.8,2.4-0.7,5.1,0.1,7.5
	c0.8,2.4,2.5,4.5,4.6,5.9c11.8,0.6,13.2-6.5,13.2-8.5c0-6.4-4.6-7.6-4.6-7.6c2.7-1.4,12.6-1.4,12.6,8.3c0,1.1-0.2,2.2-0.8,3.2
	c-0.6,1-1.4,1.8-2.4,2.3l0.1,0c1.7-0.9,3.6-1.5,5.6-1.6c2.3,0.2,4.5,1.2,6.2,2.8c1.2,0.9,3.1,2.7,3.1,2.7s-2,1.8-3.1,2.7
	c-1.7,1.6-3.9,2.6-6.2,2.9c-2-0.1-3.9-0.7-5.6-1.6l-0.1,0c1,0.5,1.8,1.3,2.4,2.3c0.6,1,0.9,2.1,0.8,3.2c0,9.7-9.9,9.8-12.6,8.3
	c0,0,4.6-1.1,4.6-7.6c0-2-1.4-9-13.2-8.5c-2.1,1.4-3.7,3.5-4.6,5.9c-0.8,2.4-0.9,5-0.1,7.5c0.8,2.4,2.3,4.6,4.3,6.1
	c2.1,1.5,4.6,2.3,7.1,2.3C915.2,316.5,933.6,293,933.6,293z"/>
<path class="st2" d="M952.4,293c0,0,18.4,23.5,34.5,23.5c2.6,0,5.1-0.8,7.1-2.3c2.1-1.5,3.6-3.7,4.3-6.1c0.8-2.5,0.7-5.1-0.2-7.5
	c-0.8-2.4-2.5-4.5-4.6-5.9c-11.8-0.6-13.2,6.5-13.2,8.5c0,6.5,4.6,7.6,4.6,7.6c-2.7,1.4-12.6,1.4-12.6-8.3c0-1.1,0.2-2.2,0.8-3.2
	c0.6-1,1.4-1.8,2.4-2.3l-0.1,0c-1.7,0.9-3.6,1.5-5.6,1.6c-2.3-0.2-4.5-1.2-6.2-2.9c-1.2-0.9-3.1-2.7-3.1-2.7s2-1.8,3.1-2.7
	c1.7-1.6,3.9-2.6,6.2-2.9c2,0.1,3.9,0.7,5.6,1.6l0.1,0c-1-0.5-1.8-1.3-2.4-2.3c-0.6-1-0.9-2.1-0.8-3.2c0-9.7,9.9-9.8,12.6-8.3
	c0,0-4.6,1.2-4.6,7.6c0,2,1.4,9,13.2,8.5c2.1-1.4,3.7-3.5,4.6-5.9c0.9-2.4,0.9-5,0.2-7.5c-0.8-2.4-2.3-4.6-4.3-6.1
	c-2.1-1.5-4.6-2.3-7.1-2.3C970.8,269.5,952.4,293,952.4,293z"/>
<path class="st2" d="M986.3,326.3c3.9,0,7.7-1,11-3c3.4-2,6.1-4.8,8-8.2c1.9-3.4,2.9-7.2,2.8-11.1c-0.1-3.9-1.2-7.7-3.2-11
	c2-3.3,3.1-7.1,3.2-11c0.1-3.9-0.9-7.7-2.8-11.1c-1.9-3.4-4.7-6.2-8-8.2c-3.4-2-7.2-3-11-3c-4.5,0.1-8.9,1.1-13,3
	c1.9-4.1,2.9-8.5,3-13c0-3.9-1-7.7-3-11c-2-3.4-4.8-6.1-8.2-8c-3.4-1.9-7.2-2.9-11.1-2.8c-3.9,0.1-7.7,1.2-11,3.2
	c-3.3-2-7.1-3.1-11-3.2c-3.9-0.1-7.7,0.9-11.1,2.8s-6.2,4.7-8.2,8c-2,3.4-3,7.2-3,11c0.1,4.5,1.1,8.9,3,13c-4.1-1.9-8.5-2.9-13-3
	c-3.9,0-7.7,1-11,3c-3.4,2-6.1,4.8-8,8.2c-1.9,3.4-2.9,7.2-2.8,11.1c0.1,3.9,1.2,7.7,3.2,11c-2,3.3-3.1,7.1-3.2,11
	c-0.1,3.9,0.9,7.7,2.8,11.1c1.9,3.4,4.7,6.2,8,8.2c3.3,2,7.2,3,11,3c4.5-0.1,8.9-1.1,13-3c-1.9,4.1-2.9,8.5-3,13c0,3.9,1,7.7,3,11
	c2,3.4,4.8,6.1,8.2,8c3.4,1.9,7.2,2.9,11.1,2.8c3.9-0.1,7.7-1.2,11-3.2c3.3,2,7.1,3.1,11,3.2c3.9,0.1,7.7-0.9,11.1-2.8
	c3.4-1.9,6.2-4.7,8.2-8c2-3.4,3-7.2,3-11c-0.1-4.5-1.1-8.9-3-13C977.4,325.2,981.8,326.2,986.3,326.3z M973.7,336.3
	c0,3.5-0.9,6.8-2.7,9.8c-1.8,3-4.3,5.4-7.3,7.1c-3,1.7-6.4,2.5-9.9,2.4c-3.5-0.1-6.8-1.1-9.7-3l-1.1-0.7l-1.1,0.7
	c-2.9,1.8-6.3,2.9-9.7,3c-3.5,0.1-6.9-0.7-9.9-2.4c-3-1.7-5.5-4.1-7.3-7.1c-1.8-3-2.7-6.4-2.7-9.8c0.1-4.6,1.3-9.1,3.3-13.3l1.6-3.4
	c-0.2-0.1-0.4-0.2-0.6-0.4c-0.2-0.2-0.3-0.4-0.4-0.6l-3.4,1.6c-4.1,2.1-8.7,3.2-13.3,3.3c-3.5,0-6.8-0.9-9.8-2.7
	c-3-1.8-5.4-4.3-7.1-7.3c-1.7-3-2.5-6.4-2.4-9.9c0.1-3.5,1.1-6.8,3-9.7l0.7-1.1l-0.7-1.1c-1.8-2.9-2.9-6.3-3-9.7s0.7-6.9,2.4-9.9
	s4.1-5.5,7.1-7.3c3-1.8,6.4-2.7,9.8-2.7c4.6,0.1,9.2,1.2,13.3,3.3l3.4,1.6c0.1-0.2,0.2-0.4,0.4-0.6c0.2-0.2,0.4-0.3,0.6-0.4
	l-1.6-3.4c-2.1-4.1-3.2-8.6-3.3-13.3c0-3.5,0.9-6.8,2.7-9.8c1.8-3,4.3-5.4,7.3-7.1c3-1.7,6.4-2.5,9.9-2.4c3.5,0.1,6.8,1.1,9.7,3
	l1.1,0.7l1.1-0.7c2.9-1.8,6.3-2.9,9.7-3c3.4-0.1,6.9,0.7,9.9,2.4c3,1.7,5.5,4.1,7.3,7.1c1.8,3,2.7,6.4,2.7,9.8
	c-0.1,4.6-1.2,9.1-3.3,13.3l-1.6,3.4c0.2,0.1,0.4,0.2,0.6,0.4c0.2,0.2,0.3,0.4,0.4,0.6l3.4-1.6c4.1-2.1,8.7-3.2,13.3-3.3
	c3.5,0,6.8,0.9,9.8,2.7c3,1.8,5.4,4.3,7.1,7.3c1.7,3,2.5,6.4,2.4,9.9c-0.1,3.5-1.1,6.8-3,9.7l-0.7,1.1l0.7,1.1
	c1.8,2.9,2.9,6.3,3,9.7c0.1,3.5-0.7,6.9-2.4,9.9c-1.7,3-4.1,5.5-7.1,7.3c-3,1.8-6.4,2.7-9.8,2.7c-4.6-0.1-9.1-1.3-13.3-3.3l-3.4-1.6
	c-0.1,0.2-0.2,0.4-0.4,0.6c-0.2,0.2-0.4,0.3-0.6,0.4l1.6,3.4C972.4,327.1,973.6,331.7,973.7,336.3z"/>
<path class="st2" d="M943,286.8c-0.4,0-0.8,0.1-1.2,0.2c-0.4,0.2-0.7,0.4-1,0.7c-0.3,0.3-0.5,0.6-0.7,1c-0.2,0.4-0.2,0.8-0.2,1.2
	c-0.8,0-1.6,0.3-2.2,0.9c-0.6,0.6-0.9,1.4-0.9,2.2c0,0.8,0.3,1.6,0.9,2.2c0.6,0.6,1.4,0.9,2.2,0.9c0,0.8,0.3,1.6,0.9,2.2
	c0.6,0.6,1.4,0.9,2.2,0.9c0.8,0,1.6-0.3,2.2-0.9c0.6-0.6,0.9-1.4,0.9-2.2c0.8,0,1.6-0.3,2.2-0.9c0.6-0.6,0.9-1.4,0.9-2.2
	c0-0.8-0.3-1.6-0.9-2.2c-0.6-0.6-1.4-0.9-2.2-0.9c0-0.8-0.3-1.6-0.9-2.2C944.6,287.1,943.8,286.8,943,286.8z"/>
<path class="st2" d="M916.7,270.2c1,0.9,4.6,1.1,4.6,1.1s-0.2-3.6-1.2-4.6c-0.4-0.4-0.9-0.6-1.4-0.7c-0.5-0.1-1,0-1.5,0.3l0.9,1.8
	l-1.8-0.9c-0.3,0.5-0.4,1-0.3,1.5C916.1,269.3,916.3,269.8,916.7,270.2z"/>
<path class="st2" d="M917.3,266.3c-0.2,0.1-0.4,0.2-0.6,0.4c-0.2,0.2-0.3,0.4-0.4,0.6l1.8,0.9L917.3,266.3z"/>
<path class="st2" d="M969.3,315.9c-1-1-4.6-1.2-4.6-1.2s0.2,3.6,1.2,4.6c0.4,0.4,0.9,0.6,1.4,0.7c0.5,0.1,1,0,1.5-0.3l-0.9-1.8
	l1.8,0.9c0.3-0.5,0.4-1,0.3-1.5C969.9,316.7,969.7,316.2,969.3,315.9z"/>
<path class="st2" d="M968.7,319.7c0.2-0.1,0.4-0.2,0.6-0.4c0.2-0.2,0.3-0.4,0.4-0.6l-1.8-0.9L968.7,319.7z"/>
<path class="st2" d="M920.2,319.3c1-0.9,1.2-4.6,1.2-4.6s-3.6,0.2-4.6,1.2c-0.4,0.4-0.6,0.9-0.7,1.4c-0.1,0.5,0,1,0.3,1.5l1.8-0.9
	l-0.9,1.8c0.5,0.3,1,0.4,1.5,0.3C919.3,319.9,919.8,319.7,920.2,319.3z"/>
<path class="st2" d="M916.3,318.7c0.1,0.2,0.2,0.4,0.4,0.6c0.2,0.2,0.4,0.3,0.6,0.4l0.9-1.8L916.3,318.7z"/>
<path class="st2" d="M965.8,266.7c-1,1-1.2,4.6-1.2,4.6s3.7-0.2,4.6-1.1c0.4-0.4,0.6-0.9,0.7-1.4c0.1-0.5,0-1-0.3-1.5l-1.8,0.9
	l0.9-1.8c-0.5-0.3-1-0.4-1.5-0.3C966.7,266.1,966.2,266.3,965.8,266.7z"/>
<path class="st2" d="M969.7,267.3c-0.1-0.2-0.2-0.4-0.4-0.6c-0.2-0.2-0.4-0.3-0.6-0.4l-0.9,1.8L969.7,267.3z"/>
<path class="st2" d="M935.9,220.2L935.9,220.2l0,0.2l0,0.1l0,0.1l0.1,0.2l0.1,0.1l0.1,0.1l0.1,0.1l0.1,0.1l0.1,0.1l0.1,0.1l0.1,0.1
	l0.1,0.1l0.1,0l0.1,0l0.1,0c0.9,0.3,1.8,0.7,2.5,1.4c0.7,0.7,1.2,1.5,1.5,2.4v0.3l0.2,0.2l0.1,0.2l0.1,0.1l0.1,0.2l0.1,0.1l0.2,0.2
	l0.1,0l0.2,0.1l0,0l0.2,0.1l0.1,0l0.2,0l0.3,0l0.2,0l0.1,0l0.1,0l0.2-0.1l0.1,0l0.2-0.1l0.1,0l0.2-0.1l0.1-0.1
	c0.3-0.2,0.5-0.5,0.6-0.9l0-0.1c0.3-0.9,0.8-1.8,1.5-2.5c0.7-0.7,1.6-1.2,2.5-1.4l0.1,0l0.2-0.1l0.1,0l0.2-0.1l0,0
	c0.2-0.2,0.4-0.4,0.5-0.6c0.1-0.2,0.2-0.5,0.2-0.8H947c-1.7,0.8-3.1,2.1-4,3.8c-0.8-1.7-2.2-3-4-3.8h-3.1l0,0.1L935.9,220.2z"/>
<path class="st2" d="M950.1,365.7L950.1,365.7l0-0.2l0-0.1l0-0.1l-0.1-0.2l-0.1-0.1l-0.1-0.1l-0.1-0.1l-0.1-0.1l-0.1-0.1l-0.1-0.1
	l-0.1-0.1l-0.1-0.1l-0.1,0l-0.1,0l-0.1,0c-0.9-0.3-1.8-0.7-2.5-1.4c-0.7-0.7-1.2-1.5-1.5-2.4v-0.3l-0.2-0.2l-0.1-0.2l-0.1-0.1
	l-0.1-0.2l-0.1-0.1l-0.2-0.2l-0.1,0l-0.2-0.1l0,0l-0.2-0.1l0,0l-0.2,0l-0.3,0l-0.2,0l-0.1,0l-0.1,0l-0.2,0.1l-0.1,0l-0.2,0.1l-0.1,0
	l-0.2,0.1l-0.1,0.1c-0.3,0.2-0.5,0.5-0.6,0.9l0,0.1c-0.3,0.9-0.8,1.8-1.5,2.5c-0.7,0.7-1.6,1.2-2.5,1.4l-0.1,0l-0.2,0.1l-0.1,0
	l-0.2,0.1l0,0c-0.2,0.2-0.4,0.4-0.5,0.6c-0.1,0.2-0.2,0.5-0.2,0.8h3.1c1.7-0.8,3.1-2.1,4-3.8c0.8,1.7,2.2,3,4,3.8h3.1l0-0.1
	L950.1,365.7z"/>
<path class="st2" d="M870.3,300.1L870.3,300.1l0.2,0l0.1,0l0.1,0l0.2-0.1l0.1-0.1l0.1-0.1l0.1-0.1l0.1-0.1l0.1-0.1l0.1-0.1l0.1-0.1
	l0.1-0.1l0-0.1l0-0.1l0-0.1c0.3-0.9,0.7-1.8,1.4-2.5c0.7-0.7,1.5-1.2,2.4-1.5h0.3l0.2-0.2l0.2-0.1l0.1-0.1l0.2-0.1l0.1-0.1l0.2-0.2
	l0.1-0.1l0.1-0.2l0,0l0.1-0.2l0-0.1l0-0.2l0-0.3l0-0.2l0-0.1l0-0.1l-0.1-0.2l0-0.1l-0.1-0.2l-0.1-0.1l-0.1-0.2l-0.1-0.1
	c-0.2-0.3-0.5-0.5-0.9-0.6l-0.1,0c-0.9-0.3-1.8-0.8-2.5-1.5c-0.7-0.7-1.2-1.6-1.4-2.5l0-0.1l-0.1-0.2l0-0.1l-0.1-0.2l0,0
	c-0.2-0.2-0.4-0.4-0.6-0.5c-0.2-0.1-0.5-0.2-0.8-0.2v3.1c0.8,1.7,2.1,3.1,3.8,4c-1.7,0.8-3,2.2-3.8,4v3.1l0.1,0L870.3,300.1z"/>
<path class="st2" d="M1015.8,285.9L1015.8,285.9l-0.2,0l-0.1,0l-0.1,0l-0.2,0.1l-0.1,0.1l-0.1,0.1l-0.1,0.1l-0.1,0.1l-0.1,0.1
	l-0.1,0.1l-0.1,0.1l-0.1,0.1l0,0.1l0,0.1l0,0.1c-0.3,0.9-0.7,1.8-1.4,2.5c-0.7,0.7-1.5,1.2-2.4,1.5h-0.3l-0.2,0.2l-0.2,0.1l-0.1,0.1
	l-0.2,0.1l-0.1,0.1l-0.2,0.2l0,0.1l-0.1,0.2l0,0l-0.1,0.2l0,0.1l0,0.2l0,0.3l0,0.2l0,0.1l0,0.1l0.1,0.2l0,0.1l0.1,0.2l0,0.1l0.1,0.2
	l0.1,0.1c0.2,0.3,0.5,0.5,0.9,0.6l0.2,0c0.9,0.3,1.8,0.8,2.5,1.5c0.7,0.7,1.2,1.6,1.4,2.5l0,0.1l0.1,0.2l0,0.1l0.2,0.2l0,0
	c0.2,0.2,0.4,0.4,0.6,0.5c0.2,0.1,0.5,0.2,0.8,0.2v-3.2c-0.8-1.7-2.1-3.1-3.8-3.9c1.7-0.8,3-2.2,3.8-3.9v-3.2L1015.8,285.9
	L1015.8,285.9z"/>
<path class="st3" d="M677.1,167.4c0.9,0,1.7,0.1,2.6,0.2c-0.4-2.4-0.2-4.9,0.5-7.3c0.7-2.4,1.9-4.6,3.5-6.4s3.6-3.4,5.8-4.4
	c2.2-1,4.7-1.6,7.1-1.6h-15.7c0,0.5-0.1,1-0.3,1.5c-0.2,0.5-0.5,0.9-0.9,1.3s-0.8,0.7-1.3,0.9c-0.5,0.2-1,0.3-1.5,0.3
	c-2.2,0-13.2-1.8-13.2-4H660v36.5c0-4.5,1.8-8.9,5-12C668.2,169.3,672.5,167.5,677.1,167.4z M674.4,160.7c0.2,0.2,0.3,0.4,0.3,0.6
	c0,0.2,0,0.5-0.1,0.7c-0.1,0.2-0.3,0.4-0.5,0.6c-0.2,0.1-0.4,0.2-0.7,0.2c-0.2,0-0.5-0.1-0.7-0.2c-0.2-0.1-0.4-0.3-0.5-0.6
	c-0.1-0.2-0.1-0.5-0.1-0.7c0-0.2,0.2-0.5,0.3-0.6c0.2-0.2,0.6-0.4,0.9-0.4C673.9,160.3,674.2,160.4,674.4,160.7z M660,148h1.8
	c0,0.2,0,0.5-0.1,0.7c-0.1,0.2-0.2,0.4-0.4,0.6c-0.2,0.2-0.4,0.3-0.6,0.4c-0.2,0.1-0.4,0.1-0.7,0.1V148z M660,168.8v-17.2
	c2.2,0,4,11.1,4,13.2c0,0.5-0.1,1-0.3,1.5c-0.2,0.5-0.5,0.9-0.9,1.3c-0.4,0.4-0.8,0.7-1.3,0.9C661,168.7,660.5,168.8,660,168.8z
	 M664.3,152.3c0.8-0.8,6.7,3.2,7.6,4.1c0.2,0.2,0.4,0.5,0.5,0.8c0.1,0.3,0.2,0.6,0.2,1c0,0.3-0.1,0.7-0.2,1
	c-0.1,0.3-0.3,0.6-0.5,0.8c-0.2,0.2-0.5,0.4-0.8,0.5c-0.3,0.1-0.6,0.2-1,0.2c-0.3,0-0.7-0.1-1-0.2c-0.3-0.1-0.6-0.3-0.8-0.5
	C667.4,158.9,663.5,153.1,664.3,152.3z"/>
<path class="st3" d="M677,198.5c1.4,0,2.8-0.2,4.2-0.6l0.6-0.2c0-0.2,0.2-0.4,0.3-0.6c0.1-0.1,0.3-0.2,0.4-0.3
	c0.2-0.1,0.3-0.1,0.5-0.1c0.2,0,0.3,0,0.5,0.1c0.2,0.1,0.3,0.2,0.4,0.3c0.1,0.1,0.2,0.3,0.3,0.4c0.1,0.2,0.1,0.3,0.1,0.5
	c0,0.2,0,0.3-0.1,0.5c-0.1,0.2-0.2,0.3-0.3,0.4c-0.2,0.2-0.4,0.3-0.6,0.3l-0.2,0.6c-0.7,2.1-0.8,4.3-0.4,6.5c0.4,2.2,1.2,4.2,2.5,6
	c1.3,1.8,3,3.2,5,4.2c2,1,4.1,1.5,6.3,1.5s4.4-0.5,6.3-1.5c2-1,3.7-2.4,5-4.2c1.3-1.8,2.2-3.8,2.5-6c0.4-2.2,0.2-4.4-0.4-6.5
	l-0.2-0.6c-0.2,0-0.4-0.2-0.6-0.3c-0.1-0.1-0.2-0.3-0.3-0.4c-0.1-0.2-0.1-0.3-0.1-0.5c0-0.2,0-0.3,0.1-0.5c0.1-0.2,0.2-0.3,0.3-0.4
	c0.1-0.1,0.3-0.2,0.4-0.3c0.2-0.1,0.3-0.1,0.5-0.1s0.3,0,0.5,0.1c0.2,0.1,0.3,0.2,0.4,0.3c0.1,0.2,0.3,0.4,0.3,0.6l0.6,0.2
	c2.1,0.7,4.3,0.8,6.5,0.4c2.2-0.4,4.2-1.2,6-2.5c1.8-1.3,3.2-3,4.2-5c1-2,1.5-4.1,1.5-6.3c0-2.2-0.5-4.4-1.5-6.3c-1-2-2.4-3.7-4.2-5
	c-1.8-1.3-3.8-2.2-6-2.5c-2.2-0.4-4.4-0.2-6.5,0.4l-0.6,0.2c0,0.2-0.2,0.4-0.3,0.6c-0.1,0.1-0.3,0.2-0.4,0.3
	c-0.2,0.1-0.3,0.1-0.5,0.1s-0.3,0-0.5-0.1c-0.2-0.1-0.3-0.2-0.4-0.3c-0.1-0.1-0.2-0.3-0.3-0.4c-0.1-0.2-0.1-0.3-0.1-0.5
	c0-0.2,0-0.3,0.1-0.5c0.1-0.2,0.2-0.3,0.3-0.4c0.2-0.1,0.3-0.3,0.6-0.3l0.2-0.6c0.7-2.1,0.8-4.3,0.4-6.5c-0.4-2.2-1.2-4.2-2.5-6
	c-1.3-1.8-3-3.2-5-4.2c-2-1-4.1-1.5-6.3-1.5s-4.4,0.5-6.3,1.5c-2,1-3.7,2.4-5,4.2c-1.3,1.8-2.2,3.8-2.5,6c-0.4,2.2-0.2,4.4,0.4,6.5
	l0.2,0.6c0.2,0,0.4,0.2,0.6,0.3c0.2,0.2,0.4,0.6,0.4,0.9c0,0.3-0.1,0.6-0.4,0.9c-0.2,0.2-0.6,0.4-0.9,0.4c-0.3,0-0.7-0.1-0.9-0.4
	c-0.1-0.2-0.3-0.4-0.3-0.6l-0.6-0.2c-1.9-0.6-4-0.8-6-0.5c-2,0.3-3.9,0.9-5.6,2c-1.7,1.1-3.2,2.5-4.3,4.2c-1.1,1.7-1.8,3.6-2.1,5.6
	c-0.3,2-0.2,4,0.4,6c0.6,1.9,1.5,3.7,2.8,5.3c1.3,1.5,3,2.8,4.8,3.6C673,198.1,675,198.5,677,198.5L677,198.5z M688.1,196.4
	c-0.5,0.5-1.1,0.7-1.8,0.7c-0.7,0-1.3-0.3-1.8-0.7c-0.5-0.5-0.7-1.1-0.7-1.8c0-0.7,0.3-1.3,0.7-1.8c1-1,6.8-4.9,7.6-4.1
	C693,189.6,689.1,195.4,688.1,196.4z M696.5,205.3c-1,0-2.1-0.4-2.8-1.2c-0.7-0.7-1.2-1.7-1.2-2.8c0-2.2,1.8-13.2,4-13.2
	c2.2,0,4,11.1,4,13.2c0,0.5-0.1,1-0.3,1.5c-0.2,0.5-0.5,0.9-0.9,1.3c-0.4,0.4-0.8,0.7-1.3,0.9C697.5,205.2,697,205.3,696.5,205.3
	L696.5,205.3z M694.7,184.5c0-0.3,0.1-0.7,0.3-1c0.2-0.3,0.5-0.5,0.8-0.6c0.3-0.1,0.7-0.2,1-0.1c0.3,0.1,0.7,0.2,0.9,0.5
	c0.2,0.2,0.4,0.6,0.5,0.9c0.1,0.3,0,0.7-0.1,1s-0.4,0.6-0.6,0.8c-0.3,0.2-0.6,0.3-1,0.3c-0.2,0-0.5,0-0.7-0.1
	c-0.2-0.1-0.4-0.2-0.6-0.4c-0.2-0.2-0.3-0.4-0.4-0.6C694.8,185,694.7,184.7,694.7,184.5z M708.4,196.4c-0.5,0.5-1.1,0.7-1.8,0.7
	c-0.7,0-1.3-0.3-1.8-0.7c-1-1-4.9-6.8-4.1-7.6c0.8-0.8,6.7,3.2,7.6,4.1c0.2,0.2,0.4,0.5,0.5,0.8c0.1,0.3,0.2,0.6,0.2,1
	c0,0.3-0.1,0.6-0.2,0.9C708.8,195.9,708.6,196.2,708.4,196.4z M713.4,180.5c1,0,2.1,0.4,2.8,1.2c0.7,0.7,1.2,1.7,1.2,2.8
	c0,1-0.4,2.1-1.2,2.8c-0.7,0.7-1.7,1.2-2.8,1.2c-2.2,0-13.2-1.8-13.2-4C700.1,182.3,711.2,180.5,713.4,180.5L713.4,180.5z
	 M704.9,172.6c0.5-0.5,1.1-0.7,1.8-0.7c0.7,0,1.3,0.3,1.8,0.7c0.5,0.5,0.7,1.1,0.7,1.8s-0.3,1.3-0.7,1.8c-1,1-6.8,4.9-7.6,4.1
	C700,179.4,703.9,173.6,704.9,172.6L704.9,172.6z M696.5,163.7c1,0,2.1,0.4,2.8,1.2c0.7,0.7,1.2,1.7,1.2,2.8c0,2.2-1.8,13.2-4,13.2
	c-2.2,0-4-11.1-4-13.2c0-1,0.4-2.1,1.2-2.8C694.4,164.1,695.5,163.7,696.5,163.7z M684.6,172.6c0.5-0.5,1.1-0.7,1.8-0.7
	c0.7,0,1.3,0.3,1.8,0.7c1,1,4.9,6.8,4.1,7.6c-0.8,0.8-6.7-3.2-7.6-4.1c-0.5-0.5-0.7-1.1-0.7-1.8
	C683.9,173.7,684.1,173.1,684.6,172.6z M679.6,180.5c2.2,0,13.2,1.8,13.2,4c0,2.2-11.1,4-13.2,4c-1,0-2.1-0.4-2.8-1.2
	c-0.7-0.7-1.2-1.7-1.2-2.8c0-1,0.4-2.1,1.2-2.8C677.6,181,678.6,180.5,679.6,180.5z"/>
<path class="st3" d="M733,149.8c-0.5,0-0.9-0.2-1.2-0.5c-0.3-0.3-0.5-0.8-0.5-1.2h-1.9c0,2.2-11.1,4-13.2,4c-0.5,0-1-0.1-1.5-0.3
	c-0.5-0.2-0.9-0.5-1.3-0.9s-0.7-0.8-0.9-1.3c-0.2-0.5-0.3-1-0.3-1.5h-15.7c2.5,0,4.9,0.5,7.1,1.6c2.2,1,4.2,2.5,5.8,4.4
	c1.6,1.9,2.8,4.1,3.5,6.4c0.7,2.4,0.8,4.8,0.5,7.3c0.9-0.1,1.7-0.2,2.6-0.2c2.3,0,4.7,0.5,6.8,1.4c2.2,0.9,4.1,2.3,5.7,4
	c1.6,1.7,2.8,3.8,3.6,6c0.8,2.2,1.1,4.6,0.9,6.9c-0.2,2.3-0.8,4.6-1.9,6.7c-1.1,2.1-2.6,3.9-4.5,5.4c-1.8,1.5-4,2.5-6.2,3.1
	c-2.3,0.6-4.6,0.7-7,0.4c0.4,2.4,0.2,4.9-0.5,7.3c-0.7,2.4-1.9,4.5-3.5,6.4c-1.6,1.9-3.6,3.4-5.8,4.4c-2.2,1-4.7,1.6-7.1,1.6
	c-2.5,0-4.9-0.5-7.1-1.6c-2.2-1-4.2-2.5-5.8-4.4c-1.6-1.9-2.8-4.1-3.5-6.4c-0.7-2.4-0.8-4.8-0.5-7.3c-2.4,0.4-4.9,0.2-7.3-0.5
	c-2.4-0.7-4.6-1.9-6.4-3.5c-1.9-1.6-3.4-3.6-4.4-5.8c-1-2.2-1.6-4.7-1.6-7.1V221h73v-73h0V149.8z M672.7,206.6
	c0.2-0.2,0.4-0.3,0.6-0.3c0.2,0,0.5,0,0.7,0.1c0.2,0.1,0.4,0.3,0.6,0.5c0.1,0.2,0.2,0.4,0.2,0.7s-0.1,0.5-0.2,0.7
	c-0.1,0.2-0.3,0.4-0.6,0.5c-0.2,0.1-0.5,0.1-0.7,0.1c-0.2,0-0.5-0.2-0.6-0.3c-0.2-0.2-0.4-0.6-0.4-0.9S672.4,206.8,672.7,206.6z
	 M668.4,209.1c0.2-0.2,0.5-0.4,0.8-0.5c0.3-0.1,0.6-0.2,1-0.2c0.3,0,0.7,0.1,1,0.2c0.3,0.1,0.6,0.3,0.8,0.5c0.2,0.2,0.4,0.5,0.5,0.8
	c0.1,0.3,0.2,0.6,0.2,1c0,0.3-0.1,0.6-0.2,1c-0.1,0.3-0.3,0.6-0.5,0.8c-1,1-6.8,4.9-7.6,4.1C663.5,215.9,667.4,210.1,668.4,209.1z
	 M660,200.2c0.5,0,1,0.1,1.5,0.3c0.5,0.2,0.9,0.5,1.3,0.9c0.4,0.4,0.7,0.8,0.9,1.3c0.2,0.5,0.3,1,0.3,1.5c0,2.2-1.8,13.2-4,13.2
	V200.2z M660,221v-1.8c0.2,0,0.5,0,0.7,0.1c0.2,0.1,0.4,0.2,0.6,0.4c0.2,0.2,0.3,0.4,0.4,0.6c0.1,0.2,0.1,0.4,0.1,0.7H660z
	 M663.6,221c0-2.2,11.1-4,13.2-4c1,0,2.1,0.4,2.8,1.2c0.7,0.7,1.2,1.7,1.2,2.8H663.6z M720.3,162.4c-0.2,0.2-0.4,0.3-0.6,0.3
	c-0.2,0-0.5,0-0.7-0.1c-0.2-0.1-0.4-0.3-0.6-0.5c-0.1-0.2-0.2-0.4-0.2-0.7c0-0.2,0.1-0.5,0.2-0.7c0.1-0.2,0.3-0.4,0.6-0.5
	c0.2-0.1,0.5-0.1,0.7-0.1c0.2,0,0.5,0.2,0.6,0.3c0.2,0.2,0.4,0.6,0.4,0.9C720.7,161.9,720.6,162.2,720.3,162.4z M724.6,159.9
	c-0.2,0.2-0.5,0.4-0.8,0.5c-0.3,0.1-0.6,0.2-1,0.2s-0.6-0.1-1-0.2c-0.3-0.1-0.6-0.3-0.8-0.5c-0.2-0.2-0.4-0.5-0.5-0.8
	c-0.1-0.3-0.2-0.6-0.2-0.9c0-0.3,0.1-0.6,0.2-0.9s0.3-0.6,0.5-0.8c1-1,6.8-4.9,7.6-4.1C729.5,153.1,725.6,158.9,724.6,159.9z
	 M733,200.2v17.2c-2.2,0-4-11.1-4-13.2c0-1,0.4-2.1,1.2-2.8C730.9,200.6,731.9,200.2,733,200.2L733,200.2z M724.6,209.1
	c1,1,4.9,6.8,4.1,7.6c-0.8,0.8-6.7-3.2-7.6-4.1c-0.5-0.5-0.7-1.1-0.7-1.8c0-0.7,0.3-1.3,0.7-1.8c0.5-0.5,1.1-0.7,1.8-0.7
	C723.5,208.4,724.1,208.6,724.6,209.1z M718.6,206.6c0.2-0.2,0.4-0.3,0.6-0.3c0.2,0,0.5,0,0.7,0.1c0.2,0.1,0.4,0.3,0.6,0.5
	c0.1,0.2,0.2,0.4,0.2,0.7s-0.1,0.5-0.2,0.7c-0.1,0.2-0.3,0.4-0.6,0.5c-0.2,0.1-0.5,0.1-0.7,0.1c-0.2,0-0.5-0.2-0.6-0.3
	c-0.2-0.2-0.4-0.6-0.4-0.9S718.3,206.8,718.6,206.6L718.6,206.6z M712.2,221c0-1,0.4-2.1,1.2-2.8c0.7-0.7,1.7-1.2,2.8-1.2
	c2.2,0,13.2,1.8,13.2,4H712.2z M733,221h-1.8c0-0.5,0.2-0.9,0.5-1.2c0.3-0.3,0.8-0.5,1.2-0.5V221z M733,168.8c-0.5,0-1-0.1-1.5-0.3
	c-0.5-0.2-0.9-0.5-1.3-0.9c-0.4-0.4-0.7-0.8-0.9-1.3c-0.2-0.5-0.3-1-0.3-1.5c0-2.2,1.8-13.2,4-13.2V168.8z"/>
<path class="st0" d="M256.7,35.7c-0.4-2.1-1.7-7.5-5.6-11.5c-3.9-3.9-9.4-5.2-11.5-5.6c0.4,2.1,1.7,7.5,5.6,11.5
	C249.2,34,254.6,35.3,256.7,35.7z"/>
<path class="st0" d="M256.7,37.3c-2.1,0.4-7.5,1.7-11.5,5.6c-3.9,3.9-5.2,9.4-5.6,11.5c2.1-0.4,7.5-1.7,11.5-5.6
	C255,44.8,256.3,39.4,256.7,37.3z"/>
<path class="st0" d="M221,73c2.1-0.4,7.5-1.7,11.5-5.6c3.9-3.9,5.2-9.4,5.6-11.5c-2.1,0.4-7.5,1.7-11.5,5.6
	C222.7,65.5,221.4,70.9,221,73z"/>
<path class="st0" d="M239.6,55.9c0.4,2.1,1.7,7.5,5.6,11.5c3.9,3.9,9.4,5.2,11.5,5.6c-0.4-2.1-1.7-7.5-5.6-11.5
	C247.2,57.6,241.7,56.3,239.6,55.9z"/>
<path class="st0" d="M221,35.7c2.1-0.4,7.5-1.7,11.5-5.6c3.9-3.9,5.2-9.4,5.6-11.5c-2.1,0.4-7.5,1.7-11.5,5.6
	C222.7,28.2,221.4,33.6,221,35.7z"/>
<path class="st0" d="M221,37.3c0.4,2.1,1.7,7.5,5.6,11.5c3.9,3.9,9.4,5.2,11.5,5.6c-0.4-2.1-1.7-7.5-5.6-11.5
	C228.5,39,223.1,37.7,221,37.3z"/>
<path class="st0" d="M221,0c0.4,2.1,1.7,7.5,5.6,11.5c3.9,3.9,9.4,5.2,11.5,5.6c-0.4-2.1-1.7-7.5-5.6-11.5
	C228.5,1.7,223.1,0.4,221,0z"/>
<path class="st0" d="M256.7,0c-2.1,0.4-7.5,1.7-11.5,5.6c-3.9,3.9-5.2,9.4-5.6,11.5c2.1-0.4,7.5-1.7,11.5-5.6
	C255,7.5,256.3,2.1,256.7,0z"/>
<path class="st0" d="M276.9,54.4c2.1-0.4,7.5-1.7,11.5-5.6c3.9-3.9,5.2-9.4,5.6-11.5c-2.1,0.4-7.5,1.7-11.5,5.6
	C278.6,46.8,277.3,52.3,276.9,54.4z"/>
<path class="st0" d="M276.9,17.1c2.1-0.4,7.5-1.7,11.5-5.6c3.9-3.9,5.2-9.4,5.6-11.5c-2.1,0.4-7.5,1.7-11.5,5.6
	C278.6,9.5,277.3,15,276.9,17.1z"/>
<path class="st0" d="M276.9,18.6c0.4,2.1,1.7,7.5,5.6,11.5c3.9,3.9,9.4,5.2,11.5,5.6c-0.4-2.1-1.7-7.5-5.6-11.5
	C284.5,20.3,279,19,276.9,18.6z"/>
<path class="st0" d="M276.9,55.9c0.4,2.1,1.7,7.5,5.6,11.5c3.9,3.9,9.4,5.2,11.5,5.6c-0.4-2.1-1.7-7.5-5.6-11.5
	C284.5,57.6,279,56.3,276.9,55.9z"/>
<path class="st0" d="M275.4,18.6c-2.1,0.4-7.5,1.7-11.5,5.6c-3.9,3.9-5.2,9.4-5.6,11.5c2.1-0.4,7.5-1.7,11.5-5.6
	C273.7,26.2,275,20.7,275.4,18.6z"/>
<path class="st0" d="M258.3,0c0.4,2.1,1.7,7.5,5.6,11.5c3.9,3.9,9.4,5.2,11.5,5.6c-0.4-2.1-1.7-7.5-5.6-11.5
	C265.8,1.7,260.4,0.4,258.3,0z"/>
<path class="st0" d="M258.3,37.3c0.4,2.1,1.7,7.5,5.6,11.5c3.9,3.9,9.4,5.2,11.5,5.6c-0.4-2.1-1.7-7.5-5.6-11.5
	C265.8,39,260.4,37.7,258.3,37.3z"/>
<path class="st0" d="M258.3,73c2.1-0.4,7.5-1.7,11.5-5.6c3.9-3.9,5.2-9.4,5.6-11.5c-2.1,0.4-7.5,1.7-11.5,5.6
	C260,65.5,258.7,70.9,258.3,73z"/>
</svg>
