<?xml version="1.0" encoding="utf-8"?>
<!-- Generator: Adobe Illustrator 22.1.0, SVG Export Plug-In . SVG Version: 6.00 Build 0)  -->
<svg version="1.1" id="Слой_1" xmlns="http://www.w3.org/2000/svg" xmlns:xlink="http://www.w3.org/1999/xlink" x="0px" y="0px"
	 viewBox="0 0 1166 512" style="enable-background:new 0 0 1166 512;" xml:space="preserve">
<style type="text/css">
	.st0{fill:#FDD84A;}
	.st1{fill:#E7533B;}
</style>
<path class="st0" d="M585,436.4c-0.3,0.3-0.5,0.6-0.7,1c-0.2,0.4-0.2,0.8-0.2,1.2c0,0.4,0.1,0.8,0.2,1.2c0.2,0.4,0.4,0.7,0.7,1
	c0.6,0.6,1.4,0.9,2.2,0.9c0.8,0,1.6-0.3,2.2-0.9c0.3-0.3,0.5-0.6,0.7-1c0.2-0.4,0.2-0.8,0.2-1.2s-0.1-0.8-0.2-1.2
	c-0.2-0.4-0.4-0.7-0.7-1c-0.6-0.6-1.4-0.9-2.2-0.9C586.4,435.5,585.6,435.8,585,436.4z"/>
<path class="st0" d="M582.8,434.9c0.1,0,0.2,0,0.3,0s0.2-0.1,0.3-0.2c0.1-0.1,0.1-0.2,0.2-0.3c0-0.1,0-0.2,0-0.3
	c-0.9-4-2.8-7.6-5.6-10.5c-2.9-2.7-6.5-4.7-10.4-5.6v0.9h-0.9c0.9,3.9,2.8,7.5,5.6,10.3C575.2,432.1,578.8,434.1,582.8,434.9z"/>
<path class="st0" d="M591.6,442.2c-0.1,0-0.2,0-0.3,0c-0.1,0-0.2,0.1-0.3,0.2c-0.1,0.1-0.1,0.2-0.2,0.3c0,0.1,0,0.2,0,0.3
	c0.9,4,2.8,7.6,5.6,10.5c2.9,2.7,6.5,4.7,10.4,5.6v-0.9h0.9c-0.9-3.9-2.8-7.5-5.6-10.3C599.2,445,595.6,443,591.6,442.2z"/>
<path class="st0" d="M583.5,442.9c0-0.1,0-0.2,0-0.3c0-0.1-0.1-0.2-0.2-0.3c-0.1-0.1-0.2-0.1-0.3-0.2c-0.1,0-0.2,0-0.3,0
	c-4,0.9-7.6,2.8-10.6,5.6c-2.8,2.9-4.7,6.4-5.6,10.3h0.9v0.9c3.9-0.9,7.5-2.8,10.4-5.6C580.7,450.5,582.7,446.9,583.5,442.9z"/>
<path class="st0" d="M590.8,434.2c0,0.1,0,0.2,0,0.3c0,0.1,0.1,0.2,0.2,0.3c0.1,0.1,0.2,0.1,0.3,0.2c0.1,0,0.2,0,0.3,0
	c4-0.9,7.6-2.8,10.6-5.6c2.8-2.9,4.7-6.4,5.6-10.3h-0.9v-0.9c-3.9,0.9-7.5,2.8-10.4,5.6C593.7,426.6,591.7,430.2,590.8,434.2z"/>
<path class="st0" d="M581.4,438c-3.4-2.2-7.4-3.3-11.4-3.4c-4.1,0.1-8,1.3-11.5,3.5c-0.1,0.1-0.2,0.1-0.2,0.2c0,0.1-0.1,0.2-0.1,0.3
	c0,0.1,0,0.2,0.1,0.3c0,0.1,0.1,0.2,0.2,0.2c3.4,2.2,7.4,3.4,11.5,3.5c4.1-0.1,8.1-1.3,11.5-3.5l0.1-0.1l0,0
	c0.1-0.1,0.1-0.1,0.1-0.2c0-0.1,0-0.2,0-0.2c0-0.1,0-0.2,0-0.2c0-0.1-0.1-0.1-0.1-0.2L581.4,438z"/>
<path class="st0" d="M615.8,438c-3.4-2.1-7.4-3.3-11.4-3.4c-4.1,0.1-8,1.3-11.5,3.5c-0.1,0.1-0.2,0.1-0.2,0.2s-0.1,0.2-0.1,0.3
	c0,0.1,0,0.2,0.1,0.3c0,0.1,0.1,0.2,0.2,0.2c3.4,2.2,7.4,3.4,11.5,3.5c4.1-0.1,8-1.3,11.5-3.5l0.1-0.1l0,0c0.1-0.1,0.1-0.1,0.1-0.2
	c0-0.1,0-0.2,0-0.2c0-0.1,0-0.2,0-0.2c0-0.1-0.1-0.1-0.1-0.2L615.8,438z"/>
<path class="st0" d="M587.2,443.9c-0.1,0-0.2,0-0.3,0.1c-0.1,0-0.2,0.1-0.2,0.2c-2.2,3.4-3.4,7.3-3.5,11.4c0.1,4,1.3,8,3.5,11.4
	c0.1,0.1,0.1,0.1,0.2,0.2c0.1,0,0.2,0.1,0.3,0.1c0.1,0,0.2,0,0.3,0c0.1,0,0.2-0.1,0.2-0.1l0.1-0.1c2.2-3.4,3.4-7.3,3.5-11.4
	c-0.1-4-1.3-8-3.5-11.4c-0.1-0.1-0.1-0.1-0.2-0.2C587.4,443.9,587.3,443.9,587.2,443.9z"/>
<path class="st0" d="M587.2,433.2c0.1,0,0.2,0,0.2,0c0.1,0,0.1-0.1,0.2-0.1l0.1-0.1c2.2-3.4,3.4-7.3,3.5-11.4c-0.1-4-1.3-8-3.5-11.4
	c-0.1-0.1-0.1-0.2-0.2-0.2c-0.1,0-0.2-0.1-0.3-0.1s-0.2,0-0.3,0.1c-0.1,0-0.2,0.1-0.2,0.2c-2.2,3.4-3.4,7.3-3.5,11.4
	c0.1,4,1.3,8,3.5,11.4c0.1,0.1,0.1,0.2,0.2,0.2C587,433.2,587.1,433.2,587.2,433.2z"/>
<path class="st0" d="M552.7,367.3c-9.5-0.5-10.7,5.2-10.7,6.8c0,5.2,3.8,6.1,3.8,6.1c-2.2,1.1-10.2,1.1-10.2-6.7
	c0-0.9,0.2-1.8,0.7-2.6c0.5-0.8,1.1-1.4,1.9-1.8l-0.1,0c-1.4,0.8-2.9,1.2-4.5,1.3c-1.9-0.2-3.7-1-5-2.3c-0.9-0.7-2.5-2.1-2.5-2.1
	h-6.7c0,0,14.9,18.9,27.9,18.9c2.1,0,4.1-0.6,5.8-1.8c1.7-1.2,2.9-2.9,3.5-4.9c0.6-2,0.6-4.1-0.1-6
	C555.7,370.1,554.4,368.5,552.7,367.3z"/>
<path class="st0" d="M514,371.3L514,371.3l0,6.7l0,0c0,0,1.5,1.6,2.2,2.5c1.3,1.4,2.1,3.1,2.3,5c-0.1,1.6-0.6,3.1-1.3,4.5l0,0.1
	c0.4-0.8,1.1-1.5,1.9-1.9c0.8-0.5,1.7-0.7,2.6-0.6c7.9,0,7.9,8,6.7,10.1c0,0-0.9-3.7-6.2-3.7c-1.6,0-7.3,1.1-6.9,10.6
	c1.2,1.7,2.8,3,4.8,3.7c1.9,0.7,4.1,0.7,6,0.1c2-0.6,3.7-1.8,4.9-3.5c1.2-1.7,1.9-3.7,1.9-5.7C533,386,514,371.3,514,371.3z"/>
<path class="st0" d="M654.7,366H648c0,0-1.6,1.4-2.5,2.1c-1.4,1.3-3.2,2.1-5,2.3c-1.6-0.1-3.1-0.5-4.5-1.3l-0.1,0
	c0.8,0.4,1.5,1,1.9,1.8c0.5,0.8,0.7,1.7,0.7,2.6c0,7.8-8,7.8-10.2,6.7c0,0,3.8-0.9,3.8-6.1c0-1.6-1.1-7.3-10.7-6.8
	c-1.7,1.1-3,2.8-3.7,4.8c-0.7,1.9-0.7,4.1-0.1,6c0.6,2,1.8,3.7,3.5,4.9c1.7,1.2,3.7,1.9,5.8,1.8C639.8,384.9,654.7,366,654.7,366z"
	/>
<path class="st0" d="M660,371.3c0,0-19,14.8-19,27.7c0,2.1,0.7,4.1,1.9,5.7c1.2,1.7,3,2.9,4.9,3.5c2,0.6,4.1,0.6,6-0.1
	c1.9-0.7,3.6-2,4.8-3.7c0.5-9.4-5.2-10.6-6.9-10.6c-5.2,0-6.2,3.7-6.2,3.7c-1.2-2.1-1.1-10.1,6.7-10.1c0.9,0,1.8,0.2,2.6,0.7
	s1.4,1.1,1.9,1.9l0-0.1c-0.8-1.4-1.2-2.9-1.3-4.5c0.2-1.9,1-3.6,2.3-5c0.7-0.9,2.2-2.5,2.2-2.5l0,0L660,371.3L660,371.3z"/>
<path class="st0" d="M626.8,493.1c-2.1,0-4.1,0.6-5.8,1.8c-1.7,1.2-2.9,2.9-3.5,4.9c-0.6,2-0.6,4.1,0.1,6c0.7,1.9,2,3.6,3.7,4.8
	c9.5,0.5,10.7-5.2,10.7-6.8c0-5.2-3.8-6.1-3.8-6.1c2.2-1.2,10.2-1.1,10.2,6.7c0,0.9-0.2,1.8-0.7,2.6c-0.5,0.8-1.1,1.4-1.9,1.8l0.1,0
	c1.4-0.8,2.9-1.2,4.5-1.3c1.9,0.2,3.7,1,5,2.3c0.9,0.7,2.5,2.1,2.5,2.1h6.7C654.7,512,639.8,493.1,626.8,493.1z"/>
<path class="st0" d="M657.8,497.6c-1.3-1.4-2.1-3.1-2.3-5c0.1-1.6,0.6-3.1,1.3-4.5l0-0.1c-0.4,0.8-1.1,1.5-1.9,1.9
	c-0.8,0.5-1.7,0.7-2.6,0.6c-7.9,0-7.9-8-6.7-10.1c0,0,0.9,3.7,6.2,3.7c1.6,0,7.3-1.1,6.9-10.6c-1.2-1.7-2.8-3-4.8-3.7
	c-1.9-0.7-4.1-0.7-6-0.1c-2,0.6-3.7,1.8-4.9,3.5c-1.2,1.7-1.9,3.7-1.9,5.7c0,12.9,19,27.7,19,27.7h0v-6.7h0
	C660,500.1,658.5,498.5,657.8,497.6z"/>
<path class="st0" d="M533.6,507.6c1.6,0.1,3.1,0.5,4.5,1.3l0.1,0c-0.8-0.4-1.5-1-1.9-1.8c-0.5-0.8-0.7-1.7-0.7-2.6
	c0-7.8,8-7.8,10.2-6.7c0,0-3.8,0.9-3.8,6.1c0,1.6,1.1,7.3,10.7,6.8c1.7-1.1,3-2.8,3.7-4.8c0.7-1.9,0.7-4.1,0.1-6
	c-0.6-2-1.8-3.7-3.5-4.9c-1.7-1.2-3.7-1.9-5.8-1.8c-13,0-27.9,18.8-27.9,18.9h6.7c0,0,1.6-1.4,2.5-2.1
	C529.9,508.6,531.7,507.8,533.6,507.6z"/>
<path class="st0" d="M533,479.1c0-2.1-0.7-4.1-1.9-5.7c-1.2-1.7-3-2.9-4.9-3.5c-2-0.6-4.1-0.6-6,0.1c-1.9,0.7-3.6,2-4.8,3.7
	c-0.5,9.4,5.2,10.6,6.9,10.6c5.2,0,6.2-3.7,6.2-3.7c1.2,2.1,1.1,10.1-6.7,10.1c-0.9,0-1.8-0.2-2.6-0.6c-0.8-0.5-1.4-1.1-1.9-1.9
	l0,0.1c0.8,1.4,1.2,2.9,1.3,4.5c-0.2,1.9-1,3.6-2.3,5c-0.7,0.9-2.2,2.5-2.2,2.5h0v6.7h0C514,506.7,533,492,533,479.1z"/>
<path class="st0" d="M610.3,385.5l0-19.5H564v19.5l-30.4,30.1H514v3.4l0,16.1l0,0v6.9l0,0l0,16.1v3.4h19.7l30.4,30.1V512h46.3v-20.4
	l30.4-30.1H660v-45.9h-19.3L610.3,385.5z M637.2,458.1h-29.4c0,0.1,0,0.2,0,0.2c0,0.1,0,0.2,0,0.3c0,0.1-0.1,0.2-0.2,0.3
	c-0.1,0.1-0.2,0.1-0.3,0.2c-0.1,0-0.2,0-0.3,0c0,0-0.1,0-0.2,0v29.1l-19.7,19.5l-19.7-19.5V459c-0.1,0-0.2,0-0.2,0
	c-0.1,0-0.2,0-0.3,0c-0.1,0-0.2-0.1-0.3-0.2c-0.1-0.1-0.1-0.2-0.2-0.3c0-0.1,0-0.2,0-0.3c0,0,0-0.1,0-0.2h-29.4l-19.7-19.5
	l19.7-19.6h29.4c0-0.1,0-0.2,0-0.2c0-0.1,0-0.2,0-0.3c0-0.1,0.1-0.2,0.2-0.3c0.1-0.1,0.2-0.1,0.3-0.2c0.1,0,0.2,0,0.3,0
	c0,0,0.1,0,0.2,0V389l19.7-19.5l19.7,19.5v29.2c0.1,0,0.2,0,0.2,0c0.1,0,0.2,0,0.3,0c0.1,0,0.2,0.1,0.3,0.2c0.1,0.1,0.1,0.2,0.2,0.3
	c0,0.1,0,0.2,0,0.3c0,0,0,0.1,0,0.2h29.4l19.7,19.6L637.2,458.1z"/>
<path class="st0" d="M567.5,418.1c-0.1,0-0.2,0-0.2,0c-0.1,0-0.2,0-0.3,0c-0.1,0-0.2,0.1-0.3,0.2c-0.1,0.1-0.1,0.2-0.2,0.3
	c0,0.1,0,0.2,0,0.3c0,0,0,0.1,0,0.2h0.9V418.1z"/>
<path class="st0" d="M606.9,459c0.1,0,0.2,0,0.2,0c0.1,0,0.2,0,0.3,0c0.1,0,0.2-0.1,0.3-0.2c0.1-0.1,0.1-0.2,0.2-0.3
	c0-0.1,0-0.2,0-0.3c0,0,0-0.1,0-0.2h-0.9V459z"/>
<path class="st0" d="M566.6,458.1c0,0.1,0,0.2,0,0.2c0,0.1,0,0.2,0,0.3c0,0.1,0.1,0.2,0.2,0.3c0.1,0.1,0.2,0.1,0.3,0.2
	c0.1,0,0.2,0,0.3,0c0,0,0.1,0,0.2,0v-0.9H566.6z"/>
<path class="st0" d="M607.8,419c0-0.1,0-0.2,0-0.2c0-0.1,0-0.2,0-0.3c0-0.1-0.1-0.2-0.2-0.3c-0.1-0.1-0.2-0.1-0.3-0.2
	c-0.1,0-0.2,0-0.3,0c0,0-0.1,0-0.2,0v0.9H607.8z"/>
<path class="st0" d="M660.6,310.8c0.2,0.1,0.4,0.1,0.6,0.1s0.4-0.1,0.5-0.3l15.8-15.8c0.1-0.1,0.2-0.3,0.3-0.5c0-0.2,0-0.4-0.1-0.6
	c-0.1-0.2-0.2-0.3-0.4-0.5c-0.2-0.1-0.4-0.2-0.6-0.2H661c-0.3,0-0.5,0.1-0.7,0.3c-0.2,0.2-0.3,0.4-0.3,0.7v15.8
	c0,0.2,0.1,0.4,0.2,0.6C660.3,310.6,660.4,310.7,660.6,310.8z"/>
<path class="st0" d="M660.6,319.1c0.1,0.1,0.3,0.2,0.5,0.2c0.2,0,0.3-0.1,0.5-0.2l24.6-24.6c0.1-0.1,0.1-0.1,0.1-0.2
	c0-0.1,0-0.2,0.1-0.3c0-0.1,0-0.2,0-0.3c0-0.1-0.1-0.2-0.1-0.2c-0.1-0.1-0.1-0.1-0.2-0.1c-0.1,0-0.2,0-0.3,0c-0.1,0-0.2,0-0.3,0.1
	c-0.1,0-0.2,0.1-0.2,0.1l-24.6,24.6c-0.1,0.1-0.2,0.3-0.2,0.5S660.4,318.9,660.6,319.1z"/>
<path class="st0" d="M732.4,348.2c-0.2-0.1-0.4-0.1-0.6-0.1c-0.2,0-0.4,0.1-0.5,0.3l-15.8,15.8c-0.1,0.1-0.2,0.3-0.3,0.5
	c0,0.2,0,0.4,0.1,0.6c0.1,0.2,0.2,0.3,0.4,0.5c0.2,0.1,0.4,0.2,0.6,0.2H732c0.3,0,0.5-0.1,0.7-0.3c0.2-0.2,0.3-0.4,0.3-0.7v-15.8
	c0-0.2-0.1-0.4-0.2-0.6C732.7,348.4,732.6,348.3,732.4,348.2z"/>
<path class="st0" d="M732.4,339.9c-0.1-0.1-0.1-0.1-0.2-0.1c-0.1,0-0.2,0-0.3,0c-0.1,0-0.2,0-0.2,0c-0.1,0-0.2,0.1-0.2,0.1
	l-24.6,24.6c-0.1,0.1-0.2,0.3-0.2,0.5c0,0.2,0.1,0.3,0.2,0.5c0.1,0.1,0.3,0.2,0.5,0.2c0.2,0,0.3-0.1,0.5-0.2l24.6-24.6
	c0.1-0.1,0.1-0.1,0.1-0.2c0-0.1,0.1-0.2,0.1-0.3c0-0.1,0-0.2-0.1-0.2C732.6,340.1,732.5,340,732.4,339.9z"/>
<path class="st0" d="M661.7,348.5c-0.1-0.1-0.2-0.2-0.3-0.2c-0.1-0.1-0.3-0.1-0.4-0.1c-0.1,0-0.3,0-0.4,0.1
	c-0.2,0.1-0.3,0.2-0.5,0.4c-0.1,0.2-0.2,0.4-0.2,0.6V365c0,0.1,0,0.3,0.1,0.4c0.1,0.1,0.1,0.2,0.2,0.3c0.1,0.1,0.2,0.2,0.3,0.2
	s0.3,0.1,0.4,0.1h15.8c0.2,0,0.4-0.1,0.6-0.2c0.2-0.1,0.3-0.3,0.4-0.5c0.1-0.2,0.1-0.4,0.1-0.6c0-0.2-0.1-0.4-0.3-0.5L661.7,348.5z"
	/>
<path class="st0" d="M661.5,339.9c-0.1-0.1-0.3-0.2-0.5-0.2c-0.2,0-0.3,0.1-0.5,0.2c-0.1,0.1-0.2,0.3-0.2,0.5c0,0.2,0.1,0.3,0.2,0.5
	l24.6,24.6c0.1,0.1,0.3,0.2,0.5,0.2c0.2,0,0.3-0.1,0.5-0.2c0.1-0.1,0.1-0.1,0.1-0.2c0-0.1,0-0.2,0-0.3c0-0.1,0-0.2,0-0.2
	c0-0.1-0.1-0.2-0.1-0.2L661.5,339.9z"/>
<path class="st0" d="M731.3,310.5c0.2,0.2,0.4,0.3,0.7,0.3c0.1,0,0.3,0,0.4-0.1c0.2-0.1,0.3-0.2,0.5-0.4c0.1-0.2,0.2-0.4,0.2-0.6
	V294c0-0.3-0.1-0.5-0.3-0.7c-0.2-0.2-0.4-0.3-0.7-0.3h-15.8c-0.2,0-0.4,0.1-0.6,0.2c-0.2,0.1-0.3,0.3-0.4,0.5
	c-0.1,0.2-0.1,0.4-0.1,0.6c0,0.2,0.1,0.4,0.3,0.5L731.3,310.5z"/>
<path class="st0" d="M731.5,319.1c0.1,0.1,0.3,0.2,0.5,0.2c0.1,0,0.3,0,0.4-0.1c0.1-0.1,0.2-0.2,0.2-0.3c0-0.1,0.1-0.3,0-0.4
	c0-0.1-0.1-0.2-0.2-0.3l-24.6-24.6c-0.1-0.1-0.1-0.1-0.2-0.1c-0.1,0-0.2,0-0.2,0c-0.1,0-0.2,0-0.3,0c-0.1,0-0.2,0.1-0.2,0.1
	c-0.1,0.1-0.1,0.1-0.1,0.2c0,0.1,0,0.2,0,0.2c0,0.1,0,0.2,0,0.3c0,0.1,0.1,0.2,0.1,0.2L731.5,319.1z"/>
<path class="st0" d="M695.8,322.1c0.1,0.1,0.2,0.2,0.3,0.2c0.1,0.1,0.3,0.1,0.4,0.1c0.1,0,0.3,0,0.4-0.1s0.2-0.1,0.3-0.2
	c1.1-1.3,2.1-2.7,3-4.2c1.9-3,3-6.6,3-10.2s-1-7.2-3-10.2c-0.8-1.5-1.8-2.9-3-4.2c-0.1-0.1-0.2-0.2-0.3-0.2s-0.3-0.1-0.4-0.1
	c-0.1,0-0.3,0-0.4,0.1c-0.1,0.1-0.2,0.1-0.3,0.2c-1.1,1.3-2.1,2.7-3,4.2c-1.9,3-3,6.6-3,10.2s1,7.2,3,10.2
	C693.6,319.4,694.6,320.8,695.8,322.1z"/>
<path class="st0" d="M697.2,336.9c-0.1-0.1-0.2-0.2-0.3-0.2c-0.1-0.1-0.3-0.1-0.4-0.1c-0.1,0-0.3,0-0.4,0.1
	c-0.1,0.1-0.2,0.1-0.3,0.2c-1.1,1.3-2.1,2.7-3,4.2c-1.9,3-3,6.6-3,10.2c0,3.6,1,7.2,3,10.2c0.8,1.5,1.8,2.9,3,4.2
	c0.1,0.1,0.2,0.2,0.3,0.2c0.1,0.1,0.3,0.1,0.4,0.1c0.1,0,0.3,0,0.4-0.1c0.1-0.1,0.2-0.1,0.3-0.2c1.1-1.3,2.1-2.7,3-4.2
	c1.9-3,3-6.6,3-10.2c0-3.6-1-7.2-3-10.2C699.4,339.6,698.4,338.2,697.2,336.9z"/>
<path class="st0" d="M664.5,325.8c-1.5,0.8-2.9,1.8-4.2,3c-0.1,0.1-0.2,0.2-0.2,0.3c-0.1,0.1-0.1,0.3-0.1,0.4c0,0.1,0,0.3,0.1,0.4
	c0.1,0.1,0.1,0.2,0.2,0.3c1.3,1.1,2.7,2.1,4.2,3c3,1.9,6.6,3,10.2,3c3.6,0,7.2-1,10.2-3c1.5-0.9,2.9-1.9,4.2-3
	c0.1-0.1,0.2-0.2,0.2-0.3c0.1-0.1,0.1-0.3,0.1-0.4c0-0.1,0-0.3-0.1-0.4c-0.1-0.1-0.1-0.2-0.2-0.3c-1.3-1.1-2.7-2.1-4.2-3
	c-3-1.9-6.6-3-10.2-3S667.6,323.8,664.5,325.8z"/>
<path class="st0" d="M703.9,328.8c-0.1,0.1-0.2,0.2-0.2,0.3c-0.1,0.1-0.1,0.3-0.1,0.4c0,0.1,0,0.3,0.1,0.4c0.1,0.1,0.1,0.2,0.2,0.3
	c1.3,1.1,2.7,2.1,4.2,3c3,1.9,6.6,3,10.2,3c3.6,0,7.2-1,10.2-3c1.5-0.8,2.9-1.9,4.2-3c0.1-0.1,0.2-0.2,0.2-0.3
	c0.1-0.1,0.1-0.3,0.1-0.4c0-0.1,0-0.3-0.1-0.4c-0.1-0.1-0.1-0.2-0.2-0.3c-1.3-1.1-2.7-2.1-4.2-3c-3-1.9-6.6-3-10.2-3
	c-3.6,0-7.2,1-10.2,3C706.6,326.6,705.2,327.6,703.9,328.8z"/>
<path class="st0" d="M698.6,329.5c0-0.4-0.1-0.8-0.4-1.2c-0.2-0.4-0.6-0.6-1-0.8c-0.4-0.2-0.8-0.2-1.2-0.1c-0.4,0.1-0.8,0.3-1.1,0.6
	c-0.3,0.3-0.5,0.7-0.6,1.1c-0.1,0.4,0,0.8,0.1,1.2c0.2,0.4,0.4,0.7,0.8,1c0.4,0.2,0.8,0.4,1.2,0.4c0.3,0,0.6-0.1,0.8-0.2
	c0.3-0.1,0.5-0.3,0.7-0.5c0.2-0.2,0.4-0.4,0.5-0.7C698.6,330.1,698.6,329.8,698.6,329.5z"/>
<path class="st0" d="M702,335.7c0.8,1.1,7.9,11,8.7,11.8c0.5,0.5,1.2,0.8,1.9,0.8c0.7,0,1.4-0.3,1.9-0.8c0.5-0.5,0.8-1.2,0.8-1.9
	c0-0.7-0.3-1.4-0.8-1.9c-0.9-0.9-10.7-7.9-11.8-8.7c-0.1-0.1-0.2-0.1-0.3-0.1c-0.1,0-0.2,0.1-0.3,0.1c-0.1,0.1-0.1,0.2-0.1,0.3
	C701.9,335.5,701.9,335.6,702,335.7z"/>
<path class="st0" d="M690.3,335c-1.1,0.8-11,7.9-11.8,8.7c-0.5,0.5-0.8,1.2-0.8,1.9c0,0.7,0.3,1.4,0.8,1.9c0.5,0.5,1.2,0.8,1.9,0.8
	c0.7,0,1.4-0.3,1.9-0.8c-0.1,0.1,7.2-9.7,8.7-11.8c0.1-0.1,0.1-0.2,0.1-0.3c0-0.1-0.1-0.2-0.1-0.3c-0.1-0.1-0.2-0.1-0.3-0.1
	C690.5,334.9,690.4,334.9,690.3,335z"/>
<path class="st0" d="M712.6,310.7c-0.4,0-0.7,0.1-1,0.2c-0.3,0.1-0.6,0.3-0.9,0.6c-0.9,0.9-7.9,10.7-8.7,11.8
	c-0.1,0.1-0.1,0.2-0.1,0.3c0,0.1,0.1,0.2,0.1,0.3c0,0,0.1,0.1,0.2,0.1c0.1,0,0.1,0,0.2,0c0.1,0,0.2,0,0.3-0.1
	c1.1-0.8,10.1-7,10.9-7.8c1-1,2-3.7,0.9-4.7c-0.2-0.3-0.5-0.4-0.9-0.6C713.3,310.8,713,310.7,712.6,310.7z"/>
<path class="st0" d="M691,323.3c-1.1-1.5-7.5-10.5-8.7-11.8c-0.5-0.5-1.2-0.8-1.9-0.8c-0.7,0-1.4,0.3-1.9,0.8s-0.8,1.2-0.8,1.9
	c0,0.7,0.3,1.4,0.8,1.9c0.9,0.9,10.7,7.9,11.8,8.7c0.1,0.1,0.2,0.1,0.3,0.1h0c0.1,0,0.1,0,0.2,0c0.1,0,0.1-0.1,0.2-0.1
	s0.1-0.1,0.1-0.2c0-0.1,0-0.1,0-0.2C691.1,323.5,691.1,323.4,691,323.3z"/>
<path class="st1" d="M979.7,181.7c-0.4-2.1-1.7-7.5-5.6-11.5c-3.9-3.9-9.4-5.2-11.5-5.6c0.4,2.1,1.7,7.5,5.6,11.5
	C972.2,180,977.6,181.3,979.7,181.7z"/>
<path class="st1" d="M979.7,183.3c-2.1,0.4-7.5,1.7-11.5,5.6c-3.9,3.9-5.2,9.4-5.6,11.5c2.1-0.4,7.5-1.7,11.5-5.6
	C978,190.8,979.3,185.4,979.7,183.3z"/>
<path class="st1" d="M944,219c2.1-0.4,7.5-1.7,11.5-5.6c3.9-3.9,5.2-9.4,5.6-11.5c-2.1,0.4-7.5,1.7-11.5,5.6
	C945.7,211.5,944.4,216.9,944,219z"/>
<path class="st1" d="M962.6,201.9c0.4,2.1,1.7,7.5,5.6,11.5c3.9,3.9,9.4,5.2,11.5,5.6c-0.4-2.1-1.7-7.5-5.6-11.5
	C970.2,203.6,964.7,202.3,962.6,201.9z"/>
<path class="st1" d="M944,181.7c2.1-0.4,7.5-1.7,11.5-5.6c3.9-3.9,5.2-9.4,5.6-11.5c-2.1,0.4-7.5,1.7-11.5,5.6
	C945.7,174.2,944.4,179.6,944,181.7z"/>
<path class="st1" d="M944,183.3c0.4,2.1,1.7,7.5,5.6,11.5c3.9,3.9,9.4,5.2,11.5,5.6c-0.4-2.1-1.7-7.5-5.6-11.5
	C951.5,185,946.1,183.7,944,183.3z"/>
<path class="st1" d="M944,146c0.4,2.1,1.7,7.5,5.6,11.5c3.9,3.9,9.4,5.2,11.5,5.6c-0.4-2.1-1.7-7.5-5.6-11.5
	C951.5,147.7,946.1,146.4,944,146z"/>
<path class="st1" d="M979.7,146c-2.1,0.4-7.5,1.7-11.5,5.6c-3.9,3.9-5.2,9.4-5.6,11.5c2.1-0.4,7.5-1.7,11.5-5.6
	C978,153.5,979.3,148.1,979.7,146z"/>
<path class="st1" d="M999.9,200.4c2.1-0.4,7.5-1.7,11.5-5.6c3.9-3.9,5.2-9.4,5.6-11.5c-2.1,0.4-7.5,1.7-11.5,5.6
	C1001.6,192.8,1000.3,198.3,999.9,200.4z"/>
<path class="st1" d="M999.9,163.1c2.1-0.4,7.5-1.7,11.5-5.6c3.9-3.9,5.2-9.4,5.6-11.5c-2.1,0.4-7.5,1.7-11.5,5.6
	C1001.6,155.5,1000.3,161,999.9,163.1z"/>
<path class="st1" d="M999.9,164.6c0.4,2.1,1.7,7.5,5.6,11.5c3.9,3.9,9.4,5.2,11.5,5.6c-0.4-2.1-1.7-7.5-5.6-11.5
	C1007.5,166.3,1002,165,999.9,164.6z"/>
<path class="st1" d="M999.9,201.9c0.4,2.1,1.7,7.5,5.6,11.5c3.9,3.9,9.4,5.2,11.5,5.6c-0.4-2.1-1.7-7.5-5.6-11.5
	C1007.5,203.6,1002,202.3,999.9,201.9z"/>
<path class="st1" d="M998.4,164.6c-2.1,0.4-7.5,1.7-11.5,5.6c-3.9,3.9-5.2,9.4-5.6,11.5c2.1-0.4,7.5-1.7,11.5-5.6
	C996.7,172.2,998,166.7,998.4,164.6z"/>
<path class="st1" d="M981.3,146c0.4,2.1,1.7,7.5,5.6,11.5c3.9,3.9,9.4,5.2,11.5,5.6c-0.4-2.1-1.7-7.5-5.6-11.5
	C988.8,147.7,983.4,146.4,981.3,146z"/>
<path class="st1" d="M981.3,183.3c0.4,2.1,1.7,7.5,5.6,11.5c3.9,3.9,9.4,5.2,11.5,5.6c-0.4-2.1-1.7-7.5-5.6-11.5
	C988.8,185,983.4,183.7,981.3,183.3z"/>
<path class="st1" d="M981.3,219c2.1-0.4,7.5-1.7,11.5-5.6c3.9-3.9,5.2-9.4,5.6-11.5c-2.1,0.4-7.5,1.7-11.5,5.6
	C983,211.5,981.7,216.9,981.3,219z"/>
</svg>
