<?xml version="1.0" standalone="no"?>
<!DOCTYPE svg PUBLIC "-//W3C//DTD SVG 1.1//EN" "http://www.w3.org/Graphics/SVG/1.1/DTD/svg11.dtd" >
<svg xmlns="http://www.w3.org/2000/svg" xmlns:xlink="http://www.w3.org/1999/xlink" version="1.1">
<metadata>
Created by FontForge 20201107 at Tue Apr 20 19:12:19 2021
 By Jimmy Wärting
copyright missing
</metadata>
<defs>
<font id="ArsenicaText-Regular" horiz-adv-x="0" >
  <font-face 
    font-family="Arsenica Text"
    font-weight="400"
    font-stretch="normal"
    units-per-em="1000"
    panose-1="0 0 5 0 0 0 0 0 0 0"
    ascent="800"
    descent="-200"
    x-height="452"
    cap-height="702"
    bbox="-676 -251.055 1392.89 1079.92"
    underline-thickness="50"
    underline-position="-100"
    stemh="26"
    stemv="96"
    unicode-range="U+0020-F8FF"
  />
<missing-glyph horiz-adv-x="459" 
d="M85 717h291v-917h-291v917zM305 625v31h-151v-31h60v-34h-61v-30h152v30h-60v34h60zM245 473v64h-92v-95h152v31h-60zM183 506h31v-33h-31v33zM305 387v30h-152v-30h61v-34h-61v-30h92v64h60zM305 270v92h-30v-60h-122v-32h152zM305 147v103h-91v-51h31v21h30v-43h-92v73
h-30v-103h152zM305 -12v104h-152v-104h152zM183 61h92v-43h-92v43zM305 -63v30h-152v-30h64l-64 -43v-31h152v31h-93l64 43h29z" />
    <glyph glyph-name=".notdef" horiz-adv-x="459" 
d="M85 717h291v-917h-291v917zM305 625v31h-151v-31h60v-34h-61v-30h152v30h-60v34h60zM245 473v64h-92v-95h152v31h-60zM183 506h31v-33h-31v33zM305 387v30h-152v-30h61v-34h-61v-30h92v64h60zM305 270v92h-30v-60h-122v-32h152zM305 147v103h-91v-51h31v21h30v-43h-92v73
h-30v-103h152zM305 -12v104h-152v-104h152zM183 61h92v-43h-92v43zM305 -63v30h-152v-30h64l-64 -43v-31h152v31h-93l64 43h29z" />
    <glyph glyph-name="space" unicode=" " horiz-adv-x="224" 
 />
    <glyph glyph-name="uniF8FF" unicode="&#xf8ff;" horiz-adv-x="647" 
d="M323 -11c160 0 289 129 289 290c1 164 -134 291 -288 291c-167 0 -289 -136 -289 -291c0 -154 126 -290 288 -290zM495 475h-347c47 40 109 66 176 66c66 0 127 -27 171 -66zM524 113h-346l339 341c44 -53 66 -111 66 -175c0 -62 -22 -120 -59 -166zM467 446l-339 -342
c-41 47 -65 109 -65 175c1 64 21 121 58 167h346zM324 19c-68 0 -128 27 -175 65h349c-47 -38 -108 -65 -174 -65z" />
    <glyph glyph-name="A" unicode="A" horiz-adv-x="706" 
d="M691 22c16 -5 10 -24 8 -24c-9 0 -26 2 -36 2h-136c-16 0 -44 -2 -59 -2c-3 0 -11 19 15 24c47 7 68 15 45 68l-39 92c-6 11 -13 12 -26 12h-295c-13 0 -19 -3 -25 -13v1l-38 -92c-23 -53 -1 -61 48 -68c28 -5 20 -24 17 -24c-16 0 -45 2 -63 2h-63c-10 0 -28 -2 -37 -2
c-2 0 -7 19 9 24c29 7 39 15 61 68l215 517c7 16 5 35 0 46l-5 12c-5 11 -9 13 -17 16c-15 4 -10 19 -4 19h64c39 0 46 -4 59 -36l241 -574c23 -53 32 -61 61 -68zM455 220c12 0 14 7 13 14l-152 363l-149 -358c-5 -11 -1 -19 9 -19c98 0 186 -1 279 0z" />
    <glyph glyph-name="B" unicode="B" horiz-adv-x="660" 
d="M98 0c-13 0 -37 -2 -49 -2c-2 0 -9 19 13 24c38 7 54 14 54 72v512c0 58 -16 65 -54 72c-22 5 -15 24 -13 24c12 0 35 -2 49 -2c94 1 183 5 238 5c156 0 231 -70 231 -156c0 -91 -58 -147 -157 -159c126 -10 215 -68 215 -184c0 -125 -99 -210 -288 -210
c-71 0 -143 3 -239 4zM261 395l62 5c106 11 139 50 139 138c0 89 -57 136 -140 138l-76 2c-30 1 -33 -9 -33 -44v-564c0 -38 4 -48 38 -48h72c114 0 190 61 190 175c0 113 -56 170 -191 174l-64 1c-6 0 -12 19 3 23z" />
    <glyph glyph-name="C" unicode="C" horiz-adv-x="681" 
d="M646 558l-48 -168c-1 -4 -32 -8 -29 24c10 63 7 117 -10 159c-30 72 -98 104 -165 104c-150 0 -257 -99 -257 -276c0 -234 163 -347 298 -347c64 0 148 14 217 92c4 5 27 -9 6 -34c-63 -76 -166 -127 -282 -127c-180 0 -335 137 -335 351c0 217 167 378 374 378
c145 0 252 -79 231 -156z" />
    <glyph glyph-name="D" unicode="D" horiz-adv-x="734" 
d="M305 -5c-62 0 -125 4 -191 4c-24 0 -47 0 -65 -2c-2 0 -9 19 13 24c39 7 54 15 54 73v512c0 58 -16 65 -55 72c-21 4 -14 24 -12 24c12 -1 36 -2 49 -2c61 1 134 4 172 4c278 0 423 -124 423 -346c0 -210 -136 -363 -388 -363zM288 22c210 0 302 127 303 316
c0 202 -102 340 -342 340c-32 0 -37 -10 -37 -36l1 -581c0 -34 9 -39 75 -39z" />
    <glyph glyph-name="E" unicode="E" horiz-adv-x="640" 
d="M393 0h-294c-14 0 -37 -2 -50 -2c-2 0 -9 19 13 24c38 7 54 14 54 72v512c0 58 -16 65 -54 72c-22 5 -15 24 -13 24c13 0 36 -2 50 -2h283c90 0 130 11 149 11c11 0 18 -4 18 -22c-1 -50 5 -124 20 -228c0 -1 -33 -5 -37 19c-18 117 -27 156 -46 173
c-21 20 -73 21 -249 21c-17 0 -25 -10 -25 -29v-236c0 -11 4 -25 21 -25c9 0 70 0 110 3c25 3 33 11 49 79c6 24 28 13 28 13c-11 -70 -5 -156 5 -222c0 -1 -22 -7 -26 10c-21 77 -27 86 -55 88c-34 2 -96 3 -111 3c-17 0 -21 -16 -21 -27v-271c0 -33 12 -34 55 -34
c162 0 217 2 244 18c20 13 32 38 51 177c5 26 40 20 40 18c-11 -77 -20 -164 -20 -226c0 -18 -8 -24 -19 -24c-18 0 -48 11 -170 11z" />
    <glyph glyph-name="F" unicode="F" horiz-adv-x="611" 
d="M104 0c-20 0 -42 -2 -54 -2c-4 -1 -9 19 13 24c42 8 53 21 53 77v507c0 55 -15 64 -54 72c-20 5 -16 20 -13 24c10 0 29 -2 49 -2h280c114 0 152 11 169 11c10 0 19 -6 19 -24c0 -70 8 -148 20 -224c0 -1 -33 -9 -38 18c-19 122 -30 154 -54 175c-20 17 -66 18 -257 18
c-16 0 -25 -8 -25 -33v-250c0 -10 4 -28 21 -28c8 0 76 2 107 4c30 3 36 8 53 77c6 23 25 19 31 14c-11 -69 -6 -154 4 -220c-3 -4 -26 -7 -31 10c-20 77 -27 84 -57 86c-33 4 -99 4 -107 4c-17 0 -21 -15 -21 -27v-212c0 -61 16 -69 82 -79c17 -3 14 -17 10 -22
c-16 0 -48 2 -67 2h-133z" />
    <glyph glyph-name="G" unicode="G" horiz-adv-x="716" 
d="M376 -15c-180 0 -335 137 -335 351c0 217 168 377 374 377c145 0 251 -78 231 -155l-43 -155c0 -2 -31 -8 -31 24c8 55 6 108 -11 147c-29 70 -97 103 -167 103c-150 0 -258 -99 -258 -276c0 -236 163 -370 287 -370c98 0 165 47 175 85c6 30 3 57 -8 137
c-9 26 -32 34 -144 38c-24 6 -20 31 -12 39c79 -5 159 -2 226 5c19 2 23 -9 23 -19s-6 -17 -8 -52c-2 -51 -3 -75 -3 -131c0 -11 -2 -16 -10 -25c-74 -85 -172 -123 -286 -123z" />
    <glyph glyph-name="H" unicode="H" horiz-adv-x="793" 
d="M732 22c22 -5 14 -24 12 -24c-12 0 -35 2 -49 2h-132c-14 0 -37 -2 -49 -2c-2 0 -9 19 13 24c38 7 54 14 54 72v237c-1 14 -8 19 -23 19c-99 1 -223 1 -323 1c-13 0 -19 -4 -22 -14v-243c0 -58 15 -65 54 -72c22 -5 15 -24 12 -24c-12 0 -35 2 -49 2h-131
c-14 0 -37 -2 -50 -2c-2 0 -9 19 13 24c38 7 54 14 54 72v512c0 58 -16 65 -54 72c-22 5 -15 24 -13 24c13 0 36 -2 50 -2h131c14 0 37 2 49 2c3 0 10 -19 -12 -24c-39 -7 -54 -14 -54 -72v-216c3 -10 9 -14 22 -14h323c15 0 22 6 23 19v211c0 58 -16 65 -54 72
c-22 5 -15 24 -13 24c12 0 35 -2 49 -2h132c14 0 37 2 49 2c2 0 10 -19 -12 -24c-39 -7 -55 -14 -55 -72v-512c0 -58 16 -65 55 -72z" />
    <glyph glyph-name="I" unicode="I" horiz-adv-x="329" 
d="M116 94v512c0 58 -16 65 -54 72c-22 5 -15 24 -13 24c13 0 36 -2 50 -2h131c14 0 37 2 49 2c3 0 10 -19 -12 -24c-39 -7 -54 -14 -54 -72v-512c0 -58 15 -65 54 -72c22 -5 15 -24 12 -24c-12 0 -35 2 -49 2h-131c-14 0 -37 -2 -50 -2c-2 0 -9 19 13 24c38 7 54 14 54 72z
" />
    <glyph glyph-name="J" unicode="J" horiz-adv-x="552" 
d="M229 -15c-124 0 -194 75 -194 158c0 82 73 121 127 131c4 -3 14 -21 -4 -30c-23 -14 -43 -32 -43 -81c0 -75 44 -144 122 -144c84 0 116 54 116 173v414c0 58 -15 65 -54 72c-22 5 -15 24 -12 24c12 0 35 -2 49 -2h131c14 0 38 2 50 2c2 0 9 -19 -13 -24
c-38 -7 -54 -14 -54 -72v-356c0 -186 -82 -265 -221 -265z" />
    <glyph glyph-name="K" unicode="K" horiz-adv-x="722" 
d="M681 22c22 -5 15 -24 13 -24c-12 0 -36 2 -49 2h-77c-28 0 -35 14 -42 36l-59 147c-47 121 -98 184 -229 184h-26v-273c0 -58 16 -65 54 -72c22 -5 15 -24 13 -24c-12 0 -36 2 -49 2h-131c-14 0 -37 -2 -50 -2c-2 0 -9 19 13 24c38 7 54 14 54 72v512c0 58 -16 65 -54 72
c-22 5 -15 24 -13 24c13 0 36 -2 50 -2h131c13 0 37 2 49 2c2 0 9 -19 -13 -24c-38 -7 -54 -14 -54 -72v-214h25c132 0 186 55 230 127l59 95c31 49 12 57 -26 64c-22 5 -15 24 -13 24c13 0 36 -2 50 -2h69c17 0 45 2 59 2c3 0 11 -19 -15 -24c-46 -7 -63 -15 -94 -64
l-65 -104c-34 -55 -74 -101 -139 -125c106 -19 167 -80 212 -190l43 -105c22 -53 36 -61 74 -68z" />
    <glyph glyph-name="L" unicode="L" horiz-adv-x="620" 
d="M339 0h-240c-14 0 -37 -2 -50 -2c-2 0 -9 19 13 24c38 7 54 14 54 72v512c0 58 -16 65 -54 72c-22 5 -15 24 -13 24c13 0 36 -2 50 -2h133c16 0 42 2 56 2c3 0 11 -19 -14 -24c-44 -7 -62 -14 -62 -72v-554c0 -22 11 -26 27 -26c146 -2 225 4 253 32c18 19 29 60 47 175
c6 36 42 27 43 22c-12 -83 -23 -181 -21 -244c1 -16 -5 -22 -15 -22c-16 0 -64 11 -207 11z" />
    <glyph glyph-name="M" unicode="M" horiz-adv-x="882" 
d="M817 22c22 -5 15 -24 12 -24c-12 0 -35 2 -49 2h-134c-15 0 -41 -2 -55 -2c-2 0 -10 19 14 24c43 7 61 14 61 72v494c0 3 -2 5 -4 5s-4 -3 -5 -7l-241 -525c-5 -12 -10 -17 -19 -17c-8 0 -15 4 -19 15l-224 518c-2 5 -4 6 -6 6s-4 -1 -4 -5l1 -484c0 -58 18 -65 63 -72
c25 -5 17 -24 14 -24c-14 0 -40 2 -56 2h-66c-14 0 -37 -2 -50 -2c-2 0 -9 19 13 24c38 7 54 14 55 72l2 555c-15 19 -30 24 -56 29c-22 5 -15 24 -12 24c12 0 35 -2 49 -2h86c10 0 16 -3 20 -13l222 -510c1 -4 3 -6 6 -6s5 2 6 6l230 510c4 9 7 13 19 13h91c14 0 38 2 51 2
c2 0 9 -19 -13 -24c-40 -7 -57 -14 -57 -72v-512c0 -58 16 -65 55 -72zM136 624l6 -13z" />
    <glyph glyph-name="N" unicode="N" horiz-adv-x="759" 
d="M733 702c2 0 9 -19 -12 -24c-39 -7 -55 -14 -55 -72v-600c0 -3 -4 -9 -15 -9c-7 -1 -13 3 -18 9l-479 615c-2 3 -5 4 -7 4s-3 -2 -3 -5v-526c0 -58 16 -65 54 -73c22 -5 15 -24 13 -24l-50 3h-61l-50 -3c-2 0 -9 19 13 24c38 8 54 15 54 73l1 553c-14 21 -28 26 -54 32
c-21 5 -14 24 -12 24c12 0 34 -2 48 -3h97c15 0 22 -4 28 -12l402 -529c3 -4 6 -6 8 -6c3 0 5 2 5 7v446c0 58 -16 65 -55 72c-22 5 -15 24 -12 24c12 0 35 -2 49 -2h62c14 0 37 2 49 2zM136 610v-1v1z" />
    <glyph glyph-name="O" unicode="O" horiz-adv-x="820" 
d="M385 -15c-201 0 -344 147 -344 352c0 210 171 377 388 377c205 0 350 -149 350 -350c0 -223 -162 -379 -394 -379zM433 21c150 0 248 106 248 280c0 169 -127 377 -298 377c-141 0 -245 -117 -245 -273c0 -171 126 -384 295 -384z" />
    <glyph glyph-name="P" unicode="P" horiz-adv-x="637" 
d="M319 291l-61 3c-10 9 -10 23 3 24l55 -1c127 -1 189 58 189 170c0 108 -69 189 -181 190l-78 1c-27 0 -33 -7 -33 -38v-546c0 -58 20 -65 71 -72c28 -5 19 -24 16 -24c-16 0 -46 2 -64 2h-137c-14 0 -37 -2 -50 -2c-2 0 -9 19 13 24c38 7 54 14 54 72v512
c0 58 -16 65 -54 72c-22 5 -15 24 -13 24c12 0 36 -2 49 -2c96 1 171 3 242 3c172 0 268 -77 268 -209c0 -126 -87 -213 -289 -203z" />
    <glyph glyph-name="Q" unicode="Q" horiz-adv-x="820" 
d="M946 -67c6 5 29 -7 11 -27c-35 -33 -90 -73 -163 -73c-91 0 -205 60 -340 157c-22 -3 -45 -5 -69 -5c-201 0 -344 147 -344 352c0 210 171 376 388 376c205 0 350 -149 350 -349c0 -169 -93 -299 -239 -353c99 -62 198 -116 282 -116c54 0 94 14 124 38zM138 405
c0 -171 126 -384 295 -384c6 15 39 21 72 9c109 29 176 127 176 271c0 169 -127 377 -298 377c-141 0 -245 -117 -245 -273z" />
    <glyph glyph-name="R" unicode="R" horiz-adv-x="678" 
d="M657 22c20 -5 14 -24 11 -24c-11 0 -33 2 -46 2h-88c-13 0 -23 10 -26 26c-7 28 -29 118 -38 157c-23 98 -71 115 -133 119c-23 -1 -48 -1 -75 0c-8 0 -13 22 10 25c166 4 241 62 241 179c0 109 -66 169 -195 171l-73 1c-24 0 -32 -8 -32 -36v-548c0 -58 15 -65 54 -72
c22 -5 15 -24 12 -24c-12 0 -35 2 -49 2h-131c-14 0 -37 -2 -50 -2c-2 0 -9 19 13 24c38 7 54 14 54 72v512c0 58 -16 65 -54 72c-22 5 -15 24 -13 24c12 0 36 -2 49 -2c96 1 168 3 239 3c189 0 284 -69 284 -194c0 -102 -64 -169 -186 -195c56 -8 108 -34 133 -130
c6 -24 15 -59 24 -91c14 -57 28 -64 65 -71z" />
    <glyph glyph-name="S" unicode="S" horiz-adv-x="616" 
d="M66 125l38 155c0 2 21 6 20 -22c-18 -184 44 -243 183 -243c72 0 169 31 169 138c0 88 -84 137 -178 184c-115 61 -205 113 -205 203c0 95 89 174 252 174c106 0 225 -49 207 -127l-36 -150c0 -1 -24 -6 -22 22c22 170 -28 225 -154 225c-108 0 -150 -48 -150 -105
c0 -78 69 -112 162 -159c112 -58 220 -115 220 -234c0 -118 -104 -201 -274 -201c-146 0 -247 69 -232 140z" />
    <glyph glyph-name="T" unicode="T" horiz-adv-x="673" 
d="M636 689c-2 -58 5 -137 21 -242c0 -1 -29 -9 -34 18c-28 155 -42 187 -77 200c-11 8 -62 12 -137 9c-13 0 -24 -11 -24 -35v-545c0 -58 23 -65 78 -72c32 -5 22 -24 19 -24c-18 0 -51 2 -71 2h-149c-19 0 -53 -2 -70 -2c-3 0 -13 19 18 24c56 7 79 14 79 72v545
c0 24 -11 35 -25 35c-75 0 -125 -1 -136 -9c-33 -12 -50 -46 -77 -200c-5 -27 -34 -19 -34 -18c15 104 23 185 21 242c-1 18 7 22 17 22c21 0 41 -11 234 -11h96c192 0 212 11 233 11c11 0 19 -4 18 -22z" />
    <glyph glyph-name="U" unicode="U" horiz-adv-x="723" 
d="M372 -15c-171 0 -283 117 -283 295v326c0 58 -13 65 -44 72c-17 5 -11 24 -10 24c10 0 29 -2 40 -2h132c17 0 44 2 59 2c3 0 11 -19 -15 -24c-47 -7 -66 -14 -66 -72v-320c0 -151 86 -249 220 -249c130 0 211 98 211 250l-1 319c0 58 -19 65 -65 72c-26 5 -18 24 -15 24
c14 0 42 -2 59 -2h61c11 0 30 2 39 2c2 0 8 -19 -9 -24c-31 -7 -44 -14 -44 -72v-319c0 -183 -102 -302 -269 -302z" />
    <glyph glyph-name="V" unicode="V" horiz-adv-x="700" 
d="M693 702c2 0 8 -19 -9 -24c-28 -7 -38 -15 -59 -69l-220 -567c-1 -5 0 -8 1 -12l2 -4c4 -8 1 -12 -4 -14l-69 -23c-10 -4 -16 -2 -20 9l-238 611c-21 54 -32 62 -61 69c-17 5 -11 24 -9 24c9 0 27 -2 38 -2h139c17 0 46 2 61 2c2 0 11 -19 -16 -24
c-48 -7 -69 -15 -48 -69l203 -526c2 -6 7 -6 9 0v-1l204 527c21 54 0 62 -47 69c-27 5 -19 24 -16 24c15 0 44 -2 61 -2h62c10 0 27 2 36 2z" />
    <glyph glyph-name="W" unicode="W" horiz-adv-x="1026" 
d="M1018 702c2 0 8 -19 -10 -24c-30 -7 -41 -14 -60 -70l-186 -554c-3 -9 -2 -16 0 -19l2 -6c4 -8 1 -12 -4 -14l-73 -26c-10 -4 -14 2 -16 7l-157 466l-140 -410c-2 -6 -3 -11 -1 -15l4 -8c3 -7 0 -12 -5 -14l-73 -26c-10 -4 -14 2 -15 7l-206 612c-19 56 -30 63 -61 70
c-17 5 -11 24 -9 24c9 0 28 -2 39 -2h135c14 0 39 2 52 2c2 0 10 -19 -13 -24c-41 -7 -60 -15 -41 -70l173 -515c2 -5 6 -5 8 0l132 387c5 16 7 24 0 44v-1l-28 85c-18 55 -34 63 -75 70c-23 5 -15 24 -13 24c13 0 38 -2 52 -2h141c14 0 39 2 52 2c3 0 10 -19 -13 -24
c-42 -7 -60 -15 -42 -70l173 -514c2 -7 7 -5 9 0l172 514c19 55 -2 63 -48 70c-26 5 -18 24 -15 24c14 0 42 -2 59 -2h62c11 0 29 2 39 2z" />
    <glyph glyph-name="X" unicode="X" horiz-adv-x="706" 
d="M666 22c21 -5 14 -24 12 -24c-11 0 -33 2 -46 2h-148c-15 0 -40 -2 -53 -2c-2 0 -10 19 14 24c41 7 60 15 29 64l-158 246l-160 -246c-32 -49 -13 -57 27 -64c23 -5 16 -24 13 -24c-12 0 -37 2 -51 2h-67c-14 0 -37 -2 -49 -2c-3 0 -10 19 12 24c39 7 52 15 84 64
l176 270l-166 258c-32 49 -44 57 -80 64c-21 5 -14 24 -12 24c12 0 34 -2 47 -2h148c14 0 39 2 52 2c3 0 10 -19 -13 -24c-41 -7 -61 -15 -30 -64l146 -228l148 228c31 49 12 57 -29 64c-24 5 -16 24 -14 24c13 0 38 -2 53 -2h67c13 0 36 2 47 2c3 0 9 -19 -12 -24
c-37 -7 -50 -15 -81 -64l-164 -250l178 -278c32 -49 44 -57 80 -64z" />
    <glyph glyph-name="Y" unicode="Y" horiz-adv-x="631" 
d="M383 0h-132c-13 0 -37 -2 -49 -2c-2 0 -9 19 13 24c38 7 54 14 54 72v167c0 10 -3 21 -8 31l-174 320c-28 52 -39 59 -69 67c-18 5 -12 24 -10 24l39 -3h140l59 3c3 0 11 -19 -15 -24c-47 -8 -68 -15 -40 -67l155 -287c5 -8 10 -7 14 1l156 286c28 51 6 59 -40 66
c-26 5 -18 24 -15 24c14 0 42 -2 59 -2h64c11 0 30 2 40 2c2 0 7 -19 -10 -24c-31 -7 -41 -15 -69 -66l-173 -319c-5 -10 -7 -23 -7 -32v-167c0 -58 16 -65 55 -72c22 -5 15 -24 12 -24c-12 0 -35 2 -49 2z" />
    <glyph glyph-name="Z" unicode="Z" horiz-adv-x="657" 
d="M583 -11c-20 0 -35 11 -87 11h-354c-42 0 -65 -3 -83 -3c-15 0 -19 6 -19 13c0 6 3 12 8 20l438 634c3 7 1 11 -6 11l-278 -8c-61 -3 -74 -30 -100 -162c-8 -38 -38 -20 -37 -19c12 93 15 137 14 204c0 13 8 20 16 20c29 0 29 -11 93 -11l265 1c28 0 109 2 137 2
c8 0 13 -3 13 -8c0 -8 -4 -16 -14 -31l-431 -627c-3 -5 -2 -11 6 -11l312 8c60 2 80 48 106 200c4 17 13 22 22 23c8 0 16 -3 16 -4c-15 -114 -22 -201 -20 -243c1 -11 -5 -20 -17 -20z" />
    <glyph glyph-name="AE" unicode="&#xc6;" horiz-adv-x="1025" 
d="M947 221c5 26 40 20 40 18c-11 -77 -20 -164 -20 -226c0 -18 -8 -24 -19 -24c-18 0 -48 11 -170 11h-294c-14 0 -37 -2 -50 -2c-2 0 -9 19 13 24c38 7 54 14 54 72v100h-259c-22 0 -37 -3 -46 -15l-65 -94c-33 -48 -11 -56 37 -63c27 -5 18 -24 15 -24c-15 0 -43 2 -60 2
h-70c-13 0 -35 -2 -46 -2c-2 0 -9 19 12 24c35 7 47 15 80 63l373 542c11 16 12 30 8 41c-8 5 -19 7 -33 10c-22 5 -15 24 -13 24c9 0 22 -1 35 -2h31h267c90 0 130 11 149 11c11 0 18 -4 18 -22c-1 -50 5 -124 20 -228c0 -1 -33 -5 -37 19c-18 117 -27 156 -46 173
c-21 20 -73 21 -249 21c-17 0 -25 -10 -25 -29v-236c0 -11 4 -25 21 -25c9 0 70 0 110 3c25 3 33 11 49 79c6 24 28 13 28 13c-11 -70 -5 -156 5 -222c0 -1 -22 -7 -26 10c-21 77 -27 86 -55 88c-34 2 -96 3 -111 3c-17 0 -21 -16 -21 -27v-271c0 -33 12 -34 55 -34
c162 0 217 2 244 18c20 13 32 38 51 177zM248 220h253v297c-1 38 -4 60 -9 84c-1 5 -4 4 -6 2l-254 -370c-2 -7 4 -13 16 -13z" />
    <glyph glyph-name="OE" unicode="&#x152;" horiz-adv-x="1056" 
d="M978 221c5 26 40 20 40 18c-11 -77 -20 -164 -20 -226c0 -18 -8 -24 -19 -24c-18 0 -48 11 -170 11h-245c-46 -3 -106 -14 -187 -14c-193 0 -336 145 -336 350c0 214 149 377 379 377c44 0 110 -13 168 -13h210c90 0 130 11 149 11c11 0 18 -4 18 -22
c-1 -50 5 -124 20 -228c0 -1 -33 -5 -37 19c-18 117 -27 156 -46 173c-21 20 -73 21 -249 21c-17 0 -25 -10 -25 -29v-236c0 -11 4 -25 21 -25c9 0 70 0 110 3c25 3 33 11 49 79c6 24 28 13 28 13c-11 -70 -5 -156 5 -222c0 -1 -22 -7 -26 10c-21 77 -27 86 -55 88
c-34 2 -96 3 -111 3c-17 0 -21 -16 -21 -27v-271c0 -33 12 -34 55 -34c162 0 217 2 244 18c20 13 32 38 51 177zM129 397c0 -188 125 -380 279 -380c57 0 92 4 106 29c15 24 18 75 18 271c0 175 -4 257 -35 313c-19 31 -49 49 -104 49c-168 0 -264 -107 -264 -282z" />
    <glyph glyph-name="Eth" unicode="&#xd0;" horiz-adv-x="734" 
d="M270 704c278 0 423 -124 423 -346c0 -210 -136 -363 -388 -363c-62 0 -125 4 -191 4c-24 0 -47 0 -65 -2c-2 0 -9 19 13 24c39 7 54 15 54 73v244h-71c-3 0 -12 25 15 25h56v243c0 58 -16 65 -55 72c-21 4 -14 24 -12 24c12 -1 36 -2 49 -2c61 1 134 4 172 4zM288 22
c210 0 302 127 303 316c0 202 -102 340 -342 340c-32 0 -37 -10 -37 -36v-279h202c4 -1 13 -25 -16 -25h-185v-277c0 -34 9 -39 75 -39z" />
    <glyph glyph-name="Thorn" unicode="&#xde;" horiz-adv-x="637" 
d="M340 561c175 0 268 -72 268 -205c0 -129 -98 -207 -279 -201l-68 1c-7 0 -14 24 2 26l61 -1c98 1 179 52 179 168c0 104 -64 186 -179 186h-81c-23 0 -30 -10 -30 -34v-407c0 -58 15 -65 54 -72c22 -5 15 -24 12 -24c-12 0 -35 2 -49 2h-131c-14 0 -37 -2 -50 -2
c-2 0 -9 19 13 24c38 7 54 14 54 72v512c0 58 -16 65 -54 72c-22 5 -15 24 -13 24c13 0 36 -2 50 -2h131c14 0 37 2 49 2c3 0 10 -19 -12 -24c-39 -7 -54 -14 -54 -72v-21c0 -19 12 -24 30 -24h97z" />
    <glyph glyph-name="uni1E9E" unicode="&#x1e9e;" horiz-adv-x="719" 
d="M402 406c188 3 283 -79 283 -213c0 -133 -101 -205 -225 -205c-95 0 -188 56 -175 124c3 11 25 101 30 117c1 2 22 2 21 -23c-23 -147 49 -188 120 -188c79 0 130 48 130 153c0 132 -80 204 -218 210c-11 0 -15 4 -15 10c0 7 3 13 11 24l140 190c15 21 14 34 -18 50
c-21 11 -73 30 -125 30c-105 0 -162 -57 -162 -196v-475c0 -10 -4 -14 -13 -14h-101c-14 0 -37 -2 -49 -2c-3 0 -10 19 12 24c39 7 55 14 55 72v370c0 149 94 251 260 251c74 0 157 -21 215 -48c35 -17 36 -34 17 -60c-46 -67 -128 -157 -193 -201z" />
    <glyph glyph-name="a" unicode="a" horiz-adv-x="526" 
d="M490 80c2 5 20 6 20 -18c0 -34 -28 -74 -84 -74c-44 0 -77 32 -80 102c-29 -65 -85 -104 -148 -104c-113 0 -163 75 -163 151c0 87 76 148 189 148c38 0 85 -9 122 -25v32c0 103 -67 137 -133 137c-58 0 -101 -25 -134 -66c-1 -1 -25 9 -6 29c28 44 89 74 170 74
c97 0 196 -42 194 -184l-1 -167c0 -47 6 -64 28 -64c17 0 23 16 26 29zM237 43c58 0 104 51 108 125c1 6 1 14 1 20c-26 48 -78 69 -116 69c-68 0 -114 -35 -114 -94c0 -63 43 -120 121 -120z" />
    <glyph glyph-name="b" unicode="b" horiz-adv-x="578" 
d="M353 466c101 0 190 -89 190 -230c0 -136 -90 -250 -228 -250c-116 0 -153 63 -191 63c-14 0 -31 -33 -43 -52c-2 -6 -16 -10 -14 7c8 55 9 112 9 154l-1 418c0 56 -9 65 -30 65c-21 4 -14 27 -13 27c55 8 95 26 128 53c1 0 21 1 18 -17c-7 -38 -12 -130 -12 -222v-85
c0 1 1 1 1 1c0 -21 2 -54 6 -56c32 65 87 124 180 124zM324 17c88 0 140 57 140 155c0 117 -73 233 -168 233c-69 0 -130 -69 -130 -167v-31c0 -84 60 -190 158 -190z" />
    <glyph glyph-name="c" unicode="c" horiz-adv-x="497" 
d="M442 358l-33 -112c-1 -1 -33 -8 -31 20c16 108 -29 167 -122 167c-78 0 -145 -54 -145 -162c0 -152 115 -228 207 -228c40 0 86 14 131 56c2 0 23 -14 3 -34c-46 -47 -106 -79 -188 -79c-123 0 -229 91 -229 232c0 140 107 248 251 248c93 0 174 -48 156 -108z" />
    <glyph glyph-name="d" unicode="d" horiz-adv-x="592" 
d="M556 80c2 5 19 6 19 -18c0 -34 -27 -74 -83 -74c-46 0 -80 35 -80 111l-1 4c-3 5 -7 4 -11 -4c-31 -58 -83 -114 -172 -114c-102 0 -193 89 -193 229c0 144 98 252 227 252c60 0 107 -21 149 -65l-1 175c0 56 -9 65 -29 65c-21 4 -15 27 -14 27c56 8 96 26 129 53
c1 0 20 1 17 -17c-7 -38 -11 -130 -11 -222v-367c0 -47 6 -64 28 -64c17 0 23 16 26 29zM282 46c66 0 124 63 130 152l-1 59c-7 85 -65 178 -153 178c-90 0 -144 -57 -144 -157c0 -116 71 -232 168 -232z" />
    <glyph glyph-name="e" unicode="e" horiz-adv-x="486" 
d="M442 95c15 12 27 -7 14 -24c-48 -62 -119 -85 -198 -85c-121 0 -223 91 -223 232c0 143 96 248 245 248c116 0 207 -84 161 -240l-326 -5c25 -118 128 -178 204 -178c37 0 85 12 123 52zM249 432c-89 0 -139 -62 -139 -156c0 -10 1 -20 2 -30c80 2 179 3 249 4
c33 69 -25 182 -112 182z" />
    <glyph glyph-name="f" unicode="f" horiz-adv-x="327" 
d="M83 426h-43c-6 0 -7 22 11 25c39 5 54 15 51 102c-14 162 152 194 219 148c9 -8 13 -16 5 -24l-36 -34c-7 -6 -14 -6 -23 3c-41 39 -87 42 -111 12c-27 -29 0 -94 28 -196c9 -8 18 -11 35 -11h81c6 0 9 -25 -8 -25h-71c-17 0 -28 -4 -28 -39v-290c0 -51 19 -69 59 -72
c32 -2 27 -26 20 -26c-15 1 -50 2 -75 2h-96c-19 -1 -46 -2 -58 -3c-5 0 -9 24 15 26c31 4 45 21 45 73v294c0 26 -3 35 -20 35z" />
    <glyph glyph-name="g" unicode="g" horiz-adv-x="489" 
d="M472 -83c1 -62 -71 -134 -226 -134c-134 0 -223 34 -215 70l30 102c2 5 13 5 12 -7c-16 -117 42 -135 179 -135c69 0 127 20 127 72c0 42 -68 57 -141 71c-102 18 -189 39 -189 105c0 29 17 56 52 76c-40 30 -67 76 -67 138c0 102 92 191 214 191c24 0 48 -4 70 -12
c2 46 21 93 68 111c24 10 53 12 77 12c20 0 0 -81 -22 -81c-12 1 -25 2 -40 2c-35 0 -61 -17 -57 -56c59 -30 101 -86 101 -153c0 -102 -88 -191 -218 -191c-37 0 -74 9 -105 26c-11 -9 -19 -19 -19 -31c0 -39 64 -53 168 -68c116 -18 200 -42 201 -108zM219 434
c-61 0 -111 -42 -111 -112c0 -117 77 -192 152 -192c65 0 112 39 112 112c0 85 -76 193 -153 192z" />
    <glyph glyph-name="h" unicode="h" horiz-adv-x="607" 
d="M571 80c2 5 19 6 19 -18c0 -34 -28 -74 -84 -74c-46 0 -80 35 -80 111v168c0 102 -42 146 -108 146c-70 0 -132 -72 -132 -192v-128c0 -50 16 -67 45 -69c24 -3 19 -26 12 -26c-61 4 -138 3 -205 0c-7 0 -12 24 14 26c29 3 44 18 44 70l-2 482c0 56 -9 65 -29 65
c-21 4 -14 27 -13 27c55 8 95 26 128 53c1 0 20 1 17 -17c-6 -38 -11 -130 -11 -222v-147c20 74 80 132 161 132c104 0 169 -63 169 -196v-156c0 -47 7 -64 28 -64c18 0 23 16 27 29z" />
    <glyph glyph-name="i" unicode="i" horiz-adv-x="285" 
d="M127 554c-36 0 -59 22 -59 49c1 32 30 55 70 55c36 0 58 -21 58 -50c0 -31 -29 -54 -69 -54zM187 324v-230c0 -49 17 -68 45 -70c25 -3 16 -26 13 -26c-61 4 -139 3 -205 0c-4 0 -12 24 14 26c29 3 43 20 43 71v247c0 30 -8 45 -37 47c-18 3 -13 26 -12 26
c58 10 96 24 127 45c6 4 22 -1 21 -8c-5 -48 -9 -77 -9 -128z" />
    <glyph glyph-name="dotlessi" unicode="&#x131;" horiz-adv-x="285" 
d="M187 325v-231c0 -49 17 -68 45 -70c25 -3 16 -26 13 -26c-61 4 -139 3 -205 0c-4 0 -12 24 14 26c29 3 43 20 43 71v247c0 30 -8 45 -37 47c-18 3 -13 26 -12 26c58 10 96 24 127 45c6 4 22 -1 21 -8c-5 -48 -9 -77 -9 -127z" />
    <glyph glyph-name="j" unicode="j" horiz-adv-x="255" 
d="M114 554c-36 0 -59 22 -59 49c1 32 30 55 70 55c36 0 58 -21 58 -50c0 -31 -29 -54 -69 -54zM91 98v244c0 30 -8 45 -37 47c-18 3 -13 26 -12 26c58 10 96 24 126 45c6 4 22 -1 22 -8c-5 -48 -9 -77 -9 -128v-211c0 -197 -158 -238 -210 -238c-27 0 -26 24 -18 24
c46 0 138 23 138 199z" />
    <glyph glyph-name="uni0237" unicode="&#x237;" horiz-adv-x="255" 
d="M91 98v244c0 30 -8 45 -37 47c-18 3 -13 26 -12 26c58 10 96 24 126 45c6 4 22 -1 22 -8c-5 -48 -9 -77 -9 -127v-212c0 -197 -158 -238 -210 -238c-27 0 -26 24 -18 24c46 0 138 23 138 199z" />
    <glyph glyph-name="k" unicode="k" horiz-adv-x="589" 
d="M566 22c22 -5 15 -24 13 -24c-12 0 -36 2 -49 2h-78c-16 0 -25 8 -28 22c-11 30 -23 63 -33 92c-27 81 -55 101 -99 101c-32 0 -52 -7 -81 -31l-25 -22v-69c0 -50 16 -67 45 -69c24 -3 19 -26 12 -26c-61 4 -138 3 -205 0c-7 0 -12 24 14 26c29 3 44 18 44 70l-2 482
c0 56 -9 65 -29 65c-21 4 -14 27 -13 27c55 8 95 26 128 53c1 0 20 1 17 -17c-6 -38 -11 -130 -11 -222v-294l203 198c27 27 7 39 -16 41c-21 3 -14 26 -6 25c46 -3 141 -3 186 0c7 0 8 -24 -12 -25c-48 -1 -76 -14 -105 -40l-157 -142c19 9 39 12 62 12
c58 0 108 -27 140 -123l14 -42c18 -55 33 -63 71 -70z" />
    <glyph glyph-name="kgreenlandic" unicode="&#x138;" horiz-adv-x="575" 
d="M578 -19c1 -8 -9 -17 -22 -14c-102 41 -199 138 -267 275l-100 -96v-53c0 -50 16 -67 45 -69c24 -3 19 -26 12 -26c-61 4 -138 3 -205 0c-7 0 -12 24 14 26c29 3 44 18 44 70v248c0 30 -9 45 -38 47c-18 3 -13 26 -12 26c58 10 97 24 127 45c6 4 22 -1 21 -8
c-5 -48 -8 -77 -8 -128v-153l198 215c26 27 7 39 -16 41c-21 3 -14 26 -6 25c46 -3 146 -3 190 0c7 0 8 -24 -12 -25c-48 -1 -76 -13 -104 -40l-79 -76c0 -1 1 -1 1 -2c50 -151 119 -253 217 -328z" />
    <glyph glyph-name="l" unicode="l" horiz-adv-x="279" 
d="M94 95l-1 480c0 57 -9 66 -29 66c-21 3 -15 26 -14 26c56 9 95 27 129 53c0 1 20 2 17 -16c-7 -39 -12 -130 -12 -222v-388c0 -49 17 -68 45 -70c25 -3 16 -26 13 -26c-61 4 -139 3 -206 0c-3 0 -11 24 14 26c30 3 44 20 44 71z" />
    <glyph glyph-name="m" unicode="m" horiz-adv-x="883" 
d="M847 80c2 5 20 6 20 -18c0 -34 -28 -74 -84 -74c-46 0 -80 35 -80 111v202c0 74 -43 110 -92 110c-92 0 -121 -91 -121 -169v-145c0 -51 13 -69 41 -72c23 -3 19 -26 15 -26c-12 1 -36 2 -53 2l-71 -1c-19 0 -37 -1 -59 -2c-5 0 -12 18 5 26c21 7 33 14 33 70v207
c0 74 -45 110 -95 110c-82 0 -111 -72 -117 -143v-175c0 -58 14 -65 35 -69c19 -5 15 -26 8 -26c-62 4 -124 3 -191 0c-7 0 -12 24 14 26c29 3 44 18 44 70v248c0 30 -9 45 -38 47c-18 3 -13 26 -12 26c58 10 97 24 127 45c6 4 22 -1 21 -8c-4 -40 -7 -67 -8 -105
c21 64 75 119 155 119c75 0 134 -43 144 -129c19 68 74 129 161 129c70 0 144 -50 144 -157v-194c0 -47 6 -64 28 -64c17 0 23 16 26 29z" />
    <glyph glyph-name="n" unicode="n" horiz-adv-x="607" 
d="M571 80c2 5 19 6 19 -18c0 -34 -27 -74 -83 -74c-46 0 -81 35 -81 111v167c0 102 -42 146 -108 146c-70 0 -132 -72 -132 -192v-127c0 -50 16 -67 45 -69c25 -3 19 -26 12 -26c-61 4 -138 3 -205 0c-7 0 -12 24 14 26c30 3 44 18 44 70v248c0 30 -8 45 -37 47
c-18 3 -14 26 -13 26c58 10 97 24 127 45c6 4 22 -1 21 -8c-5 -45 -8 -73 -8 -118c20 74 81 132 161 132c104 0 169 -63 169 -196l1 -155c0 -47 6 -64 27 -64c18 0 23 16 27 29z" />
    <glyph glyph-name="o" unicode="o" horiz-adv-x="569" 
d="M268 -15c-137 0 -233 93 -233 232c0 151 116 249 256 249c146 0 243 -99 243 -231c0 -150 -111 -250 -266 -250zM309 23c89 0 141 59 142 150c6 113 -80 255 -187 256c-96 0 -145 -65 -146 -150c-6 -126 78 -256 191 -256z" />
    <glyph glyph-name="p" unicode="p" horiz-adv-x="585" 
d="M357 466c104 0 193 -89 193 -230c0 -136 -92 -250 -226 -250c-92 0 -129 63 -145 63c-5 0 -6 -8 -6 -22v-133c0 -51 17 -68 45 -70c25 -3 20 -26 12 -26c-61 4 -137 3 -204 0c-7 0 -12 24 14 26c29 3 43 19 43 71v447c0 30 -8 45 -37 47c-18 3 -13 26 -12 26
c58 10 96 24 127 45c6 4 22 -1 21 -8c-3 -27 -5 -48 -7 -71c0 -31 5 -40 11 -29c30 59 85 114 171 114zM333 16c86 0 139 54 139 156c0 119 -68 233 -166 233c-75 0 -133 -71 -133 -167v-8c0 -100 63 -214 160 -214z" />
    <glyph glyph-name="q" unicode="q" horiz-adv-x="574" 
d="M35 214c0 137 97 252 232 252c98 0 140 -65 175 -65c20 0 34 36 47 58c2 4 24 6 22 -11c-5 -42 -9 -102 -9 -158v-396c0 -51 16 -68 44 -70c25 -3 20 -26 13 -26c-61 4 -138 3 -205 0c-6 0 -12 24 14 26c30 3 44 19 44 71v165c0 16 0 30 -2 38c-1 6 -6 6 -10 0
c-36 -63 -88 -113 -173 -113c-104 0 -192 89 -192 229zM114 278c0 -121 69 -232 168 -232c70 0 130 68 130 167v15c0 129 -81 207 -150 207c-97 0 -148 -57 -148 -157z" />
    <glyph glyph-name="r" unicode="r" horiz-adv-x="435" 
d="M323 466c61 0 114 -42 100 -93l-34 -116c-1 -4 -32 -7 -30 21c15 104 -19 131 -72 131c-79 0 -97 -112 -98 -188v-128c0 -50 16 -67 45 -69c24 -3 19 -26 12 -26c-61 4 -138 3 -205 0c-7 0 -12 24 14 26c29 3 44 18 44 70v248c0 30 -9 45 -38 47c-18 3 -13 26 -12 26
c58 10 97 24 127 45c6 4 22 -1 21 -8c-4 -40 -7 -67 -8 -104c19 57 56 118 134 118z" />
    <glyph glyph-name="s" unicode="s" horiz-adv-x="422" 
d="M23 73l25 97c0 2 27 5 28 -20c-8 -103 35 -135 120 -135c60 0 106 18 106 73c0 49 -32 76 -129 124c-65 35 -131 75 -131 136c0 64 61 118 182 118c81 0 177 -24 164 -73l-26 -96c-1 -3 -27 -4 -26 18c9 83 -16 121 -111 121c-76 0 -88 -29 -88 -59
c0 -40 50 -68 113 -102c83 -43 147 -82 147 -151c0 -89 -79 -139 -202 -139c-99 0 -182 42 -172 88z" />
    <glyph glyph-name="t" unicode="t" horiz-adv-x="357" 
d="M184 -15c-61 0 -105 40 -105 135v271c0 22 0 35 -21 35h-30c-13 0 -12 23 9 26c52 7 82 29 107 95c5 11 13 15 22 15c5 0 8 -2 8 -4c0 -33 -1 -65 -3 -86c-1 -17 5 -21 20 -21h139c7 0 11 -25 -8 -25h-124c-22 0 -29 -8 -29 -28v-273c0 -104 98 -103 163 -34
c5 4 26 -8 -1 -37c-47 -50 -104 -69 -147 -69z" />
    <glyph glyph-name="u" unicode="u" horiz-adv-x="575" 
d="M540 80c1 5 19 6 19 -18c0 -34 -28 -74 -84 -74c-46 0 -80 35 -80 111v6c-23 -68 -80 -120 -159 -120c-97 0 -165 63 -165 195v162c0 30 -8 45 -37 47c-18 3 -14 26 -13 26c58 10 97 24 127 45c6 4 22 -1 21 -8c-5 -48 -8 -77 -8 -127v-141c0 -102 40 -149 110 -149
c75 0 124 75 124 183v124c0 30 -8 45 -37 47c-18 3 -14 26 -13 26c58 10 97 24 127 45c6 4 22 -1 21 -8c-5 -48 -8 -77 -8 -127v-210c0 -47 7 -64 28 -64c17 0 23 16 27 29z" />
    <glyph glyph-name="v" unicode="v" horiz-adv-x="530" 
d="M522 452c4 0 7 -23 -12 -26c-25 -3 -41 -19 -62 -67l-131 -306c-3 -6 -2 -11 0 -16l4 -10c4 -8 1 -12 -4 -14l-65 -24c-9 -4 -13 1 -15 7l-156 363c-20 48 -37 64 -61 67c-19 3 -16 26 -12 26c9 0 30 -2 46 -2h102c25 0 59 2 74 2c6 0 12 -23 -20 -26
c-39 -3 -51 -19 -31 -67l116 -271c3 -5 7 -7 10 0l115 271c20 48 8 64 -28 67c-30 3 -25 26 -19 26c15 0 46 -2 70 -2h33c15 0 36 2 46 2z" />
    <glyph glyph-name="w" unicode="w" horiz-adv-x="820" 
d="M812 452c4 0 8 -23 -12 -26c-24 -3 -41 -19 -61 -67l-130 -308c-2 -6 -1 -11 1 -14l5 -10c3 -8 1 -12 -4 -14l-66 -24c-9 -4 -13 1 -15 7l-120 294l-101 -239c-2 -5 -1 -11 1 -14l5 -10c3 -8 0 -12 -5 -14l-65 -24c-9 -4 -13 1 -15 7l-149 363c-20 48 -36 64 -61 67
c-19 3 -16 26 -12 26c10 0 31 -2 46 -2h101c19 0 46 2 58 2c5 0 10 -23 -15 -26c-31 -3 -40 -19 -21 -67l112 -267c2 -6 6 -8 9 0l99 231l-15 36c-20 48 -40 64 -72 67c-27 3 -22 26 -17 26c13 0 41 -2 62 -2h102c23 0 55 2 70 2c6 0 11 -23 -19 -26c-37 -3 -49 -19 -29 -67
l111 -267c2 -6 7 -8 10 0l112 267c20 48 8 64 -28 67c-30 3 -25 26 -19 26c15 0 46 -2 69 -2h32c16 0 37 2 46 2z" />
    <glyph glyph-name="x" unicode="x" horiz-adv-x="535" 
d="M501 25c24 -3 20 -26 15 -26c-12 1 -38 2 -56 2h-109c-19 0 -46 -1 -58 -2c-5 0 -9 23 16 26c30 3 37 18 9 61l-84 127l-87 -127c-29 -43 -22 -58 9 -61c24 -3 20 -26 15 -26c-12 1 -39 2 -58 2h-36c-19 0 -46 -1 -58 -2c-5 0 -9 23 16 26c31 3 52 18 82 61l103 149
l-86 130c-29 43 -49 58 -78 61c-23 3 -19 26 -15 26c12 0 37 -2 55 -2h108c19 0 46 2 59 2c5 0 9 -23 -16 -26c-31 -3 -38 -18 -10 -61l65 -98l67 99c30 42 23 57 -7 60c-24 3 -20 26 -15 26c12 0 38 -2 57 -2h35c20 0 47 2 59 2c5 0 9 -23 -16 -26c-31 -3 -53 -18 -82 -60
l-84 -121l105 -159c29 -43 50 -58 80 -61z" />
    <glyph glyph-name="y" unicode="y" horiz-adv-x="530" 
d="M522 452c4 0 7 -23 -12 -26c-25 -3 -41 -19 -61 -67l-159 -370c-63 -138 -103 -197 -171 -197c-54 0 -102 26 -109 79c-2 42 45 71 71 52c0 -41 18 -93 59 -93c35 0 66 42 102 126c2 16 -2 32 -13 58l-148 345c-21 48 -37 64 -61 67c-20 3 -17 26 -13 26
c10 0 31 -2 46 -2h103c24 0 58 2 73 2c7 0 12 -23 -19 -26c-39 -3 -52 -19 -31 -66l116 -270c3 -6 7 -8 10 0l115 269c20 48 8 64 -30 67c-31 3 -26 26 -20 26c15 0 48 -2 72 -2h34c15 0 36 2 46 2z" />
    <glyph glyph-name="z" unicode="z" horiz-adv-x="449" 
d="M407 -6c-13 0 -18 6 -58 6h-205c-36 0 -79 -2 -100 -2c-11 0 -16 4 -16 11c0 6 2 11 16 31l258 375c5 8 1 11 -8 11l-155 -5c-39 -1 -49 -9 -65 -86c-5 -23 -28 -16 -28 -14c6 51 6 89 4 121c-1 11 4 15 11 15c13 0 16 -6 62 -6h190c23 0 77 3 98 3c8 0 11 -3 11 -9
c0 -10 -24 -35 -44 -69l-235 -339c-5 -8 -3 -13 6 -13l163 6c62 1 69 12 85 119c4 23 29 18 29 16c-9 -67 -9 -118 -7 -157c0 -7 -2 -14 -12 -14z" />
    <glyph glyph-name="ae" unicode="&#xe6;" horiz-adv-x="792" 
d="M748 95c15 12 27 -7 14 -24c-48 -62 -119 -85 -198 -85c-90 0 -170 51 -205 135c-25 -85 -96 -135 -169 -135c-113 0 -164 75 -164 151c1 87 77 151 189 151c35 0 80 -6 112 -14l-3 24c-8 95 -58 131 -126 131c-59 0 -106 -22 -137 -66c0 -1 -24 10 -5 29
c29 44 95 74 169 74c76 0 131 -26 161 -96c43 59 112 96 200 96c116 0 207 -84 161 -240l-326 -5c25 -118 128 -178 204 -178c37 0 85 12 123 52zM555 432c-89 0 -139 -62 -139 -156c0 -10 1 -20 2 -30c80 2 179 3 249 4c33 69 -25 182 -112 182zM226 43
c59 0 111 51 112 126v10l-7 61c-31 9 -77 16 -103 16c-74 0 -118 -37 -118 -99c0 -58 39 -114 116 -114z" />
    <glyph glyph-name="oe" unicode="&#x153;" horiz-adv-x="905" 
d="M861 95c15 12 27 -7 14 -24c-48 -62 -119 -85 -198 -85c-78 0 -148 38 -188 102c-46 -65 -125 -103 -221 -103c-137 0 -233 93 -233 232c0 151 116 249 256 249c92 0 164 -39 205 -101c42 62 113 101 203 101c116 0 207 -84 161 -240l-326 -5c25 -118 128 -178 204 -178
c37 0 85 12 123 52zM668 432c-86 0 -136 -58 -139 -147c3 -13 4 -25 5 -39c80 2 177 3 246 4c33 69 -25 182 -112 182zM451 173c6 113 -80 255 -187 256c-96 0 -145 -65 -146 -150c-6 -126 78 -256 191 -256c89 0 141 59 142 150z" />
    <glyph glyph-name="eth" unicode="&#xf0;" horiz-adv-x="554" 
d="M471 655l-77 -40c78 -73 125 -187 125 -341c0 -180 -101 -289 -236 -289c-161 0 -247 103 -248 233c-1 142 92 248 214 248c69 1 127 -26 169 -78c-8 86 -34 153 -73 202l-98 -50c-25 -13 -29 13 -29 13l110 56c-43 43 -98 68 -163 78c-24 4 -4 26 -2 26
c81 -7 153 -33 211 -80l70 36c22 11 28 -13 27 -14zM309 22c89 0 137 61 137 162c-1 109 -119 251 -206 251c-85 0 -131 -59 -131 -149c0 -127 112 -264 200 -264z" />
    <glyph glyph-name="thorn" unicode="&#xfe;" horiz-adv-x="578" 
d="M344 466c108 0 199 -92 199 -230c0 -136 -92 -250 -227 -250c-91 0 -129 63 -145 63c-5 0 -6 -8 -6 -21v-134c0 -51 17 -68 45 -70c25 -3 20 -26 12 -26c-61 4 -137 3 -204 0c-7 0 -12 24 14 26c29 3 43 19 43 71v696c0 29 -8 44 -37 46c-18 4 -13 27 -12 27
c58 10 96 24 127 45c6 3 21 -1 21 -8c-5 -48 -9 -78 -9 -128v-191c0 -34 8 -39 13 -30c28 57 82 114 166 114zM325 16c88 0 139 58 139 156c0 117 -73 233 -167 233c-80 0 -132 -71 -132 -167v-8c0 -100 63 -214 160 -214z" />
    <glyph glyph-name="germandbls" unicode="&#xdf;" horiz-adv-x="602" 
d="M183 0l-92 1c-19 0 -46 -1 -58 -2c-5 0 -9 23 16 26c30 3 45 21 45 72v393c0 132 66 225 215 225c98 0 180 -58 180 -145c0 -77 -52 -129 -129 -146c-9 -2 -10 -4 0 -5c127 -5 214 -101 214 -220c1 -143 -107 -214 -199 -214c-86 0 -141 47 -141 99c0 17 12 17 16 17
c4 -40 44 -82 111 -82c65 0 119 48 119 151c-1 151 -88 230 -196 232c-13 1 -17 6 -17 11c0 7 4 13 4 13c111 12 140 65 140 136c0 90 -63 122 -117 122c-84 0 -111 -64 -111 -157v-466v-61z" />
    <glyph glyph-name="zero" unicode="0" horiz-adv-x="658" 
d="M326 -14c-182 0 -285 157 -285 365c0 220 119 362 291 362c183 0 285 -157 285 -364c0 -233 -118 -363 -291 -363zM360 22c124 0 177 89 177 261c0 205 -114 395 -237 395c-125 0 -179 -103 -179 -261c0 -207 115 -395 239 -395z" />
    <glyph glyph-name="one" unicode="1" horiz-adv-x="312" 
d="M203 568v-474c0 -51 16 -68 44 -70c25 -3 20 -26 13 -26c-62 4 -138 3 -205 0c-7 0 -12 24 14 26c29 3 44 19 44 71v482c0 26 -14 34 -65 21c-20 -3 -20 21 -2 25c99 21 133 87 150 87c10 0 13 -5 13 -18c0 -19 -6 -47 -6 -124z" />
    <glyph glyph-name="two" unicode="2" horiz-adv-x="580" 
d="M76 578c-15 -16 -33 -6 -30 0c40 79 119 133 235 133c138 0 236 -83 236 -196c0 -106 -83 -186 -181 -256l-214 -178l306 5c48 2 66 29 89 155c4 15 15 17 26 17c2 0 3 -1 2 -7c-16 -106 -21 -174 -22 -236c-1 -20 -4 -27 -14 -27c-19 0 -29 12 -89 12h-386
c-13 0 -17 5 -17 10c0 6 4 11 12 18l188 173c131 110 203 213 203 303c0 108 -77 164 -180 164c-80 0 -132 -36 -164 -90z" />
    <glyph glyph-name="three" unicode="3" horiz-adv-x="543" 
d="M238 413c150 17 270 -41 270 -155c0 -147 -174 -271 -464 -266c-4 0 -12 25 6 25c229 5 358 104 358 230c0 87 -60 138 -173 138c-41 0 -104 -13 -133 -22c-22 -4 -27 18 -21 20c164 48 248 98 248 198c0 55 -46 98 -123 98c-48 0 -79 -9 -109 -23c-21 -8 -31 10 -26 13
c52 30 101 46 169 46c123 0 182 -57 182 -122c0 -81 -68 -138 -184 -180z" />
    <glyph glyph-name="four" unicode="4" horiz-adv-x="603" 
d="M450 1h-95c-28 0 -65 -1 -82 -2c-7 0 -13 23 22 26c43 3 63 21 63 72v97c0 16 -2 18 -17 18h-306c-20 0 -23 14 -10 31l325 436c13 17 17 22 26 22h61c7 0 12 -1 12 -13v-377c0 -16 3 -21 17 -21h84c13 0 15 -5 15 -14c0 -32 -2 -64 -15 -64h-83c-16 0 -20 -3 -20 -18
v-97c0 -51 15 -69 45 -72c25 -3 21 -26 16 -26c-12 1 -39 2 -58 2zM94 290h243c19 0 22 3 22 19v325c0 5 -4 7 -9 1l-259 -336c-5 -7 -3 -9 3 -9z" />
    <glyph glyph-name="five" unicode="5" horiz-adv-x="549" 
d="M45 -11c-8 3 -11 25 6 25c166 2 366 65 366 255c0 96 -58 158 -170 158c-65 0 -107 -28 -147 -60c-12 -10 -18 -14 -28 -14c-11 0 -15 10 -11 29l60 294c6 20 15 24 35 24h214c58 0 77 6 99 16c13 7 21 -2 11 -15c-22 -69 -52 -80 -116 -80h-212c-12 0 -17 -4 -19 -14
l-45 -214c-1 -5 1 -8 7 -2c39 36 89 75 193 75c133 0 226 -77 226 -196c0 -177 -176 -281 -469 -281z" />
    <glyph glyph-name="six" unicode="6" horiz-adv-x="587" 
d="M328 447c138 0 224 -88 224 -224s-89 -236 -252 -236c-176 0 -265 137 -265 312c0 281 222 415 433 415c7 0 18 -23 -3 -25c-205 -14 -331 -170 -334 -339c36 52 112 97 197 97zM308 17c105 0 152 61 152 164c0 124 -70 219 -174 219c-62 0 -122 -33 -154 -87
c7 -182 79 -295 176 -296z" />
    <glyph glyph-name="seven" unicode="7" horiz-adv-x="516" 
d="M96 -6c-13 0 -17 0 -13 11c86 236 229 424 346 597c6 8 3 12 -4 12l-308 -9c-42 -2 -50 -19 -74 -143c-4 -16 -13 -20 -22 -20c-4 0 -5 3 -3 12c9 70 20 179 18 237c-1 16 3 23 17 23c19 0 50 -14 85 -14h357c19 0 17 -14 10 -26c-97 -140 -257 -424 -339 -667
c-4 -12 -18 -13 -70 -13z" />
    <glyph glyph-name="eight" unicode="8" horiz-adv-x="616" 
d="M315 -13c-183 0 -274 95 -274 211c0 95 77 171 173 190c5 1 6 5 0 6c-75 21 -141 71 -141 156c0 81 74 163 225 163c132 0 234 -64 234 -168c0 -67 -46 -134 -138 -153c-8 -2 -9 -5 0 -7c111 -27 180 -93 180 -192c0 -119 -117 -206 -259 -206zM312 405
c89 0 131 36 129 123c-4 100 -64 155 -146 155c-85 0 -132 -40 -130 -120c5 -96 55 -158 147 -158zM320 17c107 0 162 58 160 151c-6 132 -86 204 -184 204c-112 0 -163 -56 -161 -147c8 -139 79 -208 185 -208z" />
    <glyph glyph-name="nine" unicode="9" horiz-adv-x="587" 
d="M287 715c176 0 265 -137 265 -312c0 -281 -222 -414 -433 -414c-7 0 -18 22 3 24c205 14 331 170 334 339c-36 -52 -112 -97 -197 -97c-138 0 -224 88 -224 224s89 236 252 236zM301 302c62 0 122 33 154 87c-7 182 -79 295 -176 296c-105 0 -152 -61 -152 -164
c0 -124 70 -219 174 -219z" />
    <glyph glyph-name="AE.ss01" horiz-adv-x="1025" 
d="M947 221c5 26 40 20 40 18c-11 -77 -20 -164 -20 -226c0 -18 -8 -24 -19 -24c-18 0 -48 11 -170 11h-294c-14 0 -37 -2 -50 -2c-2 0 -9 19 13 24c38 7 54 14 54 72v106c-3 9 -12 12 -26 11c-72 -4 -146 -6 -225 -5c-20 1 -36 -2 -46 -14l-73 -107c-33 -48 -11 -56 37 -63
c27 -5 18 -24 15 -24c-15 0 -43 2 -60 2h-70c-13 0 -35 -2 -46 -2c-2 0 -9 19 12 24c35 7 47 15 80 63l373 542c11 16 12 30 8 41c-8 5 -19 7 -33 10c-22 5 -15 24 -13 24c9 0 22 -1 35 -2h31h267c90 0 130 11 149 11c11 0 18 -4 18 -22c-1 -50 5 -124 20 -228
c0 -1 -33 -5 -37 19c-18 117 -27 156 -46 173c-21 20 -73 21 -249 21c-17 0 -25 -10 -25 -29v-236c0 -11 4 -25 21 -25c9 0 70 0 110 3c25 3 33 11 49 79c6 24 28 13 28 13c-11 -70 -5 -156 5 -222c0 -1 -22 -7 -26 10c-21 77 -27 86 -55 88c-34 2 -96 3 -111 3
c-17 0 -21 -16 -21 -27v-271c0 -33 12 -34 55 -34c162 0 217 2 244 18c20 13 32 38 51 177zM475 237c12 1 23 5 26 15v265c-1 38 -4 60 -9 84c-1 5 -4 4 -6 2l-245 -358c-2 -7 3 -13 16 -13c72 -1 146 1 218 5z" />
    <glyph glyph-name="t.ss01" horiz-adv-x="350" 
d="M206 -14c-58 0 -109 39 -108 121v286c0 15 -6 22 -20 22h-37c-4 0 -14 30 12 37c57 10 84 40 104 109c15 26 36 23 36 12c0 -37 -3 -109 -3 -107c0 -12 7 -15 25 -15h106c9 0 8 -36 -22 -36h-84c-21 0 -27 -5 -27 -22v-279c0 -54 23 -78 51 -78c22 0 40 18 53 50
c2 6 29 6 23 -22c-11 -43 -52 -78 -109 -78z" />
    <glyph glyph-name="N.ss02" horiz-adv-x="751" 
d="M160 0h-60l-50 -3c-2 0 -9 19 13 24c38 8 54 15 54 73l-1 512c0 58 -15 66 -54 73c-22 6 -14 25 -12 24c12 0 35 -2 49 -3h52c14 0 20 -4 34 -11l413 -251c3 -2 6 -3 8 -3s4 2 4 6v165c0 58 -16 65 -55 72c-22 5 -15 24 -12 24c12 0 35 -2 49 -2h61c14 0 37 2 49 2
c2 0 9 -19 -12 -24c-39 -7 -55 -14 -55 -72v-512c0 -58 16 -65 55 -72c21 -5 14 -24 12 -24c-12 0 -35 2 -49 2h-61c-14 0 -37 -2 -49 -2c-3 0 -10 19 12 24c39 7 55 14 55 72v219c0 5 -2 9 -7 13l-449 270c-3 2 -6 3 -8 3s-3 -2 -3 -6v-499c0 -58 16 -65 54 -73
c22 -5 15 -24 13 -24z" />
    <glyph glyph-name="P.ss02" horiz-adv-x="655" 
d="M334 336h-56c-8 0 -14 24 3 25l49 2c109 4 161 58 161 164c0 85 -48 150 -180 151h-66c-24 0 -32 -8 -32 -35v-549c0 -58 17 -65 59 -72c24 -5 16 -24 14 -24c-13 0 -39 2 -54 2h-133c-14 0 -37 -2 -50 -2c-2 0 -9 19 13 24c38 7 54 14 54 72v512c0 58 -16 65 -54 72
c-22 5 -15 24 -13 24c12 0 36 -2 49 -2c94 1 158 3 229 3c189 0 268 -65 268 -176c0 -112 -69 -194 -261 -191z" />
    <glyph glyph-name="R.ss02" horiz-adv-x="666" 
d="M230 0h-131c-14 0 -37 -2 -50 -2c-2 0 -9 19 13 24c38 7 54 14 54 72v512c0 58 -16 65 -54 72c-22 5 -15 24 -13 24c12 0 36 -2 49 -2c96 1 167 3 231 3c195 0 272 -68 272 -176c0 -168 -168 -144 -168 -233c0 -72 111 -228 174 -262c10 -6 20 -8 31 -10
c19 -4 14 -21 12 -22c-26 -1 -53 -2 -90 -2c-91 0 -222 204 -222 299c0 107 160 67 160 232c0 88 -53 149 -187 149l-66 1c-24 0 -32 -8 -32 -36v-549c0 -58 16 -65 54 -72c22 -5 15 -24 13 -24c-12 0 -36 2 -50 2z" />
    <glyph glyph-name="U.ss02" horiz-adv-x="698" 
d="M341 -14c-151 0 -238 85 -238 200v420c0 58 -16 65 -55 72c-22 5 -15 24 -12 24c12 0 35 -2 49 -2h132c13 0 37 2 49 2c2 0 9 -19 -13 -24c-38 -7 -54 -14 -54 -72v-410c0 -94 51 -159 191 -159c88 0 175 37 175 84v485c0 58 -16 65 -54 72c-22 5 -15 24 -13 24
c12 0 36 -2 49 -2h60c14 0 37 2 49 2c2 0 10 -19 -12 -24c-39 -7 -55 -14 -55 -72l1 -523c-14 -21 -106 -97 -249 -97z" />
    <glyph glyph-name="a.ss02" horiz-adv-x="544" 
d="M510 73c3 1 18 0 18 -19c0 -38 -34 -66 -76 -66c-50 0 -77 31 -84 99l-4 31c-34 -97 -115 -132 -193 -132c-67 0 -136 38 -136 132c0 148 211 132 220 229c-1 3 23 11 26 -8c-7 -93 -163 -89 -163 -202c0 -63 45 -98 99 -98c79 0 137 54 139 146l-14 117
c-9 94 -58 126 -125 126c-56 0 -102 -21 -137 -56c-2 -2 -19 14 -1 31c32 36 92 63 172 63c96 0 169 -43 183 -171l23 -198c4 -38 14 -51 28 -51c13 0 22 8 25 27z" />
    <glyph glyph-name="e.ss02" horiz-adv-x="476" 
d="M266 -14c-126 0 -231 91 -231 232c0 135 102 248 253 248c97 0 168 -52 168 -132c0 -122 -151 -165 -264 -165c-27 0 -14 30 -11 30c58 0 185 9 185 111c0 67 -52 121 -117 121c-87 0 -140 -61 -140 -159c0 -151 103 -228 209 -229c34 0 87 12 129 55c8 6 24 -13 2 -36
c-43 -48 -106 -76 -183 -76z" />
    <glyph glyph-name="g.ss02" horiz-adv-x="547" 
d="M503 458c7 1 15 -23 -8 -25c-45 -5 -64 -12 -62 -22c37 -33 58 -78 58 -129c0 -84 -57 -155 -142 -185c88 -18 145 -73 145 -155c0 -92 -99 -157 -234 -157s-220 78 -216 159c1 39 25 75 76 99c9 3 18 -2 14 -16c-8 -15 -11 -33 -11 -53c1 -72 74 -156 157 -156
c74 0 122 40 122 95c0 94 -69 169 -152 169h-2c-118 3 -206 86 -206 185c0 116 97 199 233 199c59 0 95 -14 140 -14c25 0 67 3 88 6zM282 116c73 0 124 50 124 122c0 89 -70 194 -155 194c-77 0 -124 -48 -124 -123c0 -88 67 -193 155 -193z" />
    <glyph glyph-name="v.ss02" horiz-adv-x="564" 
d="M273 -14c-84 0 -157 48 -170 240c-5 47 -9 90 -13 132c-4 48 -25 67 -53 70c-25 2 -16 25 -13 25c61 -3 139 -3 206 0c3 0 11 -23 -14 -26c-30 -2 -41 -19 -36 -70c3 -38 7 -79 12 -123c12 -173 59 -207 121 -207c75 0 137 76 137 201c0 113 -27 186 -77 186
c-13 0 -25 -6 -31 -10c-4 -3 -18 1 -8 19c13 23 44 43 74 43c69 0 121 -74 121 -187c0 -160 -114 -293 -256 -293z" />
    <glyph glyph-name="w.ss02" horiz-adv-x="760" 
d="M631 466c75 0 124 -74 124 -187c0 -156 -99 -293 -229 -293c-55 0 -95 30 -116 87c-42 -54 -100 -87 -165 -87c-84 0 -144 48 -157 240c-5 47 -9 90 -13 132c-4 48 -24 67 -53 70c-25 2 -16 25 -12 25c60 -3 139 -3 205 0c4 0 12 -23 -14 -26c-30 -2 -40 -19 -36 -70
l13 -128c11 -168 47 -202 99 -202c76 0 125 76 124 201c-2 113 -25 186 -75 186c-13 0 -25 -6 -33 -12c-5 -4 -20 4 -10 21c14 26 47 43 78 43c69 0 111 -72 115 -171c1 -35 -2 -69 -9 -100c14 -134 42 -168 89 -168c77 0 122 76 120 201c-2 113 -30 186 -80 186
c-13 0 -25 -6 -33 -12c-5 -4 -20 4 -10 21c14 26 47 43 78 43z" />
    <glyph glyph-name="y.ss02" horiz-adv-x="561" 
d="M405 466c68 0 121 -74 121 -187c0 -238 -122 -494 -314 -494c-71 0 -102 31 -111 68c-2 35 37 62 65 62c9 0 12 -6 13 -13c1 -55 25 -80 64 -80c92 0 161 103 191 235c-42 -45 -97 -71 -161 -71c-84 0 -157 49 -170 240c-5 45 -9 89 -13 132c-4 48 -25 67 -53 70
c-25 2 -16 25 -13 25c61 -3 139 -3 206 0c3 0 11 -23 -14 -26c-30 -2 -40 -19 -36 -70c4 -38 8 -79 13 -123c11 -173 59 -209 122 -209c67 0 136 66 136 194c-1 110 -26 195 -78 195c-13 0 -25 -6 -31 -10c-4 -3 -18 1 -8 19c12 22 40 43 71 43z" />
    <glyph glyph-name="z.ss02" horiz-adv-x="451" 
d="M342 -13c-40 0 -145 29 -213 29c-59 0 -79 -29 -91 -29c-6 0 -7 3 -7 6c0 9 48 62 56 73l205 281c11 16 6 19 -19 17c-66 -6 -112 19 -157 14c-49 -6 -47 -39 -28 -114c6 -19 -17 -24 -19 -20c-23 56 -33 95 -35 127c-9 59 30 94 109 94c56 1 127 -27 192 -27
c30 0 44 19 57 19c10 0 13 -4 13 -8c0 -11 -14 -22 -37 -53l-225 -298c-5 -7 -2 -11 2 -11c7 0 16 3 34 3c71 0 130 -32 184 -32c21 0 28 14 38 109c3 26 27 22 27 18c-5 -54 -14 -118 -26 -156c-7 -34 -28 -42 -60 -42z" />
    <glyph glyph-name="A.ss03" horiz-adv-x="735" 
d="M712 24c17 -4 15 -26 6 -25c-46 3 -183 3 -230 0c-8 0 -10 22 5 24c39 1 74 11 51 64l-69 164h-289l-69 -164c-22 -53 18 -62 58 -64c17 -2 12 -24 4 -24c-47 3 -115 3 -163 0c-9 -1 -10 23 6 25c26 2 44 6 67 62l69 165h-55c-12 0 -19 26 0 26h66l137 328
c8 20 5 37 0 46l1 -1l-15 36c-5 11 -2 14 6 14c7 0 37 2 61 2s31 -5 42 -31l246 -585c20 -51 35 -58 65 -62zM330 596l-134 -319h268z" />
    <glyph glyph-name="H.ss03" horiz-adv-x="793" 
d="M732 22c22 -5 14 -24 12 -24c-12 0 -35 2 -49 2h-132c-14 0 -37 -2 -49 -2c-2 0 -9 19 13 24c38 7 54 14 54 72v256l-368 1v-257c0 -58 15 -65 54 -72c22 -5 15 -24 12 -24c-12 0 -35 2 -49 2h-131c-14 0 -37 -2 -50 -2c-2 0 -9 19 13 24c38 7 54 14 54 72v257h-54
c-14 0 -21 26 -1 26h55v229c0 58 -16 65 -54 72c-22 5 -15 24 -13 24c13 0 36 -2 50 -2h131c14 0 37 2 49 2c3 0 10 -19 -12 -24c-39 -7 -54 -14 -54 -72v-229l368 -1v230c0 58 -16 65 -54 72c-22 5 -15 24 -13 24c12 0 35 -2 49 -2h132c14 0 37 2 49 2c2 0 10 -19 -12 -24
c-39 -7 -55 -14 -55 -72v-512c0 -58 16 -65 55 -72z" />
    <glyph glyph-name="K.ss03" horiz-adv-x="667" 
d="M656 22c21 -5 14 -24 12 -24c-11 0 -33 2 -46 2h-84c-14 0 -22 5 -27 12l-190 265v61l-109 -145v-99c0 -58 16 -65 54 -72c22 -5 15 -24 13 -24c-12 0 -36 2 -49 2h-131c-14 0 -37 -2 -50 -2c-2 0 -9 19 13 24c38 7 54 14 54 72v578c0 17 -5 19 -16 21c-7 2 -4 8 -4 8
l15 -1h119c13 0 37 2 49 2c2 0 9 -19 -13 -24c-38 -7 -54 -14 -54 -72v-372l109 145v37c0 7 3 8 6 8c2 0 4 0 7 -4l9 -12l157 208c35 47 16 55 -22 62c-22 5 -15 24 -13 24c12 0 36 -2 49 -2h70c17 0 45 2 59 2c3 0 11 -19 -15 -24c-46 -7 -63 -15 -98 -62l-172 -229
l216 -303c34 -47 46 -55 82 -62z" />
    <glyph glyph-name="Q.ss03" horiz-adv-x="820" 
d="M825 -60c11 7 22 -3 15 -16c-38 -58 -130 -91 -218 -91c-190 0 -238 55 -344 58c-45 -17 -83 -29 -112 -37c-54 -12 -47 52 48 73c42 8 79 10 114 9c41 17 81 35 120 53c-20 -3 -41 -4 -63 -4c-201 0 -344 147 -344 352c0 210 171 376 388 376c205 0 350 -149 350 -349
c0 -164 -88 -292 -227 -348c-63 -32 -122 -61 -176 -84c92 -11 172 -40 285 -40c78 0 131 14 164 48zM138 405c0 -171 126 -384 295 -384c150 0 248 106 248 280c0 169 -127 377 -298 377c-141 0 -245 -117 -245 -273z" />
    <glyph glyph-name="R.ss03" horiz-adv-x="667" 
d="M655 22c21 -5 14 -24 12 -24c-12 0 -35 2 -49 2h-80c-14 0 -21 4 -28 12l-216 235l-1 53c-25 0 -51 1 -80 3v-209c0 -58 15 -65 54 -72c22 -5 15 -24 12 -24c-12 0 -35 2 -49 2h-131c-14 0 -37 -2 -50 -2c-2 0 -9 19 13 24c38 7 54 14 54 72v512c0 58 -16 65 -54 72
c-22 5 -15 24 -13 24c12 0 36 -2 49 -2c96 1 168 3 239 3c189 0 284 -74 284 -194c0 -109 -69 -193 -264 -207l207 -222c39 -43 52 -51 91 -58zM213 631v-303c29 -1 56 -1 80 0v25c0 7 3 8 6 8c2 0 3 0 7 -4l25 -27c143 14 182 72 182 172c0 111 -71 171 -190 171h-72
c-34 0 -38 -6 -38 -42z" />
    <glyph glyph-name="g.ss04" horiz-adv-x="494" 
d="M407 498c-33 0 -53 -15 -49 -57c63 -31 105 -93 105 -174c0 -131 -94 -218 -233 -218c-37 0 -71 8 -101 23c-41 -22 -86 -57 -86 -108c0 -28 16 -46 49 -46c94 0 171 96 290 96c62 0 105 -50 105 -108c0 -75 -58 -119 -134 -119s-121 45 -145 79
c-35 -19 -71 -34 -112 -34c-57 0 -98 36 -98 90c0 79 58 133 108 164c-50 34 -82 90 -82 162c0 131 89 217 230 217c27 0 53 -4 77 -12c5 78 56 125 125 126c24 0 36 -5 31 -25l-17 -57c-3 -11 -9 -13 -16 -10c-14 6 -30 11 -47 11zM259 81c83 0 132 44 132 136
c0 99 -71 214 -170 214c-81 0 -128 -44 -128 -136c0 -100 69 -214 166 -214zM443 -121c0 32 -23 59 -64 59c-54 0 -100 -30 -149 -59c24 -32 63 -64 129 -64c44 0 84 16 84 64z" />
    <glyph glyph-name="a.ss05" horiz-adv-x="593" 
d="M557 80c2 5 19 6 19 -18c0 -34 -27 -74 -83 -74c-44 0 -78 33 -80 103c-2 9 -4 15 -6 10c-28 -71 -93 -116 -175 -116c-122 0 -197 109 -197 229c0 154 111 252 233 252c95 0 143 -60 176 -60c18 0 35 34 57 53c5 7 13 5 12 -4c-8 -58 -10 -98 -10 -140v-200
c0 -47 6 -64 28 -64c17 0 23 16 26 29zM291 55c87 0 122 61 122 152v50c0 84 -53 178 -154 178s-145 -69 -145 -154c0 -121 79 -226 177 -226z" />
    <glyph glyph-name="g.ss05" horiz-adv-x="571" 
d="M483 459c2 4 25 5 22 -12c-6 -39 -9 -104 -9 -165v-240c0 -194 -124 -248 -233 -248c-86 0 -133 38 -133 88c0 60 56 107 119 140c-8 -1 -16 -1 -25 -1c-120 0 -189 91 -189 206c0 136 108 239 226 239c93 0 140 -65 175 -65c19 0 34 32 47 58zM117 289
c0 -111 59 -209 164 -209c86 0 125 69 125 157v8c0 95 -69 190 -150 190c-89 0 -139 -55 -139 -146zM406 -9v90v1c0 24 0 59 -6 49c-18 -34 -53 -79 -110 -99c-70 -44 -87 -88 -87 -128c0 -51 35 -79 84 -79c78 0 119 45 119 166z" />
    <glyph glyph-name="K.ss06" horiz-adv-x="761" 
d="M741 116c1 6 30 10 28 -19c-4 -65 -43 -109 -110 -109c-81 0 -113 63 -155 189c-45 133 -72 164 -136 164c-36 0 -59 -5 -88 -34l-67 -79v-134c0 -58 15 -65 54 -72c22 -5 15 -24 12 -24c-12 0 -35 2 -49 2h-131c-14 0 -37 -2 -50 -2c-2 0 -9 19 13 24c38 7 54 14 54 72
v512c0 58 -16 65 -54 72c-22 5 -15 24 -13 24c13 0 36 -2 50 -2h131c14 0 37 2 49 2c3 0 10 -19 -12 -24c-39 -7 -54 -14 -54 -72v-343l293 355c37 45 18 53 -20 60c-22 5 -15 24 -13 24c12 0 35 -2 49 -2h75c13 0 37 2 49 2c2 0 9 -19 -13 -24c-38 -7 -51 -15 -89 -60
l-215 -253c28 17 56 23 87 23c79 0 133 -34 178 -171c41 -122 58 -157 97 -157c28 0 41 17 50 56z" />
    <glyph glyph-name="R.ss06" horiz-adv-x="728" 
d="M678 115c1 5 28 10 28 -18c-2 -64 -43 -109 -110 -109c-70 0 -111 47 -136 185c-22 110 -66 126 -130 127h-71c-8 0 -10 25 7 26l66 2c114 6 181 55 181 171c0 104 -71 177 -196 179h-71c-24 0 -33 -7 -33 -35v-570c0 -45 12 -50 42 -56c17 -4 11 -19 10 -19
c-10 0 -28 2 -39 2h-127c-14 0 -37 -2 -50 -2c-2 0 -9 19 13 24c38 7 54 14 54 72v512c0 58 -16 65 -54 72c-22 5 -15 24 -13 24c12 0 36 -2 49 -2c96 1 168 3 239 3c189 0 284 -82 284 -205c0 -119 -89 -180 -209 -186c71 -4 119 -22 147 -126c21 -85 32 -126 70 -126
c27 0 40 15 49 55z" />
    <glyph glyph-name="k.ss06" horiz-adv-x="602" 
d="M576 65c1 5 18 3 18 -15c0 -34 -33 -65 -75 -65c-63 0 -99 52 -122 116c-35 94 -62 109 -108 109c-34 0 -59 -22 -89 -54c-3 -3 -6 -6 -8 -7l-6 -6v-50c0 -50 16 -67 45 -69c24 -3 19 -26 12 -26c-61 4 -138 3 -205 0c-7 0 -12 24 14 26c29 3 44 18 44 70l-2 482
c0 56 -9 65 -29 65c-21 4 -14 27 -13 27c55 8 95 26 128 52c1 1 20 2 17 -16c-6 -38 -11 -130 -11 -222v-311l204 215c25 27 7 39 -17 41c-21 3 -14 26 -6 25c46 -3 142 -3 186 0c7 0 9 -24 -11 -25c-49 -1 -77 -13 -105 -40l-154 -150c18 10 37 15 57 15
c57 0 105 -23 141 -118c19 -47 41 -88 74 -88c14 0 20 11 21 19z" />
    <glyph glyph-name="a.ss07" horiz-adv-x="607" 
d="M573 73c3 1 18 0 18 -19c0 -38 -34 -66 -76 -66c-50 0 -77 31 -83 99l-2 20c-6 16 -17 15 -25 -1c-38 -75 -91 -121 -179 -121c-108 0 -191 92 -191 229c0 138 104 252 239 252c113 0 214 -49 230 -206l17 -163c4 -37 13 -51 27 -51c13 0 22 8 25 27zM278 48
c97 0 140 92 140 168l-2 18c-13 140 -86 201 -159 202c-85 0 -138 -55 -138 -157c0 -117 65 -231 159 -231z" />
    <glyph glyph-name="e.ss08" horiz-adv-x="476" 
d="M447 98c8 6 24 -13 2 -36c-43 -48 -106 -76 -183 -76c-126 0 -231 91 -231 232c0 135 102 248 253 248c97 0 168 -52 168 -132c0 -121 -149 -169 -322 -172c38 -78 113 -118 184 -119c34 0 87 12 129 55zM251 431c-89 0 -141 -61 -141 -155c0 -33 5 -63 14 -89
c102 2 242 19 242 121c0 68 -52 123 -115 123z" />
    <glyph glyph-name="v.ss08" horiz-adv-x="545" 
d="M510 346c2 -158 -123 -346 -273 -346h-21c-6 0 -10 4 -13 10l-127 348c-18 49 -37 65 -68 68c-25 3 -20 26 -15 26c12 0 38 -2 58 -2h98c19 0 46 2 58 2c5 0 9 -23 -15 -26c-31 -3 -41 -19 -23 -68l117 -323c94 23 153 155 151 276c0 61 -16 101 -52 101
c-19 0 -32 -7 -45 -28c-7 -4 -18 6 -14 17c11 35 40 65 89 65c54 0 94 -39 95 -120z" />
    <glyph glyph-name="w.ss08" horiz-adv-x="782" 
d="M747 330c3 -159 -120 -330 -240 -330h-21c-6 0 -10 4 -13 10l-47 145c-48 -86 -125 -155 -198 -155h-21c-7 0 -11 4 -13 10l-120 348c-16 48 -35 65 -66 68c-25 3 -21 26 -16 26c13 0 39 -2 59 -2h94c16 0 39 2 49 2c4 0 8 -23 -13 -26c-26 -3 -34 -20 -17 -68l108 -319
c59 22 135 131 121 217l-33 101c-16 49 -33 66 -61 69c-22 3 -18 26 -14 26c11 0 35 -2 53 -2h94c20 0 47 2 59 2c5 0 9 -23 -16 -26c-31 -3 -41 -20 -25 -69l102 -319c72 24 129 160 125 260c-3 73 -26 108 -52 108c-20 0 -32 -8 -42 -28c-6 -5 -20 4 -15 18
c13 35 37 70 87 70c56 0 91 -50 92 -136z" />
    <glyph glyph-name="y.ss08" horiz-adv-x="542" 
d="M403 466c62 0 104 -53 104 -143c0 -275 -155 -512 -333 -512c-72 0 -115 32 -98 67l41 77c8 15 27 0 26 -5c-12 -70 18 -98 63 -99c89 0 174 91 212 254c-48 -62 -114 -105 -191 -105h-21c-6 0 -10 4 -13 10l-119 348c-17 48 -36 65 -67 68c-24 3 -20 26 -15 26
c12 0 39 -2 58 -2h98c20 0 46 2 59 2c5 0 9 -23 -16 -26c-31 -3 -41 -20 -24 -68l110 -323c103 23 164 154 160 269l1 1c-1 60 -18 100 -56 100c-23 0 -32 -12 -40 -34c-11 -9 -25 5 -22 17c16 43 30 78 83 78z" />
    <glyph glyph-name="uni0307_uni0069" 
d="M-90 554c-36 0 -59 22 -59 49c1 32 30 55 70 55c36 0 58 -21 58 -50c0 -31 -29 -54 -69 -54z" />
    <glyph glyph-name="Aacute" unicode="&#xc1;" horiz-adv-x="706" 
d="M263 739c-15 0 -22 10 -17 19c123 56 105 110 144 113c44 3 65 -1 65 -17c0 -39 -149 -115 -192 -115zM691 22c16 -5 10 -24 8 -24c-9 0 -26 2 -36 2h-136c-16 0 -44 -2 -59 -2c-3 0 -11 19 15 24c47 7 68 15 45 68l-39 92c-6 11 -13 12 -26 12h-295
c-13 0 -19 -3 -25 -13v1l-38 -92c-23 -53 -1 -61 48 -68c28 -5 20 -24 17 -24c-16 0 -45 2 -63 2h-63c-10 0 -28 -2 -37 -2c-2 0 -7 19 9 24c29 7 39 15 61 68l215 517c7 16 5 35 0 46l-5 12c-5 11 -9 13 -17 16c-15 4 -10 19 -4 19h64c39 0 46 -4 59 -36l241 -574
c23 -53 32 -61 61 -68zM455 220c12 0 14 7 13 14l-152 363l-149 -358c-5 -11 -1 -19 9 -19c98 0 186 -1 279 0z" />
    <glyph glyph-name="Abreve" unicode="&#x102;" horiz-adv-x="706" 
d="M341 741c-94 0 -126 77 -126 119c0 12 10 14 33 14c33 0 39 -4 39 -14c0 -35 15 -86 76 -86c73 0 82 57 82 83c0 11 9 15 20 15c3 0 4 -1 4 -8c0 -44 -22 -123 -128 -123zM691 22c16 -5 10 -24 8 -24c-9 0 -26 2 -36 2h-136c-16 0 -44 -2 -59 -2c-3 0 -11 19 15 24
c47 7 68 15 45 68l-39 92c-6 11 -13 12 -26 12h-295c-13 0 -19 -3 -25 -13v1l-38 -92c-23 -53 -1 -61 48 -68c28 -5 20 -24 17 -24c-16 0 -45 2 -63 2h-63c-10 0 -28 -2 -37 -2c-2 0 -7 19 9 24c29 7 39 15 61 68l215 517c7 16 5 35 0 46l-5 12c-5 11 -9 13 -17 16
c-15 4 -10 19 -4 19h64c39 0 46 -4 59 -36l241 -574c23 -53 32 -61 61 -68zM455 220c12 0 14 7 13 14l-152 363l-149 -358c-5 -11 -1 -19 9 -19c98 0 186 -1 279 0z" />
    <glyph glyph-name="uni01CD" unicode="&#x1cd;" horiz-adv-x="706" 
d="M346 740c-63 0 -41 72 -154 108c-1 9 6 17 21 17c24 -1 101 -40 133 -77c33 38 111 76 133 77c16 0 23 -8 22 -17c-113 -36 -91 -108 -155 -108zM691 22c16 -5 10 -24 8 -24c-9 0 -26 2 -36 2h-136c-16 0 -44 -2 -59 -2c-3 0 -11 19 15 24c47 7 68 15 45 68l-39 92
c-6 11 -13 12 -26 12h-295c-13 0 -19 -3 -25 -13v1l-38 -92c-23 -53 -1 -61 48 -68c28 -5 20 -24 17 -24c-16 0 -45 2 -63 2h-63c-10 0 -28 -2 -37 -2c-2 0 -7 19 9 24c29 7 39 15 61 68l215 517c7 16 5 35 0 46l-5 12c-5 11 -9 13 -17 16c-15 4 -10 19 -4 19h64
c39 0 46 -4 59 -36l241 -574c23 -53 32 -61 61 -68zM455 220c12 0 14 7 13 14l-152 363l-149 -358c-5 -11 -1 -19 9 -19c98 0 186 -1 279 0z" />
    <glyph glyph-name="Acircumflex" unicode="&#xc2;" horiz-adv-x="706" 
d="M206 736c-16 0 -23 8 -22 18c119 39 95 118 162 118s43 -78 162 -118c1 -10 -6 -18 -23 -18c-25 0 -105 43 -139 84c-34 -42 -117 -84 -140 -84zM691 22c16 -5 10 -24 8 -24c-9 0 -26 2 -36 2h-136c-16 0 -44 -2 -59 -2c-3 0 -11 19 15 24c47 7 68 15 45 68l-39 92
c-6 11 -13 12 -26 12h-295c-13 0 -19 -3 -25 -13v1l-38 -92c-23 -53 -1 -61 48 -68c28 -5 20 -24 17 -24c-16 0 -45 2 -63 2h-63c-10 0 -28 -2 -37 -2c-2 0 -7 19 9 24c29 7 39 15 61 68l215 517c7 16 5 35 0 46l-5 12c-5 11 -9 13 -17 16c-15 4 -10 19 -4 19h64
c39 0 46 -4 59 -36l241 -574c23 -53 32 -61 61 -68zM455 220c12 0 14 7 13 14l-152 363l-149 -358c-5 -11 -1 -19 9 -19c98 0 186 -1 279 0z" />
    <glyph glyph-name="uni1EAC" unicode="&#x1eac;" horiz-adv-x="706" 
d="M206 736c-16 0 -23 8 -22 18c119 39 95 118 162 118s43 -78 162 -118c1 -10 -6 -18 -23 -18c-25 0 -105 43 -139 84c-34 -42 -117 -84 -140 -84zM691 22c16 -5 10 -24 8 -24c-9 0 -26 2 -36 2h-136c-16 0 -44 -2 -59 -2c-3 0 -11 19 15 24c47 7 68 15 45 68l-39 92
c-6 11 -13 12 -26 12h-295c-13 0 -19 -3 -25 -13v1l-38 -92c-23 -53 -1 -61 48 -68c28 -5 20 -24 17 -24c-16 0 -45 2 -63 2h-63c-10 0 -28 -2 -37 -2c-2 0 -7 19 9 24c29 7 39 15 61 68l215 517c7 16 5 35 0 46l-5 12c-5 11 -9 13 -17 16c-15 4 -10 19 -4 19h64
c39 0 46 -4 59 -36l241 -574c23 -53 32 -61 61 -68zM455 220c12 0 14 7 13 14l-152 363l-149 -358c-5 -11 -1 -19 9 -19c98 0 186 -1 279 0zM333 -57c27 0 49 -19 48 -44c0 -27 -24 -52 -58 -52c-29 0 -50 20 -50 45c0 28 24 51 60 51z" />
    <glyph glyph-name="Adieresis" unicode="&#xc4;" horiz-adv-x="706" 
d="M270 753c-28 0 -49 20 -49 44c0 29 24 52 60 52c26 0 48 -20 48 -44c0 -28 -24 -52 -59 -52zM420 753c-28 0 -49 20 -49 44c0 29 24 52 60 52c26 0 48 -20 48 -44c0 -28 -24 -52 -59 -52zM691 22c16 -5 10 -24 8 -24c-9 0 -26 2 -36 2h-136c-16 0 -44 -2 -59 -2
c-3 0 -11 19 15 24c47 7 68 15 45 68l-39 92c-6 11 -13 12 -26 12h-295c-13 0 -19 -3 -25 -13v1l-38 -92c-23 -53 -1 -61 48 -68c28 -5 20 -24 17 -24c-16 0 -45 2 -63 2h-63c-10 0 -28 -2 -37 -2c-2 0 -7 19 9 24c29 7 39 15 61 68l215 517c7 16 5 35 0 46l-5 12
c-5 11 -9 13 -17 16c-15 4 -10 19 -4 19h64c39 0 46 -4 59 -36l241 -574c23 -53 32 -61 61 -68zM455 220c12 0 14 7 13 14l-152 363l-149 -358c-5 -11 -1 -19 9 -19c98 0 186 -1 279 0z" />
    <glyph glyph-name="Agrave" unicode="&#xc0;" horiz-adv-x="706" 
d="M363 739c-43 0 -192 76 -193 115c0 16 22 20 66 17c39 -3 21 -57 143 -113c6 -9 -1 -19 -16 -19zM691 22c16 -5 10 -24 8 -24c-9 0 -26 2 -36 2h-136c-16 0 -44 -2 -59 -2c-3 0 -11 19 15 24c47 7 68 15 45 68l-39 92c-6 11 -13 12 -26 12h-295c-13 0 -19 -3 -25 -13v1
l-38 -92c-23 -53 -1 -61 48 -68c28 -5 20 -24 17 -24c-16 0 -45 2 -63 2h-63c-10 0 -28 -2 -37 -2c-2 0 -7 19 9 24c29 7 39 15 61 68l215 517c7 16 5 35 0 46l-5 12c-5 11 -9 13 -17 16c-15 4 -10 19 -4 19h64c39 0 46 -4 59 -36l241 -574c23 -53 32 -61 61 -68zM455 220
c12 0 14 7 13 14l-152 363l-149 -358c-5 -11 -1 -19 9 -19c98 0 186 -1 279 0z" />
    <glyph glyph-name="Amacron" unicode="&#x100;" horiz-adv-x="706" 
d="M480 772h-266c-18 0 -12 19 0 24h266c17 0 12 -19 0 -24zM691 22c16 -5 10 -24 8 -24c-9 0 -26 2 -36 2h-136c-16 0 -44 -2 -59 -2c-3 0 -11 19 15 24c47 7 68 15 45 68l-39 92c-6 11 -13 12 -26 12h-295c-13 0 -19 -3 -25 -13v1l-38 -92c-23 -53 -1 -61 48 -68
c28 -5 20 -24 17 -24c-16 0 -45 2 -63 2h-63c-10 0 -28 -2 -37 -2c-2 0 -7 19 9 24c29 7 39 15 61 68l215 517c7 16 5 35 0 46l-5 12c-5 11 -9 13 -17 16c-15 4 -10 19 -4 19h64c39 0 46 -4 59 -36l241 -574c23 -53 32 -61 61 -68zM455 220c12 0 14 7 13 14l-152 363
l-149 -358c-5 -11 -1 -19 9 -19c98 0 186 -1 279 0z" />
    <glyph glyph-name="Aogonek" unicode="&#x104;" horiz-adv-x="706" 
d="M688 -90c6 7 19 5 19 -8c0 -41 -28 -82 -91 -82c-49 0 -84 20 -84 62c-1 52 42 90 94 118h-99c-16 0 -44 -2 -59 -2c-3 0 -11 19 15 24c47 7 68 15 45 68l-39 92c-6 11 -13 12 -26 12h-295c-13 0 -19 -3 -25 -13v1l-38 -92c-23 -53 -1 -61 48 -68c28 -5 20 -24 17 -24
c-16 0 -45 2 -63 2h-63c-10 0 -28 -2 -37 -2c-2 0 -7 19 9 24c29 7 39 15 61 68l215 517c7 16 5 35 0 46l-5 12c-5 11 -9 13 -17 16c-15 4 -10 19 -4 19h64c39 0 46 -4 59 -36l241 -574c23 -53 32 -61 61 -68c16 -5 10 -24 8 -24c-9 0 -26 2 -36 2h-9
c-49 -38 -59 -66 -59 -97c0 -29 15 -48 45 -48c29 0 48 18 48 55zM455 220c12 0 14 7 13 14l-152 363l-149 -358c-5 -11 -1 -19 9 -19c98 0 186 -1 279 0z" />
    <glyph glyph-name="Aring" unicode="&#xc5;" horiz-adv-x="706" 
d="M339 740c-57 0 -102 36 -102 88c0 46 42 95 114 94c58 -1 105 -37 105 -87c0 -49 -43 -95 -117 -95zM334 896c-36 0 -56 -14 -56 -48c1 -36 35 -82 82 -82c34 0 55 13 55 48c-1 35 -35 82 -81 82zM691 22c16 -5 10 -24 8 -24c-9 0 -26 2 -36 2h-136c-16 0 -44 -2 -59 -2
c-3 0 -11 19 15 24c47 7 68 15 45 68l-39 92c-6 11 -13 12 -26 12h-295c-13 0 -19 -3 -25 -13v1l-38 -92c-23 -53 -1 -61 48 -68c28 -5 20 -24 17 -24c-16 0 -45 2 -63 2h-63c-10 0 -28 -2 -37 -2c-2 0 -7 19 9 24c29 7 39 15 61 68l215 517c7 16 5 35 0 46l-5 12
c-5 11 -9 13 -17 16c-15 4 -10 19 -4 19h64c39 0 46 -4 59 -36l241 -574c23 -53 32 -61 61 -68zM455 220c12 0 14 7 13 14l-152 363l-149 -358c-5 -11 -1 -19 9 -19c98 0 186 -1 279 0z" />
    <glyph glyph-name="Aringacute" unicode="&#x1fa;" horiz-adv-x="706" 
d="M263 947c-15 0 -22 10 -17 19c123 56 105 110 144 113c44 3 65 -1 65 -17c0 -39 -149 -115 -192 -115zM339 740c-57 0 -102 36 -102 88c0 46 42 95 114 94c58 -1 105 -37 105 -87c0 -49 -43 -95 -117 -95zM334 896c-36 0 -56 -14 -56 -48c1 -36 35 -82 82 -82
c34 0 55 13 55 48c-1 35 -35 82 -81 82zM691 22c16 -5 10 -24 8 -24c-9 0 -26 2 -36 2h-136c-16 0 -44 -2 -59 -2c-3 0 -11 19 15 24c47 7 68 15 45 68l-39 92c-6 11 -13 12 -26 12h-295c-13 0 -19 -3 -25 -13v1l-38 -92c-23 -53 -1 -61 48 -68c28 -5 20 -24 17 -24
c-16 0 -45 2 -63 2h-63c-10 0 -28 -2 -37 -2c-2 0 -7 19 9 24c29 7 39 15 61 68l215 517c7 16 5 35 0 46l-5 12c-5 11 -9 13 -17 16c-15 4 -10 19 -4 19h64c39 0 46 -4 59 -36l241 -574c23 -53 32 -61 61 -68zM455 220c12 0 14 7 13 14l-152 363l-149 -358
c-5 -11 -1 -19 9 -19c98 0 186 -1 279 0z" />
    <glyph glyph-name="Atilde" unicode="&#xc3;" horiz-adv-x="706" 
d="M211 751c-8 -13 -27 -2 -26 -1c26 84 80 104 160 73l41 -16c53 -21 74 -11 95 26c10 14 27 2 27 1c-27 -83 -77 -106 -159 -74l-43 17c-54 23 -77 9 -95 -26zM691 22c16 -5 10 -24 8 -24c-9 0 -26 2 -36 2h-136c-16 0 -44 -2 -59 -2c-3 0 -11 19 15 24c47 7 68 15 45 68
l-39 92c-6 11 -13 12 -26 12h-295c-13 0 -19 -3 -25 -13v1l-38 -92c-23 -53 -1 -61 48 -68c28 -5 20 -24 17 -24c-16 0 -45 2 -63 2h-63c-10 0 -28 -2 -37 -2c-2 0 -7 19 9 24c29 7 39 15 61 68l215 517c7 16 5 35 0 46l-5 12c-5 11 -9 13 -17 16c-15 4 -10 19 -4 19h64
c39 0 46 -4 59 -36l241 -574c23 -53 32 -61 61 -68zM455 220c12 0 14 7 13 14l-152 363l-149 -358c-5 -11 -1 -19 9 -19c98 0 186 -1 279 0z" />
    <glyph glyph-name="AEacute" unicode="&#x1fc;" horiz-adv-x="1025" 
d="M479 739c-15 0 -22 10 -17 19c123 56 105 110 144 113c44 3 65 -1 65 -17c0 -39 -149 -115 -192 -115zM947 221c5 26 40 20 40 18c-11 -77 -20 -164 -20 -226c0 -18 -8 -24 -19 -24c-18 0 -48 11 -170 11h-294c-14 0 -37 -2 -50 -2c-2 0 -9 19 13 24c38 7 54 14 54 72
v100h-259c-22 0 -37 -3 -46 -15l-65 -94c-33 -48 -11 -56 37 -63c27 -5 18 -24 15 -24c-15 0 -43 2 -60 2h-70c-13 0 -35 -2 -46 -2c-2 0 -9 19 12 24c35 7 47 15 80 63l373 542c11 16 12 30 8 41c-8 5 -19 7 -33 10c-22 5 -15 24 -13 24c9 0 22 -1 35 -2h31h267
c90 0 130 11 149 11c11 0 18 -4 18 -22c-1 -50 5 -124 20 -228c0 -1 -33 -5 -37 19c-18 117 -27 156 -46 173c-21 20 -73 21 -249 21c-17 0 -25 -10 -25 -29v-236c0 -11 4 -25 21 -25c9 0 70 0 110 3c25 3 33 11 49 79c6 24 28 13 28 13c-11 -70 -5 -156 5 -222
c0 -1 -22 -7 -26 10c-21 77 -27 86 -55 88c-34 2 -96 3 -111 3c-17 0 -21 -16 -21 -27v-271c0 -33 12 -34 55 -34c162 0 217 2 244 18c20 13 32 38 51 177zM248 220h253v297c-1 38 -4 60 -9 84c-1 5 -4 4 -6 2l-254 -370c-2 -7 4 -13 16 -13z" />
    <glyph glyph-name="Cacute" unicode="&#x106;" horiz-adv-x="681" 
d="M257 739c-15 0 -22 10 -17 19c123 56 105 110 144 113c44 3 65 -1 65 -17c0 -39 -149 -115 -192 -115zM646 558l-48 -168c-1 -4 -32 -8 -29 24c10 63 7 117 -10 159c-30 72 -98 104 -165 104c-150 0 -257 -99 -257 -276c0 -234 163 -347 298 -347c64 0 148 14 217 92
c4 5 27 -9 6 -34c-63 -76 -166 -127 -282 -127c-180 0 -335 137 -335 351c0 217 167 377 374 377c145 0 252 -78 231 -155z" />
    <glyph glyph-name="Ccaron" unicode="&#x10c;" horiz-adv-x="681" 
d="M340 740c-63 0 -41 72 -154 108c-1 9 6 17 21 17c24 -1 101 -40 133 -77c33 38 111 76 133 77c16 0 23 -8 22 -17c-113 -36 -91 -108 -155 -108zM652 146c4 5 27 -9 6 -34c-63 -76 -166 -127 -282 -127c-180 0 -335 137 -335 351c0 217 167 377 374 377
c145 0 252 -78 231 -155l-48 -168c-1 -4 -32 -8 -29 24c10 63 7 117 -10 159c-30 72 -98 104 -165 104c-150 0 -257 -99 -257 -276c0 -234 163 -347 298 -347c64 0 148 14 217 92z" />
    <glyph glyph-name="Ccedilla" unicode="&#xc7;" horiz-adv-x="681" 
d="M652 146c4 5 27 -9 6 -34c-63 -76 -166 -127 -282 -127c-15 0 -29 1 -43 3c-12 -16 -19 -29 -29 -49c78 -15 105 -45 105 -80s-36 -65 -96 -65c-45 0 -90 18 -90 45c0 10 6 26 36 26c4 0 9 -51 72 -51c23 0 38 10 38 27c0 25 -20 43 -114 65l55 85
c-151 30 -269 158 -269 345c0 217 167 377 374 377c145 0 252 -78 231 -155l-48 -168c-1 -4 -32 -8 -29 24c10 63 7 117 -10 159c-30 72 -98 104 -165 104c-150 0 -257 -99 -257 -276c0 -234 163 -347 298 -347c64 0 148 14 217 92z" />
    <glyph glyph-name="Ccircumflex" unicode="&#x108;" horiz-adv-x="681" 
d="M200 736c-16 0 -23 8 -22 18c119 39 95 118 162 118s43 -78 162 -118c1 -10 -6 -18 -23 -18c-25 0 -105 43 -139 84c-34 -42 -117 -84 -140 -84zM652 146c4 5 27 -9 6 -34c-63 -76 -166 -127 -282 -127c-180 0 -335 137 -335 351c0 217 167 377 374 377
c145 0 252 -78 231 -155l-48 -168c-1 -4 -32 -8 -29 24c10 63 7 117 -10 159c-30 72 -98 104 -165 104c-150 0 -257 -99 -257 -276c0 -234 163 -347 298 -347c64 0 148 14 217 92z" />
    <glyph glyph-name="Cdotaccent" unicode="&#x10a;" horiz-adv-x="681" 
d="M341 751c-34 0 -56 20 -55 46c0 30 27 51 64 51c34 0 55 -20 55 -46c0 -29 -27 -51 -64 -51zM646 558l-48 -168c-1 -4 -32 -8 -29 24c10 63 7 117 -10 159c-30 72 -98 104 -165 104c-150 0 -257 -99 -257 -276c0 -234 163 -347 298 -347c64 0 148 14 217 92
c4 5 27 -9 6 -34c-63 -76 -166 -127 -282 -127c-180 0 -335 137 -335 351c0 217 167 377 374 377c145 0 252 -78 231 -155z" />
    <glyph glyph-name="Dcaron" unicode="&#x10e;" horiz-adv-x="734" 
d="M329 740c-63 0 -41 72 -154 108c-1 9 6 17 21 17c24 -1 101 -40 133 -77c33 38 111 76 133 77c16 0 23 -8 22 -17c-113 -36 -91 -108 -155 -108zM270 704c278 0 423 -124 423 -346c0 -210 -136 -363 -388 -363c-62 0 -125 4 -191 4c-24 0 -47 0 -65 -2c-2 0 -9 19 13 24
c39 7 54 15 54 73v512c0 58 -16 65 -55 72c-21 4 -14 24 -12 24c12 -1 36 -2 49 -2c61 1 134 4 172 4zM288 22c210 0 302 127 303 316c0 202 -102 340 -342 340c-32 0 -37 -10 -37 -36l1 -581c0 -34 9 -39 75 -39z" />
    <glyph glyph-name="Dcroat" unicode="&#x110;" horiz-adv-x="734" 
d="M270 704c278 0 423 -124 423 -346c0 -210 -136 -363 -388 -363c-62 0 -125 4 -191 4c-24 0 -47 0 -65 -2c-2 0 -9 19 13 24c39 7 54 15 54 73v244h-71c-3 0 -12 25 15 25h56v243c0 58 -16 65 -55 72c-21 4 -14 24 -12 24c12 -1 36 -2 49 -2c61 1 134 4 172 4zM288 22
c210 0 302 127 303 316c0 202 -102 340 -342 340c-32 0 -37 -10 -37 -36v-279h202c4 -1 13 -25 -16 -25h-185v-277c0 -34 9 -39 75 -39z" />
    <glyph glyph-name="uni1E0C" unicode="&#x1e0c;" horiz-adv-x="734" 
d="M305 -5c-62 0 -125 4 -191 4c-24 0 -47 0 -65 -2c-2 0 -9 19 13 24c39 7 54 15 54 73v512c0 58 -16 65 -55 72c-21 4 -14 24 -12 24c12 -1 36 -2 49 -2c61 1 134 4 172 4c278 0 423 -124 423 -346c0 -210 -136 -363 -388 -363zM288 22c210 0 302 127 303 316
c0 202 -102 340 -342 340c-32 0 -37 -10 -37 -36l1 -581c0 -34 9 -39 75 -39zM330 -153c-29 0 -50 20 -50 45c0 28 24 51 60 51c27 0 49 -19 48 -44c0 -27 -24 -52 -58 -52z" />
    <glyph glyph-name="uni1E0E" unicode="&#x1e0e;" horiz-adv-x="734" 
d="M305 -5c-62 0 -125 4 -191 4c-24 0 -47 0 -65 -2c-2 0 -9 19 13 24c39 7 54 15 54 73v512c0 58 -16 65 -55 72c-21 4 -14 24 -12 24c12 -1 36 -2 49 -2c61 1 134 4 172 4c278 0 423 -124 423 -346c0 -210 -136 -363 -388 -363zM288 22c210 0 302 127 303 316
c0 202 -102 340 -342 340c-32 0 -37 -10 -37 -36l1 -581c0 -34 9 -39 75 -39zM462 -118h-266c-17 0 -12 20 0 25h266c18 0 12 -19 0 -25z" />
    <glyph glyph-name="Eacute" unicode="&#xc9;" horiz-adv-x="640" 
d="M223 739c-15 0 -22 10 -17 19c123 56 105 110 144 113c44 3 65 -1 65 -17c0 -39 -149 -115 -192 -115zM393 0h-294c-14 0 -37 -2 -50 -2c-2 0 -9 19 13 24c38 7 54 14 54 72v512c0 58 -16 65 -54 72c-22 5 -15 24 -13 24c13 0 36 -2 50 -2h283c90 0 130 11 149 11
c11 0 18 -4 18 -22c-1 -50 5 -124 20 -228c0 -1 -33 -5 -37 19c-18 117 -27 156 -46 173c-21 20 -73 21 -249 21c-17 0 -25 -10 -25 -29v-236c0 -11 4 -25 21 -25c9 0 70 0 110 3c25 3 33 11 49 79c6 24 28 13 28 13c-11 -70 -5 -156 5 -222c0 -1 -22 -7 -26 10
c-21 77 -27 86 -55 88c-34 2 -96 3 -111 3c-17 0 -21 -16 -21 -27v-271c0 -33 12 -34 55 -34c162 0 217 2 244 18c20 13 32 38 51 177c5 26 40 20 40 18c-11 -77 -20 -164 -20 -226c0 -18 -8 -24 -19 -24c-18 0 -48 11 -170 11z" />
    <glyph glyph-name="Ebreve" unicode="&#x114;" horiz-adv-x="640" 
d="M209 874c33 0 39 -4 39 -14c0 -35 15 -86 76 -86c73 0 82 57 82 83c0 11 9 15 20 15c3 0 4 -1 4 -8c0 -44 -22 -123 -128 -123c-94 0 -126 77 -126 119c0 12 10 14 33 14zM393 0h-294c-14 0 -37 -2 -50 -2c-2 0 -9 19 13 24c38 7 54 14 54 72v512c0 58 -16 65 -54 72
c-22 5 -15 24 -13 24c13 0 36 -2 50 -2h283c90 0 130 11 149 11c11 0 18 -4 18 -22c-1 -50 5 -124 20 -228c0 -1 -33 -5 -37 19c-18 117 -27 156 -46 173c-21 20 -73 21 -249 21c-17 0 -25 -10 -25 -29v-236c0 -11 4 -25 21 -25c9 0 70 0 110 3c25 3 33 11 49 79
c6 24 28 13 28 13c-11 -70 -5 -156 5 -222c0 -1 -22 -7 -26 10c-21 77 -27 86 -55 88c-34 2 -96 3 -111 3c-17 0 -21 -16 -21 -27v-271c0 -33 12 -34 55 -34c162 0 217 2 244 18c20 13 32 38 51 177c5 26 40 20 40 18c-11 -77 -20 -164 -20 -226c0 -18 -8 -24 -19 -24
c-18 0 -48 11 -170 11z" />
    <glyph glyph-name="Ecaron" unicode="&#x11a;" horiz-adv-x="640" 
d="M306 740c-63 0 -41 72 -154 108c-1 9 6 17 21 17c24 -1 101 -40 133 -77c33 38 111 76 133 77c16 0 23 -8 22 -17c-113 -36 -91 -108 -155 -108zM562 221c5 26 40 20 40 18c-11 -77 -20 -164 -20 -226c0 -18 -8 -24 -19 -24c-18 0 -48 11 -170 11h-294
c-14 0 -37 -2 -50 -2c-2 0 -9 19 13 24c38 7 54 14 54 72v512c0 58 -16 65 -54 72c-22 5 -15 24 -13 24c13 0 36 -2 50 -2h283c90 0 130 11 149 11c11 0 18 -4 18 -22c-1 -50 5 -124 20 -228c0 -1 -33 -5 -37 19c-18 117 -27 156 -46 173c-21 20 -73 21 -249 21
c-17 0 -25 -10 -25 -29v-236c0 -11 4 -25 21 -25c9 0 70 0 110 3c25 3 33 11 49 79c6 24 28 13 28 13c-11 -70 -5 -156 5 -222c0 -1 -22 -7 -26 10c-21 77 -27 86 -55 88c-34 2 -96 3 -111 3c-17 0 -21 -16 -21 -27v-271c0 -33 12 -34 55 -34c162 0 217 2 244 18
c20 13 32 38 51 177z" />
    <glyph glyph-name="Ecircumflex" unicode="&#xca;" horiz-adv-x="640" 
d="M167 736c-16 0 -23 8 -22 18c119 39 95 118 162 118s43 -78 162 -118c1 -10 -6 -18 -23 -18c-25 0 -105 43 -139 84c-34 -42 -117 -84 -140 -84zM562 221c5 26 40 20 40 18c-11 -77 -20 -164 -20 -226c0 -18 -8 -24 -19 -24c-18 0 -48 11 -170 11h-294
c-14 0 -37 -2 -50 -2c-2 0 -9 19 13 24c38 7 54 14 54 72v512c0 58 -16 65 -54 72c-22 5 -15 24 -13 24c13 0 36 -2 50 -2h283c90 0 130 11 149 11c11 0 18 -4 18 -22c-1 -50 5 -124 20 -228c0 -1 -33 -5 -37 19c-18 117 -27 156 -46 173c-21 20 -73 21 -249 21
c-17 0 -25 -10 -25 -29v-236c0 -11 4 -25 21 -25c9 0 70 0 110 3c25 3 33 11 49 79c6 24 28 13 28 13c-11 -70 -5 -156 5 -222c0 -1 -22 -7 -26 10c-21 77 -27 86 -55 88c-34 2 -96 3 -111 3c-17 0 -21 -16 -21 -27v-271c0 -33 12 -34 55 -34c162 0 217 2 244 18
c20 13 32 38 51 177z" />
    <glyph glyph-name="uni1EC6" unicode="&#x1ec6;" horiz-adv-x="640" 
d="M167 736c-16 0 -23 8 -22 18c119 39 95 118 162 118s43 -78 162 -118c1 -10 -6 -18 -23 -18c-25 0 -105 43 -139 84c-34 -42 -117 -84 -140 -84zM562 221c5 26 40 20 40 18c-11 -77 -20 -164 -20 -226c0 -18 -8 -24 -19 -24c-18 0 -48 11 -170 11h-294
c-14 0 -37 -2 -50 -2c-2 0 -9 19 13 24c38 7 54 14 54 72v512c0 58 -16 65 -54 72c-22 5 -15 24 -13 24c13 0 36 -2 50 -2h283c90 0 130 11 149 11c11 0 18 -4 18 -22c-1 -50 5 -124 20 -228c0 -1 -33 -5 -37 19c-18 117 -27 156 -46 173c-21 20 -73 21 -249 21
c-17 0 -25 -10 -25 -29v-236c0 -11 4 -25 21 -25c9 0 70 0 110 3c25 3 33 11 49 79c6 24 28 13 28 13c-11 -70 -5 -156 5 -222c0 -1 -22 -7 -26 10c-21 77 -27 86 -55 88c-34 2 -96 3 -111 3c-17 0 -21 -16 -21 -27v-271c0 -33 12 -34 55 -34c162 0 217 2 244 18
c20 13 32 38 51 177zM335 -57c27 0 49 -19 48 -44c0 -27 -24 -52 -58 -52c-29 0 -50 20 -50 45c0 28 24 51 60 51z" />
    <glyph glyph-name="Edieresis" unicode="&#xcb;" horiz-adv-x="640" 
d="M230 753c-28 0 -49 20 -49 44c0 29 24 52 60 52c26 0 48 -20 48 -44c0 -28 -24 -52 -59 -52zM380 753c-28 0 -49 20 -49 44c0 29 24 52 60 52c26 0 48 -20 48 -44c0 -28 -24 -52 -59 -52zM393 0h-294c-14 0 -37 -2 -50 -2c-2 0 -9 19 13 24c38 7 54 14 54 72v512
c0 58 -16 65 -54 72c-22 5 -15 24 -13 24c13 0 36 -2 50 -2h283c90 0 130 11 149 11c11 0 18 -4 18 -22c-1 -50 5 -124 20 -228c0 -1 -33 -5 -37 19c-18 117 -27 156 -46 173c-21 20 -73 21 -249 21c-17 0 -25 -10 -25 -29v-236c0 -11 4 -25 21 -25c9 0 70 0 110 3
c25 3 33 11 49 79c6 24 28 13 28 13c-11 -70 -5 -156 5 -222c0 -1 -22 -7 -26 10c-21 77 -27 86 -55 88c-34 2 -96 3 -111 3c-17 0 -21 -16 -21 -27v-271c0 -33 12 -34 55 -34c162 0 217 2 244 18c20 13 32 38 51 177c5 26 40 20 40 18c-11 -77 -20 -164 -20 -226
c0 -18 -8 -24 -19 -24c-18 0 -48 11 -170 11z" />
    <glyph glyph-name="Edotaccent" unicode="&#x116;" horiz-adv-x="640" 
d="M307 751c-34 0 -56 20 -55 46c0 30 27 51 64 51c34 0 55 -20 55 -46c0 -29 -27 -51 -64 -51zM393 0h-294c-14 0 -37 -2 -50 -2c-2 0 -9 19 13 24c38 7 54 14 54 72v512c0 58 -16 65 -54 72c-22 5 -15 24 -13 24c13 0 36 -2 50 -2h283c90 0 130 11 149 11
c11 0 18 -4 18 -22c-1 -50 5 -124 20 -228c0 -1 -33 -5 -37 19c-18 117 -27 156 -46 173c-21 20 -73 21 -249 21c-17 0 -25 -10 -25 -29v-236c0 -11 4 -25 21 -25c9 0 70 0 110 3c25 3 33 11 49 79c6 24 28 13 28 13c-11 -70 -5 -156 5 -222c0 -1 -22 -7 -26 10
c-21 77 -27 86 -55 88c-34 2 -96 3 -111 3c-17 0 -21 -16 -21 -27v-271c0 -33 12 -34 55 -34c162 0 217 2 244 18c20 13 32 38 51 177c5 26 40 20 40 18c-11 -77 -20 -164 -20 -226c0 -18 -8 -24 -19 -24c-18 0 -48 11 -170 11z" />
    <glyph glyph-name="uni1EB8" unicode="&#x1eb8;" horiz-adv-x="640" 
d="M393 0h-294c-14 0 -37 -2 -50 -2c-2 0 -9 19 13 24c38 7 54 14 54 72v512c0 58 -16 65 -54 72c-22 5 -15 24 -13 24c13 0 36 -2 50 -2h283c90 0 130 11 149 11c11 0 18 -4 18 -22c-1 -50 5 -124 20 -228c0 -1 -33 -5 -37 19c-18 117 -27 156 -46 173
c-21 20 -73 21 -249 21c-17 0 -25 -10 -25 -29v-236c0 -11 4 -25 21 -25c9 0 70 0 110 3c25 3 33 11 49 79c6 24 28 13 28 13c-11 -70 -5 -156 5 -222c0 -1 -22 -7 -26 10c-21 77 -27 86 -55 88c-34 2 -96 3 -111 3c-17 0 -21 -16 -21 -27v-271c0 -33 12 -34 55 -34
c162 0 217 2 244 18c20 13 32 38 51 177c5 26 40 20 40 18c-11 -77 -20 -164 -20 -226c0 -18 -8 -24 -19 -24c-18 0 -48 11 -170 11zM325 -153c-29 0 -50 20 -50 45c0 28 24 51 60 51c27 0 49 -19 48 -44c0 -27 -24 -52 -58 -52z" />
    <glyph glyph-name="Egrave" unicode="&#xc8;" horiz-adv-x="640" 
d="M324 739c-43 0 -192 76 -193 115c0 16 22 20 66 17c39 -3 21 -57 143 -113c6 -9 -1 -19 -16 -19zM393 0h-294c-14 0 -37 -2 -50 -2c-2 0 -9 19 13 24c38 7 54 14 54 72v512c0 58 -16 65 -54 72c-22 5 -15 24 -13 24c13 0 36 -2 50 -2h283c90 0 130 11 149 11
c11 0 18 -4 18 -22c-1 -50 5 -124 20 -228c0 -1 -33 -5 -37 19c-18 117 -27 156 -46 173c-21 20 -73 21 -249 21c-17 0 -25 -10 -25 -29v-236c0 -11 4 -25 21 -25c9 0 70 0 110 3c25 3 33 11 49 79c6 24 28 13 28 13c-11 -70 -5 -156 5 -222c0 -1 -22 -7 -26 10
c-21 77 -27 86 -55 88c-34 2 -96 3 -111 3c-17 0 -21 -16 -21 -27v-271c0 -33 12 -34 55 -34c162 0 217 2 244 18c20 13 32 38 51 177c5 26 40 20 40 18c-11 -77 -20 -164 -20 -226c0 -18 -8 -24 -19 -24c-18 0 -48 11 -170 11z" />
    <glyph glyph-name="Emacron" unicode="&#x112;" horiz-adv-x="640" 
d="M440 772h-266c-18 0 -12 19 0 24h266c17 0 12 -19 0 -24zM393 0h-294c-14 0 -37 -2 -50 -2c-2 0 -9 19 13 24c38 7 54 14 54 72v512c0 58 -16 65 -54 72c-22 5 -15 24 -13 24c13 0 36 -2 50 -2h283c90 0 130 11 149 11c11 0 18 -4 18 -22c-1 -50 5 -124 20 -228
c0 -1 -33 -5 -37 19c-18 117 -27 156 -46 173c-21 20 -73 21 -249 21c-17 0 -25 -10 -25 -29v-236c0 -11 4 -25 21 -25c9 0 70 0 110 3c25 3 33 11 49 79c6 24 28 13 28 13c-11 -70 -5 -156 5 -222c0 -1 -22 -7 -26 10c-21 77 -27 86 -55 88c-34 2 -96 3 -111 3
c-17 0 -21 -16 -21 -27v-271c0 -33 12 -34 55 -34c162 0 217 2 244 18c20 13 32 38 51 177c5 26 40 20 40 18c-11 -77 -20 -164 -20 -226c0 -18 -8 -24 -19 -24c-18 0 -48 11 -170 11z" />
    <glyph glyph-name="Eogonek" unicode="&#x118;" horiz-adv-x="640" 
d="M592 -88c6 7 19 5 19 -8c0 -41 -28 -82 -91 -82c-49 0 -84 20 -84 62c-1 48 35 84 81 111c-25 2 -63 5 -124 5h-294c-14 0 -37 -2 -50 -2c-2 0 -9 19 13 24c38 7 54 14 54 72v512c0 58 -16 65 -54 72c-22 5 -15 24 -13 24c13 0 36 -2 50 -2h283c90 0 130 11 149 11
c11 0 18 -4 18 -22c-1 -50 5 -124 20 -228c0 -1 -33 -5 -37 19c-18 117 -27 156 -46 173c-21 20 -73 21 -249 21c-17 0 -25 -10 -25 -29v-236c0 -11 4 -25 21 -25c9 0 70 0 110 3c25 3 33 11 49 79c6 24 28 13 28 13c-11 -70 -5 -156 5 -222c0 -1 -22 -7 -26 10
c-21 77 -27 86 -55 88c-34 2 -96 3 -111 3c-17 0 -21 -16 -21 -27v-271c0 -33 12 -34 55 -34c162 0 217 2 244 18c20 13 32 38 51 177c5 26 40 20 40 18c-11 -77 -20 -164 -20 -226c0 -18 -8 -24 -19 -24c-5 0 -10 1 -18 2c-38 -33 -46 -58 -46 -86c0 -29 15 -48 45 -48
c29 0 48 18 48 55z" />
    <glyph glyph-name="uni1EBC" unicode="&#x1ebc;" horiz-adv-x="640" 
d="M171 751c-8 -13 -27 -2 -26 -1c26 84 80 104 160 73l41 -16c53 -21 74 -11 95 26c10 14 27 2 27 1c-27 -83 -77 -106 -159 -74l-43 17c-54 23 -77 9 -95 -26zM393 0h-294c-14 0 -37 -2 -50 -2c-2 0 -9 19 13 24c38 7 54 14 54 72v512c0 58 -16 65 -54 72
c-22 5 -15 24 -13 24c13 0 36 -2 50 -2h283c90 0 130 11 149 11c11 0 18 -4 18 -22c-1 -50 5 -124 20 -228c0 -1 -33 -5 -37 19c-18 117 -27 156 -46 173c-21 20 -73 21 -249 21c-17 0 -25 -10 -25 -29v-236c0 -11 4 -25 21 -25c9 0 70 0 110 3c25 3 33 11 49 79
c6 24 28 13 28 13c-11 -70 -5 -156 5 -222c0 -1 -22 -7 -26 10c-21 77 -27 86 -55 88c-34 2 -96 3 -111 3c-17 0 -21 -16 -21 -27v-271c0 -33 12 -34 55 -34c162 0 217 2 244 18c20 13 32 38 51 177c5 26 40 20 40 18c-11 -77 -20 -164 -20 -226c0 -18 -8 -24 -19 -24
c-18 0 -48 11 -170 11z" />
    <glyph glyph-name="Gbreve" unicode="&#x11e;" horiz-adv-x="716" 
d="M280 874c33 0 39 -4 39 -14c0 -35 15 -86 76 -86c73 0 82 57 82 83c0 11 9 15 20 15c3 0 4 -1 4 -8c0 -44 -22 -123 -128 -123c-94 0 -126 77 -126 119c0 12 10 14 33 14zM376 -15c-180 0 -335 137 -335 351c0 217 168 377 374 377c145 0 251 -78 231 -155l-43 -155
c0 -2 -31 -8 -31 24c8 55 6 108 -11 147c-29 70 -97 103 -167 103c-150 0 -258 -99 -258 -276c0 -236 163 -370 287 -370c98 0 165 47 175 85c6 30 3 57 -8 137c-9 26 -32 34 -144 38c-24 6 -20 31 -12 39c79 -5 159 -2 226 5c19 2 23 -9 23 -19s-6 -17 -8 -52
c-2 -51 -3 -75 -3 -131c0 -11 -2 -16 -10 -25c-74 -85 -172 -123 -286 -123z" />
    <glyph glyph-name="Gcaron" unicode="&#x1e6;" horiz-adv-x="716" 
d="M378 740c-63 0 -41 72 -154 108c-1 9 6 17 21 17c24 -1 101 -40 133 -77c33 38 111 76 133 77c16 0 23 -8 22 -17c-113 -36 -91 -108 -155 -108zM660 335c19 2 23 -9 23 -19s-6 -17 -8 -52c-2 -51 -3 -75 -3 -131c0 -11 -2 -16 -10 -25c-74 -85 -172 -123 -286 -123
c-180 0 -335 137 -335 351c0 217 168 377 374 377c145 0 251 -78 231 -155l-43 -155c0 -2 -31 -8 -31 24c8 55 6 108 -11 147c-29 70 -97 103 -167 103c-150 0 -258 -99 -258 -276c0 -236 163 -370 287 -370c98 0 165 47 175 85c6 30 3 57 -8 137c-9 26 -32 34 -144 38
c-24 6 -20 31 -12 39c79 -5 159 -2 226 5z" />
    <glyph glyph-name="Gcircumflex" unicode="&#x11c;" horiz-adv-x="716" 
d="M238 736c-16 0 -23 8 -22 18c119 39 95 118 162 118s43 -78 162 -118c1 -10 -6 -18 -23 -18c-25 0 -105 43 -139 84c-34 -42 -117 -84 -140 -84zM660 335c19 2 23 -9 23 -19s-6 -17 -8 -52c-2 -51 -3 -75 -3 -131c0 -11 -2 -16 -10 -25c-74 -85 -172 -123 -286 -123
c-180 0 -335 137 -335 351c0 217 168 377 374 377c145 0 251 -78 231 -155l-43 -155c0 -2 -31 -8 -31 24c8 55 6 108 -11 147c-29 70 -97 103 -167 103c-150 0 -258 -99 -258 -276c0 -236 163 -370 287 -370c98 0 165 47 175 85c6 30 3 57 -8 137c-9 26 -32 34 -144 38
c-24 6 -20 31 -12 39c79 -5 159 -2 226 5z" />
    <glyph glyph-name="uni0122" unicode="&#x122;" horiz-adv-x="716" 
d="M376 -15c-180 0 -335 137 -335 351c0 217 168 377 374 377c145 0 251 -78 231 -155l-43 -155c0 -2 -31 -8 -31 24c8 55 6 108 -11 147c-29 70 -97 103 -167 103c-150 0 -258 -99 -258 -276c0 -236 163 -370 287 -370c98 0 165 47 175 85c6 30 3 57 -8 137
c-9 26 -32 34 -144 38c-24 6 -20 31 -12 39c79 -5 159 -2 226 5c19 2 23 -9 23 -19s-6 -17 -8 -52c-2 -51 -3 -75 -3 -131c0 -11 -2 -16 -10 -25c-74 -85 -172 -123 -286 -123zM341 -248c-10 -1 -10 12 -5 14c34 22 45 50 45 76c-1 26 -51 6 -51 50c0 23 17 49 49 49
c29 0 43 -21 43 -49c0 -66 -42 -123 -81 -140z" />
    <glyph glyph-name="Gdotaccent" unicode="&#x120;" horiz-adv-x="716" 
d="M379 751c-34 0 -56 20 -55 46c0 30 27 51 64 51c34 0 55 -20 55 -46c0 -29 -27 -51 -64 -51zM376 -15c-180 0 -335 137 -335 351c0 217 168 377 374 377c145 0 251 -78 231 -155l-43 -155c0 -2 -31 -8 -31 24c8 55 6 108 -11 147c-29 70 -97 103 -167 103
c-150 0 -258 -99 -258 -276c0 -236 163 -370 287 -370c98 0 165 47 175 85c6 30 3 57 -8 137c-9 26 -32 34 -144 38c-24 6 -20 31 -12 39c79 -5 159 -2 226 5c19 2 23 -9 23 -19s-6 -17 -8 -52c-2 -51 -3 -75 -3 -131c0 -11 -2 -16 -10 -25c-74 -85 -172 -123 -286 -123z
" />
    <glyph glyph-name="uni1E20" unicode="&#x1e20;" horiz-adv-x="716" 
d="M511 772h-266c-18 0 -12 19 0 24h266c17 0 12 -19 0 -24zM376 -15c-180 0 -335 137 -335 351c0 217 168 377 374 377c145 0 251 -78 231 -155l-43 -155c0 -2 -31 -8 -31 24c8 55 6 108 -11 147c-29 70 -97 103 -167 103c-150 0 -258 -99 -258 -276
c0 -236 163 -370 287 -370c98 0 165 47 175 85c6 30 3 57 -8 137c-9 26 -32 34 -144 38c-24 6 -20 31 -12 39c79 -5 159 -2 226 5c19 2 23 -9 23 -19s-6 -17 -8 -52c-2 -51 -3 -75 -3 -131c0 -11 -2 -16 -10 -25c-74 -85 -172 -123 -286 -123z" />
    <glyph glyph-name="Hbar" unicode="&#x126;" horiz-adv-x="793" 
d="M732 22c22 -5 14 -24 12 -24c-12 0 -35 2 -49 2h-132c-14 0 -37 -2 -49 -2c-2 0 -9 19 13 24c38 7 54 14 54 72v237c-1 14 -8 19 -23 19c-99 1 -223 1 -323 1c-13 0 -19 -4 -22 -14v-243c0 -58 15 -65 54 -72c22 -5 15 -24 12 -24c-12 0 -35 2 -49 2h-131
c-14 0 -37 -2 -50 -2c-2 0 -9 19 13 24c38 7 54 14 54 72v409h-40c-16 0 -16 25 0 25h40v78c0 58 -16 65 -54 72c-22 5 -15 24 -13 24c13 0 36 -2 50 -2h131c14 0 37 2 49 2c3 0 10 -19 -12 -24c-39 -7 -54 -14 -54 -72v-78h368v78c0 58 -16 65 -54 72c-22 5 -15 24 -13 24
c12 0 35 -2 49 -2h132c14 0 37 2 49 2c2 0 10 -19 -12 -24c-39 -7 -55 -14 -55 -72v-78h40c17 0 17 -25 0 -25h-40v-409c0 -58 16 -65 55 -72zM558 376c15 0 22 6 23 19v108h-368v-113c3 -10 9 -14 22 -14h323z" />
    <glyph glyph-name="uni1E2A" unicode="&#x1e2a;" horiz-adv-x="793" 
d="M732 22c22 -5 14 -24 12 -24c-12 0 -35 2 -49 2h-132c-14 0 -37 -2 -49 -2c-2 0 -9 19 13 24c38 7 54 14 54 72v237c-1 14 -8 19 -23 19c-99 1 -223 1 -323 1c-13 0 -19 -4 -22 -14v-243c0 -58 15 -65 54 -72c22 -5 15 -24 12 -24c-12 0 -35 2 -49 2h-131
c-14 0 -37 -2 -50 -2c-2 0 -9 19 13 24c38 7 54 14 54 72v512c0 58 -16 65 -54 72c-22 5 -15 24 -13 24c13 0 36 -2 50 -2h131c14 0 37 2 49 2c3 0 10 -19 -12 -24c-39 -7 -54 -14 -54 -72v-216c3 -10 9 -14 22 -14h323c15 0 22 6 23 19v211c0 58 -16 65 -54 72
c-22 5 -15 24 -13 24c12 0 35 -2 49 -2h132c14 0 37 2 49 2c2 0 10 -19 -12 -24c-39 -7 -55 -14 -55 -72v-512c0 -58 16 -65 55 -72zM515 -63c4 0 5 -1 5 -8c0 -44 -23 -123 -128 -123c-94 0 -126 77 -126 119c0 12 10 14 33 14c32 0 39 -4 39 -14c0 -35 15 -86 76 -86
c73 0 82 57 82 83c0 11 8 15 19 15z" />
    <glyph glyph-name="Hcircumflex" unicode="&#x124;" horiz-adv-x="793" 
d="M257 736c-16 0 -23 8 -22 18c119 39 95 118 162 118s43 -78 162 -118c1 -10 -6 -18 -23 -18c-25 0 -105 43 -139 84c-34 -42 -117 -84 -140 -84zM732 22c22 -5 14 -24 12 -24c-12 0 -35 2 -49 2h-132c-14 0 -37 -2 -49 -2c-2 0 -9 19 13 24c38 7 54 14 54 72v237
c-1 14 -8 19 -23 19c-99 1 -223 1 -323 1c-13 0 -19 -4 -22 -14v-243c0 -58 15 -65 54 -72c22 -5 15 -24 12 -24c-12 0 -35 2 -49 2h-131c-14 0 -37 -2 -50 -2c-2 0 -9 19 13 24c38 7 54 14 54 72v512c0 58 -16 65 -54 72c-22 5 -15 24 -13 24c13 0 36 -2 50 -2h131
c14 0 37 2 49 2c3 0 10 -19 -12 -24c-39 -7 -54 -14 -54 -72v-216c3 -10 9 -14 22 -14h323c15 0 22 6 23 19v211c0 58 -16 65 -54 72c-22 5 -15 24 -13 24c12 0 35 -2 49 -2h132c14 0 37 2 49 2c2 0 10 -19 -12 -24c-39 -7 -55 -14 -55 -72v-512c0 -58 16 -65 55 -72z" />
    <glyph glyph-name="uni1E24" unicode="&#x1e24;" horiz-adv-x="793" 
d="M732 22c22 -5 14 -24 12 -24c-12 0 -35 2 -49 2h-132c-14 0 -37 -2 -49 -2c-2 0 -9 19 13 24c38 7 54 14 54 72v237c-1 14 -8 19 -23 19c-99 1 -223 1 -323 1c-13 0 -19 -4 -22 -14v-243c0 -58 15 -65 54 -72c22 -5 15 -24 12 -24c-12 0 -35 2 -49 2h-131
c-14 0 -37 -2 -50 -2c-2 0 -9 19 13 24c38 7 54 14 54 72v512c0 58 -16 65 -54 72c-22 5 -15 24 -13 24c13 0 36 -2 50 -2h131c14 0 37 2 49 2c3 0 10 -19 -12 -24c-39 -7 -54 -14 -54 -72v-216c3 -10 9 -14 22 -14h323c15 0 22 6 23 19v211c0 58 -16 65 -54 72
c-22 5 -15 24 -13 24c12 0 35 -2 49 -2h132c14 0 37 2 49 2c2 0 10 -19 -12 -24c-39 -7 -55 -14 -55 -72v-512c0 -58 16 -65 55 -72zM407 -57c27 0 49 -19 48 -44c0 -27 -24 -52 -58 -52c-29 0 -50 20 -50 45c0 28 24 51 60 51z" />
    <glyph glyph-name="IJ" unicode="&#x132;" horiz-adv-x="881" 
d="M116 94v512c0 58 -16 65 -54 72c-22 5 -15 24 -13 24c13 0 36 -2 50 -2h131c14 0 37 2 49 2c3 0 10 -19 -12 -24c-39 -7 -54 -14 -54 -72v-512c0 -58 15 -65 54 -72c22 -5 15 -24 12 -24c-12 0 -35 2 -49 2h-131c-14 0 -37 -2 -50 -2c-2 0 -9 19 13 24c38 7 54 14 54 72z
M558 -15c-124 0 -194 75 -194 158c0 82 73 121 127 131c4 -3 14 -21 -4 -30c-23 -14 -43 -32 -43 -81c0 -75 44 -144 122 -144c84 0 116 54 116 173v414c0 58 -15 65 -54 72c-22 5 -15 24 -12 24c12 0 35 -2 49 -2h131c14 0 38 2 50 2c2 0 9 -19 -13 -24
c-38 -7 -54 -14 -54 -72v-356c0 -186 -82 -265 -221 -265z" />
    <glyph glyph-name="Iacute" unicode="&#xcd;" horiz-adv-x="329" 
d="M83 739c-15 0 -22 10 -17 19c123 56 105 110 144 113c44 3 65 -1 65 -17c0 -39 -149 -115 -192 -115zM116 94v512c0 58 -16 65 -54 72c-22 5 -15 24 -13 24c13 0 36 -2 50 -2h131c14 0 37 2 49 2c3 0 10 -19 -12 -24c-39 -7 -54 -14 -54 -72v-512c0 -58 15 -65 54 -72
c22 -5 15 -24 12 -24c-12 0 -35 2 -49 2h-131c-14 0 -37 -2 -50 -2c-2 0 -9 19 13 24c38 7 54 14 54 72z" />
    <glyph glyph-name="Ibreve" unicode="&#x12c;" horiz-adv-x="329" 
d="M68 874c33 0 39 -4 39 -14c0 -35 15 -86 76 -86c73 0 82 57 82 83c0 11 9 15 20 15c3 0 4 -1 4 -8c0 -44 -22 -123 -128 -123c-94 0 -126 77 -126 119c0 12 10 14 33 14zM116 94v512c0 58 -16 65 -54 72c-22 5 -15 24 -13 24c13 0 36 -2 50 -2h131c14 0 37 2 49 2
c3 0 10 -19 -12 -24c-39 -7 -54 -14 -54 -72v-512c0 -58 15 -65 54 -72c22 -5 15 -24 12 -24c-12 0 -35 2 -49 2h-131c-14 0 -37 -2 -50 -2c-2 0 -9 19 13 24c38 7 54 14 54 72z" />
    <glyph glyph-name="uni01CF" unicode="&#x1cf;" horiz-adv-x="329" 
d="M299 865c16 0 23 -8 22 -17c-113 -36 -91 -108 -155 -108c-63 0 -41 72 -154 108c-1 9 6 17 21 17c24 -1 101 -40 133 -77c33 38 111 76 133 77zM267 678c-39 -7 -54 -14 -54 -72v-512c0 -58 15 -65 54 -72c22 -5 15 -24 12 -24c-12 0 -35 2 -49 2h-131
c-14 0 -37 -2 -50 -2c-2 0 -9 19 13 24c38 7 54 14 54 72v512c0 58 -16 65 -54 72c-22 5 -15 24 -13 24c13 0 36 -2 50 -2h131c14 0 37 2 49 2c3 0 10 -19 -12 -24z" />
    <glyph glyph-name="Icircumflex" unicode="&#xce;" horiz-adv-x="329" 
d="M328 754c1 -10 -6 -18 -23 -18c-25 0 -105 43 -139 84c-34 -42 -117 -84 -140 -84c-16 0 -23 8 -22 18c119 39 95 118 162 118s43 -78 162 -118zM267 678c-39 -7 -54 -14 -54 -72v-512c0 -58 15 -65 54 -72c22 -5 15 -24 12 -24c-12 0 -35 2 -49 2h-131
c-14 0 -37 -2 -50 -2c-2 0 -9 19 13 24c38 7 54 14 54 72v512c0 58 -16 65 -54 72c-22 5 -15 24 -13 24c13 0 36 -2 50 -2h131c14 0 37 2 49 2c3 0 10 -19 -12 -24z" />
    <glyph glyph-name="Idieresis" unicode="&#xcf;" horiz-adv-x="329" 
d="M89 753c-28 0 -49 20 -49 44c0 29 24 52 60 52c26 0 48 -20 48 -44c0 -28 -24 -52 -59 -52zM239 753c-28 0 -49 20 -49 44c0 29 24 52 60 52c26 0 48 -20 48 -44c0 -28 -24 -52 -59 -52zM116 94v512c0 58 -16 65 -54 72c-22 5 -15 24 -13 24c13 0 36 -2 50 -2h131
c14 0 37 2 49 2c3 0 10 -19 -12 -24c-39 -7 -54 -14 -54 -72v-512c0 -58 15 -65 54 -72c22 -5 15 -24 12 -24c-12 0 -35 2 -49 2h-131c-14 0 -37 -2 -50 -2c-2 0 -9 19 13 24c38 7 54 14 54 72z" />
    <glyph glyph-name="Idotaccent" unicode="&#x130;" horiz-adv-x="329" 
d="M167 751c-34 0 -56 20 -55 46c0 30 27 51 64 51c34 0 55 -20 55 -46c0 -29 -27 -51 -64 -51zM116 94v512c0 58 -16 65 -54 72c-22 5 -15 24 -13 24c13 0 36 -2 50 -2h131c14 0 37 2 49 2c3 0 10 -19 -12 -24c-39 -7 -54 -14 -54 -72v-512c0 -58 15 -65 54 -72
c22 -5 15 -24 12 -24c-12 0 -35 2 -49 2h-131c-14 0 -37 -2 -50 -2c-2 0 -9 19 13 24c38 7 54 14 54 72z" />
    <glyph glyph-name="uni1ECA" unicode="&#x1eca;" horiz-adv-x="329" 
d="M116 94v512c0 58 -16 65 -54 72c-22 5 -15 24 -13 24c13 0 36 -2 50 -2h131c14 0 37 2 49 2c3 0 10 -19 -12 -24c-39 -7 -54 -14 -54 -72v-512c0 -58 15 -65 54 -72c22 -5 15 -24 12 -24c-12 0 -35 2 -49 2h-131c-14 0 -37 -2 -50 -2c-2 0 -9 19 13 24c38 7 54 14 54 72z
M166 -153c-29 0 -50 20 -50 45c0 28 24 51 60 51c27 0 49 -19 48 -44c0 -27 -24 -52 -58 -52z" />
    <glyph glyph-name="Igrave" unicode="&#xcc;" horiz-adv-x="329" 
d="M183 739c-43 0 -192 76 -193 115c0 16 22 20 66 17c39 -3 21 -57 143 -113c6 -9 -1 -19 -16 -19zM116 94v512c0 58 -16 65 -54 72c-22 5 -15 24 -13 24c13 0 36 -2 50 -2h131c14 0 37 2 49 2c3 0 10 -19 -12 -24c-39 -7 -54 -14 -54 -72v-512c0 -58 15 -65 54 -72
c22 -5 15 -24 12 -24c-12 0 -35 2 -49 2h-131c-14 0 -37 -2 -50 -2c-2 0 -9 19 13 24c38 7 54 14 54 72z" />
    <glyph glyph-name="Imacron" unicode="&#x12a;" horiz-adv-x="329" 
d="M299 772h-266c-18 0 -12 19 0 24h266c17 0 12 -19 0 -24zM116 94v512c0 58 -16 65 -54 72c-22 5 -15 24 -13 24c13 0 36 -2 50 -2h131c14 0 37 2 49 2c3 0 10 -19 -12 -24c-39 -7 -54 -14 -54 -72v-512c0 -58 15 -65 54 -72c22 -5 15 -24 12 -24c-12 0 -35 2 -49 2h-131
c-14 0 -37 -2 -50 -2c-2 0 -9 19 13 24c38 7 54 14 54 72z" />
    <glyph glyph-name="Iogonek" unicode="&#x12e;" horiz-adv-x="329" 
d="M267 22c22 -5 15 -24 12 -24c-12 0 -35 2 -49 2h-43c-52 -40 -63 -68 -63 -100c0 -29 15 -48 45 -48c29 0 48 18 48 55c6 7 19 5 19 -8c0 -41 -28 -82 -91 -82c-49 0 -84 20 -84 62c-1 54 45 93 100 121h-62c-14 0 -37 -2 -50 -2c-2 0 -9 19 13 24c38 7 54 14 54 72v512
c0 58 -16 65 -54 72c-22 5 -15 24 -13 24c13 0 36 -2 50 -2h131c14 0 37 2 49 2c3 0 10 -19 -12 -24c-39 -7 -54 -14 -54 -72v-512c0 -58 15 -65 54 -72z" />
    <glyph glyph-name="Itilde" unicode="&#x128;" horiz-adv-x="329" 
d="M31 751c-8 -13 -27 -2 -26 -1c26 84 80 104 160 73l41 -16c53 -21 74 -11 95 26c10 14 27 2 27 1c-27 -83 -77 -106 -159 -74l-43 17c-54 23 -77 9 -95 -26zM116 94v512c0 58 -16 65 -54 72c-22 5 -15 24 -13 24c13 0 36 -2 50 -2h131c14 0 37 2 49 2c3 0 10 -19 -12 -24
c-39 -7 -54 -14 -54 -72v-512c0 -58 15 -65 54 -72c22 -5 15 -24 12 -24c-12 0 -35 2 -49 2h-131c-14 0 -37 -2 -50 -2c-2 0 -9 19 13 24c38 7 54 14 54 72z" />
    <glyph glyph-name="Jcircumflex" unicode="&#x134;" horiz-adv-x="552" 
d="M220 736c-16 0 -23 8 -22 18c119 39 95 118 162 118s43 -78 162 -118c1 -10 -6 -18 -23 -18c-25 0 -105 43 -139 84c-34 -42 -117 -84 -140 -84zM517 702c2 0 9 -19 -13 -24c-38 -7 -54 -14 -54 -72v-356c0 -186 -82 -265 -221 -265c-124 0 -194 75 -194 158
c0 82 73 121 127 131c4 -3 14 -21 -4 -30c-23 -14 -43 -32 -43 -81c0 -75 44 -144 122 -144c84 0 116 54 116 173v414c0 58 -15 65 -54 72c-22 5 -15 24 -12 24c12 0 35 -2 49 -2h131c14 0 38 2 50 2z" />
    <glyph glyph-name="uni0136" unicode="&#x136;" horiz-adv-x="722" 
d="M681 22c22 -5 15 -24 13 -24c-12 0 -36 2 -49 2h-77c-28 0 -35 14 -42 36l-59 147c-47 121 -98 184 -229 184h-26v-273c0 -58 16 -65 54 -72c22 -5 15 -24 13 -24c-12 0 -36 2 -49 2h-131c-14 0 -37 -2 -50 -2c-2 0 -9 19 13 24c38 7 54 14 54 72v512c0 58 -16 65 -54 72
c-22 5 -15 24 -13 24c13 0 36 -2 50 -2h131c13 0 37 2 49 2c2 0 9 -19 -13 -24c-38 -7 -54 -14 -54 -72v-214h25c132 0 186 55 230 127l59 95c31 49 12 57 -26 64c-22 5 -15 24 -13 24c13 0 36 -2 50 -2h69c17 0 45 2 59 2c3 0 11 -19 -15 -24c-46 -7 -63 -15 -94 -64
l-65 -104c-34 -55 -74 -101 -139 -125c106 -19 167 -80 212 -190l43 -105c22 -53 36 -61 74 -68zM344 -59c29 0 43 -21 43 -49c0 -66 -42 -123 -81 -140c-10 -1 -10 12 -5 14c34 22 45 50 45 76c-1 26 -51 6 -51 50c0 23 17 49 49 49z" />
    <glyph glyph-name="Lacute" unicode="&#x139;" horiz-adv-x="620" 
d="M215 739c-15 0 -22 10 -17 19c123 56 105 110 144 113c44 3 65 -1 65 -17c0 -39 -149 -115 -192 -115zM339 0h-240c-14 0 -37 -2 -50 -2c-2 0 -9 19 13 24c38 7 54 14 54 72v512c0 58 -16 65 -54 72c-22 5 -15 24 -13 24c13 0 36 -2 50 -2h133c16 0 42 2 56 2
c3 0 11 -19 -14 -24c-44 -7 -62 -14 -62 -72v-554c0 -22 11 -26 27 -26c146 -2 225 4 253 32c18 19 29 60 47 175c6 36 42 27 43 22c-12 -83 -23 -181 -21 -244c1 -16 -5 -22 -15 -22c-16 0 -64 11 -207 11z" />
    <glyph glyph-name="Lcaron" unicode="&#x13d;" horiz-adv-x="620" 
d="M339 0h-240c-14 0 -37 -2 -50 -2c-2 0 -9 19 13 24c38 7 54 14 54 72v512c0 58 -16 65 -54 72c-22 5 -15 24 -13 24c13 0 36 -2 50 -2h133c16 0 42 2 56 2c3 0 11 -19 -14 -24c-44 -7 -62 -14 -62 -72v-554c0 -22 11 -26 27 -26c146 -2 225 4 253 32c18 19 29 60 47 175
c6 36 42 27 43 22c-12 -83 -23 -181 -21 -244c1 -16 -5 -22 -15 -22c-16 0 -64 11 -207 11zM543 509c0 -14 -19 -14 -19 0c0 92 -26 126 -26 161c0 23 6 30 35 30s36 -8 36 -30c0 -36 -26 -69 -26 -161z" />
    <glyph glyph-name="uni013B" unicode="&#x13b;" horiz-adv-x="620" 
d="M339 0h-240c-14 0 -37 -2 -50 -2c-2 0 -9 19 13 24c38 7 54 14 54 72v512c0 58 -16 65 -54 72c-22 5 -15 24 -13 24c13 0 36 -2 50 -2h133c16 0 42 2 56 2c3 0 11 -19 -14 -24c-44 -7 -62 -14 -62 -72v-554c0 -22 11 -26 27 -26c146 -2 225 4 253 32c18 19 29 60 47 175
c6 36 42 27 43 22c-12 -83 -23 -181 -21 -244c1 -16 -5 -22 -15 -22c-16 0 -64 11 -207 11zM261 -248c-10 -1 -10 12 -5 14c34 22 45 50 45 76c-1 26 -51 6 -51 50c0 23 17 49 49 49c29 0 43 -21 43 -49c0 -66 -42 -123 -81 -140z" />
    <glyph glyph-name="Ldot" unicode="&#x13f;" horiz-adv-x="577" 
d="M339 0h-240c-14 0 -37 -2 -50 -2c-2 0 -9 19 13 24c38 7 54 14 54 72v512c0 58 -16 65 -54 72c-22 5 -15 24 -13 24c13 0 36 -2 50 -2h133c16 0 42 2 56 2c3 0 11 -19 -14 -24c-44 -7 -62 -14 -62 -72v-554c0 -22 11 -26 27 -26c146 -2 225 4 253 32c18 19 29 60 47 175
c6 36 42 27 43 22c-12 -83 -23 -181 -21 -244c1 -16 -5 -22 -15 -22c-16 0 -64 11 -207 11zM440 342c-33 0 -56 19 -55 48c0 30 23 62 72 62c28 0 49 -20 49 -51c0 -35 -33 -59 -66 -59z" />
    <glyph glyph-name="uni1E36" unicode="&#x1e36;" horiz-adv-x="620" 
d="M339 0h-240c-14 0 -37 -2 -50 -2c-2 0 -9 19 13 24c38 7 54 14 54 72v512c0 58 -16 65 -54 72c-22 5 -15 24 -13 24c13 0 36 -2 50 -2h133c16 0 42 2 56 2c3 0 11 -19 -14 -24c-44 -7 -62 -14 -62 -72v-554c0 -22 11 -26 27 -26c146 -2 225 4 253 32c18 19 29 60 47 175
c6 36 42 27 43 22c-12 -83 -23 -181 -21 -244c1 -16 -5 -22 -15 -22c-16 0 -64 11 -207 11zM298 -153c-29 0 -50 20 -50 45c0 28 24 51 60 51c27 0 49 -19 48 -44c0 -27 -24 -52 -58 -52z" />
    <glyph glyph-name="uni1E38" unicode="&#x1e38;" horiz-adv-x="620" 
d="M432 772h-266c-18 0 -12 19 0 24h266c17 0 12 -19 0 -24zM339 0h-240c-14 0 -37 -2 -50 -2c-2 0 -9 19 13 24c38 7 54 14 54 72v512c0 58 -16 65 -54 72c-22 5 -15 24 -13 24c13 0 36 -2 50 -2h133c16 0 42 2 56 2c3 0 11 -19 -14 -24c-44 -7 -62 -14 -62 -72v-554
c0 -22 11 -26 27 -26c146 -2 225 4 253 32c18 19 29 60 47 175c6 36 42 27 43 22c-12 -83 -23 -181 -21 -244c1 -16 -5 -22 -15 -22c-16 0 -64 11 -207 11zM298 -153c-29 0 -50 20 -50 45c0 28 24 51 60 51c27 0 49 -19 48 -44c0 -27 -24 -52 -58 -52z" />
    <glyph glyph-name="uni1E3A" unicode="&#x1e3a;" horiz-adv-x="620" 
d="M339 0h-240c-14 0 -37 -2 -50 -2c-2 0 -9 19 13 24c38 7 54 14 54 72v512c0 58 -16 65 -54 72c-22 5 -15 24 -13 24c13 0 36 -2 50 -2h133c16 0 42 2 56 2c3 0 11 -19 -14 -24c-44 -7 -62 -14 -62 -72v-554c0 -22 11 -26 27 -26c146 -2 225 4 253 32c18 19 29 60 47 175
c6 36 42 27 43 22c-12 -83 -23 -181 -21 -244c1 -16 -5 -22 -15 -22c-16 0 -64 11 -207 11zM431 -118h-266c-17 0 -12 20 0 25h266c18 0 12 -19 0 -25z" />
    <glyph glyph-name="Lslash" unicode="&#x141;" horiz-adv-x="620" 
d="M582 255c-12 -83 -23 -181 -21 -244c1 -16 -5 -22 -15 -22c-16 0 -64 11 -207 11h-240c-14 0 -37 -2 -50 -2c-2 0 -9 19 13 24c38 7 54 14 54 72v209l-78 -46c-21 -12 -32 12 -13 22l91 53v274c0 58 -16 65 -54 72c-22 5 -15 24 -13 24c13 0 36 -2 50 -2h133
c16 0 42 2 56 2c3 0 11 -19 -14 -24c-44 -7 -62 -14 -62 -72v-217l79 46c20 11 33 -11 13 -22l-92 -54v-307c0 -22 11 -26 27 -26c146 -2 225 4 253 32c18 19 29 60 47 175c6 36 42 27 43 22z" />
    <glyph glyph-name="uni1E42" unicode="&#x1e42;" horiz-adv-x="882" 
d="M817 22c22 -5 15 -24 12 -24c-12 0 -35 2 -49 2h-134c-15 0 -41 -2 -55 -2c-2 0 -10 19 14 24c43 7 61 14 61 72v494c0 3 -2 5 -4 5s-4 -3 -5 -7l-241 -525c-5 -12 -10 -17 -19 -17c-8 0 -15 4 -19 15l-224 518c-2 5 -4 6 -6 6s-4 -1 -4 -5l1 -484c0 -58 18 -65 63 -72
c25 -5 17 -24 14 -24c-14 0 -40 2 -56 2h-66c-14 0 -37 -2 -50 -2c-2 0 -9 19 13 24c38 7 54 14 55 72l2 555c-15 19 -30 24 -56 29c-22 5 -15 24 -12 24c12 0 35 -2 49 -2h86c10 0 16 -3 20 -13l222 -510c1 -4 3 -6 6 -6s5 2 6 6l230 510c4 9 7 13 19 13h91c14 0 38 2 51 2
c2 0 9 -19 -13 -24c-40 -7 -57 -14 -57 -72v-512c0 -58 16 -65 55 -72zM136 624l6 -13zM413 -57c27 0 49 -19 48 -44c0 -27 -24 -52 -58 -52c-29 0 -50 20 -50 45c0 28 24 51 60 51z" />
    <glyph glyph-name="Nacute" unicode="&#x143;" horiz-adv-x="759" 
d="M300 739c-15 0 -22 10 -17 19c123 56 105 110 144 113c44 3 65 -1 65 -17c0 -39 -149 -115 -192 -115zM733 702c2 0 9 -19 -12 -24c-39 -7 -55 -14 -55 -72v-600c0 -3 -4 -9 -15 -9c-7 -1 -13 3 -18 9l-479 615c-2 3 -5 4 -7 4s-3 -2 -3 -5v-526c0 -58 16 -65 54 -73
c22 -5 15 -24 13 -24l-50 3h-61l-50 -3c-2 0 -9 19 13 24c38 8 54 15 54 73l1 553c-14 21 -28 26 -54 32c-21 5 -14 24 -12 24c12 0 34 -2 48 -3h97c15 0 22 -4 28 -12l402 -529c3 -4 6 -6 8 -6c3 0 5 2 5 7v446c0 58 -16 65 -55 72c-22 5 -15 24 -12 24c12 0 35 -2 49 -2
h62c14 0 37 2 49 2zM136 610v-1v1z" />
    <glyph glyph-name="Ncaron" unicode="&#x147;" horiz-adv-x="759" 
d="M383 740c-63 0 -41 72 -154 108c-1 9 6 17 21 17c24 -1 101 -40 133 -77c33 38 111 76 133 77c16 0 23 -8 22 -17c-113 -36 -91 -108 -155 -108zM733 702c2 0 9 -19 -12 -24c-39 -7 -55 -14 -55 -72v-600c0 -3 -4 -9 -15 -9c-7 -1 -13 3 -18 9l-479 615c-2 3 -5 4 -7 4
s-3 -2 -3 -5v-526c0 -58 16 -65 54 -73c22 -5 15 -24 13 -24l-50 3h-61l-50 -3c-2 0 -9 19 13 24c38 8 54 15 54 73l1 553c-14 21 -28 26 -54 32c-21 5 -14 24 -12 24c12 0 34 -2 48 -3h97c15 0 22 -4 28 -12l402 -529c3 -4 6 -6 8 -6c3 0 5 2 5 7v446c0 58 -16 65 -55 72
c-22 5 -15 24 -12 24c12 0 35 -2 49 -2h62c14 0 37 2 49 2zM136 610v-1v1z" />
    <glyph glyph-name="uni0145" unicode="&#x145;" horiz-adv-x="759" 
d="M733 702c2 0 9 -19 -12 -24c-39 -7 -55 -14 -55 -72v-600c0 -3 -4 -9 -15 -9c-7 -1 -13 3 -18 9l-479 615c-2 3 -5 4 -7 4s-3 -2 -3 -5v-526c0 -58 16 -65 54 -73c22 -5 15 -24 13 -24l-50 3h-61l-50 -3c-2 0 -9 19 13 24c38 8 54 15 54 73l1 553c-14 21 -28 26 -54 32
c-21 5 -14 24 -12 24c12 0 34 -2 48 -3h97c15 0 22 -4 28 -12l402 -529c3 -4 6 -6 8 -6c3 0 5 2 5 7v446c0 58 -16 65 -55 72c-22 5 -15 24 -12 24c12 0 35 -2 49 -2h62c14 0 37 2 49 2zM136 610v-1v1zM383 -59c29 0 43 -21 43 -49c0 -66 -42 -123 -81 -140
c-10 -1 -10 12 -5 14c34 22 45 50 45 76c-1 26 -51 6 -51 50c0 23 17 49 49 49z" />
    <glyph glyph-name="uni1E44" unicode="&#x1e44;" horiz-adv-x="759" 
d="M384 751c-34 0 -56 20 -55 46c0 30 27 51 64 51c34 0 55 -20 55 -46c0 -29 -27 -51 -64 -51zM733 702c2 0 9 -19 -12 -24c-39 -7 -55 -14 -55 -72v-600c0 -3 -4 -9 -15 -9c-7 -1 -13 3 -18 9l-479 615c-2 3 -5 4 -7 4s-3 -2 -3 -5v-526c0 -58 16 -65 54 -73
c22 -5 15 -24 13 -24l-50 3h-61l-50 -3c-2 0 -9 19 13 24c38 8 54 15 54 73l1 553c-14 21 -28 26 -54 32c-21 5 -14 24 -12 24c12 0 34 -2 48 -3h97c15 0 22 -4 28 -12l402 -529c3 -4 6 -6 8 -6c3 0 5 2 5 7v446c0 58 -16 65 -55 72c-22 5 -15 24 -12 24c12 0 35 -2 49 -2
h62c14 0 37 2 49 2zM136 610v-1v1z" />
    <glyph glyph-name="uni1E46" unicode="&#x1e46;" horiz-adv-x="759" 
d="M733 702c2 0 9 -19 -12 -24c-39 -7 -55 -14 -55 -72v-600c0 -3 -4 -9 -15 -9c-7 -1 -13 3 -18 9l-479 615c-2 3 -5 4 -7 4s-3 -2 -3 -5v-526c0 -58 16 -65 54 -73c22 -5 15 -24 13 -24l-50 3h-61l-50 -3c-2 0 -9 19 13 24c38 8 54 15 54 73l1 553c-14 21 -28 26 -54 32
c-21 5 -14 24 -12 24c12 0 34 -2 48 -3h97c15 0 22 -4 28 -12l402 -529c3 -4 6 -6 8 -6c3 0 5 2 5 7v446c0 58 -16 65 -55 72c-22 5 -15 24 -12 24c12 0 35 -2 49 -2h62c14 0 37 2 49 2zM136 610v-1v1zM392 -57c27 0 49 -19 48 -44c0 -27 -24 -52 -58 -52
c-29 0 -50 20 -50 45c0 28 24 51 60 51z" />
    <glyph glyph-name="Eng" unicode="&#x14a;" horiz-adv-x="756" 
d="M720 702c2 0 9 -19 -12 -24c-39 -7 -55 -14 -55 -72v-606c0 -148 -39 -215 -138 -215c-37 0 -71 6 -100 21c-27 13 27 74 47 58c20 -17 44 -28 74 -28c70 0 91 53 91 164v55l-486 566c-2 3 -5 4 -7 4s-3 -2 -3 -5v-526c0 -58 16 -65 54 -73c22 -5 15 -24 13 -24l-50 3
h-61l-50 -3c-2 0 -9 19 13 24c38 8 54 15 54 73l1 553c-14 21 -28 26 -54 32c-21 5 -14 24 -12 24c12 0 34 -2 48 -3h97c15 0 21 -5 28 -12l402 -484c4 -4 6 -6 8 -6c3 0 5 2 5 7v401c0 58 -16 65 -55 72c-22 5 -15 24 -12 24c12 0 35 -2 49 -2h62c14 0 37 2 49 2zM123 610
v-1v1z" />
    <glyph glyph-name="uni019D" unicode="&#x19d;" horiz-adv-x="756" 
d="M720 702c2 0 9 -19 -12 -24c-39 -7 -55 -14 -55 -72v-601c0 -2 -4 -8 -16 -8c-7 -1 -12 3 -17 9l-479 615c-2 3 -5 4 -7 4s-3 -2 -3 -5v-617c0 -148 -36 -218 -129 -218c-37 0 -71 6 -100 21c-27 13 27 74 47 58c20 -17 41 -28 68 -28c69 0 87 56 87 167v58l1 586
c-14 21 -28 26 -54 32c-21 5 -14 24 -12 24c12 0 34 -2 48 -3h97c15 0 22 -4 28 -12l402 -529c3 -4 6 -6 8 -6c3 0 5 2 5 7v446c0 58 -16 65 -55 72c-22 5 -15 24 -12 24c12 0 35 -2 49 -2h62c14 0 37 2 49 2zM123 610v-1v1z" />
    <glyph glyph-name="uni1E48" unicode="&#x1e48;" horiz-adv-x="759" 
d="M733 702c2 0 9 -19 -12 -24c-39 -7 -55 -14 -55 -72v-600c0 -3 -4 -9 -15 -9c-7 -1 -13 3 -18 9l-479 615c-2 3 -5 4 -7 4s-3 -2 -3 -5v-526c0 -58 16 -65 54 -73c22 -5 15 -24 13 -24l-50 3h-61l-50 -3c-2 0 -9 19 13 24c38 8 54 15 54 73l1 553c-14 21 -28 26 -54 32
c-21 5 -14 24 -12 24c12 0 34 -2 48 -3h97c15 0 22 -4 28 -12l402 -529c3 -4 6 -6 8 -6c3 0 5 2 5 7v446c0 58 -16 65 -55 72c-22 5 -15 24 -12 24c12 0 35 -2 49 -2h62c14 0 37 2 49 2zM136 610v-1v1zM248 -93h266c18 0 12 -19 0 -25h-266c-17 0 -12 20 0 25z" />
    <glyph glyph-name="Ntilde" unicode="&#xd1;" horiz-adv-x="759" 
d="M248 751c-8 -13 -27 -2 -26 -1c26 84 80 104 160 73l41 -16c53 -21 74 -11 95 26c10 14 27 2 27 1c-27 -83 -77 -106 -159 -74l-43 17c-54 23 -77 9 -95 -26zM733 702c2 0 9 -19 -12 -24c-39 -7 -55 -14 -55 -72v-600c0 -3 -4 -9 -15 -9c-7 -1 -13 3 -18 9l-479 615
c-2 3 -5 4 -7 4s-3 -2 -3 -5v-526c0 -58 16 -65 54 -73c22 -5 15 -24 13 -24l-50 3h-61l-50 -3c-2 0 -9 19 13 24c38 8 54 15 54 73l1 553c-14 21 -28 26 -54 32c-21 5 -14 24 -12 24c12 0 34 -2 48 -3h97c15 0 22 -4 28 -12l402 -529c3 -4 6 -6 8 -6c3 0 5 2 5 7v446
c0 58 -16 65 -55 72c-22 5 -15 24 -12 24c12 0 35 -2 49 -2h62c14 0 37 2 49 2zM136 610v-1v1z" />
    <glyph glyph-name="Oacute" unicode="&#xd3;" horiz-adv-x="820" 
d="M327 739c-15 0 -22 10 -17 19c123 56 105 110 144 113c44 3 65 -1 65 -17c0 -39 -149 -115 -192 -115zM385 -15c-201 0 -344 147 -344 352c0 210 171 376 388 376c205 0 350 -149 350 -349c0 -223 -162 -379 -394 -379zM433 21c150 0 248 106 248 280
c0 169 -127 377 -298 377c-141 0 -245 -117 -245 -273c0 -171 126 -384 295 -384z" />
    <glyph glyph-name="Obreve" unicode="&#x14e;" horiz-adv-x="820" 
d="M313 874c33 0 39 -4 39 -14c0 -35 15 -86 76 -86c73 0 82 57 82 83c0 11 9 15 20 15c3 0 4 -1 4 -8c0 -44 -22 -123 -128 -123c-94 0 -126 77 -126 119c0 12 10 14 33 14zM385 -15c-201 0 -344 147 -344 352c0 210 171 376 388 376c205 0 350 -149 350 -349
c0 -223 -162 -379 -394 -379zM433 21c150 0 248 106 248 280c0 169 -127 377 -298 377c-141 0 -245 -117 -245 -273c0 -171 126 -384 295 -384z" />
    <glyph glyph-name="uni01D1" unicode="&#x1d1;" horiz-adv-x="820" 
d="M410 740c-63 0 -41 72 -154 108c-1 9 6 17 21 17c24 -1 101 -40 133 -77c33 38 111 76 133 77c16 0 23 -8 22 -17c-113 -36 -91 -108 -155 -108zM429 713c205 0 350 -149 350 -349c0 -223 -162 -379 -394 -379c-201 0 -344 147 -344 352c0 210 171 376 388 376zM433 21
c150 0 248 106 248 280c0 169 -127 377 -298 377c-141 0 -245 -117 -245 -273c0 -171 126 -384 295 -384z" />
    <glyph glyph-name="Ocircumflex" unicode="&#xd4;" horiz-adv-x="820" 
d="M271 736c-16 0 -23 8 -22 18c119 39 95 118 162 118s43 -78 162 -118c1 -10 -6 -18 -23 -18c-25 0 -105 43 -139 84c-34 -42 -117 -84 -140 -84zM429 713c205 0 350 -149 350 -349c0 -223 -162 -379 -394 -379c-201 0 -344 147 -344 352c0 210 171 376 388 376zM433 21
c150 0 248 106 248 280c0 169 -127 377 -298 377c-141 0 -245 -117 -245 -273c0 -171 126 -384 295 -384z" />
    <glyph glyph-name="uni1ED8" unicode="&#x1ed8;" horiz-adv-x="820" 
d="M271 736c-16 0 -23 8 -22 18c119 39 95 118 162 118s43 -78 162 -118c1 -10 -6 -18 -23 -18c-25 0 -105 43 -139 84c-34 -42 -117 -84 -140 -84zM429 713c205 0 350 -149 350 -349c0 -223 -162 -379 -394 -379c-201 0 -344 147 -344 352c0 210 171 376 388 376zM433 21
c150 0 248 106 248 280c0 169 -127 377 -298 377c-141 0 -245 -117 -245 -273c0 -171 126 -384 295 -384zM420 -57c27 0 49 -19 48 -44c0 -27 -24 -52 -58 -52c-29 0 -50 20 -50 45c0 28 24 51 60 51z" />
    <glyph glyph-name="Odieresis" unicode="&#xd6;" horiz-adv-x="820" 
d="M334 753c-28 0 -49 20 -49 44c0 29 24 52 60 52c26 0 48 -20 48 -44c0 -28 -24 -52 -59 -52zM484 753c-28 0 -49 20 -49 44c0 29 24 52 60 52c26 0 48 -20 48 -44c0 -28 -24 -52 -59 -52zM385 -15c-201 0 -344 147 -344 352c0 210 171 376 388 376
c205 0 350 -149 350 -349c0 -223 -162 -379 -394 -379zM433 21c150 0 248 106 248 280c0 169 -127 377 -298 377c-141 0 -245 -117 -245 -273c0 -171 126 -384 295 -384z" />
    <glyph glyph-name="uni1ECC" unicode="&#x1ecc;" horiz-adv-x="820" 
d="M385 -15c-201 0 -344 147 -344 352c0 210 171 376 388 376c205 0 350 -149 350 -349c0 -223 -162 -379 -394 -379zM433 21c150 0 248 106 248 280c0 169 -127 377 -298 377c-141 0 -245 -117 -245 -273c0 -171 126 -384 295 -384zM410 -153c-29 0 -50 20 -50 45
c0 28 24 51 60 51c27 0 49 -19 48 -44c0 -27 -24 -52 -58 -52z" />
    <glyph glyph-name="Ograve" unicode="&#xd2;" horiz-adv-x="820" 
d="M427 739c-43 0 -192 76 -193 115c0 16 22 20 66 17c39 -3 21 -57 143 -113c6 -9 -1 -19 -16 -19zM385 -15c-201 0 -344 147 -344 352c0 210 171 376 388 376c205 0 350 -149 350 -349c0 -223 -162 -379 -394 -379zM433 21c150 0 248 106 248 280c0 169 -127 377 -298 377
c-141 0 -245 -117 -245 -273c0 -171 126 -384 295 -384z" />
    <glyph glyph-name="Ohungarumlaut" unicode="&#x150;" horiz-adv-x="820" 
d="M284 737c-8 0 -13 5 -12 15c113 74 79 140 119 143c36 4 58 3 58 -15c0 -41 -136 -142 -165 -143zM438 737c-8 0 -13 5 -12 15c113 74 79 140 119 143c36 4 58 3 58 -15c0 -41 -136 -142 -165 -143zM385 -15c-201 0 -344 147 -344 352c0 210 171 376 388 376
c205 0 350 -149 350 -349c0 -223 -162 -379 -394 -379zM433 21c150 0 248 106 248 280c0 169 -127 377 -298 377c-141 0 -245 -117 -245 -273c0 -171 126 -384 295 -384z" />
    <glyph glyph-name="Omacron" unicode="&#x14c;" horiz-adv-x="820" 
d="M544 772h-266c-18 0 -12 19 0 24h266c17 0 12 -19 0 -24zM385 -15c-201 0 -344 147 -344 352c0 210 171 376 388 376c205 0 350 -149 350 -349c0 -223 -162 -379 -394 -379zM433 21c150 0 248 106 248 280c0 169 -127 377 -298 377c-141 0 -245 -117 -245 -273
c0 -171 126 -384 295 -384z" />
    <glyph glyph-name="uni01EA" unicode="&#x1ea;" horiz-adv-x="820" 
d="M606 43c-45 -37 -55 -64 -55 -94c0 -29 15 -48 45 -48c29 0 48 18 48 55c6 7 19 5 19 -8c0 -41 -28 -82 -91 -82c-49 0 -84 20 -84 62c-1 31 14 56 36 78c-42 -14 -89 -21 -139 -21c-201 0 -344 147 -344 352c0 210 171 376 388 376c205 0 350 -149 350 -349
c0 -142 -66 -257 -173 -321zM138 405c0 -171 126 -384 295 -384c150 0 248 106 248 280c0 169 -127 377 -298 377c-141 0 -245 -117 -245 -273z" />
    <glyph glyph-name="Oslash" unicode="&#xd8;" horiz-adv-x="820" 
d="M691 755l-64 -98c94 -61 152 -167 152 -293c0 -223 -162 -379 -394 -379c-65 0 -124 15 -173 43l-65 -98c-10 -15 -30 -3 -19 13l64 97c-93 60 -151 167 -151 297c0 210 171 376 388 376c67 0 127 -16 178 -44l65 98c11 17 30 5 19 -12zM138 405c0 -97 41 -208 107 -285
l314 476c-48 50 -109 82 -176 82c-141 0 -245 -117 -245 -273zM433 21c150 0 248 106 248 280c0 95 -40 203 -106 278l-314 -477c47 -49 106 -81 172 -81z" />
    <glyph glyph-name="Oslashacute" unicode="&#x1fe;" horiz-adv-x="820" 
d="M321 739c-15 0 -22 10 -17 19c123 56 105 110 144 113c44 3 65 -1 65 -17c0 -39 -149 -115 -192 -115zM691 755l-64 -98c94 -61 152 -167 152 -293c0 -223 -162 -379 -394 -379c-65 0 -124 15 -173 43l-65 -98c-10 -15 -30 -3 -19 13l64 97c-93 60 -151 167 -151 297
c0 210 171 376 388 376c67 0 127 -16 178 -44l65 98c11 17 30 5 19 -12zM138 405c0 -97 41 -208 107 -285l314 476c-48 50 -109 82 -176 82c-141 0 -245 -117 -245 -273zM433 21c150 0 248 106 248 280c0 95 -40 203 -106 278l-314 -477c47 -49 106 -81 172 -81z" />
    <glyph glyph-name="Otilde" unicode="&#xd5;" horiz-adv-x="820" 
d="M275 751c-8 -13 -27 -2 -26 -1c26 84 80 104 160 73l41 -16c53 -21 74 -11 95 26c10 14 27 2 27 1c-27 -83 -77 -106 -159 -74l-43 17c-54 23 -77 9 -95 -26zM385 -15c-201 0 -344 147 -344 352c0 210 171 376 388 376c205 0 350 -149 350 -349
c0 -223 -162 -379 -394 -379zM433 21c150 0 248 106 248 280c0 169 -127 377 -298 377c-141 0 -245 -117 -245 -273c0 -171 126 -384 295 -384z" />
    <glyph glyph-name="Racute" unicode="&#x154;" horiz-adv-x="678" 
d="M249 739c-15 0 -22 10 -17 19c123 56 105 110 144 113c44 3 65 -1 65 -17c0 -39 -149 -115 -192 -115zM657 22c20 -5 14 -24 11 -24c-11 0 -33 2 -46 2h-88c-13 0 -23 10 -26 26c-7 28 -29 118 -38 157c-23 98 -71 115 -133 119c-23 -1 -48 -1 -75 0c-8 0 -13 22 10 25
c166 4 241 62 241 179c0 109 -66 169 -195 171l-73 1c-24 0 -32 -8 -32 -36v-548c0 -58 15 -65 54 -72c22 -5 15 -24 12 -24c-12 0 -35 2 -49 2h-131c-14 0 -37 -2 -50 -2c-2 0 -9 19 13 24c38 7 54 14 54 72v512c0 58 -16 65 -54 72c-22 5 -15 24 -13 24c12 0 36 -2 49 -2
c96 1 168 3 239 3c189 0 284 -69 284 -194c0 -102 -64 -169 -186 -195c56 -8 108 -34 133 -130c6 -24 15 -59 24 -91c14 -57 28 -64 65 -71z" />
    <glyph glyph-name="Rcaron" unicode="&#x158;" horiz-adv-x="678" 
d="M332 740c-63 0 -41 72 -154 108c-1 9 6 17 21 17c24 -1 101 -40 133 -77c33 38 111 76 133 77c16 0 23 -8 22 -17c-113 -36 -91 -108 -155 -108zM657 22c20 -5 14 -24 11 -24c-11 0 -33 2 -46 2h-88c-13 0 -23 10 -26 26c-7 28 -29 118 -38 157c-23 98 -71 115 -133 119
c-23 -1 -48 -1 -75 0c-8 0 -13 22 10 25c166 4 241 62 241 179c0 109 -66 169 -195 171l-73 1c-24 0 -32 -8 -32 -36v-548c0 -58 15 -65 54 -72c22 -5 15 -24 12 -24c-12 0 -35 2 -49 2h-131c-14 0 -37 -2 -50 -2c-2 0 -9 19 13 24c38 7 54 14 54 72v512c0 58 -16 65 -54 72
c-22 5 -15 24 -13 24c12 0 36 -2 49 -2c96 1 168 3 239 3c189 0 284 -69 284 -194c0 -102 -64 -169 -186 -195c56 -8 108 -34 133 -130c6 -24 15 -59 24 -91c14 -57 28 -64 65 -71z" />
    <glyph glyph-name="uni0156" unicode="&#x156;" horiz-adv-x="678" 
d="M657 22c20 -5 14 -24 11 -24c-11 0 -33 2 -46 2h-88c-13 0 -23 10 -26 26c-7 28 -29 118 -38 157c-23 98 -71 115 -133 119c-23 -1 -48 -1 -75 0c-8 0 -13 22 10 25c166 4 241 62 241 179c0 109 -66 169 -195 171l-73 1c-24 0 -32 -8 -32 -36v-548c0 -58 15 -65 54 -72
c22 -5 15 -24 12 -24c-12 0 -35 2 -49 2h-131c-14 0 -37 -2 -50 -2c-2 0 -9 19 13 24c38 7 54 14 54 72v512c0 58 -16 65 -54 72c-22 5 -15 24 -13 24c12 0 36 -2 49 -2c96 1 168 3 239 3c189 0 284 -69 284 -194c0 -102 -64 -169 -186 -195c56 -8 108 -34 133 -130
c6 -24 15 -59 24 -91c14 -57 28 -64 65 -71zM352 -59c29 0 43 -21 43 -49c0 -66 -42 -123 -81 -140c-10 -1 -10 12 -5 14c34 22 45 50 45 76c-1 26 -51 6 -51 50c0 23 17 49 49 49z" />
    <glyph glyph-name="uni1E5A" unicode="&#x1e5a;" horiz-adv-x="678" 
d="M657 22c20 -5 14 -24 11 -24c-11 0 -33 2 -46 2h-88c-13 0 -23 10 -26 26c-7 28 -29 118 -38 157c-23 98 -71 115 -133 119c-23 -1 -48 -1 -75 0c-8 0 -13 22 10 25c166 4 241 62 241 179c0 109 -66 169 -195 171l-73 1c-24 0 -32 -8 -32 -36v-548c0 -58 15 -65 54 -72
c22 -5 15 -24 12 -24c-12 0 -35 2 -49 2h-131c-14 0 -37 -2 -50 -2c-2 0 -9 19 13 24c38 7 54 14 54 72v512c0 58 -16 65 -54 72c-22 5 -15 24 -13 24c12 0 36 -2 49 -2c96 1 168 3 239 3c189 0 284 -69 284 -194c0 -102 -64 -169 -186 -195c56 -8 108 -34 133 -130
c6 -24 15 -59 24 -91c14 -57 28 -64 65 -71zM361 -57c27 0 49 -19 48 -44c0 -27 -24 -52 -58 -52c-29 0 -50 20 -50 45c0 28 24 51 60 51z" />
    <glyph glyph-name="uni1E5C" unicode="&#x1e5c;" horiz-adv-x="678" 
d="M466 772h-266c-18 0 -12 19 0 24h266c17 0 12 -19 0 -24zM657 22c20 -5 14 -24 11 -24c-11 0 -33 2 -46 2h-88c-13 0 -23 10 -26 26c-7 28 -29 118 -38 157c-23 98 -71 115 -133 119c-23 -1 -48 -1 -75 0c-8 0 -13 22 10 25c166 4 241 62 241 179c0 109 -66 169 -195 171
l-73 1c-24 0 -32 -8 -32 -36v-548c0 -58 15 -65 54 -72c22 -5 15 -24 12 -24c-12 0 -35 2 -49 2h-131c-14 0 -37 -2 -50 -2c-2 0 -9 19 13 24c38 7 54 14 54 72v512c0 58 -16 65 -54 72c-22 5 -15 24 -13 24c12 0 36 -2 49 -2c96 1 168 3 239 3c189 0 284 -69 284 -194
c0 -102 -64 -169 -186 -195c56 -8 108 -34 133 -130c6 -24 15 -59 24 -91c14 -57 28 -64 65 -71zM361 -57c27 0 49 -19 48 -44c0 -27 -24 -52 -58 -52c-29 0 -50 20 -50 45c0 28 24 51 60 51z" />
    <glyph glyph-name="uni1E5E" unicode="&#x1e5e;" horiz-adv-x="678" 
d="M657 22c20 -5 14 -24 11 -24c-11 0 -33 2 -46 2h-88c-13 0 -23 10 -26 26c-7 28 -29 118 -38 157c-23 98 -71 115 -133 119c-23 -1 -48 -1 -75 0c-8 0 -13 22 10 25c166 4 241 62 241 179c0 109 -66 169 -195 171l-73 1c-24 0 -32 -8 -32 -36v-548c0 -58 15 -65 54 -72
c22 -5 15 -24 12 -24c-12 0 -35 2 -49 2h-131c-14 0 -37 -2 -50 -2c-2 0 -9 19 13 24c38 7 54 14 54 72v512c0 58 -16 65 -54 72c-22 5 -15 24 -13 24c12 0 36 -2 49 -2c96 1 168 3 239 3c189 0 284 -69 284 -194c0 -102 -64 -169 -186 -195c56 -8 108 -34 133 -130
c6 -24 15 -59 24 -91c14 -57 28 -64 65 -71zM218 -93h266c18 0 12 -19 0 -25h-266c-17 0 -12 20 0 25z" />
    <glyph glyph-name="Sacute" unicode="&#x15a;" horiz-adv-x="616" 
d="M235 739c-15 0 -22 10 -17 19c123 56 105 110 144 113c44 3 65 -1 65 -17c0 -39 -149 -115 -192 -115zM66 125l38 155c0 2 21 6 20 -22c-18 -184 44 -243 183 -243c72 0 169 31 169 138c0 88 -84 137 -178 184c-115 61 -205 113 -205 203c0 95 89 174 252 174
c106 0 225 -49 207 -127l-36 -150c0 -1 -24 -6 -22 22c22 170 -28 225 -154 225c-108 0 -150 -48 -150 -105c0 -78 69 -112 162 -159c112 -58 220 -115 220 -234c0 -118 -104 -201 -274 -201c-146 0 -247 69 -232 140z" />
    <glyph glyph-name="Scaron" unicode="&#x160;" horiz-adv-x="616" 
d="M318 740c-63 0 -41 72 -154 108c-1 9 6 17 21 17c24 -1 101 -40 133 -77c33 38 111 76 133 77c16 0 23 -8 22 -17c-113 -36 -91 -108 -155 -108zM352 420c112 -58 220 -115 220 -234c0 -118 -104 -201 -274 -201c-146 0 -247 69 -232 140l38 155c0 2 21 6 20 -22
c-18 -184 44 -243 183 -243c72 0 169 31 169 138c0 88 -84 137 -178 184c-115 61 -205 113 -205 203c0 95 89 174 252 174c106 0 225 -49 207 -127l-36 -150c0 -1 -24 -6 -22 22c22 170 -28 225 -154 225c-108 0 -150 -48 -150 -105c0 -78 69 -112 162 -159z" />
    <glyph glyph-name="Scedilla" unicode="&#x15e;" horiz-adv-x="616" 
d="M572 186c0 -116 -100 -198 -264 -201c-11 -15 -18 -27 -28 -47c78 -15 105 -45 105 -80s-36 -65 -96 -65c-45 0 -90 18 -90 45c0 10 6 26 36 26c4 0 9 -51 72 -51c23 0 38 10 38 27c0 25 -20 43 -114 65l51 80c-137 5 -230 72 -216 140l38 155c0 2 21 6 20 -22
c-18 -184 44 -243 183 -243c72 0 169 31 169 138c0 88 -84 137 -178 184c-115 61 -205 113 -205 203c0 95 89 174 252 174c106 0 225 -49 207 -127l-36 -150c0 -1 -24 -6 -22 22c22 170 -28 225 -154 225c-108 0 -150 -48 -150 -105c0 -78 69 -112 162 -159
c112 -58 220 -115 220 -234z" />
    <glyph glyph-name="Scircumflex" unicode="&#x15c;" horiz-adv-x="616" 
d="M179 736c-16 0 -23 8 -22 18c119 39 95 118 162 118s43 -78 162 -118c1 -10 -6 -18 -23 -18c-25 0 -105 43 -139 84c-34 -42 -117 -84 -140 -84zM352 420c112 -58 220 -115 220 -234c0 -118 -104 -201 -274 -201c-146 0 -247 69 -232 140l38 155c0 2 21 6 20 -22
c-18 -184 44 -243 183 -243c72 0 169 31 169 138c0 88 -84 137 -178 184c-115 61 -205 113 -205 203c0 95 89 174 252 174c106 0 225 -49 207 -127l-36 -150c0 -1 -24 -6 -22 22c22 170 -28 225 -154 225c-108 0 -150 -48 -150 -105c0 -78 69 -112 162 -159z" />
    <glyph glyph-name="uni0218" unicode="&#x218;" horiz-adv-x="616" 
d="M66 125l38 155c0 2 21 6 20 -22c-18 -184 44 -243 183 -243c72 0 169 31 169 138c0 88 -84 137 -178 184c-115 61 -205 113 -205 203c0 95 89 174 252 174c106 0 225 -49 207 -127l-36 -150c0 -1 -24 -6 -22 22c22 170 -28 225 -154 225c-108 0 -150 -48 -150 -105
c0 -78 69 -112 162 -159c112 -58 220 -115 220 -234c0 -118 -104 -201 -274 -201c-146 0 -247 69 -232 140zM281 -249c-10 -1 -10 12 -5 14c34 22 45 50 45 76c-1 26 -51 6 -51 50c0 23 17 49 49 49c29 0 43 -21 43 -49c0 -66 -42 -123 -81 -140z" />
    <glyph glyph-name="uni1E60" unicode="&#x1e60;" horiz-adv-x="616" 
d="M319 751c-34 0 -56 20 -55 46c0 30 27 51 64 51c34 0 55 -20 55 -46c0 -29 -27 -51 -64 -51zM66 125l38 155c0 2 21 6 20 -22c-18 -184 44 -243 183 -243c72 0 169 31 169 138c0 88 -84 137 -178 184c-115 61 -205 113 -205 203c0 95 89 174 252 174
c106 0 225 -49 207 -127l-36 -150c0 -1 -24 -6 -22 22c22 170 -28 225 -154 225c-108 0 -150 -48 -150 -105c0 -78 69 -112 162 -159c112 -58 220 -115 220 -234c0 -118 -104 -201 -274 -201c-146 0 -247 69 -232 140z" />
    <glyph glyph-name="uni1E62" unicode="&#x1e62;" horiz-adv-x="616" 
d="M66 125l38 155c0 2 21 6 20 -22c-18 -184 44 -243 183 -243c72 0 169 31 169 138c0 88 -84 137 -178 184c-115 61 -205 113 -205 203c0 95 89 174 252 174c106 0 225 -49 207 -127l-36 -150c0 -1 -24 -6 -22 22c22 170 -28 225 -154 225c-108 0 -150 -48 -150 -105
c0 -78 69 -112 162 -159c112 -58 220 -115 220 -234c0 -118 -104 -201 -274 -201c-146 0 -247 69 -232 140zM318 -154c-29 0 -50 20 -50 45c0 28 24 51 60 51c27 0 49 -19 48 -44c0 -27 -24 -52 -58 -52z" />
    <glyph glyph-name="uni018F" unicode="&#x18f;" horiz-adv-x="751" 
d="M376 714c180 0 334 -138 334 -351c0 -217 -173 -378 -378 -378c-192 0 -289 108 -291 254c0 39 6 81 26 113l544 -4c-21 197 -166 297 -294 297c-69 0 -149 -15 -218 -93c-4 -4 -27 10 -6 34c63 76 167 128 283 128zM359 22c149 0 255 102 255 277c0 9 0 18 -1 26
l-456 -7c-5 -22 -7 -45 -7 -68c0 -131 81 -228 209 -228z" />
    <glyph glyph-name="Tbar" unicode="&#x166;" horiz-adv-x="673" 
d="M636 689c-2 -58 5 -137 21 -242c0 -1 -29 -9 -34 18c-28 155 -42 187 -77 200c-11 8 -62 12 -137 9c-13 0 -24 -11 -24 -35v-277h136c4 -1 13 -25 -16 -25h-120v-243c0 -58 23 -65 78 -72c32 -5 22 -24 19 -24c-18 0 -51 2 -71 2h-149c-19 0 -53 -2 -70 -2
c-3 0 -13 19 18 24c56 7 79 14 79 72v243h-137c-3 0 -12 25 15 25h122v277c0 24 -11 35 -25 35c-75 0 -125 -1 -136 -9c-33 -12 -50 -46 -77 -200c-5 -27 -34 -19 -34 -18c15 104 23 185 21 242c-1 18 7 22 17 22c21 0 41 -11 234 -11h96c192 0 212 11 233 11
c11 0 19 -4 18 -22z" />
    <glyph glyph-name="Tcaron" unicode="&#x164;" horiz-adv-x="673" 
d="M336 740c-63 0 -41 72 -154 108c-1 9 6 17 21 17c24 -1 101 -40 133 -77c33 38 111 76 133 77c16 0 23 -8 22 -17c-113 -36 -91 -108 -155 -108zM636 689c-2 -58 5 -137 21 -242c0 -1 -29 -9 -34 18c-28 155 -42 187 -77 200c-11 8 -62 12 -137 9c-13 0 -24 -11 -24 -35
v-545c0 -58 23 -65 78 -72c32 -5 22 -24 19 -24c-18 0 -51 2 -71 2h-149c-19 0 -53 -2 -70 -2c-3 0 -13 19 18 24c56 7 79 14 79 72v545c0 24 -11 35 -25 35c-75 0 -125 -1 -136 -9c-33 -12 -50 -46 -77 -200c-5 -27 -34 -19 -34 -18c15 104 23 185 21 242c-1 18 7 22 17 22
c21 0 41 -11 234 -11h96c192 0 212 11 233 11c11 0 19 -4 18 -22z" />
    <glyph glyph-name="uni0162" unicode="&#x162;" horiz-adv-x="673" 
d="M636 689c-2 -58 5 -137 21 -242c0 -1 -29 -9 -34 18c-28 155 -42 187 -77 200c-11 8 -62 12 -137 9c-13 0 -24 -11 -24 -35v-545c0 -58 23 -65 78 -72c32 -5 22 -24 19 -24c-18 0 -51 2 -71 2h-74c-18 -23 -25 -36 -38 -61c78 -15 105 -45 105 -80s-36 -65 -96 -65
c-45 0 -90 18 -90 45c0 10 6 26 36 26c4 0 9 -51 72 -51c23 0 38 10 38 27c0 25 -20 43 -114 65l60 94h-48c-19 0 -53 -2 -70 -2c-3 0 -13 19 18 24c56 7 79 14 79 72v545c0 24 -11 35 -25 35c-75 0 -125 -1 -136 -9c-33 -12 -50 -46 -77 -200c-5 -27 -34 -19 -34 -18
c15 104 23 185 21 242c-1 18 7 22 17 22c21 0 41 -11 234 -11h96c192 0 212 11 233 11c11 0 19 -4 18 -22z" />
    <glyph glyph-name="uni021A" unicode="&#x21a;" horiz-adv-x="673" 
d="M636 689c-2 -58 5 -137 21 -242c0 -1 -29 -9 -34 18c-28 155 -42 187 -77 200c-11 8 -62 12 -137 9c-13 0 -24 -11 -24 -35v-545c0 -58 23 -65 78 -72c32 -5 22 -24 19 -24c-18 0 -51 2 -71 2h-149c-19 0 -53 -2 -70 -2c-3 0 -13 19 18 24c56 7 79 14 79 72v545
c0 24 -11 35 -25 35c-75 0 -125 -1 -136 -9c-33 -12 -50 -46 -77 -200c-5 -27 -34 -19 -34 -18c15 104 23 185 21 242c-1 18 7 22 17 22c21 0 41 -11 234 -11h96c192 0 212 11 233 11c11 0 19 -4 18 -22zM337 -59c29 0 43 -21 43 -49c0 -66 -42 -123 -81 -140
c-10 -1 -10 12 -5 14c34 22 45 50 45 76c-1 26 -51 6 -51 50c0 23 17 49 49 49z" />
    <glyph glyph-name="uni1E6C" unicode="&#x1e6c;" horiz-adv-x="673" 
d="M636 689c-2 -58 5 -137 21 -242c0 -1 -29 -9 -34 18c-28 155 -42 187 -77 200c-11 8 -62 12 -137 9c-13 0 -24 -11 -24 -35v-545c0 -58 23 -65 78 -72c32 -5 22 -24 19 -24c-18 0 -51 2 -71 2h-149c-19 0 -53 -2 -70 -2c-3 0 -13 19 18 24c56 7 79 14 79 72v545
c0 24 -11 35 -25 35c-75 0 -125 -1 -136 -9c-33 -12 -50 -46 -77 -200c-5 -27 -34 -19 -34 -18c15 104 23 185 21 242c-1 18 7 22 17 22c21 0 41 -11 234 -11h96c192 0 212 11 233 11c11 0 19 -4 18 -22zM347 -57c27 0 49 -19 48 -44c0 -27 -24 -52 -58 -52
c-29 0 -50 20 -50 45c0 28 24 51 60 51z" />
    <glyph glyph-name="uni1E6E" unicode="&#x1e6e;" horiz-adv-x="673" 
d="M636 689c-2 -58 5 -137 21 -242c0 -1 -29 -9 -34 18c-28 155 -42 187 -77 200c-11 8 -62 12 -137 9c-13 0 -24 -11 -24 -35v-545c0 -58 23 -65 78 -72c32 -5 22 -24 19 -24c-18 0 -51 2 -71 2h-149c-19 0 -53 -2 -70 -2c-3 0 -13 19 18 24c56 7 79 14 79 72v545
c0 24 -11 35 -25 35c-75 0 -125 -1 -136 -9c-33 -12 -50 -46 -77 -200c-5 -27 -34 -19 -34 -18c15 104 23 185 21 242c-1 18 7 22 17 22c21 0 41 -11 234 -11h96c192 0 212 11 233 11c11 0 19 -4 18 -22zM203 -93h266c18 0 12 -19 0 -25h-266c-17 0 -12 20 0 25z" />
    <glyph glyph-name="Uacute" unicode="&#xda;" horiz-adv-x="723" 
d="M307 739c-15 0 -22 10 -17 19c123 56 105 110 144 113c44 3 65 -1 65 -17c0 -39 -149 -115 -192 -115zM372 -15c-171 0 -283 117 -283 295v326c0 58 -13 65 -44 72c-17 5 -11 24 -10 24c10 0 29 -2 40 -2h132c17 0 44 2 59 2c3 0 11 -19 -15 -24c-47 -7 -66 -14 -66 -72
v-320c0 -151 86 -249 220 -249c130 0 211 98 211 250l-1 319c0 58 -19 65 -65 72c-26 5 -18 24 -15 24c14 0 42 -2 59 -2h61c11 0 30 2 39 2c2 0 8 -19 -9 -24c-31 -7 -44 -14 -44 -72v-319c0 -183 -102 -302 -269 -302z" />
    <glyph glyph-name="Ubreve" unicode="&#x16c;" horiz-adv-x="723" 
d="M292 874c33 0 39 -4 39 -14c0 -35 15 -86 76 -86c73 0 82 57 82 83c0 11 9 15 20 15c3 0 4 -1 4 -8c0 -44 -22 -123 -128 -123c-94 0 -126 77 -126 119c0 12 10 14 33 14zM372 -15c-171 0 -283 117 -283 295v326c0 58 -13 65 -44 72c-17 5 -11 24 -10 24
c10 0 29 -2 40 -2h132c17 0 44 2 59 2c3 0 11 -19 -15 -24c-47 -7 -66 -14 -66 -72v-320c0 -151 86 -249 220 -249c130 0 211 98 211 250l-1 319c0 58 -19 65 -65 72c-26 5 -18 24 -15 24c14 0 42 -2 59 -2h61c11 0 30 2 39 2c2 0 8 -19 -9 -24c-31 -7 -44 -14 -44 -72v-319
c0 -183 -102 -302 -269 -302z" />
    <glyph glyph-name="uni01D3" unicode="&#x1d3;" horiz-adv-x="723" 
d="M390 740c-63 0 -41 72 -154 108c-1 9 6 17 21 17c24 -1 101 -40 133 -77c33 38 111 76 133 77c16 0 23 -8 22 -17c-113 -36 -91 -108 -155 -108zM694 702c2 0 8 -19 -9 -24c-31 -7 -44 -14 -44 -72v-319c0 -183 -102 -302 -269 -302c-171 0 -283 117 -283 295v326
c0 58 -13 65 -44 72c-17 5 -11 24 -10 24c10 0 29 -2 40 -2h132c17 0 44 2 59 2c3 0 11 -19 -15 -24c-47 -7 -66 -14 -66 -72v-320c0 -151 86 -249 220 -249c130 0 211 98 211 250l-1 319c0 58 -19 65 -65 72c-26 5 -18 24 -15 24c14 0 42 -2 59 -2h61c11 0 30 2 39 2z" />
    <glyph glyph-name="Ucircumflex" unicode="&#xdb;" horiz-adv-x="723" 
d="M250 736c-16 0 -23 8 -22 18c119 39 95 118 162 118s43 -78 162 -118c1 -10 -6 -18 -23 -18c-25 0 -105 43 -139 84c-34 -42 -117 -84 -140 -84zM694 702c2 0 8 -19 -9 -24c-31 -7 -44 -14 -44 -72v-319c0 -183 -102 -302 -269 -302c-171 0 -283 117 -283 295v326
c0 58 -13 65 -44 72c-17 5 -11 24 -10 24c10 0 29 -2 40 -2h132c17 0 44 2 59 2c3 0 11 -19 -15 -24c-47 -7 -66 -14 -66 -72v-320c0 -151 86 -249 220 -249c130 0 211 98 211 250l-1 319c0 58 -19 65 -65 72c-26 5 -18 24 -15 24c14 0 42 -2 59 -2h61c11 0 30 2 39 2z" />
    <glyph glyph-name="Udieresis" unicode="&#xdc;" horiz-adv-x="723" 
d="M314 753c-28 0 -49 20 -49 44c0 29 24 52 60 52c26 0 48 -20 48 -44c0 -28 -24 -52 -59 -52zM464 753c-28 0 -49 20 -49 44c0 29 24 52 60 52c26 0 48 -20 48 -44c0 -28 -24 -52 -59 -52zM372 -15c-171 0 -283 117 -283 295v326c0 58 -13 65 -44 72c-17 5 -11 24 -10 24
c10 0 29 -2 40 -2h132c17 0 44 2 59 2c3 0 11 -19 -15 -24c-47 -7 -66 -14 -66 -72v-320c0 -151 86 -249 220 -249c130 0 211 98 211 250l-1 319c0 58 -19 65 -65 72c-26 5 -18 24 -15 24c14 0 42 -2 59 -2h61c11 0 30 2 39 2c2 0 8 -19 -9 -24c-31 -7 -44 -14 -44 -72v-319
c0 -183 -102 -302 -269 -302z" />
    <glyph glyph-name="uni01D7" unicode="&#x1d7;" horiz-adv-x="723" 
d="M307 865c-15 0 -22 10 -17 19c123 56 105 110 144 113c44 3 65 -1 65 -17c0 -39 -149 -115 -192 -115zM314 753c-28 0 -49 20 -49 44c0 29 24 52 60 52c26 0 48 -20 48 -44c0 -28 -24 -52 -59 -52zM464 753c-28 0 -49 20 -49 44c0 29 24 52 60 52c26 0 48 -20 48 -44
c0 -28 -24 -52 -59 -52zM372 -15c-171 0 -283 117 -283 295v326c0 58 -13 65 -44 72c-17 5 -11 24 -10 24c10 0 29 -2 40 -2h132c17 0 44 2 59 2c3 0 11 -19 -15 -24c-47 -7 -66 -14 -66 -72v-320c0 -151 86 -249 220 -249c130 0 211 98 211 250l-1 319c0 58 -19 65 -65 72
c-26 5 -18 24 -15 24c14 0 42 -2 59 -2h61c11 0 30 2 39 2c2 0 8 -19 -9 -24c-31 -7 -44 -14 -44 -72v-319c0 -183 -102 -302 -269 -302z" />
    <glyph glyph-name="uni01D9" unicode="&#x1d9;" horiz-adv-x="723" 
d="M390 866c-63 0 -41 72 -154 108c-1 9 6 17 21 17c24 -1 101 -40 133 -77c33 38 111 76 133 77c16 0 23 -8 22 -17c-113 -36 -91 -108 -155 -108zM265 797c0 29 24 52 60 52c26 0 48 -20 48 -44c0 -28 -24 -52 -59 -52c-28 0 -49 20 -49 44zM415 797c0 29 24 52 60 52
c26 0 48 -20 48 -44c0 -28 -24 -52 -59 -52c-28 0 -49 20 -49 44zM694 702c2 0 8 -19 -9 -24c-31 -7 -44 -14 -44 -72v-319c0 -183 -102 -302 -269 -302c-171 0 -283 117 -283 295v326c0 58 -13 65 -44 72c-17 5 -11 24 -10 24c10 0 29 -2 40 -2h132c17 0 44 2 59 2
c3 0 11 -19 -15 -24c-47 -7 -66 -14 -66 -72v-320c0 -151 86 -249 220 -249c130 0 211 98 211 250l-1 319c0 58 -19 65 -65 72c-26 5 -18 24 -15 24c14 0 42 -2 59 -2h61c11 0 30 2 39 2z" />
    <glyph glyph-name="uni01DB" unicode="&#x1db;" horiz-adv-x="723" 
d="M407 865c-43 0 -192 76 -193 115c0 16 22 20 66 17c39 -3 21 -57 143 -113c6 -9 -1 -19 -16 -19zM314 753c-28 0 -49 20 -49 44c0 29 24 52 60 52c26 0 48 -20 48 -44c0 -28 -24 -52 -59 -52zM464 753c-28 0 -49 20 -49 44c0 29 24 52 60 52c26 0 48 -20 48 -44
c0 -28 -24 -52 -59 -52zM372 -15c-171 0 -283 117 -283 295v326c0 58 -13 65 -44 72c-17 5 -11 24 -10 24c10 0 29 -2 40 -2h132c17 0 44 2 59 2c3 0 11 -19 -15 -24c-47 -7 -66 -14 -66 -72v-320c0 -151 86 -249 220 -249c130 0 211 98 211 250l-1 319c0 58 -19 65 -65 72
c-26 5 -18 24 -15 24c14 0 42 -2 59 -2h61c11 0 30 2 39 2c2 0 8 -19 -9 -24c-31 -7 -44 -14 -44 -72v-319c0 -183 -102 -302 -269 -302z" />
    <glyph glyph-name="uni01D5" unicode="&#x1d5;" horiz-adv-x="723" 
d="M523 898h-266c-18 0 -12 19 0 24h266c17 0 12 -19 0 -24zM314 753c-28 0 -49 20 -49 44c0 29 24 52 60 52c26 0 48 -20 48 -44c0 -28 -24 -52 -59 -52zM464 753c-28 0 -49 20 -49 44c0 29 24 52 60 52c26 0 48 -20 48 -44c0 -28 -24 -52 -59 -52zM372 -15
c-171 0 -283 117 -283 295v326c0 58 -13 65 -44 72c-17 5 -11 24 -10 24c10 0 29 -2 40 -2h132c17 0 44 2 59 2c3 0 11 -19 -15 -24c-47 -7 -66 -14 -66 -72v-320c0 -151 86 -249 220 -249c130 0 211 98 211 250l-1 319c0 58 -19 65 -65 72c-26 5 -18 24 -15 24
c14 0 42 -2 59 -2h61c11 0 30 2 39 2c2 0 8 -19 -9 -24c-31 -7 -44 -14 -44 -72v-319c0 -183 -102 -302 -269 -302z" />
    <glyph glyph-name="uni1EE4" unicode="&#x1ee4;" horiz-adv-x="723" 
d="M372 -15c-171 0 -283 117 -283 295v326c0 58 -13 65 -44 72c-17 5 -11 24 -10 24c10 0 29 -2 40 -2h132c17 0 44 2 59 2c3 0 11 -19 -15 -24c-47 -7 -66 -14 -66 -72v-320c0 -151 86 -249 220 -249c130 0 211 98 211 250l-1 319c0 58 -19 65 -65 72c-26 5 -18 24 -15 24
c14 0 42 -2 59 -2h61c11 0 30 2 39 2c2 0 8 -19 -9 -24c-31 -7 -44 -14 -44 -72v-319c0 -183 -102 -302 -269 -302zM372 -153c-29 0 -50 20 -50 45c0 28 24 51 60 51c27 0 49 -19 48 -44c0 -27 -24 -52 -58 -52z" />
    <glyph glyph-name="Ugrave" unicode="&#xd9;" horiz-adv-x="723" 
d="M407 739c-43 0 -192 76 -193 115c0 16 22 20 66 17c39 -3 21 -57 143 -113c6 -9 -1 -19 -16 -19zM372 -15c-171 0 -283 117 -283 295v326c0 58 -13 65 -44 72c-17 5 -11 24 -10 24c10 0 29 -2 40 -2h132c17 0 44 2 59 2c3 0 11 -19 -15 -24c-47 -7 -66 -14 -66 -72v-320
c0 -151 86 -249 220 -249c130 0 211 98 211 250l-1 319c0 58 -19 65 -65 72c-26 5 -18 24 -15 24c14 0 42 -2 59 -2h61c11 0 30 2 39 2c2 0 8 -19 -9 -24c-31 -7 -44 -14 -44 -72v-319c0 -183 -102 -302 -269 -302z" />
    <glyph glyph-name="Uhungarumlaut" unicode="&#x170;" horiz-adv-x="723" 
d="M263 737c-8 0 -13 5 -12 15c113 74 79 140 119 143c36 4 58 3 58 -15c0 -41 -136 -142 -165 -143zM417 737c-8 0 -13 5 -12 15c113 74 79 140 119 143c36 4 58 3 58 -15c0 -41 -136 -142 -165 -143zM372 -15c-171 0 -283 117 -283 295v326c0 58 -13 65 -44 72
c-17 5 -11 24 -10 24c10 0 29 -2 40 -2h132c17 0 44 2 59 2c3 0 11 -19 -15 -24c-47 -7 -66 -14 -66 -72v-320c0 -151 86 -249 220 -249c130 0 211 98 211 250l-1 319c0 58 -19 65 -65 72c-26 5 -18 24 -15 24c14 0 42 -2 59 -2h61c11 0 30 2 39 2c2 0 8 -19 -9 -24
c-31 -7 -44 -14 -44 -72v-319c0 -183 -102 -302 -269 -302z" />
    <glyph glyph-name="Umacron" unicode="&#x16a;" horiz-adv-x="723" 
d="M524 772h-266c-18 0 -12 19 0 24h266c17 0 12 -19 0 -24zM372 -15c-171 0 -283 117 -283 295v326c0 58 -13 65 -44 72c-17 5 -11 24 -10 24c10 0 29 -2 40 -2h132c17 0 44 2 59 2c3 0 11 -19 -15 -24c-47 -7 -66 -14 -66 -72v-320c0 -151 86 -249 220 -249
c130 0 211 98 211 250l-1 319c0 58 -19 65 -65 72c-26 5 -18 24 -15 24c14 0 42 -2 59 -2h61c11 0 30 2 39 2c2 0 8 -19 -9 -24c-31 -7 -44 -14 -44 -72v-319c0 -183 -102 -302 -269 -302z" />
    <glyph glyph-name="Uogonek" unicode="&#x172;" horiz-adv-x="723" 
d="M694 702c2 0 8 -19 -9 -24c-31 -7 -44 -14 -44 -72v-319c0 -134 -55 -234 -150 -278c-37 -32 -45 -57 -45 -85c0 -29 15 -48 45 -48c29 0 48 18 48 55c6 7 19 5 19 -8c0 -41 -28 -82 -91 -82c-49 0 -84 20 -84 62c-1 35 18 64 47 87c-19 -3 -38 -5 -58 -5
c-171 0 -283 117 -283 295v326c0 58 -13 65 -44 72c-17 5 -11 24 -10 24c10 0 29 -2 40 -2h132c17 0 44 2 59 2c3 0 11 -19 -15 -24c-47 -7 -66 -14 -66 -72v-320c0 -151 86 -249 220 -249c130 0 211 98 211 250l-1 319c0 58 -19 65 -65 72c-26 5 -18 24 -15 24
c14 0 42 -2 59 -2h61c11 0 30 2 39 2z" />
    <glyph glyph-name="Uring" unicode="&#x16e;" horiz-adv-x="723" 
d="M383 740c-57 0 -102 36 -102 88c0 46 42 95 114 94c58 -1 105 -37 105 -87c0 -49 -43 -95 -117 -95zM404 766c34 0 55 13 55 48c-1 35 -35 82 -81 82c-36 0 -56 -14 -56 -48c1 -36 35 -82 82 -82zM372 -15c-171 0 -283 117 -283 295v326c0 58 -13 65 -44 72
c-17 5 -11 24 -10 24c10 0 29 -2 40 -2h132c17 0 44 2 59 2c3 0 11 -19 -15 -24c-47 -7 -66 -14 -66 -72v-320c0 -151 86 -249 220 -249c130 0 211 98 211 250l-1 319c0 58 -19 65 -65 72c-26 5 -18 24 -15 24c14 0 42 -2 59 -2h61c11 0 30 2 39 2c2 0 8 -19 -9 -24
c-31 -7 -44 -14 -44 -72v-319c0 -183 -102 -302 -269 -302z" />
    <glyph glyph-name="Utilde" unicode="&#x168;" horiz-adv-x="723" 
d="M255 751c-8 -13 -27 -2 -26 -1c26 84 80 104 160 73l41 -16c53 -21 74 -11 95 26c10 14 27 2 27 1c-27 -83 -77 -106 -159 -74l-43 17c-54 23 -77 9 -95 -26zM372 -15c-171 0 -283 117 -283 295v326c0 58 -13 65 -44 72c-17 5 -11 24 -10 24c10 0 29 -2 40 -2h132
c17 0 44 2 59 2c3 0 11 -19 -15 -24c-47 -7 -66 -14 -66 -72v-320c0 -151 86 -249 220 -249c130 0 211 98 211 250l-1 319c0 58 -19 65 -65 72c-26 5 -18 24 -15 24c14 0 42 -2 59 -2h61c11 0 30 2 39 2c2 0 8 -19 -9 -24c-31 -7 -44 -14 -44 -72v-319
c0 -183 -102 -302 -269 -302z" />
    <glyph glyph-name="Wacute" unicode="&#x1e82;" horiz-adv-x="1026" 
d="M430 739c-15 0 -22 10 -17 19c123 56 105 110 144 113c44 3 65 -1 65 -17c0 -39 -149 -115 -192 -115zM1018 702c2 0 8 -19 -10 -24c-30 -7 -41 -14 -60 -70l-186 -554c-3 -9 -2 -16 0 -19l2 -6c4 -8 1 -12 -4 -14l-73 -26c-10 -4 -14 2 -16 7l-157 466l-140 -410
c-2 -6 -3 -11 -1 -15l4 -8c3 -7 0 -12 -5 -14l-73 -26c-10 -4 -14 2 -15 7l-206 612c-19 56 -30 63 -61 70c-17 5 -11 24 -9 24c9 0 28 -2 39 -2h135c14 0 39 2 52 2c2 0 10 -19 -13 -24c-41 -7 -60 -15 -41 -70l173 -515c2 -5 6 -5 8 0l132 387c5 16 7 24 0 44v-1l-28 85
c-18 55 -34 63 -75 70c-23 5 -15 24 -13 24c13 0 38 -2 52 -2h141c14 0 39 2 52 2c3 0 10 -19 -13 -24c-42 -7 -60 -15 -42 -70l173 -514c2 -7 7 -5 9 0l172 514c19 55 -2 63 -48 70c-26 5 -18 24 -15 24c14 0 42 -2 59 -2h62c11 0 29 2 39 2z" />
    <glyph glyph-name="Wcircumflex" unicode="&#x174;" horiz-adv-x="1026" 
d="M373 736c-16 0 -23 8 -22 18c119 39 95 118 162 118s43 -78 162 -118c1 -10 -6 -18 -23 -18c-25 0 -105 43 -139 84c-34 -42 -117 -84 -140 -84zM1018 702c2 0 8 -19 -10 -24c-30 -7 -41 -14 -60 -70l-186 -554c-3 -9 -2 -16 0 -19l2 -6c4 -8 1 -12 -4 -14l-73 -26
c-10 -4 -14 2 -16 7l-157 466l-140 -410c-2 -6 -3 -11 -1 -15l4 -8c3 -7 0 -12 -5 -14l-73 -26c-10 -4 -14 2 -15 7l-206 612c-19 56 -30 63 -61 70c-17 5 -11 24 -9 24c9 0 28 -2 39 -2h135c14 0 39 2 52 2c2 0 10 -19 -13 -24c-41 -7 -60 -15 -41 -70l173 -515
c2 -5 6 -5 8 0l132 387c5 16 7 24 0 44v-1l-28 85c-18 55 -34 63 -75 70c-23 5 -15 24 -13 24c13 0 38 -2 52 -2h141c14 0 39 2 52 2c3 0 10 -19 -13 -24c-42 -7 -60 -15 -42 -70l173 -514c2 -7 7 -5 9 0l172 514c19 55 -2 63 -48 70c-26 5 -18 24 -15 24c14 0 42 -2 59 -2
h62c11 0 29 2 39 2z" />
    <glyph glyph-name="Wdieresis" unicode="&#x1e84;" horiz-adv-x="1026" 
d="M436 753c-28 0 -49 20 -49 44c0 29 24 52 60 52c26 0 48 -20 48 -44c0 -28 -24 -52 -59 -52zM586 753c-28 0 -49 20 -49 44c0 29 24 52 60 52c26 0 48 -20 48 -44c0 -28 -24 -52 -59 -52zM1018 702c2 0 8 -19 -10 -24c-30 -7 -41 -14 -60 -70l-186 -554
c-3 -9 -2 -16 0 -19l2 -6c4 -8 1 -12 -4 -14l-73 -26c-10 -4 -14 2 -16 7l-157 466l-140 -410c-2 -6 -3 -11 -1 -15l4 -8c3 -7 0 -12 -5 -14l-73 -26c-10 -4 -14 2 -15 7l-206 612c-19 56 -30 63 -61 70c-17 5 -11 24 -9 24c9 0 28 -2 39 -2h135c14 0 39 2 52 2
c2 0 10 -19 -13 -24c-41 -7 -60 -15 -41 -70l173 -515c2 -5 6 -5 8 0l132 387c5 16 7 24 0 44v-1l-28 85c-18 55 -34 63 -75 70c-23 5 -15 24 -13 24c13 0 38 -2 52 -2h141c14 0 39 2 52 2c3 0 10 -19 -13 -24c-42 -7 -60 -15 -42 -70l173 -514c2 -7 7 -5 9 0l172 514
c19 55 -2 63 -48 70c-26 5 -18 24 -15 24c14 0 42 -2 59 -2h62c11 0 29 2 39 2z" />
    <glyph glyph-name="Wgrave" unicode="&#x1e80;" horiz-adv-x="1026" 
d="M530 739c-43 0 -192 76 -193 115c0 16 22 20 66 17c39 -3 21 -57 143 -113c6 -9 -1 -19 -16 -19zM1018 702c2 0 8 -19 -10 -24c-30 -7 -41 -14 -60 -70l-186 -554c-3 -9 -2 -16 0 -19l2 -6c4 -8 1 -12 -4 -14l-73 -26c-10 -4 -14 2 -16 7l-157 466l-140 -410
c-2 -6 -3 -11 -1 -15l4 -8c3 -7 0 -12 -5 -14l-73 -26c-10 -4 -14 2 -15 7l-206 612c-19 56 -30 63 -61 70c-17 5 -11 24 -9 24c9 0 28 -2 39 -2h135c14 0 39 2 52 2c2 0 10 -19 -13 -24c-41 -7 -60 -15 -41 -70l173 -515c2 -5 6 -5 8 0l132 387c5 16 7 24 0 44v-1l-28 85
c-18 55 -34 63 -75 70c-23 5 -15 24 -13 24c13 0 38 -2 52 -2h141c14 0 39 2 52 2c3 0 10 -19 -13 -24c-42 -7 -60 -15 -42 -70l173 -514c2 -7 7 -5 9 0l172 514c19 55 -2 63 -48 70c-26 5 -18 24 -15 24c14 0 42 -2 59 -2h62c11 0 29 2 39 2z" />
    <glyph glyph-name="Yacute" unicode="&#xdd;" horiz-adv-x="631" 
d="M230 739c-15 0 -22 10 -17 19c123 56 105 110 144 113c44 3 65 -1 65 -17c0 -39 -149 -115 -192 -115zM383 0h-132c-13 0 -37 -2 -49 -2c-2 0 -9 19 13 24c38 7 54 14 54 72v166c0 11 -3 22 -8 32l-174 320c-28 52 -39 59 -69 67c-18 5 -12 24 -10 24l39 -3h140l59 3
c3 0 11 -19 -15 -24c-47 -8 -68 -15 -40 -67l155 -287c5 -8 10 -7 14 1l156 286c28 51 6 59 -40 66c-26 5 -18 24 -15 24c14 0 42 -2 59 -2h64c11 0 30 2 40 2c2 0 7 -19 -10 -24c-31 -7 -41 -15 -69 -66l-173 -319c-5 -10 -7 -23 -7 -32v-167c0 -58 16 -65 55 -72
c22 -5 15 -24 12 -24c-12 0 -35 2 -49 2z" />
    <glyph glyph-name="Ycircumflex" unicode="&#x176;" horiz-adv-x="631" 
d="M173 736c-16 0 -23 8 -22 18c119 39 95 118 162 118s43 -78 162 -118c1 -10 -6 -18 -23 -18c-25 0 -105 43 -139 84c-34 -42 -117 -84 -140 -84zM624 702c2 0 7 -19 -10 -24c-31 -7 -41 -15 -69 -66l-173 -319c-5 -10 -7 -23 -7 -32v-167c0 -58 16 -65 55 -72
c22 -5 15 -24 12 -24c-12 0 -35 2 -49 2h-132c-13 0 -37 -2 -49 -2c-2 0 -9 19 13 24c38 7 54 14 54 72v166c0 11 -3 22 -8 32l-174 320c-28 52 -39 59 -69 67c-18 5 -12 24 -10 24l39 -3h140l59 3c3 0 11 -19 -15 -24c-47 -8 -68 -15 -40 -67l155 -287c5 -8 10 -7 14 1
l156 286c28 51 6 59 -40 66c-26 5 -18 24 -15 24c14 0 42 -2 59 -2h64c11 0 30 2 40 2z" />
    <glyph glyph-name="Ydieresis" unicode="&#x178;" horiz-adv-x="631" 
d="M237 753c-28 0 -49 20 -49 44c0 29 24 52 60 52c26 0 48 -20 48 -44c0 -28 -24 -52 -59 -52zM387 753c-28 0 -49 20 -49 44c0 29 24 52 60 52c26 0 48 -20 48 -44c0 -28 -24 -52 -59 -52zM383 0h-132c-13 0 -37 -2 -49 -2c-2 0 -9 19 13 24c38 7 54 14 54 72v166
c0 11 -3 22 -8 32l-174 320c-28 52 -39 59 -69 67c-18 5 -12 24 -10 24l39 -3h140l59 3c3 0 11 -19 -15 -24c-47 -8 -68 -15 -40 -67l155 -287c5 -8 10 -7 14 1l156 286c28 51 6 59 -40 66c-26 5 -18 24 -15 24c14 0 42 -2 59 -2h64c11 0 30 2 40 2c2 0 7 -19 -10 -24
c-31 -7 -41 -15 -69 -66l-173 -319c-5 -10 -7 -23 -7 -32v-167c0 -58 16 -65 55 -72c22 -5 15 -24 12 -24c-12 0 -35 2 -49 2z" />
    <glyph glyph-name="uni1E8E" unicode="&#x1e8e;" horiz-adv-x="631" 
d="M314 751c-34 0 -56 20 -55 46c0 30 27 51 64 51c34 0 55 -20 55 -46c0 -29 -27 -51 -64 -51zM383 0h-132c-13 0 -37 -2 -49 -2c-2 0 -9 19 13 24c38 7 54 14 54 72v166c0 11 -3 22 -8 32l-174 320c-28 52 -39 59 -69 67c-18 5 -12 24 -10 24l39 -3h140l59 3
c3 0 11 -19 -15 -24c-47 -8 -68 -15 -40 -67l155 -287c5 -8 10 -7 14 1l156 286c28 51 6 59 -40 66c-26 5 -18 24 -15 24c14 0 42 -2 59 -2h64c11 0 30 2 40 2c2 0 7 -19 -10 -24c-31 -7 -41 -15 -69 -66l-173 -319c-5 -10 -7 -23 -7 -32v-167c0 -58 16 -65 55 -72
c22 -5 15 -24 12 -24c-12 0 -35 2 -49 2z" />
    <glyph glyph-name="Ygrave" unicode="&#x1ef2;" horiz-adv-x="631" 
d="M330 739c-43 0 -192 76 -193 115c0 16 22 20 66 17c39 -3 21 -57 143 -113c6 -9 -1 -19 -16 -19zM383 0h-132c-13 0 -37 -2 -49 -2c-2 0 -9 19 13 24c38 7 54 14 54 72v166c0 11 -3 22 -8 32l-174 320c-28 52 -39 59 -69 67c-18 5 -12 24 -10 24l39 -3h140l59 3
c3 0 11 -19 -15 -24c-47 -8 -68 -15 -40 -67l155 -287c5 -8 10 -7 14 1l156 286c28 51 6 59 -40 66c-26 5 -18 24 -15 24c14 0 42 -2 59 -2h64c11 0 30 2 40 2c2 0 7 -19 -10 -24c-31 -7 -41 -15 -69 -66l-173 -319c-5 -10 -7 -23 -7 -32v-167c0 -58 16 -65 55 -72
c22 -5 15 -24 12 -24c-12 0 -35 2 -49 2z" />
    <glyph glyph-name="uni0232" unicode="&#x232;" horiz-adv-x="631" 
d="M446 772h-266c-18 0 -12 19 0 24h266c17 0 12 -19 0 -24zM383 0h-132c-13 0 -37 -2 -49 -2c-2 0 -9 19 13 24c38 7 54 14 54 72v166c0 11 -3 22 -8 32l-174 320c-28 52 -39 59 -69 67c-18 5 -12 24 -10 24l39 -3h140l59 3c3 0 11 -19 -15 -24c-47 -8 -68 -15 -40 -67
l155 -287c5 -8 10 -7 14 1l156 286c28 51 6 59 -40 66c-26 5 -18 24 -15 24c14 0 42 -2 59 -2h64c11 0 30 2 40 2c2 0 7 -19 -10 -24c-31 -7 -41 -15 -69 -66l-173 -319c-5 -10 -7 -23 -7 -32v-167c0 -58 16 -65 55 -72c22 -5 15 -24 12 -24c-12 0 -35 2 -49 2z" />
    <glyph glyph-name="Zacute" unicode="&#x179;" horiz-adv-x="657" 
d="M241 739c-15 0 -22 10 -17 19c123 56 105 110 144 113c44 3 65 -1 65 -17c0 -39 -149 -115 -192 -115zM583 -10c-20 0 -35 10 -87 10h-354c-42 0 -65 -3 -83 -3c-15 0 -19 6 -19 13c0 6 3 12 8 20l438 634c3 7 1 11 -6 11l-278 -9c-61 -2 -74 -29 -100 -161
c-8 -38 -38 -20 -37 -19c12 93 15 137 14 204c0 13 8 20 16 20c29 0 29 -11 93 -11l265 1c28 0 109 2 137 2c8 0 13 -3 13 -8c0 -8 -4 -16 -14 -31l-431 -627c-3 -5 -2 -11 6 -11l312 8c60 2 80 48 106 200c4 17 13 22 22 23c8 0 16 -3 16 -4c-15 -114 -22 -201 -20 -243
c1 -11 -5 -19 -17 -19z" />
    <glyph glyph-name="Zcaron" unicode="&#x17d;" horiz-adv-x="657" 
d="M324 740c-63 0 -41 72 -154 108c-1 9 6 17 21 17c24 -1 101 -40 133 -77c33 38 111 76 133 77c16 0 23 -8 22 -17c-113 -36 -91 -108 -155 -108zM620 252c-15 -114 -22 -201 -20 -243c1 -11 -5 -19 -17 -19c-20 0 -35 10 -87 10h-354c-42 0 -65 -3 -83 -3
c-15 0 -19 6 -19 13c0 6 3 12 8 20l438 634c3 7 1 11 -6 11l-278 -9c-61 -2 -74 -29 -100 -161c-8 -38 -38 -20 -37 -19c12 93 15 137 14 204c0 13 8 20 16 20c29 0 29 -11 93 -11l265 1c28 0 109 2 137 2c8 0 13 -3 13 -8c0 -8 -4 -16 -14 -31l-431 -627
c-3 -5 -2 -11 6 -11l312 8c60 2 80 48 106 200c4 17 13 22 22 23c8 0 16 -3 16 -4z" />
    <glyph glyph-name="Zdotaccent" unicode="&#x17b;" horiz-adv-x="657" 
d="M325 751c-34 0 -56 20 -55 46c0 30 27 51 64 51c34 0 55 -20 55 -46c0 -29 -27 -51 -64 -51zM583 -10c-20 0 -35 10 -87 10h-354c-42 0 -65 -3 -83 -3c-15 0 -19 6 -19 13c0 6 3 12 8 20l438 634c3 7 1 11 -6 11l-278 -9c-61 -2 -74 -29 -100 -161
c-8 -38 -38 -20 -37 -19c12 93 15 137 14 204c0 13 8 20 16 20c29 0 29 -11 93 -11l265 1c28 0 109 2 137 2c8 0 13 -3 13 -8c0 -8 -4 -16 -14 -31l-431 -627c-3 -5 -2 -11 6 -11l312 8c60 2 80 48 106 200c4 17 13 22 22 23c8 0 16 -3 16 -4c-15 -114 -22 -201 -20 -243
c1 -11 -5 -19 -17 -19z" />
    <glyph glyph-name="uni1E92" unicode="&#x1e92;" horiz-adv-x="657" 
d="M583 -10c-20 0 -35 10 -87 10h-354c-42 0 -65 -3 -83 -3c-15 0 -19 6 -19 13c0 6 3 12 8 20l438 634c3 7 1 11 -6 11l-278 -9c-61 -2 -74 -29 -100 -161c-8 -38 -38 -20 -37 -19c12 93 15 137 14 204c0 13 8 20 16 20c29 0 29 -11 93 -11l265 1c28 0 109 2 137 2
c8 0 13 -3 13 -8c0 -8 -4 -16 -14 -31l-431 -627c-3 -5 -2 -11 6 -11l312 8c60 2 80 48 106 200c4 17 13 22 22 23c8 0 16 -3 16 -4c-15 -114 -22 -201 -20 -243c1 -11 -5 -19 -17 -19zM324 -153c-29 0 -50 20 -50 45c0 28 24 51 60 51c27 0 49 -19 48 -44
c0 -27 -24 -52 -58 -52z" />
    <glyph glyph-name="Q.calt" horiz-adv-x="820" 
d="M1351 -66c5 4 25 -9 7 -30c-55 -60 -194 -102 -345 -102c-206 0 -427 99 -555 188c-24 -3 -48 -5 -73 -5c-201 0 -344 147 -344 352c0 210 171 376 388 376c205 0 350 -149 350 -349c0 -164 -88 -292 -226 -348c150 -80 336 -148 525 -148c115 0 214 26 273 66zM138 405
c0 -170 125 -382 293 -384c0 19 31 34 86 13c101 32 164 128 164 267c0 169 -127 377 -298 377c-141 0 -245 -117 -245 -273z" />
    <glyph glyph-name="K.dlig" horiz-adv-x="699" 
d="M1000 -68c5 4 22 -12 4 -29c-41 -40 -127 -62 -195 -62c-271 -1 -414 246 -481 527l-115 -134v-140c0 -58 15 -65 54 -72c22 -5 15 -24 12 -24c-12 0 -35 2 -49 2h-131c-14 0 -37 -2 -50 -2c-2 0 -9 19 13 24c38 7 54 14 54 72v512c0 58 -16 65 -54 72
c-22 5 -15 24 -13 24c13 0 36 -2 50 -2h131c14 0 37 2 49 2c3 0 10 -19 -12 -24c-39 -7 -54 -14 -54 -72v-338l290 350c37 45 18 53 -20 60c-22 5 -15 24 -13 24c13 0 36 -2 50 -2h75c15 0 39 2 51 2c2 0 10 -19 -13 -24c-39 -7 -53 -15 -91 -60l-200 -233c24 3 47 8 74 18
c10 1 19 -3 20 -14c43 -277 173 -499 396 -498c69 0 126 14 168 41z" />
    <glyph glyph-name="R.dlig" horiz-adv-x="684" 
d="M1000 -68c5 4 22 -12 4 -29c-41 -40 -133 -68 -215 -68c-271 -1 -394 214 -475 474l-53 5c-8 3 -7 15 6 16l59 2c122 6 184 63 184 176c0 110 -65 167 -193 169l-72 1c-24 0 -32 -8 -32 -36v-548c0 -58 15 -65 54 -72c22 -5 15 -24 12 -24c-12 0 -35 2 -49 2h-131
c-14 0 -37 -2 -50 -2c-2 0 -9 19 13 24c38 7 54 14 54 72v512c0 58 -16 65 -54 72c-22 5 -15 24 -13 24c12 0 36 -2 49 -2c95 1 167 3 238 3c188 0 282 -68 282 -192c0 -119 -88 -184 -216 -197l-11 -4c6 0 13 0 19 1c12 1 17 -5 19 -15c51 -219 162 -412 382 -412
c83 0 147 21 189 48z" />
    <glyph glyph-name="Nacute.ss02" horiz-adv-x="751" 
d="M291 739c-15 0 -22 10 -17 19c123 56 105 110 144 113c44 3 65 -1 65 -17c0 -39 -149 -115 -192 -115zM160 0h-60l-50 -3c-2 0 -9 19 13 24c38 8 54 15 54 73l-1 512c0 58 -15 66 -54 73c-22 6 -14 25 -12 24c12 0 35 -2 49 -3h52c14 0 20 -4 34 -11l413 -251
c3 -2 6 -3 8 -3s4 2 4 6v165c0 58 -16 65 -55 72c-22 5 -15 24 -12 24c12 0 35 -2 49 -2h61c14 0 37 2 49 2c2 0 9 -19 -12 -24c-39 -7 -55 -14 -55 -72v-512c0 -58 16 -65 55 -72c21 -5 14 -24 12 -24c-12 0 -35 2 -49 2h-61c-14 0 -37 -2 -49 -2c-3 0 -10 19 12 24
c39 7 55 14 55 72v219c0 5 -2 9 -7 12l-449 271c-3 2 -6 3 -8 3s-3 -2 -3 -6v-499c0 -58 16 -65 54 -73c22 -5 15 -24 13 -24z" />
    <glyph glyph-name="Ncaron.ss02" horiz-adv-x="751" 
d="M374 740c-63 0 -41 72 -154 108c-1 9 6 17 21 17c24 -1 101 -40 133 -77c33 38 111 76 133 77c16 0 23 -8 22 -17c-113 -36 -91 -108 -155 -108zM690 22c21 -5 14 -24 12 -24c-12 0 -35 2 -49 2h-61c-14 0 -37 -2 -49 -2c-3 0 -10 19 12 24c39 7 55 14 55 72v219
c0 5 -2 9 -7 12l-449 271c-3 2 -6 3 -8 3s-3 -2 -3 -6v-499c0 -58 16 -65 54 -73c22 -5 15 -24 13 -24l-50 3h-60l-50 -3c-2 0 -9 19 13 24c38 8 54 15 54 73l-1 512c0 58 -15 66 -54 73c-22 6 -14 25 -12 24c12 0 35 -2 49 -3h52c14 0 20 -4 34 -11l413 -251
c3 -2 6 -3 8 -3s4 2 4 6v165c0 58 -16 65 -55 72c-22 5 -15 24 -12 24c12 0 35 -2 49 -2h61c14 0 37 2 49 2c2 0 9 -19 -12 -24c-39 -7 -55 -14 -55 -72v-512c0 -58 16 -65 55 -72z" />
    <glyph glyph-name="uni0145.ss02" horiz-adv-x="751" 
d="M160 0h-60l-50 -3c-2 0 -9 19 13 24c38 8 54 15 54 73l-1 512c0 58 -15 66 -54 73c-22 6 -14 25 -12 24c12 0 35 -2 49 -3h52c14 0 20 -4 34 -11l413 -251c3 -2 6 -3 8 -3s4 2 4 6v165c0 58 -16 65 -55 72c-22 5 -15 24 -12 24c12 0 35 -2 49 -2h61c14 0 37 2 49 2
c2 0 9 -19 -12 -24c-39 -7 -55 -14 -55 -72v-512c0 -58 16 -65 55 -72c21 -5 14 -24 12 -24c-12 0 -35 2 -49 2h-61c-14 0 -37 -2 -49 -2c-3 0 -10 19 12 24c39 7 55 14 55 72v219c0 5 -2 9 -7 12l-449 271c-3 2 -6 3 -8 3s-3 -2 -3 -6v-499c0 -58 16 -65 54 -73
c22 -5 15 -24 13 -24zM337 -248c-10 -1 -10 12 -5 14c34 22 45 50 45 76c-1 26 -51 6 -51 50c0 23 17 49 49 49c29 0 43 -21 43 -49c0 -66 -42 -123 -81 -140z" />
    <glyph glyph-name="uni1E44.ss02" horiz-adv-x="751" 
d="M375 751c-34 0 -56 20 -55 46c0 30 27 51 64 51c34 0 55 -20 55 -46c0 -29 -27 -51 -64 -51zM160 0h-60l-50 -3c-2 0 -9 19 13 24c38 8 54 15 54 73l-1 512c0 58 -15 66 -54 73c-22 6 -14 25 -12 24c12 0 35 -2 49 -3h52c14 0 20 -4 34 -11l413 -251c3 -2 6 -3 8 -3
s4 2 4 6v165c0 58 -16 65 -55 72c-22 5 -15 24 -12 24c12 0 35 -2 49 -2h61c14 0 37 2 49 2c2 0 9 -19 -12 -24c-39 -7 -55 -14 -55 -72v-512c0 -58 16 -65 55 -72c21 -5 14 -24 12 -24c-12 0 -35 2 -49 2h-61c-14 0 -37 -2 -49 -2c-3 0 -10 19 12 24c39 7 55 14 55 72v219
c0 5 -2 9 -7 12l-449 271c-3 2 -6 3 -8 3s-3 -2 -3 -6v-499c0 -58 16 -65 54 -73c22 -5 15 -24 13 -24z" />
    <glyph glyph-name="uni1E46.ss02" horiz-adv-x="751" 
d="M160 0h-60l-50 -3c-2 0 -9 19 13 24c38 8 54 15 54 73l-1 512c0 58 -15 66 -54 73c-22 6 -14 25 -12 24c12 0 35 -2 49 -3h52c14 0 20 -4 34 -11l413 -251c3 -2 6 -3 8 -3s4 2 4 6v165c0 58 -16 65 -55 72c-22 5 -15 24 -12 24c12 0 35 -2 49 -2h61c14 0 37 2 49 2
c2 0 9 -19 -12 -24c-39 -7 -55 -14 -55 -72v-512c0 -58 16 -65 55 -72c21 -5 14 -24 12 -24c-12 0 -35 2 -49 2h-61c-14 0 -37 -2 -49 -2c-3 0 -10 19 12 24c39 7 55 14 55 72v219c0 5 -2 9 -7 12l-449 271c-3 2 -6 3 -8 3s-3 -2 -3 -6v-499c0 -58 16 -65 54 -73
c22 -5 15 -24 13 -24zM374 -153c-29 0 -50 20 -50 45c0 28 24 51 60 51c27 0 49 -19 48 -44c0 -27 -24 -52 -58 -52z" />
    <glyph glyph-name="uni1E48.ss02" horiz-adv-x="751" 
d="M160 0h-60l-50 -3c-2 0 -9 19 13 24c38 8 54 15 54 73l-1 512c0 58 -15 66 -54 73c-22 6 -14 25 -12 24c12 0 35 -2 49 -3h52c14 0 20 -4 34 -11l413 -251c3 -2 6 -3 8 -3s4 2 4 6v165c0 58 -16 65 -55 72c-22 5 -15 24 -12 24c12 0 35 -2 49 -2h61c14 0 37 2 49 2
c2 0 9 -19 -12 -24c-39 -7 -55 -14 -55 -72v-512c0 -58 16 -65 55 -72c21 -5 14 -24 12 -24c-12 0 -35 2 -49 2h-61c-14 0 -37 -2 -49 -2c-3 0 -10 19 12 24c39 7 55 14 55 72v219c0 5 -2 9 -7 12l-449 271c-3 2 -6 3 -8 3s-3 -2 -3 -6v-499c0 -58 16 -65 54 -73
c22 -5 15 -24 13 -24zM507 -118h-266c-17 0 -12 20 0 25h266c18 0 12 -19 0 -25z" />
    <glyph glyph-name="Racute.ss02" horiz-adv-x="666" 
d="M249 739c-15 0 -22 10 -17 19c123 56 105 110 144 113c44 3 65 -1 65 -17c0 -39 -149 -115 -192 -115zM230 0h-131c-14 0 -37 -2 -50 -2c-2 0 -9 19 13 24c38 7 54 14 54 72v512c0 58 -16 65 -54 72c-22 5 -15 24 -13 24c12 0 36 -2 49 -2c96 1 167 3 230 3
c196 0 273 -68 273 -176c0 -168 -168 -144 -168 -233c0 -72 111 -228 174 -262c10 -6 20 -8 31 -10c19 -4 14 -21 12 -22c-26 -1 -53 -2 -90 -2c-91 0 -222 204 -222 299c0 107 160 67 160 232c0 88 -53 149 -187 149l-66 1c-24 0 -32 -8 -32 -36v-549c0 -58 16 -65 54 -72
c22 -5 15 -24 13 -24c-12 0 -36 2 -50 2z" />
    <glyph glyph-name="Rcaron.ss02" horiz-adv-x="666" 
d="M332 740c-63 0 -41 72 -154 108c-1 9 6 17 21 17c24 -1 101 -40 133 -77c33 38 111 76 133 77c16 0 23 -8 22 -17c-113 -36 -91 -108 -155 -108zM638 22c19 -4 14 -21 12 -22c-26 -1 -53 -2 -90 -2c-91 0 -222 204 -222 299c0 107 160 67 160 232c0 88 -53 149 -187 149
l-66 1c-24 0 -32 -8 -32 -36v-549c0 -58 16 -65 54 -72c22 -5 15 -24 13 -24c-12 0 -36 2 -50 2h-131c-14 0 -37 -2 -50 -2c-2 0 -9 19 13 24c38 7 54 14 54 72v512c0 58 -16 65 -54 72c-22 5 -15 24 -13 24c12 0 36 -2 49 -2c96 1 167 3 230 3c196 0 273 -68 273 -176
c0 -168 -168 -144 -168 -233c0 -72 111 -228 174 -262c10 -6 20 -8 31 -10z" />
    <glyph glyph-name="uni0156.ss02" horiz-adv-x="666" 
d="M230 0h-131c-14 0 -37 -2 -50 -2c-2 0 -9 19 13 24c38 7 54 14 54 72v512c0 58 -16 65 -54 72c-22 5 -15 24 -13 24c12 0 36 -2 49 -2c96 1 167 3 230 3c196 0 273 -68 273 -176c0 -168 -168 -144 -168 -233c0 -72 111 -228 174 -262c10 -6 20 -8 31 -10
c19 -4 14 -21 12 -22c-26 -1 -53 -2 -90 -2c-91 0 -222 204 -222 299c0 107 160 67 160 232c0 88 -53 149 -187 149l-66 1c-24 0 -32 -8 -32 -36v-549c0 -58 16 -65 54 -72c22 -5 15 -24 13 -24c-12 0 -36 2 -50 2zM295 -248c-10 -1 -10 12 -5 14c34 22 45 50 45 76
c-1 26 -51 6 -51 50c0 23 17 49 49 49c29 0 43 -21 43 -49c0 -66 -42 -123 -81 -140z" />
    <glyph glyph-name="uni1E5A.ss02" horiz-adv-x="666" 
d="M230 0h-131c-14 0 -37 -2 -50 -2c-2 0 -9 19 13 24c38 7 54 14 54 72v512c0 58 -16 65 -54 72c-22 5 -15 24 -13 24c12 0 36 -2 49 -2c96 1 167 3 230 3c196 0 273 -68 273 -176c0 -168 -168 -144 -168 -233c0 -72 111 -228 174 -262c10 -6 20 -8 31 -10
c19 -4 14 -21 12 -22c-26 -1 -53 -2 -90 -2c-91 0 -222 204 -222 299c0 107 160 67 160 232c0 88 -53 149 -187 149l-66 1c-24 0 -32 -8 -32 -36v-549c0 -58 16 -65 54 -72c22 -5 15 -24 13 -24c-12 0 -36 2 -50 2zM333 -153c-29 0 -50 20 -50 45c0 28 24 51 60 51
c27 0 49 -19 48 -44c0 -27 -24 -52 -58 -52z" />
    <glyph glyph-name="uni1E5C.ss02" horiz-adv-x="666" 
d="M466 772h-266c-18 0 -12 19 0 24h266c17 0 12 -19 0 -24zM230 0h-131c-14 0 -37 -2 -50 -2c-2 0 -9 19 13 24c38 7 54 14 54 72v512c0 58 -16 65 -54 72c-22 5 -15 24 -13 24c12 0 36 -2 49 -2c96 1 167 3 230 3c196 0 273 -68 273 -176c0 -168 -168 -144 -168 -233
c0 -72 111 -228 174 -262c10 -6 20 -8 31 -10c19 -4 14 -21 12 -22c-26 -1 -53 -2 -90 -2c-91 0 -222 204 -222 299c0 107 160 67 160 232c0 88 -53 149 -187 149l-66 1c-24 0 -32 -8 -32 -36v-549c0 -58 16 -65 54 -72c22 -5 15 -24 13 -24c-12 0 -36 2 -50 2zM333 -153
c-29 0 -50 20 -50 45c0 28 24 51 60 51c27 0 49 -19 48 -44c0 -27 -24 -52 -58 -52z" />
    <glyph glyph-name="uni1E5E.ss02" horiz-adv-x="666" 
d="M230 0h-131c-14 0 -37 -2 -50 -2c-2 0 -9 19 13 24c38 7 54 14 54 72v512c0 58 -16 65 -54 72c-22 5 -15 24 -13 24c12 0 36 -2 49 -2c96 1 167 3 230 3c196 0 273 -68 273 -176c0 -168 -168 -144 -168 -233c0 -72 111 -228 174 -262c10 -6 20 -8 31 -10
c19 -4 14 -21 12 -22c-26 -1 -53 -2 -90 -2c-91 0 -222 204 -222 299c0 107 160 67 160 232c0 88 -53 149 -187 149l-66 1c-24 0 -32 -8 -32 -36v-549c0 -58 16 -65 54 -72c22 -5 15 -24 13 -24c-12 0 -36 2 -50 2zM465 -118h-266c-17 0 -12 20 0 25h266c18 0 12 -19 0 -25z
" />
    <glyph glyph-name="Uacute.ss02" horiz-adv-x="698" 
d="M270 739c-15 0 -22 10 -17 19c123 56 105 110 144 113c44 3 65 -1 65 -17c0 -39 -149 -115 -192 -115zM341 -14c-151 0 -238 85 -238 200v420c0 58 -16 65 -55 72c-22 5 -15 24 -12 24c12 0 35 -2 49 -2h132c13 0 37 2 49 2c2 0 9 -19 -13 -24c-38 -7 -54 -14 -54 -72
v-410c0 -94 51 -159 191 -159c88 0 175 37 175 84v485c0 58 -16 65 -54 72c-22 5 -15 24 -13 24c12 0 36 -2 49 -2h60c14 0 37 2 49 2c2 0 10 -19 -12 -24c-39 -7 -55 -14 -55 -72l1 -523c-14 -21 -106 -97 -249 -97z" />
    <glyph glyph-name="Ubreve.ss02" horiz-adv-x="698" 
d="M256 874c33 0 39 -4 39 -14c0 -35 15 -86 76 -86c73 0 82 57 82 83c0 11 9 15 20 15c3 0 4 -1 4 -8c0 -44 -22 -123 -128 -123c-94 0 -126 77 -126 119c0 12 10 14 33 14zM341 -14c-151 0 -238 85 -238 200v420c0 58 -16 65 -55 72c-22 5 -15 24 -12 24c12 0 35 -2 49 -2
h132c13 0 37 2 49 2c2 0 9 -19 -13 -24c-38 -7 -54 -14 -54 -72v-410c0 -94 51 -159 191 -159c88 0 175 37 175 84v485c0 58 -16 65 -54 72c-22 5 -15 24 -13 24c12 0 36 -2 49 -2h60c14 0 37 2 49 2c2 0 10 -19 -12 -24c-39 -7 -55 -14 -55 -72l1 -523
c-14 -21 -106 -97 -249 -97z" />
    <glyph glyph-name="uni01D3.ss02" horiz-adv-x="698" 
d="M353 740c-63 0 -41 72 -154 108c-1 9 6 17 21 17c24 -1 101 -40 133 -77c33 38 111 76 133 77c16 0 23 -8 22 -17c-113 -36 -91 -108 -155 -108zM656 702c2 0 10 -19 -12 -24c-39 -7 -55 -14 -55 -72l1 -523c-14 -21 -106 -97 -249 -97c-151 0 -238 85 -238 200v420
c0 58 -16 65 -55 72c-22 5 -15 24 -12 24c12 0 35 -2 49 -2h132c13 0 37 2 49 2c2 0 9 -19 -13 -24c-38 -7 -54 -14 -54 -72v-410c0 -94 51 -159 191 -159c88 0 175 37 175 84v485c0 58 -16 65 -54 72c-22 5 -15 24 -13 24c12 0 36 -2 49 -2h60c14 0 37 2 49 2z" />
    <glyph glyph-name="Ucircumflex.ss02" horiz-adv-x="698" 
d="M214 736c-16 0 -23 8 -22 18c119 39 95 118 162 118s43 -78 162 -118c1 -10 -6 -18 -23 -18c-25 0 -105 43 -139 84c-34 -42 -117 -84 -140 -84zM656 702c2 0 10 -19 -12 -24c-39 -7 -55 -14 -55 -72l1 -523c-14 -21 -106 -97 -249 -97c-151 0 -238 85 -238 200v420
c0 58 -16 65 -55 72c-22 5 -15 24 -12 24c12 0 35 -2 49 -2h132c13 0 37 2 49 2c2 0 9 -19 -13 -24c-38 -7 -54 -14 -54 -72v-410c0 -94 51 -159 191 -159c88 0 175 37 175 84v485c0 58 -16 65 -54 72c-22 5 -15 24 -13 24c12 0 36 -2 49 -2h60c14 0 37 2 49 2z" />
    <glyph glyph-name="Udieresis.ss02" horiz-adv-x="698" 
d="M277 753c-28 0 -49 20 -49 44c0 29 24 52 60 52c26 0 48 -20 48 -44c0 -28 -24 -52 -59 -52zM427 753c-28 0 -49 20 -49 44c0 29 24 52 60 52c26 0 48 -20 48 -44c0 -28 -24 -52 -59 -52zM341 -14c-151 0 -238 85 -238 200v420c0 58 -16 65 -55 72c-22 5 -15 24 -12 24
c12 0 35 -2 49 -2h132c13 0 37 2 49 2c2 0 9 -19 -13 -24c-38 -7 -54 -14 -54 -72v-410c0 -94 51 -159 191 -159c88 0 175 37 175 84v485c0 58 -16 65 -54 72c-22 5 -15 24 -13 24c12 0 36 -2 49 -2h60c14 0 37 2 49 2c2 0 10 -19 -12 -24c-39 -7 -55 -14 -55 -72l1 -523
c-14 -21 -106 -97 -249 -97z" />
    <glyph glyph-name="uni01D7.ss02" horiz-adv-x="698" 
d="M270 865c-15 0 -22 10 -17 19c123 56 105 110 144 113c44 3 65 -1 65 -17c0 -39 -149 -115 -192 -115zM277 753c-28 0 -49 20 -49 44c0 29 24 52 60 52c26 0 48 -20 48 -44c0 -28 -24 -52 -59 -52zM427 753c-28 0 -49 20 -49 44c0 29 24 52 60 52c26 0 48 -20 48 -44
c0 -28 -24 -52 -59 -52zM341 -14c-151 0 -238 85 -238 200v420c0 58 -16 65 -55 72c-22 5 -15 24 -12 24c12 0 35 -2 49 -2h132c13 0 37 2 49 2c2 0 9 -19 -13 -24c-38 -7 -54 -14 -54 -72v-410c0 -94 51 -159 191 -159c88 0 175 37 175 84v485c0 58 -16 65 -54 72
c-22 5 -15 24 -13 24c12 0 36 -2 49 -2h60c14 0 37 2 49 2c2 0 10 -19 -12 -24c-39 -7 -55 -14 -55 -72l1 -523c-14 -21 -106 -97 -249 -97z" />
    <glyph glyph-name="uni01D9.ss02" horiz-adv-x="698" 
d="M353 866c-63 0 -41 72 -154 108c-1 9 6 17 21 17c24 -1 101 -40 133 -77c33 38 111 76 133 77c16 0 23 -8 22 -17c-113 -36 -91 -108 -155 -108zM228 797c0 29 24 52 60 52c26 0 48 -20 48 -44c0 -28 -24 -52 -59 -52c-28 0 -49 20 -49 44zM378 797c0 29 24 52 60 52
c26 0 48 -20 48 -44c0 -28 -24 -52 -59 -52c-28 0 -49 20 -49 44zM656 702c2 0 10 -19 -12 -24c-39 -7 -55 -14 -55 -72l1 -523c-14 -21 -106 -97 -249 -97c-151 0 -238 85 -238 200v420c0 58 -16 65 -55 72c-22 5 -15 24 -12 24c12 0 35 -2 49 -2h132c13 0 37 2 49 2
c2 0 9 -19 -13 -24c-38 -7 -54 -14 -54 -72v-410c0 -94 51 -159 191 -159c88 0 175 37 175 84v485c0 58 -16 65 -54 72c-22 5 -15 24 -13 24c12 0 36 -2 49 -2h60c14 0 37 2 49 2z" />
    <glyph glyph-name="uni01DB.ss02" horiz-adv-x="698" 
d="M370 865c-43 0 -192 76 -193 115c0 16 22 20 66 17c39 -3 21 -57 143 -113c6 -9 -1 -19 -16 -19zM277 753c-28 0 -49 20 -49 44c0 29 24 52 60 52c26 0 48 -20 48 -44c0 -28 -24 -52 -59 -52zM427 753c-28 0 -49 20 -49 44c0 29 24 52 60 52c26 0 48 -20 48 -44
c0 -28 -24 -52 -59 -52zM341 -14c-151 0 -238 85 -238 200v420c0 58 -16 65 -55 72c-22 5 -15 24 -12 24c12 0 35 -2 49 -2h132c13 0 37 2 49 2c2 0 9 -19 -13 -24c-38 -7 -54 -14 -54 -72v-410c0 -94 51 -159 191 -159c88 0 175 37 175 84v485c0 58 -16 65 -54 72
c-22 5 -15 24 -13 24c12 0 36 -2 49 -2h60c14 0 37 2 49 2c2 0 10 -19 -12 -24c-39 -7 -55 -14 -55 -72l1 -523c-14 -21 -106 -97 -249 -97z" />
    <glyph glyph-name="uni01D5.ss02" horiz-adv-x="698" 
d="M486 898h-266c-18 0 -12 19 0 24h266c17 0 12 -19 0 -24zM277 753c-28 0 -49 20 -49 44c0 29 24 52 60 52c26 0 48 -20 48 -44c0 -28 -24 -52 -59 -52zM427 753c-28 0 -49 20 -49 44c0 29 24 52 60 52c26 0 48 -20 48 -44c0 -28 -24 -52 -59 -52zM341 -14
c-151 0 -238 85 -238 200v420c0 58 -16 65 -55 72c-22 5 -15 24 -12 24c12 0 35 -2 49 -2h132c13 0 37 2 49 2c2 0 9 -19 -13 -24c-38 -7 -54 -14 -54 -72v-410c0 -94 51 -159 191 -159c88 0 175 37 175 84v485c0 58 -16 65 -54 72c-22 5 -15 24 -13 24c12 0 36 -2 49 -2h60
c14 0 37 2 49 2c2 0 10 -19 -12 -24c-39 -7 -55 -14 -55 -72l1 -523c-14 -21 -106 -97 -249 -97z" />
    <glyph glyph-name="uni1EE4.ss02" horiz-adv-x="698" 
d="M341 -14c-151 0 -238 85 -238 200v420c0 58 -16 65 -55 72c-22 5 -15 24 -12 24c12 0 35 -2 49 -2h132c13 0 37 2 49 2c2 0 9 -19 -13 -24c-38 -7 -54 -14 -54 -72v-410c0 -94 51 -159 191 -159c88 0 175 37 175 84v485c0 58 -16 65 -54 72c-22 5 -15 24 -13 24
c12 0 36 -2 49 -2h60c14 0 37 2 49 2c2 0 10 -19 -12 -24c-39 -7 -55 -14 -55 -72l1 -523c-14 -21 -106 -97 -249 -97zM354 -153c-29 0 -50 20 -50 45c0 28 24 51 60 51c27 0 49 -19 48 -44c0 -27 -24 -52 -58 -52z" />
    <glyph glyph-name="Ugrave.ss02" horiz-adv-x="698" 
d="M371 739c-43 0 -192 76 -193 115c0 16 22 20 66 17c39 -3 21 -57 143 -113c6 -9 -1 -19 -16 -19zM341 -14c-151 0 -238 85 -238 200v420c0 58 -16 65 -55 72c-22 5 -15 24 -12 24c12 0 35 -2 49 -2h132c13 0 37 2 49 2c2 0 9 -19 -13 -24c-38 -7 -54 -14 -54 -72v-410
c0 -94 51 -159 191 -159c88 0 175 37 175 84v485c0 58 -16 65 -54 72c-22 5 -15 24 -13 24c12 0 36 -2 49 -2h60c14 0 37 2 49 2c2 0 10 -19 -12 -24c-39 -7 -55 -14 -55 -72l1 -523c-14 -21 -106 -97 -249 -97z" />
    <glyph glyph-name="Uhungarumlaut.ss02" horiz-adv-x="698" 
d="M227 737c-8 0 -13 5 -12 15c113 74 79 140 119 143c36 4 58 3 58 -15c0 -41 -136 -142 -165 -143zM381 737c-8 0 -13 5 -12 15c113 74 79 140 119 143c36 4 58 3 58 -15c0 -41 -136 -142 -165 -143zM341 -14c-151 0 -238 85 -238 200v420c0 58 -16 65 -55 72
c-22 5 -15 24 -12 24c12 0 35 -2 49 -2h132c13 0 37 2 49 2c2 0 9 -19 -13 -24c-38 -7 -54 -14 -54 -72v-410c0 -94 51 -159 191 -159c88 0 175 37 175 84v485c0 58 -16 65 -54 72c-22 5 -15 24 -13 24c12 0 36 -2 49 -2h60c14 0 37 2 49 2c2 0 10 -19 -12 -24
c-39 -7 -55 -14 -55 -72l1 -523c-14 -21 -106 -97 -249 -97z" />
    <glyph glyph-name="Umacron.ss02" horiz-adv-x="698" 
d="M487 772h-266c-18 0 -12 19 0 24h266c17 0 12 -19 0 -24zM341 -14c-151 0 -238 85 -238 200v420c0 58 -16 65 -55 72c-22 5 -15 24 -12 24c12 0 35 -2 49 -2h132c13 0 37 2 49 2c2 0 9 -19 -13 -24c-38 -7 -54 -14 -54 -72v-410c0 -94 51 -159 191 -159
c88 0 175 37 175 84v485c0 58 -16 65 -54 72c-22 5 -15 24 -13 24c12 0 36 -2 49 -2h60c14 0 37 2 49 2c2 0 10 -19 -12 -24c-39 -7 -55 -14 -55 -72l1 -523c-14 -21 -106 -97 -249 -97z" />
    <glyph glyph-name="Uogonek.ss02" horiz-adv-x="698" 
d="M656 702c2 0 10 -19 -12 -24c-39 -7 -55 -14 -55 -72l1 -523c-3 -5 -12 -14 -24 -24h3c-52 -40 -63 -68 -63 -100c0 -29 15 -48 45 -48c29 0 48 18 48 55c6 7 19 5 19 -8c0 -41 -28 -82 -91 -82c-49 0 -84 20 -84 62c0 27 11 51 29 71c-36 -14 -81 -23 -131 -23
c-151 0 -238 85 -238 200v420c0 58 -16 65 -55 72c-22 5 -15 24 -12 24c12 0 35 -2 49 -2h132c13 0 37 2 49 2c2 0 9 -19 -13 -24c-38 -7 -54 -14 -54 -72v-410c0 -94 51 -159 191 -159c88 0 175 37 175 84v485c0 58 -16 65 -54 72c-22 5 -15 24 -13 24c12 0 36 -2 49 -2h60
c14 0 37 2 49 2z" />
    <glyph glyph-name="Uring.ss02" horiz-adv-x="698" 
d="M346 740c-57 0 -102 36 -102 88c0 46 42 95 114 94c58 -1 105 -37 105 -87c0 -49 -43 -95 -117 -95zM367 766c34 0 55 13 55 48c-1 35 -35 82 -81 82c-36 0 -56 -14 -56 -48c1 -36 35 -82 82 -82zM341 -14c-151 0 -238 85 -238 200v420c0 58 -16 65 -55 72
c-22 5 -15 24 -12 24c12 0 35 -2 49 -2h132c13 0 37 2 49 2c2 0 9 -19 -13 -24c-38 -7 -54 -14 -54 -72v-410c0 -94 51 -159 191 -159c88 0 175 37 175 84v485c0 58 -16 65 -54 72c-22 5 -15 24 -13 24c12 0 36 -2 49 -2h60c14 0 37 2 49 2c2 0 10 -19 -12 -24
c-39 -7 -55 -14 -55 -72l1 -523c-14 -21 -106 -97 -249 -97z" />
    <glyph glyph-name="Utilde.ss02" horiz-adv-x="698" 
d="M218 751c-8 -13 -27 -2 -26 -1c26 84 80 104 160 73l41 -16c53 -21 74 -11 95 26c10 14 27 2 27 1c-27 -83 -77 -106 -159 -74l-43 17c-54 23 -77 9 -95 -26zM341 -14c-151 0 -238 85 -238 200v420c0 58 -16 65 -55 72c-22 5 -15 24 -12 24c12 0 35 -2 49 -2h132
c13 0 37 2 49 2c2 0 9 -19 -13 -24c-38 -7 -54 -14 -54 -72v-410c0 -94 51 -159 191 -159c88 0 175 37 175 84v485c0 58 -16 65 -54 72c-22 5 -15 24 -13 24c12 0 36 -2 49 -2h60c14 0 37 2 49 2c2 0 10 -19 -12 -24c-39 -7 -55 -14 -55 -72l1 -523
c-14 -21 -106 -97 -249 -97z" />
    <glyph glyph-name="Aacute.ss03" horiz-adv-x="735" 
d="M275 739c-15 0 -22 10 -17 19c123 56 105 110 144 113c44 3 65 -1 65 -17c0 -39 -149 -115 -192 -115zM712 24c17 -4 15 -26 6 -25c-46 3 -183 3 -230 0c-8 0 -10 22 5 24c39 1 74 11 51 64l-69 164h-289l-69 -164c-22 -53 18 -62 58 -64c17 -2 12 -24 4 -24
c-47 3 -115 3 -163 0c-9 -1 -10 23 6 25c26 2 44 6 67 62l69 165h-55c-12 0 -19 26 0 26h66l137 328c8 20 5 37 0 46l1 -1l-15 36c-5 11 -2 14 6 14c7 0 37 2 61 2s31 -5 42 -31l245 -585c21 -51 36 -58 66 -62zM330 596l-134 -319h268z" />
    <glyph glyph-name="Abreve.ss03" horiz-adv-x="735" 
d="M353 741c-94 0 -126 77 -126 119c0 12 10 14 33 14c33 0 39 -4 39 -14c0 -35 15 -86 76 -86c73 0 82 57 82 83c0 11 9 15 20 15c3 0 4 -1 4 -8c0 -44 -22 -123 -128 -123zM712 24c17 -4 15 -26 6 -25c-46 3 -183 3 -230 0c-8 0 -10 22 5 24c39 1 74 11 51 64l-69 164
h-289l-69 -164c-22 -53 18 -62 58 -64c17 -2 12 -24 4 -24c-47 3 -115 3 -163 0c-9 -1 -10 23 6 25c26 2 44 6 67 62l69 165h-55c-12 0 -19 26 0 26h66l137 328c8 20 5 37 0 46l1 -1l-15 36c-5 11 -2 14 6 14c7 0 37 2 61 2s31 -5 42 -31l245 -585c21 -51 36 -58 66 -62z
M330 596l-134 -319h268z" />
    <glyph glyph-name="uni01CD.ss03" horiz-adv-x="735" 
d="M358 740c-63 0 -41 72 -154 108c-1 9 6 17 21 17c24 -1 101 -40 133 -77c33 38 111 76 133 77c16 0 23 -8 22 -17c-113 -36 -91 -108 -155 -108zM712 24c17 -4 15 -26 6 -25c-46 3 -183 3 -230 0c-8 0 -10 22 5 24c39 1 74 11 51 64l-69 164h-289l-69 -164
c-22 -53 18 -62 58 -64c17 -2 12 -24 4 -24c-47 3 -115 3 -163 0c-9 -1 -10 23 6 25c26 2 44 6 67 62l69 165h-55c-12 0 -19 26 0 26h66l137 328c8 20 5 37 0 46l1 -1l-15 36c-5 11 -2 14 6 14c7 0 37 2 61 2s31 -5 42 -31l245 -585c21 -51 36 -58 66 -62zM330 596
l-134 -319h268z" />
    <glyph glyph-name="Acircumflex.ss03" horiz-adv-x="735" 
d="M218 736c-16 0 -23 8 -22 18c119 39 95 118 162 118s43 -78 162 -118c1 -10 -6 -18 -23 -18c-25 0 -105 43 -139 84c-34 -42 -117 -84 -140 -84zM712 24c17 -4 15 -26 6 -25c-46 3 -183 3 -230 0c-8 0 -10 22 5 24c39 1 74 11 51 64l-69 164h-289l-69 -164
c-22 -53 18 -62 58 -64c17 -2 12 -24 4 -24c-47 3 -115 3 -163 0c-9 -1 -10 23 6 25c26 2 44 6 67 62l69 165h-55c-12 0 -19 26 0 26h66l137 328c8 20 5 37 0 46l1 -1l-15 36c-5 11 -2 14 6 14c7 0 37 2 61 2s31 -5 42 -31l245 -585c21 -51 36 -58 66 -62zM330 596
l-134 -319h268z" />
    <glyph glyph-name="uni1EAC.ss03" horiz-adv-x="735" 
d="M218 736c-16 0 -23 8 -22 18c119 39 95 118 162 118s43 -78 162 -118c1 -10 -6 -18 -23 -18c-25 0 -105 43 -139 84c-34 -42 -117 -84 -140 -84zM712 24c17 -4 15 -26 6 -25c-46 3 -183 3 -230 0c-8 0 -10 22 5 24c39 1 74 11 51 64l-69 164h-289l-69 -164
c-22 -53 18 -62 58 -64c17 -2 12 -24 4 -24c-47 3 -115 3 -163 0c-9 -1 -10 23 6 25c26 2 44 6 67 62l69 165h-55c-12 0 -19 26 0 26h66l137 328c8 20 5 37 0 46l1 -1l-15 36c-5 11 -2 14 6 14c7 0 37 2 61 2s31 -5 42 -31l245 -585c21 -51 36 -58 66 -62zM330 596
l-134 -319h268zM341 -57c27 0 49 -19 48 -44c0 -27 -24 -52 -58 -52c-29 0 -50 20 -50 45c0 28 24 51 60 51z" />
    <glyph glyph-name="Adieresis.ss03" horiz-adv-x="735" 
d="M281 753c-28 0 -49 20 -49 44c0 29 24 52 60 52c26 0 48 -20 48 -44c0 -28 -24 -52 -59 -52zM431 753c-28 0 -49 20 -49 44c0 29 24 52 60 52c26 0 48 -20 48 -44c0 -28 -24 -52 -59 -52zM712 24c17 -4 15 -26 6 -25c-46 3 -183 3 -230 0c-8 0 -10 22 5 24
c39 1 74 11 51 64l-69 164h-289l-69 -164c-22 -53 18 -62 58 -64c17 -2 12 -24 4 -24c-47 3 -115 3 -163 0c-9 -1 -10 23 6 25c26 2 44 6 67 62l69 165h-55c-12 0 -19 26 0 26h66l137 328c8 20 5 37 0 46l1 -1l-15 36c-5 11 -2 14 6 14c7 0 37 2 61 2s31 -5 42 -31l245 -585
c21 -51 36 -58 66 -62zM330 596l-134 -319h268z" />
    <glyph glyph-name="Agrave.ss03" horiz-adv-x="735" 
d="M375 739c-43 0 -192 76 -193 115c0 16 22 20 66 17c39 -3 21 -57 143 -113c6 -9 -1 -19 -16 -19zM712 24c17 -4 15 -26 6 -25c-46 3 -183 3 -230 0c-8 0 -10 22 5 24c39 1 74 11 51 64l-69 164h-289l-69 -164c-22 -53 18 -62 58 -64c17 -2 12 -24 4 -24
c-47 3 -115 3 -163 0c-9 -1 -10 23 6 25c26 2 44 6 67 62l69 165h-55c-12 0 -19 26 0 26h66l137 328c8 20 5 37 0 46l1 -1l-15 36c-5 11 -2 14 6 14c7 0 37 2 61 2s31 -5 42 -31l245 -585c21 -51 36 -58 66 -62zM330 596l-134 -319h268z" />
    <glyph glyph-name="Amacron.ss03" horiz-adv-x="735" 
d="M491 772h-266c-18 0 -12 19 0 24h266c17 0 12 -19 0 -24zM712 24c17 -4 15 -26 6 -25c-46 3 -183 3 -230 0c-8 0 -10 22 5 24c39 1 74 11 51 64l-69 164h-289l-69 -164c-22 -53 18 -62 58 -64c17 -2 12 -24 4 -24c-47 3 -115 3 -163 0c-9 -1 -10 23 6 25c26 2 44 6 67 62
l69 165h-55c-12 0 -19 26 0 26h66l137 328c8 20 5 37 0 46l1 -1l-15 36c-5 11 -2 14 6 14c7 0 37 2 61 2s31 -5 42 -31l245 -585c21 -51 36 -58 66 -62zM330 596l-134 -319h268z" />
    <glyph glyph-name="Aogonek.ss03" horiz-adv-x="735" 
d="M667 1c-49 -39 -59 -66 -59 -97c0 -29 15 -48 45 -48c29 0 48 18 48 55c6 7 19 5 19 -8c0 -41 -28 -82 -91 -82c-49 0 -84 20 -84 62c-1 52 42 90 94 118c-56 1 -121 0 -151 -2c-8 0 -10 22 5 24c39 1 74 11 51 64l-69 164h-289l-69 -164c-22 -53 18 -62 58 -64
c17 -2 12 -24 4 -24c-47 3 -115 3 -163 0c-9 -1 -10 23 6 25c26 2 44 6 67 62l69 165h-55c-12 0 -19 26 0 26h66l137 328c8 20 5 37 0 46l1 -1l-15 36c-5 11 -2 14 6 14c7 0 37 2 61 2s31 -5 42 -31l245 -585c21 -51 36 -58 66 -62c17 -4 15 -26 6 -25c-12 1 -30 1 -51 2z
M330 596l-134 -319h268z" />
    <glyph glyph-name="Aring.ss03" horiz-adv-x="735" 
d="M350 740c-57 0 -102 36 -102 88c0 46 42 95 114 94c58 -1 105 -37 105 -87c0 -49 -43 -95 -117 -95zM345 896c-36 0 -56 -14 -56 -48c1 -36 35 -82 82 -82c34 0 55 13 55 48c-1 35 -35 82 -81 82zM712 24c17 -4 15 -26 6 -25c-46 3 -183 3 -230 0c-8 0 -10 22 5 24
c39 1 74 11 51 64l-69 164h-289l-69 -164c-22 -53 18 -62 58 -64c17 -2 12 -24 4 -24c-47 3 -115 3 -163 0c-9 -1 -10 23 6 25c26 2 44 6 67 62l69 165h-55c-12 0 -19 26 0 26h66l137 328c8 20 5 37 0 46l1 -1l-15 36c-5 11 -2 14 6 14c7 0 37 2 61 2s31 -5 42 -31l245 -585
c21 -51 36 -58 66 -62zM330 596l-134 -319h268z" />
    <glyph glyph-name="Aringacute.ss03" horiz-adv-x="735" 
d="M275 947c-15 0 -22 10 -17 19c123 56 105 110 144 113c44 3 65 -1 65 -17c0 -39 -149 -115 -192 -115zM350 740c-57 0 -102 36 -102 88c0 46 42 95 114 94c58 -1 105 -37 105 -87c0 -49 -43 -95 -117 -95zM345 896c-36 0 -56 -14 -56 -48c1 -36 35 -82 82 -82
c34 0 55 13 55 48c-1 35 -35 82 -81 82zM712 24c17 -4 15 -26 6 -25c-46 3 -183 3 -230 0c-8 0 -10 22 5 24c39 1 74 11 51 64l-69 164h-289l-69 -164c-22 -53 18 -62 58 -64c17 -2 12 -24 4 -24c-47 3 -115 3 -163 0c-9 -1 -10 23 6 25c26 2 44 6 67 62l69 165h-55
c-12 0 -19 26 0 26h66l137 328c8 20 5 37 0 46l1 -1l-15 36c-5 11 -2 14 6 14c7 0 37 2 61 2s31 -5 42 -31l245 -585c21 -51 36 -58 66 -62zM330 596l-134 -319h268z" />
    <glyph glyph-name="Atilde.ss03" horiz-adv-x="735" 
d="M223 751c-8 -13 -27 -2 -26 -1c26 84 80 104 160 73l41 -16c53 -21 74 -11 95 26c10 14 27 2 27 1c-27 -83 -77 -106 -159 -74l-43 17c-54 23 -77 9 -95 -26zM712 24c17 -4 15 -26 6 -25c-46 3 -183 3 -230 0c-8 0 -10 22 5 24c39 1 74 11 51 64l-69 164h-289l-69 -164
c-22 -53 18 -62 58 -64c17 -2 12 -24 4 -24c-47 3 -115 3 -163 0c-9 -1 -10 23 6 25c26 2 44 6 67 62l69 165h-55c-12 0 -19 26 0 26h66l137 328c8 20 5 37 0 46l1 -1l-15 36c-5 11 -2 14 6 14c7 0 37 2 61 2s31 -5 42 -31l245 -585c21 -51 36 -58 66 -62zM330 596
l-134 -319h268z" />
    <glyph glyph-name="Hbar.ss03" horiz-adv-x="793" 
d="M732 22c22 -5 14 -24 12 -24c-12 0 -35 2 -49 2h-132c-14 0 -37 -2 -49 -2c-2 0 -9 19 13 24c38 7 54 14 54 72v256l-368 1v-257c0 -58 15 -65 54 -72c22 -5 15 -24 12 -24c-12 0 -35 2 -49 2h-131c-14 0 -37 -2 -50 -2c-2 0 -9 19 13 24c38 7 54 14 54 72v257h-54
c-14 0 -21 26 -1 26h55v130h-40c-16 0 -16 25 0 25h40v74c0 58 -16 65 -54 72c-22 5 -15 24 -13 24c13 0 36 -2 50 -2h131c14 0 37 2 49 2c3 0 10 -19 -12 -24c-39 -7 -54 -14 -54 -72v-74h368v74c0 58 -16 65 -54 72c-22 5 -15 24 -13 24c12 0 35 -2 49 -2h132
c14 0 37 2 49 2c2 0 10 -19 -12 -24c-39 -7 -55 -14 -55 -72v-74h40c17 0 17 -25 0 -25h-40v-413c0 -58 16 -65 55 -72zM213 507v-130l368 -1v131h-368z" />
    <glyph glyph-name="uni1E2A.ss03" horiz-adv-x="793" 
d="M732 22c22 -5 14 -24 12 -24c-12 0 -35 2 -49 2h-132c-14 0 -37 -2 -49 -2c-2 0 -9 19 13 24c38 7 54 14 54 72v256l-368 1v-257c0 -58 15 -65 54 -72c22 -5 15 -24 12 -24c-12 0 -35 2 -49 2h-131c-14 0 -37 -2 -50 -2c-2 0 -9 19 13 24c38 7 54 14 54 72v257h-54
c-14 0 -21 26 -1 26h55v229c0 58 -16 65 -54 72c-22 5 -15 24 -13 24c13 0 36 -2 50 -2h131c14 0 37 2 49 2c3 0 10 -19 -12 -24c-39 -7 -54 -14 -54 -72v-229l368 -1v230c0 58 -16 65 -54 72c-22 5 -15 24 -13 24c12 0 35 -2 49 -2h132c14 0 37 2 49 2c2 0 10 -19 -12 -24
c-39 -7 -55 -14 -55 -72v-512c0 -58 16 -65 55 -72zM514 -63c4 0 5 -1 5 -8c0 -44 -23 -123 -128 -123c-94 0 -126 77 -126 119c0 12 10 14 33 14c32 0 39 -4 39 -14c0 -35 15 -86 76 -86c73 0 82 57 82 83c0 11 8 15 19 15z" />
    <glyph glyph-name="Hcircumflex.ss03" horiz-adv-x="793" 
d="M256 736c-16 0 -23 8 -22 18c119 39 95 118 162 118s43 -78 162 -118c1 -10 -6 -18 -23 -18c-25 0 -105 43 -139 84c-34 -42 -117 -84 -140 -84zM732 22c22 -5 14 -24 12 -24c-12 0 -35 2 -49 2h-132c-14 0 -37 -2 -49 -2c-2 0 -9 19 13 24c38 7 54 14 54 72v256l-368 1
v-257c0 -58 15 -65 54 -72c22 -5 15 -24 12 -24c-12 0 -35 2 -49 2h-131c-14 0 -37 -2 -50 -2c-2 0 -9 19 13 24c38 7 54 14 54 72v257h-54c-14 0 -21 26 -1 26h55v229c0 58 -16 65 -54 72c-22 5 -15 24 -13 24c13 0 36 -2 50 -2h131c14 0 37 2 49 2c3 0 10 -19 -12 -24
c-39 -7 -54 -14 -54 -72v-229l368 -1v230c0 58 -16 65 -54 72c-22 5 -15 24 -13 24c12 0 35 -2 49 -2h132c14 0 37 2 49 2c2 0 10 -19 -12 -24c-39 -7 -55 -14 -55 -72v-512c0 -58 16 -65 55 -72z" />
    <glyph glyph-name="uni1E24.ss03" horiz-adv-x="793" 
d="M732 22c22 -5 14 -24 12 -24c-12 0 -35 2 -49 2h-132c-14 0 -37 -2 -49 -2c-2 0 -9 19 13 24c38 7 54 14 54 72v256l-368 1v-257c0 -58 15 -65 54 -72c22 -5 15 -24 12 -24c-12 0 -35 2 -49 2h-131c-14 0 -37 -2 -50 -2c-2 0 -9 19 13 24c38 7 54 14 54 72v257h-54
c-14 0 -21 26 -1 26h55v229c0 58 -16 65 -54 72c-22 5 -15 24 -13 24c13 0 36 -2 50 -2h131c14 0 37 2 49 2c3 0 10 -19 -12 -24c-39 -7 -54 -14 -54 -72v-229l368 -1v230c0 58 -16 65 -54 72c-22 5 -15 24 -13 24c12 0 35 -2 49 -2h132c14 0 37 2 49 2c2 0 10 -19 -12 -24
c-39 -7 -55 -14 -55 -72v-512c0 -58 16 -65 55 -72zM406 -57c27 0 49 -19 48 -44c0 -27 -24 -52 -58 -52c-29 0 -50 20 -50 45c0 28 24 51 60 51z" />
    <glyph glyph-name="uni0136.ss03" horiz-adv-x="667" 
d="M656 22c21 -5 14 -24 12 -24c-11 0 -33 2 -46 2h-84c-14 0 -22 5 -27 12l-190 265v61l-109 -145v-99c0 -58 16 -65 54 -72c22 -5 15 -24 13 -24c-12 0 -36 2 -49 2h-131c-14 0 -37 -2 -50 -2c-2 0 -9 19 13 24c38 7 54 14 54 72v578c0 17 -5 19 -16 21c-7 2 -4 8 -4 8
l15 -1h119c13 0 37 2 49 2c2 0 9 -19 -13 -24c-38 -7 -54 -14 -54 -72v-372l109 145v37c0 7 3 8 6 8c2 0 4 0 7 -4l9 -12l157 208c35 47 16 55 -22 62c-22 5 -15 24 -13 24c12 0 36 -2 49 -2h70c17 0 45 2 59 2c3 0 11 -19 -15 -24c-46 -7 -63 -15 -98 -62l-172 -229
l216 -303c34 -47 46 -55 82 -62zM348 -59c29 0 43 -21 43 -49c0 -66 -42 -123 -81 -140c-10 -1 -10 12 -5 14c34 22 45 50 45 76c-1 26 -51 6 -51 50c0 23 17 49 49 49z" />
    <glyph glyph-name="Racute.ss03" horiz-adv-x="667" 
d="M247 739c-15 0 -22 10 -17 19c123 56 105 110 144 113c44 3 65 -1 65 -17c0 -39 -149 -115 -192 -115zM655 22c21 -5 14 -24 12 -24c-12 0 -35 2 -49 2h-80c-14 0 -21 4 -28 12l-216 235l-1 53c-25 0 -51 1 -80 3v-209c0 -58 15 -65 54 -72c22 -5 15 -24 12 -24
c-12 0 -35 2 -49 2h-131c-14 0 -37 -2 -50 -2c-2 0 -9 19 13 24c38 7 54 14 54 72v512c0 58 -16 65 -54 72c-22 5 -15 24 -13 24c12 0 36 -2 49 -2c96 1 168 3 239 3c189 0 284 -74 284 -194c0 -109 -69 -193 -264 -207l207 -222c39 -43 52 -51 91 -58zM213 631v-303
c29 -1 56 -1 80 0v25c0 7 3 8 6 8c2 0 3 0 7 -4l25 -27c143 14 182 72 182 172c0 111 -71 171 -190 171h-72c-34 0 -38 -6 -38 -42z" />
    <glyph glyph-name="Rcaron.ss03" horiz-adv-x="667" 
d="M330 740c-63 0 -41 72 -154 108c-1 9 6 17 21 17c24 -1 101 -40 133 -77c33 38 111 76 133 77c16 0 23 -8 22 -17c-113 -36 -91 -108 -155 -108zM655 22c21 -5 14 -24 12 -24c-12 0 -35 2 -49 2h-80c-14 0 -21 4 -28 12l-216 235l-1 53c-25 0 -51 1 -80 3v-209
c0 -58 15 -65 54 -72c22 -5 15 -24 12 -24c-12 0 -35 2 -49 2h-131c-14 0 -37 -2 -50 -2c-2 0 -9 19 13 24c38 7 54 14 54 72v512c0 58 -16 65 -54 72c-22 5 -15 24 -13 24c12 0 36 -2 49 -2c96 1 168 3 239 3c189 0 284 -74 284 -194c0 -109 -69 -193 -264 -207l207 -222
c39 -43 52 -51 91 -58zM213 631v-303c29 -1 56 -1 80 0v25c0 7 3 8 6 8c2 0 3 0 7 -4l25 -27c143 14 182 72 182 172c0 111 -71 171 -190 171h-72c-34 0 -38 -6 -38 -42z" />
    <glyph glyph-name="uni0156.ss03" horiz-adv-x="667" 
d="M655 22c21 -5 14 -24 12 -24c-12 0 -35 2 -49 2h-80c-14 0 -21 4 -28 12l-216 235l-1 53c-25 0 -51 1 -80 3v-209c0 -58 15 -65 54 -72c22 -5 15 -24 12 -24c-12 0 -35 2 -49 2h-131c-14 0 -37 -2 -50 -2c-2 0 -9 19 13 24c38 7 54 14 54 72v512c0 58 -16 65 -54 72
c-22 5 -15 24 -13 24c12 0 36 -2 49 -2c96 1 168 3 239 3c189 0 284 -74 284 -194c0 -109 -69 -193 -264 -207l207 -222c39 -43 52 -51 91 -58zM213 631v-303c29 -1 56 -1 80 0v25c0 7 3 8 6 8c2 0 3 0 7 -4l25 -27c143 14 182 72 182 172c0 111 -71 171 -190 171h-72
c-34 0 -38 -6 -38 -42zM331 -59c29 0 43 -21 43 -49c0 -66 -42 -123 -81 -140c-10 -1 -10 12 -5 14c34 22 45 50 45 76c-1 26 -51 6 -51 50c0 23 17 49 49 49z" />
    <glyph glyph-name="uni1E5A.ss03" horiz-adv-x="667" 
d="M655 22c21 -5 14 -24 12 -24c-12 0 -35 2 -49 2h-80c-14 0 -21 4 -28 12l-216 235l-1 53c-25 0 -51 1 -80 3v-209c0 -58 15 -65 54 -72c22 -5 15 -24 12 -24c-12 0 -35 2 -49 2h-131c-14 0 -37 -2 -50 -2c-2 0 -9 19 13 24c38 7 54 14 54 72v512c0 58 -16 65 -54 72
c-22 5 -15 24 -13 24c12 0 36 -2 49 -2c96 1 168 3 239 3c189 0 284 -74 284 -194c0 -109 -69 -193 -264 -207l207 -222c39 -43 52 -51 91 -58zM213 631v-303c29 -1 56 -1 80 0v25c0 7 3 8 6 8c2 0 3 0 7 -4l25 -27c143 14 182 72 182 172c0 111 -71 171 -190 171h-72
c-34 0 -38 -6 -38 -42zM340 -57c27 0 49 -19 48 -44c0 -27 -24 -52 -58 -52c-29 0 -50 20 -50 45c0 28 24 51 60 51z" />
    <glyph glyph-name="uni1E5C.ss03" horiz-adv-x="667" 
d="M463 772h-266c-18 0 -12 19 0 24h266c17 0 12 -19 0 -24zM655 22c21 -5 14 -24 12 -24c-12 0 -35 2 -49 2h-80c-14 0 -21 4 -28 12l-216 235l-1 53c-25 0 -51 1 -80 3v-209c0 -58 15 -65 54 -72c22 -5 15 -24 12 -24c-12 0 -35 2 -49 2h-131c-14 0 -37 -2 -50 -2
c-2 0 -9 19 13 24c38 7 54 14 54 72v512c0 58 -16 65 -54 72c-22 5 -15 24 -13 24c12 0 36 -2 49 -2c96 1 168 3 239 3c189 0 284 -74 284 -194c0 -109 -69 -193 -264 -207l207 -222c39 -43 52 -51 91 -58zM213 631v-303c29 -1 56 -1 80 0v25c0 7 3 8 6 8c2 0 3 0 7 -4
l25 -27c143 14 182 72 182 172c0 111 -71 171 -190 171h-72c-34 0 -38 -6 -38 -42zM340 -57c27 0 49 -19 48 -44c0 -27 -24 -52 -58 -52c-29 0 -50 20 -50 45c0 28 24 51 60 51z" />
    <glyph glyph-name="uni1E5E.ss03" horiz-adv-x="667" 
d="M655 22c21 -5 14 -24 12 -24c-12 0 -35 2 -49 2h-80c-14 0 -21 4 -28 12l-216 235l-1 53c-25 0 -51 1 -80 3v-209c0 -58 15 -65 54 -72c22 -5 15 -24 12 -24c-12 0 -35 2 -49 2h-131c-14 0 -37 -2 -50 -2c-2 0 -9 19 13 24c38 7 54 14 54 72v512c0 58 -16 65 -54 72
c-22 5 -15 24 -13 24c12 0 36 -2 49 -2c96 1 168 3 239 3c189 0 284 -74 284 -194c0 -109 -69 -193 -264 -207l207 -222c39 -43 52 -51 91 -58zM213 631v-303c29 -1 56 -1 80 0v25c0 7 3 8 6 8c2 0 3 0 7 -4l25 -27c143 14 182 72 182 172c0 111 -71 171 -190 171h-72
c-34 0 -38 -6 -38 -42zM197 -93h266c18 0 12 -19 0 -25h-266c-17 0 -12 20 0 25z" />
    <glyph glyph-name="Q.calt.ss03" horiz-adv-x="820" 
d="M1378 -30c11 5 22 -5 9 -17c-101 -86 -297 -145 -495 -145c-337 0 -483 81 -615 88c-44 -16 -81 -28 -111 -36c-54 -12 -47 52 49 73c35 6 70 8 106 6c40 16 79 32 116 49c-17 -2 -34 -3 -52 -3c-201 0 -344 147 -344 352c0 210 171 376 388 376c205 0 350 -149 350 -349
c0 -168 -92 -298 -236 -352c-60 -29 -117 -55 -171 -78c138 -17 299 -67 531 -67c184 0 369 35 475 103zM138 405c0 -171 126 -384 295 -384c150 0 248 106 248 280c0 169 -127 377 -298 377c-141 0 -245 -117 -245 -273z" />
    <glyph glyph-name="uni0136.ss06" horiz-adv-x="761" 
d="M741 116c1 6 30 10 28 -19c-4 -65 -43 -109 -110 -109c-81 0 -113 63 -155 189c-45 133 -72 164 -136 164c-35 0 -57 -5 -85 -31l-70 -83v-133c0 -58 15 -65 54 -72c22 -5 15 -24 12 -24c-12 0 -35 2 -49 2h-131c-14 0 -37 -2 -50 -2c-2 0 -9 19 13 24c38 7 54 14 54 72
v512c0 58 -16 65 -54 72c-22 5 -15 24 -13 24c13 0 36 -2 50 -2h131c14 0 37 2 49 2c3 0 10 -19 -12 -24c-39 -7 -54 -14 -54 -72v-343l293 355c37 45 18 53 -20 60c-22 5 -15 24 -13 24c12 0 35 -2 49 -2h75c13 0 37 2 49 2c2 0 9 -19 -13 -24c-38 -7 -51 -15 -89 -60
l-214 -253c28 17 56 23 86 23c79 0 133 -34 178 -171c41 -122 58 -157 97 -157c28 0 41 17 50 56zM389 -59c29 0 43 -21 43 -49c0 -66 -42 -123 -81 -140c-10 -1 -10 12 -5 14c34 22 45 50 45 76c-1 26 -51 6 -51 50c0 23 17 49 49 49z" />
    <glyph glyph-name="Racute.ss06" horiz-adv-x="728" 
d="M280 739c-15 0 -22 10 -17 19c123 56 105 110 144 113c44 3 65 -1 65 -17c0 -39 -149 -115 -192 -115zM678 115c1 5 28 10 28 -18c-2 -64 -43 -109 -110 -109c-70 0 -111 47 -136 185c-22 110 -66 126 -130 127h-71c-8 0 -10 25 7 26l66 2c114 6 181 55 181 171
c0 104 -71 177 -196 179h-71c-24 0 -33 -7 -33 -35v-570c0 -45 12 -50 42 -56c17 -4 11 -19 10 -19c-10 0 -28 2 -39 2h-127c-14 0 -37 -2 -50 -2c-2 0 -9 19 13 24c38 7 54 14 54 72v512c0 58 -16 65 -54 72c-22 5 -15 24 -13 24c12 0 36 -2 49 -2c96 1 168 3 239 3
c189 0 284 -82 284 -205c0 -119 -89 -180 -209 -186c71 -4 119 -22 147 -126c21 -85 32 -126 70 -126c27 0 40 15 49 55z" />
    <glyph glyph-name="Rcaron.ss06" horiz-adv-x="728" 
d="M363 740c-63 0 -41 72 -154 108c-1 9 6 17 21 17c24 -1 101 -40 133 -77c33 38 111 76 133 77c16 0 23 -8 22 -17c-113 -36 -91 -108 -155 -108zM678 115c1 5 28 10 28 -18c-2 -64 -43 -109 -110 -109c-70 0 -111 47 -136 185c-22 110 -66 126 -130 127h-71
c-8 0 -10 25 7 26l66 2c114 6 181 55 181 171c0 104 -71 177 -196 179h-71c-24 0 -33 -7 -33 -35v-570c0 -45 12 -50 42 -56c17 -4 11 -19 10 -19c-10 0 -28 2 -39 2h-127c-14 0 -37 -2 -50 -2c-2 0 -9 19 13 24c38 7 54 14 54 72v512c0 58 -16 65 -54 72
c-22 5 -15 24 -13 24c12 0 36 -2 49 -2c96 1 168 3 239 3c189 0 284 -82 284 -205c0 -119 -89 -180 -209 -186c71 -4 119 -22 147 -126c21 -85 32 -126 70 -126c27 0 40 15 49 55z" />
    <glyph glyph-name="uni0156.ss06" horiz-adv-x="728" 
d="M678 115c1 5 28 10 28 -18c-2 -64 -43 -109 -110 -109c-70 0 -111 47 -136 185c-22 110 -66 126 -130 127h-71c-8 0 -10 25 7 26l66 2c114 6 181 55 181 171c0 104 -71 177 -196 179h-71c-24 0 -33 -7 -33 -35v-570c0 -45 12 -50 42 -56c17 -4 11 -19 10 -19
c-10 0 -28 2 -39 2h-127c-14 0 -37 -2 -50 -2c-2 0 -9 19 13 24c38 7 54 14 54 72v512c0 58 -16 65 -54 72c-22 5 -15 24 -13 24c12 0 36 -2 49 -2c96 1 168 3 239 3c189 0 284 -82 284 -205c0 -119 -89 -180 -209 -186c71 -4 119 -22 147 -126c21 -85 32 -126 70 -126
c27 0 40 15 49 55zM365 -59c29 0 43 -21 43 -49c0 -66 -42 -123 -81 -140c-10 -1 -10 12 -5 14c34 22 45 50 45 76c-1 26 -51 6 -51 50c0 23 17 49 49 49z" />
    <glyph glyph-name="uni1E5A.ss06" horiz-adv-x="728" 
d="M678 115c1 5 28 10 28 -18c-2 -64 -43 -109 -110 -109c-70 0 -111 47 -136 185c-22 110 -66 126 -130 127h-71c-8 0 -10 25 7 26l66 2c114 6 181 55 181 171c0 104 -71 177 -196 179h-71c-24 0 -33 -7 -33 -35v-570c0 -45 12 -50 42 -56c17 -4 11 -19 10 -19
c-10 0 -28 2 -39 2h-127c-14 0 -37 -2 -50 -2c-2 0 -9 19 13 24c38 7 54 14 54 72v512c0 58 -16 65 -54 72c-22 5 -15 24 -13 24c12 0 36 -2 49 -2c96 1 168 3 239 3c189 0 284 -82 284 -205c0 -119 -89 -180 -209 -186c71 -4 119 -22 147 -126c21 -85 32 -126 70 -126
c27 0 40 15 49 55zM374 -57c27 0 49 -19 48 -44c0 -27 -24 -52 -58 -52c-29 0 -50 20 -50 45c0 28 24 51 60 51z" />
    <glyph glyph-name="uni1E5C.ss06" horiz-adv-x="728" 
d="M497 772h-266c-18 0 -12 19 0 24h266c17 0 12 -19 0 -24zM678 115c1 5 28 10 28 -18c-2 -64 -43 -109 -110 -109c-70 0 -111 47 -136 185c-22 110 -66 126 -130 127h-71c-8 0 -10 25 7 26l66 2c114 6 181 55 181 171c0 104 -71 177 -196 179h-71c-24 0 -33 -7 -33 -35
v-570c0 -45 12 -50 42 -56c17 -4 11 -19 10 -19c-10 0 -28 2 -39 2h-127c-14 0 -37 -2 -50 -2c-2 0 -9 19 13 24c38 7 54 14 54 72v512c0 58 -16 65 -54 72c-22 5 -15 24 -13 24c12 0 36 -2 49 -2c96 1 168 3 239 3c189 0 284 -82 284 -205c0 -119 -89 -180 -209 -186
c71 -4 119 -22 147 -126c21 -85 32 -126 70 -126c27 0 40 15 49 55zM374 -57c27 0 49 -19 48 -44c0 -27 -24 -52 -58 -52c-29 0 -50 20 -50 45c0 28 24 51 60 51z" />
    <glyph glyph-name="uni1E5E.ss06" horiz-adv-x="728" 
d="M678 115c1 5 28 10 28 -18c-2 -64 -43 -109 -110 -109c-70 0 -111 47 -136 185c-22 110 -66 126 -130 127h-71c-8 0 -10 25 7 26l66 2c114 6 181 55 181 171c0 104 -71 177 -196 179h-71c-24 0 -33 -7 -33 -35v-570c0 -45 12 -50 42 -56c17 -4 11 -19 10 -19
c-10 0 -28 2 -39 2h-127c-14 0 -37 -2 -50 -2c-2 0 -9 19 13 24c38 7 54 14 54 72v512c0 58 -16 65 -54 72c-22 5 -15 24 -13 24c12 0 36 -2 49 -2c96 1 168 3 239 3c189 0 284 -82 284 -205c0 -119 -89 -180 -209 -186c71 -4 119 -22 147 -126c21 -85 32 -126 70 -126
c27 0 40 15 49 55zM231 -93h266c18 0 12 -19 0 -25h-266c-17 0 -12 20 0 25z" />
    <glyph glyph-name="aacute" unicode="&#xe1;" horiz-adv-x="526" 
d="M219 517c-8 0 -13 5 -12 15c116 74 79 140 122 143c36 4 61 3 61 -15c0 -41 -139 -142 -171 -143zM490 80c2 5 20 6 20 -18c0 -34 -28 -74 -84 -74c-44 0 -77 32 -80 102c-29 -65 -85 -104 -148 -104c-113 0 -163 75 -163 151c0 87 76 148 189 148c38 0 85 -9 122 -25v32
c0 103 -67 137 -133 137c-58 0 -101 -25 -134 -66c-1 -1 -25 9 -6 29c28 44 89 74 170 74c97 0 196 -42 194 -184l-1 -167c0 -47 6 -64 28 -64c17 0 23 16 26 29zM237 43c58 0 103 51 108 125c1 6 1 14 1 20c-26 48 -78 69 -116 69c-68 0 -114 -35 -114 -94
c0 -63 43 -120 121 -120z" />
    <glyph glyph-name="abreve" unicode="&#x103;" horiz-adv-x="526" 
d="M228 513c-94 0 -126 77 -126 119c0 12 10 14 33 14c33 0 39 -4 39 -14c0 -34 15 -86 76 -86c73 0 82 57 82 83c0 12 9 15 20 15c3 0 4 0 4 -8c0 -44 -22 -123 -128 -123zM490 80c2 5 20 6 20 -18c0 -34 -28 -74 -84 -74c-44 0 -77 32 -80 102c-29 -65 -85 -104 -148 -104
c-113 0 -163 75 -163 151c0 87 76 148 189 148c38 0 85 -9 122 -25v32c0 103 -67 137 -133 137c-58 0 -101 -25 -134 -66c-1 -1 -25 9 -6 29c28 44 89 74 170 74c97 0 196 -42 194 -184l-1 -167c0 -47 6 -64 28 -64c17 0 23 16 26 29zM237 43c58 0 103 51 108 125
c1 6 1 14 1 20c-26 48 -78 69 -116 69c-68 0 -114 -35 -114 -94c0 -63 43 -120 121 -120z" />
    <glyph glyph-name="uni01CE" unicode="&#x1ce;" horiz-adv-x="526" 
d="M237 512c-63 0 -41 86 -154 129c-1 12 6 20 21 20c24 0 102 -47 134 -92c32 46 110 92 132 92c16 0 23 -8 22 -20c-113 -42 -91 -129 -155 -129zM490 80c2 5 20 6 20 -18c0 -34 -28 -74 -84 -74c-44 0 -77 32 -80 102c-29 -65 -85 -104 -148 -104
c-113 0 -163 75 -163 151c0 87 76 148 189 148c38 0 85 -9 122 -25v32c0 103 -67 137 -133 137c-58 0 -101 -25 -134 -66c-1 -1 -25 9 -6 29c28 44 89 74 170 74c97 0 196 -42 194 -184l-1 -167c0 -47 6 -64 28 -64c17 0 23 16 26 29zM237 43c58 0 103 51 108 125
c1 6 1 14 1 20c-26 48 -78 69 -116 69c-68 0 -114 -35 -114 -94c0 -63 43 -120 121 -120z" />
    <glyph glyph-name="acircumflex" unicode="&#xe2;" horiz-adv-x="526" 
d="M104 517c-15 0 -22 8 -21 20c113 43 91 129 154 129c64 0 42 -86 155 -129c1 -12 -6 -20 -22 -20c-23 0 -100 47 -133 92c-32 -46 -110 -92 -133 -92zM490 80c2 5 20 6 20 -18c0 -34 -28 -74 -84 -74c-44 0 -77 32 -80 102c-29 -65 -85 -104 -148 -104
c-113 0 -163 75 -163 151c0 87 76 148 189 148c38 0 85 -9 122 -25v32c0 103 -67 137 -133 137c-58 0 -101 -25 -134 -66c-1 -1 -25 9 -6 29c28 44 89 74 170 74c97 0 196 -42 194 -184l-1 -167c0 -47 6 -64 28 -64c17 0 23 16 26 29zM237 43c58 0 103 51 108 125
c1 6 1 14 1 20c-26 48 -78 69 -116 69c-68 0 -114 -35 -114 -94c0 -63 43 -120 121 -120z" />
    <glyph glyph-name="uni1EAD" unicode="&#x1ead;" horiz-adv-x="526" 
d="M104 517c-15 0 -22 8 -21 20c113 43 91 129 154 129c64 0 42 -86 155 -129c1 -12 -6 -20 -22 -20c-23 0 -100 47 -133 92c-32 -46 -110 -92 -133 -92zM490 80c2 5 20 6 20 -18c0 -34 -28 -74 -84 -74c-44 0 -77 32 -80 102c-29 -65 -85 -104 -148 -104
c-113 0 -163 75 -163 151c0 87 76 148 189 148c38 0 85 -9 122 -25v32c0 103 -67 137 -133 137c-58 0 -101 -25 -134 -66c-1 -1 -25 9 -6 29c28 44 89 74 170 74c97 0 196 -42 194 -184l-1 -167c0 -47 6 -64 28 -64c17 0 23 16 26 29zM237 43c58 0 103 51 108 125
c1 6 1 14 1 20c-26 48 -78 69 -116 69c-68 0 -114 -35 -114 -94c0 -63 43 -120 121 -120zM235 -57c27 0 49 -19 48 -44c0 -27 -24 -52 -58 -52c-29 0 -50 20 -50 45c0 28 24 51 60 51z" />
    <glyph glyph-name="adieresis" unicode="&#xe4;" horiz-adv-x="526" 
d="M161 550c-28 0 -49 19 -49 44c0 28 24 51 60 51c27 0 48 -19 48 -44c0 -27 -24 -51 -59 -51zM311 550c-28 0 -49 19 -49 44c0 28 24 51 60 51c26 0 48 -19 48 -44c0 -27 -24 -51 -59 -51zM490 80c2 5 20 6 20 -18c0 -34 -28 -74 -84 -74c-44 0 -77 32 -80 102
c-29 -65 -85 -104 -148 -104c-113 0 -163 75 -163 151c0 87 76 148 189 148c38 0 85 -9 122 -25v32c0 103 -67 137 -133 137c-58 0 -101 -25 -134 -66c-1 -1 -25 9 -6 29c28 44 89 74 170 74c97 0 196 -42 194 -184l-1 -167c0 -47 6 -64 28 -64c17 0 23 16 26 29zM237 43
c58 0 103 51 108 125c1 6 1 14 1 20c-26 48 -78 69 -116 69c-68 0 -114 -35 -114 -94c0 -63 43 -120 121 -120z" />
    <glyph glyph-name="uni1EA1" unicode="&#x1ea1;" horiz-adv-x="526" 
d="M490 80c2 5 20 6 20 -18c0 -34 -28 -74 -84 -74c-44 0 -77 32 -80 102c-29 -65 -85 -104 -148 -104c-113 0 -163 75 -163 151c0 87 76 148 189 148c38 0 85 -9 122 -25v32c0 103 -67 137 -133 137c-58 0 -101 -25 -134 -66c-1 -1 -25 9 -6 29c28 44 89 74 170 74
c97 0 196 -42 194 -184l-1 -167c0 -47 6 -64 28 -64c17 0 23 16 26 29zM237 43c58 0 103 51 108 125c1 6 1 14 1 20c-26 48 -78 69 -116 69c-68 0 -114 -35 -114 -94c0 -63 43 -120 121 -120zM235 -57c27 0 49 -19 48 -44c0 -27 -24 -52 -58 -52c-29 0 -50 20 -50 45
c0 28 24 51 60 51z" />
    <glyph glyph-name="agrave" unicode="&#xe0;" horiz-adv-x="526" 
d="M264 517c-32 1 -171 102 -171 143c0 19 25 19 61 16c44 -4 6 -70 122 -144c1 -10 -4 -15 -12 -15zM490 80c2 5 20 6 20 -18c0 -34 -28 -74 -84 -74c-44 0 -77 32 -80 102c-29 -65 -85 -104 -148 -104c-113 0 -163 75 -163 151c0 87 76 148 189 148c38 0 85 -9 122 -25v32
c0 103 -67 137 -133 137c-58 0 -101 -25 -134 -66c-1 -1 -25 9 -6 29c28 44 89 74 170 74c97 0 196 -42 194 -184l-1 -167c0 -47 6 -64 28 -64c17 0 23 16 26 29zM237 43c58 0 103 51 108 125c1 6 1 14 1 20c-26 48 -78 69 -116 69c-68 0 -114 -35 -114 -94
c0 -63 43 -120 121 -120z" />
    <glyph glyph-name="uni0251" unicode="&#x251;" horiz-adv-x="607" 
d="M573 73c3 1 18 0 18 -19c0 -38 -34 -66 -76 -66c-50 0 -77 31 -83 99l-2 20c-6 16 -17 15 -25 -1c-38 -75 -91 -121 -179 -121c-108 0 -191 92 -191 229c0 138 104 252 239 252c113 0 214 -49 230 -206l17 -163c4 -37 13 -51 27 -51c13 0 22 8 25 27zM278 48
c97 0 140 92 140 168l-2 18c-13 140 -86 201 -159 202c-85 0 -138 -55 -138 -157c0 -117 65 -231 159 -231z" />
    <glyph glyph-name="amacron" unicode="&#x101;" horiz-adv-x="526" 
d="M370 567h-266c-18 0 -12 20 0 25h266c17 0 12 -19 0 -25zM490 80c2 5 20 6 20 -18c0 -34 -28 -74 -84 -74c-44 0 -77 32 -80 102c-29 -65 -85 -104 -148 -104c-113 0 -163 75 -163 151c0 87 76 148 189 148c38 0 85 -9 122 -25v32c0 103 -67 137 -133 137
c-58 0 -101 -25 -134 -66c-1 -1 -25 9 -6 29c28 44 89 74 170 74c97 0 196 -42 194 -184l-1 -167c0 -47 6 -64 28 -64c17 0 23 16 26 29zM237 43c58 0 103 51 108 125c1 6 1 14 1 20c-26 48 -78 69 -116 69c-68 0 -114 -35 -114 -94c0 -63 43 -120 121 -120z" />
    <glyph glyph-name="aogonek" unicode="&#x105;" horiz-adv-x="526" 
d="M506 -88c6 7 19 5 19 -8c0 -41 -28 -82 -91 -82c-49 0 -84 20 -84 62c-1 44 29 78 70 104c-41 3 -71 35 -74 102c-29 -65 -85 -104 -148 -104c-113 0 -163 75 -163 151c0 87 76 148 189 148c38 0 85 -9 122 -25v32c0 103 -67 137 -133 137c-58 0 -101 -25 -134 -66
c-1 -1 -25 9 -6 29c28 44 89 74 170 74c97 0 196 -42 194 -184l-1 -167c0 -47 6 -64 28 -64c17 0 23 16 26 29c2 5 20 6 20 -18c0 -25 -15 -54 -46 -67c-42 -35 -51 -61 -51 -90s15 -48 45 -48c29 0 48 18 48 55zM237 43c58 0 103 51 108 125c1 6 1 14 1 20
c-26 48 -78 69 -116 69c-68 0 -114 -35 -114 -94c0 -63 43 -120 121 -120z" />
    <glyph glyph-name="aring" unicode="&#xe5;" horiz-adv-x="526" 
d="M230 511c-58 0 -103 37 -103 90c0 46 43 96 115 95c58 -1 105 -38 105 -88s-42 -97 -117 -97zM225 669c-37 0 -56 -13 -56 -48c1 -36 34 -83 82 -83c34 0 55 13 55 48c-1 36 -35 83 -81 83zM490 80c2 5 20 6 20 -18c0 -34 -28 -74 -84 -74c-44 0 -77 32 -80 102
c-29 -65 -85 -104 -148 -104c-113 0 -163 75 -163 151c0 87 76 148 189 148c38 0 85 -9 122 -25v32c0 103 -67 137 -133 137c-58 0 -101 -25 -134 -66c-1 -1 -25 9 -6 29c28 44 89 74 170 74c97 0 196 -42 194 -184l-1 -167c0 -47 6 -64 28 -64c17 0 23 16 26 29zM237 43
c58 0 103 51 108 125c1 6 1 14 1 20c-26 48 -78 69 -116 69c-68 0 -114 -35 -114 -94c0 -63 43 -120 121 -120z" />
    <glyph glyph-name="aringacute" unicode="&#x1fb;" horiz-adv-x="526" 
d="M216 716c-8 0 -13 5 -12 15c116 74 79 140 122 143c36 4 61 3 61 -15c0 -41 -139 -142 -171 -143zM230 511c-58 0 -103 37 -103 90c0 46 43 96 115 95c58 -1 105 -38 105 -88s-42 -97 -117 -97zM225 669c-37 0 -56 -13 -56 -48c1 -36 34 -83 82 -83c34 0 55 13 55 48
c-1 36 -35 83 -81 83zM490 80c2 5 20 6 20 -18c0 -34 -28 -74 -84 -74c-44 0 -77 32 -80 102c-29 -65 -85 -104 -148 -104c-113 0 -163 75 -163 151c0 87 76 148 189 148c38 0 85 -9 122 -25v32c0 103 -67 137 -133 137c-58 0 -101 -25 -134 -66c-1 -1 -25 9 -6 29
c28 44 89 74 170 74c97 0 196 -42 194 -184l-1 -167c0 -47 6 -64 28 -64c17 0 23 16 26 29zM237 43c58 0 103 51 108 125c1 6 1 14 1 20c-26 48 -78 69 -116 69c-68 0 -114 -35 -114 -94c0 -63 43 -120 121 -120z" />
    <glyph glyph-name="atilde" unicode="&#xe3;" horiz-adv-x="526" 
d="M102 543c-8 -14 -27 -2 -26 -1c26 83 80 104 160 72l41 -16c53 -21 74 -11 95 27c10 14 27 2 27 1c-27 -84 -77 -106 -159 -74l-43 17c-54 23 -77 9 -95 -26zM490 80c2 5 20 6 20 -18c0 -34 -28 -74 -84 -74c-44 0 -77 32 -80 102c-29 -65 -85 -104 -148 -104
c-113 0 -163 75 -163 151c0 87 76 148 189 148c38 0 85 -9 122 -25v32c0 103 -67 137 -133 137c-58 0 -101 -25 -134 -66c-1 -1 -25 9 -6 29c28 44 89 74 170 74c97 0 196 -42 194 -184l-1 -167c0 -47 6 -64 28 -64c17 0 23 16 26 29zM237 43c58 0 103 51 108 125
c1 6 1 14 1 20c-26 48 -78 69 -116 69c-68 0 -114 -35 -114 -94c0 -63 43 -120 121 -120z" />
    <glyph glyph-name="aeacute" unicode="&#x1fd;" horiz-adv-x="792" 
d="M360 517c-8 0 -13 5 -12 15c116 74 79 140 122 143c36 4 61 3 61 -15c0 -41 -139 -142 -171 -143zM748 95c15 12 27 -7 14 -24c-48 -62 -119 -85 -198 -85c-90 0 -170 51 -205 135c-25 -85 -96 -135 -169 -135c-113 0 -164 75 -164 151c1 87 77 151 189 151
c35 0 80 -6 112 -14l-3 24c-8 95 -58 131 -126 131c-59 0 -106 -22 -137 -66c0 -1 -24 10 -5 29c29 44 95 74 169 74c76 0 131 -26 161 -96c43 59 112 96 200 96c116 0 207 -84 161 -240l-326 -5c25 -118 128 -178 204 -178c37 0 85 12 123 52zM555 432
c-89 0 -139 -62 -139 -156c0 -10 1 -20 2 -30c80 2 179 3 249 4c33 69 -25 182 -112 182zM226 43c59 0 111 51 112 126v10l-7 61c-31 9 -77 16 -103 16c-74 0 -118 -37 -118 -99c0 -58 39 -114 116 -114z" />
    <glyph glyph-name="cacute" unicode="&#x107;" horiz-adv-x="497" 
d="M252 516c-8 0 -13 5 -12 15c116 74 79 140 122 143c36 4 61 3 61 -15c0 -41 -139 -142 -171 -143zM442 358l-33 -112c-1 -1 -33 -8 -31 20c16 108 -29 167 -122 167c-78 0 -145 -54 -145 -162c0 -152 115 -228 207 -228c40 0 86 14 131 56c2 0 23 -14 3 -34
c-46 -47 -106 -79 -188 -79c-123 0 -229 91 -229 232c0 140 107 248 251 248c93 0 174 -48 156 -108z" />
    <glyph glyph-name="ccaron" unicode="&#x10d;" horiz-adv-x="497" 
d="M270 511c-63 0 -41 86 -154 129c-1 12 6 20 21 20c24 0 102 -47 134 -92c32 46 110 92 132 92c16 0 23 -8 22 -20c-113 -42 -91 -129 -155 -129zM449 99c2 0 23 -14 3 -34c-46 -47 -106 -79 -188 -79c-123 0 -229 91 -229 232c0 140 107 248 251 248
c93 0 174 -48 156 -108l-33 -112c-1 -1 -33 -8 -31 20c16 108 -29 167 -122 167c-78 0 -145 -54 -145 -162c0 -152 115 -228 207 -228c40 0 86 14 131 56z" />
    <glyph glyph-name="ccedilla" unicode="&#xe7;" horiz-adv-x="497" 
d="M449 99c2 0 23 -14 3 -34c-46 -47 -106 -79 -188 -79h-2c-11 -15 -18 -28 -28 -47c78 -15 105 -45 105 -80s-36 -65 -96 -65c-45 0 -90 18 -90 45c0 10 6 26 36 26c4 0 9 -51 72 -51c23 0 38 10 38 27c0 25 -20 43 -114 65l52 81c-111 13 -202 100 -202 231
c0 140 107 248 251 248c93 0 174 -48 156 -108l-33 -112c-1 -1 -33 -8 -31 20c16 108 -29 167 -122 167c-78 0 -145 -54 -145 -162c0 -152 115 -228 207 -228c40 0 86 14 131 56z" />
    <glyph glyph-name="ccircumflex" unicode="&#x109;" horiz-adv-x="497" 
d="M137 516c-15 0 -22 8 -21 20c113 43 91 129 154 129c64 0 42 -86 155 -129c1 -12 -6 -20 -22 -20c-23 0 -100 47 -133 92c-32 -46 -110 -92 -133 -92zM449 99c2 0 23 -14 3 -34c-46 -47 -106 -79 -188 -79c-123 0 -229 91 -229 232c0 140 107 248 251 248
c93 0 174 -48 156 -108l-33 -112c-1 -1 -33 -8 -31 20c16 108 -29 167 -122 167c-78 0 -145 -54 -145 -162c0 -152 115 -228 207 -228c40 0 86 14 131 56z" />
    <glyph glyph-name="cdotaccent" unicode="&#x10b;" horiz-adv-x="497" 
d="M268 558c-28 0 -50 20 -49 44c0 29 24 52 60 52c27 0 48 -20 48 -44c0 -28 -24 -52 -59 -52zM442 358l-33 -112c-1 -1 -33 -8 -31 20c16 108 -29 167 -122 167c-78 0 -145 -54 -145 -162c0 -152 115 -228 207 -228c40 0 86 14 131 56c2 0 23 -14 3 -34
c-46 -47 -106 -79 -188 -79c-123 0 -229 91 -229 232c0 140 107 248 251 248c93 0 174 -48 156 -108z" />
    <glyph glyph-name="dcaron" unicode="&#x10f;" horiz-adv-x="592" 
d="M556 80c2 5 19 6 19 -18c0 -34 -27 -74 -83 -74c-46 0 -80 35 -80 111l-1 4c-3 5 -7 4 -11 -4c-31 -58 -83 -114 -172 -114c-102 0 -193 89 -193 229c0 144 98 252 227 252c60 0 107 -21 149 -65l-1 175c0 56 -9 65 -29 65c-21 4 -15 27 -14 27c56 8 96 26 129 52
c1 1 20 2 17 -16c-7 -38 -11 -130 -11 -222v-367c0 -47 6 -64 28 -64c17 0 23 16 26 29zM583 711c29 0 36 -8 36 -30c0 -36 -26 -69 -26 -161c0 -14 -19 -14 -19 0c0 92 -26 126 -26 161c0 23 6 30 35 30zM282 46c66 0 124 63 130 152l-1 59c-7 85 -65 178 -153 178
c-90 0 -144 -57 -144 -157c0 -116 71 -232 168 -232z" />
    <glyph glyph-name="dcroat" unicode="&#x111;" horiz-adv-x="592" 
d="M503 575h73c18 0 12 -16 0 -20h-73c-1 -24 -1 -48 -1 -73v-367c0 -47 6 -64 28 -64c17 0 23 16 26 29c2 5 19 6 19 -18c0 -34 -27 -74 -83 -74c-46 0 -80 35 -80 111l-1 4c-3 5 -7 4 -11 -4c-31 -58 -83 -114 -172 -114c-102 0 -193 89 -193 229c0 144 98 252 227 252
c60 0 107 -21 149 -65l-1 154h-110c-19 0 -13 16 0 20h110v1c0 56 -9 65 -29 65c-21 4 -15 27 -14 27c56 8 96 26 129 52c1 1 20 2 17 -16c-5 -25 -8 -73 -10 -129zM282 46c66 0 124 63 130 152l-1 59c-7 85 -65 178 -153 178c-90 0 -144 -57 -144 -157
c0 -116 71 -232 168 -232z" />
    <glyph glyph-name="uni1E0D" unicode="&#x1e0d;" horiz-adv-x="592" 
d="M556 80c2 5 19 6 19 -18c0 -34 -27 -74 -83 -74c-46 0 -80 35 -80 111l-1 4c-3 5 -7 4 -11 -4c-31 -58 -83 -114 -172 -114c-102 0 -193 89 -193 229c0 144 98 252 227 252c60 0 107 -21 149 -65l-1 175c0 56 -9 65 -29 65c-21 4 -15 27 -14 27c56 8 96 26 129 52
c1 1 20 2 17 -16c-7 -38 -11 -130 -11 -222v-367c0 -47 6 -64 28 -64c17 0 23 16 26 29zM282 46c66 0 124 63 130 152l-1 59c-7 85 -65 178 -153 178c-90 0 -144 -57 -144 -157c0 -116 71 -232 168 -232zM320 -57c27 0 49 -19 48 -44c0 -27 -24 -52 -58 -52
c-29 0 -50 20 -50 45c0 28 24 51 60 51z" />
    <glyph glyph-name="uni1E0F" unicode="&#x1e0f;" horiz-adv-x="592" 
d="M556 80c2 5 19 6 19 -18c0 -34 -27 -74 -83 -74c-46 0 -80 35 -80 111l-1 4c-3 5 -7 4 -11 -4c-31 -58 -83 -114 -172 -114c-102 0 -193 89 -193 229c0 144 98 252 227 252c60 0 107 -21 149 -65l-1 175c0 56 -9 65 -29 65c-21 4 -15 27 -14 27c56 8 96 26 129 52
c1 1 20 2 17 -16c-7 -38 -11 -130 -11 -222v-367c0 -47 6 -64 28 -64c17 0 23 16 26 29zM282 46c66 0 124 63 130 152l-1 59c-7 85 -65 178 -153 178c-90 0 -144 -57 -144 -157c0 -116 71 -232 168 -232zM176 -93h266c18 0 12 -19 0 -25h-266c-17 0 -12 20 0 25z" />
    <glyph glyph-name="eacute" unicode="&#xe9;" horiz-adv-x="486" 
d="M242 517c-8 0 -13 5 -12 15c116 74 79 140 122 143c36 4 61 3 61 -15c0 -41 -139 -142 -171 -143zM442 95c15 12 27 -7 14 -24c-48 -62 -119 -85 -198 -85c-121 0 -223 91 -223 232c0 143 96 248 245 248c116 0 207 -84 161 -240l-326 -5c25 -118 128 -178 204 -178
c37 0 85 12 123 52zM249 432c-89 0 -139 -62 -139 -156c0 -10 1 -20 2 -30c80 2 179 3 249 4c33 69 -25 182 -112 182z" />
    <glyph glyph-name="ebreve" unicode="&#x115;" horiz-adv-x="486" 
d="M251 513c-94 0 -126 77 -126 119c0 12 10 14 33 14c33 0 39 -4 39 -14c0 -34 15 -86 76 -86c73 0 82 57 82 83c0 12 9 15 20 15c3 0 4 0 4 -8c0 -44 -22 -123 -128 -123zM442 95c15 12 27 -7 14 -24c-48 -62 -119 -85 -198 -85c-121 0 -223 91 -223 232
c0 143 96 248 245 248c116 0 207 -84 161 -240l-326 -5c25 -118 128 -178 204 -178c37 0 85 12 123 52zM249 432c-89 0 -139 -62 -139 -156c0 -10 1 -20 2 -30c80 2 179 3 249 4c33 69 -25 182 -112 182z" />
    <glyph glyph-name="ecaron" unicode="&#x11b;" horiz-adv-x="486" 
d="M260 512c-63 0 -41 86 -154 129c-1 12 6 20 21 20c24 0 102 -47 134 -92c32 46 110 92 132 92c16 0 23 -8 22 -20c-113 -42 -91 -129 -155 -129zM442 95c15 12 27 -7 14 -24c-48 -62 -119 -85 -198 -85c-121 0 -223 91 -223 232c0 143 96 248 245 248
c116 0 207 -84 161 -240l-326 -5c25 -118 128 -178 204 -178c37 0 85 12 123 52zM249 432c-89 0 -139 -62 -139 -156c0 -10 1 -20 2 -30c80 2 179 3 249 4c33 69 -25 182 -112 182z" />
    <glyph glyph-name="ecircumflex" unicode="&#xea;" horiz-adv-x="486" 
d="M127 517c-15 0 -22 8 -21 20c113 43 91 129 154 129c64 0 42 -86 155 -129c1 -12 -6 -20 -22 -20c-23 0 -100 47 -133 92c-32 -46 -110 -92 -133 -92zM442 95c15 12 27 -7 14 -24c-48 -62 -119 -85 -198 -85c-121 0 -223 91 -223 232c0 143 96 248 245 248
c116 0 207 -84 161 -240l-326 -5c25 -118 128 -178 204 -178c37 0 85 12 123 52zM249 432c-89 0 -139 -62 -139 -156c0 -10 1 -20 2 -30c80 2 179 3 249 4c33 69 -25 182 -112 182z" />
    <glyph glyph-name="uni1EC7" unicode="&#x1ec7;" horiz-adv-x="486" 
d="M127 517c-15 0 -22 8 -21 20c113 43 91 129 154 129c64 0 42 -86 155 -129c1 -12 -6 -20 -22 -20c-23 0 -100 47 -133 92c-32 -46 -110 -92 -133 -92zM442 95c15 12 27 -7 14 -24c-48 -62 -119 -85 -198 -85c-121 0 -223 91 -223 232c0 143 96 248 245 248
c116 0 207 -84 161 -240l-326 -5c25 -118 128 -178 204 -178c37 0 85 12 123 52zM249 432c-89 0 -139 -62 -139 -156c0 -10 1 -20 2 -30c80 2 179 3 249 4c33 69 -25 182 -112 182zM270 -57c27 0 49 -19 48 -44c0 -27 -24 -52 -58 -52c-29 0 -50 20 -50 45c0 28 24 51 60 51
z" />
    <glyph glyph-name="edieresis" unicode="&#xeb;" horiz-adv-x="486" 
d="M184 550c-28 0 -49 19 -49 44c0 28 24 51 60 51c27 0 48 -19 48 -44c0 -27 -24 -51 -59 -51zM334 550c-28 0 -49 19 -49 44c0 28 24 51 60 51c26 0 48 -19 48 -44c0 -27 -24 -51 -59 -51zM442 95c15 12 27 -7 14 -24c-48 -62 -119 -85 -198 -85c-121 0 -223 91 -223 232
c0 143 96 248 245 248c116 0 207 -84 161 -240l-326 -5c25 -118 128 -178 204 -178c37 0 85 12 123 52zM249 432c-89 0 -139 -62 -139 -156c0 -10 1 -20 2 -30c80 2 179 3 249 4c33 69 -25 182 -112 182z" />
    <glyph glyph-name="edotaccent" unicode="&#x117;" horiz-adv-x="486" 
d="M259 559c-28 0 -50 20 -49 44c0 29 24 52 60 52c27 0 48 -20 48 -44c0 -28 -24 -52 -59 -52zM442 95c15 12 27 -7 14 -24c-48 -62 -119 -85 -198 -85c-121 0 -223 91 -223 232c0 143 96 248 245 248c116 0 207 -84 161 -240l-326 -5c25 -118 128 -178 204 -178
c37 0 85 12 123 52zM249 432c-89 0 -139 -62 -139 -156c0 -10 1 -20 2 -30c80 2 179 3 249 4c33 69 -25 182 -112 182z" />
    <glyph glyph-name="uni1EB9" unicode="&#x1eb9;" horiz-adv-x="486" 
d="M442 95c15 12 27 -7 14 -24c-48 -62 -119 -85 -198 -85c-121 0 -223 91 -223 232c0 143 96 248 245 248c116 0 207 -84 161 -240l-326 -5c25 -118 128 -178 204 -178c37 0 85 12 123 52zM249 432c-89 0 -139 -62 -139 -156c0 -10 1 -20 2 -30c80 2 179 3 249 4
c33 69 -25 182 -112 182zM270 -57c27 0 49 -19 48 -44c0 -27 -24 -52 -58 -52c-29 0 -50 20 -50 45c0 28 24 51 60 51z" />
    <glyph glyph-name="egrave" unicode="&#xe8;" horiz-adv-x="486" 
d="M287 517c-32 1 -171 102 -171 143c0 19 25 19 61 16c44 -4 6 -70 122 -144c1 -10 -4 -15 -12 -15zM442 95c15 12 27 -7 14 -24c-48 -62 -119 -85 -198 -85c-121 0 -223 91 -223 232c0 143 96 248 245 248c116 0 207 -84 161 -240l-326 -5c25 -118 128 -178 204 -178
c37 0 85 12 123 52zM249 432c-89 0 -139 -62 -139 -156c0 -10 1 -20 2 -30c80 2 179 3 249 4c33 69 -25 182 -112 182z" />
    <glyph glyph-name="emacron" unicode="&#x113;" horiz-adv-x="486" 
d="M393 567h-266c-18 0 -12 20 0 25h266c17 0 12 -19 0 -25zM442 95c15 12 27 -7 14 -24c-48 -62 -119 -85 -198 -85c-121 0 -223 91 -223 232c0 143 96 248 245 248c116 0 207 -84 161 -240l-326 -5c25 -118 128 -178 204 -178c37 0 85 12 123 52zM249 432
c-89 0 -139 -62 -139 -156c0 -10 1 -20 2 -30c80 2 179 3 249 4c33 69 -25 182 -112 182z" />
    <glyph glyph-name="eogonek" unicode="&#x119;" horiz-adv-x="486" 
d="M442 95c15 12 27 -7 14 -24c-23 -30 -51 -50 -83 -64c-48 -38 -58 -65 -58 -96c0 -29 15 -48 45 -48c29 0 48 18 48 55c6 7 19 5 19 -8c0 -41 -28 -82 -91 -82c-49 0 -84 20 -84 62c-1 42 27 75 65 101c-19 -3 -39 -5 -59 -5c-121 0 -223 91 -223 232
c0 143 96 248 245 248c116 0 207 -84 161 -240l-326 -5c25 -118 128 -178 204 -178c37 0 85 12 123 52zM249 432c-89 0 -139 -62 -139 -156c0 -10 1 -20 2 -30c80 2 179 3 249 4c33 69 -25 182 -112 182z" />
    <glyph glyph-name="uni1EBD" unicode="&#x1ebd;" horiz-adv-x="486" 
d="M125 543c-8 -14 -27 -2 -26 -1c26 83 80 104 160 72l41 -16c53 -21 74 -11 95 27c10 14 27 2 27 1c-27 -84 -77 -106 -159 -74l-43 17c-54 23 -77 9 -95 -26zM442 95c15 12 27 -7 14 -24c-48 -62 -119 -85 -198 -85c-121 0 -223 91 -223 232c0 143 96 248 245 248
c116 0 207 -84 161 -240l-326 -5c25 -118 128 -178 204 -178c37 0 85 12 123 52zM249 432c-89 0 -139 -62 -139 -156c0 -10 1 -20 2 -30c80 2 179 3 249 4c33 69 -25 182 -112 182z" />
    <glyph glyph-name="uni0259" unicode="&#x259;" horiz-adv-x="486" 
d="M228 465c121 0 223 -91 223 -232c0 -143 -96 -248 -245 -248c-116 0 -207 84 -161 240l326 5c-25 118 -128 178 -204 178c-37 0 -85 -12 -123 -52c-15 -12 -27 7 -14 24c48 62 119 85 198 85zM237 19c89 0 139 62 139 156c0 10 -1 20 -2 30c-80 -2 -179 -3 -249 -4
c-33 -69 25 -182 112 -182z" />
    <glyph glyph-name="gbreve" unicode="&#x11f;" horiz-adv-x="491" 
d="M256 513c-94 0 -126 77 -126 119c0 12 10 14 33 14c33 0 39 -4 39 -14c0 -34 15 -86 76 -86c73 0 82 57 82 83c0 12 9 15 20 15c3 0 4 0 4 -8c0 -44 -22 -123 -128 -123zM257 25c104 -18 197 -30 198 -114c0 -62 -66 -128 -219 -128c-132 0 -226 28 -215 70l29 102
c2 5 13 5 12 -7c-16 -117 41 -135 177 -135c68 0 124 22 124 74c0 48 -65 55 -138 69c-100 17 -185 38 -185 105c0 30 16 58 54 78c-39 30 -64 76 -64 136c0 101 90 192 211 191c70 0 127 -8 206 -6c10 0 10 -26 -8 -26c-73 1 -94 -1 -84 -10c48 -30 81 -79 81 -138
c0 -99 -86 -187 -216 -187c-39 0 -76 9 -107 28c-13 -9 -22 -20 -22 -33c0 -39 80 -54 166 -69zM208 432c-60 -1 -111 -41 -111 -112c0 -91 78 -187 162 -187c62 0 110 39 110 112c0 77 -80 187 -161 187z" />
    <glyph glyph-name="gcaron" unicode="&#x1e7;" horiz-adv-x="491" 
d="M265 512c-63 0 -41 86 -154 129c-1 12 6 20 21 20c24 0 102 -47 134 -92c32 46 110 92 132 92c16 0 23 -8 22 -20c-113 -42 -91 -129 -155 -129zM257 25c104 -18 197 -30 198 -114c0 -62 -66 -128 -219 -128c-132 0 -226 28 -215 70l29 102c2 5 13 5 12 -7
c-16 -117 41 -135 177 -135c68 0 124 22 124 74c0 48 -65 55 -138 69c-100 17 -185 38 -185 105c0 30 16 58 54 78c-39 30 -64 76 -64 136c0 101 90 192 211 191c70 0 127 -8 206 -6c10 0 10 -26 -8 -26c-73 1 -94 -1 -84 -10c48 -30 81 -79 81 -138
c0 -99 -86 -187 -216 -187c-39 0 -76 9 -107 28c-13 -9 -22 -20 -22 -33c0 -39 80 -54 166 -69zM208 432c-60 -1 -111 -41 -111 -112c0 -91 78 -187 162 -187c62 0 110 39 110 112c0 77 -80 187 -161 187z" />
    <glyph glyph-name="gcircumflex" unicode="&#x11d;" horiz-adv-x="491" 
d="M132 517c-15 0 -22 8 -21 20c113 43 91 129 154 129c64 0 42 -86 155 -129c1 -12 -6 -20 -22 -20c-23 0 -100 47 -133 92c-32 -46 -110 -92 -133 -92zM257 25c104 -18 197 -30 198 -114c0 -62 -66 -128 -219 -128c-132 0 -226 28 -215 70l29 102c2 5 13 5 12 -7
c-16 -117 41 -135 177 -135c68 0 124 22 124 74c0 48 -65 55 -138 69c-100 17 -185 38 -185 105c0 30 16 58 54 78c-39 30 -64 76 -64 136c0 101 90 192 211 191c70 0 127 -8 206 -6c10 0 10 -26 -8 -26c-73 1 -94 -1 -84 -10c48 -30 81 -79 81 -138
c0 -99 -86 -187 -216 -187c-39 0 -76 9 -107 28c-13 -9 -22 -20 -22 -33c0 -39 80 -54 166 -69zM208 432c-60 -1 -111 -41 -111 -112c0 -91 78 -187 162 -187c62 0 110 39 110 112c0 77 -80 187 -161 187z" />
    <glyph glyph-name="uni0123" unicode="&#x123;" horiz-adv-x="491" 
d="M258 514c-29 0 -43 21 -43 49c0 67 42 124 81 141c10 2 10 -11 5 -14c-34 -21 -45 -50 -45 -76c1 -26 51 -7 51 -51c0 -23 -17 -49 -49 -49zM257 25c104 -18 197 -30 198 -114c0 -62 -66 -128 -219 -128c-132 0 -226 28 -215 70l29 102c2 5 13 5 12 -7
c-16 -117 41 -135 177 -135c68 0 124 22 124 74c0 48 -65 55 -138 69c-100 17 -185 38 -185 105c0 30 16 58 54 78c-39 30 -64 76 -64 136c0 101 90 192 211 191c70 0 127 -8 206 -6c10 0 10 -26 -8 -26c-73 1 -94 -1 -84 -10c48 -30 81 -79 81 -138
c0 -99 -86 -187 -216 -187c-39 0 -76 9 -107 28c-13 -9 -22 -20 -22 -33c0 -39 80 -54 166 -69zM208 432c-60 -1 -111 -41 -111 -112c0 -91 78 -187 162 -187c62 0 110 39 110 112c0 77 -80 187 -161 187z" />
    </font>
</defs>
</svg>
