<?xml version="1.0" encoding="utf-8"?>
<!-- Generator: Adobe Illustrator 22.1.0, SVG Export Plug-In . SVG Version: 6.00 Build 0)  -->
<svg version="1.1" id="Слой_1" xmlns="http://www.w3.org/2000/svg" xmlns:xlink="http://www.w3.org/1999/xlink" x="0px" y="0px"
	 viewBox="0 0 11.7 14" style="enable-background:new 0 0 11.7 14;" xml:space="preserve">
<style type="text/css">
	.st0{fill:#2C3B8C;}
</style>
<path class="st0" d="M11.7,12.1l-0.9-8.2c0-0.2-0.2-0.4-0.5-0.4H8.9V2.6c0-0.7-0.3-1.4-0.9-1.9C7.4,0.3,6.7,0,5.9,0
	c-1.7,0-3,1.2-3,2.6v0.9H1.4c-0.3,0-0.5,0.2-0.5,0.4L0,12.1c-0.1,0.5,0.1,1,0.5,1.3C0.9,13.8,1.4,14,2,14h7.7c0.6,0,1.1-0.2,1.5-0.6
	C11.6,13.1,11.8,12.6,11.7,12.1z M7.9,3.5h-4V2.6c0-1,0.9-1.8,2-1.8c0.5,0,1,0.2,1.4,0.5c0.4,0.3,0.6,0.8,0.6,1.2V3.5z"/>
</svg>
