<?xml version="1.0" encoding="utf-8"?>
<!-- Generator: Adobe Illustrator 22.1.0, SVG Export Plug-In . SVG Version: 6.00 Build 0)  -->
<svg version="1.1" id="Слой_1" xmlns="http://www.w3.org/2000/svg" xmlns:xlink="http://www.w3.org/1999/xlink" x="0px" y="0px"
	 viewBox="0 0 11.5 14.3" style="enable-background:new 0 0 11.5 14.3;" xml:space="preserve">
<style type="text/css">
	.st0{fill:#C4C4C4;}
</style>
<path class="st0" d="M10.4,1.8H8V1.3C8,0.6,7.4,0,6.6,0H4.9C4.1,0,3.5,0.6,3.5,1.3v0.4H1.1C0.5,1.8,0,2.3,0,2.9v0.9
	C0,4,0.2,4.2,0.4,4.2h10.6c0.2,0,0.4-0.2,0.4-0.4V2.9C11.5,2.3,11,1.8,10.4,1.8z M4.4,1.3c0-0.2,0.2-0.4,0.4-0.4h1.8
	c0.2,0,0.4,0.2,0.4,0.4v0.4H4.4V1.3z"/>
<path class="st0" d="M0.8,5.2c-0.1,0-0.1,0.1-0.1,0.1L1.1,13c0,0.7,0.6,1.3,1.3,1.3h6.7c0.7,0,1.3-0.6,1.3-1.3l0.4-7.7
	c0-0.1-0.1-0.1-0.1-0.1H0.8z M7.5,6.3c0-0.2,0.2-0.4,0.4-0.4c0.2,0,0.4,0.2,0.4,0.4v5.7c0,0.2-0.2,0.4-0.4,0.4
	c-0.2,0-0.4-0.2-0.4-0.4V6.3z M5.3,6.3c0-0.2,0.2-0.4,0.4-0.4c0.2,0,0.4,0.2,0.4,0.4v5.7c0,0.2-0.2,0.4-0.4,0.4
	c-0.2,0-0.4-0.2-0.4-0.4V6.3z M3.1,6.3c0-0.2,0.2-0.4,0.4-0.4C3.8,5.9,4,6.1,4,6.3v5.7c0,0.2-0.2,0.4-0.4,0.4
	c-0.2,0-0.4-0.2-0.4-0.4V6.3z"/>
</svg>
