<?xml version="1.0" encoding="utf-8"?>
<!-- Generator: Adobe Illustrator 22.1.0, SVG Export Plug-In . SVG Version: 6.00 Build 0)  -->
<svg version="1.1" id="Слой_1" xmlns="http://www.w3.org/2000/svg" xmlns:xlink="http://www.w3.org/1999/xlink" x="0px" y="0px"
	 viewBox="0 0 72.1 27.1" style="enable-background:new 0 0 72.1 27.1;" xml:space="preserve">
<style type="text/css">
	.st0{fill:#2C3B8C;}
</style>
<path class="st0" d="M23.4,7.1h-3.8V6.7c0.2,0,0.4-0.1,0.6-0.1c0.2-0.1,0.4-0.1,0.4-0.2c0,0,0-0.1,0-0.1c0,0,0-0.1,0-0.1l-0.6-1.5
	h-2.4c-0.1,0.1-0.1,0.3-0.2,0.5c-0.1,0.2-0.1,0.3-0.2,0.5c0,0.1-0.1,0.3-0.1,0.4c0,0.1,0,0.1,0,0.2c0,0.1,0.1,0.2,0.2,0.3
	c0.3,0.1,0.5,0.1,0.8,0.2v0.4h-2.8V6.7c0.1,0,0.2,0,0.4-0.1c0.1,0,0.2-0.1,0.3-0.1c0.1-0.1,0.2-0.2,0.3-0.3c0.1-0.1,0.2-0.3,0.2-0.4
	c0.4-0.9,0.8-1.9,1.1-2.8c0.4-0.9,0.8-2,1.3-3.1h1c0.6,1.6,1.1,2.8,1.5,3.8c0.4,0.9,0.7,1.7,0.9,2.3c0,0.1,0.1,0.2,0.2,0.3
	c0.1,0.1,0.2,0.2,0.3,0.2c0.1,0.1,0.2,0.1,0.3,0.1c0.1,0,0.2,0,0.3,0V7.1z M19.7,4.3l-1-2.5l-1,2.5H19.7z"/>
<path class="st0" d="M30.8,4.8l-0.2,2.3h-6.9V6.8l4.7-6.1h-1.6c-0.2,0-0.5,0-0.7,0c-0.1,0-0.3,0.1-0.4,0.1c-0.2,0.1-0.4,0.2-0.5,0.4
	C25,1.7,24.7,2,24.5,2.4h-0.4l0.2-2.1h6.4v0.3L26,6.7h1.8c0.4,0,0.8,0,1.2-0.1c0.2,0,0.3-0.1,0.5-0.2c0.2-0.2,0.4-0.5,0.5-0.7
	c0.2-0.3,0.3-0.5,0.5-0.8H30.8z"/>
<path class="st0" d="M38.2,1c0.3,0.3,0.6,0.7,0.8,1.2c0.2,0.5,0.3,1,0.3,1.5c0,0.5-0.1,1-0.3,1.5c-0.2,0.4-0.4,0.9-0.7,1.2
	C38,6.7,37.6,7,37.1,7.2c-0.5,0.2-1.1,0.3-1.6,0.3c-0.5,0-1-0.1-1.4-0.3c-0.4-0.2-0.8-0.4-1.2-0.7c-0.3-0.3-0.6-0.7-0.8-1.1
	c-0.2-0.5-0.3-1-0.3-1.5c0-0.5,0.1-1.1,0.3-1.6c0.2-0.5,0.5-0.9,0.8-1.2c0.3-0.3,0.7-0.6,1.2-0.8c0.9-0.4,2-0.4,2.9,0
	C37.4,0.4,37.8,0.7,38.2,1z M36.9,6c0.2-0.3,0.3-0.7,0.3-1c0.1-0.4,0.1-0.9,0.1-1.3c0-0.4,0-0.8-0.1-1.2c0-0.4-0.1-0.7-0.3-1
	c-0.1-0.3-0.3-0.5-0.6-0.7c-0.2-0.2-0.5-0.3-0.9-0.3c-0.3,0-0.6,0.1-0.8,0.2c-0.2,0.2-0.4,0.4-0.5,0.6c-0.3,0.8-0.5,1.6-0.5,2.4
	c0,0.4,0,0.8,0.1,1.3c0.1,0.4,0.2,0.7,0.3,1c0.1,0.3,0.3,0.5,0.6,0.7C35,6.9,35.3,7,35.6,7c0.3,0,0.6-0.1,0.8-0.2
	C36.6,6.5,36.8,6.3,36.9,6L36.9,6z"/>
<path class="st0" d="M48.4,7.1h-2.7c-0.5-0.7-0.9-1.2-1.2-1.6c-0.3-0.4-0.7-0.9-1.2-1.4h-0.3v2.1c0,0.1,0,0.2,0.1,0.3
	c0.1,0.1,0.2,0.2,0.3,0.2c0.1,0,0.2,0.1,0.3,0.1c0.1,0,0.2,0,0.3,0.1v0.4h-3.8V6.7c0.1,0,0.2,0,0.4,0c0.1,0,0.2,0,0.3-0.1
	c0.1,0,0.2-0.1,0.3-0.2c0-0.1,0.1-0.2,0.1-0.3V1.4c0-0.1,0-0.2-0.1-0.3C41.2,1,41.1,0.9,41,0.9c-0.1,0-0.2-0.1-0.4-0.1
	c-0.1,0-0.3,0-0.3-0.1V0.3h4c0.7,0,1.4,0.1,2,0.4c0.2,0.1,0.4,0.3,0.5,0.5C46.9,1.5,47,1.7,47,1.9c0,0.4-0.1,0.8-0.4,1.1
	c-0.4,0.3-0.8,0.6-1.3,0.7c0.2,0.3,0.5,0.6,0.8,1c0.3,0.4,0.6,0.7,0.9,1.1c0.1,0.1,0.2,0.3,0.4,0.5c0.1,0.1,0.3,0.3,0.5,0.3
	c0.1,0,0.2,0,0.3,0.1c0.1,0,0.2,0,0.3,0V7.1z M45,2.1c0-0.2,0-0.4-0.1-0.5c-0.1-0.2-0.2-0.3-0.3-0.5c-0.3-0.2-0.7-0.3-1.1-0.3h-0.4
	v2.8h0.4c0.4,0,0.8-0.1,1.1-0.4c0.1-0.2,0.3-0.3,0.3-0.5S45.1,2.3,45,2.1z"/>
<path class="st0" d="M56.9,7.1h-3.8V6.7c0.2,0,0.4-0.1,0.6-0.1c0.2-0.1,0.4-0.1,0.4-0.2c0,0,0-0.1,0-0.1c0,0,0-0.1,0-0.1l-0.6-1.5
	h-2.4C51,4.9,51,5.1,50.9,5.2c-0.1,0.2-0.1,0.3-0.2,0.5c0,0.1-0.1,0.3-0.1,0.4c0,0.1,0,0.1,0,0.2c0,0.1,0.1,0.2,0.2,0.3
	c0.3,0.1,0.5,0.1,0.8,0.2v0.4h-2.8V6.7c0.1,0,0.2,0,0.4-0.1c0.1,0,0.2-0.1,0.3-0.1c0.1-0.1,0.2-0.2,0.3-0.3C49.9,6.1,50,6,50,5.9
	c0.4-0.9,0.8-1.9,1.1-2.8c0.4-0.9,0.8-2,1.3-3.1h1c0.6,1.6,1.1,2.8,1.5,3.8c0.4,0.9,0.7,1.7,0.9,2.3c0,0.1,0.1,0.2,0.2,0.3
	c0.1,0.1,0.2,0.2,0.3,0.2c0.1,0.1,0.2,0.1,0.3,0.1c0.1,0,0.2,0,0.3,0L56.9,7.1z M53.3,4.3l-1-2.5l-1,2.5H53.3z"/>
<path class="st0" d="M0.7,11c0.2,0,0.5,0,0.7,0.1c1.4,0.2,2.8,0.2,4.2,0.2c0.1,0,0.2,0,0.2,0.1c0.1,0,0.1,0.1,0.2,0.1
	c0,0.1,0.1,0.1,0.1,0.2s0,0.1-0.1,0.2c0,0.1-0.1,0.2-0.2,0.2c-0.1,0.1-0.2,0.1-0.3,0.2c0-0.2,0-0.4-0.1-0.6c0-0.1-0.1-0.1-0.1-0.2
	c-0.1,0-0.1-0.1-0.2-0.1c-0.5,0-1,0-1.3,0.1c-0.2,0-0.5,0.1-0.7,0.2c-0.4,0.2-0.8,0.5-1.1,0.8c-0.4,0.5-0.7,1.1-1,1.7
	c-0.4,0.9-0.7,1.7-0.9,2.6c0,0.1-0.1,0.1-0.1,0.1C0,16.9,0,16.8,0,16.7c0.1-1,0.2-1.8,0.3-2.7c0-0.8,0-1.7,0-2.5
	C0.3,11.2,0.4,11,0.7,11z M9,24.1c0,0.5,0.1,1,0.3,1.5c0.2,0.4,0.4,0.6,0.8,0.8c0.4,0.2,0.8,0.3,1.2,0.3c0.1,0,0.1,0,0.2,0
	c0,0,0,0.1,0,0.1c0,0-0.1,0-0.2,0c-0.1,0-0.3,0-0.5,0c-0.2,0-0.4,0-0.6,0c-0.1,0-0.3,0-0.4,0c-0.1,0-0.2,0-0.3,0H5.3
	c-0.1,0-0.2,0-0.4,0c-0.1,0-0.3,0-0.4,0c-0.2,0-0.4,0-0.6,0c-0.2,0-0.4,0-0.5,0c-0.1,0-0.1,0-0.2,0c0,0,0-0.1,0-0.1
	c0.1,0,0.1-0.1,0.2,0c0.4,0,0.8-0.1,1.2-0.3c0.3-0.2,0.6-0.5,0.8-0.8c0.2-0.5,0.3-1,0.3-1.5V11.3H9V24.1z M14,11
	c0.3,0,0.5,0.2,0.5,0.6c-0.1,0.8-0.1,1.6,0,2.4c0.1,0.8,0.1,1.7,0.3,2.7c0,0.1,0,0.1-0.1,0.1c-0.1,0-0.1,0-0.1-0.1
	c-0.3-0.9-0.6-1.8-1-2.7c-0.2-0.6-0.6-1.1-1-1.6c-0.3-0.4-0.7-0.6-1.1-0.8c-0.2-0.1-0.5-0.1-0.7-0.2c-0.3,0-0.8-0.1-1.3-0.1
	c-0.1,0-0.1,0-0.2,0.1c-0.1,0-0.1,0.1-0.1,0.2C9.1,11.9,9,12.1,9,12.3c-0.2-0.1-0.4-0.2-0.4-0.4c0-0.1-0.1-0.1,0-0.2
	c0-0.1,0-0.1,0.1-0.2c0.1-0.1,0.1-0.1,0.2-0.1c0.1,0,0.1-0.1,0.2-0.1c1.4,0,2.8-0.1,4.2-0.2C13.5,11,13.8,11,14,11z"/>
<path class="st0" d="M13.7,26.7c-0.1,0-0.1,0-0.2,0c-0.1,0-0.1,0-0.2,0c-0.1,0-0.2,0-0.3,0c-0.1,0-0.2,0-0.3,0c0,0,0,0-0.1,0
	c0,0,0,0,0,0c0,0,0,0,0,0c0,0,0,0,0,0c0,0,0,0,0,0c0,0,0,0,0.1,0c0.2,0,0.3-0.1,0.4-0.1c0.2-0.1,0.3-0.2,0.4-0.4
	c0.2-0.2,0.3-0.5,0.5-0.8c0.2-0.3,0.3-0.7,0.5-1.2l4.2-10c0.1-0.2,0.1-0.5,0.1-0.7c0-0.2-0.1-0.4-0.2-0.6l0.6,0.6l-4.5,10.8
	c-0.2,0.6-0.3,1-0.2,1.4c0,0.2,0.1,0.3,0.2,0.5c0.1,0.1,0.2,0.3,0.4,0.3c0.3,0.2,0.7,0.3,1.1,0.3c0.1,0,0.1,0,0.2,0c0,0,0,0,0,0
	c0,0,0,0,0,0c0,0,0,0,0,0c0,0,0,0,0,0c0,0-0.1,0-0.2,0c-0.1,0-0.3,0-0.5,0c-0.2,0-0.4,0-0.6,0c-0.1,0-0.3,0-0.4,0
	c-0.1,0-0.2,0-0.3,0H13.7z M15,23.6c0-0.2,0-0.4,0.1-0.6c0.1-0.1,0.2-0.3,0.3-0.4c0,0.1,0,0.2,0,0.3c0,0.1,0.1,0.1,0.2,0.1
	c0.5,0,1.1-0.1,1.6-0.2c0.5-0.1,1.1-0.2,1.6-0.3c0.5-0.1,1.1-0.3,1.6-0.4c0.5-0.2,1-0.3,1.4-0.6c0.1,0,0.2-0.1,0.3-0.3
	c0,0,0-0.1,0-0.1c0-0.1,0-0.1,0-0.1c0,0,0.1,0,0.2,0.1c0.1,0.1,0.1,0.2,0.2,0.3c0,0.1,0.1,0.3,0.1,0.4c-0.1-0.1-0.2-0.1-0.3-0.2
	c-0.1,0-0.2,0-0.3,0c-0.5,0.2-1,0.4-1.5,0.6c-0.5,0.2-1,0.3-1.6,0.5c-0.6,0.1-1.1,0.2-1.7,0.3c-0.6,0.1-1.1,0.1-1.6,0.2
	c-0.1,0-0.3,0-0.4,0.1C15.1,23.4,15,23.5,15,23.6L15,23.6z M23.8,26.7c-0.1,0-0.2,0-0.3,0c-0.1,0-0.2,0-0.4,0c-0.2,0-0.4,0-0.6,0
	c-0.2,0-0.3,0-0.5,0c-0.1,0-0.1,0-0.1,0c0,0,0-0.1,0-0.1c0,0,0.1,0,0.2,0c0.4,0,0.7-0.1,1.1-0.3c0.1-0.1,0.3-0.2,0.4-0.3
	c0.1-0.1,0.2-0.3,0.2-0.5c0.1-0.4,0-0.8-0.2-1.4l-5.2-12.4c0-0.1-0.1-0.2-0.2-0.2c0,0-0.1-0.1-0.1-0.1c0,0-0.1,0-0.2,0
	c0,0,0,0-0.1,0c0,0,0,0,0-0.1c0,0,0,0,0,0c0,0,0,0,0.1,0h3.4c0.1,0,0.1,0,0.2,0c0.1,0,0.1,0,0.1,0.1c0,0,0.1,0.1,0.1,0.2L27,24.2
	c0.1,0.4,0.3,0.8,0.5,1.2c0.1,0.3,0.3,0.5,0.4,0.7c0.1,0.2,0.3,0.3,0.4,0.4c0.1,0.1,0.3,0.1,0.5,0.1c0,0,0,0,0.1,0c0,0,0,0,0,0
	c0,0,0,0,0,0c0,0,0,0,0,0c0,0,0,0,0,0c0,0,0,0,0,0c-0.1,0-0.2,0-0.3,0c-0.1,0-0.2,0-0.3,0c-0.1,0-0.1,0-0.2,0c-0.1,0-0.1,0-0.2,0
	H23.8z"/>
<path class="st0" d="M30.5,20.2c0-0.1,0-0.1,0.1-0.1c0,0,0.1,0,0.1,0c0,0.1,0,0.1,0,0.2c-0.1,1.4,0.1,2.6,0.4,3.5
	c0.3,1,0.8,1.7,1.5,2.2c0.7,0.5,1.6,0.8,2.6,0.8c0.5,0,1-0.1,1.4-0.2c0.4-0.1,0.8-0.4,1.1-0.8c0.3-0.4,0.4-0.9,0.4-1.5
	c0-0.6-0.2-1.2-0.5-1.8c-0.4-0.5-0.8-1-1.3-1.4c-0.6-0.5-1.3-0.9-2-1.3c-1-0.6-1.8-1.1-2.4-1.6c-0.6-0.4-1.1-0.9-1.5-1.5
	c-0.4-0.5-0.6-1.1-0.6-1.8c0-0.7,0.3-1.4,0.8-2c0.6-0.7,1.4-1.2,2.3-1.5c1.1-0.4,2.2-0.6,3.3-0.6c0.8,0,1.6,0.1,2.3,0.3
	c0.7,0.2,1.3,0.5,1.9,0.9c0.5,0.4,0.6,0.8,0.5,1.3l-1,3.5c0,0.1-0.1,0.1-0.1,0.1c-0.1,0-0.1-0.1-0.1-0.2c0.1-1,0-2-0.3-2.9
	c-0.3-0.8-0.8-1.5-1.5-2c-0.7-0.5-1.5-0.8-2.4-0.7c-0.9,0-1.6,0.2-2,0.5c-0.4,0.3-0.6,0.8-0.6,1.5c0,0.5,0.2,1,0.4,1.4
	c0.3,0.5,0.8,0.9,1.2,1.2c0.5,0.4,1.2,0.8,2.1,1.3c0.8,0.5,1.6,1,2.4,1.5c0.6,0.5,1.1,1,1.6,1.6c0.4,0.7,0.7,1.4,0.6,2.2
	c0,0.9-0.3,1.7-0.8,2.4c-0.6,0.7-1.4,1.3-2.3,1.6c-1.1,0.4-2.3,0.6-3.5,0.6c-1,0-1.9-0.1-2.8-0.5c-0.9-0.3-1.6-0.7-2.1-1.2
	c-0.5-0.5-0.6-1-0.5-1.5L30.5,20.2z"/>
<path class="st0" d="M43.5,11c0.2,0,0.5,0,0.7,0.1c1.4,0.2,2.8,0.2,4.2,0.2c0.1,0,0.2,0,0.2,0.1c0.1,0,0.1,0.1,0.2,0.1
	c0,0.1,0.1,0.1,0.1,0.2c0,0.1,0,0.1-0.1,0.2c0,0.1-0.1,0.2-0.2,0.2c-0.1,0.1-0.2,0.1-0.3,0.2c0-0.2,0-0.4-0.1-0.6
	c0-0.1-0.1-0.1-0.1-0.2c-0.1,0-0.1-0.1-0.2-0.1c-0.5,0-1,0-1.3,0.1c-0.2,0-0.5,0.1-0.7,0.2c-0.4,0.2-0.8,0.5-1.1,0.8
	c-0.4,0.5-0.7,1.1-1,1.7c-0.4,0.9-0.7,1.7-0.9,2.6c0,0.1-0.1,0.1-0.1,0.1c-0.1,0-0.1-0.1-0.1-0.1c0.1-1,0.2-1.8,0.3-2.7
	c0-0.8,0-1.7,0-2.5C43,11.2,43.1,11,43.5,11z M51.8,24.1c0,0.5,0.1,1,0.3,1.5c0.2,0.4,0.4,0.6,0.8,0.8c0.4,0.2,0.8,0.3,1.2,0.3
	c0.1,0,0.1,0,0.2,0c0,0,0,0.1,0,0.1c0,0-0.1,0-0.2,0c-0.1,0-0.3,0-0.5,0c-0.2,0-0.4,0-0.6,0c-0.1,0-0.3,0-0.4,0c-0.1,0-0.2,0-0.3,0
	H48c-0.1,0-0.2,0-0.4,0c-0.1,0-0.3,0-0.4,0c-0.2,0-0.4,0-0.6,0c-0.2,0-0.4,0-0.5,0c-0.1,0-0.1,0-0.2,0c0,0,0-0.1,0-0.1
	c0.1,0,0.1-0.1,0.2,0c0.4,0,0.8-0.1,1.2-0.3c0.3-0.2,0.6-0.5,0.8-0.8c0.2-0.5,0.3-1,0.3-1.5V11.3h3.4V24.1z M56.7,11
	c0.3,0,0.5,0.2,0.5,0.6c-0.1,0.8-0.1,1.6,0,2.4c0.1,0.8,0.1,1.7,0.3,2.7c0,0.1,0,0.1-0.1,0.1c-0.1,0-0.1,0-0.1-0.1
	c-0.3-0.9-0.6-1.8-1-2.7c-0.2-0.6-0.6-1.1-1-1.6c-0.3-0.4-0.7-0.6-1.1-0.8c-0.2-0.1-0.5-0.1-0.7-0.2c-0.3,0-0.8-0.1-1.3-0.1
	c-0.1,0-0.1,0-0.2,0.1c-0.1,0-0.1,0.1-0.1,0.2c-0.1,0.2-0.1,0.4-0.1,0.6c-0.2-0.1-0.4-0.2-0.4-0.4c0-0.1-0.1-0.1,0-0.2
	c0-0.1,0-0.1,0.1-0.2c0.1-0.1,0.1-0.1,0.2-0.1c0.1,0,0.1-0.1,0.2-0.1c1.4,0,2.8-0.1,4.2-0.2C56.2,11,56.5,11,56.7,11z"/>
<path class="st0" d="M60.1,26.7c-0.1,0-0.2,0-0.3,0c-0.1,0-0.2,0-0.3,0c-0.1,0-0.3,0-0.4,0c-0.1,0-0.3,0-0.4,0c0,0,0,0-0.1,0
	c0,0,0,0-0.1,0c0,0,0,0,0,0c0,0,0,0,0,0c0,0,0,0,0,0c0,0,0,0,0,0c0,0,0,0,0.1,0c0,0,0,0,0.1,0c0.3,0,0.6-0.1,0.9-0.3
	c0.3-0.2,0.5-0.5,0.6-0.8c0.2-0.5,0.2-1,0.2-1.5V14c0-0.5-0.1-1-0.2-1.5c-0.1-0.3-0.3-0.6-0.6-0.8c-0.3-0.2-0.6-0.3-0.9-0.3
	c0,0,0,0-0.1,0c0,0,0,0-0.1,0c0,0,0,0,0,0c0,0,0,0,0,0c0,0,0,0,0,0c0,0,0,0,0,0c0,0,0,0,0.1,0c0,0,0,0,0.1,0c0.1,0,0.2,0,0.4,0
	c0.1,0,0.3,0,0.4,0c0.1,0,0.2,0,0.3,0c0.1,0,0.2,0,0.3,0h6.6c1.1,0,2.1-0.1,3.2-0.2c0.4,0,0.7-0.1,0.7-0.1c0.1,0,0.1,0,0.2,0
	c0.1,0,0.1,0.1,0.2,0.1c0.1,0.1,0.1,0.3,0.1,0.4c0.1,1.8,0.2,3.7,0.5,5.8c0,0.1,0,0.1,0,0.1c0,0-0.1,0-0.1-0.1
	c-0.3-0.8-0.5-1.6-0.8-2.1c-0.2-0.5-0.4-0.9-0.7-1.4c-0.2-0.3-0.4-0.6-0.7-0.9c-0.3-0.4-0.8-0.7-1.2-0.9c-0.5-0.2-1-0.4-1.6-0.4
	c-0.7-0.1-1.4-0.1-2.1-0.1c-0.1,0-0.2,0-0.3,0.1c-0.1,0-0.2,0.1-0.2,0.2c-0.1,0.2-0.2,0.4-0.2,0.6v5.5c0,0.2,0,0.3,0.1,0.4
	c0,0.1,0.1,0.1,0.2,0.1c0.1,0,0.1,0,0.2,0c0.8,0,1.3,0,1.6,0c0.3,0,0.6-0.1,0.8-0.3c0.3-0.2,0.5-0.5,0.6-0.8c0.2-0.5,0.4-1,0.6-1.5
	c0-0.1,0-0.1,0.1-0.1c0.1,0,0.1,0,0.1,0.1c-0.1,0.9-0.2,1.8-0.1,2.8c0,0.9,0.1,1.9,0.3,2.8c0,0.1,0,0.1-0.1,0.1
	c-0.1,0-0.1,0-0.1-0.1c-0.2-0.5-0.4-1-0.6-1.5c-0.2-0.3-0.4-0.6-0.7-0.9c-0.2-0.2-0.5-0.3-0.8-0.3c-0.5-0.1-1-0.1-1.6-0.1
	c-0.1,0-0.1,0-0.2,0c-0.1,0-0.1,0.1-0.1,0.2c-0.1,0.1-0.1,0.3-0.1,0.4v6.1c0,0.2,0,0.5,0.1,0.7c0,0.2,0.1,0.3,0.2,0.4
	c0.1,0.1,0.3,0.1,0.4,0.1c1.1,0,2.3-0.1,3.3-0.4c0.8-0.2,1.5-0.6,2.1-1.2c0.3-0.3,0.6-0.6,0.8-1c0.3-0.4,0.5-0.8,0.6-1.3
	c0.2-0.6,0.4-1.3,0.6-1.9c0-0.1,0-0.1,0.1-0.1c0,0,0,0,0,0c0,0,0,0,0,0s0,0,0,0c0,0,0,0,0,0c0,0,0,0.1,0,0.1c-0.2,1-0.3,2-0.4,3
	c-0.1,0.9-0.1,1.8-0.1,2.7c0,0.2,0,0.3-0.1,0.4c0,0-0.1,0.1-0.2,0.1c-0.1,0-0.1,0-0.2,0c-0.1,0-0.2,0-0.3,0c-0.1,0-0.3,0-0.4,0
	c-1.2-0.2-2.4-0.3-3.6-0.2L60.1,26.7z"/>
</svg>
