<?xml version="1.0" encoding="utf-8"?>
<!-- Generator: Adobe Illustrator 22.1.0, SVG Export Plug-In . SVG Version: 6.00 Build 0)  -->
<svg version="1.1" id="Слой_1" xmlns="http://www.w3.org/2000/svg" xmlns:xlink="http://www.w3.org/1999/xlink" x="0px" y="0px"
	 viewBox="0 0 14 13.5" style="enable-background:new 0 0 14 13.5;" xml:space="preserve">
<style type="text/css">
	.st0{fill:#A7A7A7;}
</style>
<path class="st0" d="M8.8,11.9H1.6V1.6h7.2c0.2,0,0.3-0.1,0.3-0.3V0.3C9.1,0.1,9,0,8.8,0H0.3C0.1,0,0,0.1,0,0.3v12.9
	c0,0.2,0.1,0.3,0.3,0.3h8.5c0.2,0,0.3-0.1,0.3-0.3v-1.1C9.1,12,9,11.9,8.8,11.9z"/>
<path class="st0" d="M13.9,6.6L10,2.7c-0.1-0.1-0.3-0.1-0.4,0L8.7,3.6C8.6,3.7,8.6,3.9,8.7,4l1.8,1.8H2.9C2.7,5.8,2.6,5.9,2.6,6v1.4
	c0,0.2,0.1,0.3,0.3,0.3h7.6L8.7,9.5c-0.1,0.1-0.1,0.3,0,0.4l0.9,0.9c0.1,0.1,0.1,0.1,0.2,0.1c0.1,0,0.2,0,0.2-0.1L13.9,7
	C14,6.9,14,6.8,14,6.8C14,6.7,14,6.6,13.9,6.6z"/>
</svg>
