<?xml version="1.0" encoding="utf-8"?>
<!-- Generator: Adobe Illustrator 22.1.0, SVG Export Plug-In . SVG Version: 6.00 Build 0)  -->
<svg version="1.1" id="Слой_1" xmlns="http://www.w3.org/2000/svg" xmlns:xlink="http://www.w3.org/1999/xlink" x="0px" y="0px"
	 viewBox="0 0 8 9.2" style="enable-background:new 0 0 8 9.2;" xml:space="preserve">
<style type="text/css">
	.st0{fill:#FFFFFF;}
</style>
<path class="st0" d="M4.1,4.5c1.1,0,2-1,2-2.3C6.1,1,5.8,0,4.1,0S2,1,2,2.3C2,3.5,2.9,4.5,4.1,4.5z"/>
<path class="st0" d="M0,7.9C0,7.9,0,7.9,0,7.9L0,7.9z"/>
<path class="st0" d="M8,8C8,8,8,7.9,8,8L8,8z"/>
<path class="st0" d="M8,7.8c0-2.2-0.4-2.8-2.8-3.2c0,0-0.3,0.4-1.2,0.4S2.8,4.7,2.8,4.7C0.4,5.1,0.1,5.7,0,7.8C0,7.9,0,8,0,7.9
	C0,8,0,8,0,8.2c0,0,0.6,1,4,1c3.4,0,4-1,4-1C8,8.1,8,8,8,8C8,8,8,8,8,7.8z"/>
</svg>
