<?xml version="1.0" encoding="utf-8"?>
<!-- Generator: Adobe Illustrator 22.1.0, SVG Export Plug-In . SVG Version: 6.00 Build 0)  -->
<svg version="1.1" id="Слой_1" xmlns="http://www.w3.org/2000/svg" xmlns:xlink="http://www.w3.org/1999/xlink" x="0px" y="0px"
	 viewBox="0 0 12.2 13.9" style="enable-background:new 0 0 12.2 13.9;" xml:space="preserve">
<style type="text/css">
	.st0{fill:#2C3B8C;}
</style>
<path class="st0" d="M6.2,6.8c1.7,0,3.1-1.5,3.1-3.4C9.3,1.5,8.8,0,6.2,0C3.5,0,3.1,1.5,3.1,3.4S4.5,6.8,6.2,6.8z"/>
<path class="st0" d="M0,12.1C0,12,0,12,0,12.1L0,12.1z"/>
<path class="st0" d="M12.2,12.2C12.2,12.1,12.2,11.9,12.2,12.2L12.2,12.2z"/>
<path class="st0" d="M12.2,11.9c-0.1-3.3-0.6-4.2-4.3-4.8c0,0-0.5,0.6-1.8,0.6c-1.2,0-1.8-0.6-1.8-0.6C0.6,7.7,0.1,8.6,0,11.8
	c0,0.3,0,0.3,0,0.2c0,0.1,0,0.2,0,0.3c0,0,0.9,1.6,6.1,1.6s6.1-1.6,6.1-1.6c0-0.1,0-0.2,0-0.3C12.2,12.2,12.2,12.1,12.2,11.9z"/>
</svg>
