<?xml version="1.0" encoding="utf-8"?>
<!-- Generator: Adobe Illustrator 22.1.0, SVG Export Plug-In . SVG Version: 6.00 Build 0)  -->
<svg version="1.1" id="Слой_1" xmlns="http://www.w3.org/2000/svg" xmlns:xlink="http://www.w3.org/1999/xlink" x="0px" y="0px"
	 viewBox="0 0 323.1 111.5" style="enable-background:new 0 0 323.1 111.5;" xml:space="preserve">
<style type="text/css">
	.st0{fill:#E7533B;}
	.st1{fill:#2C3B8C;}
	.st2{fill:#6678D6;}
	.st3{fill:#FDD84A;}
</style>
<path class="st0" d="M45,84.7c0.4,0,0.9,0,1.3,0.1c-0.2-1.2-0.1-2.5,0.2-3.6c0.3-1.2,0.9-2.3,1.7-3.2c0.8-0.9,1.8-1.7,2.9-2.2
	c1.1-0.5,2.3-0.8,3.6-0.8h-7.8c0,0.3-0.1,0.5-0.2,0.8c-0.1,0.2-0.2,0.5-0.4,0.6c-0.2,0.2-0.4,0.3-0.6,0.4c-0.2,0.1-0.5,0.2-0.8,0.2
	c-1.1,0-6.6-0.9-6.6-2h-1.8v18.2c0-2.3,0.9-4.4,2.5-6C40.6,85.6,42.7,84.7,45,84.7z M43.7,81.3c0.1,0.1,0.1,0.2,0.2,0.3
	c0,0.1,0,0.2,0,0.4c0,0.1-0.1,0.2-0.2,0.3c-0.1,0.1-0.2,0.1-0.3,0.1c-0.1,0-0.2,0-0.3-0.1c-0.1-0.1-0.2-0.2-0.2-0.3
	c0-0.1-0.1-0.2,0-0.4c0-0.1,0.1-0.2,0.2-0.3c0.1-0.1,0.3-0.2,0.4-0.2C43.4,81.1,43.5,81.2,43.7,81.3z M36.5,75h0.9
	c0,0.1,0,0.2-0.1,0.3c0,0.1-0.1,0.2-0.2,0.3c-0.1,0.1-0.2,0.1-0.3,0.2c-0.1,0-0.2,0.1-0.3,0.1V75z M36.5,85.4v-8.6
	c1.1,0,2,5.5,2,6.6c0,0.3-0.1,0.5-0.2,0.8c-0.1,0.2-0.2,0.5-0.4,0.6c-0.2,0.2-0.4,0.3-0.6,0.4C37,85.3,36.7,85.4,36.5,85.4z
	 M38.6,77.1c0.4-0.4,3.3,1.6,3.8,2.1c0.1,0.1,0.2,0.3,0.3,0.4c0.1,0.2,0.1,0.3,0.1,0.5c0,0.2,0,0.3-0.1,0.5
	c-0.1,0.2-0.2,0.3-0.3,0.4c-0.1,0.1-0.3,0.2-0.4,0.3c-0.2,0.1-0.3,0.1-0.5,0.1c-0.2,0-0.3,0-0.5-0.1c-0.2-0.1-0.3-0.2-0.4-0.3
	C40.2,80.5,38.2,77.5,38.6,77.1z"/>
<path class="st0" d="M45,100.2c0.7,0,1.4-0.1,2.1-0.3l0.3-0.1c0-0.1,0.1-0.2,0.2-0.3c0.1-0.1,0.1-0.1,0.2-0.1c0.1,0,0.2,0,0.2,0
	c0.1,0,0.2,0,0.2,0c0.1,0,0.1,0.1,0.2,0.1c0.1,0.1,0.1,0.1,0.1,0.2s0,0.2,0,0.2c0,0.1,0,0.2,0,0.2c0,0.1-0.1,0.1-0.1,0.2
	c-0.1,0.1-0.2,0.1-0.3,0.2l-0.1,0.3c-0.3,1-0.4,2.2-0.2,3.2c0.2,1.1,0.6,2.1,1.3,3c0.7,0.9,1.5,1.6,2.5,2.1c1,0.5,2.1,0.8,3.2,0.8
	c1.1,0,2.2-0.3,3.2-0.8c1-0.5,1.8-1.2,2.5-2.1c0.7-0.9,1.1-1.9,1.3-3c0.2-1.1,0.1-2.2-0.2-3.2l-0.1-0.3c-0.1,0-0.2-0.1-0.3-0.2
	c-0.1-0.1-0.1-0.1-0.1-0.2c0-0.1,0-0.2,0-0.2c0-0.1,0-0.2,0-0.2c0-0.1,0.1-0.1,0.1-0.2c0.1-0.1,0.1-0.1,0.2-0.1c0.1,0,0.2,0,0.2,0
	c0.1,0,0.2,0,0.2,0c0.1,0,0.1,0.1,0.2,0.1c0.1,0.1,0.1,0.2,0.2,0.3l0.3,0.1c1,0.3,2.2,0.4,3.2,0.2c1.1-0.2,2.1-0.6,3-1.3
	c0.9-0.7,1.6-1.5,2.1-2.5c0.5-1,0.8-2.1,0.8-3.2c0-1.1-0.3-2.2-0.8-3.2c-0.5-1-1.2-1.8-2.1-2.5c-0.9-0.7-1.9-1.1-3-1.3
	s-2.2-0.1-3.2,0.2L62,86.6c0,0.1-0.1,0.2-0.2,0.3C61.8,87,61.8,87,61.7,87c-0.1,0-0.2,0-0.2,0c-0.1,0-0.2,0-0.2,0
	c-0.1,0-0.1-0.1-0.2-0.1c-0.1-0.1-0.1-0.1-0.1-0.2c0-0.1,0-0.2,0-0.2c0-0.1,0-0.2,0-0.2S61,86.1,61,86c0.1-0.1,0.2-0.1,0.3-0.2
	l0.1-0.3c0.3-1,0.4-2.2,0.2-3.2c-0.2-1.1-0.6-2.1-1.3-3c-0.7-0.9-1.5-1.6-2.5-2.1c-1-0.5-2.1-0.8-3.2-0.8c-1.1,0-2.2,0.3-3.2,0.8
	c-1,0.5-1.8,1.2-2.5,2.1c-0.7,0.9-1.1,1.9-1.3,3c-0.2,1.1-0.1,2.2,0.2,3.2l0.1,0.3c0.1,0,0.2,0.1,0.3,0.2c0.1,0.1,0.2,0.3,0.2,0.4
	c0,0.2-0.1,0.3-0.2,0.4c-0.1,0.1-0.3,0.2-0.4,0.2c-0.2,0-0.3-0.1-0.4-0.2c-0.1-0.1-0.1-0.2-0.2-0.3L47,86.5c-1-0.3-2-0.4-3-0.3
	c-1,0.1-2,0.5-2.8,1s-1.6,1.2-2.1,2.1c-0.6,0.8-0.9,1.8-1.1,2.8c-0.2,1-0.1,2,0.2,3c0.3,1,0.8,1.9,1.4,2.6c0.7,0.8,1.5,1.4,2.4,1.8
	C43,100,44,100.2,45,100.2L45,100.2z M50.5,99.2c-0.2,0.2-0.5,0.4-0.9,0.4c-0.3,0-0.6-0.1-0.9-0.4c-0.2-0.2-0.4-0.5-0.4-0.9
	c0-0.3,0.1-0.6,0.4-0.9c0.5-0.5,3.4-2.5,3.8-2.1C53,95.8,51,98.7,50.5,99.2z M54.7,103.6c-0.5,0-1-0.2-1.4-0.6
	c-0.4-0.4-0.6-0.9-0.6-1.4c0-1.1,0.9-6.6,2-6.6c1.1,0,2,5.5,2,6.6c0,0.3-0.1,0.5-0.2,0.8c-0.1,0.2-0.2,0.5-0.4,0.6
	c-0.2,0.2-0.4,0.3-0.6,0.4C55.2,103.6,55,103.6,54.7,103.6L54.7,103.6z M53.8,93.2c0-0.2,0.1-0.3,0.1-0.5c0.1-0.1,0.2-0.3,0.4-0.3
	c0.2-0.1,0.3-0.1,0.5,0c0.2,0,0.3,0.1,0.4,0.2c0.1,0.1,0.2,0.3,0.2,0.4c0,0.2,0,0.3,0,0.5c-0.1,0.2-0.2,0.3-0.3,0.4
	c-0.1,0.1-0.3,0.1-0.5,0.1c-0.1,0-0.2,0-0.3-0.1c-0.1,0-0.2-0.1-0.3-0.2c-0.1-0.1-0.1-0.2-0.2-0.3C53.8,93.5,53.8,93.3,53.8,93.2z
	 M60.6,99.2c-0.2,0.2-0.5,0.4-0.9,0.4s-0.6-0.1-0.9-0.4c-0.5-0.5-2.5-3.4-2.1-3.8c0.4-0.4,3.3,1.6,3.8,2.1c0.1,0.1,0.2,0.3,0.3,0.4
	C61,98,61,98.1,61,98.3c0,0.2,0,0.3-0.1,0.5C60.8,98.9,60.7,99.1,60.6,99.2z M63.1,91.3c0.5,0,1,0.2,1.4,0.6
	c0.4,0.4,0.6,0.9,0.6,1.4c0,0.5-0.2,1-0.6,1.4c-0.4,0.4-0.9,0.6-1.4,0.6c-1.1,0-6.6-0.9-6.6-2C56.5,92.1,62,91.3,63.1,91.3
	L63.1,91.3z M58.9,87.3c0.2-0.2,0.5-0.4,0.9-0.4c0.3,0,0.6,0.1,0.9,0.4c0.2,0.2,0.4,0.5,0.4,0.9c0,0.3-0.1,0.6-0.4,0.9
	c-0.5,0.5-3.4,2.5-3.8,2.1C56.4,90.7,58.4,87.8,58.9,87.3L58.9,87.3z M54.7,82.8c0.5,0,1,0.2,1.4,0.6c0.4,0.4,0.6,0.9,0.6,1.4
	c0,1.1-0.9,6.6-2,6.6c-1.1,0-2-5.5-2-6.6c0-0.5,0.2-1,0.6-1.4C53.7,83,54.2,82.8,54.7,82.8z M48.8,87.3c0.2-0.2,0.5-0.4,0.9-0.4
	s0.6,0.1,0.9,0.4c0.5,0.5,2.5,3.4,2.1,3.8c-0.4,0.4-3.3-1.6-3.8-2.1c-0.2-0.2-0.4-0.5-0.4-0.9C48.4,87.8,48.5,87.5,48.8,87.3z
	 M46.3,91.3c1.1,0,6.6,0.9,6.6,2c0,1.1-5.5,2-6.6,2c-0.5,0-1-0.2-1.4-0.6c-0.4-0.4-0.6-0.9-0.6-1.4c0-0.5,0.2-1,0.6-1.4
	C45.2,91.5,45.7,91.3,46.3,91.3z"/>
<path class="st0" d="M72.9,75.9c-0.2,0-0.5-0.1-0.6-0.3C72.1,75.5,72,75.2,72,75h-0.9c0,1.1-5.5,2-6.6,2c-0.3,0-0.5-0.1-0.8-0.2
	c-0.2-0.1-0.5-0.2-0.6-0.4c-0.2-0.2-0.3-0.4-0.4-0.6c-0.1-0.2-0.2-0.5-0.2-0.8h-7.8c1.2,0,2.4,0.3,3.6,0.8c1.1,0.5,2.1,1.3,2.9,2.2
	c0.8,0.9,1.4,2,1.7,3.2c0.3,1.2,0.4,2.4,0.2,3.6c0.4-0.1,0.9-0.1,1.3-0.1c1.2,0,2.3,0.2,3.4,0.7c1.1,0.5,2,1.2,2.8,2
	c0.8,0.9,1.4,1.9,1.8,3c0.4,1.1,0.5,2.3,0.4,3.5c-0.1,1.2-0.4,2.3-1,3.3c-0.6,1-1.3,1.9-2.2,2.7c-0.9,0.7-2,1.3-3.1,1.6
	c-1.1,0.3-2.3,0.4-3.5,0.2c0.2,1.2,0.1,2.5-0.2,3.6c-0.3,1.2-0.9,2.3-1.7,3.2c-0.8,0.9-1.8,1.7-2.9,2.2c-1.1,0.5-2.3,0.8-3.6,0.8
	s-2.4-0.3-3.6-0.8c-1.1-0.5-2.1-1.3-2.9-2.2c-0.8-0.9-1.4-2-1.7-3.2c-0.3-1.2-0.4-2.4-0.2-3.6c-1.2,0.2-2.5,0.1-3.6-0.2
	c-1.2-0.3-2.3-0.9-3.2-1.7c-0.9-0.8-1.7-1.8-2.2-2.9c-0.5-1.1-0.8-2.3-0.8-3.6v18.2h36.5V75h0V75.9z M42.8,104.3
	c0.1-0.1,0.2-0.1,0.3-0.2s0.2,0,0.4,0c0.1,0,0.2,0.1,0.3,0.2c0.1,0.1,0.1,0.2,0.1,0.3c0,0.1,0,0.2-0.1,0.3c-0.1,0.1-0.2,0.2-0.3,0.2
	c-0.1,0-0.2,0.1-0.4,0c-0.1,0-0.2-0.1-0.3-0.2c-0.1-0.1-0.2-0.3-0.2-0.4C42.6,104.5,42.7,104.4,42.8,104.3z M40.6,105.5
	c0.1-0.1,0.3-0.2,0.4-0.3c0.2-0.1,0.3-0.1,0.5-0.1c0.2,0,0.3,0,0.5,0.1c0.2,0.1,0.3,0.2,0.4,0.3c0.1,0.1,0.2,0.3,0.3,0.4
	c0.1,0.2,0.1,0.3,0.1,0.5c0,0.2,0,0.3-0.1,0.5c-0.1,0.1-0.2,0.3-0.3,0.4c-0.5,0.5-3.4,2.5-3.8,2.1C38.2,108.9,40.2,106,40.6,105.5z
	 M36.5,101.1c0.3,0,0.5,0.1,0.8,0.2c0.2,0.1,0.5,0.2,0.6,0.4c0.2,0.2,0.3,0.4,0.4,0.6c0.1,0.2,0.2,0.5,0.2,0.8c0,1.1-0.9,6.6-2,6.6
	V101.1z M36.5,111.5v-0.9c0.1,0,0.2,0,0.3,0.1c0.1,0,0.2,0.1,0.3,0.2c0.1,0.1,0.1,0.2,0.2,0.3c0,0.1,0.1,0.2,0.1,0.3H36.5z
	 M38.3,111.5c0-1.1,5.5-2,6.6-2c0.5,0,1,0.2,1.4,0.6c0.4,0.4,0.6,0.9,0.6,1.4H38.3z M66.6,82.2c-0.1,0.1-0.2,0.1-0.3,0.2
	c-0.1,0-0.2,0-0.4,0c-0.1,0-0.2-0.1-0.3-0.2c-0.1-0.1-0.1-0.2-0.1-0.3c0-0.1,0-0.2,0.1-0.3c0.1-0.1,0.2-0.2,0.3-0.2
	c0.1,0,0.2-0.1,0.4,0c0.1,0,0.2,0.1,0.3,0.2c0.1,0.1,0.2,0.3,0.2,0.4C66.8,81.9,66.7,82.1,66.6,82.2z M68.7,80.9
	c-0.1,0.1-0.3,0.2-0.4,0.3c-0.2,0.1-0.3,0.1-0.5,0.1c-0.2,0-0.3,0-0.5-0.1c-0.2-0.1-0.3-0.2-0.4-0.3c-0.1-0.1-0.2-0.3-0.3-0.4
	c-0.1-0.2-0.1-0.3-0.1-0.5c0-0.2,0-0.3,0.1-0.5c0.1-0.2,0.2-0.3,0.3-0.4c0.5-0.5,3.4-2.5,3.8-2.1C71.2,77.5,69.2,80.5,68.7,80.9z
	 M72.9,101.1v8.6c-1.1,0-2-5.5-2-6.6c0-0.5,0.2-1,0.6-1.4C71.9,101.3,72.4,101.1,72.9,101.1L72.9,101.1z M68.7,105.5
	c0.5,0.5,2.5,3.4,2.1,3.8c-0.4,0.4-3.3-1.6-3.8-2.1c-0.2-0.2-0.4-0.5-0.4-0.9c0-0.3,0.1-0.6,0.4-0.9c0.2-0.2,0.5-0.4,0.9-0.4
	C68.2,105.2,68.5,105.3,68.7,105.5z M65.7,104.3c0.1-0.1,0.2-0.1,0.3-0.2s0.2,0,0.4,0c0.1,0,0.2,0.1,0.3,0.2
	c0.1,0.1,0.1,0.2,0.1,0.3c0,0.1,0,0.2-0.1,0.3c-0.1,0.1-0.2,0.2-0.3,0.2c-0.1,0-0.2,0.1-0.4,0c-0.1,0-0.2-0.1-0.3-0.2
	c-0.1-0.1-0.2-0.3-0.2-0.4C65.5,104.5,65.6,104.4,65.7,104.3L65.7,104.3z M62.5,111.5c0-0.5,0.2-1,0.6-1.4c0.4-0.4,0.9-0.6,1.4-0.6
	c1.1,0,6.6,0.9,6.6,2H62.5z M72.9,111.5H72c0-0.2,0.1-0.5,0.3-0.6c0.2-0.2,0.4-0.3,0.6-0.3V111.5z M72.9,85.4
	c-0.3,0-0.5-0.1-0.8-0.2c-0.2-0.1-0.5-0.2-0.6-0.4c-0.2-0.2-0.3-0.4-0.4-0.6c-0.1-0.2-0.2-0.5-0.2-0.8c0-1.1,0.9-6.6,2-6.6V85.4z"/>
<path class="st1" d="M0.3,13.9c0.1,0,0.2,0,0.3,0c0.1,0,0.2-0.1,0.3-0.1l7.9-7.9c0.1-0.1,0.1-0.2,0.1-0.3c0-0.1,0-0.2,0-0.3
	c0-0.1-0.1-0.2-0.2-0.2C8.6,5,8.5,5,8.4,5H0.5C0.4,5,0.2,5.1,0.1,5.1C0.1,5.2,0,5.4,0,5.5v7.9c0,0.1,0,0.2,0.1,0.3
	C0.1,13.8,0.2,13.8,0.3,13.9z"/>
<path class="st1" d="M0.3,18c0.1,0.1,0.1,0.1,0.2,0.1s0.2,0,0.2-0.1L13,5.7c0,0,0.1-0.1,0.1-0.1c0,0,0-0.1,0-0.1c0,0,0-0.1,0-0.1
	c0,0,0-0.1-0.1-0.1c0,0-0.1-0.1-0.1-0.1c0,0-0.1,0-0.1,0c0,0-0.1,0-0.1,0c0,0-0.1,0-0.1,0.1L0.3,17.6c-0.1,0.1-0.1,0.1-0.1,0.2
	C0.2,17.9,0.2,18,0.3,18z"/>
<path class="st1" d="M36.1,32.6c-0.1,0-0.2,0-0.3,0c-0.1,0-0.2,0.1-0.3,0.1l-7.9,7.9c-0.1,0.1-0.1,0.2-0.1,0.3c0,0.1,0,0.2,0,0.3
	c0,0.1,0.1,0.2,0.2,0.2c0.1,0.1,0.2,0.1,0.3,0.1H36c0.1,0,0.3-0.1,0.4-0.1c0.1-0.1,0.1-0.2,0.1-0.4v-7.9c0-0.1,0-0.2-0.1-0.3
	C36.3,32.7,36.2,32.6,36.1,32.6z"/>
<path class="st1" d="M36.2,28.4c0,0-0.1-0.1-0.1-0.1c0,0-0.1,0-0.1,0c0,0-0.1,0-0.1,0c0,0-0.1,0-0.1,0.1L23.4,40.7
	c-0.1,0.1-0.1,0.1-0.1,0.2c0,0.1,0,0.2,0.1,0.2c0.1,0.1,0.1,0.1,0.2,0.1c0.1,0,0.2,0,0.2-0.1l12.3-12.3c0,0,0.1-0.1,0.1-0.1
	c0,0,0-0.1,0-0.1c0,0,0-0.1,0-0.1C36.2,28.5,36.2,28.5,36.2,28.4z"/>
<path class="st1" d="M0.9,32.7c0,0-0.1-0.1-0.2-0.1c-0.1,0-0.1,0-0.2,0c-0.1,0-0.1,0-0.2,0c-0.1,0-0.2,0.1-0.2,0.2
	C0,32.9,0,33,0,33.1V41c0,0.1,0,0.1,0,0.2c0,0.1,0.1,0.1,0.1,0.2c0,0,0.1,0.1,0.2,0.1c0.1,0,0.1,0,0.2,0h7.9c0.1,0,0.2,0,0.3-0.1
	c0.1-0.1,0.1-0.1,0.2-0.2c0-0.1,0-0.2,0-0.3c0-0.1-0.1-0.2-0.1-0.3L0.9,32.7z"/>
<path class="st1" d="M0.7,28.4c-0.1-0.1-0.1-0.1-0.2-0.1c-0.1,0-0.2,0-0.2,0.1c-0.1,0.1-0.1,0.1-0.1,0.2c0,0.1,0,0.2,0.1,0.2
	l12.3,12.3c0.1,0.1,0.1,0.1,0.2,0.1c0.1,0,0.2,0,0.2-0.1c0,0,0.1-0.1,0.1-0.1c0,0,0-0.1,0-0.1c0,0,0-0.1,0-0.1c0,0,0-0.1-0.1-0.1
	L0.7,28.4z"/>
<path class="st1" d="M35.6,13.8c0.1,0.1,0.2,0.1,0.4,0.1c0.1,0,0.1,0,0.2,0c0.1,0,0.2-0.1,0.2-0.2c0.1-0.1,0.1-0.2,0.1-0.3V5.5
	c0-0.1-0.1-0.3-0.1-0.4S36.1,5,36,5h-7.9c-0.1,0-0.2,0-0.3,0.1c-0.1,0.1-0.1,0.1-0.2,0.2c0,0.1,0,0.2,0,0.3c0,0.1,0.1,0.2,0.1,0.3
	L35.6,13.8z"/>
<path class="st1" d="M35.7,18c0.1,0.1,0.1,0.1,0.2,0.1c0.1,0,0.1,0,0.2-0.1c0.1,0,0.1-0.1,0.1-0.1c0-0.1,0-0.1,0-0.2
	c0-0.1,0-0.1-0.1-0.2L23.9,5.3c-0.1-0.1-0.1-0.1-0.2-0.1c-0.1,0-0.2,0-0.2,0.1c-0.1,0.1-0.1,0.1-0.1,0.2c0,0.1,0,0.2,0.1,0.2
	L35.7,18z"/>
<path class="st1" d="M17.9,19.6c0,0.1,0.1,0.1,0.2,0.1c0.1,0,0.1,0,0.2,0c0.1,0,0.1,0,0.2,0c0.1,0,0.1-0.1,0.2-0.1
	c0.6-0.6,1.1-1.3,1.5-2.1c0.9-1.5,1.4-3.3,1.5-5.1c-0.1-1.8-0.6-3.6-1.5-5.1c-0.4-0.7-0.9-1.5-1.5-2.1c0-0.1-0.1-0.1-0.2-0.1
	c-0.1,0-0.1,0-0.2,0c-0.1,0-0.1,0-0.2,0c-0.1,0-0.1,0.1-0.2,0.1c-0.6,0.6-1.1,1.3-1.5,2.1c-0.9,1.5-1.4,3.3-1.5,5.1
	c0.1,1.8,0.6,3.6,1.5,5.1C16.8,18.2,17.3,18.9,17.9,19.6z"/>
<path class="st1" d="M18.6,26.9c0-0.1-0.1-0.1-0.2-0.1c-0.1,0-0.1,0-0.2,0c-0.1,0-0.1,0-0.2,0c-0.1,0-0.1,0.1-0.2,0.1
	c-0.6,0.6-1.1,1.4-1.5,2.1c-0.9,1.5-1.4,3.3-1.5,5.1c0.1,1.8,0.6,3.6,1.5,5.1c0.4,0.7,0.9,1.5,1.5,2.1c0,0.1,0.1,0.1,0.2,0.1
	c0.1,0,0.1,0,0.2,0s0.1,0,0.2,0c0.1,0,0.1-0.1,0.2-0.1c0.6-0.6,1.1-1.4,1.5-2.1c0.9-1.5,1.4-3.3,1.5-5.1c-0.1-1.8-0.6-3.6-1.5-5.1
	C19.7,28.3,19.2,27.6,18.6,26.9z"/>
<path class="st1" d="M2.3,21.4c-0.7,0.4-1.5,0.9-2.1,1.5C0.1,22.9,0.1,23,0,23c0,0.1,0,0.1,0,0.2s0,0.1,0,0.2c0,0.1,0.1,0.1,0.1,0.2
	c0.6,0.6,1.3,1.1,2.1,1.5c1.5,0.9,3.3,1.4,5.1,1.5c1.8-0.1,3.6-0.6,5.1-1.5c0.7-0.4,1.5-0.9,2.1-1.5c0.1,0,0.1-0.1,0.1-0.2
	c0-0.1,0-0.1,0-0.2s0-0.1,0-0.2c0-0.1-0.1-0.1-0.1-0.2c-0.6-0.6-1.3-1.1-2.1-1.5c-1.5-0.9-3.3-1.4-5.1-1.5
	C5.6,19.9,3.8,20.4,2.3,21.4z"/>
<path class="st1" d="M21.9,22.9c-0.1,0-0.1,0.1-0.1,0.2c0,0.1,0,0.1,0,0.2c0,0.1,0,0.1,0,0.2c0,0.1,0.1,0.1,0.1,0.2
	c0.6,0.6,1.3,1.1,2.1,1.5c1.5,0.9,3.3,1.4,5.1,1.5c1.8-0.1,3.6-0.6,5.1-1.5c0.7-0.4,1.5-0.9,2.1-1.5c0.1,0,0.1-0.1,0.1-0.2
	c0-0.1,0-0.1,0-0.2c0-0.1,0-0.1,0-0.2s-0.1-0.1-0.1-0.2c-0.6-0.6-1.3-1.1-2.1-1.5c-1.5-0.9-3.3-1.4-5.1-1.5
	c-1.8,0.1-3.6,0.6-5.1,1.5C23.3,21.8,22.6,22.3,21.9,22.9z"/>
<path class="st1" d="M19.3,23.2c0-0.2-0.1-0.4-0.2-0.6c-0.1-0.2-0.3-0.3-0.5-0.4c-0.2-0.1-0.4-0.1-0.6-0.1c-0.2,0-0.4,0.1-0.5,0.3
	s-0.3,0.3-0.3,0.5c0,0.2,0,0.4,0.1,0.6c0.1,0.2,0.2,0.4,0.4,0.5c0.2,0.1,0.4,0.2,0.6,0.2c0.1,0,0.3,0,0.4-0.1
	c0.1-0.1,0.2-0.1,0.3-0.2c0.1-0.1,0.2-0.2,0.2-0.3C19.3,23.5,19.3,23.4,19.3,23.2z"/>
<path class="st2" d="M21,26.3c0.4,0.6,3.9,5.5,4.4,5.9c0.3,0.2,0.6,0.4,0.9,0.4c0.4,0,0.7-0.1,0.9-0.4s0.4-0.6,0.4-0.9
	c0-0.4-0.1-0.7-0.4-0.9c-0.4-0.4-5.3-4-5.9-4.4c0,0-0.1-0.1-0.2,0c-0.1,0-0.1,0-0.2,0.1c0,0-0.1,0.1-0.1,0.2
	C20.9,26.2,20.9,26.3,21,26.3L21,26.3z"/>
<path class="st2" d="M15.1,26c-0.6,0.4-5.5,3.9-5.9,4.4c-0.3,0.3-0.4,0.6-0.4,0.9c0,0.4,0.1,0.7,0.4,0.9c0.3,0.3,0.6,0.4,0.9,0.4
	c0.4,0,0.7-0.1,0.9-0.4c0,0,3.6-4.8,4.4-5.9c0,0,0.1-0.1,0-0.2c0-0.1,0-0.1-0.1-0.2c0,0-0.1-0.1-0.2-0.1
	C15.2,25.9,15.2,25.9,15.1,26L15.1,26z"/>
<path class="st2" d="M26.3,13.8c-0.2,0-0.4,0-0.5,0.1c-0.2,0.1-0.3,0.2-0.4,0.3c-0.4,0.4-4,5.3-4.4,5.9c0,0-0.1,0.1,0,0.2
	c0,0.1,0,0.1,0.1,0.2c0,0,0.1,0,0.1,0.1c0,0,0.1,0,0.1,0c0.1,0,0.1,0,0.1,0c0.6-0.4,5-3.5,5.5-3.9c0.5-0.5,1-1.8,0.5-2.3
	c-0.1-0.1-0.3-0.2-0.4-0.3C26.6,13.9,26.5,13.8,26.3,13.8z"/>
<path class="st2" d="M15.5,20.1c-0.5-0.8-3.7-5.3-4.3-5.9c-0.1-0.1-0.3-0.2-0.4-0.3c-0.2-0.1-0.3-0.1-0.5-0.1c-0.2,0-0.4,0-0.5,0.1
	c-0.2,0.1-0.3,0.2-0.4,0.3c-0.1,0.1-0.2,0.3-0.3,0.4c-0.1,0.2-0.1,0.3-0.1,0.5c0,0.2,0,0.4,0.1,0.5C9,15.9,9.1,16,9.2,16.1
	c0.4,0.4,5.3,4,5.9,4.4c0,0,0.1,0,0.1,0h0c0,0,0.1,0,0.1,0c0,0,0.1,0,0.1-0.1c0,0,0-0.1,0.1-0.1c0,0,0-0.1,0-0.1
	C15.5,20.2,15.5,20.2,15.5,20.1z"/>
<path class="st3" d="M89.1,19.5c0.9,0,1.7,0.1,2.6,0.2c-0.4-2.4-0.2-4.9,0.5-7.3C92.8,10,94,7.8,95.6,6c1.6-1.9,3.6-3.4,5.8-4.4
	c2.2-1,4.7-1.6,7.1-1.6H92.8c0,0.5-0.1,1-0.3,1.5c-0.2,0.5-0.5,0.9-0.9,1.3s-0.8,0.7-1.3,0.9c-0.5,0.2-1,0.3-1.5,0.3
	c-2.2,0-13.3-1.8-13.3-4H72v36.5c0-4.5,1.8-8.9,5-12.1C80.2,21.3,84.5,19.5,89.1,19.5z M86.4,12.7c0.2,0.2,0.3,0.4,0.3,0.6
	c0,0.2,0,0.5-0.1,0.7c-0.1,0.2-0.3,0.4-0.5,0.6c-0.2,0.1-0.4,0.2-0.7,0.2c-0.2,0-0.5-0.1-0.7-0.2c-0.2-0.1-0.4-0.3-0.5-0.6
	c-0.1-0.2-0.1-0.5-0.1-0.7c0-0.2,0.2-0.5,0.3-0.6c0.2-0.2,0.6-0.4,0.9-0.4C85.9,12.3,86.2,12.4,86.4,12.7z M72,0h1.8
	c0,0.2,0,0.5-0.1,0.7c-0.1,0.2-0.2,0.4-0.4,0.6c-0.2,0.2-0.4,0.3-0.6,0.4S72.2,1.8,72,1.8V0z M72,20.8V3.6c2.2,0,4,11.1,4,13.3
	c0,0.5-0.1,1-0.3,1.5c-0.2,0.5-0.5,0.9-0.9,1.3c-0.4,0.4-0.8,0.7-1.3,0.9C73,20.7,72.5,20.8,72,20.8z M76.3,4.3
	c0.8-0.8,6.7,3.2,7.6,4.1c0.2,0.2,0.4,0.5,0.5,0.8c0.1,0.3,0.2,0.6,0.2,1c0,0.3-0.1,0.7-0.2,1c-0.1,0.3-0.3,0.6-0.5,0.8
	c-0.2,0.2-0.5,0.4-0.8,0.5c-0.3,0.1-0.6,0.2-1,0.2c-0.3,0-0.7-0.1-1-0.2c-0.3-0.1-0.6-0.3-0.8-0.5C79.4,10.9,75.5,5.1,76.3,4.3z"/>
<path class="st3" d="M89,50.6c1.4,0,2.8-0.2,4.2-0.6l0.6-0.2c0-0.2,0.2-0.4,0.3-0.6c0.1-0.1,0.3-0.2,0.4-0.3s0.3-0.1,0.5-0.1
	s0.3,0,0.5,0.1s0.3,0.2,0.4,0.3c0.1,0.1,0.2,0.3,0.3,0.4c0.1,0.2,0.1,0.3,0.1,0.5c0,0.2,0,0.3-0.1,0.5c-0.1,0.2-0.2,0.3-0.3,0.4
	c-0.2,0.1-0.4,0.3-0.6,0.3l-0.2,0.6c-0.7,2.1-0.8,4.3-0.4,6.5c0.4,2.2,1.2,4.2,2.5,6c1.3,1.8,3,3.2,5,4.2s4.1,1.5,6.3,1.5
	c2.2,0,4.4-0.5,6.3-1.5c2-1,3.7-2.4,5-4.2c1.3-1.8,2.2-3.8,2.5-6c0.4-2.2,0.2-4.4-0.4-6.5l-0.2-0.6c-0.2,0-0.4-0.2-0.6-0.3
	c-0.1-0.1-0.2-0.3-0.3-0.4c-0.1-0.2-0.1-0.3-0.1-0.5c0-0.2,0-0.3,0.1-0.5c0.1-0.2,0.2-0.3,0.3-0.4c0.1-0.1,0.3-0.2,0.4-0.3
	s0.3-0.1,0.5-0.1c0.2,0,0.3,0,0.5,0.1c0.2,0.1,0.3,0.2,0.4,0.3c0.1,0.2,0.3,0.4,0.3,0.6l0.6,0.2c2.1,0.7,4.3,0.8,6.5,0.4
	c2.2-0.4,4.2-1.2,6-2.5c1.8-1.3,3.2-3,4.2-5c1-2,1.5-4.1,1.5-6.3s-0.5-4.4-1.5-6.3c-1-2-2.4-3.7-4.2-5c-1.8-1.3-3.8-2.2-6-2.5
	c-2.2-0.4-4.4-0.2-6.5,0.4l-0.6,0.2c0,0.2-0.2,0.4-0.3,0.6c-0.1,0.1-0.3,0.2-0.4,0.3c-0.2,0.1-0.3,0.1-0.5,0.1c-0.2,0-0.3,0-0.5-0.1
	c-0.2-0.1-0.3-0.2-0.4-0.3c-0.1-0.1-0.2-0.3-0.3-0.4c-0.1-0.2-0.1-0.3-0.1-0.5c0-0.2,0-0.3,0.1-0.5c0.1-0.2,0.2-0.3,0.3-0.4
	c0.2-0.1,0.3-0.3,0.6-0.3l0.2-0.6c0.7-2.1,0.8-4.3,0.4-6.5c-0.4-2.2-1.2-4.2-2.5-6c-1.3-1.8-3-3.2-5-4.2c-2-1-4.1-1.5-6.3-1.5
	c-2.2,0-4.4,0.5-6.3,1.5c-2,1-3.7,2.4-5,4.2c-1.3,1.8-2.2,3.8-2.5,6s-0.2,4.4,0.4,6.5l0.2,0.6c0.2,0,0.4,0.2,0.6,0.3
	c0.2,0.2,0.4,0.6,0.4,0.9c0,0.3-0.1,0.7-0.4,0.9c-0.2,0.2-0.6,0.4-0.9,0.4c-0.3,0-0.7-0.1-0.9-0.4c-0.1-0.2-0.3-0.4-0.3-0.6
	l-0.6-0.2c-1.9-0.6-4-0.8-6-0.5c-2,0.3-3.9,0.9-5.6,2c-1.7,1.1-3.2,2.5-4.3,4.2c-1.1,1.7-1.8,3.6-2.1,5.6c-0.3,2-0.2,4,0.4,6
	c0.6,1.9,1.5,3.7,2.8,5.3c1.3,1.5,3,2.8,4.8,3.6C85,50.2,87,50.6,89,50.6L89,50.6z M100.2,48.5c-0.5,0.5-1.1,0.7-1.8,0.7
	c-0.7,0-1.3-0.3-1.8-0.7c-0.5-0.5-0.7-1.1-0.7-1.8c0-0.7,0.3-1.3,0.7-1.8c1-1,6.9-4.9,7.6-4.1C105.1,41.6,101.1,47.5,100.2,48.5z
	 M108.5,57.4c-1,0-2.1-0.4-2.8-1.2c-0.7-0.7-1.2-1.7-1.2-2.8c0-2.2,1.8-13.3,4-13.3c2.2,0,4,11.1,4,13.3c0,0.5-0.1,1-0.3,1.5
	c-0.2,0.5-0.5,0.9-0.9,1.3c-0.4,0.4-0.8,0.7-1.3,0.9C109.6,57.3,109.1,57.4,108.5,57.4L108.5,57.4z M106.8,36.5c0-0.3,0.1-0.7,0.3-1
	c0.2-0.3,0.5-0.5,0.8-0.6c0.3-0.1,0.7-0.2,1-0.1c0.3,0.1,0.7,0.2,0.9,0.5c0.2,0.2,0.4,0.6,0.5,0.9c0.1,0.3,0,0.7-0.1,1
	c-0.1,0.3-0.4,0.6-0.6,0.8c-0.3,0.2-0.6,0.3-1,0.3c-0.2,0-0.5,0-0.7-0.1c-0.2-0.1-0.4-0.2-0.6-0.4c-0.2-0.2-0.3-0.4-0.4-0.6
	C106.8,37,106.8,36.8,106.8,36.5z M120.5,48.5c-0.5,0.5-1.1,0.7-1.8,0.7c-0.7,0-1.3-0.3-1.8-0.7c-1-1-4.9-6.9-4.1-7.6
	c0.8-0.8,6.7,3.2,7.6,4.1c0.2,0.2,0.4,0.5,0.5,0.8c0.1,0.3,0.2,0.6,0.2,1c0,0.3-0.1,0.6-0.2,1C120.9,47.9,120.7,48.2,120.5,48.5z
	 M125.4,32.6c1,0,2.1,0.4,2.8,1.2c0.7,0.7,1.2,1.7,1.2,2.8c0,1-0.4,2.1-1.2,2.8c-0.7,0.7-1.7,1.2-2.8,1.2c-2.2,0-13.3-1.8-13.3-4
	C112.2,34.4,123.2,32.6,125.4,32.6L125.4,32.6z M116.9,24.6c0.5-0.5,1.1-0.7,1.8-0.7c0.7,0,1.3,0.3,1.8,0.7c0.5,0.5,0.7,1.1,0.7,1.8
	c0,0.7-0.3,1.3-0.7,1.8c-1,1-6.9,4.9-7.6,4.1C112,31.5,116,25.6,116.9,24.6L116.9,24.6z M108.5,15.7c1,0,2.1,0.4,2.8,1.2
	c0.7,0.7,1.2,1.7,1.2,2.8c0,2.2-1.8,13.3-4,13.3c-2.2,0-4-11.1-4-13.3c0-1,0.4-2.1,1.2-2.8C106.5,16.1,107.5,15.7,108.5,15.7z
	 M96.6,24.6c0.5-0.5,1.1-0.7,1.8-0.7c0.7,0,1.3,0.3,1.8,0.7c1,1,4.9,6.9,4.1,7.6c-0.8,0.8-6.7-3.2-7.6-4.1c-0.5-0.5-0.7-1.1-0.7-1.8
	S96.2,25.1,96.6,24.6z M91.7,32.6c2.2,0,13.3,1.8,13.3,4c0,2.2-11.1,4-13.3,4c-1,0-2.1-0.4-2.8-1.2c-0.7-0.7-1.2-1.7-1.2-2.8
	c0-1,0.4-2.1,1.2-2.8C89.6,33,90.6,32.6,91.7,32.6z"/>
<path class="st3" d="M145.1,1.8c-0.5,0-0.9-0.2-1.2-0.5c-0.3-0.3-0.5-0.8-0.5-1.2h-1.9c0,2.2-11.1,4-13.3,4c-0.5,0-1-0.1-1.5-0.3
	c-0.5-0.2-0.9-0.5-1.3-0.9c-0.4-0.4-0.7-0.8-0.9-1.3c-0.2-0.5-0.3-1-0.3-1.5h-15.7c2.5,0,4.9,0.5,7.1,1.6c2.2,1,4.2,2.5,5.8,4.4
	c1.6,1.9,2.8,4.1,3.5,6.4c0.7,2.4,0.8,4.9,0.5,7.3c0.9-0.1,1.7-0.2,2.6-0.2c2.4,0,4.7,0.5,6.8,1.4c2.2,0.9,4.1,2.3,5.7,4
	c1.6,1.7,2.8,3.8,3.6,6c0.8,2.2,1.1,4.6,0.9,6.9c-0.2,2.3-0.8,4.6-1.9,6.7c-1.1,2.1-2.6,3.9-4.5,5.4c-1.8,1.5-4,2.5-6.2,3.1
	c-2.3,0.6-4.6,0.7-7,0.4c0.4,2.4,0.2,4.9-0.5,7.3c-0.7,2.4-1.9,4.6-3.5,6.4c-1.6,1.9-3.6,3.4-5.8,4.4c-2.2,1-4.7,1.6-7.1,1.6
	c-2.5,0-4.9-0.5-7.1-1.6c-2.2-1-4.2-2.5-5.8-4.4c-1.6-1.9-2.8-4.1-3.5-6.4c-0.7-2.4-0.8-4.8-0.5-7.3c-2.4,0.4-4.9,0.2-7.3-0.5
	c-2.4-0.7-4.6-1.9-6.4-3.5c-1.9-1.6-3.4-3.6-4.4-5.8c-1-2.2-1.6-4.7-1.6-7.1v36.5h73.1V0h0V1.8z M84.7,58.6c0.2-0.2,0.4-0.3,0.6-0.3
	c0.2,0,0.5,0,0.7,0.1c0.2,0.1,0.4,0.3,0.6,0.5c0.1,0.2,0.2,0.4,0.2,0.7c0,0.2-0.1,0.5-0.2,0.7c-0.1,0.2-0.3,0.4-0.6,0.5
	c-0.2,0.1-0.5,0.1-0.7,0.1c-0.2,0-0.5-0.2-0.6-0.3c-0.2-0.2-0.4-0.6-0.4-0.9C84.3,59.2,84.4,58.9,84.7,58.6z M80.4,61.2
	c0.2-0.2,0.5-0.4,0.8-0.5c0.3-0.1,0.6-0.2,1-0.2c0.3,0,0.7,0.1,1,0.2c0.3,0.1,0.6,0.3,0.8,0.5c0.2,0.2,0.4,0.5,0.5,0.8
	c0.1,0.3,0.2,0.6,0.2,1c0,0.3-0.1,0.7-0.2,1c-0.1,0.3-0.3,0.6-0.5,0.8c-1,1-6.9,4.9-7.6,4.1C75.5,68,79.4,62.1,80.4,61.2z M72,52.2
	c0.5,0,1,0.1,1.5,0.3c0.5,0.2,0.9,0.5,1.3,0.9c0.4,0.4,0.7,0.8,0.9,1.3c0.2,0.5,0.3,1,0.3,1.5c0,2.2-1.8,13.3-4,13.3V52.2z M72,73.1
	v-1.8c0.2,0,0.5,0,0.7,0.1c0.2,0.1,0.4,0.2,0.6,0.4c0.2,0.2,0.3,0.4,0.4,0.6c0.1,0.2,0.1,0.4,0.1,0.7H72z M75.6,73.1
	c0-2.2,11.1-4,13.3-4c1,0,2.1,0.4,2.8,1.2c0.7,0.7,1.2,1.7,1.2,2.8H75.6z M132.4,14.4c-0.2,0.2-0.4,0.3-0.6,0.3
	c-0.2,0-0.5,0-0.7-0.1c-0.2-0.1-0.4-0.3-0.6-0.5c-0.1-0.2-0.2-0.4-0.2-0.7c0-0.2,0.1-0.5,0.2-0.7c0.1-0.2,0.3-0.4,0.6-0.5
	c0.2-0.1,0.5-0.1,0.7-0.1c0.2,0,0.5,0.2,0.6,0.3c0.2,0.2,0.4,0.6,0.4,0.9C132.8,13.9,132.6,14.2,132.4,14.4z M136.7,11.9
	c-0.2,0.2-0.5,0.4-0.8,0.5c-0.3,0.1-0.6,0.2-1,0.2c-0.3,0-0.6-0.1-1-0.2c-0.3-0.1-0.6-0.3-0.8-0.5c-0.2-0.2-0.4-0.5-0.5-0.8
	s-0.2-0.6-0.2-1c0-0.3,0.1-0.6,0.2-1c0.1-0.3,0.3-0.6,0.5-0.8c1-1,6.9-4.9,7.6-4.1C141.6,5.1,137.7,10.9,136.7,11.9z M145.1,52.2
	v17.2c-2.2,0-4-11.1-4-13.3c0-1,0.4-2.1,1.2-2.8C143,52.7,144,52.2,145.1,52.2L145.1,52.2z M136.7,61.2c1,1,4.9,6.9,4.1,7.6
	c-0.8,0.8-6.7-3.2-7.6-4.1c-0.5-0.5-0.7-1.1-0.7-1.8c0-0.7,0.3-1.3,0.7-1.8c0.5-0.5,1.1-0.7,1.8-0.7
	C135.6,60.5,136.2,60.7,136.7,61.2z M130.6,58.6c0.2-0.2,0.4-0.3,0.6-0.3c0.2,0,0.5,0,0.7,0.1c0.2,0.1,0.4,0.3,0.6,0.5
	c0.1,0.2,0.2,0.4,0.2,0.7c0,0.2-0.1,0.5-0.2,0.7c-0.1,0.2-0.3,0.4-0.6,0.5c-0.2,0.1-0.5,0.1-0.7,0.1c-0.2,0-0.5-0.2-0.6-0.3
	c-0.2-0.2-0.4-0.6-0.4-0.9C130.3,59.2,130.4,58.9,130.6,58.6L130.6,58.6z M124.2,73.1c0-1,0.4-2.1,1.2-2.8c0.7-0.7,1.7-1.2,2.8-1.2
	c2.2,0,13.3,1.8,13.3,4H124.2z M145.1,73.1h-1.8c0-0.5,0.2-0.9,0.5-1.2c0.3-0.3,0.8-0.5,1.2-0.5V73.1z M145.1,20.8
	c-0.5,0-1-0.1-1.5-0.3c-0.5-0.2-0.9-0.5-1.3-0.9c-0.4-0.4-0.7-0.8-0.9-1.3c-0.2-0.5-0.3-1-0.3-1.5c0-2.2,1.8-13.3,4-13.3V20.8z"/>
<path class="st0" d="M177.3,47.9c0.1,0,0.2,0,0.3,0c0.1,0,0.2-0.1,0.3-0.1l7.9-7.9c0.1-0.1,0.1-0.2,0.1-0.3c0-0.1,0-0.2,0-0.3
	c0-0.1-0.1-0.2-0.2-0.2c-0.1-0.1-0.2-0.1-0.3-0.1h-7.9c-0.1,0-0.3,0.1-0.4,0.1s-0.1,0.2-0.1,0.4v7.9c0,0.1,0,0.2,0.1,0.3
	C177.1,47.8,177.2,47.9,177.3,47.9z"/>
<path class="st0" d="M177.3,52c0.1,0.1,0.1,0.1,0.2,0.1c0.1,0,0.2,0,0.2-0.1L190,39.7c0,0,0.1-0.1,0.1-0.1c0,0,0-0.1,0-0.1
	c0,0,0-0.1,0-0.1c0,0,0-0.1-0.1-0.1c0,0-0.1-0.1-0.1-0.1c0,0-0.1,0-0.1,0c0,0-0.1,0-0.1,0c0,0-0.1,0-0.1,0.1l-12.3,12.3
	c-0.1,0.1-0.1,0.1-0.1,0.2C177.2,51.9,177.2,52,177.3,52z"/>
<path class="st0" d="M213.2,66.6c-0.1,0-0.2,0-0.3,0c-0.1,0-0.2,0.1-0.3,0.1l-7.9,7.9c-0.1,0.1-0.1,0.2-0.1,0.3c0,0.1,0,0.2,0,0.3
	c0,0.1,0.1,0.2,0.2,0.2c0.1,0.1,0.2,0.1,0.3,0.1h7.9c0.1,0,0.3-0.1,0.4-0.1c0.1-0.1,0.1-0.2,0.1-0.4v-7.9c0-0.1,0-0.2-0.1-0.3
	C213.4,66.8,213.3,66.7,213.2,66.6z"/>
<path class="st0" d="M213.3,62.5c0,0-0.1-0.1-0.1-0.1c0,0-0.1,0-0.1,0s-0.1,0-0.1,0c0,0-0.1,0-0.1,0.1l-12.3,12.3
	c-0.1,0.1-0.1,0.1-0.1,0.2s0,0.2,0.1,0.2c0.1,0.1,0.1,0.1,0.2,0.1c0.1,0,0.2,0,0.2-0.1L213.3,63c0,0,0.1-0.1,0.1-0.1
	c0,0,0-0.1,0-0.1s0-0.1,0-0.1C213.3,62.6,213.3,62.5,213.3,62.5z"/>
<path class="st0" d="M177.9,66.8c0,0-0.1-0.1-0.2-0.1c-0.1,0-0.1,0-0.2,0c-0.1,0-0.1,0-0.2,0c-0.1,0-0.2,0.1-0.2,0.2
	c-0.1,0.1-0.1,0.2-0.1,0.3V75c0,0.1,0,0.1,0,0.2c0,0.1,0.1,0.1,0.1,0.2c0,0,0.1,0.1,0.2,0.1c0.1,0,0.1,0,0.2,0h7.9
	c0.1,0,0.2,0,0.3-0.1c0.1-0.1,0.1-0.1,0.2-0.2c0-0.1,0-0.2,0-0.3c0-0.1-0.1-0.2-0.1-0.3L177.9,66.8z"/>
<path class="st0" d="M177.7,62.5c-0.1-0.1-0.1-0.1-0.2-0.1c-0.1,0-0.2,0-0.2,0.1c-0.1,0.1-0.1,0.1-0.1,0.2c0,0.1,0,0.2,0.1,0.2
	l12.3,12.3c0.1,0.1,0.1,0.1,0.2,0.1c0.1,0,0.2,0,0.2-0.1c0,0,0.1-0.1,0.1-0.1c0,0,0-0.1,0-0.1c0,0,0-0.1,0-0.1c0,0,0-0.1-0.1-0.1
	L177.7,62.5z"/>
<path class="st0" d="M212.7,47.8c0.1,0.1,0.2,0.1,0.4,0.1c0.1,0,0.1,0,0.2,0c0.1,0,0.2-0.1,0.2-0.2c0.1-0.1,0.1-0.2,0.1-0.3v-7.9
	c0-0.1-0.1-0.3-0.1-0.4c-0.1-0.1-0.2-0.1-0.4-0.1h-7.9c-0.1,0-0.2,0-0.3,0.1c-0.1,0.1-0.1,0.1-0.2,0.2c0,0.1,0,0.2,0,0.3
	c0,0.1,0.1,0.2,0.1,0.3L212.7,47.8z"/>
<path class="st0" d="M212.8,52c0.1,0.1,0.1,0.1,0.2,0.1c0.1,0,0.1,0,0.2-0.1c0.1,0,0.1-0.1,0.1-0.1c0-0.1,0-0.1,0-0.2
	c0-0.1,0-0.1-0.1-0.2L201,39.3c-0.1-0.1-0.1-0.1-0.2-0.1c-0.1,0-0.2,0-0.2,0.1c-0.1,0.1-0.1,0.1-0.1,0.2s0,0.2,0.1,0.2L212.8,52z"/>
<path class="st0" d="M194.9,53.6c0,0.1,0.1,0.1,0.2,0.1c0.1,0,0.1,0,0.2,0c0.1,0,0.1,0,0.2,0c0.1,0,0.1-0.1,0.2-0.1
	c0.6-0.6,1.1-1.4,1.5-2.1c0.9-1.5,1.4-3.3,1.5-5.1c-0.1-1.8-0.6-3.6-1.5-5.1c-0.4-0.8-0.9-1.5-1.5-2.1c0-0.1-0.1-0.1-0.2-0.1
	c-0.1,0-0.1,0-0.2,0c-0.1,0-0.1,0-0.2,0c-0.1,0-0.1,0.1-0.2,0.1c-0.6,0.6-1.1,1.4-1.5,2.1c-0.9,1.5-1.4,3.3-1.5,5.1
	c0.1,1.8,0.6,3.6,1.5,5.1C193.8,52.2,194.3,52.9,194.9,53.6z"/>
<path class="st0" d="M195.6,61c0-0.1-0.1-0.1-0.2-0.1c-0.1,0-0.1,0-0.2,0c-0.1,0-0.1,0-0.2,0c-0.1,0-0.1,0.1-0.2,0.1
	c-0.6,0.6-1.1,1.4-1.5,2.1c-0.9,1.5-1.4,3.3-1.5,5.1c0.1,1.8,0.6,3.6,1.5,5.1c0.4,0.8,0.9,1.5,1.5,2.1c0,0.1,0.1,0.1,0.2,0.1
	c0.1,0,0.1,0,0.2,0c0.1,0,0.1,0,0.2,0c0.1,0,0.1-0.1,0.2-0.1c0.6-0.6,1.1-1.4,1.5-2.1c0.9-1.5,1.4-3.3,1.5-5.1
	c-0.1-1.8-0.6-3.6-1.5-5.1C196.7,62.3,196.2,61.6,195.6,61z"/>
<path class="st0" d="M179.3,55.4c-0.8,0.4-1.5,0.9-2.1,1.5c-0.1,0-0.1,0.1-0.1,0.2c0,0.1,0,0.1,0,0.2c0,0.1,0,0.1,0,0.2
	c0,0.1,0.1,0.1,0.1,0.2c0.6,0.6,1.4,1.1,2.1,1.5c1.5,0.9,3.3,1.4,5.1,1.5c1.8-0.1,3.6-0.6,5.1-1.5c0.8-0.4,1.5-0.9,2.1-1.5
	c0.1,0,0.1-0.1,0.1-0.2c0-0.1,0-0.1,0-0.2c0-0.1,0-0.1,0-0.2c0-0.1-0.1-0.1-0.1-0.2c-0.6-0.6-1.4-1.1-2.1-1.5
	c-1.5-0.9-3.3-1.4-5.1-1.5C182.6,54,180.8,54.5,179.3,55.4z"/>
<path class="st0" d="M199,56.9c-0.1,0-0.1,0.1-0.1,0.2c0,0.1,0,0.1,0,0.2c0,0.1,0,0.1,0,0.2s0.1,0.1,0.1,0.2
	c0.6,0.6,1.4,1.1,2.1,1.5c1.5,0.9,3.3,1.4,5.1,1.5c1.8-0.1,3.6-0.6,5.1-1.5c0.8-0.4,1.5-0.9,2.1-1.5c0.1,0,0.1-0.1,0.1-0.2
	c0-0.1,0-0.1,0-0.2c0-0.1,0-0.1,0-0.2s-0.1-0.1-0.1-0.2c-0.6-0.6-1.4-1.1-2.1-1.5c-1.5-0.9-3.3-1.4-5.1-1.5
	c-1.8,0.1-3.6,0.6-5.1,1.5C200.3,55.8,199.6,56.3,199,56.9z"/>
<path class="st0" d="M196.3,57.3c0-0.2-0.1-0.4-0.2-0.6c-0.1-0.2-0.3-0.3-0.5-0.4c-0.2-0.1-0.4-0.1-0.6-0.1c-0.2,0-0.4,0.1-0.5,0.3
	c-0.2,0.1-0.3,0.3-0.3,0.5c0,0.2,0,0.4,0.1,0.6c0.1,0.2,0.2,0.4,0.4,0.5c0.2,0.1,0.4,0.2,0.6,0.2c0.1,0,0.3,0,0.4-0.1
	c0.1-0.1,0.2-0.1,0.3-0.2c0.1-0.1,0.2-0.2,0.2-0.3S196.3,57.4,196.3,57.3z"/>
<path class="st0" d="M198,60.4c0.4,0.6,3.9,5.5,4.4,5.9c0.3,0.3,0.6,0.4,0.9,0.4c0.4,0,0.7-0.1,0.9-0.4c0.3-0.3,0.4-0.6,0.4-0.9
	c0-0.4-0.1-0.7-0.4-0.9c-0.4-0.4-5.4-4-5.9-4.4c0,0-0.1-0.1-0.2,0c-0.1,0-0.1,0-0.2,0.1c0,0-0.1,0.1-0.1,0.2
	C198,60.3,198,60.3,198,60.4L198,60.4z"/>
<path class="st0" d="M192.2,60c-0.6,0.4-5.5,3.9-5.9,4.4c-0.3,0.3-0.4,0.6-0.4,0.9c0,0.4,0.1,0.7,0.4,1c0.3,0.3,0.6,0.4,0.9,0.4
	c0.4,0,0.7-0.1,1-0.4c0,0,3.6-4.8,4.4-5.9c0,0,0.1-0.1,0-0.2c0-0.1,0-0.1-0.1-0.2c0,0-0.1-0.1-0.2-0.1C192.3,60,192.2,60,192.2,60
	L192.2,60z"/>
<path class="st0" d="M203.3,47.9c-0.2,0-0.4,0-0.5,0.1c-0.2,0.1-0.3,0.2-0.4,0.3c-0.4,0.4-4,5.4-4.4,5.9c0,0-0.1,0.1,0,0.2
	c0,0.1,0,0.1,0.1,0.2c0,0,0.1,0,0.1,0.1c0,0,0.1,0,0.1,0c0.1,0,0.1,0,0.1,0c0.6-0.4,5-3.5,5.5-3.9c0.5-0.5,1-1.8,0.5-2.4
	c-0.1-0.1-0.3-0.2-0.4-0.3C203.7,47.9,203.5,47.9,203.3,47.9z"/>
<path class="st0" d="M192.5,54.2c-0.5-0.8-3.7-5.3-4.4-5.9c-0.1-0.1-0.3-0.2-0.4-0.3s-0.3-0.1-0.5-0.1c-0.2,0-0.4,0-0.5,0.1
	s-0.3,0.2-0.4,0.3c-0.1,0.1-0.2,0.3-0.3,0.4c-0.1,0.2-0.1,0.3-0.1,0.5c0,0.2,0,0.4,0.1,0.5c0.1,0.2,0.2,0.3,0.3,0.4
	c0.4,0.4,5.4,4,5.9,4.4c0,0,0.1,0,0.1,0h0c0,0,0.1,0,0.1,0c0,0,0.1,0,0.1-0.1s0-0.1,0.1-0.1c0,0,0-0.1,0-0.1
	C192.6,54.3,192.6,54.2,192.5,54.2z"/>
<path class="st1" d="M231.4,92.4c-0.2-1-0.8-3.8-2.8-5.7c-2-2-4.7-2.6-5.7-2.8c0.2,1,0.8,3.8,2.8,5.7
	C227.6,91.6,230.4,92.2,231.4,92.4z"/>
<path class="st1" d="M231.4,93.2c-1,0.2-3.8,0.8-5.7,2.8c-2,2-2.6,4.7-2.8,5.7c1-0.2,3.8-0.8,5.7-2.8
	C230.6,97,231.2,94.3,231.4,93.2z"/>
<path class="st1" d="M213.5,111.1c1-0.2,3.8-0.8,5.7-2.8c2-2,2.6-4.7,2.8-5.7c-1,0.2-3.8,0.8-5.7,2.8
	C214.4,107.3,213.7,110,213.5,111.1z"/>
<path class="st1" d="M222.9,102.5c0.2,1,0.8,3.8,2.8,5.7c2,2,4.7,2.6,5.7,2.8c-0.2-1-0.8-3.8-2.8-5.7
	C226.7,103.4,223.9,102.7,222.9,102.5z"/>
<path class="st1" d="M213.5,92.4c1-0.2,3.8-0.8,5.7-2.8c2-2,2.6-4.7,2.8-5.7c-1,0.2-3.8,0.8-5.7,2.8
	C214.4,88.6,213.7,91.4,213.5,92.4z"/>
<path class="st1" d="M213.5,93.2c0.2,1,0.8,3.8,2.8,5.7c2,2,4.7,2.6,5.7,2.8c-0.2-1-0.8-3.8-2.8-5.7
	C217.3,94.1,214.6,93.4,213.5,93.2z"/>
<path class="st1" d="M213.5,74.5c0.2,1,0.8,3.8,2.8,5.7c2,2,4.7,2.6,5.7,2.8c-0.2-1-0.8-3.8-2.8-5.7
	C217.3,75.4,214.6,74.7,213.5,74.5z"/>
<path class="st1" d="M231.4,74.5c-1,0.2-3.8,0.8-5.7,2.8c-2,2-2.6,4.7-2.8,5.7c1-0.2,3.8-0.8,5.7-2.8
	C230.6,78.3,231.2,75.6,231.4,74.5z"/>
<path class="st1" d="M241.5,101.8c1-0.2,3.8-0.8,5.7-2.8c2-2,2.6-4.7,2.8-5.7c-1,0.2-3.8,0.8-5.7,2.8
	C242.4,98,241.7,100.7,241.5,101.8z"/>
<path class="st1" d="M241.5,83.1c1-0.2,3.8-0.8,5.7-2.8c2-2,2.6-4.7,2.8-5.7c-1,0.2-3.8,0.8-5.7,2.8C242.4,79.3,241.7,82,241.5,83.1
	z"/>
<path class="st1" d="M241.5,83.9c0.2,1,0.8,3.8,2.8,5.7c2,2,4.7,2.6,5.7,2.8c-0.2-1-0.8-3.8-2.8-5.7
	C245.3,84.7,242.6,84.1,241.5,83.9z"/>
<path class="st1" d="M241.5,102.5c0.2,1,0.8,3.8,2.8,5.7c2,2,4.7,2.6,5.7,2.8c-0.2-1-0.8-3.8-2.8-5.7
	C245.3,103.4,242.6,102.7,241.5,102.5z"/>
<path class="st1" d="M240.8,83.9c-1,0.2-3.8,0.8-5.7,2.8c-2,2-2.6,4.7-2.8,5.7c1-0.2,3.8-0.8,5.7-2.8
	C239.9,87.6,240.6,84.9,240.8,83.9z"/>
<path class="st1" d="M232.2,74.5c0.2,1,0.8,3.8,2.8,5.7c2,2,4.7,2.6,5.7,2.8c-0.2-1-0.8-3.8-2.8-5.7C236,75.4,233.3,74.7,232.2,74.5
	z"/>
<path class="st1" d="M232.2,93.2c0.2,1,0.8,3.8,2.8,5.7c2,2,4.7,2.6,5.7,2.8c-0.2-1-0.8-3.8-2.8-5.7C236,94.1,233.3,93.4,232.2,93.2
	z"/>
<path class="st1" d="M232.2,111.1c1-0.2,3.8-0.8,5.7-2.8c2-2,2.6-4.7,2.8-5.7c-1,0.2-3.8,0.8-5.7,2.8
	C233.1,107.3,232.4,110,232.2,111.1z"/>
<path class="st1" d="M285.5,38.2c-0.1,0.1-0.3,0.3-0.3,0.5c-0.1,0.2-0.1,0.4-0.1,0.6c0,0.2,0,0.4,0.1,0.6c0.1,0.2,0.2,0.4,0.3,0.5
	c0.3,0.3,0.7,0.5,1.1,0.5c0.4,0,0.8-0.2,1.1-0.5c0.1-0.1,0.3-0.3,0.3-0.5c0.1-0.2,0.1-0.4,0.1-0.6c0-0.2,0-0.4-0.1-0.6
	c-0.1-0.2-0.2-0.4-0.3-0.5c-0.3-0.3-0.7-0.5-1.1-0.5C286.2,37.8,285.8,37.9,285.5,38.2z"/>
<path class="st1" d="M284.4,37.5c0,0,0.1,0,0.1,0c0,0,0.1,0,0.1-0.1c0,0,0.1-0.1,0.1-0.1c0,0,0-0.1,0-0.1c-0.4-2-1.4-3.8-2.8-5.3
	c-1.5-1.4-3.3-2.3-5.2-2.8v0.4h-0.4c0.5,1.9,1.4,3.7,2.8,5.2C280.6,36.1,282.5,37.1,284.4,37.5z"/>
<path class="st1" d="M288.8,41.1c-0.1,0-0.1,0-0.1,0c0,0-0.1,0-0.1,0.1c0,0-0.1,0.1-0.1,0.1c0,0,0,0.1,0,0.1c0.4,2,1.4,3.8,2.8,5.3
	c1.5,1.4,3.3,2.3,5.2,2.8v-0.4h0.4c-0.5-1.9-1.4-3.7-2.8-5.2C292.7,42.5,290.8,41.6,288.8,41.1z"/>
<path class="st1" d="M284.8,41.5c0,0,0-0.1,0-0.1c0,0,0-0.1-0.1-0.1c0,0-0.1-0.1-0.1-0.1c0,0-0.1,0-0.1,0c-2,0.4-3.8,1.4-5.3,2.8
	c-1.4,1.4-2.4,3.2-2.8,5.2h0.4v0.4c2-0.4,3.8-1.4,5.2-2.8C283.4,45.3,284.4,43.5,284.8,41.5z"/>
<path class="st1" d="M288.5,37.1c0,0,0,0.1,0,0.1c0,0,0,0.1,0.1,0.1c0,0,0.1,0.1,0.1,0.1c0,0,0.1,0,0.1,0c2-0.4,3.8-1.4,5.3-2.8
	c1.4-1.4,2.4-3.2,2.8-5.2h-0.4v-0.4c-2,0.4-3.8,1.4-5.2,2.8C289.9,33.3,288.9,35.2,288.5,37.1z"/>
<path class="st1" d="M283.8,39c-1.7-1.1-3.7-1.7-5.7-1.7c-2,0.1-4,0.7-5.8,1.7c0,0-0.1,0.1-0.1,0.1c0,0,0,0.1,0,0.1
	c0,0.1,0,0.1,0,0.1c0,0,0.1,0.1,0.1,0.1c1.7,1.1,3.7,1.7,5.8,1.7c2,0,4-0.7,5.8-1.7l0,0l0,0c0,0,0.1-0.1,0.1-0.1c0,0,0-0.1,0-0.1
	s0-0.1,0-0.1C283.9,39.2,283.9,39.1,283.8,39L283.8,39z"/>
<path class="st1" d="M301,39c-1.7-1.1-3.7-1.7-5.7-1.7c-2,0.1-4,0.7-5.8,1.7c0,0-0.1,0.1-0.1,0.1c0,0,0,0.1,0,0.1s0,0.1,0,0.1
	c0,0,0.1,0.1,0.1,0.1c1.7,1.1,3.7,1.7,5.8,1.7c2-0.1,4-0.7,5.8-1.7l0,0l0,0c0,0,0.1-0.1,0.1-0.1c0,0,0-0.1,0-0.1c0,0,0-0.1,0-0.1
	C301.1,39.2,301.1,39.1,301,39L301,39z"/>
<path class="st1" d="M286.6,42c-0.1,0-0.1,0-0.1,0c0,0-0.1,0.1-0.1,0.1c-1.1,1.7-1.7,3.7-1.8,5.7c0.1,2,0.7,4,1.8,5.7
	c0,0,0.1,0.1,0.1,0.1c0,0,0.1,0,0.1,0c0,0,0.1,0,0.1,0c0,0,0.1,0,0.1-0.1l0,0c1.1-1.7,1.7-3.7,1.8-5.7c-0.1-2-0.7-4-1.8-5.7
	c0,0-0.1-0.1-0.1-0.1C286.7,42,286.7,42,286.6,42z"/>
<path class="st1" d="M286.6,36.6c0,0,0.1,0,0.1,0c0,0,0.1,0,0.1-0.1l0,0c1.1-1.7,1.7-3.7,1.8-5.7c-0.1-2-0.7-4-1.8-5.7
	c0,0-0.1-0.1-0.1-0.1c0,0-0.1,0-0.1,0c-0.1,0-0.1,0-0.1,0c0,0-0.1,0.1-0.1,0.1c-1.1,1.7-1.7,3.7-1.8,5.7c0.1,2,0.7,4,1.8,5.7
	c0,0,0.1,0.1,0.1,0.1C286.5,36.6,286.6,36.6,286.6,36.6z"/>
<path class="st1" d="M269.4,3.7c-4.8-0.2-5.3,2.6-5.3,3.4c0,2.6,1.9,3.1,1.9,3.1c-1.1,0.6-5.1,0.6-5.1-3.3c0-0.5,0.1-0.9,0.3-1.3
	c0.2-0.4,0.6-0.7,1-0.9l0,0c-0.7,0.4-1.5,0.6-2.3,0.7c-0.9-0.1-1.8-0.5-2.5-1.1C256.8,3.7,256,3,256,3h-3.4c0,0,7.5,9.4,14,9.4
	c1,0,2-0.3,2.9-0.9c0.8-0.6,1.5-1.5,1.8-2.5c0.3-1,0.3-2-0.1-3C270.9,5.1,270.2,4.2,269.4,3.7z"/>
<path class="st1" d="M250,5.6L250,5.6l0,3.3l0,0c0,0,0.7,0.8,1.1,1.3c0.7,0.7,1.1,1.6,1.2,2.5c-0.1,0.8-0.3,1.6-0.7,2.2l0,0
	c0.2-0.4,0.5-0.7,0.9-1c0.4-0.2,0.8-0.3,1.3-0.3c3.9,0,4,4,3.4,5.1c0,0-0.5-1.9-3.1-1.9c-0.8,0-3.7,0.6-3.4,5.3
	c0.6,0.9,1.4,1.5,2.4,1.8c1,0.3,2,0.4,3,0.1c1-0.3,1.9-0.9,2.5-1.7c0.6-0.8,1-1.8,1-2.9C259.5,13,250,5.6,250,5.6z"/>
<path class="st1" d="M320.4,3h-3.4c0,0-0.8,0.7-1.3,1.1c-0.7,0.6-1.6,1.1-2.5,1.1c-0.8-0.1-1.6-0.3-2.3-0.7l0,0
	c0.4,0.2,0.7,0.5,1,0.9c0.2,0.4,0.3,0.8,0.3,1.3c0,3.9-4,3.9-5.1,3.3c0,0,1.9-0.5,1.9-3.1c0-0.8-0.6-3.6-5.3-3.4
	c-0.9,0.6-1.5,1.4-1.9,2.4s-0.4,2-0.1,3c0.3,1,0.9,1.8,1.8,2.5c0.8,0.6,1.8,0.9,2.9,0.9C313,12.4,320.4,3,320.4,3z"/>
<path class="st1" d="M323.1,5.6c0,0-9.5,7.4-9.5,13.9c0,1,0.3,2,1,2.9c0.6,0.8,1.5,1.4,2.5,1.7s2,0.3,3-0.1c1-0.3,1.8-1,2.4-1.8
	c0.2-4.7-2.6-5.3-3.4-5.3c-2.6,0-3.1,1.9-3.1,1.9c-0.6-1.1-0.6-5,3.4-5.1c0.5,0,0.9,0.1,1.3,0.3c0.4,0.2,0.7,0.6,0.9,1l0,0
	c-0.4-0.7-0.6-1.5-0.7-2.2c0.1-0.9,0.5-1.8,1.2-2.5c0.4-0.5,1.1-1.3,1.1-1.3l0,0L323.1,5.6L323.1,5.6z"/>
<path class="st1" d="M306.4,66.6c-1,0-2,0.3-2.9,0.9c-0.8,0.6-1.5,1.5-1.8,2.5c-0.3,1-0.3,2,0.1,3c0.3,1,1,1.8,1.9,2.4
	c4.8,0.2,5.3-2.6,5.3-3.4c0-2.6-1.9-3.1-1.9-3.1c1.1-0.6,5.1-0.6,5.1,3.3c0,0.5-0.1,0.9-0.3,1.3s-0.6,0.7-1,0.9l0,0
	c0.7-0.4,1.5-0.6,2.3-0.7c0.9,0.1,1.8,0.5,2.5,1.1c0.5,0.4,1.3,1.1,1.3,1.1h3.4C320.4,76.1,313,66.6,306.4,66.6z"/>
<path class="st1" d="M322,68.9c-0.7-0.7-1.1-1.6-1.2-2.5c0.1-0.8,0.3-1.6,0.7-2.3l0,0c-0.2,0.4-0.5,0.7-0.9,1
	c-0.4,0.2-0.8,0.3-1.3,0.3c-3.9,0-4-4-3.4-5.1c0,0,0.5,1.9,3.1,1.9c0.8,0,3.7-0.6,3.4-5.3c-0.6-0.9-1.4-1.5-2.4-1.8
	c-1-0.3-2-0.4-3-0.1c-1,0.3-1.9,0.9-2.5,1.7c-0.6,0.8-1,1.8-1,2.9c0,6.5,9.5,13.9,9.5,13.9h0v-3.3h0C323.1,70.1,322.4,69.3,322,68.9
	z"/>
<path class="st1" d="M259.8,73.9c0.8,0.1,1.6,0.3,2.3,0.7l0,0c-0.4-0.2-0.7-0.5-1-0.9c-0.2-0.4-0.3-0.8-0.3-1.3c0-3.9,4-3.9,5.1-3.3
	c0,0-1.9,0.5-1.9,3.1c0,0.8,0.6,3.6,5.3,3.4c0.9-0.6,1.5-1.4,1.9-2.4c0.3-1,0.4-2,0.1-3c-0.3-1-0.9-1.8-1.8-2.5
	c-0.8-0.6-1.8-0.9-2.9-0.9c-6.5,0-14,9.4-14,9.4h3.4c0,0,0.8-0.7,1.3-1.1C258,74.4,258.9,74,259.8,73.9z"/>
<path class="st1" d="M259.5,59.6c0-1-0.4-2-1-2.9c-0.6-0.8-1.5-1.4-2.5-1.7c-1-0.3-2-0.3-3,0.1c-1,0.3-1.8,1-2.4,1.8
	c-0.2,4.7,2.6,5.3,3.4,5.3c2.6,0,3.1-1.9,3.1-1.9c0.6,1.1,0.6,5-3.4,5.1c-0.5,0-0.9-0.1-1.3-0.3c-0.4-0.2-0.7-0.6-0.9-1l0,0
	c0.4,0.7,0.6,1.5,0.7,2.3c-0.1,0.9-0.5,1.8-1.2,2.5c-0.4,0.5-1.1,1.3-1.1,1.3h0v3.3h0C250,73.5,259.5,66.1,259.5,59.6z"/>
<path class="st2" d="M298.2,12.8l0-9.8h-23.2v9.8l-15.2,15.1H250v1.7l0,8.1l0,0V41l0,0l0,8.1v1.7h9.9l15.2,15.1v10.2h23.2V65.9
	l15.2-15.1h9.7v-23h-9.7L298.2,12.8z M311.7,49.1H297c0,0,0,0.1,0,0.1c0,0,0,0.1,0,0.1c0,0,0,0.1-0.1,0.1c0,0-0.1,0.1-0.1,0.1
	c0,0-0.1,0-0.1,0c0,0,0,0-0.1,0v14.6l-9.9,9.8l-9.9-9.8V49.5c0,0-0.1,0-0.1,0c-0.1,0-0.1,0-0.1,0c0,0-0.1,0-0.1-0.1
	c0,0-0.1-0.1-0.1-0.1c0,0,0-0.1,0-0.1c0,0,0,0,0-0.1h-14.7l-9.9-9.8l9.9-9.8h14.7c0,0,0-0.1,0-0.1c0,0,0-0.1,0-0.1
	c0,0,0-0.1,0.1-0.1c0,0,0.1-0.1,0.1-0.1c0,0,0.1,0,0.1,0c0,0,0,0,0.1,0V14.5l9.9-9.8l9.9,9.8v14.6c0,0,0.1,0,0.1,0
	c0.1,0,0.1,0,0.2,0c0,0,0.1,0,0.1,0.1c0,0,0.1,0.1,0.1,0.1c0,0,0,0.1,0,0.1c0,0,0,0,0,0.1h14.7l9.9,9.8L311.7,49.1z"/>
<path class="st2" d="M276.8,29.1C276.7,29.1,276.7,29.1,276.8,29.1c-0.1,0-0.2,0-0.2,0c0,0-0.1,0-0.1,0.1c0,0-0.1,0.1-0.1,0.1
	c0,0,0,0.1,0,0.1c0,0,0,0,0,0.1h0.4V29.1z"/>
<path class="st2" d="M296.5,49.5C296.6,49.6,296.6,49.6,296.5,49.5c0.1,0,0.2,0,0.2,0c0,0,0.1,0,0.1-0.1c0,0,0.1-0.1,0.1-0.1
	c0,0,0-0.1,0-0.1c0,0,0,0,0-0.1h-0.4V49.5z"/>
<path class="st2" d="M276.3,49.1C276.3,49.2,276.3,49.2,276.3,49.1c0,0.1,0,0.2,0,0.2c0,0,0,0.1,0.1,0.1c0,0,0.1,0.1,0.1,0.1
	c0,0,0.1,0,0.1,0c0,0,0,0,0.1,0v-0.4H276.3z"/>
<path class="st2" d="M297,29.5C297,29.5,297,29.4,297,29.5c0-0.1,0-0.2,0-0.2c0,0,0-0.1-0.1-0.1c0,0-0.1-0.1-0.1-0.1
	c0,0-0.1,0-0.1,0c0,0,0,0-0.1,0v0.4H297z"/>
</svg>
