<?xml version="1.0" encoding="utf-8"?>
<!-- Generator: Adobe Illustrator 22.1.0, SVG Export Plug-In . SVG Version: 6.00 Build 0)  -->
<svg version="1.1" id="Слой_1" xmlns="http://www.w3.org/2000/svg" xmlns:xlink="http://www.w3.org/1999/xlink" x="0px" y="0px"
	 viewBox="0 0 320.1 109.2" style="enable-background:new 0 0 320.1 109.2;" xml:space="preserve">
<style type="text/css">
	.st0{fill:#E7533B;}
	.st1{fill:#FDD84A;}
	.st2{fill:#2C3B8C;}
	.st3{fill:#6678D6;}
</style>
<path class="st0" d="M35.3,72.3c-0.4-2.1-1.7-7.5-5.5-11.4c-3.9-3.9-9.3-5.2-11.3-5.5c0.4,2.1,1.7,7.5,5.5,11.3
	C27.9,70.7,33.3,72,35.3,72.3z"/>
<path class="st0" d="M35.3,73.9c-2.1,0.4-7.5,1.7-11.3,5.5c-3.9,3.9-5.2,9.3-5.5,11.4c2.1-0.4,7.5-1.7,11.3-5.6
	C33.7,81.4,35,76,35.3,73.9z"/>
<path class="st0" d="M0,109.2c2.1-0.4,7.5-1.7,11.3-5.6c3.9-3.9,5.2-9.3,5.5-11.3c-2.1,0.4-7.5,1.7-11.3,5.6
	C1.7,101.8,0.4,107.2,0,109.2z"/>
<path class="st0" d="M18.4,92.3c0.4,2.1,1.7,7.5,5.5,11.3c3.9,3.9,9.3,5.2,11.3,5.6c-0.4-2.1-1.7-7.5-5.5-11.3
	C25.9,94,20.5,92.7,18.4,92.3z"/>
<path class="st0" d="M0,72.3c2.1-0.4,7.5-1.7,11.4-5.5c3.9-3.9,5.2-9.3,5.5-11.3c-2.1,0.4-7.5,1.7-11.3,5.5
	C1.7,64.9,0.4,70.3,0,72.3z"/>
<path class="st0" d="M0,73.9c0.4,2.1,1.7,7.5,5.5,11.3c3.9,3.9,9.3,5.2,11.3,5.6c-0.4-2.1-1.7-7.5-5.5-11.4
	C7.5,75.6,2.1,74.3,0,73.9z"/>
<path class="st0" d="M0,37c0.4,2.1,1.7,7.5,5.5,11.3c3.9,3.9,9.3,5.2,11.3,5.6c-0.4-2.1-1.7-7.5-5.5-11.4C7.5,38.7,2.1,37.4,0,37z"
	/>
<path class="st0" d="M35.3,37c-2.1,0.4-7.5,1.7-11.3,5.5c-3.9,3.9-5.2,9.3-5.5,11.4c2.1-0.4,7.5-1.7,11.3-5.6
	C33.7,44.5,35,39.1,35.3,37z"/>
<path class="st0" d="M55.3,90.8c2.1-0.4,7.5-1.7,11.3-5.6c3.9-3.9,5.2-9.3,5.5-11.3c-2.1,0.4-7.5,1.7-11.3,5.5
	C57,83.3,55.7,88.7,55.3,90.8z"/>
<path class="st0" d="M55.3,53.9c2.1-0.4,7.5-1.7,11.3-5.6c3.9-3.9,5.2-9.3,5.5-11.3c-2.1,0.4-7.5,1.7-11.3,5.5
	C57,46.4,55.7,51.8,55.3,53.9z"/>
<path class="st0" d="M55.3,55.5c0.4,2.1,1.7,7.5,5.5,11.3c3.9,3.9,9.3,5.2,11.3,5.5c-0.4-2.1-1.7-7.5-5.5-11.4
	C62.8,57.1,57.4,55.8,55.3,55.5z"/>
<path class="st0" d="M55.3,92.3c0.4,2.1,1.7,7.5,5.5,11.3c3.9,3.9,9.3,5.2,11.3,5.6c-0.4-2.1-1.7-7.5-5.5-11.3
	C62.8,94,57.4,92.7,55.3,92.3z"/>
<path class="st0" d="M53.8,55.5c-2.1,0.4-7.5,1.7-11.3,5.5c-3.9,3.9-5.2,9.3-5.5,11.4c2.1-0.4,7.5-1.7,11.4-5.5
	C52.1,62.9,53.4,57.5,53.8,55.5z"/>
<path class="st0" d="M36.9,37c0.4,2.1,1.7,7.5,5.5,11.3c3.9,3.9,9.3,5.2,11.3,5.6c-0.4-2.1-1.7-7.5-5.5-11.4
	C44.4,38.7,39,37.4,36.9,37z"/>
<path class="st0" d="M36.9,73.9c0.4,2.1,1.7,7.5,5.5,11.3c3.9,3.9,9.3,5.2,11.3,5.6c-0.4-2.1-1.7-7.5-5.5-11.4
	C44.4,75.6,39,74.3,36.9,73.9z"/>
<path class="st0" d="M36.9,109.2c2.1-0.4,7.5-1.7,11.3-5.6c3.9-3.9,5.2-9.3,5.5-11.3c-2.1,0.4-7.5,1.7-11.3,5.6
	C38.6,101.8,37.3,107.2,36.9,109.2z"/>
<path class="st1" d="M173.6,54.6c0.2,0.1,0.4,0.1,0.6,0.1c0.2,0,0.4-0.1,0.5-0.3l15.7-15.7c0.1-0.1,0.2-0.3,0.3-0.5
	c0-0.2,0-0.4-0.1-0.6c-0.1-0.2-0.2-0.3-0.4-0.5c-0.2-0.1-0.4-0.2-0.6-0.2H174c-0.3,0-0.5,0.1-0.7,0.3S173,37.7,173,38v15.7
	c0,0.2,0.1,0.4,0.2,0.6C173.3,54.4,173.4,54.5,173.6,54.6z"/>
<path class="st1" d="M173.5,62.8c0.1,0.1,0.3,0.2,0.5,0.2c0.2,0,0.3-0.1,0.5-0.2l24.3-24.3c0.1-0.1,0.1-0.1,0.1-0.2
	c0-0.1,0.1-0.2,0.1-0.2c0-0.1,0-0.2,0-0.2c0-0.1-0.1-0.1-0.1-0.2c-0.1-0.1-0.1-0.1-0.2-0.1c-0.1,0-0.2,0-0.2,0s-0.2,0-0.2,0
	c-0.1,0-0.2,0.1-0.2,0.1l-24.3,24.3c-0.1,0.1-0.2,0.3-0.2,0.5C173.4,62.5,173.4,62.7,173.5,62.8z"/>
<path class="st1" d="M244.6,91.7c-0.2-0.1-0.4-0.1-0.6-0.1c-0.2,0-0.4,0.1-0.5,0.3l-15.7,15.7c-0.1,0.1-0.2,0.3-0.3,0.5
	c0,0.2,0,0.4,0.1,0.6c0.1,0.2,0.2,0.3,0.4,0.4c0.2,0.1,0.4,0.2,0.6,0.2h15.7c0.3,0,0.5-0.1,0.7-0.3c0.2-0.2,0.3-0.4,0.3-0.7V92.6
	c0-0.2-0.1-0.4-0.2-0.5C245,91.9,244.8,91.7,244.6,91.7z"/>
<path class="st1" d="M244.7,83.4c-0.1-0.1-0.1-0.1-0.2-0.1c-0.1,0-0.2-0.1-0.2-0.1s-0.2,0-0.2,0.1c-0.1,0-0.1,0.1-0.2,0.1
	l-24.3,24.3c-0.1,0.1-0.2,0.3-0.2,0.5c0,0.2,0.1,0.3,0.2,0.4c0.1,0.1,0.3,0.2,0.5,0.2c0.2,0,0.3-0.1,0.5-0.2l24.3-24.3
	c0.1-0.1,0.1-0.1,0.1-0.2c0-0.1,0.1-0.2,0.1-0.2c0-0.1,0-0.2-0.1-0.3C244.8,83.6,244.8,83.5,244.7,83.4z"/>
<path class="st1" d="M174.7,91.9c-0.1-0.1-0.2-0.2-0.3-0.2c-0.1-0.1-0.3-0.1-0.4-0.1c-0.1,0-0.3,0-0.4,0.1c-0.2,0.1-0.3,0.2-0.4,0.4
	c-0.1,0.2-0.2,0.4-0.2,0.5v15.7c0,0.1,0,0.3,0.1,0.4c0.1,0.1,0.1,0.2,0.2,0.3c0.1,0.1,0.2,0.2,0.3,0.2c0.1,0,0.3,0.1,0.4,0.1h15.7
	c0.2,0,0.4-0.1,0.6-0.2c0.2-0.1,0.3-0.3,0.4-0.4s0.1-0.4,0.1-0.6c0-0.2-0.1-0.4-0.3-0.5L174.7,91.9z"/>
<path class="st1" d="M174.5,83.4c-0.1-0.1-0.3-0.2-0.5-0.2c-0.2,0-0.3,0.1-0.5,0.2s-0.2,0.3-0.2,0.5c0,0.2,0.1,0.3,0.2,0.4
	l24.3,24.3c0.1,0.1,0.3,0.2,0.5,0.2c0.2,0,0.3-0.1,0.5-0.2c0.1-0.1,0.1-0.1,0.1-0.2c0-0.1,0-0.2,0-0.2c0-0.1,0-0.2,0-0.3
	c0-0.1-0.1-0.2-0.1-0.2L174.5,83.4z"/>
<path class="st1" d="M243.5,54.4c0.2,0.2,0.4,0.3,0.7,0.3c0.1,0,0.3,0,0.4-0.1c0.2-0.1,0.3-0.2,0.5-0.4c0.1-0.2,0.2-0.4,0.2-0.6V38
	c0-0.3-0.1-0.5-0.3-0.7c-0.2-0.2-0.4-0.3-0.7-0.3h-15.7c-0.2,0-0.4,0.1-0.6,0.2c-0.2,0.1-0.3,0.3-0.4,0.5c-0.1,0.2-0.1,0.4-0.1,0.6
	c0,0.2,0.1,0.4,0.3,0.5L243.5,54.4z"/>
<path class="st1" d="M243.8,62.8c0.1,0.1,0.3,0.2,0.5,0.2c0.1,0,0.3,0,0.4-0.1c0.1-0.1,0.2-0.2,0.2-0.3c0-0.1,0.1-0.3,0-0.4
	c0-0.1-0.1-0.2-0.2-0.3l-24.3-24.3c-0.1-0.1-0.1-0.1-0.2-0.1c-0.1,0-0.2,0-0.2,0c-0.1,0-0.2,0-0.2,0c-0.1,0-0.2,0.1-0.2,0.1
	s-0.1,0.1-0.1,0.2c0,0.1,0,0.2,0,0.2c0,0.1,0,0.2,0,0.2c0,0.1,0.1,0.2,0.1,0.2L243.8,62.8z"/>
<path class="st1" d="M208.4,65.8c0.1,0.1,0.2,0.2,0.3,0.2c0.1,0.1,0.3,0.1,0.4,0.1c0.1,0,0.3,0,0.4-0.1s0.2-0.1,0.3-0.2
	c1.1-1.3,2.1-2.7,3-4.2c1.9-3,3-6.5,3-10.1c0-3.6-1-7.1-3-10.1c-0.8-1.5-1.8-2.9-3-4.2c-0.1-0.1-0.2-0.2-0.3-0.2
	c-0.1-0.1-0.3-0.1-0.4-0.1c-0.1,0-0.3,0-0.4,0.1c-0.1,0.1-0.2,0.1-0.3,0.2c-1.1,1.3-2.1,2.7-3,4.2c-1.9,3-3,6.5-3,10.1
	c0,3.6,1,7.1,3,10.1C206.3,63.2,207.3,64.5,208.4,65.8z"/>
<path class="st1" d="M209.9,80.4c-0.1-0.1-0.2-0.2-0.3-0.2c-0.1-0.1-0.3-0.1-0.4-0.1s-0.3,0-0.4,0.1c-0.1,0.1-0.2,0.1-0.3,0.2
	c-1.1,1.3-2.1,2.7-3,4.2c-1.9,3-3,6.5-3,10.1c0,3.6,1,7.1,3,10.1c0.8,1.5,1.8,2.9,3,4.2c0.1,0.1,0.2,0.2,0.3,0.2
	c0.1,0,0.3,0.1,0.4,0.1s0.3,0,0.4-0.1c0.1-0.1,0.2-0.1,0.3-0.2c1.1-1.3,2.1-2.7,3-4.2c1.9-3,3-6.5,3-10.1c0-3.6-1-7.1-3-10.1
	C212,83.1,211,81.7,209.9,80.4z"/>
<path class="st1" d="M177.5,69.4c-1.5,0.8-2.9,1.8-4.2,3c-0.1,0.1-0.2,0.2-0.2,0.3c-0.1,0.1-0.1,0.3-0.1,0.4s0,0.3,0.1,0.4
	c0.1,0.1,0.1,0.2,0.2,0.3c1.3,1.1,2.7,2.1,4.2,3c3,1.9,6.5,3,10.1,3c3.6,0,7.1-1,10.1-3c1.5-0.8,2.9-1.8,4.2-3
	c0.1-0.1,0.2-0.2,0.2-0.3c0.1-0.1,0.1-0.3,0.1-0.4s0-0.3-0.1-0.4c-0.1-0.1-0.1-0.2-0.2-0.3c-1.3-1.1-2.7-2.1-4.2-3
	c-3-1.9-6.5-3-10.1-3C184,66.5,180.5,67.5,177.5,69.4z"/>
<path class="st1" d="M216.4,72.4c-0.1,0.1-0.2,0.2-0.2,0.3c-0.1,0.1-0.1,0.3-0.1,0.4s0,0.3,0.1,0.4c0.1,0.1,0.1,0.2,0.2,0.3
	c1.3,1.1,2.7,2.1,4.2,3c3,1.9,6.5,3,10.1,3c3.6,0,7.1-1,10.1-3c1.5-0.8,2.9-1.8,4.2-3c0.1-0.1,0.2-0.2,0.2-0.3
	c0.1-0.1,0.1-0.3,0.1-0.4s0-0.3-0.1-0.4c-0.1-0.1-0.1-0.2-0.2-0.3c-1.3-1.1-2.7-2.1-4.2-3c-3-1.9-6.5-3-10.1-3c-3.6,0-7.1,1-10.1,3
	C219.1,70.3,217.7,71.3,216.4,72.4z"/>
<path class="st1" d="M211.2,73.1c0-0.4-0.1-0.8-0.4-1.2c-0.2-0.3-0.6-0.6-0.9-0.8c-0.4-0.2-0.8-0.2-1.2-0.1
	c-0.4,0.1-0.8,0.3-1.1,0.6s-0.5,0.7-0.6,1.1c-0.1,0.4,0,0.8,0.1,1.2c0.2,0.4,0.4,0.7,0.8,1c0.3,0.2,0.8,0.4,1.2,0.4
	c0.3,0,0.6-0.1,0.8-0.2c0.3-0.1,0.5-0.3,0.7-0.5c0.2-0.2,0.4-0.4,0.5-0.7C211.2,73.7,211.2,73.4,211.2,73.1z"/>
<path class="st1" d="M214.5,79.2c0.8,1.1,7.8,10.8,8.6,11.7c0.5,0.5,1.2,0.8,1.9,0.8c0.7,0,1.4-0.3,1.9-0.8s0.8-1.2,0.8-1.9
	c0-0.7-0.3-1.4-0.8-1.9c-0.8-0.8-10.6-7.8-11.7-8.6c-0.1-0.1-0.2-0.1-0.3-0.1c-0.1,0-0.2,0.1-0.3,0.1c-0.1,0.1-0.1,0.2-0.1,0.3
	C214.4,79,214.5,79.1,214.5,79.2z"/>
<path class="st1" d="M203,78.5c-1.1,0.8-10.9,7.8-11.7,8.6c-0.5,0.5-0.8,1.2-0.8,1.9c0,0.7,0.3,1.4,0.8,1.9c0.5,0.5,1.2,0.8,1.9,0.8
	s1.4-0.3,1.9-0.8c-0.1,0.1,7.1-9.6,8.6-11.7c0.1-0.1,0.1-0.2,0.1-0.3c0-0.1-0.1-0.2-0.1-0.3c-0.1-0.1-0.2-0.1-0.3-0.1
	C203.2,78.4,203.1,78.5,203,78.5z"/>
<path class="st1" d="M225.1,54.5c-0.3,0-0.7,0.1-1,0.2c-0.3,0.1-0.6,0.3-0.9,0.6c-0.8,0.9-7.8,10.6-8.6,11.7
	c-0.1,0.1-0.1,0.2-0.1,0.3s0.1,0.2,0.1,0.3c0,0,0.1,0.1,0.2,0.1c0.1,0,0.1,0,0.2,0c0.1,0,0.2,0,0.3-0.1c1.1-0.8,10-6.9,10.8-7.7
	c1-1,1.9-3.6,0.9-4.7c-0.2-0.3-0.5-0.4-0.9-0.6C225.8,54.6,225.4,54.5,225.1,54.5z"/>
<path class="st1" d="M203.7,67c-1.1-1.5-7.4-10.4-8.6-11.7c-0.5-0.5-1.2-0.8-1.9-0.8c-0.7,0-1.4,0.3-1.9,0.8
	c-0.5,0.5-0.8,1.2-0.8,1.9c0,0.7,0.3,1.4,0.8,1.9c0.8,0.8,10.6,7.8,11.7,8.6c0.1,0.1,0.2,0.1,0.3,0.1h0c0.1,0,0.1,0,0.2,0
	c0.1,0,0.1-0.1,0.2-0.1c0-0.1,0.1-0.1,0.1-0.2c0-0.1,0-0.1,0-0.2C203.8,67.2,203.8,67,203.7,67z"/>
<path class="st2" d="M90.6,18.4c-0.1,0.1-0.1,0.2-0.2,0.2c0,0.1-0.1,0.2-0.1,0.3c0,0.1,0,0.2,0.1,0.3c0,0.1,0.1,0.2,0.2,0.2
	c0.1,0.1,0.3,0.2,0.5,0.2c0.2,0,0.4-0.1,0.5-0.2c0.1-0.1,0.1-0.2,0.2-0.2c0-0.1,0.1-0.2,0.1-0.3c0-0.1,0-0.2-0.1-0.3
	c0-0.1-0.1-0.2-0.2-0.2c-0.1-0.1-0.3-0.2-0.5-0.2C90.9,18.2,90.7,18.3,90.6,18.4z"/>
<path class="st2" d="M90,18C90,18.1,90.1,18.1,90,18c0.1,0,0.1,0,0.1,0c0,0,0,0,0-0.1c0,0,0,0,0-0.1c-0.2-1-0.7-1.9-1.4-2.6
	c-0.7-0.7-1.6-1.2-2.6-1.4v0.2H86c0.2,1,0.7,1.8,1.4,2.6C88.1,17.4,89,17.8,90,18z"/>
<path class="st2" d="M92.2,19.8C92.2,19.8,92.1,19.8,92.2,19.8c-0.1,0-0.1,0-0.1,0c0,0,0,0,0,0.1c0,0,0,0,0,0.1
	c0.2,1,0.7,1.9,1.4,2.6c0.7,0.7,1.6,1.2,2.6,1.4v-0.2h0.2c-0.2-1-0.7-1.8-1.4-2.6C94.1,20.5,93.2,20.1,92.2,19.8z"/>
<path class="st2" d="M90.2,20C90.2,20,90.2,20,90.2,20c0-0.1,0-0.1,0-0.1c0,0,0,0-0.1,0c0,0,0,0-0.1,0c-1,0.2-1.9,0.7-2.6,1.4
	c-0.7,0.7-1.2,1.6-1.4,2.6h0.2V24c1-0.2,1.9-0.7,2.6-1.4C89.5,21.9,90,21,90.2,20z"/>
<path class="st2" d="M92,17.9C92,17.9,92,17.9,92,17.9c0,0.1,0,0.1,0,0.1c0,0,0,0,0.1,0c0,0,0,0,0.1,0c1-0.2,1.9-0.7,2.6-1.4
	c0.7-0.7,1.2-1.6,1.4-2.6H96v-0.2c-1,0.2-1.9,0.7-2.6,1.4C92.7,16,92.2,16.9,92,17.9z"/>
<path class="st2" d="M89.7,18.8c-0.8-0.5-1.8-0.8-2.8-0.9c-1,0-2,0.3-2.8,0.9c0,0,0,0,0,0.1c0,0,0,0,0,0.1c0,0,0,0,0,0.1
	c0,0,0,0,0,0.1c0.9,0.5,1.8,0.8,2.8,0.9c1,0,2-0.3,2.8-0.9l0,0l0,0c0,0,0,0,0,0c0,0,0,0,0-0.1S89.8,18.9,89.7,18.8
	C89.7,18.9,89.7,18.9,89.7,18.8L89.7,18.8z"/>
<path class="st2" d="M98.2,18.8c-0.8-0.5-1.8-0.8-2.8-0.8c-1,0-2,0.3-2.8,0.9c0,0,0,0,0,0.1c0,0,0,0,0,0.1c0,0,0,0,0,0.1
	c0,0,0,0,0,0.1c0.9,0.5,1.8,0.8,2.8,0.9c1,0,2-0.3,2.8-0.9l0,0l0,0c0,0,0,0,0,0c0,0,0,0,0-0.1C98.3,18.9,98.3,18.9,98.2,18.8
	C98.2,18.9,98.2,18.9,98.2,18.8L98.2,18.8z"/>
<path class="st2" d="M91.1,20.3C91.1,20.3,91.1,20.3,91.1,20.3c-0.1,0-0.1,0-0.1,0.1c-0.5,0.8-0.8,1.8-0.9,2.8c0,1,0.3,2,0.9,2.8
	c0,0,0,0,0,0c0,0,0,0,0.1,0c0,0,0,0,0.1,0c0,0,0,0,0.1,0l0,0c0.5-0.8,0.8-1.8,0.9-2.8c0-1-0.3-2-0.9-2.8
	C91.2,20.3,91.2,20.3,91.1,20.3C91.2,20.3,91.1,20.3,91.1,20.3z"/>
<path class="st2" d="M91.1,17.6C91.1,17.6,91.1,17.6,91.1,17.6c0.1,0,0.1,0,0.1,0l0,0c0.5-0.8,0.8-1.8,0.9-2.8c0-1-0.3-2-0.9-2.8
	c0,0,0,0-0.1,0c0,0,0,0-0.1,0c0,0,0,0-0.1,0c0,0,0,0-0.1,0c-0.5,0.8-0.8,1.8-0.9,2.8c0,1,0.3,2,0.9,2.8C91,17.6,91,17.6,91.1,17.6
	C91.1,17.6,91.1,17.6,91.1,17.6z"/>
<path class="st2" d="M82.6,1.3c-2.4-0.1-2.6,1.3-2.6,1.7c0,1.3,0.9,1.5,0.9,1.5c-0.5,0.3-2.5,0.3-2.5-1.7c0-0.2,0-0.4,0.2-0.6
	C78.6,2,78.8,1.9,79,1.8l0,0c-0.3,0.2-0.7,0.3-1.1,0.3c-0.5,0-0.9-0.2-1.2-0.6C76.4,1.4,76,1,76,1h-1.7c0,0,3.7,4.7,6.9,4.7
	c0.5,0,1-0.2,1.4-0.5c0.4-0.3,0.7-0.7,0.9-1.2c0.2-0.5,0.1-1,0-1.5C83.3,2,83,1.6,82.6,1.3z"/>
<path class="st2" d="M73,2.3L73,2.3L73,4l0,0c0,0,0.4,0.4,0.5,0.6c0.3,0.3,0.5,0.8,0.6,1.2c0,0.4-0.1,0.8-0.3,1.1l0,0
	c0.1-0.2,0.3-0.4,0.5-0.5c0.2-0.1,0.4-0.2,0.6-0.2c1.9,0,2,2,1.7,2.5c0,0-0.2-0.9-1.5-0.9c-0.4,0-1.8,0.3-1.7,2.6
	c0.3,0.4,0.7,0.7,1.2,0.9c0.5,0.2,1,0.2,1.5,0c0.5-0.1,0.9-0.5,1.2-0.9c0.3-0.4,0.5-0.9,0.5-1.4C77.7,6,73,2.3,73,2.3z"/>
<path class="st2" d="M107.8,1h-1.7c0,0-0.4,0.4-0.6,0.5c-0.3,0.3-0.8,0.5-1.2,0.6c-0.4,0-0.8-0.1-1.1-0.3l0,0
	c0.2,0.1,0.4,0.3,0.5,0.5c0.1,0.2,0.2,0.4,0.2,0.6c0,1.9-2,1.9-2.5,1.7c0,0,0.9-0.2,0.9-1.5c0-0.4-0.3-1.8-2.6-1.7
	c-0.4,0.3-0.7,0.7-0.9,1.2c-0.2,0.5-0.2,1,0,1.5c0.2,0.5,0.5,0.9,0.9,1.2c0.4,0.3,0.9,0.5,1.4,0.5C104.1,5.7,107.8,1,107.8,1z"/>
<path class="st2" d="M109.1,2.3c0,0-4.7,3.7-4.7,6.8c0,0.5,0.2,1,0.5,1.4c0.3,0.4,0.7,0.7,1.2,0.9c0.5,0.1,1,0.1,1.5,0
	c0.5-0.2,0.9-0.5,1.2-0.9c0.1-2.3-1.3-2.6-1.7-2.6c-1.3,0-1.5,0.9-1.5,0.9c-0.3-0.5-0.3-2.5,1.7-2.5c0.2,0,0.4,0,0.6,0.2
	c0.2,0.1,0.4,0.3,0.5,0.5l0,0c-0.2-0.3-0.3-0.7-0.3-1.1c0-0.5,0.2-0.9,0.6-1.2c0.2-0.2,0.5-0.6,0.5-0.6l0,0L109.1,2.3L109.1,2.3z"/>
<path class="st2" d="M100.9,32.5c-0.5,0-1,0.2-1.4,0.5c-0.4,0.3-0.7,0.7-0.9,1.2s-0.1,1,0,1.5c0.2,0.5,0.5,0.9,0.9,1.2
	c2.4,0.1,2.6-1.3,2.6-1.7c0-1.3-0.9-1.5-0.9-1.5c0.5-0.3,2.5-0.3,2.5,1.7c0,0.2,0,0.4-0.2,0.6c-0.1,0.2-0.3,0.4-0.5,0.5l0,0
	c0.3-0.2,0.7-0.3,1.1-0.3c0.5,0,0.9,0.2,1.2,0.6c0.2,0.2,0.6,0.5,0.6,0.5h1.7C107.8,37.1,104.1,32.5,100.9,32.5z"/>
<path class="st2" d="M108.6,33.5c-0.3-0.3-0.5-0.8-0.6-1.2c0-0.4,0.1-0.8,0.3-1.1l0,0c-0.1,0.2-0.3,0.4-0.5,0.5
	c-0.2,0.1-0.4,0.2-0.6,0.2c-1.9,0-2-2-1.7-2.5c0,0,0.2,0.9,1.5,0.9c0.4,0,1.8-0.3,1.7-2.6c-0.3-0.4-0.7-0.7-1.2-0.9
	c-0.5-0.2-1-0.2-1.5,0c-0.5,0.1-0.9,0.5-1.2,0.9c-0.3,0.4-0.5,0.9-0.5,1.4c0,3.2,4.7,6.8,4.7,6.8h0v-1.6h0
	C109.1,34.2,108.8,33.8,108.6,33.5z"/>
<path class="st2" d="M77.8,36c0.4,0,0.8,0.1,1.1,0.3l0,0c-0.2-0.1-0.4-0.3-0.5-0.5c-0.1-0.2-0.2-0.4-0.2-0.6c0-1.9,2-1.9,2.5-1.7
	c0,0-0.9,0.2-0.9,1.5c0,0.4,0.3,1.8,2.6,1.7c0.4-0.3,0.7-0.7,0.9-1.2c0.2-0.5,0.2-1,0-1.5c-0.2-0.5-0.5-0.9-0.9-1.2
	c-0.4-0.3-0.9-0.5-1.4-0.5c-3.2,0-6.9,4.7-6.9,4.7H76c0,0,0.4-0.4,0.6-0.5C76.9,36.3,77.4,36.1,77.8,36z"/>
<path class="st2" d="M77.7,29c0-0.5-0.2-1-0.5-1.4c-0.3-0.4-0.7-0.7-1.2-0.9c-0.5-0.1-1-0.1-1.5,0c-0.5,0.2-0.9,0.5-1.2,0.9
	c-0.1,2.3,1.3,2.6,1.7,2.6c1.3,0,1.5-0.9,1.5-0.9c0.3,0.5,0.3,2.5-1.7,2.5c-0.2,0-0.4,0-0.6-0.2c-0.2-0.1-0.4-0.3-0.5-0.5l0,0
	c0.2,0.3,0.3,0.7,0.3,1.1c0,0.5-0.2,0.9-0.6,1.2c-0.2,0.2-0.5,0.6-0.5,0.6h0v1.6h0C73,35.8,77.7,32.2,77.7,29z"/>
<path class="st3" d="M96.8,5.8l0-4.8H85.4v4.8l-7.5,7.4H73v0.8l0,4l0,0v1.7l0,0l0,4v0.8h4.9l7.5,7.4v5.1h11.5v-5.1l7.5-7.4h4.8V13.3
	h-4.8L96.8,5.8z M103.5,23.8h-7.3c0,0,0,0,0,0c0,0,0,0.1,0,0.1c0,0,0,0,0,0.1c0,0,0,0-0.1,0c0,0,0,0-0.1,0c0,0,0,0,0,0v7.2L91.1,36
	l-4.9-4.8V24c0,0,0,0,0,0c0,0,0,0-0.1,0c0,0,0,0-0.1,0c0,0,0,0,0-0.1c0,0,0,0,0-0.1c0,0,0,0,0,0h-7.3l-4.9-4.8l4.9-4.8H86
	c0,0,0,0,0,0c0,0,0-0.1,0-0.1c0,0,0,0,0-0.1c0,0,0,0,0.1,0c0,0,0,0,0.1,0c0,0,0,0,0,0V6.7l4.9-4.8L96,6.7v7.2c0,0,0,0,0,0
	c0,0,0.1,0,0.1,0c0,0,0,0,0.1,0c0,0,0,0,0,0.1c0,0,0,0,0,0.1c0,0,0,0,0,0h7.3l4.9,4.8L103.5,23.8z"/>
<path class="st3" d="M86.2,13.9C86.2,13.9,86.2,13.9,86.2,13.9c-0.1,0-0.1,0-0.1,0c0,0,0,0-0.1,0c0,0,0,0,0,0.1c0,0,0,0,0,0.1
	c0,0,0,0,0,0h0.2V13.9z"/>
<path class="st3" d="M96,24C96,24,96,24,96,24c0.1,0,0.1,0,0.1,0c0,0,0,0,0.1,0c0,0,0,0,0-0.1c0,0,0,0,0-0.1c0,0,0,0,0,0H96V24z"/>
<path class="st3" d="M86,23.8C86,23.8,86,23.8,86,23.8c0,0.1,0,0.1,0,0.1c0,0,0,0,0,0.1c0,0,0,0,0.1,0c0,0,0,0,0.1,0c0,0,0,0,0,0
	v-0.2H86z"/>
<path class="st3" d="M96.2,14.1C96.2,14.1,96.2,14.1,96.2,14.1c0-0.1,0-0.1,0-0.1c0,0,0,0,0-0.1c0,0,0,0-0.1,0c0,0,0,0-0.1,0
	c0,0,0,0,0,0v0.2H96.2z"/>
<path class="st0" d="M301.6,17.4c-0.1,0.1-0.1,0.2-0.2,0.2c0,0.1-0.1,0.2-0.1,0.3c0,0.1,0,0.2,0.1,0.3c0,0.1,0.1,0.2,0.2,0.2
	c0.1,0.1,0.3,0.2,0.5,0.2c0.2,0,0.4-0.1,0.5-0.2c0.1-0.1,0.1-0.2,0.2-0.2c0-0.1,0.1-0.2,0.1-0.3c0-0.1,0-0.2-0.1-0.3
	c0-0.1-0.1-0.2-0.2-0.2c-0.1-0.1-0.3-0.2-0.5-0.2C301.9,17.2,301.7,17.3,301.6,17.4z"/>
<path class="st0" d="M301,17C301,17.1,301.1,17.1,301,17c0.1,0,0.1,0,0.1,0c0,0,0,0,0-0.1c0,0,0,0,0-0.1c-0.2-1-0.7-1.9-1.4-2.6
	c-0.7-0.7-1.6-1.2-2.6-1.4v0.2H297c0.2,1,0.7,1.8,1.4,2.6C299.1,16.4,300,16.8,301,17z"/>
<path class="st0" d="M303.2,18.8C303.2,18.8,303.1,18.8,303.2,18.8c-0.1,0-0.1,0-0.1,0c0,0,0,0,0,0.1c0,0,0,0,0,0.1
	c0.2,1,0.7,1.9,1.4,2.6c0.7,0.7,1.6,1.2,2.6,1.4v-0.2h0.2c-0.2-1-0.7-1.8-1.4-2.6C305.1,19.5,304.2,19.1,303.2,18.8z"/>
<path class="st0" d="M301.2,19C301.2,19,301.2,19,301.2,19c0-0.1,0-0.1,0-0.1c0,0,0,0-0.1,0c0,0,0,0-0.1,0c-1,0.2-1.9,0.7-2.6,1.4
	c-0.7,0.7-1.2,1.6-1.4,2.6h0.2V23c1-0.2,1.9-0.7,2.6-1.4C300.5,20.9,301,20,301.2,19z"/>
<path class="st0" d="M303,16.9C303,16.9,303,16.9,303,16.9c0,0.1,0,0.1,0,0.1c0,0,0,0,0.1,0c0,0,0,0,0.1,0c1-0.2,1.9-0.7,2.6-1.4
	c0.7-0.7,1.2-1.6,1.4-2.6H307v-0.2c-1,0.2-1.9,0.7-2.6,1.4C303.7,15,303.2,15.9,303,16.9z"/>
<path class="st0" d="M300.7,17.8c-0.8-0.5-1.8-0.8-2.8-0.9c-1,0-2,0.3-2.8,0.9c0,0,0,0,0,0.1c0,0,0,0,0,0.1c0,0,0,0,0,0.1
	c0,0,0,0,0,0.1c0.9,0.5,1.8,0.8,2.8,0.9c1,0,2-0.3,2.8-0.9l0,0l0,0c0,0,0,0,0,0c0,0,0,0,0-0.1S300.8,17.9,300.7,17.8
	C300.7,17.9,300.7,17.9,300.7,17.8L300.7,17.8z"/>
<path class="st0" d="M309.2,17.8c-0.8-0.5-1.8-0.8-2.8-0.8c-1,0-2,0.3-2.8,0.9c0,0,0,0,0,0.1c0,0,0,0,0,0.1c0,0,0,0,0,0.1
	c0,0,0,0,0,0.1c0.9,0.5,1.8,0.8,2.8,0.9c1,0,2-0.3,2.8-0.9l0,0l0,0c0,0,0,0,0,0c0,0,0,0,0-0.1C309.3,17.9,309.3,17.9,309.2,17.8
	C309.2,17.9,309.2,17.9,309.2,17.8L309.2,17.8z"/>
<path class="st0" d="M302.1,19.3C302.1,19.3,302.1,19.3,302.1,19.3c-0.1,0-0.1,0-0.1,0.1c-0.5,0.8-0.8,1.8-0.9,2.8
	c0,1,0.3,2,0.9,2.8c0,0,0,0,0,0c0,0,0,0,0.1,0c0,0,0,0,0.1,0c0,0,0,0,0.1,0l0,0c0.5-0.8,0.8-1.8,0.9-2.8c0-1-0.3-2-0.9-2.8
	C302.2,19.3,302.2,19.3,302.1,19.3C302.2,19.3,302.1,19.3,302.1,19.3z"/>
<path class="st0" d="M302.1,16.6C302.1,16.6,302.1,16.6,302.1,16.6c0.1,0,0.1,0,0.1,0l0,0c0.5-0.8,0.8-1.8,0.9-2.8
	c0-1-0.3-2-0.9-2.8c0,0,0,0-0.1,0c0,0,0,0-0.1,0c0,0,0,0-0.1,0c0,0,0,0-0.1,0c-0.5,0.8-0.8,1.8-0.9,2.8c0,1,0.3,2,0.9,2.8
	C302,16.6,302,16.6,302.1,16.6C302.1,16.6,302.1,16.6,302.1,16.6z"/>
<path class="st0" d="M293.6,0.3c-2.4-0.1-2.6,1.3-2.6,1.7c0,1.3,0.9,1.5,0.9,1.5c-0.5,0.3-2.5,0.3-2.5-1.7c0-0.2,0.1-0.4,0.2-0.6
	c0.1-0.2,0.3-0.4,0.5-0.5l0,0c-0.3,0.2-0.7,0.3-1.1,0.3c-0.5,0-0.9-0.2-1.2-0.6C287.4,0.4,287,0,287,0h-1.7c0,0,3.7,4.7,6.9,4.7
	c0.5,0,1-0.2,1.4-0.5c0.4-0.3,0.7-0.7,0.9-1.2c0.2-0.5,0.1-1,0-1.5C294.3,1,294,0.6,293.6,0.3z"/>
<path class="st0" d="M284,1.3L284,1.3V3v0c0,0,0.4,0.4,0.5,0.6c0.3,0.3,0.5,0.8,0.6,1.2c0,0.4-0.1,0.8-0.3,1.1l0,0
	c0.1-0.2,0.3-0.4,0.5-0.5c0.2-0.1,0.4-0.2,0.6-0.2c1.9,0,2,2,1.7,2.5c0,0-0.2-0.9-1.5-0.9c-0.4,0-1.8,0.3-1.7,2.6
	c0.3,0.4,0.7,0.7,1.2,0.9c0.5,0.2,1,0.2,1.5,0c0.5-0.1,0.9-0.5,1.2-0.9c0.3-0.4,0.5-0.9,0.5-1.4C288.7,5,284,1.3,284,1.3z"/>
<path class="st0" d="M318.8,0h-1.7c0,0-0.4,0.4-0.6,0.5c-0.3,0.3-0.8,0.5-1.2,0.6c-0.4,0-0.8-0.1-1.1-0.3l0,0
	c0.2,0.1,0.4,0.3,0.5,0.5c0.1,0.2,0.2,0.4,0.2,0.6c0,1.9-2,1.9-2.5,1.7c0,0,0.9-0.2,0.9-1.5c0-0.4-0.3-1.8-2.6-1.7
	c-0.4,0.3-0.7,0.7-0.9,1.2c-0.2,0.5-0.2,1,0,1.5c0.2,0.5,0.5,0.9,0.9,1.2c0.4,0.3,0.9,0.5,1.4,0.5C315.1,4.7,318.8,0,318.8,0z"/>
<path class="st0" d="M320.1,1.3c0,0-4.7,3.7-4.7,6.8c0,0.5,0.2,1,0.5,1.4c0.3,0.4,0.7,0.7,1.2,0.9c0.5,0.1,1,0.1,1.5,0
	c0.5-0.2,0.9-0.5,1.2-0.9c0.1-2.3-1.3-2.6-1.7-2.6c-1.3,0-1.5,0.9-1.5,0.9c-0.3-0.5-0.3-2.5,1.7-2.5c0.2,0,0.4,0,0.6,0.2
	c0.2,0.1,0.4,0.3,0.5,0.5l0,0c-0.2-0.3-0.3-0.7-0.3-1.1c0-0.5,0.2-0.9,0.6-1.2c0.2-0.2,0.5-0.6,0.5-0.6l0,0L320.1,1.3L320.1,1.3z"/>
<path class="st0" d="M311.9,31.5c-0.5,0-1,0.2-1.4,0.5c-0.4,0.3-0.7,0.7-0.9,1.2c-0.2,0.5-0.1,1,0,1.5c0.2,0.5,0.5,0.9,0.9,1.2
	c2.4,0.1,2.6-1.3,2.6-1.7c0-1.3-0.9-1.5-0.9-1.5c0.5-0.3,2.5-0.3,2.5,1.7c0,0.2,0,0.4-0.2,0.6c-0.1,0.2-0.3,0.4-0.5,0.5l0,0
	c0.3-0.2,0.7-0.3,1.1-0.3c0.5,0,0.9,0.2,1.2,0.6c0.2,0.2,0.6,0.5,0.6,0.5h1.7C318.8,36.1,315.1,31.5,311.9,31.5z"/>
<path class="st0" d="M319.6,32.5c-0.3-0.3-0.5-0.8-0.6-1.2c0-0.4,0.1-0.8,0.3-1.1l0,0c-0.1,0.2-0.3,0.4-0.5,0.5
	c-0.2,0.1-0.4,0.2-0.6,0.2c-1.9,0-2-2-1.7-2.5c0,0,0.2,0.9,1.5,0.9c0.4,0,1.8-0.3,1.7-2.6c-0.3-0.4-0.7-0.7-1.2-0.9
	c-0.5-0.2-1-0.2-1.5,0c-0.5,0.1-0.9,0.5-1.2,0.9c-0.3,0.4-0.5,0.9-0.5,1.4c0,3.2,4.7,6.8,4.7,6.8h0v-1.6h0
	C320.1,33.2,319.8,32.8,319.6,32.5z"/>
<path class="st0" d="M288.8,35c0.4,0,0.8,0.1,1.1,0.3l0,0c-0.2-0.1-0.4-0.3-0.5-0.5c-0.1-0.2-0.2-0.4-0.2-0.6c0-1.9,2-1.9,2.5-1.7
	c0,0-0.9,0.2-0.9,1.5c0,0.4,0.3,1.8,2.6,1.7c0.4-0.3,0.7-0.7,0.9-1.2c0.2-0.5,0.2-1,0-1.5s-0.5-0.9-0.9-1.2
	c-0.4-0.3-0.9-0.5-1.4-0.5c-3.2,0-6.9,4.7-6.9,4.7h1.7c0,0,0.4-0.4,0.6-0.5C287.9,35.3,288.4,35.1,288.8,35z"/>
<path class="st0" d="M288.7,28c0-0.5-0.2-1-0.5-1.4c-0.3-0.4-0.7-0.7-1.2-0.9c-0.5-0.1-1-0.1-1.5,0c-0.5,0.2-0.9,0.5-1.2,0.9
	c-0.1,2.3,1.3,2.6,1.7,2.6c1.3,0,1.5-0.9,1.5-0.9c0.3,0.5,0.3,2.5-1.7,2.5c-0.2,0-0.4,0-0.6-0.2c-0.2-0.1-0.4-0.3-0.5-0.5l0,0
	c0.2,0.3,0.3,0.7,0.3,1.1c0,0.5-0.2,0.9-0.6,1.2c-0.2,0.2-0.5,0.6-0.5,0.6l0,0v1.6l0,0C284,34.8,288.7,31.2,288.7,28z"/>
<path class="st0" d="M307.8,4.8l0-4.8h-11.5v4.8l-7.5,7.4H284v0.8v4v0v1.7v0v4v0.8h4.9l7.5,7.4v5.1h11.5v-5.1l7.5-7.4h4.8V12.3h-4.8
	L307.8,4.8z M314.5,22.8h-7.3c0,0,0,0,0,0c0,0,0,0.1,0,0.1c0,0,0,0,0,0.1c0,0,0,0-0.1,0c0,0,0,0-0.1,0c0,0,0,0,0,0v7.2l-4.9,4.8
	l-4.9-4.8V23c0,0,0,0,0,0c0,0,0,0-0.1,0c0,0,0,0-0.1,0c0,0,0,0,0-0.1c0,0,0,0,0-0.1c0,0,0,0,0,0h-7.3l-4.9-4.8l4.9-4.8h7.3
	c0,0,0,0,0,0c0,0,0-0.1,0-0.1c0,0,0,0,0-0.1c0,0,0,0,0.1,0c0,0,0,0,0.1,0c0,0,0,0,0,0V5.7l4.9-4.8l4.9,4.8v7.2c0,0,0,0,0,0
	c0,0,0,0,0.1,0c0,0,0,0,0.1,0c0,0,0,0,0,0.1c0,0,0,0,0,0.1c0,0,0,0,0,0h7.3l4.9,4.8L314.5,22.8z"/>
<path class="st0" d="M297.2,12.9C297.2,12.9,297.2,12.9,297.2,12.9c-0.1,0-0.1,0-0.1,0c0,0,0,0-0.1,0c0,0,0,0,0,0.1c0,0,0,0,0,0.1
	c0,0,0,0,0,0h0.2V12.9z"/>
<path class="st0" d="M307,23C307,23,307,23,307,23c0.1,0,0.1,0,0.1,0c0,0,0,0,0.1,0c0,0,0,0,0-0.1c0,0,0,0,0-0.1c0,0,0,0,0,0H307V23
	z"/>
<path class="st0" d="M297,22.8C297,22.8,297,22.8,297,22.8c0,0.1,0,0.1,0,0.1c0,0,0,0,0,0.1c0,0,0,0,0.1,0c0,0,0,0,0.1,0
	c0,0,0,0,0,0v-0.2H297z"/>
<path class="st0" d="M307.2,13.1C307.2,13.1,307.2,13.1,307.2,13.1c0-0.1,0-0.1,0-0.1c0,0,0,0,0-0.1c0,0,0,0-0.1,0c0,0,0,0-0.1,0
	c0,0,0,0,0,0v0.2H307.2z"/>
<path class="st1" d="M120.2,67c-1.6,0.3-3,1-4.2,2.2s-1.9,2.6-2.2,4.2c1.6-0.3,3-1,4.2-2.2C119.1,70,119.9,68.5,120.2,67z"/>
<path class="st1" d="M112,65.6v9c0.9-1.3,1.4-2.9,1.4-4.5C113.4,68.5,112.9,67,112,65.6z"/>
<path class="st1" d="M112.5,75.1h9c-1.3-0.9-2.9-1.4-4.5-1.4C115.4,73.7,113.8,74.2,112.5,75.1z"/>
<path class="st1" d="M140,67c0.3,1.6,1,3,2.2,4.2c1.1,1.1,2.6,1.9,4.2,2.2c-0.3-1.6-1-3-2.2-4.2C143,68,141.5,67.2,140,67z"/>
<path class="st1" d="M148.1,74.7v-9h0L148.1,74.7L148.1,74.7z"/>
<path class="st1" d="M148.1,74.7v-9c-0.9,1.3-1.4,2.9-1.4,4.5C146.7,71.8,147.2,73.3,148.1,74.7z"/>
<path class="st1" d="M138.6,75.1h9c-1.3-0.9-2.9-1.4-4.5-1.4C141.5,73.7,140,74.2,138.6,75.1z"/>
<path class="st1" d="M146.3,40.8c-1.6,0.3-3.1,1-4.2,2.2c-1.1,1.1-1.9,2.6-2.2,4.2c1.6-0.3,3.1-1,4.2-2.2S146,42.4,146.3,40.8z"/>
<path class="st1" d="M148.1,48.5L148.1,48.5l0-9l0,0V48.5z"/>
<path class="st1" d="M146.7,44c0.1,1.6,0.5,3.2,1.4,4.5v-9C147.2,40.8,146.7,42.4,146.7,44z"/>
<path class="st1" d="M147.6,39h-9c1.3,0.9,2.9,1.4,4.5,1.4C144.8,40.4,146.3,39.9,147.6,39z"/>
<path class="st1" d="M120.2,47.2c-0.3-1.6-1-3-2.2-4.2c-1.1-1.1-2.6-1.9-4.2-2.2c0.3,1.6,1,3,2.2,4.2
	C117.1,46.1,118.6,46.9,120.2,47.2z"/>
<path class="st1" d="M112,39.5v9c0.9-1.3,1.4-2.9,1.4-4.5S112.9,40.8,112,39.5z"/>
<path class="st1" d="M121.5,39h-9c1.3,0.9,2.9,1.4,4.5,1.4C118.6,40.4,120.2,39.9,121.5,39z"/>
<path class="st1" d="M130.1,54.7c0,0,5.8-4.6,5.8-8.5c0-0.6-0.2-1.3-0.6-1.8c-0.4-0.5-0.9-0.9-1.5-1.1c-0.6-0.2-1.3-0.2-1.9,0
	c-0.6,0.2-1.1,0.6-1.5,1.1c-0.1,2.9,1.6,3.3,2.1,3.3c1.6,0,1.9-1.1,1.9-1.1c0.4,0.7,0.3,3.1-2.1,3.1c-0.3,0-0.6-0.1-0.8-0.2
	c-0.2-0.1-0.4-0.3-0.6-0.6l0,0c0.2,0.4,0.4,0.9,0.4,1.4c-0.1,0.6-0.3,1.1-0.7,1.5c-0.2,0.3-0.7,0.8-0.7,0.8s-0.4-0.5-0.7-0.8
	c-0.4-0.4-0.6-1-0.7-1.5c0-0.5,0.2-1,0.4-1.4l0,0c-0.1,0.2-0.3,0.5-0.6,0.6c-0.2,0.1-0.5,0.2-0.8,0.2c-2.4,0-2.4-2.5-2.1-3.1
	c0,0,0.3,1.1,1.9,1.1c0.5,0,2.2-0.3,2.1-3.3c-0.4-0.5-0.9-0.9-1.5-1.1c-0.6-0.2-1.2-0.2-1.9,0c-0.6,0.2-1.1,0.6-1.5,1.1
	c-0.4,0.5-0.6,1.1-0.6,1.8C124.2,50.2,130.1,54.7,130.1,54.7z"/>
<path class="st1" d="M130.1,59.4c0,0-5.8,4.6-5.8,8.5c0,0.6,0.2,1.3,0.6,1.8s0.9,0.9,1.5,1.1c0.6,0.2,1.3,0.2,1.9,0
	c0.6-0.2,1.1-0.6,1.5-1.1c0.1-2.9-1.6-3.3-2.1-3.3c-1.6,0-1.9,1.1-1.9,1.1c-0.4-0.7-0.3-3.1,2.1-3.1c0.3,0,0.6,0.1,0.8,0.2
	c0.2,0.1,0.4,0.4,0.6,0.6l0,0c-0.2-0.4-0.4-0.9-0.4-1.4c0.1-0.6,0.3-1.1,0.7-1.5c0.2-0.3,0.7-0.8,0.7-0.8s0.4,0.5,0.7,0.8
	c0.4,0.4,0.6,1,0.7,1.5c0,0.5-0.2,1-0.4,1.4l0,0c0.1-0.3,0.3-0.5,0.6-0.6c0.2-0.1,0.5-0.2,0.8-0.2c2.4,0,2.4,2.5,2.1,3.1
	c0,0-0.3-1.1-1.9-1.1c-0.5,0-2.2,0.3-2.1,3.3c0.4,0.5,0.9,0.9,1.5,1.1c0.6,0.2,1.2,0.2,1.9,0c0.6-0.2,1.1-0.6,1.5-1.1
	c0.4-0.5,0.6-1.1,0.6-1.8C135.9,63.9,130.1,59.4,130.1,59.4z"/>
<path class="st1" d="M127.7,57.1c0,0-4.6-5.8-8.5-5.8c-0.6,0-1.3,0.2-1.8,0.6s-0.9,0.9-1.1,1.5c-0.2,0.6-0.2,1.3,0,1.9
	c0.2,0.6,0.6,1.1,1.1,1.5c2.9,0.1,3.3-1.6,3.3-2.1c0-1.6-1.1-1.9-1.1-1.9c0.7-0.4,3.1-0.3,3.1,2.1c0,0.3-0.1,0.6-0.2,0.8
	c-0.1,0.2-0.3,0.4-0.6,0.6l0,0c0.4-0.2,0.9-0.4,1.4-0.4c0.6,0.1,1.1,0.3,1.5,0.7c0.3,0.2,0.8,0.7,0.8,0.7s-0.5,0.4-0.8,0.7
	c-0.4,0.4-1,0.7-1.5,0.7c-0.5,0-1-0.2-1.4-0.4l0,0c0.2,0.1,0.5,0.3,0.6,0.6c0.1,0.2,0.2,0.5,0.2,0.8c0,2.4-2.5,2.4-3.1,2.1
	c0,0,1.1-0.3,1.1-1.9c0-0.5-0.3-2.2-3.3-2.1c-0.5,0.4-0.9,0.9-1.1,1.5c-0.2,0.6-0.2,1.3,0,1.9c0.2,0.6,0.6,1.1,1.1,1.5
	c0.5,0.4,1.1,0.6,1.8,0.6C123.2,62.9,127.7,57.1,127.7,57.1z"/>
<path class="st1" d="M132.4,57.1c0,0,4.6,5.8,8.5,5.8c0.6,0,1.3-0.2,1.8-0.6c0.5-0.4,0.9-0.9,1.1-1.5c0.2-0.6,0.2-1.3,0-1.9
	c-0.2-0.6-0.6-1.1-1.1-1.5c-2.9-0.1-3.3,1.6-3.3,2.1c0,1.6,1.1,1.9,1.1,1.9c-0.7,0.3-3.1,0.3-3.1-2.1c0-0.3,0.1-0.6,0.2-0.8
	c0.1-0.2,0.3-0.4,0.6-0.6l0,0c-0.4,0.2-0.9,0.4-1.4,0.4c-0.6-0.1-1.1-0.3-1.5-0.7c-0.3-0.2-0.8-0.7-0.8-0.7s0.5-0.5,0.8-0.7
	c0.4-0.4,1-0.7,1.5-0.7c0.5,0,1,0.2,1.4,0.4l0,0c-0.2-0.1-0.5-0.3-0.6-0.6c-0.1-0.2-0.2-0.5-0.2-0.8c0-2.4,2.5-2.4,3.1-2.1
	c0,0-1.1,0.3-1.1,1.9c0,0.5,0.3,2.2,3.3,2.1c0.5-0.4,0.9-0.9,1.1-1.5c0.2-0.6,0.2-1.3,0-1.9c-0.2-0.6-0.6-1.1-1.1-1.5
	c-0.5-0.4-1.1-0.6-1.8-0.6C136.9,51.2,132.4,57.1,132.4,57.1z"/>
<path class="st1" d="M140.8,65.3c1,0,1.9-0.3,2.7-0.7c0.8-0.5,1.5-1.2,2-2c0.5-0.8,0.7-1.8,0.7-2.7c0-1-0.3-1.9-0.8-2.7
	c0.5-0.8,0.8-1.8,0.8-2.7c0-1-0.2-1.9-0.7-2.8c-0.5-0.8-1.2-1.5-2-2s-1.8-0.7-2.7-0.7c-1.1,0-2.2,0.3-3.2,0.7c0.5-1,0.7-2.1,0.7-3.2
	c0-1-0.3-1.9-0.7-2.7c-0.5-0.8-1.2-1.5-2-2c-0.8-0.5-1.8-0.7-2.7-0.7c-1,0-1.9,0.3-2.7,0.8c-0.8-0.5-1.8-0.8-2.7-0.8
	c-1,0-1.9,0.2-2.7,0.7c-0.8,0.5-1.5,1.2-2,2c-0.5,0.8-0.7,1.8-0.7,2.7c0,1.1,0.3,2.2,0.7,3.2c-1-0.5-2.1-0.7-3.2-0.7
	c-1,0-1.9,0.3-2.7,0.7c-0.8,0.5-1.5,1.2-2,2c-0.5,0.8-0.7,1.8-0.7,2.8c0,1,0.3,1.9,0.8,2.7c-0.5,0.8-0.8,1.8-0.8,2.7
	c0,1,0.2,1.9,0.7,2.7c0.5,0.8,1.2,1.5,2,2c0.8,0.5,1.8,0.7,2.7,0.7c1.1,0,2.2-0.3,3.2-0.7c-0.5,1-0.7,2.1-0.7,3.2
	c0,1,0.3,1.9,0.7,2.7s1.2,1.5,2,2c0.8,0.5,1.8,0.7,2.7,0.7c1,0,1.9-0.3,2.7-0.8c0.8,0.5,1.8,0.8,2.7,0.8c1,0,1.9-0.2,2.7-0.7
	c0.8-0.5,1.5-1.1,2-2c0.5-0.8,0.7-1.8,0.7-2.7c0-1.1-0.3-2.2-0.7-3.2C138.6,65,139.7,65.3,140.8,65.3z M137.6,67.8
	c0,0.8-0.2,1.7-0.7,2.4c-0.4,0.7-1.1,1.3-1.8,1.8c-0.7,0.4-1.6,0.6-2.4,0.6c-0.9,0-1.7-0.3-2.4-0.7l-0.3-0.2l-0.3,0.2
	c-0.7,0.5-1.6,0.7-2.4,0.7c-0.9,0-1.7-0.2-2.4-0.6c-0.7-0.4-1.4-1-1.8-1.8c-0.4-0.7-0.7-1.6-0.7-2.4c0-1.1,0.3-2.3,0.8-3.3l0.4-0.8
	c-0.1,0-0.1-0.1-0.1-0.1s-0.1-0.1-0.1-0.1l-0.8,0.4c-1,0.5-2.1,0.8-3.3,0.8c-0.9,0-1.7-0.2-2.4-0.7c-0.7-0.4-1.3-1-1.8-1.8
	s-0.6-1.6-0.6-2.5c0-0.8,0.3-1.7,0.7-2.4l0.2-0.3l-0.2-0.3c-0.5-0.7-0.7-1.5-0.7-2.4c0-0.9,0.2-1.7,0.6-2.5c0.4-0.8,1-1.4,1.8-1.8
	c0.7-0.4,1.6-0.7,2.4-0.7c1.1,0,2.3,0.3,3.3,0.8l0.8,0.4c0-0.1,0.1-0.1,0.1-0.1c0,0,0.1-0.1,0.1-0.1l-0.4-0.8
	c-0.5-1-0.8-2.1-0.8-3.3c0-0.9,0.2-1.7,0.7-2.4c0.4-0.7,1.1-1.3,1.8-1.8c0.7-0.4,1.6-0.6,2.4-0.6c0.9,0,1.7,0.3,2.4,0.7l0.3,0.2
	l0.3-0.2c0.7-0.5,1.6-0.7,2.4-0.7c0.9,0,1.7,0.2,2.4,0.6c0.7,0.4,1.4,1,1.8,1.8c0.4,0.7,0.7,1.6,0.7,2.4c0,1.1-0.3,2.3-0.8,3.3
	l-0.4,0.8c0.1,0,0.1,0.1,0.1,0.1c0,0,0.1,0.1,0.1,0.1l0.8-0.4c1-0.5,2.1-0.8,3.3-0.8c0.9,0,1.7,0.2,2.4,0.7c0.7,0.4,1.3,1.1,1.8,1.8
	c0.4,0.8,0.6,1.6,0.6,2.4c0,0.9-0.3,1.7-0.7,2.4l-0.2,0.3l0.2,0.3c0.5,0.7,0.7,1.5,0.7,2.4c0,0.9-0.2,1.7-0.6,2.5
	c-0.4,0.8-1,1.4-1.8,1.8c-0.7,0.4-1.6,0.7-2.4,0.7c-1.1,0-2.3-0.3-3.3-0.8l-0.8-0.4c0,0-0.1,0.1-0.1,0.1c0,0-0.1,0.1-0.1,0.1
	l0.4,0.8C137.3,65.5,137.6,66.6,137.6,67.8z"/>
<path class="st1" d="M123.6,51.4c0.2,0.2,1.1,0.3,1.1,0.3s-0.1-0.9-0.3-1.1c-0.1-0.1-0.2-0.1-0.3-0.2c-0.1,0-0.3,0-0.4,0.1l0.2,0.4
	l-0.4-0.2c-0.1,0.1-0.1,0.2-0.1,0.4C123.4,51.2,123.5,51.3,123.6,51.4z"/>
<path class="st1" d="M123.7,50.5c-0.1,0-0.1,0.1-0.1,0.1c0,0-0.1,0.1-0.1,0.1l0.4,0.2L123.7,50.5z"/>
<path class="st1" d="M136.6,62.7c-0.2-0.2-1.1-0.3-1.1-0.3s0,0.9,0.3,1.1c0.1,0.1,0.2,0.2,0.3,0.2c0.1,0,0.3,0,0.4-0.1l-0.2-0.4
	l0.4,0.2c0.1-0.1,0.1-0.2,0.1-0.4S136.7,62.8,136.6,62.7z"/>
<path class="st1" d="M136.4,63.7c0.1,0,0.1-0.1,0.1-0.1c0,0,0.1-0.1,0.1-0.1l-0.4-0.2L136.4,63.7z"/>
<path class="st1" d="M124.4,63.6c0.2-0.2,0.3-1.1,0.3-1.1s-0.9,0-1.1,0.3c-0.1,0.1-0.2,0.2-0.2,0.3c0,0.1,0,0.3,0.1,0.4l0.4-0.2
	l-0.2,0.4c0.1,0.1,0.2,0.1,0.4,0.1C124.2,63.7,124.3,63.7,124.4,63.6z"/>
<path class="st1" d="M123.5,63.4c0,0,0.1,0.1,0.1,0.1s0.1,0.1,0.1,0.1l0.2-0.4L123.5,63.4z"/>
<path class="st1" d="M135.7,50.6c-0.2,0.2-0.3,1.1-0.3,1.1s0.9,0,1.1-0.3c0.1-0.1,0.1-0.2,0.2-0.3c0-0.1,0-0.3-0.1-0.4l-0.4,0.2
	l0.2-0.4c-0.1-0.1-0.2-0.1-0.4-0.1C135.9,50.4,135.8,50.5,135.7,50.6z"/>
<path class="st1" d="M136.7,50.7c0-0.1-0.1-0.1-0.1-0.1c0,0-0.1-0.1-0.1-0.1l-0.2,0.4L136.7,50.7z"/>
<path class="st1" d="M128.3,39.1L128.3,39.1L128.3,39.1L128.3,39.1L128.3,39.1l0,0.1l0,0l0,0l0,0l0,0l0,0l0,0l0,0l0,0l0,0l0,0l0,0
	c0.2,0.1,0.4,0.2,0.6,0.3c0.2,0.2,0.3,0.4,0.4,0.6v0.1l0,0l0,0l0,0l0,0l0,0l0,0l0,0l0.1,0l0,0l0.1,0l0,0l0,0l0.1,0l0,0l0,0l0,0
	l0.1,0l0,0l0,0l0,0l0,0l0,0c0.1-0.1,0.1-0.1,0.1-0.2l0,0c0.1-0.2,0.2-0.4,0.4-0.6c0.2-0.2,0.4-0.3,0.6-0.4l0,0l0,0l0,0l0.1,0l0,0
	c0.1,0,0.1-0.1,0.1-0.2c0-0.1,0-0.1,0-0.2H131c-0.4,0.2-0.8,0.5-1,0.9c-0.2-0.4-0.6-0.8-1-0.9L128.3,39.1L128.3,39.1L128.3,39.1z"/>
<path class="st1" d="M131.8,75.1L131.8,75.1L131.8,75.1L131.8,75.1L131.8,75.1l0-0.1l0,0l0,0l0,0l0,0l0,0l0,0l0,0l0,0l0,0l0,0h0
	c-0.2-0.1-0.4-0.2-0.6-0.3c-0.2-0.2-0.3-0.4-0.4-0.6v-0.1l0,0l0,0l0,0l0,0l0,0l0,0l0,0l-0.1,0h0l-0.1,0h0l-0.1,0l-0.1,0h0l0,0h0
	l-0.1,0l0,0l0,0l0,0l0,0l0,0c-0.1,0.1-0.1,0.1-0.1,0.2l0,0c-0.1,0.2-0.2,0.5-0.4,0.6c-0.2,0.2-0.4,0.3-0.6,0.3l0,0l0,0l0,0l-0.1,0
	l0,0c-0.1,0-0.1,0.1-0.1,0.1c0,0.1,0,0.1,0,0.2h0.8c0.4-0.2,0.8-0.5,1-1c0.2,0.4,0.6,0.8,1,1L131.8,75.1L131.8,75.1L131.8,75.1z"/>
<path class="st1" d="M112.1,58.8L112.1,58.8L112.1,58.8L112.1,58.8L112.1,58.8l0.1,0l0,0l0,0l0,0l0,0l0,0l0,0l0,0l0,0l0,0l0,0l0,0
	c0.1-0.2,0.2-0.4,0.3-0.6c0.2-0.2,0.4-0.3,0.6-0.4h0.1l0,0l0,0l0,0l0,0l0,0l0,0l0,0l0-0.1l0,0l0-0.1l0,0l0,0l0-0.1l0,0l0,0l0,0l0,0
	l0,0l0,0l0,0l0,0l0,0c-0.1-0.1-0.1-0.1-0.2-0.1h0c-0.2-0.1-0.4-0.2-0.6-0.4c-0.2-0.2-0.3-0.4-0.4-0.6l0,0l0-0.1l0,0l0-0.1h0
	c0,0-0.1-0.1-0.2-0.1c-0.1,0-0.1,0-0.2,0v0.8c0.3,0,0.5,0.1,0.7,0.3c0.2,0.2,0.3,0.4,0.3,0.7c0,0.3-0.1,0.5-0.3,0.7
	c-0.2,0.2-0.4,0.3-0.7,0.3L112.1,58.8L112.1,58.8L112.1,58.8z"/>
<path class="st1" d="M148.1,58.8V58l0,0L148.1,58.8L148.1,58.8z"/>
<path class="st1" d="M148.1,56.1v-0.8h0L148.1,56.1L148.1,56.1z"/>
<path class="st1" d="M148.1,55.3L148.1,55.3L148.1,55.3L148.1,55.3L148.1,55.3l-0.1,0l0,0l0,0l0,0l0,0l0,0l0,0l0,0l0,0l0,0l0,0l0,0
	c-0.1,0.2-0.2,0.4-0.3,0.6c-0.2,0.2-0.4,0.3-0.6,0.4h-0.1l0,0l0,0l0,0l0,0l0,0l0,0l0,0l0,0l0,0l0,0.1l0,0l0,0l0,0.1l0,0l0,0l0,0l0,0
	l0,0l0,0l0,0l0,0.1l0,0c0.1,0.1,0.1,0.1,0.2,0.1l0,0c0.2,0.1,0.4,0.2,0.6,0.4c0.2,0.2,0.3,0.4,0.4,0.6l0,0l0,0l0,0l0,0l0,0
	c0,0,0.1,0.1,0.2,0.1c0.1,0,0.1,0,0.2,0V58c-0.3,0-0.5-0.1-0.7-0.3c-0.2-0.2-0.3-0.4-0.3-0.7c0-0.3,0.1-0.5,0.3-0.7
	c0.2-0.2,0.4-0.3,0.7-0.3L148.1,55.3L148.1,55.3L148.1,55.3z"/>
</svg>
