<?xml version="1.0" encoding="utf-8"?>
<!-- Generator: Adobe Illustrator 22.1.0, SVG Export Plug-In . SVG Version: 6.00 Build 0)  -->
<svg version="1.1" id="Слой_1" xmlns="http://www.w3.org/2000/svg" xmlns:xlink="http://www.w3.org/1999/xlink" x="0px" y="0px"
	 viewBox="0 0 146 146" style="enable-background:new 0 0 146 146;" xml:space="preserve">
<style type="text/css">
	.st0{fill:#E7533B;}
</style>
<path class="st0" d="M90.1,92.4c0.9,0,1.7,0.1,2.6,0.2c-0.4-2.4-0.2-4.9,0.5-7.3s1.9-4.6,3.5-6.4s3.6-3.4,5.8-4.4
	c2.2-1,4.7-1.6,7.1-1.6H93.8c0,0.5-0.1,1-0.3,1.5c-0.2,0.5-0.5,0.9-0.9,1.3s-0.8,0.7-1.3,0.9c-0.5,0.2-1,0.3-1.5,0.3
	c-2.2,0-13.2-1.8-13.2-4H73v36.5c0-4.5,1.8-8.9,5-12S85.5,92.5,90.1,92.4z M87.4,85.7c0.2,0.2,0.3,0.4,0.3,0.6s0,0.5-0.1,0.7
	s-0.3,0.4-0.5,0.6c-0.2,0.1-0.4,0.2-0.7,0.2s-0.5-0.1-0.7-0.2s-0.4-0.3-0.5-0.6c-0.1-0.2-0.1-0.5-0.1-0.7s0.2-0.5,0.3-0.6
	c0.2-0.2,0.6-0.4,0.9-0.4C86.9,85.3,87.2,85.4,87.4,85.7z M73,73h1.8c0,0.2,0,0.5-0.1,0.7s-0.2,0.4-0.4,0.6
	c-0.2,0.2-0.4,0.3-0.6,0.4s-0.4,0.1-0.7,0.1C73,74.8,73,73,73,73z M73,93.8V76.6c2.2,0,4,11.1,4,13.2c0,0.5-0.1,1-0.3,1.5
	c-0.2,0.5-0.5,0.9-0.9,1.3s-0.8,0.7-1.3,0.9C74,93.7,73.5,93.8,73,93.8z M77.3,77.3c0.8-0.8,6.7,3.2,7.6,4.1
	c0.2,0.2,0.4,0.5,0.5,0.8s0.2,0.6,0.2,1c0,0.3-0.1,0.7-0.2,1s-0.3,0.6-0.5,0.8c-0.2,0.2-0.5,0.4-0.8,0.5s-0.6,0.2-1,0.2
	c-0.3,0-0.7-0.1-1-0.2s-0.6-0.3-0.8-0.5C80.4,83.9,76.5,78.1,77.3,77.3z"/>
<path class="st0" d="M90,123.5c1.4,0,2.8-0.2,4.2-0.6l0.6-0.2c0-0.2,0.2-0.4,0.3-0.6c0.1-0.1,0.3-0.2,0.4-0.3
	c0.2-0.1,0.3-0.1,0.5-0.1s0.3,0,0.5,0.1s0.3,0.2,0.4,0.3c0.1,0.1,0.2,0.3,0.3,0.4c0.1,0.2,0.1,0.3,0.1,0.5s0,0.3-0.1,0.5
	s-0.2,0.3-0.3,0.4c-0.2,0.1-0.4,0.3-0.6,0.3l-0.2,0.6c-0.7,2.1-0.8,4.3-0.4,6.5c0.4,2.2,1.2,4.2,2.5,6s3,3.2,5,4.2s4.1,1.5,6.3,1.5
	s4.4-0.5,6.3-1.5c2-1,3.7-2.4,5-4.2s2.2-3.8,2.5-6c0.4-2.2,0.2-4.4-0.4-6.5l-0.2-0.6c-0.2,0-0.4-0.2-0.6-0.3
	c-0.1-0.1-0.2-0.3-0.3-0.4c-0.1-0.2-0.1-0.3-0.1-0.5s0-0.3,0.1-0.5s0.2-0.3,0.3-0.4c0.1-0.1,0.3-0.2,0.4-0.3
	c0.2-0.1,0.3-0.1,0.5-0.1s0.3,0,0.5,0.1s0.3,0.2,0.4,0.3c0.1,0.2,0.3,0.4,0.3,0.6l0.6,0.2c2.1,0.6,4.3,0.8,6.5,0.4s4.2-1.2,6-2.5
	s3.2-3,4.2-5s1.5-4.1,1.5-6.3c0-2.2-0.5-4.4-1.5-6.3s-2.4-3.7-4.2-5s-3.8-2.2-6-2.5c-2.2-0.4-4.4-0.2-6.5,0.4l-0.6,0.2
	c0,0.2-0.2,0.4-0.3,0.6c-0.1,0.1-0.3,0.2-0.4,0.3c-0.2,0.1-0.3,0.1-0.5,0.1s-0.3,0-0.5-0.1s-0.3-0.2-0.4-0.3
	c-0.1-0.1-0.2-0.3-0.3-0.4c-0.1-0.2-0.1-0.3-0.1-0.5s0-0.3,0.1-0.5s0.2-0.3,0.3-0.4c0.2-0.1,0.4-0.3,0.6-0.3l0.2-0.6
	c0.7-2.1,0.8-4.3,0.4-6.5s-1.2-4.2-2.5-6s-3-3.2-5-4.2s-4.1-1.5-6.3-1.5s-4.4,0.5-6.3,1.5c-2,1-3.7,2.4-5,4.2
	c-1.3,1.8-2.2,3.8-2.5,6c-0.4,2.2-0.2,4.4,0.4,6.5l0.2,0.6c0.2,0,0.4,0.2,0.6,0.3c0.2,0.2,0.4,0.6,0.4,0.9s-0.1,0.7-0.4,0.9
	c-0.2,0.2-0.6,0.4-0.9,0.4s-0.6-0.1-0.9-0.4c-0.1-0.2-0.3-0.4-0.3-0.6l-0.6-0.2c-1.9-0.6-4-0.8-6-0.5s-3.9,0.9-5.6,2
	s-3.2,2.5-4.3,4.2c-1.1,1.7-1.8,3.6-2.1,5.6c-0.3,2-0.2,4,0.4,6c0.6,1.9,1.5,3.7,2.8,5.3c1.3,1.5,2.9,2.8,4.8,3.6
	C86,123.1,88,123.5,90,123.5L90,123.5z M101.1,121.4c-0.5,0.5-1.1,0.7-1.8,0.7c-0.7,0-1.3-0.3-1.8-0.7c-0.5-0.5-0.7-1.1-0.7-1.8
	c0-0.7,0.3-1.3,0.7-1.8c1-1,6.8-4.9,7.6-4.1S102.1,120.4,101.1,121.4z M109.5,130.3c-1,0-2.1-0.4-2.8-1.2c-0.7-0.7-1.2-1.7-1.2-2.8
	c0-2.2,1.8-13.2,4-13.2s4,11.1,4,13.2c0,0.5-0.1,1-0.3,1.5c-0.2,0.5-0.5,0.9-0.9,1.3c-0.4,0.4-0.8,0.7-1.3,0.9
	C110.5,130.2,110,130.3,109.5,130.3L109.5,130.3z M107.7,109.5c0-0.3,0.1-0.7,0.3-1c0.2-0.3,0.5-0.5,0.8-0.6s0.7-0.2,1-0.1
	s0.7,0.2,0.9,0.5c0.2,0.2,0.4,0.6,0.5,0.9s0,0.7-0.1,1s-0.4,0.6-0.6,0.8s-0.6,0.3-1,0.3c-0.2,0-0.5,0-0.7-0.1s-0.4-0.2-0.6-0.4
	c-0.2-0.2-0.3-0.4-0.4-0.6C107.8,110,107.7,109.7,107.7,109.5z M121.4,121.4c-0.5,0.5-1.1,0.7-1.8,0.7c-0.7,0-1.3-0.3-1.8-0.7
	c-1-1-4.9-6.8-4.1-7.6c0.8-0.8,6.7,3.2,7.6,4.1c0.2,0.2,0.4,0.5,0.5,0.8s0.2,0.6,0.2,1c0,0.3-0.1,0.6-0.2,0.9
	C121.8,120.9,121.6,121.2,121.4,121.4z M126.4,105.5c1,0,2.1,0.4,2.8,1.2c0.7,0.7,1.2,1.7,1.2,2.8c0,1-0.4,2.1-1.2,2.8
	c-0.7,0.7-1.7,1.2-2.8,1.2c-2.2,0-13.2-1.8-13.2-4C113.1,107.3,124.2,105.5,126.4,105.5L126.4,105.5z M117.9,97.6
	c0.5-0.5,1.1-0.7,1.8-0.7s1.3,0.3,1.8,0.7c0.5,0.5,0.7,1.1,0.7,1.8c0,0.7-0.3,1.3-0.7,1.8c-1,1-6.8,4.9-7.6,4.1
	C113,104.5,116.9,98.6,117.9,97.6L117.9,97.6z M109.5,88.7c1,0,2.1,0.4,2.8,1.2c0.7,0.7,1.2,1.7,1.2,2.8c0,2.2-1.8,13.2-4,13.2
	s-4-11.1-4-13.2c0-1,0.4-2.1,1.2-2.8C107.4,89.1,108.4,88.7,109.5,88.7z M97.6,97.6c0.5-0.5,1.1-0.7,1.8-0.7c0.7,0,1.3,0.3,1.8,0.7
	c1,1,4.9,6.8,4.1,7.6c-0.8,0.8-6.7-3.2-7.6-4.1c-0.5-0.5-0.7-1.1-0.7-1.8C96.9,98.7,97.1,98.1,97.6,97.6z M92.6,105.5
	c2.2,0,13.2,1.8,13.2,4s-11.1,4-13.2,4c-1,0-2.1-0.4-2.8-1.2c-0.7-0.7-1.2-1.7-1.2-2.8c0-1,0.4-2.1,1.2-2.8
	C90.6,106,91.6,105.5,92.6,105.5z"/>
<path class="st0" d="M146,74.8c-0.5,0-0.9-0.2-1.2-0.5s-0.5-0.8-0.5-1.2h-1.9c0,2.2-11.1,4-13.2,4c-0.5,0-1-0.1-1.5-0.3
	c-0.5-0.2-0.9-0.5-1.3-0.9s-0.7-0.8-0.9-1.3c-0.2-0.5-0.3-1-0.3-1.5h-15.7c2.5,0,4.9,0.5,7.1,1.6c2.2,1,4.2,2.5,5.8,4.4
	c1.6,1.9,2.8,4.1,3.5,6.4c0.7,2.4,0.8,4.8,0.5,7.3c0.9-0.1,1.7-0.2,2.6-0.2c2.3,0,4.7,0.5,6.8,1.4c2.2,0.9,4.1,2.3,5.7,4
	c1.6,1.7,2.8,3.8,3.6,6s1.1,4.6,0.9,6.9c-0.2,2.3-0.8,4.6-1.9,6.7c-1.1,2.1-2.6,3.9-4.5,5.4c-1.8,1.5-4,2.5-6.2,3.1
	c-2.3,0.6-4.6,0.7-7,0.4c0.4,2.4,0.2,4.9-0.5,7.3s-1.9,4.5-3.5,6.4s-3.6,3.4-5.8,4.4c-2.2,1-4.7,1.6-7.1,1.6c-2.5,0-4.9-0.5-7.1-1.6
	c-2.2-1-4.2-2.5-5.8-4.4c-1.6-1.9-2.8-4.1-3.5-6.4c-0.7-2.4-0.8-4.8-0.5-7.3c-2.4,0.4-4.9,0.2-7.3-0.5s-4.6-1.9-6.4-3.5
	c-1.9-1.6-3.4-3.6-4.4-5.8c-1-2.2-1.6-4.7-1.6-7.1V146h73V73l0,0L146,74.8L146,74.8z M85.7,131.6c0.2-0.2,0.4-0.3,0.6-0.3
	s0.5,0,0.7,0.1s0.4,0.3,0.6,0.5c0.1,0.2,0.2,0.4,0.2,0.7c0,0.2-0.1,0.5-0.2,0.7s-0.3,0.4-0.6,0.5c-0.2,0.1-0.5,0.1-0.7,0.1
	s-0.5-0.2-0.6-0.3c-0.2-0.2-0.4-0.6-0.4-0.9C85.3,132.1,85.4,131.8,85.7,131.6z M81.4,134.1c0.2-0.2,0.5-0.4,0.8-0.5s0.6-0.2,1-0.2
	c0.3,0,0.7,0.1,1,0.2c0.3,0.1,0.6,0.3,0.8,0.5c0.2,0.2,0.4,0.5,0.5,0.8s0.2,0.6,0.2,1c0,0.3-0.1,0.6-0.2,1c-0.1,0.3-0.3,0.6-0.5,0.8
	c-1,1-6.8,4.9-7.6,4.1C76.5,140.9,80.4,135.1,81.4,134.1z M73,125.2c0.5,0,1,0.1,1.5,0.3c0.5,0.2,0.9,0.5,1.3,0.9s0.7,0.8,0.9,1.3
	c0.2,0.5,0.3,1,0.3,1.5c0,2.2-1.8,13.2-4,13.2C73,142.4,73,125.2,73,125.2z M73,146v-1.8c0.2,0,0.5,0,0.7,0.1s0.4,0.2,0.6,0.4
	s0.3,0.4,0.4,0.6c0.1,0.2,0.1,0.4,0.1,0.7H73z M76.6,146c0-2.2,11.1-4,13.2-4c1,0,2.1,0.4,2.8,1.2c0.7,0.7,1.2,1.7,1.2,2.8H76.6z
	 M133.3,87.4c-0.2,0.2-0.4,0.3-0.6,0.3c-0.2,0-0.5,0-0.7-0.1s-0.4-0.3-0.6-0.5c-0.1-0.2-0.2-0.4-0.2-0.7c0-0.2,0.1-0.5,0.2-0.7
	c0.1-0.2,0.3-0.4,0.6-0.5c0.2-0.1,0.5-0.1,0.7-0.1s0.5,0.2,0.6,0.3c0.2,0.2,0.4,0.6,0.4,0.9C133.7,86.9,133.6,87.2,133.3,87.4z
	 M137.6,84.9c-0.2,0.2-0.5,0.4-0.8,0.5s-0.6,0.2-0.9,0.2s-0.6-0.1-0.9-0.2c-0.3-0.1-0.6-0.3-0.8-0.5s-0.4-0.5-0.5-0.8
	s-0.2-0.6-0.2-1c0-0.3,0.1-0.6,0.2-1s0.3-0.6,0.5-0.8c1-1,6.8-4.9,7.6-4.1C142.5,78.1,138.6,83.9,137.6,84.9z M146,125.2v17.2
	c-2.2,0-4-11.1-4-13.2c0-1,0.4-2.1,1.2-2.8C143.9,125.6,144.9,125.2,146,125.2L146,125.2z M137.6,134.1c1,1,4.9,6.8,4.1,7.6
	c-0.8,0.8-6.7-3.2-7.6-4.1c-0.5-0.5-0.7-1.1-0.7-1.8s0.3-1.3,0.7-1.8c0.5-0.5,1.1-0.7,1.8-0.7C136.5,133.4,137.1,133.6,137.6,134.1z
	 M131.6,131.6c0.2-0.2,0.4-0.3,0.6-0.3c0.2,0,0.5,0,0.7,0.1s0.4,0.3,0.6,0.5c0.1,0.2,0.2,0.4,0.2,0.7c0,0.2-0.1,0.5-0.2,0.7
	c-0.1,0.2-0.3,0.4-0.6,0.5c-0.2,0.1-0.5,0.1-0.7,0.1s-0.5-0.2-0.6-0.3c-0.2-0.2-0.4-0.6-0.4-0.9
	C131.2,132.1,131.3,131.8,131.6,131.6L131.6,131.6z M125.2,146c0-1,0.4-2.1,1.2-2.8c0.7-0.7,1.7-1.2,2.8-1.2c2.2,0,13.2,1.8,13.2,4
	H125.2z M146,146h-1.8c0-0.5,0.2-0.9,0.5-1.2s0.8-0.5,1.2-0.5v1.7H146z M146,93.8c-0.5,0-1-0.1-1.5-0.3c-0.5-0.2-0.9-0.5-1.3-0.9
	s-0.7-0.8-0.9-1.3s-0.3-1-0.3-1.5c0-2.2,1.8-13.2,4-13.2V93.8z"/>
</svg>
