<?xml version="1.0" encoding="utf-8"?>
<!-- Generator: Adobe Illustrator 22.1.0, SVG Export Plug-In . SVG Version: 6.00 Build 0)  -->
<svg version="1.1" id="Слой_1" xmlns="http://www.w3.org/2000/svg" xmlns:xlink="http://www.w3.org/1999/xlink" x="0px" y="0px"
	 viewBox="0 0 146 146" style="enable-background:new 0 0 146 146;" xml:space="preserve">
<style type="text/css">
	.st0{fill:#2C3B8C;}
	.st1{fill:#6678D6;}
</style>
<path class="st0" d="M0.6,17.8c0.2,0.1,0.4,0.1,0.6,0.1s0.4-0.1,0.5-0.3L17.5,1.7c0.1-0.1,0.2-0.3,0.3-0.5c0-0.2,0-0.4-0.1-0.6
	s-0.2-0.3-0.4-0.5C17.2,0.1,17,0,16.8,0H1C0.7,0,0.5,0.1,0.3,0.3S0,0.7,0,1v15.8c0,0.2,0.1,0.4,0.2,0.6S0.4,17.7,0.6,17.8z"/>
<path class="st0" d="M0.6,26.1c0.1,0.1,0.3,0.2,0.5,0.2s0.3-0.1,0.5-0.2L26.1,1.5c0.1-0.1,0.1-0.1,0.1-0.2s0.1-0.2,0.1-0.3
	s0-0.2,0-0.3s-0.1-0.2-0.1-0.2c-0.1-0.1-0.1-0.1-0.2-0.1s-0.2,0-0.3,0c-0.1,0-0.2,0-0.3,0.1c-0.1,0-0.2,0.1-0.2,0.1L0.6,25.1
	c-0.1,0.1-0.2,0.3-0.2,0.5S0.4,25.9,0.6,26.1z"/>
<path class="st0" d="M72.4,55.2c-0.2-0.1-0.4-0.1-0.6-0.1s-0.4,0.1-0.5,0.3L55.5,71.3c-0.1,0.1-0.2,0.3-0.3,0.5c0,0.2,0,0.4,0.1,0.6
	s0.2,0.3,0.4,0.5c0.2,0.1,0.4,0.2,0.6,0.2H72c0.3,0,0.5-0.1,0.7-0.3c0.2-0.2,0.3-0.4,0.3-0.7V56.2c0-0.2-0.1-0.4-0.2-0.6
	C72.7,55.4,72.6,55.3,72.4,55.2z"/>
<path class="st0" d="M72.4,46.9c-0.1-0.1-0.1-0.1-0.2-0.1s-0.2,0-0.2,0h-0.2c-0.1,0-0.2,0.1-0.2,0.1L46.9,71.5
	c-0.1,0.1-0.2,0.3-0.2,0.5s0.1,0.3,0.2,0.5c0.1,0.1,0.3,0.2,0.5,0.2s0.3-0.1,0.5-0.2l24.6-24.6c0.1-0.1,0.1-0.1,0.1-0.2
	c0-0.1,0.1-0.2,0.1-0.2c0-0.1,0-0.2-0.1-0.3C72.6,47.1,72.5,47,72.4,46.9z"/>
<path class="st0" d="M1.7,55.5c-0.1-0.1-0.2-0.2-0.3-0.2c-0.1-0.1-0.3-0.1-0.4-0.1s-0.3,0-0.4,0.1c-0.2,0.1-0.3,0.2-0.5,0.4
	C0.1,55.8,0,56,0,56.2V72c0,0.1,0,0.3,0.1,0.4s0.1,0.2,0.2,0.3c0.1,0.1,0.2,0.2,0.3,0.2C0.7,73,0.9,73,1,73h15.8
	c0.2,0,0.4-0.1,0.6-0.2s0.3-0.3,0.4-0.5s0.1-0.4,0.1-0.6s-0.1-0.4-0.3-0.5L1.7,55.5z"/>
<path class="st0" d="M1.5,46.9c-0.1-0.1-0.3-0.2-0.5-0.2s-0.3,0.1-0.5,0.2c-0.1,0.1-0.2,0.3-0.2,0.5s0.1,0.3,0.2,0.5l24.6,24.6
	c0.1,0.1,0.3,0.2,0.5,0.2s0.3-0.1,0.5-0.2c0.1-0.1,0.1-0.1,0.1-0.2s0-0.2,0-0.3c0-0.1,0-0.2,0-0.2c0-0.1-0.1-0.2-0.1-0.2L1.5,46.9z"
	/>
<path class="st0" d="M71.3,17.5c0.2,0.2,0.4,0.3,0.7,0.3c0.1,0,0.3,0,0.4-0.1c0.2-0.1,0.3-0.2,0.5-0.4c0.1-0.2,0.2-0.4,0.2-0.6V1
	c0-0.3-0.1-0.5-0.3-0.7C72.5,0.1,72.3,0,72,0H56.2c-0.2,0-0.4,0.1-0.6,0.2c-0.2,0.1-0.3,0.3-0.4,0.5c-0.1,0.2-0.1,0.4-0.1,0.6
	s0.1,0.4,0.3,0.5L71.3,17.5z"/>
<path class="st0" d="M71.5,26.1c0.1,0.1,0.3,0.2,0.5,0.2c0.1,0,0.3,0,0.4-0.1s0.2-0.2,0.2-0.3c0-0.1,0.1-0.3,0-0.4
	c0-0.1-0.1-0.2-0.2-0.3L47.9,0.6c-0.1-0.1-0.3-0.2-0.5-0.2s-0.3,0.1-0.5,0.2c-0.1,0.1-0.2,0.3-0.2,0.5s0.1,0.3,0.2,0.5L71.5,26.1z"
	/>
<path class="st0" d="M35.8,29.1c0.1,0.1,0.2,0.2,0.3,0.2s0.3,0.1,0.4,0.1s0.3,0,0.4-0.1c0.1-0.1,0.2-0.1,0.3-0.2
	c1.1-1.3,2.1-2.7,3-4.2c1.9-3.1,2.9-6.6,3-10.2c-0.1-3.6-1.1-7.1-3-10.2c-0.8-1.5-1.8-2.9-3-4.2c-0.1-0.1-0.2-0.2-0.3-0.2
	C36.8,0,36.6,0,36.5,0s-0.3,0-0.4,0.1s-0.2,0.1-0.3,0.2c-1.1,1.3-2.1,2.7-3,4.2c-1.9,3.1-2.9,6.6-3,10.2c0.1,3.6,1.1,7.1,3,10.2
	C33.6,26.4,34.6,27.8,35.8,29.1z"/>
<path class="st0" d="M37.2,43.9c-0.1-0.1-0.2-0.2-0.3-0.2s-0.3-0.1-0.4-0.1c-0.1,0-0.3,0-0.4,0.1c-0.1,0.1-0.2,0.1-0.3,0.2
	c-1.1,1.3-2.1,2.7-3,4.2c-1.9,3.1-2.9,6.6-3,10.2c0.1,3.6,1.1,7.1,3,10.2c0.8,1.5,1.8,2.9,3,4.2c0.1,0.1,0.2,0.2,0.3,0.2
	c0.1,0.1,0.3,0.1,0.4,0.1c0.1,0,0.3,0,0.4-0.1c0.1-0.1,0.2-0.1,0.3-0.2c1.1-1.3,2.1-2.7,3-4.2c1.9-3.1,2.9-6.6,3-10.2
	c-0.1-3.6-1.1-7.1-3-10.2C39.4,46.6,38.4,45.2,37.2,43.9z"/>
<path class="st0" d="M4.5,32.8c-1.5,0.8-2.9,1.8-4.2,3c-0.1,0.1-0.2,0.2-0.2,0.3C0,36.2,0,36.4,0,36.5s0,0.3,0.1,0.4
	c0.1,0.1,0.1,0.2,0.2,0.3c1.3,1.1,2.7,2.1,4.2,3c3.1,1.9,6.6,2.9,10.2,3c3.6-0.1,7.1-1.1,10.2-3c1.5-0.9,2.9-1.9,4.2-3
	c0.1-0.1,0.2-0.2,0.2-0.3c0.1-0.1,0.1-0.3,0.1-0.4c0-0.1,0-0.3-0.1-0.4c-0.1-0.1-0.1-0.2-0.2-0.3c-1.3-1.1-2.7-2.1-4.2-3
	c-3.1-1.9-6.6-2.9-10.2-3C11.1,29.9,7.6,30.9,4.5,32.8z"/>
<path class="st0" d="M43.9,35.8c-0.1,0.1-0.2,0.2-0.2,0.3c-0.1,0.1-0.1,0.3-0.1,0.4c0,0.1,0,0.3,0.1,0.4c0.1,0.1,0.1,0.2,0.2,0.3
	c1.3,1.1,2.7,2.1,4.2,3c3.1,1.9,6.6,2.9,10.2,3c3.6-0.1,7.1-1.1,10.2-3c1.5-0.8,2.9-1.8,4.2-3c0.1-0.1,0.2-0.2,0.2-0.3
	c0.1-0.1,0.1-0.3,0.1-0.4c0-0.1,0-0.3-0.1-0.4c-0.1-0.1-0.1-0.2-0.2-0.3c-1.3-1.1-2.7-2.1-4.2-3c-3.1-1.8-6.6-2.9-10.2-3
	c-3.6,0.1-7.1,1.1-10.2,3C46.6,33.6,45.2,34.6,43.9,35.8z"/>
<path class="st0" d="M38.6,36.5c0-0.4-0.1-0.8-0.4-1.2c-0.2-0.4-0.6-0.6-1-0.8s-0.8-0.2-1.2-0.1c-0.4,0.1-0.8,0.3-1.1,0.6
	s-0.5,0.7-0.6,1.1c-0.1,0.4,0,0.8,0.1,1.2c0.2,0.4,0.4,0.7,0.8,1c0.4,0.2,0.8,0.4,1.2,0.4c0.3,0,0.6-0.1,0.8-0.2s0.5-0.3,0.7-0.5
	s0.4-0.4,0.5-0.7C38.6,37.1,38.6,36.8,38.6,36.5z"/>
<path class="st1" d="M42,42.7c0.8,1.1,7.9,11,8.7,11.8c0.5,0.5,1.2,0.8,1.9,0.8s1.4-0.3,1.9-0.8s0.8-1.2,0.8-1.9s-0.3-1.4-0.8-1.9
	c-0.9-0.9-10.7-7.9-11.8-8.7c-0.1-0.1-0.2-0.1-0.3-0.1S42.2,42,42.1,42C42,42.1,42,42.2,42,42.3C41.9,42.5,41.9,42.6,42,42.7
	L42,42.7z"/>
<path class="st1" d="M30.3,42c-1.1,0.8-11,7.9-11.8,8.7c-0.5,0.5-0.8,1.2-0.8,1.9s0.3,1.4,0.8,1.9s1.2,0.8,1.9,0.8
	c0.7,0,1.4-0.3,1.9-0.8c-0.1,0.1,7.2-9.7,8.7-11.8c0.1-0.1,0.1-0.2,0.1-0.3S31,42.2,31,42.1C30.9,42,30.8,42,30.7,42
	C30.5,41.9,30.4,41.9,30.3,42L30.3,42z"/>
<path class="st1" d="M52.6,17.7c-0.4,0-0.7,0.1-1,0.2s-0.6,0.3-0.9,0.6c-0.9,0.9-7.9,10.7-8.7,11.8c-0.1,0.1-0.1,0.2-0.1,0.3
	c0,0.1,0.1,0.2,0.1,0.3c0,0,0.1,0.1,0.2,0.1c0.1,0,0.1,0,0.2,0c0.1,0,0.2,0,0.3-0.1c1.1-0.8,10.1-7,10.9-7.8c1-1,2-3.7,0.9-4.7
	c-0.2-0.3-0.5-0.4-0.9-0.6C53.3,17.8,53,17.7,52.6,17.7z"/>
<path class="st1" d="M31,30.3c-1.1-1.5-7.5-10.5-8.7-11.8c-0.2-0.2-0.5-0.4-0.9-0.6c-0.3-0.1-0.7-0.2-1-0.2c-0.4,0-0.7,0.1-1,0.2
	s-0.6,0.3-0.9,0.6c-0.2,0.2-0.4,0.5-0.6,0.9c-0.1,0.3-0.2,0.7-0.2,1c0,0.4,0.1,0.7,0.2,1s0.3,0.6,0.6,0.9c0.9,0.9,10.7,7.9,11.8,8.7
	c0.1,0.1,0.2,0.1,0.3,0.1l0,0c0.1,0,0.1,0,0.2,0S30.9,31,31,31s0.1-0.1,0.1-0.2s0-0.1,0-0.2C31.1,30.5,31.1,30.4,31,30.3z"/>
</svg>
