<?xml version="1.0" encoding="utf-8"?>
<!-- Generator: Adobe Illustrator 22.1.0, SVG Export Plug-In . SVG Version: 6.00 Build 0)  -->
<svg version="1.1" id="Слой_1" xmlns="http://www.w3.org/2000/svg" xmlns:xlink="http://www.w3.org/1999/xlink" x="0px" y="0px"
	 viewBox="0 0 365 437" style="enable-background:new 0 0 365 437;" xml:space="preserve">
<style type="text/css">
	.st0{fill:#FDD84A;}
</style>
<path class="st0" d="M253.1,38.9c1.7,0,3.5,0.1,5.2,0.4c-0.7-4.9-0.4-9.8,0.9-14.5s3.7-9.1,6.9-12.8c3.2-3.7,7.2-6.7,11.6-8.8
	C282.2,1.1,287.1,0,292,0h-31.3c0,1-0.2,2.1-0.6,3s-1,1.8-1.7,2.6c-0.7,0.7-1.6,1.3-2.6,1.7c-1,0.4-2,0.6-3,0.6
	c-4.4,0-26.5-3.5-26.5-7.9H219v73c0-9,3.6-17.7,10-24.1S244.1,38.9,253.1,38.9z M247.8,25.3c0.3,0.3,0.6,0.8,0.7,1.3
	c0.1,0.5,0,1-0.2,1.4c-0.2,0.5-0.5,0.8-0.9,1.1c-0.4,0.3-0.9,0.4-1.4,0.4s-1-0.1-1.4-0.4s-0.7-0.7-0.9-1.1c-0.2-0.5-0.2-1-0.2-1.4
	c0.1-0.5,0.3-0.9,0.7-1.3c0.5-0.5,1.1-0.7,1.8-0.7C246.8,24.6,247.4,24.9,247.8,25.3z M219,0h3.5c0,0.5-0.1,0.9-0.3,1.3
	s-0.4,0.8-0.8,1.1c-0.3,0.3-0.7,0.6-1.1,0.8c-0.4,0.2-0.9,0.3-1.3,0.3L219,0L219,0z M219,41.6V7.2c4.4,0,7.9,22.1,7.9,26.5
	c0,1-0.2,2.1-0.6,3c-0.4,1-1,1.8-1.7,2.6c-0.7,0.7-1.6,1.3-2.6,1.7C221.1,41.4,220,41.6,219,41.6z M227.5,8.5
	c1.6-1.6,13.3,6.3,15.3,8.2c0.5,0.5,0.8,1,1.1,1.6s0.4,1.3,0.4,1.9c0,0.7-0.1,1.3-0.4,1.9c-0.3,0.6-0.6,1.2-1.1,1.6
	c-0.5,0.5-1,0.8-1.6,1.1c-0.6,0.2-1.3,0.4-1.9,0.4c-0.7,0-1.3-0.1-1.9-0.4c-0.6-0.3-1.2-0.6-1.6-1.1
	C233.8,21.9,225.9,10.1,227.5,8.5z"/>
<path class="st0" d="M253,101.1c2.8,0,5.6-0.4,8.3-1.3l1.2-0.4c0.1-0.4,0.3-0.8,0.6-1.1c0.2-0.2,0.5-0.4,0.8-0.5s0.6-0.2,1-0.2
	c0.3,0,0.6,0.1,0.9,0.2s0.6,0.3,0.8,0.5c0.2,0.2,0.4,0.5,0.5,0.8s0.2,0.6,0.2,1c0,0.3-0.1,0.7-0.2,1s-0.3,0.6-0.5,0.8
	c-0.3,0.3-0.7,0.5-1.1,0.6l-0.4,1.2c-1.3,4.2-1.6,8.6-0.9,13c0.7,4.3,2.5,8.4,5.1,12c2.6,3.5,6,6.4,9.9,8.4s8.3,3,12.7,3
	c4.4,0,8.7-1,12.7-3c3.9-2,7.3-4.9,9.9-8.4s4.3-7.6,5.1-12c0.7-4.3,0.4-8.8-0.9-13l-0.4-1.2c-0.4-0.1-0.8-0.3-1.1-0.6
	c-0.2-0.2-0.4-0.5-0.5-0.8s-0.2-0.6-0.2-1s0.1-0.7,0.2-1s0.3-0.6,0.5-0.8c0.2-0.2,0.5-0.4,0.8-0.5s0.6-0.2,1-0.2
	c0.3,0,0.7,0.1,1,0.2s0.6,0.3,0.8,0.5c0.3,0.3,0.5,0.7,0.6,1.1l1.2,0.4c4.2,1.3,8.6,1.6,13,0.9c4.3-0.7,8.4-2.5,12-5.1
	c3.5-2.6,6.4-6,8.4-9.9s3-8.3,3-12.7c0-4.4-1-8.7-3-12.7c-2-3.9-4.8-7.3-8.4-9.9c-3.5-2.6-7.6-4.3-12-5.1c-4.3-0.7-8.8-0.4-13,0.9
	l-1.2,0.4c-0.1,0.4-0.3,0.8-0.6,1.1c-0.2,0.2-0.5,0.4-0.8,0.5s-0.6,0.2-1,0.2c-0.3,0-0.6-0.1-1-0.2c-0.3-0.1-0.6-0.3-0.8-0.5
	c-0.2-0.2-0.4-0.5-0.5-0.8s-0.2-0.6-0.2-1c0-0.3,0.1-0.7,0.2-1s0.3-0.6,0.5-0.8c0.3-0.3,0.7-0.5,1.1-0.6l0.4-1.2
	c1.3-4.2,1.6-8.6,0.9-13c-0.7-4.3-2.5-8.4-5.1-12c-2.6-3.5-6-6.4-9.9-8.4s-8.3-3-12.7-3c-4.4,0-8.7,1-12.7,3c-3.9,2-7.3,4.9-9.9,8.4
	s-4.3,7.6-5.1,12c-0.7,4.3-0.4,8.8,0.9,13l0.4,1.2c0.4,0.1,0.8,0.3,1.1,0.6c0.5,0.5,0.7,1.1,0.7,1.8s-0.3,1.3-0.7,1.8
	c-0.5,0.5-1.1,0.7-1.8,0.7c-0.7,0-1.3-0.3-1.8-0.7c-0.3-0.3-0.5-0.7-0.6-1.1l-1.2-0.4c-3.9-1.2-7.9-1.6-11.9-1
	c-4,0.5-7.8,1.9-11.3,4c-3.4,2.1-6.3,5-8.6,8.4c-2.2,3.4-3.7,7.2-4.3,11.2s-0.3,8.1,0.8,12s3.1,7.5,5.7,10.5
	c2.6,3.1,5.9,5.5,9.6,7.2C245,100.2,249,101.1,253,101.1L253,101.1z M275.2,96.8c-0.9,0.9-2.2,1.5-3.5,1.4c-1.3,0-2.6-0.5-3.5-1.5
	c-0.9-0.9-1.5-2.2-1.5-3.5s0.5-2.6,1.4-3.5c1.9-1.9,13.7-9.8,15.3-8.3C285.1,83.1,277.2,94.9,275.2,96.8z M292,114.6
	c-2.1,0-4.1-0.8-5.6-2.3s-2.3-3.5-2.3-5.6c0-4.4,3.5-26.5,7.9-26.5s7.9,22.1,7.9,26.5c0,1-0.2,2.1-0.6,3c-0.4,1-1,1.8-1.7,2.6
	c-0.7,0.7-1.6,1.3-2.6,1.7S293,114.6,292,114.6L292,114.6z M288.5,73c0-0.7,0.2-1.4,0.6-2s0.9-1,1.6-1.3s1.3-0.3,2-0.2
	c0.7,0.1,1.3,0.5,1.8,1s0.8,1.1,1,1.8c0.1,0.7,0.1,1.4-0.2,2c-0.3,0.6-0.7,1.2-1.3,1.6c-0.6,0.4-1.3,0.6-1.9,0.6
	c-0.5,0-0.9-0.1-1.3-0.3c-0.4-0.2-0.8-0.4-1.1-0.8c-0.3-0.3-0.6-0.7-0.8-1.1C288.6,73.9,288.5,73.5,288.5,73z M315.8,96.8
	c-0.9,0.9-2.2,1.5-3.5,1.5s-2.6-0.5-3.5-1.5c-1.9-1.9-9.8-13.7-8.2-15.3c1.6-1.6,13.3,6.3,15.3,8.3c0.5,0.5,0.8,1,1.1,1.6
	c0.3,0.6,0.4,1.2,0.4,1.9c0,0.7-0.1,1.3-0.4,1.9C316.6,95.8,316.3,96.3,315.8,96.8z M325.7,65.1c2.1,0,4.1,0.8,5.6,2.3
	s2.3,3.5,2.3,5.6s-0.8,4.1-2.3,5.6s-3.5,2.3-5.6,2.3c-4.4,0-26.5-3.5-26.5-7.9S321.4,65.1,325.7,65.1L325.7,65.1z M308.8,49.2
	c0.9-0.9,2.2-1.5,3.5-1.5s2.6,0.5,3.5,1.5c0.9,0.9,1.4,2.2,1.4,3.5s-0.5,2.6-1.4,3.5c-1.9,1.9-13.7,9.8-15.3,8.2
	C298.9,62.9,306.8,51.1,308.8,49.2L308.8,49.2z M292,31.4c2.1,0,4.1,0.8,5.6,2.3s2.3,3.5,2.3,5.6c0,4.4-3.5,26.5-7.9,26.5
	s-7.9-22.1-7.9-26.5c0-2.1,0.8-4.1,2.3-5.6C287.9,32.2,289.9,31.4,292,31.4z M268.2,49.2c0.9-0.9,2.2-1.5,3.5-1.5s2.6,0.5,3.5,1.5
	c1.9,1.9,9.8,13.7,8.3,15.3c-1.6,1.6-13.3-6.3-15.3-8.2c-0.9-0.9-1.4-2.2-1.4-3.5C266.8,51.4,267.3,50.1,268.2,49.2z M258.3,65.1
	c4.4,0,26.5,3.5,26.5,7.9s-22.1,7.9-26.5,7.9c-2.1,0-4.1-0.8-5.6-2.3s-2.3-3.5-2.3-5.6s0.8-4.1,2.3-5.6
	C254.2,65.9,256.2,65.1,258.3,65.1z"/>
<path class="st0" d="M365,3.5c-0.9,0-1.8-0.4-2.5-1s-1-1.6-1-2.5h-3.7c0,4.4-22.1,7.9-26.5,7.9c-1,0-2.1-0.2-3-0.6
	c-1-0.4-1.8-1-2.6-1.7C324.9,4.9,324.4,4,324,3s-0.6-2-0.6-3H292c4.9,0,9.8,1.1,14.2,3.1c4.5,2.1,8.4,5.1,11.6,8.8s5.5,8.1,6.9,12.8
	c1.3,4.7,1.7,9.7,0.9,14.5c1.7-0.3,3.5-0.4,5.2-0.4c4.7,0,9.3,1,13.6,2.9c4.3,1.9,8.2,4.6,11.4,8.1c3.2,3.4,5.6,7.5,7.2,11.9
	c1.5,4.4,2.2,9.1,1.8,13.8s-1.7,9.2-3.9,13.4c-2.2,4.1-5.2,7.8-8.9,10.7c-3.7,2.9-7.9,5-12.5,6.3s-9.3,1.5-13.9,0.7
	c0.8,4.9,0.4,9.8-0.9,14.5c-1.4,4.7-3.7,9.1-6.9,12.8c-3.2,3.7-7.2,6.7-11.6,8.8c-4.5,2.1-9.3,3.1-14.2,3.1c-4.9,0-9.8-1.1-14.2-3.1
	c-4.5-2.1-8.4-5-11.6-8.8c-3.2-3.7-5.6-8.1-6.9-12.8c-1.4-4.7-1.7-9.7-0.9-14.5c-4.9,0.7-9.8,0.4-14.6-0.9
	c-4.7-1.4-9.1-3.7-12.8-6.9c-3.7-3.2-6.7-7.2-8.8-11.6c-2.1-4.5-3.1-9.3-3.1-14.2v73h146V0l0,0v3.5H365z M244.3,117.1
	c0.4-0.3,0.8-0.6,1.3-0.7s1,0,1.4,0.1c0.5,0.2,0.8,0.5,1.1,0.9s0.4,0.9,0.4,1.4s-0.2,1-0.4,1.4c-0.3,0.4-0.7,0.7-1.1,0.9
	c-0.5,0.2-1,0.2-1.4,0.1c-0.5-0.1-0.9-0.3-1.3-0.7c-0.5-0.5-0.7-1.1-0.7-1.8S243.8,117.6,244.3,117.1z M235.8,122.2
	c0.5-0.5,1-0.8,1.6-1.1c0.6-0.3,1.3-0.4,1.9-0.4c0.6,0,1.3,0.1,1.9,0.4c0.6,0.2,1.2,0.6,1.6,1.1c0.5,0.5,0.8,1,1.1,1.6
	s0.4,1.3,0.4,1.9c0,0.7-0.1,1.3-0.4,1.9c-0.3,0.6-0.6,1.1-1.1,1.6c-1.9,1.9-13.7,9.8-15.3,8.2C225.9,135.9,233.8,124.1,235.8,122.2z
	 M219,104.4c1,0,2.1,0.2,3,0.6c1,0.4,1.8,1,2.6,1.7c0.7,0.7,1.3,1.6,1.7,2.6s0.6,2,0.6,3c0,4.4-3.5,26.5-7.9,26.5L219,104.4
	L219,104.4z M219,146v-3.5c0.5,0,0.9,0.1,1.3,0.3c0.4,0.2,0.8,0.4,1.1,0.8c0.3,0.3,0.6,0.7,0.8,1.1c0.2,0.4,0.3,0.9,0.3,1.3L219,146
	L219,146z M226.3,146c0-4.4,22.1-7.9,26.5-7.9c2.1,0,4.1,0.8,5.6,2.3s2.3,3.5,2.3,5.6L226.3,146L226.3,146z M339.7,28.9
	c-0.4,0.4-0.8,0.6-1.3,0.7s-1,0-1.4-0.1c-0.5-0.2-0.8-0.5-1.1-0.9c-0.3-0.4-0.4-0.9-0.4-1.4s0.2-1,0.4-1.4c0.3-0.4,0.7-0.7,1.1-0.9
	c0.5-0.2,1-0.2,1.4-0.1c0.5,0.1,0.9,0.3,1.3,0.7c0.5,0.5,0.7,1.1,0.7,1.8C340.4,27.8,340.2,28.4,339.7,28.9z M348.2,23.8
	c-0.5,0.5-1,0.8-1.6,1.1c-0.6,0.3-1.3,0.4-1.9,0.4c-0.7,0-1.3-0.1-1.9-0.4c-0.6-0.2-1.1-0.6-1.6-1.1s-0.8-1-1.1-1.6
	c-0.3-0.6-0.4-1.2-0.4-1.9c0-0.7,0.1-1.3,0.4-1.9s0.6-1.1,1.1-1.6c1.9-1.9,13.7-9.8,15.3-8.2C358.1,10.1,350.2,21.9,348.2,23.8z
	 M365,104.4v34.4c-4.4,0-7.9-22.1-7.9-26.5c0-2.1,0.8-4.1,2.3-5.6C360.9,105.2,362.9,104.4,365,104.4L365,104.4z M348.2,122.2
	c1.9,1.9,9.8,13.7,8.2,15.3c-1.6,1.6-13.3-6.3-15.3-8.2c-0.9-0.9-1.4-2.2-1.4-3.5s0.5-2.6,1.4-3.5s2.2-1.5,3.5-1.5
	C346,120.8,347.3,121.3,348.2,122.2z M336.1,117.1c0.3-0.3,0.8-0.6,1.3-0.7s1,0,1.4,0.1c0.5,0.2,0.8,0.5,1.1,0.9
	c0.3,0.4,0.4,0.9,0.4,1.4s-0.1,1-0.4,1.4s-0.7,0.7-1.1,0.9s-1,0.2-1.4,0.1c-0.5-0.1-0.9-0.3-1.3-0.7c-0.5-0.5-0.7-1.1-0.7-1.8
	S335.7,117.6,336.1,117.1L336.1,117.1z M323.4,146c0-2.1,0.8-4.1,2.3-5.6s3.5-2.3,5.6-2.3c4.4,0,26.5,3.5,26.5,7.9L323.4,146
	L323.4,146z M365,146h-3.5c0-0.9,0.4-1.8,1-2.5s1.6-1,2.5-1V146z M365,41.6c-1,0-2.1-0.2-3-0.6c-1-0.4-1.8-1-2.6-1.7
	c-0.7-0.7-1.3-1.6-1.7-2.6c-0.4-1-0.6-2-0.6-3c0-4.4,3.5-26.5,7.9-26.5L365,41.6L365,41.6z"/>
</svg>
