<?xml version="1.0" encoding="utf-8"?>
<!-- Generator: Adobe Illustrator 22.1.0, SVG Export Plug-In . SVG Version: 6.00 Build 0)  -->
<svg version="1.1" id="Слой_1" xmlns="http://www.w3.org/2000/svg" xmlns:xlink="http://www.w3.org/1999/xlink" x="0px" y="0px"
	 viewBox="0 0 365 437" style="enable-background:new 0 0 365 437;" xml:space="preserve">
<style type="text/css">
	.st0{fill:#E7533B;}
</style>
<path class="st0" d="M146.6,164.8c0.2,0.1,0.4,0.1,0.6,0.1c0.2,0,0.4-0.1,0.5-0.3l15.8-15.8c0.1-0.1,0.2-0.3,0.3-0.5
	c0-0.2,0-0.4,0-0.6c-0.1-0.2-0.2-0.3-0.4-0.5c-0.2-0.1-0.4-0.2-0.6-0.2H147c-0.3,0-0.5,0.1-0.7,0.3s-0.3,0.4-0.3,0.7v15.8
	c0,0.2,0.1,0.4,0.2,0.6C146.3,164.6,146.4,164.7,146.6,164.8z"/>
<path class="st0" d="M146.6,173.1c0.1,0.1,0.3,0.2,0.5,0.2s0.3-0.1,0.5-0.2l24.6-24.6c0.1-0.1,0.1-0.1,0.1-0.2
	c0-0.1,0.1-0.2,0.1-0.3s0-0.2-0.1-0.3c0-0.1-0.1-0.2-0.1-0.2c-0.1-0.1-0.1-0.1-0.2-0.1c-0.1,0-0.2,0-0.3,0s-0.2,0-0.3,0.1
	c-0.1,0-0.2,0.1-0.2,0.1l-24.6,24.6c-0.1,0.1-0.2,0.3-0.2,0.5S146.4,172.9,146.6,173.1z"/>
<path class="st0" d="M218.4,202.2c-0.2-0.1-0.4-0.1-0.6-0.1c-0.2,0-0.4,0.1-0.5,0.3l-15.8,15.8c-0.1,0.1-0.2,0.3-0.3,0.5
	c0,0.2,0,0.4,0.1,0.6c0.1,0.2,0.2,0.3,0.4,0.5c0.2,0.1,0.4,0.2,0.6,0.2H218c0.3,0,0.5-0.1,0.7-0.3s0.3-0.4,0.3-0.7v-15.8
	c0-0.2-0.1-0.4-0.2-0.6C218.7,202.4,218.6,202.3,218.4,202.2z"/>
<path class="st0" d="M218.4,193.9c-0.1-0.1-0.1-0.1-0.2-0.1c-0.1,0-0.2,0-0.2,0c-0.1,0-0.2,0-0.3,0s-0.2,0.1-0.2,0.1l-24.6,24.6
	c-0.1,0.1-0.2,0.3-0.2,0.5s0.1,0.3,0.2,0.5c0.1,0.1,0.3,0.2,0.5,0.2s0.3-0.1,0.5-0.2l24.6-24.6c0.1-0.1,0.1-0.1,0.1-0.2
	c0-0.1,0.1-0.2,0.1-0.2c0-0.1,0-0.2-0.1-0.3C218.6,194.1,218.5,194,218.4,193.9z"/>
<path class="st0" d="M147.7,202.5c-0.1-0.1-0.2-0.2-0.3-0.2c-0.1-0.1-0.3-0.1-0.4-0.1c-0.1,0-0.3,0-0.4,0.1
	c-0.2,0.1-0.3,0.2-0.4,0.4c-0.1,0.2-0.2,0.4-0.2,0.6V219c0,0.1,0,0.3,0.1,0.4c0.1,0.1,0.1,0.2,0.2,0.3c0.1,0.1,0.2,0.2,0.3,0.2
	c0.1,0.1,0.3,0.1,0.4,0.1h15.8c0.2,0,0.4-0.1,0.6-0.2c0.2-0.1,0.3-0.3,0.4-0.5c0.1-0.2,0.1-0.4,0-0.6c0-0.2-0.1-0.4-0.3-0.5
	L147.7,202.5z"/>
<path class="st0" d="M147.5,193.9c-0.1-0.1-0.3-0.2-0.5-0.2s-0.3,0.1-0.5,0.2c-0.1,0.1-0.2,0.3-0.2,0.5s0.1,0.3,0.2,0.5l24.6,24.6
	c0.1,0.1,0.3,0.2,0.5,0.2s0.3-0.1,0.5-0.2c0.1-0.1,0.1-0.1,0.1-0.2c0-0.1,0.1-0.2,0.1-0.3s0-0.2-0.1-0.2c0-0.1-0.1-0.2-0.1-0.2
	L147.5,193.9z"/>
<path class="st0" d="M217.3,164.5c0.2,0.2,0.4,0.3,0.7,0.3c0.1,0,0.3,0,0.4-0.1c0.2-0.1,0.3-0.2,0.5-0.4c0.1-0.2,0.2-0.4,0.2-0.6
	V148c0-0.3-0.1-0.5-0.3-0.7s-0.4-0.3-0.7-0.3h-15.8c-0.2,0-0.4,0.1-0.6,0.2c-0.2,0.1-0.3,0.3-0.4,0.5c-0.1,0.2-0.1,0.4-0.1,0.6
	c0,0.2,0.1,0.4,0.3,0.5L217.3,164.5z"/>
<path class="st0" d="M217.5,173.1c0.1,0.1,0.3,0.2,0.5,0.2c0.1,0,0.3,0,0.4-0.1c0.1-0.1,0.2-0.2,0.2-0.3c0.1-0.1,0.1-0.3,0-0.4
	c0-0.1-0.1-0.2-0.2-0.3l-24.6-24.6c-0.1-0.1-0.3-0.2-0.5-0.2s-0.3,0.1-0.5,0.2c-0.1,0.1-0.2,0.3-0.2,0.5s0.1,0.3,0.2,0.5
	L217.5,173.1z"/>
<path class="st0" d="M181.8,176.1c0.1,0.1,0.2,0.2,0.3,0.2c0.1,0.1,0.3,0.1,0.4,0.1s0.3,0,0.4-0.1s0.2-0.1,0.3-0.2
	c1.1-1.3,2.1-2.7,3-4.2c1.8-3.1,2.9-6.6,3-10.2c-0.1-3.6-1.1-7.1-3-10.2c-0.8-1.5-1.8-2.9-3-4.2c-0.1-0.1-0.2-0.2-0.3-0.2
	s-0.3-0.1-0.4-0.1s-0.3,0-0.4,0.1c-0.1,0.1-0.2,0.1-0.3,0.2c-1.1,1.3-2.1,2.7-3,4.2c-1.8,3.1-2.9,6.6-3,10.2c0.1,3.6,1.1,7.1,3,10.2
	C179.6,173.4,180.6,174.8,181.8,176.1z"/>
<path class="st0" d="M183.3,190.9c-0.1-0.1-0.2-0.2-0.3-0.2c-0.1-0.1-0.3-0.1-0.4-0.1s-0.3,0-0.4,0.1c-0.1,0.1-0.2,0.1-0.3,0.2
	c-1.1,1.3-2.1,2.7-3,4.2c-1.8,3.1-2.9,6.6-3,10.2c0.1,3.6,1.1,7.1,3,10.2c0.8,1.5,1.8,2.9,3,4.2c0.1,0.1,0.2,0.2,0.3,0.2
	c0.1,0.1,0.3,0.1,0.4,0.1s0.3,0,0.4-0.1c0.1-0.1,0.2-0.1,0.3-0.2c1.1-1.3,2.1-2.7,3-4.2c1.8-3.1,2.9-6.6,3-10.2
	c-0.1-3.6-1.1-7.1-3-10.2C185.4,193.6,184.4,192.2,183.3,190.9z"/>
<path class="st0" d="M150.5,179.8c-1.5,0.8-2.9,1.8-4.2,3c-0.1,0.1-0.2,0.2-0.2,0.3s-0.1,0.3-0.1,0.4c0,0.1,0,0.3,0.1,0.4
	c0.1,0.1,0.1,0.2,0.2,0.3c1.3,1.1,2.7,2.1,4.2,3c3.1,1.9,6.6,2.9,10.2,3c3.6-0.1,7.1-1.1,10.2-3c1.5-0.9,2.9-1.9,4.2-3
	c0.1-0.1,0.2-0.2,0.2-0.3c0.1-0.1,0.1-0.3,0.1-0.4c0-0.1,0-0.3-0.1-0.4c-0.1-0.1-0.1-0.2-0.2-0.3c-1.3-1.1-2.7-2.1-4.2-3
	c-3.1-1.9-6.6-2.9-10.2-3C157.1,176.9,153.6,177.9,150.5,179.8z"/>
<path class="st0" d="M189.9,182.8c-0.1,0.1-0.2,0.2-0.2,0.3c-0.1,0.1-0.1,0.3-0.1,0.4c0,0.1,0,0.3,0.1,0.4c0.1,0.1,0.1,0.2,0.2,0.3
	c1.3,1.1,2.7,2.1,4.2,3c3.1,1.9,6.6,2.9,10.2,3c3.6-0.1,7.1-1.1,10.2-3c1.5-0.8,2.9-1.8,4.2-3c0.1-0.1,0.2-0.2,0.2-0.3
	c0.1-0.1,0.1-0.3,0.1-0.4c0-0.1,0-0.3-0.1-0.4c-0.1-0.1-0.1-0.2-0.2-0.3c-1.3-1.1-2.7-2.1-4.2-3c-3.1-1.8-6.6-2.9-10.2-3
	c-3.6,0.1-7.1,1.1-10.2,3C192.6,180.6,191.2,181.6,189.9,182.8z"/>
<path class="st0" d="M184.6,183.5c0-0.4-0.1-0.8-0.4-1.2c-0.2-0.4-0.6-0.6-1-0.8s-0.8-0.2-1.2-0.1c-0.4,0.1-0.8,0.3-1.1,0.6
	s-0.5,0.7-0.6,1.1c-0.1,0.4,0,0.8,0.1,1.2c0.2,0.4,0.4,0.7,0.8,1c0.3,0.2,0.8,0.4,1.2,0.4c0.3,0,0.6-0.1,0.8-0.2
	c0.3-0.1,0.5-0.3,0.7-0.5s0.4-0.4,0.5-0.7C184.6,184.1,184.6,183.8,184.6,183.5z"/>
<path class="st0" d="M188,189.7c0.8,1.1,7.9,11,8.7,11.8c0.5,0.5,1.2,0.8,1.9,0.8s1.4-0.3,1.9-0.8s0.8-1.2,0.8-1.9s-0.3-1.4-0.8-1.9
	c-0.8-0.9-10.7-7.9-11.8-8.7c-0.1-0.1-0.2-0.1-0.3-0.1s-0.2,0.1-0.3,0.1c-0.1,0.1-0.1,0.2-0.1,0.3S187.9,189.6,188,189.7L188,189.7z
	"/>
<path class="st0" d="M176.3,189c-1.1,0.8-11,7.9-11.8,8.7c-0.5,0.5-0.8,1.2-0.8,1.9s0.3,1.4,0.8,1.9s1.2,0.8,1.9,0.8
	s1.4-0.3,1.9-0.8c-0.1,0.1,7.2-9.7,8.7-11.8c0.1-0.1,0.1-0.2,0.1-0.3s-0.1-0.2-0.1-0.3c-0.1-0.1-0.2-0.1-0.3-0.1
	C176.5,188.9,176.4,188.9,176.3,189L176.3,189z"/>
<path class="st0" d="M198.6,164.7c-0.3,0-0.7,0.1-1,0.2c-0.3,0.1-0.6,0.3-0.9,0.6c-0.8,0.9-7.9,10.7-8.7,11.8
	c-0.1,0.1-0.1,0.2-0.1,0.3s0.1,0.2,0.2,0.3c0,0,0.1,0.1,0.2,0.1c0.1,0,0.1,0,0.2,0c0.1,0,0.2,0,0.3-0.1c1.1-0.8,10.1-7,10.9-7.8
	c1-1,2-3.7,0.9-4.7c-0.2-0.3-0.5-0.4-0.9-0.6C199.3,164.8,199,164.7,198.6,164.7z"/>
<path class="st0" d="M177,177.3c-1.1-1.5-7.5-10.5-8.7-11.8c-0.3-0.2-0.6-0.4-0.9-0.6c-0.3-0.1-0.7-0.2-1-0.2s-0.7,0.1-1,0.2
	c-0.3,0.1-0.6,0.3-0.9,0.6c-0.3,0.2-0.4,0.5-0.6,0.9c-0.1,0.3-0.2,0.7-0.2,1c0,0.4,0.1,0.7,0.2,1c0.1,0.3,0.3,0.6,0.6,0.9
	c0.8,0.9,10.7,7.9,11.8,8.7c0.1,0.1,0.2,0.1,0.3,0.1l0,0c0.1,0,0.1,0,0.2,0c0.1,0,0.1-0.1,0.2-0.1c0.1,0,0.1-0.1,0.1-0.2
	c0-0.1,0-0.1,0-0.2C177.1,177.5,177.1,177.4,177,177.3z"/>
</svg>
