<?xml version="1.0" encoding="utf-8"?>
<!-- Generator: Adobe Illustrator 22.1.0, SVG Export Plug-In . SVG Version: 6.00 Build 0)  -->
<svg version="1.1" id="Слой_1" xmlns="http://www.w3.org/2000/svg" xmlns:xlink="http://www.w3.org/1999/xlink" x="0px" y="0px"
	 viewBox="0 0 365 437" style="enable-background:new 0 0 365 437;" xml:space="preserve">
<style type="text/css">
	.st0{fill:#2C3B8C;}
</style>
<path class="st0" d="M254.7,253.7c-0.4-2.1-1.7-7.5-5.6-11.5c-3.9-3.9-9.4-5.2-11.5-5.6c0.4,2.1,1.7,7.5,5.6,11.5
	S252.6,253.3,254.7,253.7z"/>
<path class="st0" d="M254.7,255.3c-2.1,0.4-7.5,1.7-11.5,5.6c-3.9,3.9-5.2,9.4-5.6,11.5c2.1-0.4,7.5-1.7,11.5-5.6
	C253,262.8,254.3,257.4,254.7,255.3z"/>
<path class="st0" d="M219,291c2.1-0.4,7.6-1.7,11.5-5.6s5.2-9.4,5.6-11.5c-2.1,0.4-7.5,1.7-11.5,5.6
	C220.7,283.5,219.4,288.9,219,291z"/>
<path class="st0" d="M237.6,273.9c0.4,2.1,1.7,7.5,5.6,11.5s9.4,5.2,11.5,5.6c-0.4-2.1-1.7-7.5-5.6-11.5
	C245.2,275.6,239.7,274.3,237.6,273.9z"/>
<path class="st0" d="M219,253.7c2.1-0.4,7.6-1.7,11.5-5.6c3.9-3.9,5.2-9.4,5.6-11.5c-2.1,0.4-7.5,1.7-11.5,5.6
	C220.7,246.2,219.4,251.6,219,253.7z"/>
<path class="st0" d="M219,255.3c0.4,2.1,1.7,7.5,5.6,11.5c3.9,3.9,9.4,5.2,11.5,5.6c-0.4-2.1-1.7-7.5-5.6-11.5
	C226.6,257,221.1,255.7,219,255.3z"/>
<path class="st0" d="M219,218c0.4,2.1,1.7,7.5,5.6,11.5c3.9,3.9,9.4,5.2,11.5,5.6c-0.4-2.1-1.7-7.5-5.6-11.5
	C226.5,219.7,221.1,218.4,219,218z"/>
<path class="st0" d="M254.7,218c-2.1,0.4-7.5,1.7-11.5,5.6c-3.9,3.9-5.2,9.4-5.6,11.5c2.1-0.4,7.5-1.7,11.5-5.6
	C253,225.5,254.3,220.1,254.7,218z"/>
<path class="st0" d="M274.9,272.4c2.1-0.4,7.5-1.7,11.5-5.6c3.9-3.9,5.2-9.4,5.6-11.5c-2.1,0.4-7.5,1.7-11.5,5.6
	C276.6,264.8,275.3,270.3,274.9,272.4z"/>
<path class="st0" d="M274.9,235.1c2.1-0.4,7.5-1.7,11.5-5.6c3.9-3.9,5.2-9.4,5.6-11.5c-2.1,0.4-7.5,1.7-11.5,5.6
	C276.6,227.5,275.3,233,274.9,235.1z"/>
<path class="st0" d="M274.9,236.6c0.4,2.1,1.7,7.5,5.6,11.5c3.9,3.9,9.4,5.2,11.5,5.6c-0.4-2.1-1.7-7.5-5.6-11.5
	C282.5,238.3,277,237,274.9,236.6z"/>
<path class="st0" d="M274.9,273.9c0.4,2.1,1.7,7.5,5.6,11.5c3.9,3.9,9.4,5.2,11.5,5.6c-0.4-2.1-1.7-7.5-5.6-11.5
	C282.5,275.6,277,274.3,274.9,273.9z"/>
<path class="st0" d="M273.4,236.6c-2.1,0.4-7.5,1.7-11.5,5.6c-3.9,3.9-5.2,9.4-5.6,11.5c2.1-0.4,7.5-1.7,11.5-5.6
	C271.7,244.2,273,238.7,273.4,236.6z"/>
<path class="st0" d="M256.3,218c0.4,2.1,1.7,7.5,5.6,11.5c3.9,3.9,9.4,5.2,11.5,5.6c-0.4-2.1-1.7-7.5-5.6-11.5
	C263.8,219.7,258.4,218.4,256.3,218z"/>
<path class="st0" d="M256.3,255.3c0.4,2.1,1.7,7.5,5.6,11.5c3.9,3.9,9.4,5.2,11.5,5.6c-0.4-2.1-1.7-7.5-5.6-11.5
	C263.8,257,258.4,255.7,256.3,255.3z"/>
<path class="st0" d="M256.3,291c2.1-0.4,7.5-1.7,11.5-5.6c3.9-3.9,5.2-9.4,5.6-11.5c-2.1,0.4-7.5,1.7-11.5,5.6
	C258,283.5,256.7,288.9,256.3,291z"/>
</svg>
