<?xml version="1.0" encoding="utf-8"?>
<!-- Generator: Adobe Illustrator 22.1.0, SVG Export Plug-In . SVG Version: 6.00 Build 0)  -->
<svg version="1.1" id="Слой_1" xmlns="http://www.w3.org/2000/svg" xmlns:xlink="http://www.w3.org/1999/xlink" x="0px" y="0px"
	 viewBox="0 0 365 437" style="enable-background:new 0 0 365 437;" xml:space="preserve">
<style type="text/css">
	.st0{fill:#2C3B8C;}
	.st1{fill:#6678D6;}
</style>
<path class="st0" d="M71,361.4c-0.3,0.3-0.5,0.6-0.7,1c-0.1,0.4-0.2,0.8-0.2,1.2c0,0.4,0.1,0.8,0.2,1.2c0.2,0.4,0.4,0.7,0.7,1
	c0.6,0.6,1.4,0.9,2.2,0.9c0.8,0,1.6-0.3,2.2-0.9c0.3-0.3,0.5-0.6,0.7-1c0.1-0.4,0.2-0.8,0.2-1.2c0-0.4-0.1-0.8-0.2-1.2
	c-0.2-0.4-0.4-0.7-0.7-1c-0.6-0.6-1.4-0.9-2.2-0.9S71.6,360.8,71,361.4z"/>
<path class="st0" d="M68.8,359.9c0.1,0,0.2,0,0.3,0c0.1,0,0.2-0.1,0.3-0.2c0.1-0.1,0.1-0.2,0.2-0.3s0-0.2,0-0.3
	c-0.9-4-2.8-7.6-5.7-10.5c-2.9-2.8-6.5-4.7-10.4-5.6v0.9h-0.9c0.9,3.9,2.8,7.5,5.6,10.3C61.2,357.1,64.8,359.1,68.8,359.9z"/>
<path class="st0" d="M77.6,367.2c-0.1,0-0.2,0-0.3,0c-0.1,0-0.2,0.1-0.3,0.2c-0.1,0.1-0.1,0.2-0.2,0.3s0,0.2,0,0.3
	c0.9,4,2.8,7.6,5.6,10.5c2.9,2.7,6.5,4.7,10.4,5.6v-0.9h0.9c-0.9-3.9-2.8-7.5-5.6-10.3C85.2,370,81.6,368,77.6,367.2z"/>
<path class="st0" d="M69.5,367.9c0-0.1,0-0.2,0-0.3s-0.1-0.2-0.2-0.3c-0.1-0.1-0.2-0.1-0.3-0.2c-0.1,0-0.2,0-0.3,0
	c-4,0.9-7.7,2.8-10.6,5.6c-2.8,2.9-4.7,6.4-5.6,10.3h0.9v0.9c3.9-0.9,7.5-2.8,10.4-5.6C66.7,375.5,68.7,371.8,69.5,367.9z"/>
<path class="st0" d="M76.8,359.2c0,0.1,0,0.2,0,0.3s0.1,0.2,0.2,0.3c0.1,0.1,0.2,0.1,0.3,0.2c0.1,0,0.2,0,0.3,0
	c4-0.9,7.7-2.8,10.6-5.6c2.8-2.9,4.7-6.4,5.6-10.3h-0.9v-0.9c-3.9,0.9-7.5,2.8-10.4,5.6C79.7,351.6,77.7,355.2,76.8,359.2z"/>
<path class="st0" d="M67.4,363c-3.4-2.2-7.4-3.3-11.4-3.4c-4.1,0.1-8.1,1.3-11.5,3.5c-0.1,0.1-0.2,0.1-0.2,0.2s-0.1,0.2-0.1,0.3
	c0,0.1,0,0.2,0.1,0.3c0.1,0.1,0.1,0.2,0.2,0.2c3.4,2.2,7.4,3.4,11.5,3.5c4.1-0.1,8.1-1.3,11.5-3.5l0.1-0.1l0,0
	c0.1-0.1,0.1-0.1,0.1-0.2s0.1-0.2,0.1-0.2s0-0.2-0.1-0.2c0-0.1-0.1-0.1-0.1-0.2L67.4,363z"/>
<path class="st0" d="M101.8,363c-3.4-2.1-7.4-3.3-11.4-3.4c-4.1,0.1-8.1,1.3-11.5,3.5c-0.1,0.1-0.2,0.1-0.2,0.2s-0.1,0.2-0.1,0.3
	c0,0.1,0,0.2,0.1,0.3c0,0.1,0.1,0.2,0.2,0.2c3.4,2.2,7.4,3.4,11.5,3.5c4.1-0.1,8.1-1.3,11.5-3.5l0.1-0.1l0,0
	c0.1-0.1,0.1-0.1,0.1-0.2s0.1-0.2,0.1-0.2c0-0.1,0-0.2-0.1-0.2c0-0.1-0.1-0.1-0.1-0.2L101.8,363z"/>
<path class="st0" d="M73.2,368.9c-0.1,0-0.2,0-0.3,0.1c-0.1,0-0.2,0.1-0.2,0.2c-2.2,3.4-3.4,7.3-3.5,11.4c0.1,4,1.3,8,3.5,11.4
	c0,0.1,0.1,0.1,0.2,0.2c0.1,0,0.2,0.1,0.3,0.1c0.1,0,0.2,0,0.3,0s0.2-0.1,0.2-0.1l0.1-0.1c2.2-3.4,3.4-7.3,3.5-11.4
	c-0.1-4-1.3-8-3.5-11.4c0-0.1-0.1-0.2-0.2-0.2C73.4,368.9,73.3,368.9,73.2,368.9z"/>
<path class="st0" d="M73.2,358.2c0.1,0,0.2,0,0.2,0c0.1,0,0.1-0.1,0.2-0.1l0.1-0.1c2.2-3.4,3.4-7.3,3.5-11.4c-0.1-4-1.3-8-3.5-11.4
	c0-0.1-0.1-0.2-0.2-0.2s-0.2-0.1-0.3-0.1c-0.1,0-0.2,0-0.3,0.1s-0.2,0.1-0.2,0.2c-2.2,3.4-3.4,7.3-3.5,11.4c0.1,4,1.3,8,3.5,11.4
	c0,0.1,0.1,0.2,0.2,0.2S73.1,358.2,73.2,358.2z"/>
<path class="st0" d="M38.7,292.3c-9.5-0.5-10.7,5.2-10.7,6.8c0,5.2,3.8,6.1,3.8,6.1c-2.2,1.1-10.2,1.1-10.2-6.7
	c0-0.9,0.2-1.8,0.7-2.6c0.5-0.8,1.1-1.4,1.9-1.8h-0.1c-1.4,0.8-2.9,1.2-4.5,1.3c-1.9-0.2-3.7-1-5-2.3c-0.9-0.7-2.5-2.1-2.5-2.1H5.3
	c0,0,14.9,18.9,27.9,18.9c2.1,0,4.1-0.6,5.8-1.8c1.7-1.2,2.9-2.9,3.5-4.9s0.6-4.1-0.1-6C41.7,295.1,40.4,293.5,38.7,292.3z"/>
<path class="st0" d="M0,296.3L0,296.3v6.7l0,0c0,0,1.5,1.6,2.2,2.5c1.3,1.4,2.1,3.1,2.3,5c-0.1,1.6-0.5,3.1-1.3,4.5v0.1
	c0.4-0.8,1.1-1.5,1.9-1.9c0.8-0.5,1.7-0.7,2.6-0.6c7.9,0,7.9,8,6.8,10.1c0,0-0.9-3.7-6.1-3.7c-1.6,0-7.3,1.1-6.9,10.6
	c1.2,1.7,2.9,3,4.8,3.7s4.1,0.7,6,0.1c2-0.6,3.7-1.8,4.9-3.5s1.9-3.7,1.9-5.7C19,311,0,296.3,0,296.3z"/>
<path class="st0" d="M140.7,291H134c0,0-1.6,1.4-2.5,2.1c-1.4,1.3-3.1,2.1-5,2.3c-1.6-0.1-3.1-0.5-4.5-1.3h-0.1
	c0.8,0.4,1.5,1,1.9,1.8c0.5,0.8,0.7,1.7,0.7,2.6c0,7.8-8,7.8-10.2,6.7c0,0,3.8-0.9,3.8-6.1c0-1.6-1.2-7.3-10.7-6.8
	c-1.7,1.1-3,2.8-3.7,4.8c-0.7,1.9-0.7,4.1-0.1,6c0.6,2,1.8,3.7,3.5,4.9c1.7,1.2,3.7,1.9,5.8,1.8C125.8,309.9,140.7,291,140.7,291z"
	/>
<path class="st0" d="M146,296.3c0,0-19,14.8-19,27.7c0,2.1,0.7,4.1,1.9,5.7c1.2,1.7,3,2.9,4.9,3.5c2,0.6,4.1,0.6,6-0.1
	s3.6-2,4.8-3.7c0.5-9.4-5.3-10.6-6.9-10.6c-5.2,0-6.1,3.7-6.1,3.7c-1.2-2.1-1.1-10.1,6.8-10.1c0.9,0,1.8,0.2,2.6,0.7
	s1.4,1.1,1.8,1.9v-0.1c-0.8-1.4-1.2-2.9-1.3-4.5c0.2-1.9,1-3.6,2.3-5c0.7-0.9,2.2-2.5,2.2-2.5l0,0V296.3L146,296.3z"/>
<path class="st0" d="M112.8,418.1c-2.1,0-4.1,0.6-5.8,1.8s-2.9,2.9-3.5,4.9s-0.6,4.1,0.1,6s2,3.6,3.7,4.8c9.5,0.5,10.7-5.2,10.7-6.8
	c0-5.2-3.8-6.1-3.8-6.1c2.2-1.1,10.2-1.1,10.2,6.7c0,0.9-0.2,1.8-0.7,2.6c-0.5,0.8-1.1,1.4-1.9,1.8h0.1c1.4-0.8,2.9-1.2,4.5-1.3
	c1.9,0.2,3.7,1,5,2.3c0.9,0.7,2.5,2.1,2.5,2.1h6.7C140.7,437,125.8,418.1,112.8,418.1z"/>
<path class="st0" d="M143.8,422.6c-1.3-1.4-2.1-3.1-2.3-5c0.1-1.6,0.5-3.1,1.3-4.5V413c-0.4,0.8-1.1,1.5-1.8,1.9
	c-0.8,0.5-1.7,0.7-2.6,0.7c-7.9,0-7.9-8-6.8-10.1c0,0,0.9,3.7,6.1,3.7c1.6,0,7.3-1.1,6.9-10.6c-1.2-1.7-2.9-3-4.8-3.7
	c-1.9-0.7-4.1-0.7-6-0.1c-2,0.6-3.7,1.8-4.9,3.5S127,402,127,404c0,12.9,19,27.7,19,27.7l0,0V425l0,0
	C146,425.1,144.5,423.5,143.8,422.6z"/>
<path class="st0" d="M19.6,432.6c1.6,0.1,3.1,0.5,4.5,1.3h0.1c-0.8-0.4-1.5-1-1.9-1.8c-0.5-0.8-0.7-1.7-0.7-2.6
	c0-7.8,8-7.8,10.2-6.7c0,0-3.8,0.9-3.8,6.1c0,1.6,1.1,7.3,10.7,6.8c1.7-1.2,3-2.8,3.7-4.8c0.7-1.9,0.7-4.1,0.1-6
	c-0.6-2-1.8-3.7-3.5-4.9s-3.7-1.9-5.8-1.8c-13,0-27.9,18.8-27.9,18.9H12c0,0,1.6-1.4,2.5-2.1C15.9,433.6,17.7,432.8,19.6,432.6z"/>
<path class="st0" d="M19,404.1c0-2.1-0.7-4.1-1.9-5.7c-1.2-1.7-3-2.9-4.9-3.5c-2-0.6-4.1-0.6-6,0.1s-3.6,2-4.8,3.7
	c-0.5,9.4,5.3,10.6,6.9,10.6c5.2,0,6.1-3.7,6.1-3.7c1.2,2.1,1.1,10.1-6.8,10.1c-0.9,0-1.8-0.2-2.6-0.7s-1.4-1.1-1.9-1.9v0.1
	c0.8,1.4,1.2,2.9,1.3,4.5c-0.2,1.9-1,3.6-2.3,5c-0.7,0.9-2.2,2.5-2.2,2.5l0,0v6.7l0,0C0,431.7,19,417,19,404.1z"/>
<path class="st1" d="M96.3,310.5V291H50v19.5l-30.4,30.1H0v3.4v16.1l0,0v6.9l0,0v16.1v3.4h19.7L50,416.6V437h46.3v-20.4l30.4-30.1
	H146v-45.9h-19.3L96.3,310.5z M123.2,383.1H93.8c0,0.1,0,0.2,0,0.2c0,0.1,0,0.2,0,0.3c0,0.1-0.1,0.2-0.2,0.3
	c-0.1,0.1-0.2,0.1-0.3,0.2s-0.2,0-0.3,0c0,0-0.1,0-0.2,0v29.1l-19.7,19.5l-19.7-19.5V384c-0.1,0-0.2,0-0.2,0c-0.1,0-0.2,0-0.3,0
	s-0.2-0.1-0.3-0.2s-0.1-0.2-0.2-0.3c0-0.1,0-0.2,0-0.3c0,0,0-0.1,0-0.2H23.2L3.5,363.5L23.2,344h29.4c0-0.1,0-0.2,0-0.2
	c0-0.1,0-0.2,0-0.3c0-0.1,0.1-0.2,0.2-0.3c0.1-0.1,0.2-0.1,0.3-0.2s0.2,0,0.3,0c0,0,0.1,0,0.2,0v-29l19.7-19.5L92.9,314v29.2
	c0.1,0,0.2,0,0.2,0c0.1,0,0.2,0,0.3,0c0.1,0,0.2,0.1,0.3,0.2c0.1,0.1,0.1,0.2,0.2,0.3c0,0.1,0,0.2,0,0.3c0,0,0,0.1,0,0.2h29.4
	l19.7,19.6L123.2,383.1z"/>
<path class="st1" d="M53.5,343.1c-0.1,0-0.2,0-0.2,0c-0.1,0-0.2,0-0.3,0s-0.2,0.1-0.3,0.2s-0.1,0.2-0.2,0.3c0,0.1,0,0.2,0,0.3
	c0,0,0,0.1,0,0.2h0.9L53.5,343.1L53.5,343.1z"/>
<path class="st1" d="M92.9,384c0.1,0,0.2,0,0.2,0c0.1,0,0.2,0,0.3,0s0.2-0.1,0.3-0.2c0.1-0.1,0.1-0.2,0.2-0.3c0-0.1,0-0.2,0-0.3
	c0,0,0-0.1,0-0.2H93L92.9,384L92.9,384z"/>
<path class="st1" d="M52.6,383.1c0,0.1,0,0.2,0,0.2c0,0.1,0,0.2,0,0.3c0,0.1,0.1,0.2,0.2,0.3c0.1,0.1,0.2,0.1,0.3,0.2
	c0.1,0,0.2,0,0.3,0c0,0,0.1,0,0.2,0v-0.9h-1V383.1z"/>
<path class="st1" d="M93.8,344c0-0.1,0-0.2,0-0.2c0-0.1,0-0.2,0-0.3c0-0.1-0.1-0.2-0.2-0.3c-0.1-0.1-0.2-0.1-0.3-0.2
	c-0.1,0-0.2,0-0.3,0c0,0-0.1,0-0.2,0v0.9h1V344z"/>
</svg>
