<?xml version="1.0" encoding="utf-8"?>
<!-- Generator: Adobe Illustrator 22.1.0, SVG Export Plug-In . SVG Version: 6.00 Build 0)  -->
<svg version="1.1" id="Слой_1" xmlns="http://www.w3.org/2000/svg" xmlns:xlink="http://www.w3.org/1999/xlink" x="0px" y="0px"
	 viewBox="0 0 219 580" style="enable-background:new 0 0 219 580;" xml:space="preserve">
<style type="text/css">
	.st0{fill:#E7533B;}
	.st1{fill:#2C3B8C;}
</style>
<g>
	<path class="st0" d="M144,430.4c-0.3,0.3-0.5,0.6-0.7,1c-0.1,0.4-0.2,0.8-0.2,1.2c0,0.4,0.1,0.8,0.2,1.2c0.2,0.4,0.4,0.7,0.7,1
		c0.6,0.6,1.4,0.9,2.2,0.9c0.8,0,1.6-0.3,2.2-0.9c0.3-0.3,0.5-0.6,0.7-1c0.1-0.4,0.2-0.8,0.2-1.2c0-0.4-0.1-0.8-0.2-1.2
		c-0.2-0.4-0.4-0.7-0.7-1c-0.6-0.6-1.4-0.9-2.2-0.9C145.4,429.5,144.6,429.8,144,430.4z"/>
	<path class="st0" d="M141.8,428.9c0.1,0,0.2,0,0.3,0c0.1,0,0.2-0.1,0.3-0.2c0.1-0.1,0.1-0.2,0.2-0.3c0-0.1,0-0.2,0-0.3
		c-0.9-4-2.8-7.6-5.7-10.5c-2.9-2.7-6.5-4.7-10.4-5.6v0.9h-0.9c0.9,3.9,2.8,7.5,5.6,10.3C134.2,426.1,137.8,428.1,141.8,428.9z"/>
	<path class="st0" d="M150.6,436.2c-0.1,0-0.2,0-0.3,0c-0.1,0-0.2,0.1-0.3,0.2c-0.1,0.1-0.1,0.2-0.2,0.3s0,0.2,0,0.3
		c0.9,4,2.8,7.6,5.6,10.5c2.9,2.7,6.5,4.7,10.4,5.6v-0.9h0.9c-0.9-3.9-2.8-7.5-5.6-10.3C158.2,439,154.6,437,150.6,436.2z"/>
	<path class="st0" d="M142.5,436.9c0-0.1,0-0.2,0-0.3s-0.1-0.2-0.2-0.3c-0.1-0.1-0.2-0.1-0.3-0.2c-0.1,0-0.2,0-0.3,0
		c-4,0.9-7.7,2.8-10.6,5.6c-2.8,2.9-4.7,6.4-5.6,10.3h0.9v0.9c3.9-0.9,7.5-2.8,10.4-5.6C139.7,444.5,141.7,440.8,142.5,436.9z"/>
	<path class="st0" d="M149.8,428.2c0,0.1,0,0.2,0,0.3s0.1,0.2,0.2,0.3c0.1,0.1,0.2,0.1,0.3,0.2c0.1,0,0.2,0,0.3,0
		c4-0.9,7.7-2.8,10.6-5.6c2.8-2.9,4.7-6.4,5.6-10.3h-0.9v-0.9c-3.9,0.9-7.5,2.8-10.4,5.6C152.7,420.6,150.7,424.2,149.8,428.2z"/>
	<path class="st0" d="M140.4,432c-3.4-2.2-7.4-3.3-11.4-3.4c-4.1,0.1-8.1,1.3-11.5,3.5c-0.1,0.1-0.2,0.1-0.2,0.2
		c0,0.1-0.1,0.2-0.1,0.3c0,0.1,0,0.2,0.1,0.3c0.1,0.1,0.1,0.2,0.2,0.2c3.4,2.2,7.4,3.4,11.5,3.5c4.1-0.1,8.1-1.3,11.5-3.5l0.1-0.1v0
		c0.1-0.1,0.1-0.1,0.1-0.2c0-0.1,0.1-0.2,0.1-0.2s0-0.2-0.1-0.2c0-0.1-0.1-0.1-0.1-0.2L140.4,432z"/>
	<path class="st0" d="M174.8,432c-3.4-2.2-7.4-3.3-11.4-3.4c-4.1,0.1-8.1,1.3-11.5,3.5c-0.1,0.1-0.2,0.1-0.2,0.2
		c0,0.1-0.1,0.2-0.1,0.3c0,0.1,0,0.2,0.1,0.3c0,0.1,0.1,0.2,0.2,0.2c3.4,2.2,7.4,3.4,11.5,3.5c4.1-0.1,8.1-1.3,11.5-3.5l0.1-0.1v0
		c0.1-0.1,0.1-0.1,0.1-0.2c0-0.1,0.1-0.2,0.1-0.2s0-0.2-0.1-0.2c0-0.1-0.1-0.1-0.1-0.2L174.8,432z"/>
	<path class="st0" d="M146.2,437.9c-0.1,0-0.2,0-0.3,0.1c-0.1,0-0.2,0.1-0.2,0.2c-2.2,3.4-3.4,7.3-3.5,11.4c0.1,4,1.3,8,3.5,11.4
		c0,0.1,0.1,0.1,0.2,0.2c0.1,0,0.2,0.1,0.3,0.1c0.1,0,0.2,0,0.3,0s0.2-0.1,0.2-0.1l0.1-0.1c2.2-3.4,3.4-7.3,3.5-11.4
		c-0.1-4-1.3-8-3.5-11.4c0-0.1-0.1-0.2-0.2-0.2C146.4,437.9,146.3,437.9,146.2,437.9z"/>
	<path class="st0" d="M146.2,427.2c0.1,0,0.2,0,0.2,0c0.1,0,0.1-0.1,0.2-0.1l0.1-0.1c2.2-3.4,3.4-7.3,3.5-11.4
		c-0.1-4-1.3-8-3.5-11.4c0-0.1-0.1-0.2-0.2-0.2c-0.1,0-0.2-0.1-0.3-0.1c-0.1,0-0.2,0-0.3,0.1c-0.1,0-0.2,0.1-0.2,0.2
		c-2.2,3.4-3.4,7.3-3.5,11.4c0.1,4,1.3,8,3.5,11.4c0,0.1,0.1,0.2,0.2,0.2S146.1,427.2,146.2,427.2z"/>
	<path class="st0" d="M111.7,361.3c-9.5-0.5-10.7,5.2-10.7,6.8c0,5.2,3.8,6.1,3.8,6.1c-2.2,1.1-10.2,1.1-10.2-6.7
		c0-0.9,0.2-1.8,0.7-2.6c0.5-0.8,1.1-1.4,1.9-1.8l-0.1,0c-1.4,0.8-2.9,1.2-4.5,1.3c-1.9-0.2-3.7-1-5-2.3c-0.9-0.7-2.5-2.1-2.5-2.1
		h-6.7c0,0,14.9,18.9,27.9,18.9c2.1,0,4.1-0.6,5.8-1.8c1.7-1.2,2.9-2.9,3.5-4.9c0.6-2,0.6-4.1-0.1-6
		C114.7,364.1,113.4,362.5,111.7,361.3z"/>
	<path class="st0" d="M73,365.3L73,365.3v6.7v0c0,0,1.5,1.6,2.2,2.5c1.3,1.4,2.1,3.1,2.3,5c-0.1,1.6-0.5,3.1-1.3,4.5l0,0.1
		c0.4-0.8,1.1-1.5,1.9-1.9c0.8-0.5,1.7-0.7,2.6-0.6c7.9,0,7.9,8,6.8,10.1c0,0-0.9-3.7-6.1-3.7c-1.6,0-7.3,1.1-6.9,10.6
		c1.2,1.7,2.9,3,4.8,3.7c1.9,0.7,4.1,0.7,6,0.1c2-0.6,3.7-1.8,4.9-3.5c1.2-1.7,1.9-3.7,1.9-5.7C92,380,73,365.3,73,365.3z"/>
	<path class="st0" d="M213.7,360H207c0,0-1.6,1.4-2.5,2.1c-1.4,1.3-3.1,2.1-5,2.3c-1.6-0.1-3.1-0.5-4.5-1.3l-0.1,0
		c0.8,0.4,1.5,1,1.9,1.8c0.5,0.8,0.7,1.7,0.7,2.6c0,7.8-8,7.8-10.2,6.7c0,0,3.8-0.9,3.8-6.1c0-1.6-1.2-7.3-10.7-6.8
		c-1.7,1.2-3,2.8-3.7,4.8c-0.7,1.9-0.7,4.1-0.1,6c0.6,2,1.8,3.7,3.5,4.9c1.7,1.2,3.7,1.9,5.8,1.8C198.8,378.9,213.7,360,213.7,360z"
		/>
	<path class="st0" d="M219,365.3c0,0-19,14.8-19,27.7c0,2.1,0.7,4.1,1.9,5.7c1.2,1.7,3,2.9,4.9,3.5c2,0.6,4.1,0.6,6-0.1
		c1.9-0.7,3.6-2,4.8-3.7c0.5-9.4-5.3-10.6-6.9-10.6c-5.2,0-6.1,3.7-6.1,3.7c-1.2-2.1-1.1-10.1,6.8-10.1c0.9,0,1.8,0.2,2.6,0.7
		c0.8,0.5,1.4,1.1,1.8,1.9l0-0.1c-0.8-1.4-1.2-2.9-1.3-4.5c0.2-1.9,1-3.6,2.3-5c0.7-0.9,2.2-2.5,2.2-2.5l0,0L219,365.3L219,365.3z"
		/>
	<path class="st0" d="M185.8,487.1c-2.1,0-4.1,0.6-5.8,1.8s-2.9,2.9-3.5,4.9c-0.6,2-0.6,4.1,0.1,6c0.7,1.9,2,3.6,3.7,4.8
		c9.5,0.5,10.7-5.2,10.7-6.8c0-5.2-3.8-6.1-3.8-6.1c2.2-1.2,10.2-1.1,10.2,6.7c0,0.9-0.2,1.8-0.7,2.6c-0.5,0.8-1.1,1.4-1.9,1.8
		l0.1,0c1.4-0.8,2.9-1.2,4.5-1.3c1.9,0.2,3.7,1,5,2.3c0.9,0.7,2.5,2.1,2.5,2.2h6.7C213.7,506,198.8,487.1,185.8,487.1z"/>
	<path class="st0" d="M216.8,491.6c-1.3-1.4-2.1-3.1-2.3-5c0.1-1.6,0.5-3.1,1.3-4.5l0-0.1c-0.4,0.8-1.1,1.5-1.8,1.9
		c-0.8,0.5-1.7,0.7-2.6,0.6c-7.9,0-7.9-8-6.8-10.1c0,0,0.9,3.7,6.1,3.7c1.6,0,7.3-1.1,6.9-10.6c-1.2-1.7-2.9-3-4.8-3.7
		c-1.9-0.7-4.1-0.7-6-0.1c-2,0.6-3.7,1.8-4.9,3.5c-1.2,1.6-1.9,3.6-1.9,5.7c0,12.9,19,27.7,19,27.7h0v-6.7h0
		C219,494.1,217.5,492.5,216.8,491.6z"/>
	<path class="st0" d="M92.6,501.6c1.6,0.1,3.1,0.6,4.5,1.3l0.1,0c-0.8-0.4-1.5-1.1-1.9-1.8c-0.5-0.8-0.7-1.7-0.7-2.6
		c0-7.8,8-7.8,10.2-6.7c0,0-3.8,0.9-3.8,6.1c0,1.6,1.1,7.3,10.7,6.8c1.7-1.1,3-2.8,3.7-4.8c0.7-1.9,0.7-4.1,0.1-6s-1.8-3.7-3.5-4.9
		s-3.7-1.9-5.8-1.8c-13,0-27.9,18.8-27.9,18.9H85c0,0,1.6-1.4,2.5-2.2C88.9,502.6,90.7,501.8,92.6,501.6z"/>
	<path class="st0" d="M92,473c0-2.1-0.7-4.1-1.9-5.7c-1.2-1.7-3-2.9-4.9-3.5c-2-0.6-4.1-0.6-6,0.1c-1.9,0.7-3.6,2-4.8,3.7
		c-0.5,9.4,5.3,10.6,6.9,10.6c5.2,0,6.1-3.7,6.1-3.7c1.2,2.2,1.1,10.1-6.8,10.1c-0.9,0-1.8-0.2-2.6-0.6c-0.8-0.5-1.4-1.1-1.9-1.9
		l0,0.1c0.8,1.4,1.2,2.9,1.3,4.5c-0.2,1.9-1,3.6-2.3,5c-0.7,0.9-2.2,2.5-2.2,2.5l0,0v6.7l0,0C73,500.7,92,486,92,473z"/>
	<path class="st0" d="M169.3,379.5V360H123v19.5l-30.4,30.1H73v3.4v16.1v0v6.9v0v16.1v3.4h19.7l30.4,30.1V506h46.3v-20.4l30.4-30.1
		H219v-45.9h-19.3L169.3,379.5z M196.2,452.1h-29.4c0,0.1,0,0.2,0,0.2c0,0.1,0,0.2,0,0.3c0,0.1-0.1,0.2-0.2,0.3
		c-0.1,0.1-0.2,0.1-0.3,0.2s-0.2,0-0.3,0c0,0-0.1,0-0.2,0v29.2l-19.7,19.5l-19.7-19.5V453c-0.1,0-0.2,0-0.2,0c-0.1,0-0.2,0-0.3,0
		c-0.1,0-0.2-0.1-0.3-0.2c-0.1-0.1-0.1-0.2-0.2-0.3c0-0.1,0-0.2,0-0.3c0,0,0-0.1,0-0.2H96.2l-19.7-19.5L96.2,413h29.4
		c0-0.1,0-0.2,0-0.2c0-0.1,0-0.2,0-0.3c0-0.1,0.1-0.2,0.2-0.3c0.1-0.1,0.2-0.1,0.3-0.2c0.1,0,0.2,0,0.3,0c0,0,0.1,0,0.2,0V383
		l19.7-19.5l19.7,19.5v29.1c0.1,0,0.2,0,0.2,0c0.1,0,0.2,0,0.3,0c0.1,0,0.2,0.1,0.3,0.2c0.1,0.1,0.1,0.2,0.2,0.3c0,0.1,0,0.2,0,0.3
		c0,0,0,0.1,0,0.2h29.4l19.7,19.6L196.2,452.1z"/>
	<path class="st0" d="M126.5,412.1c-0.1,0-0.2,0-0.2,0c-0.1,0-0.2,0-0.3,0c-0.1,0-0.2,0.1-0.3,0.2c-0.1,0.1-0.1,0.2-0.2,0.3
		c0,0.1,0,0.2,0,0.3c0,0,0,0.1,0,0.2h0.9V412.1z"/>
	<path class="st0" d="M165.9,453c0.1,0,0.2,0,0.2,0c0.1,0,0.2,0,0.3,0s0.2-0.1,0.3-0.2c0.1-0.1,0.1-0.2,0.2-0.3c0-0.1,0-0.2,0-0.3
		c0,0,0-0.1,0-0.2h-0.9V453z"/>
	<path class="st0" d="M125.6,452.1c0,0.1,0,0.2,0,0.2c0,0.1,0,0.2,0,0.3c0,0.1,0.1,0.2,0.2,0.3c0.1,0.1,0.2,0.1,0.3,0.2
		c0.1,0,0.2,0,0.3,0c0,0,0.1,0,0.2,0v-0.9H125.6z"/>
	<path class="st0" d="M166.8,413c0-0.1,0-0.2,0-0.2c0-0.1,0-0.2,0-0.3c0-0.1-0.1-0.2-0.2-0.3c-0.1-0.1-0.2-0.1-0.3-0.2
		c-0.1,0-0.2,0-0.3,0c0,0-0.1,0-0.2,0v0.9H166.8z"/>
	<path class="st1" d="M52,528.1l-0.5-0.1c-1.7-0.3-3.4-0.5-5.1-0.5c-1.1,0-2.3,0.1-3.4,0.4l0,0l0,0c-0.9-1.8-3-3.8-6.1-6l-0.4-0.3
		l-0.4,0.3c-3,2.2-5.1,4.2-6,5.9l0,0l0,0c-1.1-0.3-2.2-0.4-3.4-0.4c-1.7,0-3.5,0.2-5.1,0.5l-0.1,0l0,0L21,528l-0.1,0.4l0,0l0,0.1
		c-0.6,3.7-0.6,6.6,0,8.5c-1.8,0.9-3.8,3-6,6.1l-0.3,0.4l0.3,0.4c2.2,3,4.2,5.1,5.9,6l0,0l0,0c-0.6,1.9-0.6,4.8,0.1,8.5l0,0.1h0
		L21,559l0.3,0.1l0,0l0.1,0c1.7,0.3,3.4,0.4,5.1,0.5l0,0c1.2,0,2.3-0.1,3.4-0.4l0,0l0,0c0.9,1.8,3,3.8,6.1,6l0.4,0.3l0.4-0.3
		c3.1-2.2,5.1-4.2,6.1-5.9l0,0l0,0c1.1,0.3,2.3,0.4,3.4,0.4c1.7,0,3.4-0.2,5.1-0.5l0.3-0.1l0.1,0l0.1-0.5c0.6-3.7,0.7-6.6,0.1-8.5
		l0,0l0,0c1.8-0.9,3.8-3,6-6l0.3-0.4l-0.3-0.4c-2.2-3.1-4.2-5.1-5.9-6.1l0,0l0,0c0.6-1.9,0.6-4.8-0.1-8.5l0-0.2v0L52,528.1z
		 M50.8,529.2c0.5,3.2,0.5,5.7,0.1,7.3l0,0c-0.1-0.1-0.3-0.1-0.4-0.1h0c-0.2,0-0.3-0.1-0.5-0.1l0,0c-0.2,0-0.3-0.1-0.5-0.1h0
		c-1.9-0.4-3.9-0.3-5.7,0.2v0c0-0.1,0.1-0.3,0.1-0.4l0-0.1c0-0.1,0.1-0.3,0.1-0.4l0,0c0-0.1,0-0.3,0.1-0.4l0-0.1c0-0.1,0-0.3,0-0.4
		l0,0c0-0.1,0-0.3,0-0.4l0-0.1c0-0.1,0-0.3,0-0.4v-0.1c0-0.1,0-0.2,0-0.3v-0.1c0-0.1,0-0.3,0-0.4v-0.1c0-0.1,0-0.2,0-0.4v-0.1
		c0-0.1,0-0.3,0-0.4v-0.1c0-0.1,0-0.2,0-0.4v-0.1c0-0.1,0-0.3-0.1-0.4l0-0.1c0-0.1,0-0.3-0.1-0.4v0c0-0.1-0.1-0.3-0.1-0.4l0-0.1
		c0-0.1-0.1-0.3-0.1-0.4l0,0c0-0.1-0.1-0.2-0.1-0.4l0,0C45.2,528.7,47.6,528.7,50.8,529.2z M36.5,523.3c2.7,1.9,4.4,3.6,5.2,5.1
		c-0.1,0.1-0.3,0.1-0.4,0.2l-0.1,0c-0.1,0.1-0.3,0.2-0.4,0.2l-0.1,0.1c-0.1,0.1-0.2,0.1-0.3,0.2l-0.1,0.1c-0.1,0.1-0.3,0.2-0.4,0.3
		l-0.1,0c-0.1,0.1-0.3,0.2-0.4,0.3l-0.1,0.1c-0.1,0.1-0.2,0.2-0.3,0.3l-0.1,0.1c-0.1,0.1-0.2,0.2-0.3,0.3l-0.1,0.1
		c-0.1,0.1-0.2,0.3-0.4,0.4l-0.1,0.1c-0.1,0.1-0.2,0.2-0.3,0.3l-0.1,0.1c-0.1,0.1-0.2,0.2-0.2,0.3l-0.1,0.1
		c-0.1,0.1-0.2,0.3-0.3,0.4v0c-0.1,0.1-0.2,0.3-0.3,0.5l-0.1,0.1l-0.1,0.2l-0.1-0.2l-0.1-0.1c-0.1-0.2-0.2-0.3-0.3-0.5l0,0
		c-0.1-0.1-0.2-0.3-0.3-0.4l-0.1-0.1c-0.1-0.1-0.2-0.2-0.2-0.3l-0.1-0.1c-0.1-0.1-0.2-0.2-0.3-0.3l-0.1-0.1
		c-0.1-0.1-0.2-0.3-0.4-0.4l-0.1-0.1c-0.1-0.1-0.2-0.2-0.3-0.3l-0.1-0.1c-0.1-0.1-0.2-0.2-0.3-0.3l-0.1-0.1
		c-0.1-0.1-0.3-0.2-0.4-0.3l-0.1,0c-0.1-0.1-0.2-0.2-0.4-0.3l-0.1-0.1c-0.1-0.1-0.2-0.1-0.3-0.2l-0.2-0.1c-0.1-0.1-0.3-0.2-0.4-0.2
		l0,0c-0.1-0.1-0.3-0.2-0.4-0.2C32.2,526.9,33.9,525.2,36.5,523.3L36.5,523.3z M37.6,538.6c0,0.3-0.1,0.6-0.3,0.8
		c-0.2,0.2-0.5,0.3-0.8,0.3c-0.3,0-0.6-0.1-0.8-0.3c-0.2-0.2-0.3-0.5-0.3-0.8c0.2-0.8,0.5-1.4,1.1-2l0,0.1l0-0.1
		C37.1,537.2,37.5,537.8,37.6,538.6L37.6,538.6z M22.2,529.2c3.2-0.5,5.7-0.5,7.3-0.1l0,0c0,0.1-0.1,0.2-0.1,0.3l0,0.1
		c0,0.1-0.1,0.3-0.1,0.4l0,0.1c0,0.1-0.1,0.2-0.1,0.3l0,0.1c0,0.1-0.1,0.3-0.1,0.4l0,0.1c0,0.1,0,0.3-0.1,0.4l0,0c0,0.1,0,0.3,0,0.4
		l0,0.1c0,0.1,0,0.3,0,0.4v0c0,0.1,0,0.3,0,0.4v0.1c0,0.1,0,0.3,0,0.4v0.1c0,0.1,0,0.2,0,0.4v0.1c0,0.1,0,0.3,0,0.4v0.1
		c0,0.1,0,0.2,0,0.4l0,0.1c0,0.1,0,0.3,0.1,0.4l0,0.1c0,0.1,0,0.3,0.1,0.4v0c0,0.1,0.1,0.3,0.1,0.4l0,0.1c0,0.1,0.1,0.3,0.1,0.4v0
		c-2.3-0.7-4.8-0.6-7.2,0.2C21.7,534.8,21.7,532.4,22.2,529.2z M21.6,548.3c-0.1,0.1-0.2,0.3-0.2,0.4c-1.5-0.8-3.2-2.6-5.1-5.2
		c1.9-2.7,3.6-4.4,5.1-5.2c1.1,2.2,2.8,4,4.9,5.2l-0.2,0.1l-0.1,0.1c-0.2,0.1-0.3,0.2-0.4,0.3l0,0c-0.1,0.1-0.3,0.2-0.4,0.3
		l-0.1,0.1c-0.1,0.1-0.2,0.2-0.3,0.2l-0.1,0.1c-0.1,0.1-0.2,0.2-0.3,0.3l-0.1,0.1c-0.1,0.1-0.3,0.2-0.4,0.4l-0.1,0.1
		c-0.1,0.1-0.2,0.2-0.3,0.3l-0.1,0.1c-0.1,0.1-0.2,0.2-0.3,0.3l-0.1,0.1c-0.1,0.1-0.2,0.3-0.3,0.4l-0.1,0.1
		c-0.1,0.1-0.2,0.2-0.3,0.4l-0.1,0.1c-0.1,0.1-0.1,0.2-0.2,0.3l-0.1,0.2C21.8,547.9,21.7,548.1,21.6,548.3L21.6,548.3z M22.2,557.8
		c-0.5-3.2-0.5-5.7-0.1-7.3c0.2,0.1,0.3,0.1,0.5,0.2l0.1,0c0.1,0,0.3,0.1,0.4,0.1l0.2,0.1c0.1,0,0.2,0,0.3,0.1c0.1,0,0.2,0,0.3,0
		l0.2,0c0.1,0,0.2,0,0.3,0.1l0.2,0c0.1,0,0.3,0,0.4,0h0c0.3,0,0.7,0.1,1,0.1c1,0,1.9-0.1,2.8-0.3h0c0.1,0,0.3-0.1,0.4-0.1l0,0v0
		c0,0.1-0.1,0.3-0.1,0.4l0,0.1c0,0.1-0.1,0.3-0.1,0.4l0,0c0,0.1,0,0.3-0.1,0.4l0,0.1c0,0.1,0,0.3-0.1,0.4v0c0,0.1,0,0.3,0,0.4l0,0.1
		c0,0.1,0,0.3,0,0.4v0.1c0,0.1,0,0.2,0,0.3v0.1c0,0.1,0,0.3,0,0.4v0.1c0,0.1,0,0.2,0,0.4v0.1c0,0.1,0,0.3,0,0.4v0.1
		c0,0.1,0,0.2,0,0.4v0.1c0,0.1,0,0.3,0.1,0.4l0,0.1c0,0.1,0,0.3,0.1,0.4v0c0,0.1,0.1,0.3,0.1,0.4l0,0.1c0,0.1,0.1,0.3,0.1,0.4l0,0
		c0,0.1,0.1,0.2,0.1,0.4l0,0C27.8,558.3,25.4,558.3,22.2,557.8L22.2,557.8z M36.5,563.7c-2.6-1.9-4.4-3.6-5.2-5.1
		c0.2-0.1,0.3-0.2,0.4-0.2l0.1-0.1c0.1-0.1,0.2-0.1,0.4-0.2l0.2-0.1c0.1-0.1,0.2-0.1,0.3-0.2l0.1-0.1c0.1-0.1,0.3-0.2,0.4-0.3l0,0
		c0.1-0.1,0.3-0.2,0.4-0.3l0.1-0.1c0.1-0.1,0.2-0.2,0.3-0.3l0.1-0.1c0.1-0.1,0.2-0.2,0.3-0.3l0.1-0.1c0.1-0.1,0.2-0.3,0.4-0.4
		l0.1-0.1c0.1-0.1,0.2-0.2,0.3-0.3l0.1-0.1c0.1-0.1,0.2-0.2,0.2-0.3l0.1-0.1c0.1-0.2,0.2-0.3,0.3-0.4l0,0c0.1-0.1,0.2-0.3,0.3-0.4
		l0.1-0.1l0.1-0.2l0.1,0.2l0.1,0.1c0.1,0.2,0.2,0.3,0.3,0.4l0,0c0.1,0.1,0.2,0.3,0.3,0.4l0.1,0.1c0.1,0.1,0.2,0.2,0.2,0.3l0.1,0.1
		c0.1,0.1,0.2,0.2,0.3,0.3l0.1,0.1c0.1,0.1,0.2,0.3,0.4,0.4l0.1,0.1c0.1,0.1,0.2,0.2,0.3,0.3l0.1,0.1c0.1,0.1,0.2,0.2,0.3,0.3
		l0.1,0.1c0.1,0.1,0.3,0.2,0.4,0.3l0.1,0c0.1,0.1,0.3,0.2,0.4,0.3l0.1,0.1c0.1,0.1,0.2,0.1,0.3,0.2l0.1,0.1c0.1,0.1,0.3,0.2,0.4,0.2
		l0.1,0c0.1,0.1,0.3,0.1,0.4,0.2C40.8,560.1,39.1,561.8,36.5,563.7z M35.4,548.4c0-0.3,0.1-0.6,0.3-0.8c0.2-0.2,0.5-0.3,0.8-0.3
		c0.3,0,0.6,0.1,0.8,0.3c0.2,0.2,0.3,0.5,0.3,0.8c-0.2,0.8-0.5,1.4-1.1,2l0-0.1l0,0.1C35.9,549.8,35.5,549.2,35.4,548.4z
		 M43.3,549.2c-0.2-0.1-0.3-0.1-0.5-0.2l-1.5-0.7l0.6,1.5c0.1,0.2,0.1,0.3,0.2,0.5l0.1,0.2c0,0.1,0.1,0.2,0.1,0.3l0.1,0.2
		c0,0.1,0.1,0.2,0.1,0.3l0,0.2c0,0.1,0.1,0.2,0.1,0.3l0,0.2c0,0.1,0,0.2,0.1,0.3l0,0.2c0,0.1,0,0.2,0,0.3l0,0.2c0,0.1,0,0.2,0,0.3
		l0,0.2c0,0.1,0,0.2,0,0.3v0.2c0,0.1,0,0.2,0,0.3l0,0.2c0,0.1,0,0.2,0,0.3l0,0.2c0,0.2,0,0.3,0,0.5l0,0c0,0.2-0.1,0.3-0.1,0.5l0,0.2
		c0,0.1,0,0.2-0.1,0.3l0,0.2c0,0.1-0.1,0.2-0.1,0.3l-0.1,0.2l-0.1,0.2l-0.2-0.1l-0.2-0.1c-0.1,0-0.2-0.1-0.3-0.2l-0.2-0.1
		c-0.1-0.1-0.2-0.1-0.3-0.2l-0.2-0.1c-0.1-0.1-0.3-0.2-0.4-0.3l0,0c-0.1-0.1-0.3-0.2-0.4-0.3l-0.1-0.1c-0.1-0.1-0.2-0.1-0.2-0.2
		l-0.2-0.1l-0.2-0.2l-0.1-0.2l-0.2-0.2l-0.1-0.2l-0.2-0.2l-0.1-0.2l-0.2-0.2l-0.1-0.2l-0.2-0.2l-0.1-0.2c-0.1-0.1-0.1-0.2-0.2-0.2
		l-0.1-0.2c-0.1-0.1-0.1-0.2-0.2-0.3l-0.1-0.2c-0.1-0.1-0.1-0.2-0.2-0.3l-0.1-0.2c-0.1-0.2-0.1-0.3-0.2-0.5l0,0
		c0.9-1,1.9-2.3,1.9-3.4c0-0.7-0.3-1.3-0.7-1.8c-0.5-0.5-1.1-0.7-1.8-0.7s-1.3,0.3-1.8,0.7c-0.5,0.5-0.7,1.1-0.7,1.8
		c0,1.1,1,2.4,1.8,3.4l0,0c-0.1,0.2-0.1,0.3-0.2,0.5l-0.1,0.1c0,0.1-0.1,0.2-0.1,0.3l-0.1,0.2c0,0.1-0.1,0.2-0.1,0.3l-0.1,0.2
		c0,0.1-0.1,0.2-0.1,0.2l-0.1,0.2l-0.2,0.2l-0.1,0.2l-0.2,0.2l-0.1,0.2l-0.2,0.2l-0.1,0.2l-0.2,0.2l-0.2,0.2l-0.2,0.2l-0.2,0.1
		l-0.2,0.2l-0.1,0.1c-0.1,0.1-0.2,0.1-0.3,0.2l-0.1,0.1c-0.1,0.1-0.3,0.2-0.4,0.3l-0.1,0c-0.1,0.1-0.2,0.2-0.4,0.2l-0.2,0.1
		c-0.1,0.1-0.2,0.1-0.3,0.2l-0.2,0.1l-0.2,0.1l-0.1-0.2l-0.1-0.2c0-0.1-0.1-0.2-0.1-0.3l-0.1-0.2c0-0.1-0.1-0.2-0.1-0.3l0-0.2
		c0-0.2-0.1-0.3-0.1-0.5l0,0c0-0.2,0-0.3-0.1-0.5l0-0.2c0-0.1,0-0.2,0-0.3v-0.2c0-0.1,0-0.2,0-0.3v-0.2c0-0.1,0-0.2,0-0.3l0-0.2
		c0-0.1,0-0.2,0-0.3l0-0.2c0-0.1,0-0.2,0-0.3l0-0.2c0-0.1,0-0.2,0.1-0.3l0.1-0.2c0-0.1,0-0.2,0.1-0.3l0.1-0.2c0-0.1,0.1-0.2,0.1-0.3
		l0.1-0.2c0-0.1,0.1-0.2,0.1-0.3l0.1-0.2c0.1-0.2,0.1-0.3,0.2-0.5l0.7-1.5l-1.5,0.6c-0.2,0.1-0.3,0.1-0.5,0.2l-0.2,0.1
		c-0.1,0-0.2,0.1-0.3,0.1l-0.2,0c-0.1,0-0.2,0.1-0.3,0.1l-0.2,0c-0.1,0-0.2,0.1-0.3,0.1l-0.1,0c-0.1,0-0.3,0.1-0.4,0.1l-0.1,0
		c-0.2,0-0.3,0-0.4,0.1h-0.1c-0.3,0-0.7,0.1-1,0.1c-0.7,0-1.4-0.1-2-0.2l-0.1,0c-0.1,0-0.2-0.1-0.3-0.1l-0.2,0
		c-0.1,0-0.2-0.1-0.3-0.1l-0.2-0.1l-0.2-0.1l0.1-0.2l0.1-0.2c0.1-0.1,0.1-0.2,0.2-0.3l0.1-0.2c0.1-0.1,0.1-0.2,0.2-0.3l0.1-0.1
		c0.1-0.1,0.2-0.3,0.3-0.4c0.1-0.1,0.2-0.3,0.3-0.4l0.1-0.1c0.1-0.1,0.1-0.2,0.2-0.3l0.1-0.1l0.2-0.2l0.2-0.1l0.2-0.2l0.2-0.1
		l0.2-0.2l0.2-0.1l0.2-0.2l0.2-0.1c0.1-0.1,0.2-0.1,0.2-0.2l0.2-0.1c0.1-0.1,0.2-0.1,0.3-0.2l0.2-0.1c0.1-0.1,0.2-0.1,0.3-0.2
		l0.2-0.1c0.1-0.1,0.2-0.1,0.3-0.2l0.1-0.1c0.2-0.1,0.3-0.1,0.5-0.2l0,0c1,0.9,2.3,1.9,3.4,1.9c0.7,0,1.3-0.3,1.8-0.7
		c0.5-0.5,0.7-1.1,0.7-1.8s-0.3-1.3-0.7-1.8c-0.5-0.5-1.1-0.7-1.8-0.7c-1.1,0-2.4,1-3.4,1.8l0,0c-2.4-1-4.3-2.8-5.5-5.1
		c2.4-0.8,5.1-0.7,7.5,0.3l1.5,0.6l-0.6-1.5c-0.1-0.2-0.1-0.3-0.2-0.5l-0.1-0.2c0-0.1-0.1-0.2-0.1-0.3l-0.1-0.2
		c0-0.1-0.1-0.2-0.1-0.3l0-0.2c0-0.1,0-0.2-0.1-0.3l0-0.2c0-0.1,0-0.2-0.1-0.3l0-0.2c0-0.1,0-0.2,0-0.3l0-0.2c0-0.1,0-0.2,0-0.3
		l0-0.2c0-0.1,0-0.2,0-0.3V533c0-0.1,0-0.2,0-0.3l0-0.2c0-0.1,0-0.2,0-0.3l0-0.2c0-0.1,0-0.2,0-0.3l0-0.2c0-0.2,0.1-0.3,0.1-0.5
		l0-0.1c0-0.2,0.1-0.3,0.1-0.4l0-0.2c0-0.1,0.1-0.2,0.1-0.3l0.1-0.2l0.1-0.2l0.2,0.1l0.2,0.1c0.1,0.1,0.2,0.1,0.3,0.2l0.2,0.1
		c0.1,0.1,0.2,0.1,0.3,0.2l0.1,0.1c0.1,0.1,0.3,0.2,0.4,0.3l0,0c0.1,0.1,0.3,0.2,0.4,0.3l0.1,0.1c0.1,0.1,0.2,0.1,0.3,0.2l0.2,0.1
		l0.2,0.2l0.1,0.2l0.2,0.2l0.1,0.2l0.2,0.2l0.1,0.2l0.2,0.2l0.1,0.2l0.2,0.2l0.1,0.2c0.1,0.1,0.1,0.2,0.2,0.3l0.1,0.2
		c0.1,0.1,0.1,0.2,0.2,0.3l0.1,0.2c0.1,0.1,0.1,0.2,0.2,0.3l0.1,0.1c0.1,0.2,0.1,0.3,0.2,0.5l0,0c-0.9,1-1.9,2.3-1.9,3.4
		c0,0.7,0.3,1.3,0.7,1.8c0.5,0.5,1.1,0.7,1.8,0.7s1.3-0.3,1.8-0.7c0.5-0.5,0.7-1.1,0.7-1.8c0-1.1-1-2.4-1.8-3.4l0,0
		c0.1-0.2,0.1-0.3,0.2-0.5l0.1-0.1c0-0.1,0.1-0.2,0.2-0.3l0.1-0.2c0-0.1,0.1-0.2,0.1-0.3l0.1-0.2c0-0.1,0.1-0.2,0.2-0.3l0.1-0.2
		l0.2-0.2l0.1-0.2l0.2-0.2l0.1-0.2l0.2-0.2l0.1-0.2l0.2-0.2l0.2-0.2l0.2-0.2l0.2-0.1c0.1-0.1,0.2-0.1,0.3-0.2l0.1-0.1
		c0.1-0.1,0.2-0.2,0.4-0.3l0,0c0.1-0.1,0.3-0.2,0.4-0.3l0.1-0.1c0.1-0.1,0.2-0.1,0.3-0.2l0.2-0.1c0.1-0.1,0.2-0.1,0.3-0.2l0.2-0.1
		l0.2-0.1l0.1,0.2l0.1,0.2c0,0.1,0.1,0.2,0.1,0.3l0.1,0.2c0,0.1,0.1,0.2,0.1,0.3l0,0.2c0,0.2,0.1,0.3,0.1,0.5l0,0
		c0,0.2,0,0.3,0.1,0.5l0,0.2c0,0.1,0,0.2,0,0.3v0.2c0,0.1,0,0.2,0,0.3v0.2c0,0.1,0,0.2,0,0.3l0,0.2c0,0.1,0,0.2,0,0.3l0,0.2
		c0,0.1,0,0.2,0,0.3l0,0.2c0,0.1,0,0.2-0.1,0.3l0,0.2c0,0.1,0,0.2-0.1,0.3l-0.1,0.2c0,0.1-0.1,0.2-0.1,0.3l-0.1,0.2
		c0,0.1-0.1,0.2-0.1,0.3l-0.1,0.2c-0.1,0.2-0.1,0.3-0.2,0.5l-0.7,1.5l1.5-0.6c0.2-0.1,0.3-0.1,0.5-0.2l0.2-0.1
		c0.1,0,0.2-0.1,0.3-0.1l0.2,0c0.1,0,0.2-0.1,0.3-0.1l0.1,0c0.1,0,0.2-0.1,0.4-0.1l0.1,0c0.1,0,0.3-0.1,0.4-0.1l0.1,0
		c0.1,0,0.3,0,0.5-0.1h0c0.3,0,0.7-0.1,1-0.1c0.7,0,1.4,0.1,2.1,0.2l0.1,0c0.1,0,0.3,0.1,0.4,0.1l0.2,0c0.1,0,0.2,0.1,0.3,0.1
		l0.2,0.1l0.2,0.1l-0.1,0.2l-0.1,0.2c-0.1,0.1-0.1,0.2-0.2,0.3l-0.1,0.2c-0.1,0.1-0.1,0.2-0.2,0.3l-0.1,0.1
		c-0.1,0.1-0.2,0.3-0.3,0.4l0,0c-0.1,0.1-0.2,0.3-0.3,0.4l-0.1,0.1c-0.1,0.1-0.1,0.2-0.2,0.3l-0.1,0.2l-0.2,0.2l-0.2,0.1l-0.2,0.2
		l-0.2,0.1l-0.2,0.2l-0.2,0.1l-0.2,0.2l-0.2,0.1c-0.1,0-0.2,0.1-0.2,0.2l-0.2,0.1c-0.1,0.1-0.2,0.1-0.2,0.2l-0.2,0.1
		c-0.1,0.1-0.2,0.1-0.3,0.2l-0.2,0.1c-0.1,0.1-0.2,0.1-0.3,0.2l-0.2,0.1c-0.2,0.1-0.3,0.1-0.5,0.2l0,0h0c-1-0.9-2.3-1.9-3.4-1.9
		c-0.7,0-1.3,0.3-1.8,0.7c-0.5,0.5-0.7,1.1-0.7,1.8s0.3,1.3,0.7,1.8c0.5,0.5,1.1,0.7,1.8,0.7c1.1,0,2.4-1,3.4-1.8l0,0
		c0.2,0.1,0.3,0.1,0.5,0.2l0.1,0.1c0.1,0,0.2,0.1,0.3,0.1l0.2,0.1c0.1,0,0.2,0.1,0.3,0.1l0.2,0.1c0.1,0,0.2,0.1,0.3,0.2l0.2,0.1
		c0.1,0.1,0.2,0.1,0.2,0.2l0.2,0.1l0.2,0.2l0.2,0.1l0.2,0.2l0.2,0.1l0.2,0.2l0.2,0.2l0.2,0.2l0.1,0.1c0.1,0.1,0.2,0.2,0.2,0.3
		l0.1,0.1c0.1,0.1,0.2,0.3,0.3,0.4h0c0.1,0.1,0.2,0.3,0.3,0.4l0.1,0.1c0.1,0.1,0.1,0.2,0.2,0.3l0.1,0.2c0.1,0.1,0.1,0.2,0.2,0.3
		l0.1,0.2l0.1,0.2l-0.2,0.1l-0.2,0.1c-0.1,0-0.2,0.1-0.3,0.1l-0.2,0.1c-0.1,0-0.2,0.1-0.3,0.1l-0.1,0c-0.7,0.1-1.3,0.2-2,0.2
		c-0.3,0-0.7,0-1.1-0.1l0,0c-0.2,0-0.3,0-0.5-0.1l-0.1,0c-0.1,0-0.3,0-0.4-0.1l-0.1,0c-0.1,0-0.2-0.1-0.4-0.1l-0.2,0
		c-0.1,0-0.2-0.1-0.3-0.1l-0.2-0.1c-0.1,0-0.2-0.1-0.3-0.1L43.3,549.2z M29.6,543.4c0.5-0.5,1.2-0.9,2-1.1c0.2,0,0.3,0,0.4,0.1
		c0.1,0.1,0.3,0.1,0.4,0.2c0.1,0.1,0.2,0.2,0.2,0.4c0.1,0.1,0.1,0.3,0.1,0.4s0,0.3-0.1,0.4c-0.1,0.1-0.1,0.3-0.2,0.4
		c-0.1,0.1-0.2,0.2-0.4,0.2c-0.1,0.1-0.3,0.1-0.4,0.1C30.8,544.5,30.2,544.1,29.6,543.4L29.6,543.4L29.6,543.4z M43.4,543.6
		c-0.5,0.5-1.2,0.9-2,1.1c-0.3,0-0.6-0.1-0.8-0.3c-0.2-0.2-0.3-0.5-0.3-0.8c0-0.3,0.1-0.6,0.3-0.8c0.2-0.2,0.5-0.3,0.8-0.3
		C42.2,542.5,42.8,542.9,43.4,543.6L43.4,543.6L43.4,543.6z M50.8,557.8c-1.5,0.2-2.9,0.4-4.4,0.4c-1,0-2-0.1-2.9-0.3l0-0.1
		c0-0.1,0.1-0.2,0.1-0.4l0,0c0-0.1,0.1-0.3,0.1-0.4l0-0.1c0-0.1,0.1-0.3,0.1-0.4v0c0-0.1,0.1-0.3,0.1-0.4l0-0.1c0-0.1,0-0.3,0.1-0.4
		l0,0c0-0.1,0-0.3,0-0.4v-0.1c0-0.1,0-0.3,0-0.4v-0.1c0-0.1,0-0.2,0-0.4v-0.1c0-0.1,0-0.3,0-0.4l0-0.1c0-0.1,0-0.2,0-0.4l0-0.1
		c0-0.1,0-0.3,0-0.4l0-0.1c0-0.1,0-0.3,0-0.4v0c0-0.1,0-0.3-0.1-0.4l0-0.1c0-0.1,0-0.3-0.1-0.4v0c0-0.1-0.1-0.3-0.1-0.4l0-0.1
		c0-0.1-0.1-0.3-0.1-0.4l0,0h0c1.1,0.3,2.2,0.5,3.3,0.5c0.8,0,1.6-0.1,2.4-0.3l0,0c0.2,0,0.3-0.1,0.5-0.1h0c0.2,0,0.3-0.1,0.4-0.1h0
		c0.1-0.1,0.3-0.1,0.4-0.1l0,0C51.3,552.2,51.3,554.6,50.8,557.8L50.8,557.8z M56.7,543.5c-1.9,2.6-3.6,4.4-5.1,5.2
		c-0.1-0.1-0.1-0.3-0.2-0.4l0-0.1c-0.1-0.1-0.2-0.3-0.2-0.4l-0.1-0.2c-0.1-0.1-0.1-0.2-0.2-0.3l-0.1-0.1c-0.1-0.1-0.2-0.2-0.3-0.4
		l0-0.1c-0.1-0.1-0.2-0.3-0.3-0.4l-0.1-0.1c-0.1-0.1-0.2-0.2-0.3-0.3l-0.1-0.1c-0.1-0.1-0.2-0.2-0.3-0.3l-0.1-0.1
		c-0.1-0.1-0.3-0.2-0.4-0.4l-0.1-0.1c-0.1-0.1-0.2-0.2-0.3-0.3l-0.1-0.1c-0.1-0.1-0.2-0.2-0.3-0.2l-0.1-0.1
		c-0.1-0.1-0.3-0.2-0.4-0.3l0,0c-0.1-0.1-0.3-0.2-0.4-0.3l-0.1-0.1l-0.2-0.1l0.2-0.1l0.1-0.1c0.2-0.1,0.3-0.2,0.4-0.3l0,0
		c0.1-0.1,0.3-0.2,0.4-0.3l0.1-0.1c0.1-0.1,0.2-0.2,0.3-0.2l0.1-0.1c0.1-0.1,0.2-0.2,0.3-0.3l0.1-0.1c0.1-0.1,0.3-0.2,0.4-0.4
		l0.1-0.1c0.1-0.1,0.2-0.2,0.3-0.3l0.1-0.1c0.1-0.1,0.2-0.2,0.3-0.3l0.1-0.1c0.1-0.1,0.2-0.3,0.3-0.4l0-0.1c0.1-0.1,0.2-0.3,0.3-0.4
		l0.1-0.1c0.1-0.1,0.1-0.2,0.2-0.3l0.1-0.2c0.1-0.1,0.2-0.3,0.2-0.4l0-0.1c0.1-0.1,0.2-0.3,0.2-0.4
		C53.1,539.2,54.8,540.9,56.7,543.5L56.7,543.5z"/>
	<path class="st1" d="M21,528l0.3-0.1l-5.2-5.2h-0.4v0.4l5.2,5.2L21,528z"/>
	<path class="st1" d="M21,528l0.3-0.1l0,0L21,528l-0.1,0.4L21,528z"/>
	<path class="st1" d="M52,528L52,528L52,528l0.1,0.3l5.2-5.1v-0.4h-0.4l-5.2,5.1L52,528z"/>
	<path class="st1" d="M52,528.1l0.1,0.3v0L52,528.1L52,528.1z"/>
	<path class="st1" d="M51.9,559L51.9,559l-0.1,0l-0.2,0l5.2,5.1h0.4v-0.4l-5.2-5.2L51.9,559z"/>
	<path class="st1" d="M51.9,559L51.9,559l-0.1,0L51.9,559z"/>
	<path class="st1" d="M21,559l-0.1-0.3l-5.1,5.2v0.4h0.4l5.1-5.2L21,559z"/>
	<path class="st1" d="M21,559l-0.1-0.3l0,0L21,559l0.3,0.1l0,0L21,559z"/>
	<path class="st1" d="M69.6,535.5c-1.4-1.9-3.3-3.4-5.5-4.3v-15.3H48.8c-0.9-2.2-2.4-4.1-4.3-5.5c-2.3-1.7-5.1-2.7-8-2.7
		s-5.7,0.9-8,2.7c-1.9,1.4-3.4,3.3-4.3,5.5H8.9v15.3c-2.2,0.9-4.1,2.4-5.5,4.3c-1.7,2.3-2.7,5.1-2.7,8s0.9,5.7,2.7,8
		c1.4,1.9,3.3,3.4,5.5,4.3v15.3h15.3c0.9,2.2,2.4,4.1,4.3,5.5c2.3,1.7,5.1,2.7,8,2.7s5.7-0.9,8-2.7c1.9-1.4,3.4-3.3,4.3-5.5h15.3
		v-15.3c2.2-0.9,4.1-2.4,5.5-4.3c1.7-2.3,2.7-5.1,2.7-8S71.4,537.8,69.6,535.5L69.6,535.5z M61.7,552.6l-1.5,0.5v14.2H46.1l-0.5,1.5
		c-0.6,2-1.8,3.7-3.4,4.9c-1.6,1.2-3.6,1.9-5.7,1.9s-4-0.7-5.7-1.9c-1.6-1.2-2.8-2.9-3.4-4.9l-0.5-1.5H12.8v-14.2l-1.5-0.5
		c-2-0.6-3.7-1.8-4.9-3.4c-1.2-1.6-1.9-3.6-1.9-5.7s0.7-4,1.9-5.7c1.2-1.6,2.9-2.8,4.9-3.4l1.5-0.5v-14.2h14.2l0.5-1.5
		c0.6-2,1.8-3.7,3.4-4.9c1.6-1.2,3.6-1.9,5.7-1.9s4,0.7,5.7,1.9c1.6,1.2,2.8,2.9,3.4,4.9l0.5,1.5h14.2v14.2l1.5,0.5
		c2,0.6,3.7,1.8,4.9,3.4c1.2,1.6,1.9,3.6,1.9,5.7s-0.7,4-1.9,5.7C65.4,550.8,63.7,552,61.7,552.6L61.7,552.6z"/>
	<path class="st1" d="M70.2,535.1c-1.4-1.9-3.3-3.4-5.4-4.4v-15.5H49.3c-1-2.1-2.5-4-4.4-5.4c-2.4-1.8-5.4-2.8-8.4-2.8h0
		c-3,0-6,1-8.4,2.8c-1.9,1.4-3.4,3.3-4.4,5.4H8.2v15.5c-2.1,1-4,2.5-5.4,4.4C1,537.5,0,540.5,0,543.5s1,6,2.8,8.4
		c1.4,1.9,3.3,3.4,5.4,4.4v15.5h15.5c1,2.1,2.5,4,4.4,5.4c2.4,1.8,5.4,2.8,8.4,2.8s6-1,8.4-2.8c1.9-1.4,3.4-3.3,4.4-5.4h15.5v-15.5
		c2.1-1,4-2.5,5.4-4.4c1.8-2.4,2.8-5.4,2.8-8.4v0C73,540.4,72,537.5,70.2,535.1z M69.9,551.7c-1.4,1.9-3.3,3.4-5.5,4.3v15.4H49.1
		c-1,2.2-2.4,4-4.3,5.5c-2.4,1.8-5.3,2.7-8.2,2.7s-5.9-1-8.2-2.7c-1.9-1.4-3.4-3.3-4.3-5.5H8.6v-15.4c-2.2-1-4-2.4-5.5-4.3
		c-1.8-2.4-2.7-5.3-2.7-8.2s1-5.9,2.7-8.2c1.4-1.9,3.3-3.4,5.5-4.3v-15.4h15.4c1-2.2,2.4-4,4.3-5.5c2.4-1.8,5.3-2.8,8.2-2.8
		s5.9,1,8.2,2.8c1.9,1.4,3.4,3.3,4.3,5.5h15.4v15.4c2.2,1,4,2.4,5.5,4.3c1.8,2.4,2.8,5.3,2.8,8.2S71.7,549.4,69.9,551.7L69.9,551.7z
		"/>
	<path class="st1" d="M69.9,535.3c-1.4-1.9-3.3-3.4-5.5-4.3v-15.4H49.1c-1-2.2-2.4-4-4.3-5.5c-2.4-1.8-5.3-2.8-8.2-2.8
		s-5.9,1-8.2,2.8c-1.9,1.4-3.4,3.3-4.3,5.5H8.6v15.4c-2.2,1-4,2.4-5.5,4.3c-1.8,2.4-2.8,5.3-2.8,8.2s1,5.9,2.8,8.2
		c1.4,1.9,3.3,3.4,5.5,4.3v15.4h15.4c1,2.2,2.4,4.1,4.3,5.5c2.4,1.8,5.3,2.7,8.2,2.7s5.9-1,8.2-2.7c1.9-1.4,3.4-3.3,4.3-5.5h15.4
		v-15.4c2.2-1,4.1-2.4,5.5-4.3c1.8-2.4,2.7-5.3,2.7-8.2S71.7,537.6,69.9,535.3L69.9,535.3z M69.6,551.5c-1.4,1.9-3.3,3.4-5.5,4.3
		v15.3H48.8c-0.9,2.2-2.4,4.1-4.3,5.5c-2.3,1.7-5.1,2.7-8,2.7s-5.7-0.9-8-2.7c-1.9-1.4-3.4-3.3-4.3-5.5H8.9v-15.3
		c-2.2-0.9-4.1-2.4-5.5-4.3c-1.7-2.3-2.7-5.1-2.7-8s0.9-5.7,2.7-8c1.4-1.9,3.3-3.4,5.5-4.3v-15.3h15.3c0.9-2.2,2.4-4.1,4.3-5.5
		c2.3-1.7,5.1-2.7,8-2.7s5.7,0.9,8,2.7c1.9,1.4,3.4,3.3,4.3,5.5h15.3v15.3c2.2,0.9,4.1,2.4,5.5,4.3c1.7,2.3,2.7,5.1,2.7,8
		S71.4,549.2,69.6,551.5L69.6,551.5z"/>
	<path class="st1" d="M61.2,536l-2.6-0.8v-13.8H44.8l-0.8-2.6c-0.5-1.6-1.5-3-2.8-4c-1.4-1-3-1.5-4.7-1.5s-3.3,0.5-4.7,1.5
		c-1.4,1-2.4,2.4-2.8,4l-0.8,2.6H14.4v13.8l-2.6,0.8c-1.6,0.5-3,1.5-4,2.8c-1,1.4-1.5,3-1.5,4.7s0.5,3.3,1.5,4.7
		c1,1.4,2.4,2.4,4,2.8l2.6,0.8v13.8h13.8l0.8,2.6c0.5,1.6,1.5,3,2.8,4c1.4,1,3,1.5,4.7,1.5s3.3-0.5,4.7-1.5c1.4-1,2.4-2.4,2.8-4
		l0.8-2.6h13.8v-13.8l2.6-0.8c1.6-0.5,3-1.5,4-2.8c1-1.4,1.5-3,1.5-4.7s-0.5-3.3-1.5-4.7C64.3,537.5,62.8,536.5,61.2,536z
		 M60.8,549.7l-3.6,1.1v13l1.2,1.2v0v0.4H58l-1.2-1.2h-13l-1.1,3.6c-0.4,1.3-1.2,2.5-2.3,3.3c-1.1,0.8-2.5,1.3-3.8,1.3
		c-1.4,0-2.7-0.5-3.8-1.3c-1.1-0.8-1.9-2-2.3-3.3l-1.1-3.6h-13l-1.2,1.2h-0.4V565l1.2-1.2v-13l-3.6-1.1c-1.3-0.4-2.5-1.2-3.3-2.3
		c-0.8-1.1-1.3-2.5-1.3-3.8s0.5-2.7,1.3-3.8c0.8-1.1,2-1.9,3.3-2.3l3.6-1.1v-13l-1.2-1.2l0,0v-0.4H15l1.2,1.2h13l1.1-3.6
		c0.4-1.3,1.2-2.5,2.3-3.3c1.1-0.8,2.5-1.3,3.8-1.3c1.4,0,2.7,0.5,3.8,1.3c1.1,0.8,1.9,2,2.3,3.3l1.1,3.6h13l1.2-1.2h0.4v0.4
		l-1.2,1.2v13l3.6,1.1c1.3,0.4,2.5,1.2,3.3,2.3c0.8,1.1,1.3,2.5,1.3,3.8s-0.5,2.7-1.3,3.8C63.3,548.5,62.2,549.3,60.8,549.7
		L60.8,549.7z"/>
	<path class="st1" d="M16.2,522.8l-1.2-1.2h-0.4v0.4l0,0l1.2,1.2v-0.4H16.2z"/>
	<path class="st1" d="M57.2,523.2l1.2-1.2v-0.4H58l-1.2,1.2h0.4V523.2z"/>
	<path class="st1" d="M56.8,564.2l1.2,1.2h0.4V565v0l-1.2-1.2v0.4H56.8z"/>
	<path class="st1" d="M15.8,563.8l-1.2,1.2v0.4H15l1.2-1.2h-0.4V563.8z"/>
	<path class="st0" d="M161.5,129.5c-3.2,0.6-6.2,2.1-8.5,4.4c-2.3,2.3-3.8,5.3-4.4,8.5c3.2-0.6,6.2-2.1,8.5-4.4
		C159.4,135.7,160.9,132.7,161.5,129.5z"/>
	<path class="st0" d="M145,126.8v18.2c1.9-2.7,2.9-5.8,2.9-9.1S146.9,129.5,145,126.8z"/>
	<path class="st0" d="M145.9,146h18.2c-2.7-1.9-5.8-2.9-9.1-2.9S148.6,144.1,145.9,146z"/>
	<path class="st0" d="M201.5,129.5c0.6,3.2,2.1,6.2,4.4,8.5c2.3,2.3,5.3,3.8,8.5,4.4c-0.6-3.2-2.1-6.2-4.4-8.5
		C207.7,131.6,204.7,130.1,201.5,129.5z"/>
	<path class="st0" d="M218,145.1v-18.2v0V145.1L218,145.1z"/>
	<path class="st0" d="M218,145.1v-18.2c-1.9,2.7-2.9,5.8-2.9,9.1S216.1,142.4,218,145.1z"/>
	<path class="st0" d="M198.8,146h18.2c-2.7-1.9-5.8-2.9-9.1-2.9S201.5,144.1,198.8,146z"/>
	<path class="st0" d="M214.4,76.6c-3.2,0.6-6.2,2.1-8.5,4.4c-2.3,2.3-3.8,5.3-4.4,8.5c3.2-0.6,6.2-2.1,8.5-4.4
		C212.3,82.8,213.8,79.8,214.4,76.6z"/>
	<path class="st0" d="M218,92.2L218,92.2V73.9v0V92.2z"/>
	<path class="st0" d="M215.1,83c0.1,3.2,1.1,6.4,2.9,9.1V74C216.2,76.7,215.2,79.8,215.1,83z"/>
	<path class="st0" d="M217.1,73h-18.2c2.7,1.9,5.8,2.9,9.1,2.9S214.4,74.9,217.1,73z"/>
	<path class="st0" d="M161.5,89.5c-0.6-3.2-2.1-6.2-4.4-8.5c-2.3-2.3-5.3-3.8-8.5-4.4c0.6,3.2,2.1,6.2,4.4,8.5
		C155.3,87.4,158.3,88.9,161.5,89.5z"/>
	<path class="st0" d="M145,73.9v18.2c1.9-2.7,2.9-5.8,2.9-9.1S146.9,76.6,145,73.9z"/>
	<path class="st0" d="M164.2,73h-18.2c2.7,1.9,5.8,2.9,9.1,2.9S161.5,74.9,164.2,73z"/>
	<path class="st0" d="M181.5,104.8c0,0,11.8-9.2,11.8-17.3c0-1.3-0.4-2.5-1.2-3.6s-1.8-1.8-3.1-2.2c-1.2-0.4-2.5-0.3-3.8,0.1
		c-1.2,0.4-2.2,1.2-3,2.3c-0.3,5.9,3.2,6.6,4.2,6.6c3.2,0,3.8-2.3,3.8-2.3c0.7,1.3,0.7,6.3-4.2,6.3c-0.6,0-1.1-0.1-1.6-0.4
		c-0.5-0.3-0.9-0.7-1.1-1.2l0,0c0.5,0.9,0.8,1.8,0.8,2.8c-0.1,1.2-0.6,2.3-1.4,3.1c-0.4,0.6-1.3,1.6-1.3,1.6s-0.9-1-1.3-1.6
		c-0.8-0.9-1.3-1.9-1.4-3.1c0.1-1,0.3-1.9,0.8-2.8l0,0c-0.3,0.5-0.7,0.9-1.1,1.2c-0.5,0.3-1.1,0.4-1.6,0.4c-4.9,0-4.9-5-4.2-6.3
		c0,0,0.6,2.3,3.8,2.3c1,0,4.5-0.7,4.2-6.6c-0.7-1.1-1.8-1.9-3-2.3c-1.2-0.4-2.5-0.5-3.8-0.1c-1.2,0.4-2.3,1.1-3.1,2.2
		s-1.2,2.3-1.2,3.6C169.7,95.6,181.5,104.8,181.5,104.8z"/>
	<path class="st0" d="M181.5,114.2c0,0-11.8,9.2-11.8,17.3c0,1.3,0.4,2.5,1.2,3.6s1.8,1.8,3.1,2.2c1.2,0.4,2.5,0.3,3.8-0.1
		c1.2-0.4,2.2-1.2,3-2.3c0.3-5.9-3.2-6.6-4.2-6.6c-3.2,0-3.8,2.3-3.8,2.3c-0.7-1.3-0.7-6.3,4.2-6.3c0.6,0,1.1,0.1,1.6,0.4
		c0.5,0.3,0.9,0.7,1.1,1.2l0,0c-0.5-0.9-0.8-1.8-0.8-2.8c0.1-1.2,0.6-2.3,1.4-3.1c0.4-0.6,1.3-1.6,1.3-1.6s0.9,1,1.3,1.6
		c0.8,0.8,1.3,1.9,1.4,3.1c-0.1,1-0.3,1.9-0.8,2.8l0,0c0.3-0.5,0.6-0.9,1.1-1.2c0.5-0.3,1.1-0.4,1.6-0.4c4.9,0,4.9,5,4.2,6.3
		c0,0-0.6-2.3-3.8-2.3c-1,0-4.5,0.7-4.2,6.6c0.7,1.1,1.8,1.9,3,2.3c1.2,0.4,2.5,0.5,3.8,0.1c1.2-0.4,2.3-1.1,3.1-2.2
		s1.2-2.3,1.2-3.6C193.3,123.4,181.5,114.2,181.5,114.2z"/>
	<path class="st0" d="M176.8,109.5c0,0-9.2-11.8-17.3-11.8c-1.3,0-2.5,0.4-3.6,1.2c-1,0.8-1.8,1.8-2.2,3.1c-0.4,1.2-0.3,2.5,0.1,3.7
		c0.4,1.2,1.2,2.3,2.3,3c5.9,0.3,6.6-3.2,6.6-4.2c0-3.2-2.3-3.8-2.3-3.8c1.3-0.7,6.3-0.7,6.3,4.2c0,0.6-0.1,1.1-0.4,1.6
		c-0.3,0.5-0.7,0.9-1.2,1.1l0,0c0.9-0.5,1.8-0.7,2.8-0.8c1.2,0.1,2.3,0.6,3.1,1.4c0.6,0.4,1.6,1.3,1.6,1.3s-1,0.9-1.6,1.3
		c-0.9,0.8-1.9,1.3-3.1,1.4c-1-0.1-1.9-0.3-2.8-0.8l0,0c0.5,0.3,0.9,0.7,1.2,1.1c0.3,0.5,0.4,1,0.4,1.6c0,4.9-5,4.9-6.3,4.2
		c0,0,2.3-0.6,2.3-3.8c0-1-0.7-4.5-6.6-4.2c-1,0.7-1.9,1.8-2.3,3c-0.4,1.2-0.5,2.5-0.1,3.7c0.4,1.2,1.1,2.3,2.2,3.1s2.3,1.2,3.6,1.2
		C167.6,121.3,176.8,109.5,176.8,109.5z"/>
	<path class="st0" d="M186.2,109.5c0,0,9.2,11.8,17.3,11.8c1.3,0,2.5-0.4,3.6-1.2s1.8-1.8,2.2-3.1c0.4-1.2,0.3-2.5-0.1-3.7
		c-0.4-1.2-1.2-2.3-2.3-3c-5.9-0.3-6.6,3.2-6.6,4.2c0,3.2,2.3,3.8,2.3,3.8c-1.3,0.7-6.3,0.7-6.3-4.2c0-0.6,0.1-1.1,0.4-1.6
		c0.3-0.5,0.7-0.9,1.2-1.1l0,0c-0.9,0.5-1.8,0.8-2.8,0.8c-1.2-0.1-2.3-0.6-3.1-1.4c-0.6-0.4-1.6-1.3-1.6-1.3s1-0.9,1.6-1.3
		c0.9-0.8,1.9-1.3,3.1-1.4c1,0.1,1.9,0.3,2.8,0.8l0,0c-0.5-0.3-0.9-0.7-1.2-1.1c-0.3-0.5-0.4-1-0.4-1.6c0-4.9,5-4.9,6.3-4.2
		c0,0-2.3,0.6-2.3,3.8c0,1,0.7,4.5,6.6,4.2c1.1-0.7,1.9-1.8,2.3-3c0.4-1.2,0.5-2.5,0.1-3.7c-0.4-1.2-1.1-2.3-2.2-3.1
		s-2.3-1.2-3.6-1.2C195.4,97.7,186.2,109.5,186.2,109.5z"/>
	<path class="st0" d="M203.2,126.1c1.9,0,3.8-0.5,5.5-1.5c1.7-1,3.1-2.4,4-4.1c0.9-1.7,1.4-3.6,1.4-5.5c0-1.9-0.6-3.8-1.6-5.5
		c1-1.7,1.6-3.6,1.6-5.5c0-1.9-0.4-3.9-1.4-5.6c-1-1.7-2.3-3.1-4-4.1c-1.7-1-3.6-1.5-5.5-1.5c-2.3,0-4.5,0.5-6.5,1.5
		c0.9-2,1.4-4.3,1.5-6.5c0-1.9-0.5-3.8-1.5-5.5c-1-1.7-2.4-3.1-4.1-4c-1.7-1-3.6-1.4-5.6-1.4c-1.9,0-3.8,0.6-5.5,1.6
		c-1.7-1-3.6-1.6-5.5-1.6c-1.9,0-3.9,0.4-5.6,1.4c-1.7,1-3.1,2.3-4.1,4c-1,1.7-1.5,3.6-1.5,5.5c0,2.2,0.6,4.5,1.5,6.5
		c-2-0.9-4.3-1.4-6.5-1.5c-1.9,0-3.8,0.5-5.5,1.5c-1.7,1-3.1,2.4-4,4.1c-0.9,1.7-1.4,3.6-1.4,5.5c0,1.9,0.6,3.8,1.6,5.5
		c-1,1.7-1.6,3.6-1.6,5.5c0,1.9,0.4,3.9,1.4,5.5c1,1.7,2.3,3.1,4,4.1c1.7,1,3.6,1.5,5.5,1.5c2.3,0,4.5-0.5,6.5-1.5
		c-0.9,2-1.4,4.3-1.5,6.5c0,1.9,0.5,3.8,1.5,5.5c1,1.7,2.4,3.1,4.1,4c1.7,1,3.6,1.4,5.6,1.4c1.9,0,3.8-0.6,5.5-1.6
		c1.7,1,3.6,1.6,5.5,1.6c1.9,0,3.8-0.4,5.5-1.4c1.7-1,3.1-2.3,4.1-4c1-1.7,1.5-3.6,1.5-5.5c0-2.2-0.5-4.5-1.5-6.5
		C198.7,125.6,200.9,126.1,203.2,126.1z M196.8,131.1c0,1.7-0.5,3.4-1.3,4.9c-0.9,1.5-2.1,2.7-3.7,3.5c-1.5,0.8-3.2,1.2-4.9,1.2
		c-1.7-0.1-3.4-0.6-4.9-1.5l-0.5-0.3l-0.5,0.3c-1.5,0.9-3.1,1.4-4.9,1.5c-1.7,0.1-3.4-0.4-4.9-1.2s-2.8-2.1-3.7-3.5
		c-0.9-1.5-1.3-3.2-1.3-4.9c0-2.3,0.6-4.6,1.7-6.6l0.8-1.7c-0.1,0-0.2-0.1-0.3-0.2c-0.1-0.1-0.1-0.2-0.2-0.3l-1.7,0.8
		c-2.1,1-4.3,1.6-6.6,1.7c-1.7,0-3.4-0.5-4.9-1.3c-1.5-0.9-2.7-2.1-3.5-3.7c-0.8-1.5-1.2-3.2-1.2-4.9c0.1-1.7,0.6-3.4,1.5-4.9
		l0.3-0.5l-0.3-0.5c-0.9-1.5-1.4-3.1-1.5-4.9c-0.1-1.7,0.4-3.4,1.2-4.9c0.8-1.5,2.1-2.8,3.5-3.6c1.5-0.9,3.2-1.3,4.9-1.3
		c2.3,0.1,4.6,0.6,6.6,1.7l1.7,0.8c0-0.1,0.1-0.2,0.2-0.3c0.1-0.1,0.2-0.1,0.3-0.2l-0.8-1.7c-1-2.1-1.6-4.3-1.7-6.6
		c0-1.7,0.5-3.4,1.3-4.9c0.9-1.5,2.1-2.7,3.7-3.5s3.2-1.2,4.9-1.2c1.7,0.1,3.4,0.6,4.9,1.5l0.5,0.3l0.5-0.3c1.5-0.9,3.1-1.4,4.9-1.5
		c1.7-0.1,3.4,0.4,4.9,1.2c1.5,0.8,2.8,2.1,3.7,3.5c0.9,1.5,1.3,3.2,1.3,4.9c-0.1,2.3-0.6,4.6-1.7,6.6l-0.8,1.7
		c0.1,0,0.2,0.1,0.3,0.2c0.1,0.1,0.1,0.2,0.2,0.3l1.7-0.8c2.1-1,4.3-1.6,6.6-1.7c1.7,0,3.4,0.5,4.9,1.3c1.5,0.9,2.7,2.1,3.5,3.6
		c0.8,1.5,1.2,3.2,1.2,4.9c-0.1,1.7-0.6,3.4-1.5,4.9l-0.3,0.5l0.3,0.5c0.9,1.5,1.4,3.1,1.5,4.9c0,1.7-0.4,3.4-1.2,4.9
		c-0.8,1.5-2.1,2.8-3.5,3.6c-1.5,0.9-3.2,1.3-4.9,1.3c-2.3-0.1-4.6-0.6-6.6-1.7l-1.7-0.8c0,0.1-0.1,0.2-0.2,0.3
		c-0.1,0.1-0.2,0.1-0.3,0.2l0.8,1.7C196.2,126.6,196.8,128.8,196.8,131.1z"/>
	<path class="st0" d="M168.3,98.1c0.5,0.5,2.3,0.6,2.3,0.6s-0.1-1.8-0.6-2.3c-0.2-0.2-0.4-0.3-0.7-0.3s-0.5,0-0.8,0.1l0.4,0.9
		l-0.9-0.4c-0.1,0.2-0.2,0.5-0.1,0.8C168.1,97.6,168.2,97.9,168.3,98.1z"/>
	<path class="st0" d="M168.6,96.2c-0.1,0-0.2,0.1-0.3,0.2c-0.1,0.1-0.1,0.2-0.2,0.3l0.9,0.4L168.6,96.2z"/>
	<path class="st0" d="M194.7,120.9c-0.5-0.5-2.3-0.6-2.3-0.6s0.1,1.8,0.6,2.3c0.2,0.2,0.4,0.3,0.7,0.3c0.3,0,0.5,0,0.8-0.1l-0.4-0.9
		l0.9,0.4c0.1-0.2,0.2-0.5,0.2-0.8C194.9,121.4,194.8,121.1,194.7,120.9z"/>
	<path class="st0" d="M194.4,122.8c0.1,0,0.2-0.1,0.3-0.2c0.1-0.1,0.1-0.2,0.2-0.3l-0.9-0.4L194.4,122.8z"/>
	<path class="st0" d="M170.1,122.6c0.5-0.5,0.6-2.3,0.6-2.3s-1.8,0.1-2.3,0.6c-0.2,0.2-0.3,0.4-0.3,0.7c0,0.3,0,0.5,0.1,0.8l0.9-0.4
		l-0.4,0.9c0.2,0.1,0.5,0.2,0.8,0.1S169.9,122.8,170.1,122.6z"/>
	<path class="st0" d="M168.2,122.4c0,0.1,0.1,0.2,0.2,0.3c0.1,0.1,0.2,0.1,0.3,0.2l0.4-0.9L168.2,122.4z"/>
	<path class="st0" d="M192.9,96.4c-0.5,0.5-0.6,2.3-0.6,2.3s1.8-0.1,2.3-0.6c0.2-0.2,0.3-0.4,0.3-0.7c0-0.3,0-0.5-0.1-0.8l-0.9,0.4
		l0.4-0.9c-0.2-0.1-0.5-0.2-0.8-0.1C193.3,96,193.1,96.2,192.9,96.4z"/>
	<path class="st0" d="M194.8,96.6c0-0.1-0.1-0.2-0.2-0.3c-0.1-0.1-0.2-0.1-0.3-0.2l-0.4,0.9L194.8,96.6z"/>
	<path class="st0" d="M178,73.1L178,73.1L178,73.1l0,0.1l0,0.1l0,0.1l0,0.1l0,0.1l0.1,0.1l0,0.1l0.1,0.1l0.1,0l0.1,0l0.1,0l0,0l0,0
		l0,0c0.5,0.1,0.9,0.4,1.2,0.7c0.4,0.3,0.6,0.7,0.8,1.2v0.2l0.1,0.1l0,0.1l0,0l0.1,0.1l0,0l0.1,0.1l0,0l0.1,0.1l0,0l0.1,0l0,0l0.1,0
		l0.1,0l0.1,0l0.1,0l0,0l0.1,0l0,0l0.1,0l0,0l0.1-0.1l0,0c0.1-0.1,0.2-0.3,0.3-0.4l0-0.1c0.2-0.5,0.4-0.9,0.8-1.2
		c0.4-0.3,0.8-0.6,1.3-0.7l0,0l0.1,0l0,0l0.1-0.1l0,0c0.1-0.1,0.2-0.2,0.2-0.3c0.1-0.1,0.1-0.3,0.1-0.4h-1.6c-0.8,0.4-1.5,1.1-2,1.9
		c-0.4-0.8-1.1-1.5-2-1.9h-1.6L178,73.1L178,73.1z"/>
	<path class="st0" d="M185,145.9L185,145.9L185,145.9l0-0.1l0-0.1l0-0.1l0-0.1l0-0.1l-0.1-0.1l0-0.1l-0.1-0.1l-0.1,0l-0.1,0l-0.1,0
		l0,0l0,0l0,0c-0.5-0.1-0.9-0.4-1.2-0.7c-0.4-0.3-0.6-0.7-0.8-1.2v-0.2l-0.1-0.1l0-0.1l0,0l-0.1-0.1l0,0l-0.1-0.1l0,0l-0.1-0.1l0,0
		l-0.1,0l0,0l-0.1,0l-0.2,0l-0.1,0l-0.1,0l0,0l-0.1,0l0,0l-0.1,0l0,0l-0.1,0.1l0,0c-0.1,0.1-0.2,0.3-0.3,0.4l0,0.1
		c-0.2,0.5-0.4,0.9-0.8,1.2c-0.4,0.3-0.8,0.6-1.3,0.7l-0.1,0l-0.1,0l0,0l-0.1,0.1l0,0c-0.1,0.1-0.2,0.2-0.2,0.3
		c-0.1,0.1-0.1,0.3-0.1,0.4h1.6c0.8-0.4,1.5-1.1,2-1.9c0.4,0.8,1.1,1.5,2,1.9h1.6L185,145.9L185,145.9z"/>
	<path class="st0" d="M145.1,113L145.1,113L145.1,113l0.1,0l0.1,0l0.1,0l0.1,0l0.1,0l0.1,0l0.1-0.1l0-0.1l0.1-0.1l0-0.1l0-0.1l0,0
		l0,0l0,0c0.1-0.5,0.4-0.9,0.7-1.2c0.3-0.3,0.7-0.6,1.2-0.8h0.2l0.1-0.1l0.1,0l0.1,0l0.1-0.1l0,0l0.1-0.1l0,0l0.1-0.1l0,0l0.1-0.1v0
		l0-0.1l0-0.1l0-0.1l0-0.1v0l0-0.1l0-0.1l0-0.1l0,0l-0.1-0.1l0,0c-0.1-0.1-0.3-0.2-0.4-0.3l-0.1,0c-0.5-0.1-0.9-0.4-1.2-0.8
		c-0.3-0.4-0.6-0.8-0.7-1.3l0-0.1l0-0.1l0,0l-0.1-0.1l0,0c-0.1-0.1-0.2-0.2-0.3-0.2c-0.1-0.1-0.3-0.1-0.4-0.1v1.6
		c0.5,0,1,0.2,1.4,0.6c0.3,0.4,0.6,0.9,0.6,1.4s-0.2,1-0.6,1.4c-0.4,0.4-0.8,0.6-1.4,0.6v1.6L145.1,113L145.1,113z"/>
	<path class="st0" d="M218,113.1v-1.6v0V113.1L218,113.1z"/>
	<path class="st0" d="M218,107.5V106l0,0V107.5L218,107.5z"/>
	<path class="st0" d="M217.9,106L217.9,106L217.9,106l-0.1,0l-0.1,0l-0.1,0l-0.1,0l-0.1,0l-0.1,0l-0.1,0.1l-0.1,0.1l0,0.1l0,0.1
		l0,0.1l0,0l0,0l0,0c-0.1,0.5-0.4,0.9-0.7,1.2c-0.3,0.3-0.7,0.6-1.2,0.8h-0.2l-0.1,0.1l-0.1,0l-0.1,0l-0.1,0.1l0,0l-0.1,0.1l0,0
		l-0.1,0.1l0,0l-0.1,0.1v0l0,0.1l0,0.1l0,0.1l0,0.1v0l0,0.1l0,0.1l0,0.1l0,0l0.1,0.1l0,0c0.1,0.1,0.3,0.2,0.4,0.3l0.1,0
		c0.5,0.1,0.9,0.4,1.2,0.8c0.3,0.4,0.6,0.8,0.7,1.3l0,0.1l0,0.1l0,0l0.1,0.1l0,0c0.1,0.1,0.2,0.2,0.3,0.2c0.1,0.1,0.3,0.1,0.4,0.1
		v-1.6c-0.5,0-1-0.2-1.4-0.6c-0.3-0.4-0.6-0.9-0.6-1.4s0.2-1,0.6-1.4c0.4-0.4,0.8-0.6,1.4-0.6V106L217.9,106L217.9,106z"/>
	<path class="st1" d="M88.1,19.4c0.9,0,1.7,0.1,2.6,0.2c-0.4-2.4-0.2-4.9,0.5-7.3C91.8,10,93,7.8,94.6,6c1.6-1.9,3.6-3.4,5.8-4.4
		c2.2-1,4.7-1.6,7.1-1.6H91.8c0,0.5-0.1,1-0.3,1.5C91.3,2,91,2.4,90.7,2.8s-0.8,0.7-1.3,0.9c-0.5,0.2-1,0.3-1.5,0.3
		c-2.2,0-13.2-1.8-13.2-4H71v36.5c0-4.5,1.8-8.9,5-12C79.2,21.3,83.5,19.5,88.1,19.4z M85.4,12.7c0.2,0.2,0.3,0.4,0.3,0.6
		c0,0.2,0,0.5-0.1,0.7c-0.1,0.2-0.3,0.4-0.5,0.6c-0.2,0.1-0.4,0.2-0.7,0.2c-0.2,0-0.5-0.1-0.7-0.2c-0.2-0.1-0.4-0.3-0.5-0.6
		c-0.1-0.2-0.1-0.5-0.1-0.7c0.1-0.2,0.2-0.5,0.3-0.6c0.2-0.2,0.5-0.4,0.9-0.4C84.9,12.3,85.2,12.4,85.4,12.7L85.4,12.7z M71,0h1.8
		c0,0.2-0.1,0.5-0.1,0.7c-0.1,0.2-0.2,0.4-0.4,0.6c-0.2,0.2-0.3,0.3-0.6,0.4c-0.2,0.1-0.4,0.1-0.7,0.1V0z M71,20.8V3.6
		c2.2,0,3.9,11.1,3.9,13.2c0,0.5-0.1,1-0.3,1.5c-0.2,0.5-0.5,0.9-0.8,1.3c-0.4,0.4-0.8,0.7-1.3,0.9C72,20.7,71.5,20.8,71,20.8
		L71,20.8z M75.3,4.3c0.8-0.8,6.7,3.2,7.6,4.1c0.5,0.5,0.7,1.1,0.7,1.8c0,0.7-0.3,1.3-0.7,1.8c-0.5,0.5-1.1,0.7-1.8,0.7
		s-1.3-0.3-1.8-0.7C78.4,10.9,74.5,5.1,75.3,4.3z"/>
	<path class="st1" d="M88,50.5c1.4,0,2.8-0.2,4.2-0.6l0.6-0.2c0-0.2,0.2-0.4,0.3-0.6c0.2-0.2,0.6-0.4,0.9-0.4c0.3,0,0.7,0.1,0.9,0.4
		c0.2,0.2,0.4,0.6,0.4,0.9s-0.1,0.6-0.4,0.9c-0.2,0.1-0.3,0.3-0.6,0.3l-0.2,0.6c-0.7,2.1-0.8,4.3-0.4,6.5c0.4,2.2,1.2,4.2,2.5,6
		c1.3,1.8,3,3.2,5,4.2c2,1,4.1,1.5,6.3,1.5s4.4-0.5,6.3-1.5c2-1,3.7-2.4,5-4.2c1.3-1.8,2.2-3.8,2.5-6c0.4-2.2,0.2-4.4-0.4-6.5
		l-0.2-0.6c-0.2,0-0.4-0.2-0.6-0.3c-0.2-0.2-0.4-0.6-0.4-0.9c0-0.3,0.1-0.6,0.4-0.9c0.2-0.2,0.5-0.4,0.9-0.4c0.3,0,0.6,0.1,0.9,0.4
		c0.1,0.2,0.3,0.4,0.3,0.6l0.6,0.2c2.1,0.6,4.3,0.8,6.5,0.4c2.2-0.4,4.2-1.2,6-2.5c1.8-1.3,3.2-3,4.2-5c1-2,1.5-4.1,1.5-6.3
		c0-2.2-0.5-4.4-1.5-6.3c-1-2-2.4-3.7-4.2-5c-1.8-1.3-3.8-2.2-6-2.5c-2.2-0.4-4.4-0.2-6.5,0.4l-0.6,0.2c0,0.2-0.2,0.4-0.3,0.6
		c-0.1,0.1-0.3,0.2-0.4,0.3s-0.3,0.1-0.5,0.1c-0.2,0-0.3,0-0.5-0.1c-0.2-0.1-0.3-0.2-0.4-0.3c-0.1-0.1-0.2-0.3-0.3-0.4
		c-0.1-0.2-0.1-0.3-0.1-0.5c0-0.2,0-0.3,0.1-0.5c0.1-0.2,0.2-0.3,0.3-0.4c0.2-0.1,0.3-0.3,0.6-0.3l0.2-0.6c0.7-2.1,0.8-4.3,0.4-6.5
		c-0.4-2.2-1.2-4.2-2.5-6c-1.3-1.8-3-3.2-5-4.2c-2-1-4.1-1.5-6.3-1.5s-4.4,0.5-6.3,1.5c-2,1-3.7,2.4-5,4.2c-1.3,1.8-2.2,3.8-2.5,6
		c-0.4,2.2-0.2,4.4,0.4,6.5l0.2,0.6c0.2,0,0.4,0.2,0.6,0.3c0.1,0.1,0.2,0.3,0.3,0.4c0.1,0.2,0.1,0.3,0.1,0.5c0,0.2,0,0.3-0.1,0.5
		c-0.1,0.2-0.2,0.3-0.3,0.4c-0.1,0.1-0.3,0.2-0.4,0.3c-0.2,0.1-0.3,0.1-0.5,0.1c-0.2,0-0.3,0-0.5-0.1s-0.3-0.2-0.4-0.3
		c-0.1-0.2-0.3-0.4-0.3-0.6l-0.6-0.2c-1.9-0.6-4-0.8-6-0.5c-2,0.3-3.9,0.9-5.6,2c-1.7,1.1-3.2,2.5-4.3,4.2c-1.1,1.7-1.9,3.6-2.2,5.6
		c-0.3,2-0.2,4,0.4,6c0.5,1.9,1.5,3.7,2.8,5.3c1.3,1.5,2.9,2.8,4.8,3.6C84,50.1,86,50.5,88,50.5z M99.1,48.4
		c-0.5,0.5-1.1,0.7-1.8,0.7s-1.3-0.3-1.8-0.7c-0.5-0.5-0.7-1.1-0.7-1.8c0-0.7,0.3-1.3,0.7-1.8c1-1,6.8-4.9,7.6-4.1
		C104,41.6,100.1,47.4,99.1,48.4z M107.5,57.3c-1.1,0-2.1-0.4-2.8-1.2c-0.7-0.7-1.1-1.7-1.1-2.8c0-2.2,1.8-13.2,3.9-13.2
		s3.9,11.1,3.9,13.2c0,0.5-0.1,1-0.3,1.5c-0.2,0.5-0.5,0.9-0.9,1.3c-0.4,0.4-0.8,0.7-1.3,0.9C108.5,57.2,108,57.3,107.5,57.3z
		 M105.7,36.5c0-0.3,0.1-0.7,0.3-1c0.2-0.3,0.5-0.5,0.8-0.6c0.3-0.1,0.7-0.2,1-0.1c0.3,0.1,0.7,0.2,0.9,0.5c0.3,0.2,0.4,0.6,0.5,0.9
		c0.1,0.3,0,0.7-0.1,1c-0.1,0.3-0.4,0.6-0.7,0.8c-0.3,0.2-0.6,0.3-1,0.3c-0.2,0-0.5,0-0.7-0.1c-0.2-0.1-0.4-0.2-0.6-0.4
		c-0.2-0.2-0.3-0.4-0.4-0.6C105.8,37,105.7,36.7,105.7,36.5z M119.4,48.4c-0.5,0.5-1.1,0.7-1.8,0.7s-1.3-0.3-1.8-0.7
		c-1-1-4.9-6.8-4.1-7.6s6.7,3.2,7.6,4.1c0.2,0.2,0.4,0.5,0.5,0.8c0.1,0.3,0.2,0.6,0.2,1c0,0.3-0.1,0.6-0.2,0.9
		C119.8,47.9,119.6,48.2,119.4,48.4z M124.4,32.5c1.1,0,2.1,0.4,2.8,1.2c0.7,0.7,1.2,1.7,1.2,2.8c0,1-0.4,2.1-1.2,2.8
		c-0.7,0.7-1.7,1.2-2.8,1.2c-2.2,0-13.2-1.8-13.2-4C111.1,34.3,122.2,32.5,124.4,32.5z M115.9,24.6c0.2-0.2,0.5-0.4,0.8-0.5
		c0.3-0.1,0.6-0.2,1-0.2c0.3,0,0.7,0.1,0.9,0.2c0.3,0.1,0.6,0.3,0.8,0.5c0.2,0.2,0.4,0.5,0.5,0.8c0.1,0.3,0.2,0.6,0.2,1
		c0,0.3-0.1,0.6-0.2,1c-0.1,0.3-0.3,0.6-0.5,0.8c-1,1-6.8,4.9-7.6,4.1C111,31.5,114.9,25.6,115.9,24.6L115.9,24.6z M107.5,15.7
		c1.1,0,2.1,0.4,2.8,1.2c0.7,0.7,1.2,1.7,1.2,2.8c0,2.2-1.8,13.2-3.9,13.2s-3.9-11.1-3.9-13.2c0-1,0.4-2.1,1.1-2.8
		C105.4,16.1,106.4,15.7,107.5,15.7L107.5,15.7z M95.6,24.6c0.5-0.5,1.1-0.7,1.8-0.7s1.3,0.3,1.8,0.7c1,1,4.9,6.8,4.1,7.6
		c-0.8,0.8-6.7-3.2-7.6-4.1c-0.5-0.5-0.7-1.1-0.7-1.8C94.9,25.7,95.1,25.1,95.6,24.6L95.6,24.6z M90.6,32.5c2.2,0,13.2,1.8,13.2,4
		c0,2.2-11.1,4-13.2,4c-1.1,0-2.1-0.4-2.8-1.2c-0.7-0.7-1.2-1.7-1.2-2.8c0-1,0.4-2.1,1.2-2.8C88.6,33,89.6,32.5,90.6,32.5z"/>
	<path class="st1" d="M144,1.8c-0.5,0-0.9-0.2-1.3-0.5c-0.3-0.3-0.5-0.8-0.5-1.2h-1.9c0,2.2-11.1,4-13.2,4c-0.5,0-1-0.1-1.5-0.3
		c-0.5-0.2-0.9-0.5-1.3-0.9s-0.7-0.8-0.9-1.3c-0.2-0.5-0.3-1-0.3-1.5h-15.7c2.5,0,4.9,0.5,7.1,1.6c2.2,1,4.2,2.5,5.8,4.4
		c1.6,1.9,2.8,4.1,3.5,6.4c0.7,2.4,0.8,4.8,0.4,7.3c0.9-0.1,1.7-0.2,2.6-0.2c2.4,0,4.7,0.5,6.8,1.4c2.2,0.9,4.1,2.3,5.7,4
		c1.6,1.7,2.8,3.8,3.6,6c0.8,2.2,1.1,4.6,0.9,6.9c-0.2,2.3-0.8,4.6-1.9,6.7c-1.1,2.1-2.6,3.9-4.5,5.4c-1.8,1.5-4,2.5-6.2,3.1
		c-2.3,0.6-4.6,0.7-7,0.4c0.4,2.4,0.2,4.9-0.5,7.3c-0.7,2.4-1.9,4.5-3.5,6.4c-1.6,1.9-3.6,3.4-5.8,4.4c-2.2,1-4.7,1.6-7.1,1.6
		s-4.9-0.5-7.1-1.6s-4.2-2.5-5.8-4.4c-1.6-1.9-2.8-4.1-3.5-6.4c-0.7-2.4-0.8-4.8-0.5-7.3c-2.4,0.4-4.9,0.2-7.3-0.5
		c-2.4-0.7-4.6-1.9-6.4-3.5c-1.9-1.6-3.4-3.6-4.4-5.8c-1-2.2-1.6-4.7-1.6-7.1V73h73V0l0,0V1.8z M83.7,58.6c0.2-0.2,0.4-0.3,0.6-0.3
		c0.2,0,0.5,0,0.7,0.1c0.2,0.1,0.4,0.3,0.6,0.5c0.1,0.2,0.2,0.4,0.2,0.7c0,0.2-0.1,0.5-0.2,0.7c-0.1,0.2-0.3,0.4-0.6,0.5
		c-0.2,0.1-0.5,0.1-0.7,0.1c-0.2,0-0.5-0.2-0.6-0.3c-0.2-0.2-0.4-0.6-0.4-0.9C83.3,59.1,83.4,58.8,83.7,58.6z M79.4,61.1
		c0.5-0.5,1.1-0.7,1.8-0.7c0.7,0,1.3,0.3,1.8,0.7c0.5,0.5,0.7,1.1,0.7,1.8s-0.3,1.3-0.7,1.8c-1,1-6.8,4.9-7.6,4.1
		C74.5,67.9,78.4,62.1,79.4,61.1z M71,52.2c0.5,0,1,0.1,1.5,0.3c0.5,0.2,0.9,0.5,1.3,0.9c0.4,0.4,0.6,0.8,0.8,1.3
		c0.2,0.5,0.3,1,0.3,1.5c0,2.2-1.8,13.2-3.9,13.2V52.2z M71,73v-1.8c0.2,0,0.5,0,0.7,0.1c0.2,0.1,0.4,0.2,0.6,0.4
		c0.2,0.2,0.3,0.4,0.4,0.6c0.1,0.2,0.1,0.4,0.1,0.7H71z M74.6,73c0-2.2,11.1-4,13.2-4c1.1,0,2.1,0.4,2.8,1.2
		c0.7,0.7,1.2,1.7,1.2,2.8H74.6z M131.3,14.4c-0.2,0.2-0.4,0.3-0.6,0.3c-0.2,0-0.5,0-0.7-0.1c-0.2-0.1-0.4-0.3-0.6-0.5
		c-0.1-0.2-0.2-0.4-0.2-0.7c0-0.2,0.1-0.5,0.2-0.7c0.1-0.2,0.3-0.4,0.6-0.5c0.2-0.1,0.5-0.1,0.7-0.1c0.2,0,0.5,0.2,0.6,0.3
		c0.2,0.2,0.4,0.6,0.4,0.9C131.7,13.9,131.6,14.2,131.3,14.4z M135.6,11.9c-0.5,0.5-1.1,0.7-1.8,0.7s-1.3-0.3-1.8-0.7
		c-0.5-0.5-0.7-1.1-0.7-1.8c0-0.7,0.3-1.3,0.7-1.8c1-1,6.8-4.9,7.6-4.1S136.6,10.9,135.6,11.9z M144,52.2v17.2c-2.2,0-4-11.1-4-13.2
		c0-1,0.4-2.1,1.2-2.8C141.9,52.6,142.9,52.2,144,52.2z M135.6,61.1c1,1,4.9,6.8,4.1,7.6c-0.8,0.8-6.7-3.2-7.6-4.1
		c-0.2-0.2-0.4-0.5-0.5-0.8c-0.1-0.3-0.2-0.6-0.2-1s0.1-0.6,0.2-1c0.1-0.3,0.3-0.6,0.5-0.8c0.2-0.2,0.5-0.4,0.8-0.5
		c0.3-0.1,0.6-0.2,0.9-0.2c0.3,0,0.7,0.1,1,0.2C135.1,60.7,135.4,60.9,135.6,61.1z M129.6,58.6c0.2-0.2,0.4-0.3,0.6-0.3
		c0.2,0,0.5,0,0.7,0.1c0.2,0.1,0.4,0.3,0.6,0.5c0.1,0.2,0.2,0.4,0.2,0.7c0,0.2-0.1,0.5-0.2,0.7c-0.1,0.2-0.3,0.4-0.6,0.5
		c-0.2,0.1-0.5,0.1-0.7,0.1c-0.2,0-0.5-0.2-0.6-0.3c-0.2-0.2-0.4-0.6-0.4-0.9C129.2,59.1,129.3,58.8,129.6,58.6z M123.2,73
		c0-1,0.4-2.1,1.2-2.8c0.7-0.7,1.8-1.2,2.8-1.2c2.2,0,13.2,1.8,13.2,4H123.2z M144,73h-1.8c0-0.5,0.2-0.9,0.5-1.2
		c0.3-0.3,0.8-0.5,1.3-0.5V73z M144,20.8c-0.5,0-1-0.1-1.5-0.3c-0.5-0.2-0.9-0.5-1.3-0.9c-0.4-0.4-0.7-0.8-0.8-1.3
		c-0.2-0.5-0.3-1-0.3-1.5c0-2.2,1.8-13.2,4-13.2V20.8z"/>
</g>
</svg>
