<?xml version="1.0" encoding="utf-8"?>
<!-- Generator: Adobe Illustrator 22.1.0, SVG Export Plug-In . SVG Version: 6.00 Build 0)  -->
<svg version="1.1" id="Слой_1" xmlns="http://www.w3.org/2000/svg" xmlns:xlink="http://www.w3.org/1999/xlink" x="0px" y="0px"
	 viewBox="0 0 298 581" style="enable-background:new 0 0 298 581;" xml:space="preserve">
<style type="text/css">
	.st0{fill:#E7533B;}
	.st1{fill:#2C3B8C;}
	.st2{fill:#6678D6;}
</style>
<g>
	<g>
		<path class="st0" d="M111.9,107.1c-1.7,0-3.5-0.1-5.2-0.4c0.7,4.9,0.4,9.8-0.9,14.5c-1.4,4.7-3.7,9.1-6.9,12.8
			c-3.2,3.7-7.2,6.7-11.6,8.8c-4.5,2.1-9.3,3.1-14.2,3.1h31.3c0-1,0.2-2.1,0.6-3c0.4-0.9,1-1.8,1.7-2.6c0.7-0.7,1.6-1.3,2.6-1.7
			c1-0.4,2-0.6,3-0.6c4.4,0,26.5,3.5,26.5,7.9h7.2V73c0,9-3.6,17.7-10,24.1C129.6,103.5,120.9,107.1,111.9,107.1z M117.1,120.7
			c-0.4-0.4-0.6-0.8-0.7-1.3c-0.1-0.5,0-1,0.1-1.4c0.2-0.5,0.5-0.8,0.9-1.1c0.4-0.3,0.9-0.4,1.4-0.4c0.5,0,1,0.2,1.4,0.4
			c0.4,0.3,0.7,0.7,0.9,1.1c0.2,0.5,0.2,1,0.1,1.4c-0.1,0.5-0.3,0.9-0.7,1.3c-0.5,0.5-1.1,0.7-1.8,0.7
			C118.3,121.4,117.6,121.2,117.1,120.7z M146,146h-3.5c0-0.5,0.1-0.9,0.3-1.3c0.2-0.4,0.4-0.8,0.8-1.1c0.3-0.3,0.7-0.6,1.1-0.8
			c0.4-0.2,0.9-0.3,1.3-0.3V146z M146,104.4v34.4c-4.4,0-7.9-22.1-7.9-26.5c0-1,0.2-2.1,0.6-3c0.4-1,1-1.8,1.7-2.6
			c0.7-0.7,1.6-1.3,2.6-1.7C143.9,104.6,145,104.4,146,104.4z M137.5,137.5c-1.6,1.6-13.3-6.3-15.3-8.2c-0.5-0.5-0.8-1-1.1-1.6
			c-0.3-0.6-0.4-1.3-0.4-1.9c0-0.7,0.1-1.3,0.4-1.9c0.3-0.6,0.6-1.2,1.1-1.6c0.5-0.5,1-0.8,1.6-1.1s1.3-0.4,1.9-0.4
			c0.7,0,1.3,0.1,1.9,0.4s1.2,0.6,1.6,1.1C131.2,124.2,139.1,135.9,137.5,137.5z"/>
		<path class="st0" d="M112,44.9c-2.8,0-5.6,0.4-8.3,1.3l-1.2,0.4c-0.1,0.4-0.3,0.8-0.6,1.1c-0.2,0.2-0.5,0.4-0.8,0.5
			c-0.3,0.1-0.6,0.2-1,0.2c-0.3,0-0.7-0.1-1-0.2c-0.3-0.1-0.6-0.3-0.8-0.5c-0.2-0.2-0.4-0.5-0.5-0.8c-0.1-0.3-0.2-0.6-0.2-0.9
			c0-0.3,0.1-0.7,0.2-1c0.1-0.3,0.3-0.6,0.5-0.8c0.3-0.3,0.7-0.5,1.1-0.6l0.4-1.2c1.3-4.2,1.6-8.7,0.9-13c-0.7-4.3-2.5-8.4-5.1-12
			c-2.6-3.5-6-6.4-9.9-8.4c-3.9-2-8.3-3-12.7-3c-4.4,0-8.7,1-12.7,3s-7.3,4.9-9.9,8.4c-2.6,3.5-4.3,7.6-5.1,12
			c-0.7,4.3-0.4,8.8,0.9,13l0.4,1.2c0.4,0.1,0.8,0.3,1.1,0.6c0.2,0.2,0.4,0.5,0.5,0.8c0.1,0.3,0.2,0.6,0.2,1c0,0.3-0.1,0.7-0.2,1
			c-0.1,0.3-0.3,0.6-0.5,0.8c-0.2,0.2-0.5,0.4-0.8,0.5c-0.3,0.1-0.6,0.2-1,0.2c-0.3,0-0.7-0.1-1-0.2c-0.3-0.1-0.6-0.3-0.8-0.5
			c-0.3-0.3-0.5-0.7-0.6-1.1l-1.2-0.4c-4.2-1.3-8.6-1.6-13-0.9c-4.3,0.7-8.4,2.5-12,5.1c-3.5,2.6-6.4,6-8.4,9.9c-2,3.9-3,8.3-3,12.7
			c0,4.4,1,8.7,3,12.7c2,3.9,4.9,7.3,8.4,9.9c3.5,2.6,7.6,4.3,12,5.1c4.3,0.7,8.8,0.4,13-0.9l1.2-0.4c0.1-0.4,0.3-0.8,0.6-1.1
			c0.2-0.2,0.5-0.4,0.8-0.5c0.3-0.1,0.6-0.2,1-0.2s0.7,0.1,1,0.2c0.3,0.1,0.6,0.3,0.8,0.5c0.2,0.2,0.4,0.5,0.5,0.8
			c0.1,0.3,0.2,0.6,0.2,1c0,0.3-0.1,0.7-0.2,1c-0.1,0.3-0.3,0.6-0.5,0.8c-0.3,0.3-0.7,0.5-1.1,0.6l-0.4,1.2c-1.3,4.2-1.6,8.6-0.9,13
			c0.7,4.3,2.5,8.4,5.1,12c2.6,3.5,6,6.4,9.9,8.4c3.9,2,8.3,3,12.7,3c4.4,0,8.7-1,12.7-3c3.9-2,7.3-4.9,9.9-8.4
			c2.6-3.5,4.3-7.6,5.1-12c0.7-4.3,0.4-8.8-0.9-13l-0.4-1.2c-0.4-0.1-0.8-0.3-1.1-0.6c-0.5-0.5-0.7-1.1-0.7-1.8
			c0-0.7,0.3-1.3,0.7-1.8c0.5-0.5,1.1-0.7,1.8-0.7s1.3,0.3,1.8,0.7c0.3,0.3,0.5,0.7,0.6,1.1l1.2,0.4c3.9,1.2,7.9,1.6,11.9,1
			c4-0.5,7.9-1.9,11.3-4c3.4-2.1,6.3-5,8.6-8.4c2.2-3.4,3.7-7.2,4.3-11.2c0.6-4,0.3-8.1-0.8-12c-1.1-3.9-3.1-7.5-5.7-10.6
			c-2.6-3.1-5.9-5.5-9.6-7.2C120,45.8,116,44.9,112,44.9L112,44.9z M89.8,49.2c0.9-0.9,2.2-1.4,3.5-1.4s2.6,0.5,3.5,1.4
			c0.9,0.9,1.5,2.2,1.5,3.5c0,1.3-0.5,2.6-1.4,3.5c-1.9,1.9-13.7,9.8-15.3,8.3C79.9,62.9,87.8,51.2,89.8,49.2z M73,31.4
			c2.1,0,4.1,0.8,5.6,2.3c1.5,1.5,2.3,3.5,2.3,5.6c0,4.4-3.5,26.5-7.9,26.5c-4.4,0-7.9-22.1-7.9-26.5c0-1,0.2-2.1,0.6-3
			c0.4-1,1-1.8,1.7-2.6c0.7-0.7,1.6-1.3,2.6-1.7C70.9,31.6,72,31.4,73,31.4L73,31.4z M76.5,73c0,0.7-0.2,1.4-0.6,2
			c-0.4,0.6-0.9,1-1.6,1.3c-0.6,0.3-1.3,0.3-2,0.2c-0.7-0.1-1.3-0.5-1.8-1c-0.5-0.5-0.8-1.1-1-1.8c-0.1-0.7-0.1-1.4,0.2-2
			c0.3-0.6,0.7-1.2,1.3-1.6s1.3-0.6,2-0.6c0.5,0,0.9,0.1,1.3,0.3c0.4,0.2,0.8,0.4,1.1,0.8c0.3,0.3,0.6,0.7,0.8,1.1
			C76.4,72.1,76.5,72.5,76.5,73z M49.2,49.2c0.9-0.9,2.2-1.4,3.5-1.4c1.3,0,2.6,0.5,3.5,1.4c1.9,1.9,9.8,13.7,8.2,15.3
			c-1.6,1.6-13.3-6.3-15.3-8.3c-0.5-0.5-0.8-1-1.1-1.6c-0.3-0.6-0.4-1.3-0.4-1.9s0.1-1.3,0.4-1.9C48.4,50.2,48.8,49.7,49.2,49.2z
			 M39.3,80.9c-2.1,0-4.1-0.8-5.6-2.3c-1.5-1.5-2.3-3.5-2.3-5.6c0-2.1,0.8-4.1,2.3-5.6c1.5-1.5,3.5-2.3,5.6-2.3
			c4.4,0,26.5,3.6,26.5,7.9C65.8,77.4,43.6,80.9,39.3,80.9L39.3,80.9z M56.2,96.8c-0.9,0.9-2.2,1.4-3.5,1.4c-1.3,0-2.6-0.5-3.5-1.4
			c-0.9-0.9-1.5-2.2-1.5-3.5c0-1.3,0.5-2.6,1.5-3.5c1.9-1.9,13.7-9.8,15.3-8.2C66.1,83.1,58.2,94.8,56.2,96.8L56.2,96.8z M73,114.6
			c-2.1,0-4.1-0.8-5.6-2.3c-1.5-1.5-2.3-3.5-2.3-5.6c0-4.4,3.5-26.5,7.9-26.5c4.4,0,7.9,22.1,7.9,26.5c0,2.1-0.8,4.1-2.3,5.6
			C77.1,113.8,75.1,114.6,73,114.6z M96.8,96.8c-0.9,0.9-2.2,1.4-3.5,1.4c-1.3,0-2.6-0.5-3.5-1.4c-1.9-1.9-9.8-13.7-8.2-15.3
			c1.6-1.6,13.3,6.3,15.3,8.2c0.9,0.9,1.5,2.2,1.5,3.5C98.2,94.6,97.7,95.9,96.8,96.8z M106.7,80.9c-4.4,0-26.5-3.5-26.5-7.9
			c0-4.4,22.1-7.9,26.5-7.9c2.1,0,4.1,0.8,5.6,2.3s2.3,3.5,2.3,5.6s-0.8,4.1-2.3,5.6C110.8,80.1,108.8,80.9,106.7,80.9z"/>
		<path class="st0" d="M0,142.5c0.9,0,1.8,0.4,2.5,1c0.7,0.7,1,1.5,1,2.5h3.7c0-4.4,22.1-7.9,26.5-7.9c1,0,2.1,0.2,3,0.6
			c1,0.4,1.8,1,2.6,1.7s1.3,1.6,1.7,2.6c0.4,1,0.6,2,0.6,3H73c-4.9,0-9.8-1.1-14.2-3.1c-4.5-2.1-8.4-5.1-11.6-8.8
			c-3.2-3.7-5.6-8.1-6.9-12.8c-1.3-4.7-1.7-9.7-0.9-14.6c-1.7,0.3-3.5,0.4-5.2,0.4c-4.7,0-9.3-1-13.6-2.8c-4.3-1.9-8.2-4.6-11.4-8.1
			c-3.2-3.5-5.6-7.5-7.2-12c-1.5-4.4-2.2-9.1-1.8-13.8C0.5,65.7,1.8,61.2,4,57c2.2-4.2,5.2-7.8,8.9-10.7c3.7-2.9,7.9-5.1,12.5-6.3
			c4.5-1.2,9.3-1.5,13.9-0.8c-0.7-4.9-0.4-9.8,0.9-14.5c1.4-4.7,3.7-9.1,6.9-12.8c3.2-3.7,7.2-6.7,11.6-8.8C63.2,1.1,68.1,0,73,0
			c4.9,0,9.8,1.1,14.2,3.1c4.5,2,8.4,5,11.6,8.8c3.2,3.7,5.6,8.1,6.9,12.8s1.7,9.7,0.9,14.5c4.9-0.8,9.8-0.4,14.6,0.9
			c4.7,1.4,9.1,3.7,12.8,6.9c3.7,3.2,6.7,7.2,8.8,11.6c2.1,4.5,3.1,9.3,3.1,14.2V0H0v146h0V142.5z M120.7,28.8
			c-0.3,0.3-0.8,0.6-1.3,0.7c-0.5,0.1-1,0-1.4-0.1c-0.5-0.2-0.8-0.5-1.1-0.9c-0.3-0.4-0.4-0.9-0.4-1.4c0-0.5,0.1-1,0.4-1.4
			c0.3-0.4,0.7-0.7,1.1-0.9c0.5-0.2,1-0.2,1.4-0.1c0.5,0.1,0.9,0.3,1.3,0.7c0.5,0.5,0.7,1.1,0.7,1.8
			C121.4,27.8,121.1,28.4,120.7,28.8z M129.2,23.8c-0.5,0.5-1,0.8-1.6,1.1s-1.2,0.4-1.9,0.4c-0.7,0-1.3-0.1-1.9-0.4
			c-0.6-0.3-1.2-0.6-1.6-1.1c-0.5-0.5-0.8-1-1.1-1.6c-0.2-0.6-0.4-1.3-0.4-1.9c0-0.7,0.1-1.3,0.4-1.9c0.3-0.6,0.6-1.2,1.1-1.6
			c1.9-1.9,13.7-9.8,15.3-8.2C139.1,10.1,131.2,21.8,129.2,23.8z M146,41.6c-1,0-2.1-0.2-3-0.6c-1-0.4-1.8-1-2.6-1.7
			c-0.7-0.7-1.3-1.6-1.7-2.6c-0.4-0.9-0.6-2-0.6-3c0-4.4,3.5-26.5,7.9-26.5V41.6z M146,0v3.5c-0.5,0-0.9-0.1-1.3-0.3
			c-0.4-0.2-0.8-0.4-1.1-0.8c-0.3-0.3-0.6-0.7-0.8-1.1c-0.2-0.4-0.3-0.9-0.3-1.3H146z M138.8,0c0,4.4-22.1,7.9-26.5,7.9
			c-2.1,0-4.1-0.8-5.6-2.3c-1.5-1.5-2.3-3.5-2.3-5.6H138.8z M25.3,117.1c0.3-0.3,0.8-0.6,1.3-0.7c0.5-0.1,1,0,1.4,0.1
			c0.5,0.2,0.8,0.5,1.1,0.9s0.4,0.9,0.4,1.4c0,0.5-0.1,1-0.4,1.4c-0.3,0.4-0.7,0.7-1.1,0.9c-0.5,0.2-1,0.2-1.4,0.2
			c-0.5-0.1-0.9-0.3-1.3-0.7c-0.5-0.5-0.7-1.1-0.7-1.8C24.6,118.3,24.9,117.6,25.3,117.1z M16.8,122.2c0.5-0.5,1-0.8,1.6-1.1
			c0.6-0.3,1.2-0.4,1.9-0.4c0.7,0,1.3,0.1,1.9,0.4c0.6,0.3,1.1,0.6,1.6,1.1c0.5,0.5,0.8,1,1.1,1.6c0.2,0.6,0.4,1.3,0.4,1.9
			s-0.1,1.3-0.4,1.9c-0.3,0.6-0.6,1.2-1.1,1.6c-1.9,1.9-13.7,9.8-15.3,8.2C6.9,135.9,14.8,124.2,16.8,122.2z M0,41.6V7.2
			c4.4,0,7.9,22.1,7.9,26.5c0,2.1-0.8,4.1-2.3,5.6C4.1,40.8,2.1,41.6,0,41.6L0,41.6z M16.8,23.8c-1.9-1.9-9.8-13.7-8.2-15.3
			c1.6-1.6,13.3,6.3,15.3,8.2c0.9,0.9,1.5,2.2,1.5,3.5c0,1.3-0.5,2.6-1.5,3.5c-0.9,0.9-2.2,1.4-3.5,1.5C19,25.3,17.7,24.7,16.8,23.8
			z M28.9,28.8c-0.3,0.3-0.8,0.6-1.3,0.7c-0.5,0.1-1,0-1.4-0.1c-0.5-0.2-0.8-0.5-1.1-0.9c-0.3-0.4-0.4-0.9-0.4-1.4
			c0-0.5,0.1-1,0.4-1.4c0.3-0.4,0.7-0.7,1.1-0.9c0.5-0.2,1-0.2,1.4-0.1c0.5,0.1,0.9,0.3,1.3,0.7c0.5,0.5,0.7,1.1,0.7,1.8
			C29.6,27.8,29.3,28.4,28.9,28.8L28.9,28.8z M41.6,0c0,2.1-0.8,4.1-2.3,5.6c-1.5,1.5-3.5,2.3-5.6,2.3C29.4,7.9,7.2,4.4,7.2,0H41.6z
			 M0,0h3.5c0,0.9-0.4,1.8-1,2.5c-0.7,0.7-1.6,1-2.5,1V0z M0,104.4c1,0,2.1,0.2,3,0.6c1,0.4,1.8,1,2.6,1.7c0.7,0.7,1.3,1.6,1.7,2.6
			c0.4,1,0.6,2,0.6,3c0,4.4-3.5,26.5-7.9,26.5V104.4z"/>
		<path class="st1" d="M180.7,183.3c-2.1,0.4-7.5,1.7-11.5,5.6c-3.9,3.9-5.2,9.4-5.6,11.5c2.1-0.4,7.5-1.7,11.5-5.6
			C179,190.8,180.3,185.4,180.7,183.3z"/>
		<path class="st1" d="M182.3,183.3c0.4,2.1,1.7,7.5,5.6,11.5c3.9,3.9,9.4,5.2,11.5,5.6c-0.4-2.1-1.7-7.5-5.6-11.5
			C189.8,185,184.4,183.7,182.3,183.3z"/>
		<path class="st1" d="M218,219c-0.4-2.1-1.7-7.6-5.6-11.5c-3.9-3.9-9.4-5.2-11.5-5.6c0.4,2.1,1.7,7.5,5.6,11.5
			C210.5,217.3,215.9,218.6,218,219z"/>
		<path class="st1" d="M200.9,200.4c2.1-0.4,7.5-1.7,11.5-5.6c3.9-3.9,5.2-9.4,5.6-11.5c-2.1,0.4-7.5,1.7-11.5,5.6
			C202.6,192.8,201.3,198.3,200.9,200.4z"/>
		<path class="st1" d="M180.7,219c-0.4-2.1-1.7-7.6-5.6-11.5c-3.9-3.9-9.4-5.2-11.5-5.6c0.4,2.1,1.7,7.5,5.6,11.5
			C173.2,217.3,178.6,218.6,180.7,219z"/>
		<path class="st1" d="M182.3,219c2.1-0.4,7.5-1.7,11.5-5.6c3.9-3.9,5.2-9.4,5.6-11.5c-2.1,0.4-7.5,1.7-11.5,5.6
			C184,211.4,182.7,216.9,182.3,219z"/>
		<path class="st1" d="M145,219c2.1-0.4,7.5-1.7,11.5-5.6c3.9-3.9,5.2-9.4,5.6-11.5c-2.1,0.4-7.5,1.7-11.5,5.6
			C146.7,211.5,145.4,216.9,145,219z"/>
		<path class="st1" d="M145,183.3c0.4,2.1,1.7,7.5,5.6,11.5c3.9,3.9,9.4,5.2,11.5,5.6c-0.4-2.1-1.7-7.5-5.6-11.5
			C152.5,185,147.1,183.7,145,183.3z"/>
		<path class="st1" d="M199.4,163.1c-0.4-2.1-1.7-7.5-5.6-11.5c-3.9-3.9-9.4-5.2-11.5-5.6c0.4,2.1,1.7,7.5,5.6,11.5
			C191.8,161.4,197.3,162.7,199.4,163.1z"/>
		<path class="st1" d="M162.1,163.1c-0.4-2.1-1.7-7.5-5.6-11.5c-3.9-3.9-9.4-5.2-11.5-5.6c0.4,2.1,1.7,7.5,5.6,11.5
			C154.5,161.4,160,162.7,162.1,163.1z"/>
		<path class="st1" d="M163.6,163.1c2.1-0.4,7.5-1.7,11.5-5.6c3.9-3.9,5.2-9.4,5.6-11.5c-2.1,0.4-7.5,1.7-11.5,5.6
			C165.3,155.5,164,161,163.6,163.1z"/>
		<path class="st1" d="M200.9,163.1c2.1-0.4,7.5-1.7,11.5-5.6c3.9-3.9,5.2-9.4,5.6-11.5c-2.1,0.4-7.5,1.7-11.5,5.6
			C202.6,155.5,201.3,161,200.9,163.1z"/>
		<path class="st1" d="M163.6,164.6c0.4,2.1,1.7,7.5,5.6,11.5c3.9,3.9,9.4,5.2,11.5,5.6c-0.4-2.1-1.7-7.5-5.6-11.5
			C171.2,166.3,165.7,165,163.6,164.6z"/>
		<path class="st1" d="M145,181.7c2.1-0.4,7.5-1.7,11.5-5.6c3.9-3.9,5.2-9.4,5.6-11.5c-2.1,0.4-7.5,1.7-11.5,5.6
			C146.7,174.2,145.4,179.6,145,181.7z"/>
		<path class="st1" d="M182.3,181.7c2.1-0.4,7.5-1.7,11.5-5.6c3.9-3.9,5.2-9.4,5.6-11.5c-2.1,0.4-7.5,1.7-11.5,5.6
			C184,174.2,182.7,179.6,182.3,181.7z"/>
		<path class="st1" d="M218,181.7c-0.4-2.1-1.7-7.5-5.6-11.5c-3.9-3.9-9.4-5.2-11.5-5.6c0.4,2.1,1.7,7.5,5.6,11.5
			C210.5,180,215.9,181.3,218,181.7z"/>
		<path class="st0" d="M115.3,545.3c0.4,2.1,1.7,7.5,5.6,11.5c3.9,3.9,9.4,5.2,11.5,5.6c-0.4-2.1-1.7-7.5-5.6-11.5
			C122.8,547,117.4,545.7,115.3,545.3z"/>
		<path class="st0" d="M115.3,543.7c2.1-0.4,7.5-1.7,11.5-5.6c3.9-3.9,5.2-9.4,5.6-11.5c-2.1,0.4-7.5,1.7-11.5,5.6
			C117,536.2,115.7,541.6,115.3,543.7z"/>
		<path class="st0" d="M151,508c-2.1,0.4-7.5,1.7-11.5,5.6s-5.2,9.4-5.6,11.5c2.1-0.4,7.5-1.7,11.5-5.6
			C149.3,515.5,150.6,510.1,151,508z"/>
		<path class="st0" d="M132.4,525.1c-0.4-2.1-1.7-7.5-5.6-11.5s-9.4-5.2-11.5-5.6c0.4,2.1,1.7,7.5,5.6,11.5
			C124.8,523.4,130.3,524.7,132.4,525.1z"/>
		<path class="st0" d="M151,545.3c-2.1,0.4-7.5,1.7-11.5,5.6c-3.9,3.9-5.2,9.4-5.6,11.5c2.1-0.4,7.5-1.7,11.5-5.6
			C149.3,552.8,150.6,547.4,151,545.3z"/>
		<path class="st0" d="M151,543.7c-0.4-2.1-1.7-7.5-5.6-11.5c-3.9-3.9-9.4-5.2-11.5-5.6c0.4,2.1,1.7,7.5,5.6,11.5
			C143.5,542,148.9,543.3,151,543.7z"/>
		<path class="st0" d="M151,581c-0.4-2.1-1.7-7.6-5.6-11.5c-3.9-3.9-9.4-5.2-11.5-5.6c0.4,2.1,1.7,7.5,5.6,11.5
			C143.5,579.3,148.9,580.6,151,581z"/>
		<path class="st0" d="M115.3,581c2.1-0.4,7.5-1.7,11.5-5.6c3.9-3.9,5.2-9.4,5.6-11.5c-2.1,0.4-7.5,1.7-11.5,5.6
			C117,573.4,115.7,578.9,115.3,581z"/>
		<path class="st0" d="M95.1,526.6c-2.1,0.4-7.5,1.7-11.5,5.6c-3.9,3.9-5.2,9.4-5.6,11.5c2.1-0.4,7.5-1.7,11.5-5.6
			C93.4,534.2,94.7,528.7,95.1,526.6z"/>
		<path class="st0" d="M95.1,563.9c-2.1,0.4-7.5,1.7-11.5,5.6c-3.9,3.9-5.2,9.4-5.6,11.5c2.1-0.4,7.5-1.7,11.5-5.6
			C93.4,571.5,94.7,566,95.1,563.9z"/>
		<path class="st0" d="M95.1,562.4c-0.4-2.1-1.7-7.5-5.6-11.5c-3.9-3.9-9.4-5.2-11.5-5.6c0.4,2.1,1.7,7.5,5.6,11.5
			C87.5,560.7,93,562,95.1,562.4z"/>
		<path class="st0" d="M95.1,525.1c-0.4-2.1-1.7-7.5-5.6-11.5c-3.9-3.9-9.4-5.2-11.5-5.6c0.4,2.1,1.7,7.5,5.6,11.5
			C87.5,523.4,93,524.7,95.1,525.1z"/>
		<path class="st0" d="M96.6,562.4c2.1-0.4,7.5-1.7,11.5-5.6c3.9-3.9,5.2-9.4,5.6-11.5c-2.1,0.4-7.5,1.7-11.5,5.6
			C98.3,554.8,97,560.3,96.6,562.4z"/>
		<path class="st0" d="M113.7,581c-0.4-2.1-1.7-7.6-5.6-11.5c-3.9-3.9-9.4-5.2-11.5-5.6c0.4,2.1,1.7,7.5,5.6,11.5
			C106.2,579.3,111.6,580.6,113.7,581z"/>
		<path class="st0" d="M113.7,543.7c-0.4-2.1-1.7-7.5-5.6-11.5c-3.9-3.9-9.4-5.2-11.5-5.6c0.4,2.1,1.7,7.5,5.6,11.5
			C106.2,542,111.6,543.3,113.7,543.7z"/>
		<path class="st0" d="M113.7,508c-2.1,0.4-7.5,1.7-11.5,5.6c-3.9,3.9-5.2,9.4-5.6,11.5c2.1-0.4,7.5-1.7,11.5-5.6
			C112,515.5,113.3,510.1,113.7,508z"/>
		<path class="st1" d="M41.5,473.8c0.1-0.1,0.3-0.3,0.3-0.5c0.1-0.2,0.1-0.4,0.1-0.6c0-0.2,0-0.4-0.1-0.6c-0.1-0.2-0.2-0.4-0.3-0.5
			c-0.3-0.3-0.7-0.5-1.1-0.5c-0.4,0-0.8,0.2-1.1,0.5c-0.1,0.1-0.3,0.3-0.3,0.5c-0.1,0.2-0.1,0.4-0.1,0.6c0,0.2,0,0.4,0.1,0.6
			c0.1,0.2,0.2,0.4,0.3,0.5c0.3,0.3,0.7,0.4,1.1,0.4C40.8,474.3,41.2,474.1,41.5,473.8z"/>
		<path class="st1" d="M42.6,474.5c-0.1,0-0.1,0-0.1,0c0,0-0.1,0-0.1,0.1c0,0-0.1,0.1-0.1,0.1s0,0.1,0,0.2c0.4,2,1.4,3.8,2.8,5.3
			c1.5,1.4,3.3,2.3,5.2,2.8v-0.4h0.4c-0.5-1.9-1.4-3.7-2.8-5.2C46.4,475.9,44.6,475,42.6,474.5z"/>
		<path class="st1" d="M38.2,470.9c0.1,0,0.1,0,0.1,0c0,0,0.1,0,0.1-0.1c0,0,0.1-0.1,0.1-0.1c0,0,0-0.1,0-0.1
			c-0.4-2-1.4-3.8-2.8-5.3c-1.5-1.4-3.3-2.3-5.2-2.8v0.4h-0.4c0.5,1.9,1.4,3.7,2.8,5.2C34.4,469.5,36.2,470.5,38.2,470.9z"/>
		<path class="st1" d="M42.2,470.6c0,0,0,0.1,0,0.1c0,0.1,0,0.1,0.1,0.1c0,0,0.1,0.1,0.1,0.1c0,0,0.1,0,0.1,0c2-0.4,3.8-1.4,5.3-2.8
			c1.4-1.4,2.4-3.2,2.8-5.2h-0.4v-0.4c-2,0.4-3.8,1.4-5.2,2.8C43.6,466.8,42.7,468.6,42.2,470.6z"/>
		<path class="st1" d="M38.6,474.9c0-0.1,0-0.1,0-0.2s0-0.1-0.1-0.1c0,0-0.1-0.1-0.1-0.1c0,0-0.1,0-0.1,0c-2,0.4-3.8,1.4-5.3,2.8
			c-1.4,1.4-2.4,3.2-2.8,5.2h0.4v0.4c2-0.4,3.8-1.4,5.2-2.8C37.2,478.7,38.1,476.9,38.6,474.9z"/>
		<path class="st1" d="M43.3,473c1.7,1.1,3.7,1.7,5.7,1.7c2,0,4-0.7,5.7-1.7c0,0,0.1-0.1,0.1-0.1c0-0.1,0-0.1,0-0.2c0,0,0-0.1,0-0.1
			c0,0-0.1-0.1-0.1-0.1c-1.7-1.1-3.7-1.7-5.7-1.7c-2,0.1-4,0.7-5.7,1.7l0,0h0c0,0-0.1,0.1-0.1,0.1c0,0,0,0.1,0,0.1s0,0.1,0,0.1
			C43.1,472.9,43.2,472.9,43.3,473L43.3,473z"/>
		<path class="st1" d="M26.1,473c1.7,1.1,3.7,1.7,5.7,1.7c2,0,4-0.7,5.7-1.7c0,0,0.1-0.1,0.1-0.1c0,0,0-0.1,0-0.1c0-0.1,0-0.1,0-0.2
			c0,0-0.1-0.1-0.1-0.1c-1.7-1.1-3.7-1.7-5.7-1.7c-2,0.1-4,0.7-5.7,1.7l0,0h0c0,0-0.1,0.1-0.1,0.1c0,0,0,0.1,0,0.1s0,0.1,0,0.1
			C26,472.9,26,472.9,26.1,473L26.1,473z"/>
		<path class="st1" d="M40.4,470c0,0,0.1,0,0.1,0c0,0,0.1-0.1,0.1-0.1c1.1-1.7,1.7-3.7,1.8-5.7c-0.1-2-0.7-4-1.8-5.7
			c0,0-0.1-0.1-0.1-0.1c0,0-0.1,0-0.1,0c0,0-0.1,0-0.1,0c0,0-0.1,0-0.1,0.1l0,0c-1.1,1.7-1.7,3.7-1.8,5.7c0.1,2,0.7,4,1.8,5.7
			c0,0,0.1,0.1,0.1,0.1C40.3,470,40.4,470,40.4,470z"/>
		<path class="st1" d="M40.4,475.4c0,0-0.1,0-0.1,0c0,0-0.1,0-0.1,0.1l0,0c-1.1,1.7-1.7,3.7-1.8,5.7c0.1,2,0.7,4,1.8,5.7
			c0,0,0.1,0.1,0.1,0.1c0,0,0.1,0,0.1,0c0,0,0.1,0,0.1,0c0,0,0.1-0.1,0.1-0.1c1.1-1.7,1.7-3.7,1.8-5.7c-0.1-2-0.7-4-1.8-5.7
			c0,0-0.1-0.1-0.1-0.1C40.5,475.4,40.5,475.4,40.4,475.4z"/>
		<path class="st1" d="M57.7,508.3c4.8,0.2,5.3-2.6,5.3-3.4c0-2.6-1.9-3-1.9-3c1.1-0.6,5.1-0.6,5.1,3.3c0,0.5-0.1,0.9-0.3,1.3
			c-0.2,0.4-0.6,0.7-1,0.9l0,0c0.7-0.4,1.5-0.6,2.3-0.7c0.9,0.1,1.8,0.5,2.5,1.2c0.5,0.3,1.3,1.1,1.3,1.1h3.4c0,0-7.5-9.4-14-9.4
			c-1,0-2,0.3-2.9,0.9c-0.8,0.6-1.5,1.5-1.8,2.4c-0.3,1-0.3,2.1,0.1,3C56.2,506.9,56.8,507.8,57.7,508.3z"/>
		<path class="st1" d="M77,506.4L77,506.4l0-3.3h0c0,0-0.7-0.8-1.1-1.3c-0.7-0.7-1.1-1.6-1.2-2.5c0.1-0.8,0.3-1.6,0.7-2.3l0,0
			c-0.2,0.4-0.5,0.7-0.9,1c-0.4,0.2-0.8,0.3-1.3,0.3c-3.9,0-4-4-3.4-5.1c0,0,0.5,1.9,3.1,1.9c0.8,0,3.7-0.6,3.4-5.3
			c-0.6-0.8-1.4-1.5-2.4-1.8c-1-0.3-2-0.4-3-0.1c-1,0.3-1.9,0.9-2.5,1.7c-0.6,0.8-1,1.8-1,2.9C67.5,499,77,506.4,77,506.4z"/>
		<path class="st1" d="M6.7,509H10c0,0,0.8-0.7,1.3-1.1c0.7-0.7,1.6-1.1,2.5-1.2c0.8,0.1,1.6,0.3,2.3,0.7l0,0
			c-0.4-0.2-0.7-0.5-1-0.9c-0.2-0.4-0.3-0.8-0.3-1.3c0-3.9,4-3.9,5.1-3.3c0,0-1.9,0.5-1.9,3c0,0.8,0.6,3.6,5.3,3.4
			c0.9-0.6,1.5-1.4,1.9-2.4c0.3-1,0.4-2,0.1-3c-0.3-1-0.9-1.8-1.8-2.4c-0.8-0.6-1.8-0.9-2.9-0.9C14.1,499.6,6.7,509,6.7,509z"/>
		<path class="st1" d="M4,506.4c0,0,9.5-7.4,9.5-13.8c0-1-0.4-2-1-2.9c-0.6-0.8-1.5-1.4-2.5-1.7c-1-0.3-2-0.3-3,0.1s-1.8,1-2.4,1.8
			c-0.2,4.7,2.6,5.3,3.4,5.3c2.6,0,3.1-1.9,3.1-1.9c0.6,1.1,0.6,5-3.4,5.1c-0.5,0-0.9-0.1-1.3-0.3c-0.4-0.2-0.7-0.6-0.9-1l0,0
			c0.4,0.7,0.6,1.5,0.7,2.3c-0.1,0.9-0.5,1.8-1.2,2.5C4.7,502.3,4,503,4,503h0L4,506.4L4,506.4z"/>
		<path class="st1" d="M20.6,445.4c1,0,2-0.3,2.9-0.9c0.8-0.6,1.4-1.5,1.8-2.5c0.3-1,0.3-2-0.1-3c-0.3-1-1-1.8-1.9-2.4
			c-4.8-0.2-5.3,2.6-5.3,3.4c0,2.6,1.9,3,1.9,3c-1.1,0.6-5.1,0.6-5.1-3.3c0-0.5,0.1-0.9,0.3-1.3c0.2-0.4,0.6-0.7,1-0.9l0,0
			c-0.7,0.4-1.5,0.6-2.3,0.6c-0.9-0.1-1.8-0.5-2.5-1.1c-0.5-0.3-1.3-1.1-1.3-1.1H6.7C6.7,436,14.1,445.4,20.6,445.4z"/>
		<path class="st1" d="M5.1,443.2c0.7,0.7,1.1,1.6,1.2,2.5c-0.1,0.8-0.3,1.6-0.7,2.3l0,0c0.2-0.4,0.5-0.7,0.9-1
			c0.4-0.2,0.8-0.3,1.3-0.3c3.9,0,4,4,3.4,5.1c0,0-0.5-1.9-3.1-1.9c-0.8,0-3.7,0.6-3.4,5.3c0.6,0.8,1.4,1.5,2.4,1.8s2,0.4,3,0.1
			c1-0.3,1.9-0.9,2.5-1.7c0.6-0.8,1-1.8,1-2.9c0-6.4-9.5-13.8-9.5-13.8h0v3.3h0C4,442,4.7,442.8,5.1,443.2z"/>
		<path class="st1" d="M67.2,438.2c-0.8,0-1.6-0.3-2.3-0.6l0,0c0.4,0.2,0.7,0.5,1,0.9c0.2,0.4,0.3,0.8,0.3,1.3c0,3.9-4,3.9-5.1,3.3
			c0,0,1.9-0.5,1.9-3c0-0.8-0.6-3.6-5.3-3.4c-0.9,0.6-1.5,1.4-1.9,2.4c-0.3,1-0.4,2-0.1,3c0.3,1,0.9,1.8,1.8,2.5
			c0.8,0.6,1.8,0.9,2.9,0.9c6.5,0,14-9.4,14-9.4H71c0,0-0.8,0.7-1.3,1.1C69,437.7,68.1,438.1,67.2,438.2z"/>
		<path class="st1" d="M67.5,452.5c0,1,0.4,2,1,2.9c0.6,0.8,1.5,1.4,2.5,1.7c1,0.3,2,0.3,3-0.1c1-0.3,1.8-1,2.4-1.8
			c0.2-4.7-2.6-5.3-3.4-5.3c-2.6,0-3.1,1.9-3.1,1.9c-0.6-1.1-0.6-5,3.4-5.1c0.5,0,0.9,0.1,1.3,0.3c0.4,0.2,0.7,0.6,0.9,1l0,0
			c-0.4-0.7-0.6-1.5-0.7-2.3c0.1-0.9,0.5-1.8,1.2-2.5c0.4-0.5,1.1-1.3,1.1-1.3h0v-3.3h0C77,438.6,67.5,446,67.5,452.5z"/>
		<path class="st1" d="M28.8,499.2v9.8H52v-9.8l15.2-15H77v-1.7l0-8.1h0V471h0l0-8.1v-1.7h-9.8l-15.2-15V436H28.8v10.2l-15.2,15H4
			v22.9h9.7L28.8,499.2z M15.4,462.9h14.7c0,0,0-0.1,0-0.1c0,0,0-0.1,0-0.2c0,0,0-0.1,0.1-0.1c0,0,0.1-0.1,0.1-0.1c0,0,0.1,0,0.1,0
			c0,0,0,0,0.1,0v-14.6l9.9-9.8l9.9,9.8v14.6c0,0,0.1,0,0.1,0c0.1,0,0.1,0,0.1,0c0,0,0.1,0,0.1,0.1c0,0,0.1,0.1,0.1,0.1
			c0,0.1,0,0.1,0,0.2c0,0,0,0,0,0.1h14.7l9.9,9.8l-9.9,9.8H50.7c0,0.1,0,0.1,0,0.1c0,0.1,0,0.1,0,0.2s0,0.1-0.1,0.1
			c0,0-0.1,0.1-0.1,0.1c0,0-0.1,0-0.2,0c0,0,0,0-0.1,0v14.6l-9.9,9.8l-9.9-9.8v-14.6c0,0-0.1,0-0.1,0c-0.1,0-0.1,0-0.2,0
			c0,0-0.1,0-0.1-0.1c0,0-0.1-0.1-0.1-0.1c0-0.1,0-0.1,0-0.2c0,0,0,0,0-0.1H15.4l-9.9-9.8L15.4,462.9z"/>
		<path class="st1" d="M50.3,482.9C50.3,482.9,50.3,482.9,50.3,482.9c0.1,0,0.2,0,0.2,0c0,0,0.1,0,0.1-0.1c0,0,0.1-0.1,0.1-0.1
			s0-0.1,0-0.2c0,0,0,0,0-0.1h-0.4V482.9z"/>
		<path class="st1" d="M30.5,462.5C30.5,462.5,30.5,462.5,30.5,462.5c-0.1,0-0.2,0-0.2,0c0,0-0.1,0-0.1,0.1c0,0-0.1,0.1-0.1,0.1
			c0,0,0,0.1,0,0.2c0,0,0,0,0,0.1h0.4V462.5z"/>
		<path class="st1" d="M50.7,462.9C50.7,462.9,50.7,462.9,50.7,462.9c0-0.1,0-0.2,0-0.2c0,0,0-0.1-0.1-0.1c0,0-0.1-0.1-0.1-0.1
			c0,0-0.1,0-0.1,0c0,0,0,0-0.1,0v0.4H50.7z"/>
		<path class="st1" d="M30.1,482.5C30.1,482.6,30.1,482.6,30.1,482.5c0,0.1,0,0.2,0,0.2s0,0.1,0.1,0.1c0,0,0.1,0.1,0.1,0.1
			c0,0,0.1,0,0.1,0c0,0,0,0,0.1,0v-0.4H30.1z"/>
		<path class="st1" d="M153.2,326.5c0.4,0.1,0.8,0.2,1.2,0.1c0.4-0.1,0.8-0.3,1-0.6l31.6-31.6c0.3-0.3,0.5-0.7,0.6-1
			c0.1-0.4,0-0.8-0.1-1.2c-0.2-0.4-0.4-0.7-0.7-0.9c-0.3-0.2-0.7-0.3-1.1-0.3H154c-0.5,0-1.1,0.2-1.4,0.6c-0.4,0.4-0.6,0.9-0.6,1.4
			v31.6c0,0.4,0.1,0.8,0.3,1.1C152.6,326.1,152.9,326.4,153.2,326.5z"/>
		<path class="st1" d="M153.1,343.1c0.2,0.3,0.6,0.4,0.9,0.4c0.3,0,0.7-0.1,0.9-0.4l49.2-49.2c0.1-0.1,0.2-0.3,0.3-0.4
			c0.1-0.2,0.1-0.3,0.1-0.5c0-0.2,0-0.3-0.1-0.5c-0.1-0.2-0.2-0.3-0.3-0.4c-0.1-0.1-0.3-0.2-0.4-0.3c-0.2-0.1-0.3-0.1-0.5-0.1
			s-0.3,0-0.5,0.1c-0.2,0.1-0.3,0.2-0.4,0.3l-49.2,49.2c-0.2,0.3-0.4,0.6-0.4,0.9C152.7,342.6,152.9,342.9,153.1,343.1z"/>
		<path class="st1" d="M296.7,401.5c-0.4-0.1-0.8-0.2-1.2-0.1c-0.4,0.1-0.8,0.3-1,0.6l-31.6,31.6c-0.3,0.3-0.5,0.6-0.6,1
			c-0.1,0.4,0,0.8,0.1,1.2c0.2,0.4,0.4,0.7,0.7,0.9c0.3,0.2,0.7,0.3,1.1,0.3H296c0.5,0,1.1-0.2,1.4-0.6c0.4-0.4,0.6-0.9,0.6-1.4
			v-31.6c0-0.4-0.1-0.8-0.3-1.1C297.4,401.9,297.1,401.6,296.7,401.5z"/>
		<path class="st1" d="M296.9,384.9c-0.1-0.1-0.3-0.2-0.4-0.3c-0.2-0.1-0.3-0.1-0.5-0.1c-0.2,0-0.3,0-0.5,0.1
			c-0.2,0.1-0.3,0.2-0.4,0.3l-49.2,49.2c-0.2,0.3-0.4,0.6-0.4,0.9c0,0.3,0.1,0.7,0.4,0.9c0.2,0.2,0.6,0.4,0.9,0.4
			c0.3,0,0.7-0.1,0.9-0.4l49.2-49.2c0.1-0.1,0.2-0.3,0.3-0.4c0.1-0.2,0.1-0.3,0.1-0.5c0-0.2,0-0.3-0.1-0.5
			C297.1,385.2,297,385,296.9,384.9z"/>
		<path class="st1" d="M155.5,401.9c-0.2-0.2-0.4-0.3-0.7-0.5c-0.2-0.1-0.5-0.1-0.8-0.1c-0.3,0-0.5,0-0.8,0.1
			c-0.4,0.2-0.7,0.4-0.9,0.8c-0.2,0.3-0.3,0.7-0.3,1.1V435c0,0.3,0.1,0.5,0.2,0.8c0.1,0.3,0.3,0.5,0.4,0.7c0.2,0.2,0.4,0.3,0.7,0.4
			c0.2,0.1,0.5,0.2,0.8,0.2h31.6c0.4,0,0.8-0.1,1.1-0.3c0.3-0.2,0.6-0.5,0.7-0.9c0.2-0.4,0.2-0.8,0.1-1.2c-0.1-0.4-0.3-0.8-0.6-1
			L155.5,401.9z"/>
		<path class="st1" d="M155,384.9c-0.2-0.2-0.6-0.4-0.9-0.4s-0.7,0.1-0.9,0.4c-0.2,0.2-0.4,0.6-0.4,0.9c0,0.3,0.1,0.7,0.4,0.9
			l49.2,49.2c0.2,0.2,0.6,0.4,0.9,0.4c0.3,0,0.7-0.1,0.9-0.4c0.1-0.1,0.2-0.3,0.3-0.4c0.1-0.2,0.1-0.3,0.1-0.5c0-0.2,0-0.3-0.1-0.5
			c-0.1-0.2-0.2-0.3-0.3-0.4L155,384.9z"/>
		<path class="st1" d="M294.5,326.1c0.4,0.4,0.9,0.6,1.4,0.6c0.3,0,0.5,0,0.8-0.1c0.4-0.2,0.7-0.4,0.9-0.8c0.2-0.3,0.3-0.7,0.3-1.1
			V293c0-0.5-0.2-1.1-0.6-1.4c-0.4-0.4-0.9-0.6-1.4-0.6h-31.6c-0.4,0-0.8,0.1-1.1,0.3c-0.3,0.2-0.6,0.5-0.7,0.9s-0.2,0.8-0.1,1.2
			c0.1,0.4,0.3,0.8,0.6,1L294.5,326.1z"/>
		<path class="st1" d="M295,343.1c0.2,0.2,0.6,0.4,0.9,0.4c0.3,0,0.5-0.1,0.7-0.2c0.2-0.1,0.4-0.3,0.5-0.6c0.1-0.2,0.1-0.5,0.1-0.8
			c-0.1-0.3-0.2-0.5-0.4-0.7l-49.2-49.2c-0.2-0.3-0.6-0.4-0.9-0.4c-0.3,0-0.7,0.1-0.9,0.4c-0.2,0.2-0.4,0.6-0.4,0.9
			c0,0.3,0.1,0.7,0.4,0.9L295,343.1z"/>
		<path class="st1" d="M223.5,349.3c0.2,0.2,0.4,0.4,0.7,0.5c0.3,0.1,0.5,0.2,0.8,0.2s0.6-0.1,0.8-0.2c0.3-0.1,0.5-0.3,0.7-0.5
			c2.3-2.6,4.3-5.4,6-8.4c3.7-6.2,5.8-13.2,6-20.4c-0.2-7.2-2.3-14.2-6-20.4c-1.7-3-3.7-5.8-6-8.4c-0.2-0.2-0.4-0.4-0.7-0.5
			c-0.3-0.1-0.5-0.2-0.8-0.2s-0.6,0.1-0.8,0.2c-0.3,0.1-0.5,0.3-0.7,0.5c-2.3,2.6-4.3,5.4-6,8.4c-3.7,6.2-5.8,13.2-6,20.4
			c0.2,7.2,2.3,14.2,6,20.4C219.2,343.9,221.2,346.7,223.5,349.3z"/>
		<path class="st1" d="M226.5,378.7c-0.2-0.2-0.4-0.4-0.7-0.5c-0.3-0.1-0.5-0.2-0.8-0.2c-0.3,0-0.6,0.1-0.8,0.2
			c-0.3,0.1-0.5,0.3-0.7,0.5c-2.3,2.6-4.3,5.4-6,8.4c-3.7,6.2-5.8,13.2-6,20.4c0.2,7.2,2.3,14.2,6,20.4c1.7,3,3.7,5.8,6,8.4
			c0.2,0.2,0.4,0.4,0.7,0.5c0.3,0.1,0.5,0.2,0.8,0.2s0.6-0.1,0.8-0.2c0.3-0.1,0.5-0.3,0.7-0.5c2.3-2.6,4.3-5.4,6-8.4
			c3.7-6.2,5.8-13.2,6-20.4c-0.2-7.2-2.3-14.2-6-20.4C230.8,384.1,228.8,381.3,226.5,378.7z"/>
		<path class="st1" d="M161.1,356.5c-3,1.7-5.8,3.7-8.4,6c-0.2,0.2-0.4,0.4-0.5,0.7c-0.1,0.3-0.2,0.5-0.2,0.8s0.1,0.6,0.2,0.8
			c0.1,0.3,0.3,0.5,0.5,0.7c2.6,2.3,5.4,4.3,8.4,6c6.2,3.7,13.2,5.8,20.4,6c7.2-0.2,14.2-2.3,20.4-6c3-1.7,5.8-3.7,8.4-6
			c0.2-0.2,0.4-0.4,0.5-0.7c0.1-0.3,0.2-0.5,0.2-0.8s-0.1-0.6-0.2-0.8c-0.1-0.3-0.3-0.5-0.5-0.7c-2.6-2.3-5.4-4.3-8.4-6
			c-6.2-3.7-13.2-5.8-20.4-6C174.3,350.8,167.2,352.8,161.1,356.5z"/>
		<path class="st1" d="M239.7,362.5c-0.2,0.2-0.4,0.4-0.5,0.7c-0.1,0.3-0.2,0.5-0.2,0.8s0.1,0.6,0.2,0.8c0.1,0.3,0.3,0.5,0.5,0.7
			c2.6,2.3,5.4,4.3,8.4,6c6.2,3.7,13.2,5.8,20.4,6c7.2-0.2,14.2-2.3,20.4-6c3-1.7,5.8-3.7,8.4-6c0.2-0.2,0.4-0.4,0.5-0.7
			c0.1-0.3,0.2-0.5,0.2-0.8s-0.1-0.6-0.2-0.8c-0.1-0.3-0.3-0.5-0.5-0.7c-2.6-2.3-5.4-4.3-8.4-6c-6.2-3.7-13.2-5.8-20.4-6
			c-7.2,0.2-14.2,2.3-20.4,6C245.1,358.2,242.3,360.2,239.7,362.5z"/>
		<path class="st1" d="M229.3,364c0-0.8-0.2-1.7-0.7-2.4c-0.5-0.7-1.1-1.3-1.9-1.6c-0.8-0.3-1.6-0.4-2.5-0.2
			c-0.8,0.2-1.6,0.6-2.2,1.2c-0.6,0.6-1,1.4-1.2,2.2c-0.2,0.8-0.1,1.7,0.2,2.5c0.3,0.8,0.9,1.4,1.6,1.9c0.7,0.5,1.5,0.7,2.4,0.7
			c0.6,0,1.1-0.1,1.6-0.3c0.5-0.2,1-0.5,1.4-0.9c0.4-0.4,0.7-0.9,0.9-1.4C229.2,365.1,229.3,364.6,229.3,364z"/>
		<path class="st2" d="M236,376.4c1.6,2.2,15.8,21.9,17.5,23.7c1,1,2.4,1.6,3.8,1.5c1.4,0,2.8-0.6,3.8-1.6c1-1,1.6-2.4,1.6-3.8
			c0-1.4-0.6-2.8-1.6-3.8c-1.7-1.7-21.4-15.9-23.6-17.5c-0.2-0.1-0.4-0.2-0.7-0.2c-0.2,0-0.5,0.1-0.6,0.3c-0.2,0.2-0.3,0.4-0.3,0.6
			S235.8,376.2,236,376.4L236,376.4z"/>
		<path class="st2" d="M212.6,375c-2.2,1.6-21.9,15.8-23.6,17.5c-1,1-1.6,2.4-1.6,3.8c0,1.4,0.6,2.8,1.6,3.8c1,1,2.4,1.6,3.8,1.6
			c1.4,0,2.8-0.6,3.8-1.6c-0.1,0.1,14.4-19.3,17.5-23.6c0.1-0.2,0.2-0.4,0.2-0.7s-0.1-0.5-0.3-0.6c-0.2-0.2-0.4-0.3-0.6-0.3
			C213.1,374.8,212.8,374.8,212.6,375L212.6,375z"/>
		<path class="st2" d="M257.2,326.4c-0.7,0-1.4,0.1-2.1,0.4c-0.7,0.3-1.2,0.7-1.7,1.2c-1.7,1.7-15.9,21.4-17.5,23.6
			c-0.1,0.2-0.2,0.4-0.2,0.7c0,0.2,0.1,0.5,0.3,0.6c0.1,0.1,0.2,0.2,0.3,0.2c0.1,0,0.3,0.1,0.4,0.1c0.2,0,0.4-0.1,0.6-0.2
			c2.2-1.6,20.1-14,21.8-15.7c2.1-2.1,3.9-7.3,1.8-9.4c-0.5-0.5-1.1-0.9-1.7-1.2C258.6,326.6,257.9,326.4,257.2,326.4z"/>
		<path class="st2" d="M214,351.6c-2.2-3-14.9-21.1-17.4-23.6c-0.5-0.5-1.1-0.9-1.7-1.2c-0.7-0.3-1.4-0.4-2.1-0.4
			c-0.7,0-1.4,0.1-2.1,0.4c-0.7,0.3-1.2,0.7-1.7,1.2c-0.5,0.5-0.9,1.1-1.2,1.7c-0.3,0.7-0.4,1.3-0.4,2.1c0,0.7,0.1,1.4,0.4,2
			c0.3,0.7,0.7,1.2,1.2,1.7c1.7,1.7,21.4,15.9,23.6,17.5c0.2,0.1,0.4,0.2,0.6,0.2h0c0.1,0,0.3,0,0.4-0.1c0.1-0.1,0.2-0.1,0.3-0.2
			c0.1-0.1,0.2-0.2,0.2-0.3s0.1-0.3,0.1-0.4C214.2,352,214.1,351.7,214,351.6z"/>
	</g>
</g>
</svg>
