<?xml version="1.0" encoding="utf-8"?>
<!-- Generator: Adobe Illustrator 22.1.0, SVG Export Plug-In . SVG Version: 6.00 Build 0)  -->
<svg version="1.1" id="Слой_1" xmlns="http://www.w3.org/2000/svg" xmlns:xlink="http://www.w3.org/1999/xlink" x="0px" y="0px"
	 viewBox="0 0 219 216" style="enable-background:new 0 0 219 216;" xml:space="preserve">
<style type="text/css">
	.st0{fill:#E7533B;}
	.st1{fill:#FDD84A;}
</style>
<g>
	<g>
		<path class="st0" d="M147.6,74.6c0.8,4.2,3.4,15.1,11.2,22.9c7.9,7.9,18.8,10.5,22.9,11.2c-0.8-4.2-3.4-15.1-11.2-22.9
			C162.7,77.9,151.7,75.3,147.6,74.6z"/>
		<path class="st0" d="M147.6,71.4c4.2-0.7,15.1-3.4,22.9-11.2c7.9-7.9,10.5-18.8,11.2-22.9c-4.2,0.7-15.1,3.4-22.9,11.2
			C150.9,56.3,148.3,67.3,147.6,71.4z"/>
		<path class="st0" d="M219,0c-4.2,0.7-15.1,3.4-22.9,11.2c-7.8,7.8-10.5,18.8-11.2,22.9c4.2-0.7,15.1-3.4,22.9-11.2
			C215.6,15.1,218.3,4.2,219,0z"/>
		<path class="st0" d="M181.7,34.1c-0.7-4.2-3.4-15.1-11.2-22.9C162.7,3.4,151.7,0.7,147.6,0c0.7,4.2,3.4,15.1,11.2,22.9
			C166.6,30.8,177.6,33.4,181.7,34.1z"/>
		<path class="st0" d="M219,74.6c-4.2,0.7-15.1,3.4-22.9,11.2c-7.9,7.9-10.5,18.8-11.2,22.9c4.2-0.7,15.1-3.4,22.9-11.2
			C215.7,89.6,218.3,78.7,219,74.6z"/>
		<path class="st0" d="M219,71.4c-0.8-4.2-3.4-15.1-11.2-22.9c-7.9-7.9-18.8-10.5-22.9-11.2c0.8,4.2,3.4,15.1,11.2,22.9
			C203.9,68.1,214.8,70.7,219,71.4z"/>
		<path class="st0" d="M219,146c-0.8-4.2-3.4-15.1-11.2-22.9c-7.9-7.9-18.8-10.5-22.9-11.2c0.8,4.2,3.4,15.1,11.2,22.9
			C203.9,142.6,214.8,145.3,219,146z"/>
		<path class="st0" d="M147.6,146c4.2-0.7,15.1-3.4,22.9-11.2c7.8-7.8,10.5-18.8,11.2-22.9c-4.2,0.7-15.1,3.4-22.9,11.2
			C150.9,130.9,148.3,141.8,147.6,146z"/>
		<path class="st0" d="M107.2,37.3C103,38,92.1,40.7,84.2,48.5C76.4,56.3,73.8,67.3,73,71.4c4.2-0.7,15.1-3.4,22.9-11.2
			C103.8,52.4,106.4,41.5,107.2,37.3z"/>
		<path class="st0" d="M107.2,111.9c-4.2,0.7-15.1,3.4-22.9,11.2c-7.8,7.8-10.5,18.8-11.2,22.9c4.2-0.7,15.1-3.4,22.9-11.2
			C103.8,126.9,106.4,116,107.2,111.9z"/>
		<path class="st0" d="M107.2,108.7c-0.8-4.2-3.4-15.1-11.2-22.9C88.1,77.9,77.2,75.3,73,74.6c0.8,4.2,3.4,15.1,11.2,22.9
			C92.1,105.4,103,108,107.2,108.7z"/>
		<path class="st0" d="M107.2,34.1c-0.8-4.2-3.4-15.1-11.2-22.9C88.1,3.4,77.2,0.7,73,0c0.8,4.2,3.4,15.1,11.2,22.9
			C92.1,30.8,103,33.4,107.2,34.1z"/>
		<path class="st0" d="M110.3,108.7c4.2-0.7,15.1-3.4,22.9-11.2c7.9-7.9,10.5-18.8,11.2-22.9c-4.2,0.7-15.1,3.4-22.9,11.2
			C113.6,93.6,111,104.6,110.3,108.7z"/>
		<path class="st0" d="M144.4,146c-0.8-4.2-3.4-15.1-11.2-22.9c-7.9-7.9-18.8-10.5-22.9-11.2c0.8,4.2,3.4,15.1,11.2,22.9
			C129.4,142.6,140.3,145.3,144.4,146z"/>
		<path class="st0" d="M144.4,71.4c-0.8-4.2-3.4-15.1-11.2-22.9c-7.9-7.9-18.8-10.5-22.9-11.2c0.8,4.2,3.4,15.1,11.2,22.9
			C129.3,68.1,140.3,70.7,144.4,71.4z"/>
		<path class="st0" d="M144.4,0c-4.2,0.7-15.1,3.4-22.9,11.2c-7.9,7.9-10.5,18.8-11.2,22.9c4.2-0.7,15.1-3.4,22.9-11.2
			C141.1,15.1,143.7,4.2,144.4,0z"/>
		<path class="st1" d="M35.5,178.2c-0.2,0.1-0.3,0.3-0.3,0.5c-0.1,0.2-0.1,0.4-0.1,0.6s0,0.4,0.1,0.6c0.1,0.2,0.2,0.4,0.3,0.5
			c0.3,0.3,0.7,0.4,1.1,0.4s0.8-0.2,1.1-0.4c0.2-0.1,0.3-0.3,0.3-0.5c0.1-0.2,0.1-0.4,0.1-0.6s0-0.4-0.1-0.6
			c-0.1-0.2-0.2-0.4-0.3-0.5c-0.3-0.3-0.7-0.5-1.1-0.5S35.8,177.9,35.5,178.2z"/>
		<path class="st1" d="M34.4,177.5c0,0,0.1,0,0.1,0c0,0,0.1,0,0.1-0.1c0,0,0.1-0.1,0.1-0.1c0,0,0-0.1,0-0.1c-0.4-2-1.4-3.8-2.8-5.3
			c-1.5-1.4-3.3-2.3-5.2-2.8v0.4h-0.4c0.4,1.9,1.4,3.7,2.8,5.2C30.6,176.1,32.4,177,34.4,177.5z"/>
		<path class="st1" d="M38.8,181.1c-0.1,0-0.1,0-0.2,0c-0.1,0-0.1,0-0.1,0.1c0,0-0.1,0.1-0.1,0.1c0,0,0,0.1,0,0.1
			c0.4,2,1.4,3.8,2.8,5.3c1.5,1.4,3.3,2.3,5.2,2.8V189h0.4c-0.5-1.9-1.4-3.7-2.8-5.2C42.6,182.5,40.8,181.5,38.8,181.1z"/>
		<path class="st1" d="M34.8,181.4c0,0,0-0.1,0-0.1c0,0,0-0.1-0.1-0.1c0,0-0.1-0.1-0.1-0.1c0,0-0.1,0-0.2,0c-2,0.4-3.8,1.4-5.3,2.8
			c-1.4,1.4-2.3,3.2-2.8,5.2h0.4v0.4c1.9-0.4,3.8-1.4,5.2-2.8C33.3,185.2,34.3,183.4,34.8,181.4z"/>
		<path class="st1" d="M38.4,177.1c0,0,0,0.1,0,0.1c0,0,0,0.1,0.1,0.1c0,0,0.1,0.1,0.1,0.1c0,0,0.1,0,0.2,0c2-0.4,3.8-1.4,5.3-2.8
			c1.4-1.4,2.3-3.2,2.8-5.2h-0.4v-0.4c-2,0.4-3.8,1.4-5.2,2.8C39.8,173.3,38.9,175.1,38.4,177.1z"/>
		<path class="st1" d="M33.7,179c-1.7-1.1-3.7-1.7-5.7-1.7c-2,0.1-4,0.7-5.8,1.7c0,0-0.1,0.1-0.1,0.1c0,0,0,0.1,0,0.1
			c0,0,0,0.1,0,0.1s0.1,0.1,0.1,0.1c1.7,1.1,3.7,1.7,5.8,1.7c2,0,4-0.7,5.7-1.7l0.1,0v0c0,0,0-0.1,0.1-0.1c0,0,0-0.1,0-0.1
			c0,0,0-0.1,0-0.1C33.8,179.1,33.8,179.1,33.7,179L33.7,179z"/>
		<path class="st1" d="M50.9,179c-1.7-1.1-3.7-1.7-5.7-1.7c-2,0.1-4,0.7-5.7,1.7c0,0-0.1,0.1-0.1,0.1c0,0,0,0.1,0,0.1
			c0,0.1,0,0.1,0,0.1c0,0,0.1,0.1,0.1,0.1c1.7,1.1,3.7,1.7,5.7,1.7c2-0.1,4-0.7,5.8-1.7l0,0v0c0,0,0.1-0.1,0.1-0.1c0,0,0-0.1,0-0.1
			c0,0,0-0.1,0-0.1C51,179.1,51,179.1,50.9,179L50.9,179z"/>
		<path class="st1" d="M36.6,182c0,0-0.1,0-0.2,0c0,0-0.1,0.1-0.1,0.1c-1.1,1.7-1.7,3.7-1.8,5.7c0.1,2,0.7,4,1.8,5.7
			c0,0,0.1,0.1,0.1,0.1c0,0,0.1,0,0.1,0c0,0,0.1,0,0.1,0c0,0,0.1,0,0.1-0.1l0,0c1.1-1.7,1.7-3.7,1.8-5.7c0-2-0.7-4-1.8-5.7
			c0,0-0.1-0.1-0.1-0.1C36.7,182,36.7,182,36.6,182z"/>
		<path class="st1" d="M36.6,176.6c0,0,0.1,0,0.1,0c0,0,0.1,0,0.1-0.1l0,0c1.1-1.7,1.7-3.7,1.8-5.7c0-2-0.7-4-1.8-5.7
			c0,0-0.1-0.1-0.1-0.1c0,0-0.1,0-0.1,0c0,0-0.1,0-0.2,0c0,0-0.1,0.1-0.1,0.1c-1.1,1.7-1.7,3.7-1.8,5.7c0.1,2,0.7,4,1.8,5.7
			c0,0,0.1,0.1,0.1,0.1C36.5,176.6,36.6,176.6,36.6,176.6z"/>
		<path class="st1" d="M19.3,143.7c-4.8-0.2-5.3,2.6-5.3,3.4c0,2.6,1.9,3,1.9,3c-1.1,0.6-5.1,0.6-5.1-3.3c0-0.5,0.1-0.9,0.3-1.3
			c0.2-0.4,0.6-0.7,1-0.9l0,0c-0.7,0.4-1.5,0.6-2.3,0.7c-0.9-0.1-1.8-0.5-2.5-1.1C6.8,143.7,6,143,6,143H2.7c0,0,7.4,9.4,14,9.4
			c1,0,2-0.3,2.9-0.9c0.8-0.6,1.4-1.5,1.8-2.5s0.3-2-0.1-3C20.8,145.1,20.2,144.2,19.3,143.7z"/>
		<path class="st1" d="M0,145.6L0,145.6v3.3v0c0,0,0.7,0.8,1.1,1.3c0.7,0.7,1.1,1.6,1.2,2.5c-0.1,0.8-0.3,1.6-0.7,2.2l0,0
			c0.2-0.4,0.5-0.7,0.9-1c0.4-0.2,0.8-0.3,1.3-0.3c3.9,0,3.9,4,3.4,5.1c0,0-0.5-1.9-3.1-1.9c-0.8,0-3.7,0.6-3.4,5.3
			c0.6,0.9,1.4,1.5,2.4,1.8c1,0.3,2,0.4,3,0.1c1-0.3,1.9-0.9,2.5-1.7c0.6-0.8,0.9-1.8,1-2.9C9.5,153,0,145.6,0,145.6z"/>
		<path class="st1" d="M70.3,143H67c0,0-0.8,0.7-1.3,1.1c-0.7,0.6-1.6,1-2.5,1.1c-0.8-0.1-1.6-0.3-2.3-0.7l0,0
			c0.4,0.2,0.7,0.5,1,0.9c0.2,0.4,0.3,0.8,0.3,1.3c0,3.9-4,3.9-5.1,3.3c0,0,1.9-0.5,1.9-3c0-0.8-0.6-3.6-5.3-3.4
			c-0.9,0.6-1.5,1.4-1.8,2.4c-0.4,1-0.4,2-0.1,3s0.9,1.8,1.8,2.5c0.8,0.6,1.8,0.9,2.9,0.9C62.9,152.4,70.3,143,70.3,143z"/>
		<path class="st1" d="M73,145.6c0,0-9.5,7.4-9.5,13.8c0,1,0.3,2,1,2.9c0.6,0.8,1.5,1.4,2.5,1.7c1,0.3,2,0.3,3-0.1
			c1-0.3,1.8-1,2.4-1.8c0.2-4.7-2.6-5.3-3.4-5.3c-2.6,0-3.1,1.9-3.1,1.9c-0.6-1.1-0.6-5,3.4-5.1c0.5,0,0.9,0.1,1.3,0.3
			c0.4,0.2,0.7,0.6,0.9,1l0,0c-0.4-0.7-0.6-1.5-0.7-2.2c0.1-0.9,0.5-1.8,1.2-2.5c0.3-0.5,1.1-1.3,1.1-1.3v0V145.6L73,145.6z"/>
		<path class="st1" d="M56.4,206.6c-1,0-2,0.3-2.9,0.9c-0.8,0.6-1.4,1.5-1.8,2.5c-0.3,1-0.3,2,0.1,3c0.3,1,1,1.8,1.8,2.4
			c4.8,0.2,5.3-2.6,5.3-3.4c0-2.6-1.9-3-1.9-3c1.1-0.6,5.1-0.6,5.1,3.3c0,0.5-0.1,0.9-0.3,1.3c-0.2,0.4-0.6,0.7-1,0.9l0,0
			c0.7-0.4,1.5-0.6,2.3-0.7c0.9,0.1,1.8,0.5,2.5,1.1c0.5,0.4,1.3,1.1,1.3,1.1h3.4C70.3,216,62.9,206.6,56.4,206.6z"/>
		<path class="st1" d="M71.9,208.8c-0.7-0.7-1.1-1.6-1.2-2.5c0.1-0.8,0.3-1.6,0.7-2.2l0,0c-0.2,0.4-0.5,0.7-0.9,1s-0.8,0.3-1.3,0.3
			c-3.9,0-3.9-4-3.4-5.1c0,0,0.5,1.9,3.1,1.9c0.8,0,3.7-0.6,3.4-5.3c-0.6-0.9-1.4-1.5-2.4-1.8c-1-0.3-2-0.4-3-0.1
			c-1,0.3-1.9,0.9-2.5,1.7c-0.6,0.8-0.9,1.8-1,2.9c0,6.5,9.5,13.8,9.5,13.8l0,0V210l0,0C73,210,72.3,209.3,71.9,208.8z"/>
		<path class="st1" d="M9.8,213.8c0.8,0.1,1.6,0.3,2.3,0.7l0,0c-0.4-0.2-0.7-0.5-1-0.9c-0.2-0.4-0.3-0.8-0.3-1.3
			c0-3.9,4-3.9,5.1-3.3c0,0-1.9,0.5-1.9,3c0,0.8,0.6,3.6,5.3,3.4c0.9-0.6,1.5-1.4,1.8-2.4c0.4-1,0.4-2,0.1-3c-0.3-1-0.9-1.8-1.8-2.5
			c-0.8-0.6-1.8-0.9-2.9-0.9c-6.5,0-14,9.4-14,9.4H6c0,0,0.8-0.7,1.3-1.1C8,214.3,8.9,213.9,9.8,213.8z"/>
		<path class="st1" d="M9.5,199.5c0-1-0.3-2-1-2.9c-0.6-0.8-1.5-1.4-2.5-1.7c-1-0.3-2-0.3-3,0.1c-1,0.3-1.8,1-2.4,1.8
			c-0.2,4.7,2.6,5.3,3.4,5.3c2.6,0,3.1-1.9,3.1-1.9c0.6,1.1,0.6,5-3.4,5.1c-0.5,0-0.9-0.1-1.3-0.3s-0.7-0.6-0.9-1l0,0
			c0.4,0.7,0.6,1.5,0.7,2.2c-0.1,0.9-0.5,1.8-1.2,2.5C0.7,209.3,0,210,0,210l0,0v3.3l0,0C0,213.4,9.5,206,9.5,199.5z"/>
		<path class="st1" d="M48.2,152.8V143H25v9.8l-15.2,15H0v1.7v8.1v0v3.4v0v8.1v1.7h9.8l15.2,15V216h23.2v-10.2l15.2-15H73v-22.9
			h-9.7L48.2,152.8z M61.6,189H46.9c0,0,0,0.1,0,0.1c0,0,0,0.1,0,0.1c0,0-0.1,0.1-0.1,0.1c0,0-0.1,0.1-0.1,0.1c0,0-0.1,0-0.1,0
			c0,0,0,0-0.1,0v14.6l-9.9,9.8l-9.9-9.8v-14.6c-0.1,0-0.1,0-0.1,0c-0.1,0-0.1,0-0.2,0c-0.1,0-0.1,0-0.1-0.1c0,0-0.1-0.1-0.1-0.1
			c0,0,0-0.1,0-0.1c0,0,0,0,0-0.1H11.6l-9.9-9.8l9.9-9.8h14.7c0,0,0-0.1,0-0.1c0-0.1,0-0.1,0-0.1c0,0,0-0.1,0.1-0.1
			c0,0,0.1-0.1,0.1-0.1c0.1,0,0.1,0,0.2,0c0,0,0,0,0.1,0v-14.6l9.9-9.8l9.9,9.8v14.6c0,0,0.1,0,0.1,0c0,0,0.1,0,0.1,0
			c0.1,0,0.1,0,0.1,0.1c0,0,0.1,0.1,0.1,0.1c0,0,0,0.1,0,0.1c0,0,0,0,0,0.1h14.7l9.9,9.8L61.6,189z"/>
		<path class="st1" d="M26.7,169.1C26.7,169.1,26.7,169,26.7,169.1c-0.2,0-0.2,0-0.3,0c-0.1,0-0.1,0-0.1,0.1c0,0-0.1,0.1-0.1,0.1
			c0,0,0,0.1,0,0.1c0,0,0,0,0,0.1h0.4V169.1z"/>
		<path class="st1" d="M46.5,189.5C46.5,189.5,46.5,189.5,46.5,189.5c0.1,0,0.2,0,0.2,0c0.1,0,0.1,0,0.1-0.1c0,0,0.1-0.1,0.1-0.1
			c0,0,0-0.1,0-0.1c0,0,0,0,0-0.1h-0.4V189.5z"/>
		<path class="st1" d="M26.3,189C26.3,189.1,26.3,189.1,26.3,189c0,0.1,0,0.2,0,0.2c0,0,0,0.1,0.1,0.1c0,0,0.1,0.1,0.1,0.1
			c0.1,0,0.1,0,0.2,0c0,0,0,0,0.1,0V189H26.3z"/>
		<path class="st1" d="M46.9,169.5C46.9,169.5,46.9,169.4,46.9,169.5c0-0.1,0-0.2,0-0.2c0,0,0-0.1-0.1-0.1c0,0-0.1-0.1-0.1-0.1
			c0,0-0.1,0-0.1,0c0,0,0,0-0.1,0v0.4H46.9z"/>
	</g>
</g>
</svg>
