<?xml version="1.0" encoding="utf-8"?>
<!-- Generator: Adobe Illustrator 22.1.0, SVG Export Plug-In . SVG Version: 6.00 Build 0)  -->
<svg version="1.1" id="Слой_1" xmlns="http://www.w3.org/2000/svg" xmlns:xlink="http://www.w3.org/1999/xlink" x="0px" y="0px"
	 viewBox="0 0 148 246" style="enable-background:new 0 0 148 246;" xml:space="preserve">
<style type="text/css">
	.st0{fill:#E7533B;}
	.st1{fill:#FDD84A;}
</style>
<path class="st0" d="M104,142.1l-1-0.2c-3.4-0.6-6.8-0.9-10.2-1c-2.3,0-4.6,0.2-6.8,0.8l0-0.1l-0.1,0c-1.9-3.6-6-7.6-12.2-11.9
	l-0.8-0.6l-0.8,0.6c-6.1,4.4-10.1,8.4-12.1,11.9l-0.1,0l0,0.1c-2.2-0.6-4.5-0.9-6.8-0.9c-3.5,0.1-6.9,0.4-10.3,1l-0.3,0l0,0
	l-0.7,0.1l-0.1,0.7l0,0l0,0.2c-1.2,7.4-1.2,13.1-0.1,17c-3.6,1.9-7.6,6-12,12.2l-0.6,0.8l0.6,0.8c4.4,6.1,8.4,10.1,11.9,12.1l0,0.1
	l0.1,0c-1.2,3.9-1.1,9.6,0.1,17l0,0.3l0,0l0.1,0.7l0.7,0.1l0,0l0.2,0c3.3,0.6,6.7,0.9,10.1,0.9h0c2.3,0,4.6-0.2,6.9-0.8l0,0.1l0.1,0
	c1.9,3.5,6,7.6,12.1,11.9l0.8,0.6l0.8-0.6c6.1-4.4,10.2-8.4,12.1-11.9l0.1,0l0-0.1c2.2,0.6,4.5,0.9,6.8,0.8c3.4,0,6.8-0.4,10.2-1
	l0.6-0.1l0.3-0.1l0.2-1c1.2-7.4,1.3-13.1,0.2-17l0.1,0l0-0.1c3.5-1.9,7.6-6,11.9-12.1l0.6-0.8l-0.6-0.8c-4.4-6.1-8.4-10.2-11.9-12.1
	l0-0.1l-0.1,0c1.2-3.8,1.1-9.5-0.2-17l-0.1-0.3l0,0L104,142.1z M101.6,144.5c1,6.5,1.1,11.4,0.1,14.6l-0.1,0
	c-0.3-0.1-0.6-0.2-0.9-0.3h0c-0.3-0.1-0.6-0.2-0.9-0.3l-0.1,0c-0.3-0.1-0.6-0.2-0.9-0.2l0,0c-3.8-0.8-7.7-0.7-11.5,0.4l0,0
	c0.1-0.3,0.1-0.5,0.2-0.8l0-0.2c0.1-0.3,0.1-0.5,0.2-0.8l0,0c0.1-0.3,0.1-0.5,0.1-0.8l0-0.2c0-0.3,0.1-0.5,0.1-0.8l0-0.1
	c0-0.2,0.1-0.5,0.1-0.7l0-0.2c0-0.3,0-0.5,0.1-0.8l0-0.1c0-0.2,0-0.5,0-0.7l0-0.2c0-0.3,0-0.5,0-0.8l0-0.2c0-0.2,0-0.5,0-0.7l0-0.1
	c0-0.3,0-0.5-0.1-0.8l0-0.2c0-0.2-0.1-0.5-0.1-0.7l0-0.1c0-0.3-0.1-0.5-0.1-0.8l0-0.2c0-0.3-0.1-0.5-0.2-0.8l0,0
	c-0.1-0.3-0.1-0.5-0.2-0.8l0-0.2c-0.1-0.3-0.1-0.5-0.2-0.8l0-0.1c-0.1-0.2-0.2-0.5-0.2-0.7l0-0.1C90.3,143.4,95.3,143.5,101.6,144.5
	z M73,132.6c5.3,3.8,8.8,7.3,10.4,10.2c-0.3,0.1-0.6,0.3-0.8,0.4l-0.1,0.1c-0.3,0.2-0.6,0.3-0.8,0.5l-0.3,0.2
	c-0.2,0.1-0.4,0.3-0.7,0.4l-0.3,0.2c-0.3,0.2-0.5,0.4-0.8,0.5l-0.1,0.1c-0.3,0.2-0.6,0.4-0.8,0.7l-0.2,0.2c-0.2,0.2-0.4,0.3-0.6,0.5
	l-0.3,0.2c-0.2,0.2-0.4,0.4-0.6,0.6l-0.2,0.2c-0.3,0.3-0.5,0.5-0.7,0.8l-0.1,0.1c-0.2,0.2-0.4,0.4-0.6,0.7l-0.2,0.3
	c-0.2,0.2-0.3,0.4-0.5,0.6l-0.2,0.3c-0.2,0.3-0.4,0.6-0.6,0.8l0,0c-0.2,0.3-0.4,0.6-0.6,0.9l-0.2,0.3l-0.2,0.4l-0.2-0.4l-0.2-0.3
	c-0.2-0.3-0.4-0.6-0.6-0.9l0,0c-0.2-0.3-0.4-0.6-0.6-0.8l-0.2-0.3c-0.2-0.2-0.3-0.4-0.5-0.6l-0.2-0.3c-0.2-0.2-0.4-0.4-0.6-0.7
	l-0.1-0.1c-0.2-0.3-0.5-0.5-0.7-0.8l-0.2-0.2c-0.2-0.2-0.4-0.4-0.6-0.6l-0.3-0.2c-0.2-0.2-0.4-0.3-0.6-0.5l-0.2-0.2
	c-0.3-0.2-0.6-0.4-0.8-0.7l-0.1-0.1c-0.2-0.2-0.5-0.3-0.7-0.5l-0.3-0.2c-0.2-0.1-0.4-0.3-0.6-0.4l-0.3-0.2c-0.3-0.2-0.6-0.3-0.8-0.5
	l-0.1,0c-0.3-0.1-0.5-0.3-0.8-0.4C64.3,139.8,67.8,136.4,73,132.6L73,132.6z M75.2,163.2c0,0.6-0.2,1.2-0.7,1.6
	c-0.4,0.4-1,0.7-1.6,0.7c-0.6,0-1.2-0.2-1.6-0.7c-0.4-0.4-0.7-1-0.7-1.6c0.3-1.5,1.1-2.9,2.2-4l0.1,0.2l0.1-0.2
	C74.2,160.3,74.9,161.7,75.2,163.2L75.2,163.2z M44.4,144.4c6.4-1,11.4-1.1,14.6-0.2l0,0.1c-0.1,0.2-0.2,0.5-0.2,0.7l0,0.1
	c-0.1,0.3-0.2,0.5-0.2,0.8l0,0.2c-0.1,0.2-0.1,0.5-0.2,0.7l0,0.1c-0.1,0.3-0.1,0.5-0.2,0.8l0,0.2c0,0.3-0.1,0.5-0.1,0.8l0,0
	c0,0.3-0.1,0.5-0.1,0.8l0,0.2c0,0.3-0.1,0.5-0.1,0.8l0,0.1c0,0.2,0,0.5,0,0.7l0,0.2c0,0.3,0,0.5,0,0.8l0,0.1c0,0.2,0,0.5,0,0.7
	l0,0.2c0,0.3,0,0.5,0.1,0.8l0,0.2c0,0.2,0,0.5,0.1,0.7l0,0.1c0,0.3,0.1,0.5,0.1,0.8l0,0.2c0,0.3,0.1,0.5,0.1,0.8l0,0
	c0.1,0.3,0.1,0.5,0.2,0.8l0,0.2c0.1,0.3,0.1,0.5,0.2,0.8l0,0c-4.7-1.3-9.7-1.2-14.3,0.4C43.4,155.7,43.5,150.8,44.4,144.4z
	 M43.2,182.5c-0.1,0.3-0.3,0.6-0.4,0.8c-3-1.7-6.4-5.2-10.2-10.4c3.8-5.3,7.3-8.8,10.2-10.4c2.1,4.4,5.6,8,9.8,10.4l-0.4,0.2
	l-0.3,0.2c-0.3,0.2-0.6,0.4-0.9,0.6l0,0c-0.3,0.2-0.6,0.4-0.8,0.6l-0.3,0.2c-0.2,0.2-0.4,0.3-0.6,0.5l-0.3,0.2
	c-0.2,0.2-0.4,0.4-0.7,0.6l-0.2,0.1c-0.3,0.2-0.5,0.5-0.8,0.7l-0.2,0.2c-0.2,0.2-0.4,0.4-0.5,0.6l-0.2,0.3c-0.2,0.2-0.3,0.4-0.5,0.6
	l-0.2,0.2c-0.2,0.3-0.4,0.5-0.7,0.8l-0.1,0.2c-0.2,0.2-0.3,0.5-0.5,0.7l-0.2,0.3c-0.1,0.2-0.3,0.4-0.4,0.6l-0.2,0.3
	C43.6,181.9,43.4,182.1,43.2,182.5L43.2,182.5z M44.4,201.6c-1-6.4-1.1-11.4-0.1-14.6c0.3,0.1,0.6,0.2,1,0.3l0.2,0.1
	c0.3,0.1,0.6,0.2,0.8,0.2l0.5,0.1c0.2,0,0.4,0.1,0.6,0.1c0.2,0,0.4,0.1,0.6,0.1l0.5,0.1c0.2,0,0.4,0.1,0.7,0.1l0.3,0
	c0.3,0,0.5,0.1,0.8,0.1l0.1,0c0.7,0.1,1.3,0.1,2,0.1c1.9,0,3.8-0.2,5.7-0.7l0,0c0.3-0.1,0.5-0.1,0.8-0.2l0,0l0,0
	c-0.1,0.3-0.1,0.5-0.2,0.8l0,0.2c-0.1,0.3-0.1,0.5-0.2,0.8l0,0c-0.1,0.3-0.1,0.5-0.1,0.8l0,0.2c0,0.3-0.1,0.5-0.1,0.8l0,0.1
	c0,0.2-0.1,0.5-0.1,0.7l0,0.2c0,0.3,0,0.5-0.1,0.8l0,0.1c0,0.2,0,0.5,0,0.7l0,0.2c0,0.3,0,0.5,0,0.8l0,0.2c0,0.2,0,0.5,0,0.7l0,0.1
	c0,0.3,0,0.5,0.1,0.8l0,0.2c0,0.2,0.1,0.5,0.1,0.7l0,0.1c0,0.3,0.1,0.5,0.1,0.8l0,0.2c0,0.3,0.1,0.5,0.1,0.7l0,0.1
	c0.1,0.3,0.1,0.5,0.2,0.8l0,0.2c0.1,0.3,0.1,0.5,0.2,0.8l0,0c0.1,0.2,0.1,0.5,0.2,0.7l0,0.1C55.7,202.6,50.7,202.5,44.4,201.6
	L44.4,201.6z M72.9,213.4c-5.3-3.8-8.8-7.3-10.4-10.2c0.3-0.1,0.6-0.3,0.9-0.5l0.2-0.1c0.2-0.1,0.5-0.3,0.7-0.4l0.3-0.2
	c0.2-0.1,0.4-0.3,0.6-0.4l0.3-0.2c0.3-0.2,0.6-0.4,0.9-0.6l0,0c0.3-0.2,0.5-0.4,0.8-0.6l0.2-0.2c0.2-0.2,0.4-0.3,0.6-0.5l0.3-0.2
	c0.2-0.2,0.4-0.4,0.6-0.6l0.2-0.2c0.2-0.3,0.5-0.5,0.7-0.8l0.2-0.2c0.2-0.2,0.4-0.4,0.5-0.6l0.2-0.3c0.2-0.2,0.3-0.4,0.5-0.6
	l0.2-0.2c0.2-0.3,0.4-0.6,0.6-0.9l0,0c0.2-0.3,0.4-0.6,0.6-0.9l0.2-0.3l0.2-0.4l0.2,0.4l0.2,0.3c0.2,0.3,0.4,0.6,0.6,0.9l0,0.1
	c0.2,0.3,0.4,0.6,0.6,0.8l0.2,0.3c0.1,0.2,0.3,0.4,0.5,0.6l0.2,0.3c0.2,0.2,0.4,0.4,0.6,0.7l0.1,0.1c0.2,0.3,0.5,0.5,0.7,0.8
	l0.2,0.2c0.2,0.2,0.4,0.4,0.6,0.6l0.3,0.2c0.2,0.2,0.4,0.3,0.6,0.5l0.2,0.2c0.3,0.2,0.6,0.4,0.8,0.7l0.1,0.1
	c0.2,0.2,0.5,0.4,0.7,0.5l0.3,0.2c0.2,0.1,0.4,0.3,0.6,0.4l0.3,0.2c0.3,0.2,0.6,0.3,0.9,0.5l0.1,0c0.3,0.1,0.6,0.3,0.8,0.4
	C81.7,206.2,78.2,209.6,72.9,213.4z M70.8,182.8c0-0.6,0.2-1.2,0.7-1.6c0.4-0.4,1-0.7,1.6-0.7c0.6,0,1.2,0.2,1.6,0.7
	c0.4,0.4,0.7,1,0.7,1.6c-0.3,1.5-1.1,2.9-2.2,4l-0.1-0.2l-0.1,0.2C71.8,185.7,71.1,184.3,70.8,182.8z M86.6,184.3
	c-0.3-0.1-0.6-0.2-1-0.4l-3.1-1.3l1.3,3.1c0.1,0.3,0.3,0.6,0.4,1l0.1,0.3c0.1,0.2,0.1,0.4,0.2,0.6l0.1,0.4c0.1,0.2,0.1,0.4,0.2,0.6
	L85,189c0,0.2,0.1,0.4,0.1,0.6l0.1,0.4c0,0.2,0.1,0.4,0.1,0.6l0.1,0.4c0,0.2,0,0.4,0.1,0.6l0,0.4c0,0.2,0,0.4,0,0.6l0,0.4
	c0,0.2,0,0.4,0,0.6l0,0.4c0,0.2,0,0.4,0,0.6l0,0.4c0,0.2,0,0.4,0,0.7l0,0.3c0,0.3-0.1,0.6-0.1,1l0,0c0,0.3-0.1,0.7-0.2,1l-0.1,0.3
	c0,0.2-0.1,0.4-0.1,0.7l-0.1,0.4c0,0.2-0.1,0.4-0.2,0.6l-0.1,0.4l-0.1,0.4l-0.4-0.2l-0.4-0.2c-0.2-0.1-0.4-0.2-0.5-0.3l-0.3-0.2
	c-0.2-0.1-0.4-0.2-0.6-0.4l-0.3-0.2c-0.3-0.2-0.5-0.4-0.8-0.6l-0.1,0c-0.2-0.2-0.5-0.4-0.7-0.6l-0.3-0.2c-0.2-0.1-0.3-0.3-0.5-0.4
	l-0.3-0.3l-0.4-0.4l-0.3-0.3l-0.4-0.4l-0.3-0.3l-0.4-0.4l-0.3-0.3l-0.3-0.4l-0.3-0.4l-0.3-0.5l-0.2-0.4c-0.1-0.2-0.2-0.3-0.3-0.5
	l-0.2-0.4c-0.1-0.2-0.2-0.4-0.3-0.5l-0.2-0.4c-0.1-0.2-0.2-0.4-0.3-0.6l-0.1-0.3c-0.1-0.3-0.3-0.6-0.4-0.9l0,0
	c1.8-2,3.7-4.6,3.7-6.9c0-1.3-0.5-2.6-1.5-3.5c-0.9-0.9-2.2-1.4-3.5-1.4c-1.3,0-2.6,0.5-3.5,1.4s-1.5,2.2-1.5,3.5
	c0,2.3,1.9,4.8,3.7,6.8l0,0.1c-0.1,0.3-0.3,0.6-0.4,0.9l-0.1,0.3c-0.1,0.2-0.2,0.4-0.3,0.6l-0.2,0.3c-0.1,0.2-0.2,0.4-0.3,0.5
	l-0.2,0.4c-0.1,0.2-0.2,0.3-0.3,0.5l-0.2,0.4l-0.3,0.5l-0.3,0.4l-0.3,0.4l-0.3,0.3l-0.4,0.4l-0.3,0.3l-0.4,0.4l-0.3,0.3l-0.4,0.4
	l-0.3,0.3l-0.5,0.4l-0.3,0.3c-0.2,0.1-0.4,0.3-0.5,0.4l-0.2,0.2c-0.3,0.2-0.5,0.4-0.8,0.6l-0.1,0.1c-0.2,0.2-0.5,0.3-0.7,0.5
	l-0.3,0.2c-0.2,0.1-0.4,0.2-0.6,0.3l-0.4,0.2l-0.4,0.2l-0.1-0.4l-0.1-0.4c-0.1-0.2-0.1-0.4-0.2-0.6l-0.1-0.4
	c-0.1-0.2-0.1-0.4-0.1-0.6l-0.1-0.3c-0.1-0.3-0.1-0.7-0.2-1l0-0.1c0-0.3-0.1-0.6-0.1-0.9l0-0.4c0-0.2,0-0.4,0-0.6l0-0.4
	c0-0.2,0-0.4,0-0.6l0-0.4c0-0.2,0-0.4,0-0.6l0-0.4c0-0.2,0-0.4,0-0.6l0-0.4c0-0.2,0-0.4,0.1-0.6l0.1-0.4c0-0.2,0.1-0.4,0.1-0.6
	l0.1-0.4c0-0.2,0.1-0.4,0.1-0.6l0.1-0.4c0.1-0.2,0.1-0.4,0.2-0.6l0.1-0.4c0.1-0.2,0.1-0.4,0.2-0.6l0.1-0.3c0.1-0.3,0.2-0.6,0.4-1
	l1.3-3.1l-3.1,1.3c-0.3,0.1-0.6,0.3-1,0.4l-0.3,0.1c-0.2,0.1-0.4,0.2-0.7,0.2l-0.3,0.1c-0.2,0.1-0.4,0.1-0.6,0.2l-0.3,0.1
	c-0.2,0.1-0.5,0.1-0.7,0.2l-0.3,0.1c-0.3,0-0.5,0.1-0.8,0.1l-0.2,0c-0.3,0-0.6,0.1-0.9,0.1l-0.1,0c-0.7,0.1-1.4,0.1-2.1,0.1
	c-1.4,0-2.7-0.1-4-0.4l-0.3-0.1c-0.2,0-0.4-0.1-0.7-0.1l-0.4-0.1c-0.2,0-0.4-0.1-0.5-0.1l-0.4-0.1l-0.4-0.1l0.2-0.4l0.2-0.4
	c0.1-0.2,0.2-0.4,0.3-0.5l0.2-0.3c0.1-0.2,0.2-0.4,0.4-0.6l0.2-0.3c0.2-0.3,0.4-0.6,0.6-0.8c0.2-0.3,0.4-0.5,0.6-0.8l0.2-0.2
	c0.1-0.2,0.3-0.3,0.4-0.5l0.3-0.3l0.4-0.4l0.3-0.3l0.4-0.4l0.3-0.3l0.4-0.4l0.3-0.3l0.5-0.4l0.3-0.3c0.2-0.1,0.3-0.2,0.5-0.3
	l0.4-0.2c0.2-0.1,0.3-0.2,0.5-0.3l0.4-0.2c0.2-0.1,0.4-0.2,0.5-0.3l0.3-0.2c0.2-0.1,0.4-0.2,0.6-0.3l0.3-0.1
	c0.3-0.1,0.6-0.3,0.9-0.4l0,0c2,1.8,4.6,3.7,6.9,3.7c1.3,0,2.6-0.5,3.5-1.4c0.9-0.9,1.5-2.2,1.5-3.5s-0.5-2.6-1.5-3.5
	c-0.9-0.9-2.2-1.5-3.5-1.5c-2.3,0-4.8,1.9-6.8,3.7l-0.1,0c-4.8-1.9-8.7-5.6-11-10.2c4.9-1.6,10.2-1.4,15,0.6l3.1,1.3l-1.3-3.1
	c-0.1-0.3-0.3-0.6-0.4-0.9l-0.1-0.3c-0.1-0.2-0.1-0.4-0.2-0.6l-0.1-0.4c-0.1-0.2-0.1-0.4-0.2-0.6L61,157c0-0.2-0.1-0.4-0.1-0.6
	l-0.1-0.4c0-0.2-0.1-0.4-0.1-0.6l-0.1-0.4c0-0.2-0.1-0.4-0.1-0.6l0-0.4c0-0.2,0-0.4,0-0.6l0-0.4c0-0.2,0-0.4,0-0.6l0-0.4
	c0-0.2,0-0.4,0-0.6l0-0.4c0-0.2,0-0.4,0-0.6l0-0.4c0-0.2,0.1-0.5,0.1-0.7l0-0.3c0-0.3,0.1-0.7,0.2-1l0-0.1c0.1-0.3,0.1-0.6,0.2-0.9
	l0.1-0.3c0.1-0.2,0.1-0.4,0.2-0.6l0.1-0.4l0.1-0.4l0.4,0.2l0.4,0.2c0.2,0.1,0.4,0.2,0.5,0.3l0.3,0.2c0.2,0.1,0.4,0.2,0.6,0.4
	l0.3,0.2c0.3,0.2,0.5,0.4,0.8,0.6l0,0c0.3,0.2,0.5,0.4,0.8,0.6l0.2,0.2c0.2,0.1,0.3,0.3,0.5,0.4l0.3,0.3l0.4,0.4l0.3,0.3l0.4,0.4
	l0.3,0.3l0.4,0.4l0.3,0.3l0.3,0.5l0.3,0.4l0.3,0.5l0.2,0.4c0.1,0.2,0.2,0.3,0.3,0.5l0.2,0.4c0.1,0.2,0.2,0.4,0.3,0.5l0.2,0.4
	c0.1,0.2,0.2,0.4,0.3,0.6l0.1,0.3c0.1,0.3,0.3,0.6,0.4,0.9l0,0c-1.8,2-3.7,4.6-3.7,6.9c0,1.3,0.5,2.6,1.5,3.5
	c0.9,0.9,2.2,1.4,3.5,1.4c1.3,0,2.6-0.5,3.5-1.4c0.9-0.9,1.5-2.2,1.5-3.5c0-2.3-1.9-4.8-3.7-6.8l0-0.1c0.1-0.3,0.3-0.6,0.4-0.9
	l0.1-0.3c0.1-0.2,0.2-0.4,0.3-0.6l0.2-0.4c0.1-0.2,0.2-0.4,0.3-0.5l0.2-0.4c0.1-0.2,0.2-0.3,0.3-0.5l0.2-0.4l0.3-0.5l0.3-0.4
	l0.3-0.4l0.3-0.3l0.4-0.4l0.3-0.3l0.4-0.4l0.3-0.3l0.4-0.4l0.3-0.3c0.2-0.1,0.3-0.3,0.5-0.4l0.3-0.2c0.2-0.2,0.5-0.4,0.7-0.6l0,0
	c0.3-0.2,0.5-0.4,0.8-0.6l0.3-0.2c0.2-0.1,0.4-0.2,0.6-0.4l0.3-0.2c0.2-0.1,0.4-0.2,0.5-0.3l0.4-0.2l0.4-0.2l0.1,0.4l0.1,0.4
	c0.1,0.2,0.1,0.4,0.2,0.6l0.1,0.4c0.1,0.2,0.1,0.4,0.1,0.7l0.1,0.3c0.1,0.3,0.1,0.7,0.2,1l0,0c0,0.3,0.1,0.6,0.1,1l0,0.3
	c0,0.2,0,0.4,0,0.7l0,0.4c0,0.2,0,0.4,0,0.6l0,0.4c0,0.2,0,0.4,0,0.6l0,0.4c0,0.2,0,0.4,0,0.6l0,0.4c0,0.2,0,0.4-0.1,0.6l-0.1,0.4
	c0,0.2-0.1,0.4-0.1,0.6l-0.1,0.4c0,0.2-0.1,0.4-0.1,0.6l-0.1,0.4c-0.1,0.2-0.1,0.4-0.2,0.6l-0.1,0.4c-0.1,0.2-0.1,0.4-0.2,0.6
	l-0.1,0.3c-0.1,0.3-0.2,0.6-0.4,0.9l-1.3,3.1l3.1-1.3c0.3-0.1,0.6-0.3,1-0.4l0.3-0.1c0.2-0.1,0.4-0.2,0.7-0.2l0.3-0.1
	c0.2-0.1,0.4-0.1,0.7-0.2l0.3-0.1c0.2-0.1,0.5-0.1,0.7-0.2l0.2,0c0.3-0.1,0.5-0.1,0.8-0.1l0.1,0c0.3,0,0.6-0.1,0.9-0.1l0,0
	c0.7-0.1,1.4-0.1,2.1-0.1c1.4,0,2.7,0.1,4.1,0.4l0.2,0c0.2,0.1,0.5,0.1,0.7,0.2l0.4,0.1c0.2,0.1,0.4,0.1,0.6,0.2l0.4,0.1l0.4,0.1
	l-0.2,0.4l-0.2,0.4c-0.1,0.2-0.2,0.4-0.3,0.5l-0.2,0.3c-0.1,0.2-0.2,0.4-0.4,0.6l-0.2,0.3c-0.2,0.3-0.4,0.6-0.6,0.8l0,0
	c-0.2,0.3-0.4,0.5-0.6,0.8l-0.2,0.3c-0.1,0.2-0.3,0.3-0.4,0.5l-0.3,0.3l-0.4,0.4l-0.3,0.3l-0.4,0.4l-0.3,0.3l-0.4,0.4l-0.3,0.3
	l-0.5,0.3l-0.4,0.3c-0.2,0.1-0.3,0.2-0.5,0.3l-0.4,0.2c-0.2,0.1-0.3,0.2-0.5,0.3l-0.4,0.2c-0.2,0.1-0.4,0.2-0.5,0.3l-0.4,0.2
	c-0.2,0.1-0.4,0.2-0.6,0.3l-0.3,0.2c-0.3,0.1-0.6,0.3-0.9,0.4l0,0l0,0c-2-1.8-4.6-3.7-6.9-3.7c-1.3,0-2.6,0.5-3.5,1.5
	c-0.9,0.9-1.5,2.2-1.5,3.5s0.5,2.6,1.5,3.5c0.9,0.9,2.2,1.5,3.5,1.5c2.3,0,4.8-1.9,6.8-3.7l0.1,0c0.3,0.1,0.6,0.3,0.9,0.4l0.3,0.1
	c0.2,0.1,0.4,0.2,0.6,0.3l0.4,0.2c0.2,0.1,0.4,0.2,0.5,0.3l0.4,0.2c0.2,0.1,0.3,0.2,0.5,0.3l0.4,0.2c0.2,0.1,0.3,0.2,0.5,0.3
	l0.3,0.3l0.5,0.4l0.3,0.3l0.4,0.4l0.3,0.3l0.4,0.4l0.3,0.3l0.4,0.4l0.3,0.3c0.2,0.2,0.3,0.3,0.4,0.5l0.2,0.2
	c0.2,0.3,0.4,0.5,0.6,0.8l0,0c0.2,0.3,0.4,0.5,0.6,0.8l0.2,0.3c0.1,0.2,0.2,0.4,0.4,0.6l0.2,0.3c0.1,0.2,0.2,0.4,0.3,0.5l0.2,0.4
	l0.2,0.4l-0.3,0.1l-0.4,0.1c-0.2,0.1-0.4,0.1-0.6,0.2L99,185c-0.2,0.1-0.5,0.1-0.7,0.2l-0.2,0.1c-1.3,0.3-2.7,0.4-4,0.4
	c-0.7,0-1.4,0-2.1-0.1l0,0c-0.3,0-0.6-0.1-1-0.1l-0.2,0c-0.3,0-0.5-0.1-0.8-0.1l-0.3,0c-0.2-0.1-0.5-0.1-0.7-0.2l-0.3-0.1
	c-0.2-0.1-0.4-0.1-0.7-0.2l-0.3-0.1c-0.2-0.1-0.5-0.1-0.7-0.2L86.6,184.3z M59.2,172.9c1.1-1.1,2.5-1.8,4-2.1c0.3,0,0.6,0.1,0.9,0.2
	c0.3,0.1,0.5,0.3,0.7,0.5c0.2,0.2,0.4,0.5,0.5,0.7c0.1,0.3,0.2,0.6,0.2,0.9s-0.1,0.6-0.2,0.9c-0.1,0.3-0.3,0.5-0.5,0.7
	c-0.2,0.2-0.5,0.4-0.7,0.5c-0.3,0.1-0.6,0.2-0.9,0.2c-1.5-0.3-2.9-1.1-4-2.2l0.2-0.1L59.2,172.9z M86.8,173.1
	c-1.1,1.1-2.5,1.8-4,2.1c-0.6,0-1.2-0.2-1.6-0.7c-0.4-0.4-0.7-1-0.7-1.6c0-0.6,0.2-1.2,0.7-1.6c0.4-0.4,1-0.7,1.6-0.7
	c1.5,0.3,2.9,1.1,4,2.2l-0.2,0.1L86.8,173.1z M101.5,201.6c-2.9,0.5-5.8,0.7-8.8,0.8c-2,0-3.9-0.2-5.8-0.7l0-0.1
	c0.1-0.2,0.2-0.5,0.2-0.7l0-0.1c0.1-0.3,0.1-0.5,0.2-0.8l0-0.2c0.1-0.3,0.1-0.5,0.2-0.8l0,0c0.1-0.3,0.1-0.5,0.2-0.8l0-0.2
	c0-0.3,0.1-0.5,0.1-0.8l0-0.1c0-0.2,0.1-0.5,0.1-0.7l0-0.2c0-0.3,0.1-0.5,0.1-0.8l0-0.1c0-0.2,0-0.5,0-0.7l0-0.1c0-0.3,0-0.5,0-0.8
	l0-0.2c0-0.2,0-0.5,0-0.7l0-0.1c0-0.3,0-0.5-0.1-0.8l0-0.2c0-0.3,0-0.5-0.1-0.8l0-0.1c0-0.3-0.1-0.5-0.1-0.8l0-0.2
	c0-0.3-0.1-0.5-0.1-0.8l0,0c-0.1-0.3-0.1-0.5-0.2-0.8l0-0.2c-0.1-0.3-0.1-0.5-0.2-0.8l0,0l0,0c2.1,0.6,4.3,0.9,6.6,0.9
	c1.6,0,3.3-0.2,4.9-0.5h0c0.3-0.1,0.6-0.1,0.9-0.2l0,0c0.3-0.1,0.6-0.2,0.9-0.2l0,0c0.3-0.1,0.6-0.2,0.8-0.3l0.1,0
	C102.6,190.3,102.5,195.2,101.5,201.6L101.5,201.6z M113.4,173.1c-3.8,5.3-7.3,8.8-10.2,10.4c-0.1-0.3-0.3-0.6-0.4-0.8l-0.1-0.1
	c-0.1-0.3-0.3-0.5-0.5-0.8l-0.2-0.3c-0.1-0.2-0.3-0.4-0.4-0.6l-0.2-0.3c-0.2-0.2-0.3-0.5-0.5-0.7l-0.1-0.1c-0.2-0.3-0.4-0.6-0.7-0.8
	l-0.2-0.2c-0.2-0.2-0.3-0.4-0.5-0.6l-0.2-0.3c-0.2-0.2-0.4-0.4-0.5-0.6l-0.2-0.2c-0.3-0.2-0.5-0.5-0.8-0.7l-0.2-0.1
	c-0.2-0.2-0.4-0.4-0.7-0.6l-0.3-0.2c-0.2-0.2-0.4-0.3-0.6-0.5l-0.3-0.2c-0.3-0.2-0.6-0.4-0.8-0.6l0,0c-0.3-0.2-0.6-0.4-0.9-0.6
	l-0.3-0.2l-0.4-0.2l0.4-0.2l0.3-0.2c0.3-0.2,0.6-0.4,0.9-0.6l0.1,0c0.3-0.2,0.6-0.4,0.8-0.6l0.3-0.2c0.2-0.2,0.4-0.3,0.6-0.5
	l0.3-0.2c0.2-0.2,0.4-0.4,0.7-0.6l0.2-0.1c0.3-0.2,0.5-0.5,0.8-0.7l0.2-0.2c0.2-0.2,0.4-0.4,0.5-0.6l0.2-0.3
	c0.2-0.2,0.3-0.4,0.5-0.6l0.2-0.2c0.2-0.3,0.4-0.6,0.7-0.8l0.1-0.1c0.2-0.2,0.4-0.5,0.5-0.7l0.2-0.3c0.1-0.2,0.3-0.4,0.4-0.6
	l0.2-0.3c0.2-0.3,0.3-0.6,0.5-0.8l0.1-0.1c0.1-0.3,0.3-0.6,0.4-0.8C106.2,164.3,109.6,167.8,113.4,173.1L113.4,173.1z"/>
<path class="st0" d="M42.1,142l0.7-0.1l-10.3-10.3h-0.8v0.8l10.3,10.4L42.1,142z"/>
<path class="st0" d="M42.1,142.1l0.7-0.1l0,0L42.1,142.1l-0.1,0.7L42.1,142.1z"/>
<path class="st0" d="M103.9,142L103.9,142L103.9,142l0.1,0.7l10.3-10.3v-0.8h-0.8l-10.3,10.3L103.9,142z"/>
<path class="st0" d="M104,142.1l0.1,0.6l0,0L104,142.1L104,142.1z"/>
<path class="st0" d="M103.9,204L103.9,204l-0.3,0.1l-0.4,0.1l10.3,10.3h0.9v-0.8L104,203.3L103.9,204z"/>
<path class="st0" d="M103.9,204L103.9,204l-0.3,0L103.9,204z"/>
<path class="st0" d="M42,203.9l-0.1-0.7l-10.3,10.3v0.8h0.8l10.3-10.3L42,203.9z"/>
<path class="st0" d="M42,203.9l-0.1-0.7l0,0L42,203.9l0.7,0.1l0,0L42,203.9z"/>
<path class="st0" d="M139.2,157c-2.9-3.8-6.7-6.8-11.1-8.6v-30.5H97.7c-1.8-4.4-4.8-8.2-8.6-11.1c-4.6-3.5-10.3-5.3-16-5.3
	s-11.4,1.9-16,5.3c-3.8,2.9-6.8,6.7-8.6,11.1H17.8v30.5c-4.4,1.9-8.2,4.8-11.1,8.6c-3.5,4.6-5.3,10.3-5.3,16c0,5.8,1.9,11.4,5.3,16
	c2.9,3.8,6.7,6.8,11.1,8.6v30.5h30.5c1.8,4.4,4.8,8.2,8.6,11.1c4.6,3.5,10.3,5.3,16,5.3s11.4-1.9,16-5.3c3.8-2.9,6.8-6.7,8.6-11.1
	h30.5v-30.5c4.4-1.8,8.2-4.8,11.1-8.6c3.5-4.6,5.3-10.3,5.3-16C144.6,167.2,142.7,161.6,139.2,157L139.2,157z M123.4,191.2l-3,0.9
	v28.4H92.1l-0.9,3c-1.2,3.9-3.6,7.3-6.9,9.7c-3.3,2.4-7.2,3.7-11.3,3.7c-4.1,0-8-1.3-11.3-3.7c-3.3-2.4-5.7-5.8-6.9-9.7l-0.9-3H25.5
	v-28.4l-3-0.9c-3.9-1.2-7.3-3.6-9.7-6.9s-3.7-7.2-3.7-11.3c0-4.1,1.3-8,3.7-11.3c2.4-3.3,5.8-5.7,9.7-6.9l3-0.9v-28.4h28.4l0.9-3
	c1.2-3.9,3.6-7.3,6.9-9.7s7.2-3.7,11.3-3.7c4.1,0,8,1.3,11.3,3.7c3.3,2.4,5.7,5.8,6.9,9.7l0.9,3h28.4v28.4l3,0.9
	c3.9,1.2,7.3,3.6,9.7,6.9c2.4,3.3,3.7,7.2,3.7,11.3c0,4.1-1.3,8-3.7,11.3S127.3,190,123.4,191.2L123.4,191.2z"/>
<path class="st0" d="M140.4,156.1c-2.8-3.8-6.5-6.7-10.8-8.7v-31h-31c-2-4.3-4.9-8-8.7-10.8C85,102,79.1,100,73,100h0
	c-6.1,0-12,2-16.9,5.6c-3.7,2.8-6.7,6.5-8.7,10.8h-31v31c-4.3,2-8,4.9-10.8,8.7C2,161,0,166.9,0,173c0,6.1,2,12,5.6,16.9
	c2.8,3.7,6.5,6.7,10.8,8.7v31h31c2,4.3,4.9,8,8.7,10.8C61,244,66.9,246,73,246c6.1,0,12-2,16.9-5.6c3.7-2.8,6.7-6.5,8.7-10.8h31v-31
	c4.3-2,8-4.9,10.8-8.7c3.7-4.9,5.6-10.8,5.6-16.9v0C146,166.9,144,161,140.4,156.1z M139.8,189.5c-2.8,3.8-6.6,6.8-10.9,8.7v30.7
	H98.1c-1.9,4.3-4.9,8.1-8.7,10.9c-4.7,3.6-10.5,5.5-16.5,5.5c-5.9,0-11.7-1.9-16.5-5.5c-3.8-2.8-6.8-6.6-8.7-10.9H17.1v-30.7
	c-4.3-1.9-8.1-4.9-10.9-8.7c-3.6-4.8-5.5-10.5-5.5-16.5c0-5.9,1.9-11.7,5.5-16.5c2.8-3.8,6.6-6.8,10.9-8.7v-30.7h30.7
	c1.9-4.3,4.9-8.1,8.7-10.9c4.7-3.6,10.5-5.5,16.5-5.5c5.9,0,11.7,1.9,16.5,5.5c3.8,2.8,6.8,6.6,8.7,10.9h30.7v30.7
	c4.3,1.9,8.1,4.9,10.9,8.7c3.6,4.8,5.5,10.5,5.5,16.5C145.3,178.9,143.4,184.7,139.8,189.5L139.8,189.5z"/>
<path class="st0" d="M139.8,156.5c-2.8-3.8-6.6-6.8-10.9-8.7v-30.7H98.1c-1.9-4.3-4.9-8.1-8.7-10.9c-4.8-3.6-10.5-5.5-16.5-5.5
	c-5.9,0-11.7,1.9-16.5,5.5c-3.8,2.8-6.8,6.6-8.7,10.9H17.1v30.7c-4.3,1.9-8.1,4.9-10.9,8.7c-3.6,4.8-5.5,10.5-5.5,16.5
	c0,5.9,1.9,11.7,5.5,16.5c2.8,3.8,6.6,6.8,10.9,8.7v30.7h30.7c1.9,4.3,4.9,8.1,8.7,10.9c4.7,3.6,10.5,5.5,16.5,5.5
	c5.9,0,11.7-1.9,16.5-5.5c3.8-2.8,6.8-6.6,8.7-10.9h30.7v-30.7c4.3-1.9,8.1-4.9,10.9-8.7c3.6-4.7,5.5-10.5,5.5-16.5
	C145.3,167.1,143.4,161.3,139.8,156.5L139.8,156.5z M139.2,189c-2.9,3.8-6.7,6.8-11.1,8.6v30.5H97.7c-1.8,4.4-4.8,8.2-8.6,11.1
	c-4.6,3.5-10.3,5.3-16,5.3c-5.8,0-11.4-1.9-16-5.3c-3.8-2.9-6.8-6.7-8.6-11.1H17.8v-30.5c-4.4-1.8-8.2-4.8-11.1-8.6
	c-3.5-4.6-5.3-10.3-5.3-16c0-5.8,1.9-11.4,5.3-16c2.9-3.8,6.7-6.8,11.1-8.6v-30.5h30.5c1.8-4.4,4.8-8.2,8.6-11.1
	c4.6-3.5,10.3-5.3,16-5.3c5.8,0,11.4,1.9,16,5.3c3.8,2.9,6.8,6.7,8.6,11.1h30.5v30.5c4.4,1.9,8.2,4.8,11.1,8.6
	c3.5,4.6,5.3,10.3,5.3,16C144.6,178.8,142.7,184.4,139.2,189L139.2,189z"/>
<path class="st0" d="M122.5,157.9l-5.3-1.6v-27.5H89.7l-1.6-5.3c-1-3.2-3-6-5.7-8c-2.7-2-6-3.1-9.4-3.1c-3.4,0-6.7,1.1-9.4,3.1
	c-2.7,2-4.7,4.8-5.7,8l-1.6,5.3H28.8v27.5l-5.3,1.6c-3.2,1-6,3-8,5.7c-2,2.7-3.1,6-3.1,9.4c0,3.4,1.1,6.7,3.1,9.4
	c2,2.7,4.8,4.7,8,5.7l5.3,1.6v27.5h27.5l1.6,5.3c1,3.2,3,6,5.7,8c2.7,2,6,3.1,9.4,3.1c3.4,0,6.7-1.1,9.4-3.1c2.7-2,4.7-4.8,5.7-8
	l1.6-5.3h27.5v-27.5l5.3-1.6c3.2-1,6-3,8-5.7c2-2.7,3.1-6,3.1-9.4c0-3.4-1.1-6.7-3.1-9.4C128.5,160.9,125.7,158.9,122.5,157.9z
	 M121.7,185.4l-7.3,2.2v26l2.4,2.4l0,0v0.8h-0.9l-2.4-2.4H87.6l-2.2,7.3c-0.8,2.6-2.5,5-4.7,6.6c-2.2,1.6-4.9,2.5-7.7,2.5
	c-2.8,0-5.5-0.9-7.7-2.5s-3.9-4-4.7-6.6l-2.2-7.3h-26l-2.4,2.4h-0.8V216l2.4-2.4v-26l-7.3-2.2c-2.6-0.8-5-2.5-6.6-4.7
	c-1.6-2.2-2.5-4.9-2.5-7.7c0-2.8,0.9-5.5,2.5-7.7c1.6-2.2,4-3.9,6.6-4.7l7.3-2.2v-26l-2.4-2.4l0,0v-0.8h0.8l2.4,2.4h25.9l2.2-7.3
	c0.8-2.6,2.5-5,4.7-6.6c2.2-1.6,4.9-2.5,7.7-2.5c2.8,0,5.5,0.9,7.7,2.5c2.2,1.6,3.9,4,4.7,6.6l2.2,7.3h26l2.4-2.4h0.8v0.8l-2.4,2.4
	v26l7.3,2.2c2.6,0.8,5,2.5,6.6,4.7c1.6,2.2,2.5,4.9,2.5,7.7c0,2.8-0.9,5.5-2.5,7.7C126.6,182.9,124.3,184.6,121.7,185.4L121.7,185.4
	z"/>
<path class="st0" d="M32.4,131.6l-2.4-2.4h-0.8v0.8l0,0l2.4,2.4v-0.8H32.4z"/>
<path class="st0" d="M114.4,132.4l2.4-2.4v-0.8H116l-2.4,2.4h0.8V132.4z"/>
<path class="st0" d="M113.5,214.4l2.4,2.4h0.9v-0.8l0,0l-2.4-2.4v0.8H113.5z"/>
<path class="st0" d="M31.6,213.6l-2.4,2.4v0.8h0.8l2.4-2.4h-0.8V213.6z"/>
<path class="st1" d="M75.6,17.8c0.2,0.1,0.4,0.1,0.6,0.1s0.4-0.1,0.5-0.3L92.5,1.7c0.1-0.1,0.2-0.3,0.3-0.5c0-0.2,0-0.4-0.1-0.6
	c-0.1-0.2-0.2-0.3-0.4-0.5C92.2,0.1,92,0,91.8,0H76c-0.3,0-0.5,0.1-0.7,0.3C75.1,0.5,75,0.7,75,1v15.8c0,0.2,0.1,0.4,0.2,0.6
	C75.3,17.6,75.4,17.7,75.6,17.8z"/>
<path class="st1" d="M75.6,26.1c0.1,0.1,0.3,0.2,0.5,0.2c0.2,0,0.3-0.1,0.5-0.2l24.6-24.6c0.1-0.1,0.1-0.1,0.1-0.2
	c0-0.1,0.1-0.2,0.1-0.3c0-0.1,0-0.2,0-0.3c0-0.1-0.1-0.2-0.1-0.2c-0.1-0.1-0.1-0.1-0.2-0.1c-0.1,0-0.2,0-0.3,0s-0.2,0-0.3,0.1
	c-0.1,0-0.2,0.1-0.2,0.1L75.6,25.1c-0.1,0.1-0.2,0.3-0.2,0.5S75.4,25.9,75.6,26.1z"/>
<path class="st1" d="M147.4,55.2c-0.2-0.1-0.4-0.1-0.6-0.1c-0.2,0-0.4,0.1-0.5,0.3l-15.8,15.8c-0.1,0.1-0.2,0.3-0.3,0.5
	c0,0.2,0,0.4,0.1,0.6c0.1,0.2,0.2,0.3,0.4,0.5c0.2,0.1,0.4,0.2,0.6,0.2H147c0.3,0,0.5-0.1,0.7-0.3c0.2-0.2,0.3-0.4,0.3-0.7V56.2
	c0-0.2-0.1-0.4-0.2-0.6C147.7,55.4,147.6,55.3,147.4,55.2z"/>
<path class="st1" d="M147.4,46.9c-0.1-0.1-0.1-0.1-0.2-0.1c-0.1,0-0.2,0-0.3,0c-0.1,0-0.2,0-0.2,0c-0.1,0-0.2,0.1-0.2,0.1
	l-24.6,24.6c-0.1,0.1-0.2,0.3-0.2,0.5c0,0.2,0.1,0.3,0.2,0.5c0.1,0.1,0.3,0.2,0.5,0.2c0.2,0,0.3-0.1,0.5-0.2l24.6-24.6
	c0.1-0.1,0.1-0.1,0.1-0.2c0-0.1,0-0.2,0-0.3c0-0.1,0-0.2,0-0.2C147.6,47.1,147.5,47,147.4,46.9z"/>
<path class="st1" d="M76.7,55.5c-0.1-0.1-0.2-0.2-0.3-0.2c-0.1-0.1-0.3-0.1-0.4-0.1c-0.1,0-0.3,0-0.4,0.1c-0.2,0.1-0.3,0.2-0.5,0.4
	C75.1,55.8,75,56,75,56.2V72c0,0.1,0,0.3,0.1,0.4c0.1,0.1,0.1,0.2,0.2,0.3c0.1,0.1,0.2,0.2,0.3,0.2C75.7,73,75.9,73,76,73h15.8
	c0.2,0,0.4-0.1,0.6-0.2c0.2-0.1,0.3-0.3,0.4-0.5c0.1-0.2,0.1-0.4,0.1-0.6c0-0.2-0.1-0.4-0.3-0.5L76.7,55.5z"/>
<path class="st1" d="M76.5,46.9c-0.1-0.1-0.3-0.2-0.5-0.2c-0.2,0-0.3,0.1-0.5,0.2c-0.1,0.1-0.2,0.3-0.2,0.5c0,0.2,0.1,0.3,0.2,0.5
	l24.6,24.6c0.1,0.1,0.3,0.2,0.5,0.2c0.2,0,0.3-0.1,0.5-0.2c0.1-0.1,0.1-0.1,0.1-0.2c0-0.1,0-0.2,0-0.3c0-0.1,0-0.2,0-0.2
	c0-0.1-0.1-0.2-0.1-0.2L76.5,46.9z"/>
<path class="st1" d="M146.3,17.5c0.2,0.2,0.4,0.3,0.7,0.3c0.1,0,0.3,0,0.4-0.1c0.2-0.1,0.3-0.2,0.5-0.4c0.1-0.2,0.2-0.4,0.2-0.6V1
	c0-0.3-0.1-0.5-0.3-0.7C147.5,0.1,147.3,0,147,0h-15.8c-0.2,0-0.4,0.1-0.6,0.2c-0.2,0.1-0.3,0.3-0.4,0.5c-0.1,0.2-0.1,0.4-0.1,0.6
	c0,0.2,0.1,0.4,0.3,0.5L146.3,17.5z"/>
<path class="st1" d="M146.5,26.1c0.1,0.1,0.3,0.2,0.5,0.2c0.1,0,0.3,0,0.4-0.1c0.1-0.1,0.2-0.2,0.2-0.3c0.1-0.1,0.1-0.3,0-0.4
	c0-0.1-0.1-0.2-0.2-0.3L122.9,0.6c-0.1-0.1-0.1-0.1-0.2-0.1c-0.1,0-0.2-0.1-0.3-0.1c-0.1,0-0.2,0-0.3,0.1c-0.1,0-0.2,0.1-0.2,0.1
	c-0.1,0.1-0.1,0.1-0.1,0.2c0,0.1,0,0.2,0,0.2c0,0.1,0,0.2,0,0.3s0.1,0.2,0.1,0.2L146.5,26.1z"/>
<path class="st1" d="M110.8,29.1c0.1,0.1,0.2,0.2,0.3,0.2c0.1,0.1,0.3,0.1,0.4,0.1s0.3,0,0.4-0.1s0.2-0.1,0.3-0.2
	c1.1-1.3,2.1-2.7,3-4.2c1.9-3,3-6.6,3-10.2s-1-7.2-3-10.2c-0.8-1.5-1.8-2.9-3-4.2c-0.1-0.1-0.2-0.2-0.3-0.2S111.6,0,111.5,0
	s-0.3,0-0.4,0.1c-0.1,0.1-0.2,0.1-0.3,0.2c-1.1,1.3-2.1,2.7-3,4.2c-1.9,3-3,6.6-3,10.2s1,7.2,3,10.2
	C108.6,26.4,109.6,27.8,110.8,29.1z"/>
<path class="st1" d="M112.2,43.9c-0.1-0.1-0.2-0.2-0.3-0.2c-0.1-0.1-0.3-0.1-0.4-0.1s-0.3,0-0.4,0.1c-0.1,0.1-0.2,0.1-0.3,0.2
	c-1.1,1.3-2.1,2.7-3,4.2c-1.9,3-3,6.6-3,10.2c0,3.6,1,7.2,3,10.2c0.8,1.5,1.8,2.9,3,4.2c0.1,0.1,0.2,0.2,0.3,0.2
	c0.1,0.1,0.3,0.1,0.4,0.1c0.1,0,0.3,0,0.4-0.1c0.1-0.1,0.2-0.1,0.3-0.2c1.1-1.3,2.1-2.7,3-4.2c1.9-3,3-6.6,3-10.2
	c0-3.6-1-7.2-3-10.2C114.4,46.6,113.4,45.2,112.2,43.9z"/>
<path class="st1" d="M79.5,32.8c-1.5,0.8-2.9,1.8-4.2,3c-0.1,0.1-0.2,0.2-0.2,0.3C75,36.2,75,36.4,75,36.5c0,0.1,0,0.3,0.1,0.4
	c0.1,0.1,0.1,0.2,0.2,0.3c1.3,1.1,2.7,2.1,4.2,3c3,1.9,6.6,3,10.2,3c3.6,0,7.2-1,10.2-3c1.5-0.8,2.9-1.9,4.2-3
	c0.1-0.1,0.2-0.2,0.2-0.3c0.1-0.1,0.1-0.3,0.1-0.4c0-0.1,0-0.3-0.1-0.4c-0.1-0.1-0.1-0.2-0.2-0.3c-1.3-1.1-2.7-2.1-4.2-3
	c-3-1.9-6.6-3-10.2-3C86.1,29.8,82.6,30.8,79.5,32.8z"/>
<path class="st1" d="M118.9,35.8c-0.1,0.1-0.2,0.2-0.2,0.3c-0.1,0.1-0.1,0.3-0.1,0.4c0,0.1,0,0.3,0.1,0.4c0.1,0.1,0.1,0.2,0.2,0.3
	c1.3,1.1,2.7,2.1,4.2,3c3,1.9,6.6,3,10.2,3c3.6,0,7.2-1,10.2-3c1.5-0.8,2.9-1.8,4.2-3c0.1-0.1,0.2-0.2,0.2-0.3
	c0.1-0.1,0.1-0.3,0.1-0.4c0-0.1,0-0.3-0.1-0.4c-0.1-0.1-0.1-0.2-0.2-0.3c-1.3-1.1-2.7-2.1-4.2-3c-3-1.9-6.6-3-10.2-3
	c-3.6,0-7.2,1-10.2,3C121.6,33.6,120.2,34.6,118.9,35.8z"/>
<path class="st1" d="M113.6,36.5c0-0.4-0.1-0.8-0.4-1.2c-0.2-0.4-0.6-0.6-1-0.8c-0.4-0.2-0.8-0.2-1.2-0.1c-0.4,0.1-0.8,0.3-1.1,0.6
	c-0.3,0.3-0.5,0.7-0.6,1.1c-0.1,0.4,0,0.8,0.1,1.2c0.2,0.4,0.4,0.7,0.8,1c0.4,0.2,0.8,0.4,1.2,0.4c0.3,0,0.6-0.1,0.8-0.2
	c0.3-0.1,0.5-0.3,0.7-0.5c0.2-0.2,0.4-0.4,0.5-0.7C113.6,37.1,113.6,36.8,113.6,36.5z"/>
<path class="st1" d="M117,42.7c0.8,1.1,7.9,11,8.7,11.8c0.5,0.5,1.2,0.8,1.9,0.8c0.7,0,1.4-0.3,1.9-0.8c0.5-0.5,0.8-1.2,0.8-1.9
	c0-0.7-0.3-1.4-0.8-1.9c-0.9-0.9-10.7-7.9-11.8-8.7c-0.1-0.1-0.2-0.1-0.3-0.1c-0.1,0-0.2,0.1-0.3,0.1c-0.1,0.1-0.1,0.2-0.1,0.3
	C116.9,42.5,116.9,42.6,117,42.7z"/>
<path class="st1" d="M105.3,42c-1.1,0.8-11,7.9-11.8,8.7c-0.5,0.5-0.8,1.2-0.8,1.9c0,0.7,0.3,1.4,0.8,1.9c0.5,0.5,1.2,0.8,1.9,0.8
	c0.7,0,1.4-0.3,1.9-0.8c-0.1,0.1,7.2-9.7,8.7-11.8c0.1-0.1,0.1-0.2,0.1-0.3s-0.1-0.2-0.1-0.3c-0.1-0.1-0.2-0.1-0.3-0.1
	C105.5,41.9,105.4,41.9,105.3,42z"/>
<path class="st1" d="M127.6,17.7c-0.4,0-0.7,0.1-1,0.2c-0.3,0.1-0.6,0.3-0.9,0.6c-0.9,0.9-7.9,10.7-8.7,11.8
	c-0.1,0.1-0.1,0.2-0.1,0.3c0,0.1,0.1,0.2,0.1,0.3c0,0,0.1,0.1,0.2,0.1c0.1,0,0.1,0,0.2,0c0.1,0,0.2,0,0.3-0.1
	c1.1-0.8,10.1-7,10.9-7.8c1-1,2-3.7,0.9-4.7c-0.2-0.3-0.5-0.4-0.9-0.6C128.3,17.8,128,17.7,127.6,17.7z"/>
<path class="st1" d="M106,30.3c-1.1-1.5-7.5-10.5-8.7-11.8c-0.5-0.5-1.2-0.8-1.9-0.8c-0.7,0-1.4,0.3-1.9,0.8
	c-0.5,0.5-0.8,1.2-0.8,1.9c0,0.7,0.3,1.4,0.8,1.9c0.9,0.9,10.7,7.9,11.8,8.7c0.1,0.1,0.2,0.1,0.3,0.1h0c0.1,0,0.1,0,0.2,0
	c0.1,0,0.1-0.1,0.2-0.1c0,0,0.1-0.1,0.1-0.2c0-0.1,0-0.1,0-0.2C106.1,30.5,106.1,30.4,106,30.3z"/>
</svg>
