<?xml version="1.0" encoding="utf-8"?>
<!-- Generator: Adobe Illustrator 22.1.0, SVG Export Plug-In . SVG Version: 6.00 Build 0)  -->
<svg version="1.1" id="Слой_1" xmlns="http://www.w3.org/2000/svg" xmlns:xlink="http://www.w3.org/1999/xlink" x="0px" y="0px"
	 viewBox="0 0 218 222" style="enable-background:new 0 0 218 222;" xml:space="preserve">
<style type="text/css">
	.st0{fill:#FDD84A;}
	.st1{fill:#E7533B;}
</style>
<path class="st0" d="M73.2,35.5c0.4,0.2,0.8,0.2,1.2,0.1s0.8-0.3,1-0.6l31.6-31.6c0.3-0.3,0.5-0.6,0.6-1c0.1-0.4,0-0.8-0.1-1.2
	c-0.2-0.4-0.4-0.7-0.7-0.9c-0.3-0.2-0.7-0.3-1.1-0.3H74c-0.5,0-1.1,0.2-1.4,0.6C72.2,1,72,1.5,72,2v31.6c0,0.4,0.1,0.8,0.3,1.1
	C72.6,35.1,72.9,35.4,73.2,35.5z"/>
<path class="st0" d="M73.1,52.1c0.2,0.2,0.6,0.4,0.9,0.4s0.7-0.1,0.9-0.4L124.1,3c0.1-0.1,0.2-0.3,0.3-0.4c0.1-0.2,0.1-0.3,0.1-0.5
	c0-0.2,0-0.3-0.1-0.5c-0.1-0.2-0.2-0.3-0.3-0.4c-0.1-0.1-0.3-0.2-0.4-0.3c-0.2-0.1-0.3-0.1-0.5-0.1c-0.2,0-0.3,0-0.5,0.1
	c-0.2,0.1-0.3,0.2-0.4,0.3L73.1,50.3c-0.2,0.2-0.4,0.6-0.4,0.9C72.7,51.5,72.9,51.9,73.1,52.1z"/>
<path class="st0" d="M216.7,110.5c-0.4-0.2-0.8-0.2-1.2-0.1c-0.4,0.1-0.8,0.3-1,0.6l-31.6,31.6c-0.3,0.3-0.5,0.6-0.6,1
	c-0.1,0.4,0,0.8,0.1,1.2c0.2,0.4,0.4,0.7,0.7,0.9c0.3,0.2,0.7,0.3,1.1,0.3H216c0.5,0,1.1-0.2,1.4-0.6c0.4-0.4,0.6-0.9,0.6-1.4v-31.6
	c0-0.4-0.1-0.8-0.3-1.1C217.4,110.9,217.1,110.6,216.7,110.5z"/>
<path class="st0" d="M216.9,93.9c-0.1-0.1-0.3-0.2-0.4-0.3c-0.2-0.1-0.3-0.1-0.5-0.1s-0.3,0-0.5,0.1c-0.2,0.1-0.3,0.2-0.4,0.3
	l-49.2,49.2c-0.2,0.2-0.4,0.6-0.4,0.9c0,0.3,0.1,0.7,0.4,0.9c0.2,0.2,0.6,0.4,0.9,0.4c0.3,0,0.7-0.1,0.9-0.4l49.2-49.2
	c0.1-0.1,0.2-0.3,0.3-0.4c0.1-0.2,0.1-0.3,0.1-0.5s0-0.3-0.1-0.5C217.1,94.1,217,94,216.9,93.9z"/>
<path class="st0" d="M75.5,110.9c-0.2-0.2-0.4-0.3-0.7-0.4c-0.2-0.1-0.5-0.2-0.8-0.2c-0.3,0-0.5,0.1-0.8,0.2
	c-0.4,0.2-0.7,0.4-0.9,0.8c-0.2,0.3-0.3,0.7-0.3,1.1V144c0,0.3,0.1,0.5,0.2,0.8s0.3,0.5,0.4,0.7c0.2,0.2,0.4,0.3,0.7,0.4
	c0.2,0.1,0.5,0.2,0.8,0.2h31.6c0.4,0,0.8-0.1,1.1-0.3c0.3-0.2,0.6-0.5,0.7-0.9c0.2-0.4,0.2-0.8,0.1-1.2c-0.1-0.4-0.3-0.8-0.6-1
	L75.5,110.9z"/>
<path class="st0" d="M75,93.9c-0.2-0.2-0.6-0.4-0.9-0.4c-0.3,0-0.7,0.1-0.9,0.4c-0.2,0.2-0.4,0.6-0.4,0.9c0,0.3,0.1,0.7,0.4,0.9
	l49.2,49.2c0.2,0.2,0.6,0.4,0.9,0.4s0.7-0.1,0.9-0.4c0.1-0.1,0.2-0.3,0.3-0.4c0.1-0.2,0.1-0.3,0.1-0.5c0-0.2,0-0.3-0.1-0.5
	c-0.1-0.2-0.2-0.3-0.3-0.4L75,93.9z"/>
<path class="st0" d="M214.5,35.1c0.4,0.4,0.9,0.6,1.4,0.6c0.3,0,0.5-0.1,0.8-0.2c0.4-0.2,0.7-0.4,0.9-0.7c0.2-0.3,0.3-0.7,0.3-1.1V2
	c0-0.5-0.2-1.1-0.6-1.4C217,0.2,216.5,0,216,0h-31.6c-0.4,0-0.8,0.1-1.1,0.3c-0.3,0.2-0.6,0.5-0.7,0.9c-0.2,0.4-0.2,0.8-0.1,1.2
	c0.1,0.4,0.3,0.8,0.6,1L214.5,35.1z"/>
<path class="st0" d="M215,52.1c0.2,0.2,0.6,0.4,0.9,0.4c0.3,0,0.5-0.1,0.7-0.2c0.2-0.1,0.4-0.3,0.5-0.6c0.1-0.2,0.1-0.5,0.1-0.8
	c-0.1-0.3-0.2-0.5-0.4-0.7L167.7,1.1c-0.2-0.2-0.6-0.4-0.9-0.4c-0.3,0-0.7,0.1-0.9,0.4s-0.4,0.6-0.4,0.9c0,0.3,0.1,0.7,0.4,0.9
	L215,52.1z"/>
<path class="st0" d="M143.5,58.3c0.2,0.2,0.4,0.4,0.7,0.5c0.3,0.1,0.5,0.2,0.8,0.2c0.3,0,0.6-0.1,0.8-0.2c0.3-0.1,0.5-0.3,0.7-0.5
	c2.3-2.6,4.3-5.4,6-8.4c3.7-6.2,5.8-13.2,6-20.4c-0.2-7.2-2.3-14.2-6-20.4c-1.7-3-3.7-5.8-6-8.4c-0.2-0.2-0.4-0.4-0.7-0.5
	C145.6,0.1,145.3,0,145,0c-0.3,0-0.6,0.1-0.8,0.2c-0.3,0.1-0.5,0.3-0.7,0.5c-2.3,2.6-4.3,5.4-6,8.4c-3.7,6.2-5.8,13.2-6,20.4
	c0.2,7.2,2.3,14.2,6,20.4C139.2,52.9,141.2,55.7,143.5,58.3z"/>
<path class="st0" d="M146.5,87.7c-0.2-0.2-0.4-0.4-0.7-0.5c-0.3-0.1-0.5-0.2-0.8-0.2s-0.6,0.1-0.8,0.2c-0.3,0.1-0.5,0.3-0.7,0.5
	c-2.3,2.6-4.3,5.4-6,8.4c-3.7,6.2-5.8,13.2-6,20.4c0.2,7.2,2.3,14.2,6,20.4c1.7,3,3.7,5.8,6,8.4c0.2,0.2,0.4,0.4,0.7,0.5
	c0.3,0.1,0.5,0.2,0.8,0.2s0.6-0.1,0.8-0.2c0.3-0.1,0.5-0.3,0.7-0.5c2.3-2.6,4.3-5.4,6-8.4c3.7-6.2,5.8-13.2,6-20.4
	c-0.2-7.2-2.3-14.2-6-20.4C150.8,93.1,148.8,90.3,146.5,87.7z"/>
<path class="st0" d="M81.1,65.5c-3,1.7-5.8,3.7-8.4,6c-0.2,0.2-0.4,0.4-0.5,0.7C72.1,72.4,72,72.7,72,73c0,0.3,0.1,0.6,0.2,0.8
	c0.1,0.3,0.3,0.5,0.5,0.7c2.6,2.3,5.4,4.3,8.4,6c6.2,3.7,13.2,5.8,20.4,6c7.2-0.2,14.2-2.3,20.4-6c3-1.7,5.8-3.7,8.4-6
	c0.2-0.2,0.4-0.4,0.5-0.7c0.1-0.3,0.2-0.5,0.2-0.8c0-0.3-0.1-0.6-0.2-0.8c-0.1-0.3-0.3-0.5-0.5-0.7c-2.6-2.3-5.4-4.3-8.4-6
	c-6.2-3.7-13.2-5.8-20.4-6C94.3,59.8,87.2,61.8,81.1,65.5z"/>
<path class="st0" d="M159.7,71.5c-0.2,0.2-0.4,0.4-0.5,0.7c-0.1,0.3-0.2,0.5-0.2,0.8s0.1,0.6,0.2,0.8c0.1,0.3,0.3,0.5,0.5,0.7
	c2.6,2.3,5.4,4.3,8.4,6c6.2,3.7,13.2,5.8,20.4,6c7.2-0.2,14.2-2.3,20.4-6c3-1.7,5.8-3.7,8.4-6c0.2-0.2,0.4-0.4,0.5-0.7
	c0.1-0.3,0.2-0.5,0.2-0.8s-0.1-0.6-0.2-0.8c-0.1-0.3-0.3-0.5-0.5-0.7c-2.6-2.3-5.4-4.3-8.4-6c-6.2-3.7-13.2-5.8-20.4-6
	c-7.2,0.2-14.2,2.3-20.4,6C165.1,67.2,162.3,69.2,159.7,71.5z"/>
<path class="st0" d="M149.3,73c0-0.8-0.2-1.7-0.7-2.4c-0.5-0.7-1.1-1.3-1.9-1.6c-0.8-0.3-1.6-0.4-2.5-0.2c-0.8,0.2-1.6,0.6-2.2,1.2
	c-0.6,0.6-1,1.4-1.2,2.2c-0.2,0.8-0.1,1.7,0.2,2.5c0.3,0.8,0.9,1.5,1.6,1.9c0.7,0.5,1.5,0.7,2.4,0.7c0.6,0,1.1-0.1,1.6-0.3
	c0.5-0.2,1-0.5,1.4-0.9c0.4-0.4,0.7-0.9,0.9-1.4C149.2,74.1,149.3,73.6,149.3,73z"/>
<path class="st0" d="M156,85.4c1.6,2.2,15.8,21.9,17.5,23.6c1,1,2.4,1.6,3.8,1.6c1.4,0,2.8-0.6,3.8-1.6c1-1,1.6-2.4,1.6-3.8
	c0-1.4-0.6-2.8-1.6-3.8c-1.7-1.7-21.4-15.9-23.6-17.5c-0.2-0.1-0.4-0.2-0.7-0.2c-0.2,0-0.5,0.1-0.6,0.3s-0.3,0.4-0.3,0.6
	C155.8,84.9,155.8,85.2,156,85.4L156,85.4z"/>
<path class="st0" d="M132.6,84c-2.2,1.6-21.9,15.8-23.6,17.5c-1,1-1.6,2.4-1.6,3.8c0,1.4,0.6,2.8,1.6,3.8c1,1,2.4,1.6,3.8,1.6
	c1.4,0,2.8-0.6,3.8-1.6c-0.1,0.1,14.4-19.3,17.5-23.6c0.1-0.2,0.2-0.4,0.2-0.7c0-0.2-0.1-0.5-0.3-0.6c-0.2-0.2-0.4-0.3-0.6-0.3
	C133.1,83.8,132.8,83.8,132.6,84L132.6,84z"/>
<path class="st0" d="M177.2,35.4c-0.7,0-1.4,0.1-2.1,0.4c-0.7,0.3-1.2,0.7-1.7,1.2c-1.7,1.7-15.9,21.4-17.5,23.6
	c-0.1,0.2-0.2,0.4-0.2,0.7c0,0.2,0.1,0.5,0.3,0.6c0.1,0.1,0.2,0.2,0.3,0.2c0.1,0.1,0.3,0.1,0.4,0.1c0.2,0,0.4-0.1,0.6-0.2
	c2.2-1.6,20.1-13.9,21.8-15.7c2.1-2.1,3.9-7.3,1.8-9.4c-0.5-0.5-1.1-0.9-1.7-1.2C178.6,35.6,177.9,35.4,177.2,35.4z"/>
<path class="st0" d="M134,60.6c-2.2-3-14.9-21.1-17.4-23.6c-0.5-0.5-1.1-0.9-1.7-1.2c-0.7-0.3-1.3-0.4-2.1-0.4
	c-0.7,0-1.4,0.1-2.1,0.4c-0.7,0.3-1.2,0.7-1.7,1.2c-0.5,0.5-0.9,1.1-1.2,1.7c-0.3,0.7-0.4,1.3-0.4,2.1c0,0.7,0.1,1.4,0.4,2.1
	c0.3,0.7,0.7,1.2,1.2,1.7c1.7,1.7,21.4,15.9,23.6,17.5c0.2,0.1,0.4,0.2,0.6,0.2h0c0.1,0,0.3,0,0.4-0.1c0.1-0.1,0.2-0.1,0.3-0.2
	c0.1-0.1,0.2-0.2,0.2-0.3c0.1-0.1,0.1-0.3,0.1-0.4C134.2,61,134.1,60.7,134,60.6z"/>
<path class="st1" d="M35.7,184.7c-0.4-2.1-1.7-7.5-5.6-11.5c-3.9-3.9-9.4-5.2-11.5-5.6c0.4,2.1,1.7,7.5,5.6,11.5
	C28.2,183,33.6,184.3,35.7,184.7z"/>
<path class="st1" d="M35.7,186.3c-2.1,0.4-7.5,1.7-11.5,5.6c-3.9,3.9-5.2,9.4-5.6,11.5c2.1-0.4,7.5-1.7,11.5-5.6
	C34,193.8,35.3,188.4,35.7,186.3z"/>
<path class="st1" d="M0,222c2.1-0.4,7.5-1.7,11.5-5.6c3.9-3.9,5.2-9.4,5.6-11.5c-2.1,0.4-7.5,1.7-11.5,5.6
	C1.7,214.5,0.4,219.9,0,222z"/>
<path class="st1" d="M18.6,204.9c0.4,2.1,1.7,7.5,5.6,11.5c3.9,3.9,9.4,5.2,11.5,5.6c-0.4-2.1-1.7-7.5-5.6-11.5
	C26.2,206.6,20.7,205.3,18.6,204.9z"/>
<path class="st1" d="M0,184.7c2.1-0.4,7.5-1.7,11.5-5.6c3.9-3.9,5.2-9.4,5.6-11.5c-2.1,0.4-7.5,1.7-11.5,5.6
	C1.7,177.2,0.4,182.6,0,184.7z"/>
<path class="st1" d="M0,186.3c0.4,2.1,1.7,7.5,5.6,11.5c3.9,3.9,9.4,5.2,11.5,5.6c-0.4-2.1-1.7-7.5-5.6-11.5
	C7.5,188,2.1,186.7,0,186.3z"/>
<path class="st1" d="M0,149c0.4,2.1,1.7,7.5,5.6,11.5c3.9,3.9,9.4,5.2,11.5,5.6c-0.4-2.1-1.7-7.5-5.6-11.5
	C7.5,150.7,2.1,149.4,0,149z"/>
<path class="st1" d="M35.7,149c-2.1,0.4-7.5,1.7-11.5,5.6c-3.9,3.9-5.2,9.4-5.6,11.5c2.1-0.4,7.5-1.7,11.5-5.6
	C34,156.5,35.3,151.1,35.7,149z"/>
<path class="st1" d="M55.9,203.4c2.1-0.4,7.5-1.7,11.5-5.6c3.9-3.9,5.2-9.4,5.6-11.5c-2.1,0.4-7.5,1.7-11.5,5.6
	C57.6,195.8,56.3,201.3,55.9,203.4z"/>
<path class="st1" d="M55.9,166.1c2.1-0.4,7.5-1.7,11.5-5.6c3.9-3.9,5.2-9.4,5.6-11.5c-2.1,0.4-7.5,1.7-11.5,5.6
	C57.6,158.5,56.3,164,55.9,166.1z"/>
<path class="st1" d="M55.9,167.6c0.4,2.1,1.7,7.5,5.6,11.5c3.9,3.9,9.4,5.2,11.5,5.6c-0.4-2.1-1.7-7.5-5.6-11.5
	C63.5,169.3,58,168,55.9,167.6z"/>
<path class="st1" d="M55.9,204.9c0.4,2.1,1.7,7.5,5.6,11.5c3.9,3.9,9.4,5.2,11.5,5.6c-0.4-2.1-1.7-7.5-5.6-11.5
	C63.5,206.6,58,205.3,55.9,204.9z"/>
<path class="st1" d="M54.4,167.6c-2.1,0.4-7.5,1.7-11.5,5.6c-3.9,3.9-5.2,9.4-5.6,11.5c2.1-0.4,7.5-1.7,11.5-5.6
	C52.7,175.2,54,169.7,54.4,167.6z"/>
<path class="st1" d="M37.3,149c0.4,2.1,1.7,7.5,5.6,11.5c3.9,3.9,9.4,5.2,11.5,5.6c-0.4-2.1-1.7-7.5-5.6-11.5
	C44.8,150.7,39.4,149.4,37.3,149z"/>
<path class="st1" d="M37.3,186.3c0.4,2.1,1.7,7.5,5.6,11.5c3.9,3.9,9.4,5.2,11.5,5.6c-0.4-2.1-1.7-7.5-5.6-11.5
	C44.8,188,39.4,186.7,37.3,186.3z"/>
<path class="st1" d="M37.3,222c2.1-0.4,7.5-1.7,11.5-5.6c3.9-3.9,5.2-9.4,5.6-11.5c-2.1,0.4-7.5,1.7-11.5,5.6
	C39,214.5,37.7,219.9,37.3,222z"/>
</svg>
