<?xml version="1.0" encoding="utf-8"?>
<!-- Generator: Adobe Illustrator 22.1.0, SVG Export Plug-In . SVG Version: 6.00 Build 0)  -->
<svg version="1.1" id="Слой_1" xmlns="http://www.w3.org/2000/svg" xmlns:xlink="http://www.w3.org/1999/xlink" x="0px" y="0px"
	 viewBox="0 0 298 581" style="enable-background:new 0 0 298 581;" xml:space="preserve">
<style type="text/css">
	.st0{fill:#E7533B;}
	.st1{fill:#2C3B8C;}
	.st2{fill:#6678D6;}
</style>
<g>
	<path class="st0" d="M186.1,473.9c1.7,0,3.5,0.1,5.2,0.4c-0.7-4.9-0.4-9.8,0.9-14.5c1.4-4.7,3.7-9.1,6.9-12.8
		c3.2-3.7,7.2-6.7,11.6-8.8c4.5-2.1,9.3-3.1,14.2-3.1h-31.3c0,1-0.2,2.1-0.6,3c-0.4,1-1,1.8-1.7,2.6c-0.7,0.7-1.6,1.3-2.6,1.7
		c-1,0.4-2,0.6-3,0.6c-4.4,0-26.5-3.5-26.5-7.9H152v73c0-9,3.6-17.7,10-24.1C168.4,477.5,177.1,473.9,186.1,473.9z M180.9,460.3
		c0.3,0.3,0.6,0.8,0.7,1.3c0.1,0.5,0,1-0.1,1.4c-0.2,0.5-0.5,0.8-0.9,1.1c-0.4,0.3-0.9,0.4-1.4,0.4s-1-0.1-1.4-0.4
		c-0.4-0.3-0.7-0.7-0.9-1.1c-0.2-0.5-0.2-1-0.1-1.4c0.1-0.5,0.3-0.9,0.7-1.3c0.5-0.5,1.1-0.7,1.8-0.7S180.4,459.9,180.9,460.3z
		 M152,435h3.5c0,0.5-0.1,0.9-0.3,1.3c-0.2,0.4-0.4,0.8-0.8,1.1c-0.3,0.3-0.7,0.6-1.1,0.8c-0.4,0.2-0.9,0.3-1.3,0.3V435z M152,476.6
		v-34.4c4.4,0,7.9,22.1,7.9,26.5c0,1-0.2,2.1-0.6,3c-0.4,1-1,1.8-1.7,2.6c-0.7,0.7-1.6,1.3-2.6,1.7C154.1,476.4,153,476.6,152,476.6
		z M160.5,443.5c1.6-1.6,13.3,6.3,15.3,8.2c0.5,0.5,0.8,1,1.1,1.6c0.3,0.6,0.4,1.3,0.4,1.9c0,0.7-0.1,1.3-0.4,1.9s-0.6,1.2-1.1,1.6
		c-0.5,0.5-1,0.8-1.6,1.1c-0.6,0.2-1.3,0.4-1.9,0.4c-0.7,0-1.3-0.1-1.9-0.4s-1.1-0.6-1.6-1.1C166.8,456.9,159,445.1,160.5,443.5z"/>
	<path class="st0" d="M186,536.1c2.8,0,5.6-0.4,8.3-1.3l1.2-0.4c0.1-0.4,0.3-0.8,0.6-1.1c0.2-0.2,0.5-0.4,0.8-0.5
		c0.3-0.1,0.6-0.2,1-0.2c0.3,0,0.7,0.1,1,0.2c0.3,0.1,0.6,0.3,0.8,0.5c0.2,0.2,0.4,0.5,0.5,0.8c0.1,0.3,0.2,0.6,0.2,1
		s-0.1,0.7-0.2,1c-0.1,0.3-0.3,0.6-0.5,0.8c-0.3,0.3-0.7,0.5-1.1,0.6l-0.4,1.2c-1.3,4.2-1.6,8.6-0.9,13c0.7,4.3,2.5,8.4,5.1,12
		c2.6,3.5,6,6.4,9.9,8.4c3.9,2,8.3,3,12.7,3c4.4,0,8.7-1,12.7-3c3.9-2,7.3-4.9,9.9-8.4c2.6-3.5,4.3-7.6,5.1-12
		c0.7-4.3,0.4-8.8-0.9-13l-0.4-1.2c-0.4-0.1-0.8-0.3-1.1-0.6c-0.2-0.2-0.4-0.5-0.5-0.8c-0.1-0.3-0.2-0.6-0.2-1s0.1-0.7,0.2-1
		c0.1-0.3,0.3-0.6,0.5-0.8c0.2-0.2,0.5-0.4,0.8-0.5c0.3-0.1,0.6-0.2,1-0.2c0.3,0,0.7,0.1,1,0.2c0.3,0.1,0.6,0.3,0.8,0.5
		c0.3,0.3,0.5,0.7,0.6,1.1l1.2,0.4c4.2,1.3,8.6,1.6,13,0.9c4.3-0.7,8.4-2.5,12-5.1c3.5-2.6,6.4-6,8.4-9.9c2-3.9,3-8.3,3-12.6
		c0-4.4-1-8.7-3-12.7c-2-3.9-4.9-7.3-8.4-9.9c-3.5-2.6-7.6-4.3-12-5.1c-4.3-0.7-8.8-0.4-13,0.9l-1.2,0.4c-0.1,0.4-0.3,0.8-0.6,1.1
		c-0.2,0.2-0.5,0.4-0.8,0.5c-0.3,0.1-0.6,0.2-1,0.2c-0.3,0-0.7-0.1-1-0.2c-0.3-0.1-0.6-0.3-0.8-0.5c-0.2-0.2-0.4-0.5-0.5-0.8
		c-0.1-0.3-0.2-0.6-0.2-1s0.1-0.7,0.2-1c0.1-0.3,0.3-0.6,0.5-0.8c0.3-0.3,0.7-0.5,1.1-0.6l0.4-1.2c1.3-4.2,1.6-8.6,0.9-13
		c-0.7-4.3-2.5-8.4-5.1-12s-6-6.4-9.9-8.4c-3.9-2-8.3-3-12.7-3c-4.4,0-8.7,1-12.7,3c-3.9,2-7.3,4.9-9.9,8.4s-4.3,7.6-5.1,12
		c-0.7,4.3-0.4,8.8,0.9,13l0.4,1.2c0.4,0.1,0.8,0.3,1.1,0.6c0.5,0.5,0.7,1.1,0.7,1.8c0,0.7-0.3,1.3-0.7,1.8
		c-0.5,0.5-1.1,0.7-1.8,0.7s-1.3-0.3-1.8-0.7c-0.3-0.3-0.5-0.7-0.6-1.1l-1.2-0.4c-3.9-1.2-7.9-1.6-11.9-1s-7.9,1.9-11.3,4
		c-3.4,2.1-6.3,5-8.6,8.4c-2.2,3.4-3.7,7.2-4.3,11.2c-0.6,4-0.3,8.1,0.8,12s3.1,7.5,5.7,10.5c2.6,3.1,5.9,5.5,9.6,7.2
		C178,535.2,182,536.1,186,536.1L186,536.1z M208.2,531.8c-0.9,0.9-2.2,1.5-3.5,1.5c-1.3,0-2.6-0.5-3.5-1.5
		c-0.9-0.9-1.5-2.2-1.5-3.5c0-1.3,0.5-2.6,1.4-3.5c1.9-1.9,13.7-9.8,15.3-8.3C218.1,518.1,210.2,529.9,208.2,531.8z M225,549.6
		c-2.1,0-4.1-0.8-5.6-2.3c-1.5-1.5-2.3-3.5-2.3-5.6c0-4.4,3.5-26.5,7.9-26.5c4.4,0,7.9,22.1,7.9,26.5c0,1-0.2,2.1-0.6,3
		c-0.4,1-1,1.8-1.7,2.6c-0.7,0.7-1.6,1.3-2.6,1.7C227.1,549.4,226,549.6,225,549.6L225,549.6z M221.5,508c0-0.7,0.2-1.4,0.6-2
		c0.4-0.6,0.9-1,1.6-1.3c0.6-0.3,1.3-0.3,2-0.2c0.7,0.1,1.3,0.5,1.8,1c0.5,0.5,0.8,1.1,1,1.8c0.1,0.7,0.1,1.4-0.2,2
		c-0.3,0.6-0.7,1.2-1.3,1.6c-0.6,0.4-1.3,0.6-2,0.6c-0.5,0-0.9-0.1-1.3-0.3c-0.4-0.2-0.8-0.4-1.1-0.8c-0.3-0.3-0.6-0.7-0.8-1.1
		C221.6,508.9,221.5,508.5,221.5,508z M248.8,531.8c-0.9,0.9-2.2,1.5-3.5,1.5c-1.3,0-2.6-0.5-3.5-1.5c-1.9-1.9-9.8-13.7-8.2-15.3
		c1.6-1.6,13.3,6.3,15.3,8.3c0.5,0.5,0.8,1,1.1,1.6c0.3,0.6,0.4,1.2,0.4,1.9c0,0.7-0.1,1.3-0.4,1.9
		C249.6,530.8,249.3,531.3,248.8,531.8z M258.7,500.1c2.1,0,4.1,0.8,5.6,2.3c1.5,1.5,2.3,3.5,2.3,5.6c0,2.1-0.8,4.1-2.3,5.6
		c-1.5,1.5-3.5,2.3-5.6,2.3c-4.4,0-26.5-3.5-26.5-7.9C232.2,503.6,254.4,500.1,258.7,500.1L258.7,500.1z M241.8,484.2
		c0.9-0.9,2.2-1.5,3.5-1.5c1.3,0,2.6,0.5,3.5,1.5c0.9,0.9,1.5,2.2,1.5,3.5c0,1.3-0.5,2.6-1.5,3.5c-1.9,1.9-13.7,9.8-15.3,8.2
		C231.9,497.9,239.8,486.1,241.8,484.2L241.8,484.2z M225,466.4c2.1,0,4.1,0.8,5.6,2.3c1.5,1.5,2.3,3.5,2.3,5.6
		c0,4.4-3.5,26.5-7.9,26.5c-4.4,0-7.9-22.1-7.9-26.5c0-2.1,0.8-4.1,2.3-5.6C220.9,467.2,222.9,466.4,225,466.4z M201.2,484.2
		c0.9-0.9,2.2-1.5,3.5-1.5c1.3,0,2.6,0.5,3.5,1.5c1.9,1.9,9.8,13.7,8.2,15.3c-1.6,1.6-13.3-6.3-15.3-8.2c-0.9-0.9-1.5-2.2-1.5-3.5
		C199.8,486.4,200.3,485.1,201.2,484.2z M191.3,500.1c4.4,0,26.5,3.5,26.5,7.9c0,4.4-22.1,7.9-26.5,7.9c-2.1,0-4.1-0.8-5.6-2.3
		c-1.5-1.5-2.3-3.5-2.3-5.6c0-2.1,0.8-4.1,2.3-5.6C187.2,500.9,189.2,500.1,191.3,500.1z"/>
	<path class="st0" d="M298,438.5c-0.9,0-1.8-0.4-2.5-1c-0.7-0.7-1-1.6-1-2.5h-3.7c0,4.4-22.1,7.9-26.5,7.9c-1,0-2.1-0.2-3-0.6
		c-1-0.4-1.8-1-2.6-1.7c-0.7-0.7-1.3-1.6-1.7-2.6c-0.4-1-0.6-2-0.6-3H225c4.9,0,9.8,1.1,14.2,3.1c4.5,2.1,8.4,5.1,11.6,8.8
		c3.2,3.7,5.6,8.1,6.9,12.8c1.3,4.7,1.7,9.7,0.9,14.5c1.7-0.3,3.5-0.4,5.2-0.4c4.7,0,9.3,1,13.6,2.9c4.3,1.9,8.2,4.6,11.4,8.1
		c3.2,3.4,5.6,7.5,7.2,11.9c1.5,4.4,2.2,9.1,1.8,13.8c-0.4,4.7-1.7,9.2-3.9,13.4s-5.2,7.8-8.9,10.7c-3.7,2.9-7.9,5-12.5,6.3
		c-4.5,1.2-9.3,1.5-13.9,0.7c0.7,4.9,0.4,9.8-0.9,14.5c-1.4,4.7-3.7,9.1-6.9,12.8c-3.2,3.7-7.2,6.7-11.6,8.8
		c-4.5,2.1-9.3,3.1-14.2,3.1c-4.9,0-9.8-1.1-14.2-3.1c-4.5-2.1-8.4-5-11.6-8.8s-5.6-8.1-6.9-12.8c-1.4-4.7-1.7-9.7-0.9-14.5
		c-4.9,0.7-9.8,0.4-14.6-0.9c-4.7-1.4-9.1-3.7-12.8-6.9c-3.7-3.2-6.7-7.2-8.8-11.6c-2.1-4.5-3.1-9.3-3.1-14.2v73h146V435h0V438.5z
		 M177.3,552.1c0.3-0.3,0.8-0.6,1.3-0.7c0.5-0.1,1,0,1.4,0.1c0.5,0.2,0.8,0.5,1.1,0.9c0.3,0.4,0.4,0.9,0.4,1.4s-0.1,1-0.4,1.4
		c-0.3,0.4-0.7,0.7-1.1,0.9c-0.5,0.2-1,0.2-1.4,0.1c-0.5-0.1-0.9-0.3-1.3-0.7c-0.5-0.5-0.7-1.1-0.7-1.8S176.9,552.6,177.3,552.1z
		 M168.8,557.2c0.5-0.5,1-0.8,1.6-1.1c0.6-0.3,1.2-0.4,1.9-0.4c0.7,0,1.3,0.1,1.9,0.4c0.6,0.2,1.2,0.6,1.6,1.1
		c0.5,0.5,0.8,1,1.1,1.6c0.2,0.6,0.4,1.3,0.4,1.9c0,0.7-0.1,1.3-0.4,1.9c-0.3,0.6-0.6,1.1-1.1,1.6c-1.9,1.9-13.7,9.8-15.3,8.2
		C159,570.9,166.8,559.1,168.8,557.2z M152,539.4c1,0,2.1,0.2,3,0.6c1,0.4,1.8,1,2.6,1.7c0.7,0.7,1.3,1.6,1.7,2.6c0.4,1,0.6,2,0.6,3
		c0,4.4-3.5,26.5-7.9,26.5V539.4z M152,581v-3.5c0.5,0,0.9,0.1,1.3,0.3c0.4,0.2,0.8,0.4,1.1,0.8c0.3,0.3,0.6,0.7,0.8,1.1
		c0.2,0.4,0.3,0.9,0.3,1.3H152z M159.2,581c0-4.4,22.1-7.9,26.5-7.9c2.1,0,4.1,0.8,5.6,2.3c1.5,1.5,2.3,3.5,2.3,5.6H159.2z
		 M272.7,463.9c-0.4,0.4-0.8,0.6-1.3,0.7c-0.5,0.1-1,0-1.4-0.1c-0.5-0.2-0.8-0.5-1.1-0.9c-0.3-0.4-0.4-0.9-0.4-1.4s0.1-1,0.4-1.4
		c0.3-0.4,0.7-0.7,1.1-0.9c0.5-0.2,1-0.2,1.4-0.1c0.5,0.1,0.9,0.3,1.3,0.7c0.5,0.5,0.7,1.1,0.7,1.8
		C273.4,462.8,273.2,463.4,272.7,463.9z M281.2,458.8c-0.5,0.5-1,0.8-1.6,1.1c-0.6,0.3-1.2,0.4-1.9,0.4c-0.7,0-1.3-0.1-1.9-0.4
		c-0.6-0.2-1.1-0.6-1.6-1.1c-0.5-0.5-0.8-1-1.1-1.6c-0.2-0.6-0.4-1.2-0.4-1.9c0-0.7,0.1-1.3,0.4-1.9c0.2-0.6,0.6-1.1,1.1-1.6
		c1.9-1.9,13.7-9.8,15.3-8.2C291.1,445.1,283.2,456.9,281.2,458.8z M298,539.4v34.4c-4.4,0-7.9-22.1-7.9-26.5c0-2.1,0.8-4.1,2.3-5.6
		C293.9,540.2,295.9,539.4,298,539.4L298,539.4z M281.2,557.2c1.9,1.9,9.8,13.7,8.2,15.3c-1.6,1.6-13.3-6.3-15.3-8.2
		c-0.9-0.9-1.5-2.2-1.5-3.5c0-1.3,0.5-2.6,1.5-3.5c0.9-0.9,2.2-1.5,3.5-1.5C279,555.8,280.3,556.3,281.2,557.2z M269.1,552.1
		c0.3-0.3,0.8-0.6,1.3-0.7c0.5-0.1,1,0,1.4,0.1c0.5,0.2,0.8,0.5,1.1,0.9c0.3,0.4,0.4,0.9,0.4,1.4c0,0.5-0.1,1-0.4,1.4
		c-0.3,0.4-0.7,0.7-1.1,0.9c-0.5,0.2-1,0.2-1.4,0.1c-0.5-0.1-0.9-0.3-1.3-0.7c-0.5-0.5-0.7-1.1-0.7-1.8S268.7,552.6,269.1,552.1
		L269.1,552.1z M256.4,581c0-2.1,0.8-4.1,2.3-5.6c1.5-1.5,3.5-2.3,5.6-2.3c4.4,0,26.5,3.5,26.5,7.9H256.4z M298,581h-3.5
		c0-0.9,0.4-1.8,1-2.5c0.7-0.7,1.6-1,2.5-1V581z M298,476.6c-1,0-2.1-0.2-3-0.6c-1-0.4-1.8-1-2.6-1.7c-0.7-0.7-1.3-1.6-1.7-2.6
		c-0.4-1-0.6-2-0.6-3c0-4.4,3.5-26.5,7.9-26.5V476.6z"/>
	<path class="st1" d="M117.3,397.7c2.1-0.4,7.5-1.7,11.5-5.6c3.9-3.9,5.2-9.4,5.6-11.5c-2.1,0.4-7.5,1.7-11.5,5.6
		C119,390.2,117.7,395.6,117.3,397.7z"/>
	<path class="st1" d="M115.7,397.7c-0.4-2.1-1.7-7.5-5.6-11.5c-3.9-3.9-9.4-5.2-11.5-5.6c0.4,2.1,1.7,7.5,5.6,11.5
		C108.2,396,113.6,397.3,115.7,397.7z"/>
	<path class="st1" d="M80,362c0.4,2.1,1.7,7.5,5.6,11.5c3.9,3.9,9.4,5.2,11.5,5.6c-0.4-2.1-1.7-7.5-5.6-11.5
		C87.5,363.7,82.1,362.4,80,362z"/>
	<path class="st1" d="M97.1,380.6c-2.1,0.4-7.5,1.7-11.5,5.6c-3.9,3.9-5.2,9.4-5.6,11.5c2.1-0.4,7.5-1.7,11.5-5.6
		C95.4,388.2,96.7,382.7,97.1,380.6z"/>
	<path class="st1" d="M117.3,362c0.4,2.1,1.7,7.5,5.6,11.5c3.9,3.9,9.4,5.2,11.5,5.6c-0.4-2.1-1.7-7.5-5.6-11.5
		C124.8,363.7,119.4,362.4,117.3,362z"/>
	<path class="st1" d="M115.7,362c-2.1,0.4-7.5,1.7-11.5,5.6c-3.9,3.9-5.2,9.4-5.6,11.5c2.1-0.4,7.5-1.7,11.5-5.6
		C114,369.5,115.3,364.1,115.7,362z"/>
	<path class="st1" d="M153,362c-2.1,0.4-7.5,1.7-11.5,5.6c-3.9,3.9-5.2,9.4-5.6,11.5c2.1-0.4,7.5-1.7,11.5-5.6
		C151.3,369.5,152.6,364.1,153,362z"/>
	<path class="st1" d="M153,397.7c-0.4-2.1-1.7-7.5-5.6-11.5c-3.9-3.9-9.4-5.2-11.5-5.6c0.4,2.1,1.7,7.5,5.6,11.5
		C145.5,396,150.9,397.3,153,397.7z"/>
	<path class="st1" d="M98.6,417.9c0.4,2.1,1.7,7.5,5.6,11.5c3.9,3.9,9.4,5.2,11.5,5.6c-0.4-2.1-1.7-7.5-5.6-11.5
		C106.2,419.6,100.7,418.3,98.6,417.9z"/>
	<path class="st1" d="M135.9,417.9c0.4,2.1,1.7,7.5,5.6,11.5c3.9,3.9,9.4,5.2,11.5,5.6c-0.4-2.1-1.7-7.5-5.6-11.5
		C143.5,419.6,138,418.3,135.9,417.9z"/>
	<path class="st1" d="M134.4,417.9c-2.1,0.4-7.5,1.7-11.5,5.6c-3.9,3.9-5.2,9.4-5.6,11.5c2.1-0.4,7.5-1.7,11.5-5.6
		C132.7,425.5,134,420,134.4,417.9z"/>
	<path class="st1" d="M97.1,417.9c-2.1,0.4-7.5,1.7-11.5,5.6c-3.9,3.9-5.2,9.4-5.6,11.5c2.1-0.4,7.5-1.7,11.5-5.6
		C95.4,425.5,96.7,420,97.1,417.9z"/>
	<path class="st1" d="M134.4,416.4c-0.4-2.1-1.7-7.5-5.6-11.5c-3.9-3.9-9.4-5.2-11.5-5.6c0.4,2.1,1.7,7.5,5.6,11.5
		C126.8,414.7,132.3,416,134.4,416.4z"/>
	<path class="st1" d="M153,399.3c-2.1,0.4-7.5,1.7-11.5,5.6c-3.9,3.9-5.2,9.4-5.6,11.5c2.1-0.4,7.5-1.7,11.5-5.6
		C151.3,406.8,152.6,401.4,153,399.3z"/>
	<path class="st1" d="M115.7,399.3c-2.1,0.4-7.5,1.7-11.5,5.6c-3.9,3.9-5.2,9.4-5.6,11.5c2.1-0.4,7.5-1.7,11.5-5.6
		C114,406.8,115.3,401.4,115.7,399.3z"/>
	<path class="st1" d="M80,399.3c0.4,2.1,1.7,7.5,5.6,11.5c3.9,3.9,9.4,5.2,11.5,5.6c-0.4-2.1-1.7-7.5-5.6-11.5
		C87.5,401,82.1,399.7,80,399.3z"/>
	<path class="st0" d="M182.7,35.7c-0.4-2.1-1.7-7.5-5.6-11.5c-3.9-3.9-9.4-5.2-11.5-5.6c0.4,2.1,1.7,7.5,5.6,11.5
		C175.2,34,180.6,35.3,182.7,35.7z"/>
	<path class="st0" d="M182.7,37.3c-2.1,0.4-7.5,1.7-11.5,5.6c-3.9,3.9-5.2,9.4-5.6,11.5c2.1-0.4,7.5-1.7,11.5-5.6
		C181,44.8,182.3,39.4,182.7,37.3z"/>
	<path class="st0" d="M147,73c2.1-0.4,7.5-1.7,11.5-5.6c3.9-3.9,5.2-9.4,5.6-11.5c-2.1,0.4-7.5,1.7-11.5,5.6
		C148.7,65.5,147.4,70.9,147,73z"/>
	<path class="st0" d="M165.6,55.9c0.4,2.1,1.7,7.5,5.6,11.5s9.4,5.2,11.5,5.6c-0.4-2.1-1.7-7.5-5.6-11.5
		C173.2,57.6,167.7,56.3,165.6,55.9z"/>
	<path class="st0" d="M147,35.7c2.1-0.4,7.5-1.7,11.5-5.6c3.9-3.9,5.2-9.4,5.6-11.5c-2.1,0.4-7.5,1.7-11.5,5.6
		C148.7,28.2,147.4,33.6,147,35.7z"/>
	<path class="st0" d="M147,37.3c0.4,2.1,1.7,7.5,5.6,11.5c3.9,3.9,9.4,5.2,11.5,5.6c-0.4-2.1-1.7-7.5-5.6-11.5
		C154.5,39,149.1,37.7,147,37.3z"/>
	<path class="st0" d="M147,0c0.4,2.1,1.7,7.5,5.6,11.5c3.9,3.9,9.4,5.2,11.5,5.6c-0.4-2.1-1.7-7.5-5.6-11.5
		C154.5,1.7,149.1,0.4,147,0z"/>
	<path class="st0" d="M182.7,0c-2.1,0.4-7.5,1.7-11.5,5.6c-3.9,3.9-5.2,9.4-5.6,11.5c2.1-0.4,7.5-1.7,11.5-5.6
		C181,7.5,182.3,2.1,182.7,0z"/>
	<path class="st0" d="M202.9,54.4c2.1-0.4,7.5-1.7,11.5-5.6c3.9-3.9,5.2-9.4,5.6-11.5c-2.1,0.4-7.5,1.7-11.5,5.6
		C204.6,46.8,203.3,52.3,202.9,54.4z"/>
	<path class="st0" d="M202.9,17.1c2.1-0.4,7.5-1.7,11.5-5.6c3.9-3.9,5.2-9.4,5.6-11.5c-2.1,0.4-7.5,1.7-11.5,5.6
		C204.6,9.5,203.3,15,202.9,17.1z"/>
	<path class="st0" d="M202.9,18.6c0.4,2.1,1.7,7.5,5.6,11.5c3.9,3.9,9.4,5.2,11.5,5.6c-0.4-2.1-1.7-7.5-5.6-11.5
		C210.5,20.3,205,19,202.9,18.6z"/>
	<path class="st0" d="M202.9,55.9c0.4,2.1,1.7,7.5,5.6,11.5c3.9,3.9,9.4,5.2,11.5,5.6c-0.4-2.1-1.7-7.5-5.6-11.5
		C210.5,57.6,205,56.3,202.9,55.9z"/>
	<path class="st0" d="M201.4,18.6c-2.1,0.4-7.5,1.7-11.5,5.6c-3.9,3.9-5.2,9.4-5.6,11.5c2.1-0.4,7.5-1.7,11.5-5.6
		C199.7,26.2,201,20.7,201.4,18.6z"/>
	<path class="st0" d="M184.3,0c0.4,2.1,1.7,7.5,5.6,11.5c3.9,3.9,9.4,5.2,11.5,5.6c-0.4-2.1-1.7-7.5-5.6-11.5
		C191.8,1.7,186.4,0.4,184.3,0z"/>
	<path class="st0" d="M184.3,37.3c0.4,2.1,1.7,7.5,5.6,11.5c3.9,3.9,9.4,5.2,11.5,5.6c-0.4-2.1-1.7-7.5-5.6-11.5
		C191.8,39,186.4,37.7,184.3,37.3z"/>
	<path class="st0" d="M184.3,73c2.1-0.4,7.5-1.7,11.5-5.6c3.9-3.9,5.2-9.4,5.6-11.5c-2.1,0.4-7.5,1.7-11.5,5.6
		C186,65.5,184.7,70.9,184.3,73z"/>
	<path class="st1" d="M256.5,107.2c-0.1,0.1-0.3,0.3-0.3,0.5c-0.1,0.2-0.1,0.4-0.1,0.6s0,0.4,0.1,0.6c0.1,0.2,0.2,0.4,0.3,0.5
		c0.3,0.3,0.7,0.5,1.1,0.5c0.4,0,0.8-0.2,1.1-0.5c0.1-0.1,0.3-0.3,0.3-0.5c0.1-0.2,0.1-0.4,0.1-0.6c0-0.2,0-0.4-0.1-0.6
		c-0.1-0.2-0.2-0.4-0.3-0.5c-0.3-0.3-0.7-0.5-1.1-0.5C257.2,106.7,256.8,106.9,256.5,107.2z"/>
	<path class="st1" d="M255.4,106.5c0,0,0.1,0,0.1,0c0,0,0.1,0,0.1-0.1c0,0,0.1-0.1,0.1-0.1s0-0.1,0-0.1c-0.4-2-1.4-3.8-2.8-5.3
		c-1.5-1.4-3.3-2.3-5.2-2.8v0.4h-0.4c0.5,1.9,1.4,3.7,2.8,5.2C251.6,105.1,253.4,106,255.4,106.5z"/>
	<path class="st1" d="M259.8,110.1c0,0-0.1,0-0.1,0c0,0-0.1,0-0.1,0.1c0,0-0.1,0.1-0.1,0.1c0,0,0,0.1,0,0.1c0.4,2,1.4,3.8,2.8,5.3
		c1.5,1.4,3.3,2.3,5.2,2.8V118h0.4c-0.5-1.9-1.4-3.7-2.8-5.2C263.6,111.5,261.8,110.5,259.8,110.1z"/>
	<path class="st1" d="M255.8,110.4c0,0,0-0.1,0-0.1c0,0,0-0.1-0.1-0.1c0,0-0.1-0.1-0.1-0.1c0,0-0.1,0-0.1,0c-2,0.4-3.8,1.4-5.3,2.8
		c-1.4,1.4-2.4,3.2-2.8,5.2h0.4v0.4c2-0.4,3.8-1.4,5.2-2.8C254.4,114.2,255.3,112.4,255.8,110.4z"/>
	<path class="st1" d="M259.4,106.1c0,0,0,0.1,0,0.1c0,0,0,0.1,0.1,0.1c0,0,0.1,0.1,0.1,0.1c0,0,0.1,0,0.1,0c2-0.4,3.8-1.4,5.3-2.8
		c1.4-1.4,2.4-3.2,2.8-5.2h-0.4v-0.4c-2,0.4-3.8,1.4-5.2,2.8C260.8,102.3,259.9,104.1,259.4,106.1z"/>
	<path class="st1" d="M254.7,108c-1.7-1.1-3.7-1.7-5.7-1.7c-2,0.1-4,0.7-5.7,1.7c0,0-0.1,0.1-0.1,0.1c0,0,0,0.1,0,0.1
		c0,0,0,0.1,0,0.1c0,0,0.1,0.1,0.1,0.1c1.7,1.1,3.7,1.7,5.7,1.7c2,0,4-0.7,5.7-1.7l0,0l0,0c0,0,0.1-0.1,0.1-0.1c0,0,0-0.1,0-0.1
		c0,0,0-0.1,0-0.1C254.9,108.1,254.8,108.1,254.7,108L254.7,108z"/>
	<path class="st1" d="M271.9,108c-1.7-1.1-3.7-1.7-5.7-1.7c-2,0-4,0.7-5.7,1.7c0,0-0.1,0.1-0.1,0.1c0,0,0,0.1,0,0.1
		c0,0.1,0,0.1,0,0.1c0,0,0.1,0.1,0.1,0.1c1.7,1.1,3.7,1.7,5.7,1.7c2-0.1,4-0.7,5.7-1.7l0,0h0c0,0,0.1-0.1,0.1-0.1c0,0,0-0.1,0-0.1
		c0,0,0-0.1,0-0.1C272,108.1,272,108.1,271.9,108L271.9,108z"/>
	<path class="st1" d="M257.6,111c0,0-0.1,0-0.1,0c0,0-0.1,0.1-0.1,0.1c-1.1,1.7-1.7,3.7-1.8,5.7c0.1,2,0.7,4,1.8,5.7
		c0,0,0.1,0.1,0.1,0.1c0,0,0.1,0,0.1,0c0,0,0.1,0,0.1,0c0,0,0.1,0,0.1-0.1l0,0c1.1-1.7,1.7-3.7,1.8-5.7c-0.1-2-0.7-4-1.8-5.7
		c0,0-0.1-0.1-0.1-0.1C257.7,111,257.6,111,257.6,111z"/>
	<path class="st1" d="M257.6,105.6c0,0,0.1,0,0.1,0c0,0,0.1,0,0.1-0.1l0,0c1.1-1.7,1.7-3.7,1.8-5.7c-0.1-2-0.7-4-1.8-5.7
		c0,0-0.1-0.1-0.1-0.1c0,0-0.1,0-0.1,0c0,0-0.1,0-0.1,0c0,0-0.1,0.1-0.1,0.1c-1.1,1.7-1.7,3.7-1.8,5.7c0.1,2,0.7,4,1.8,5.7
		c0,0,0.1,0.1,0.1,0.1C257.5,105.6,257.5,105.6,257.6,105.6z"/>
	<path class="st1" d="M240.3,72.7c-4.8-0.2-5.3,2.6-5.3,3.4c0,2.6,1.9,3,1.9,3c-1.1,0.6-5.1,0.6-5.1-3.3c0-0.5,0.1-0.9,0.3-1.3
		s0.6-0.7,1-0.9l0,0c-0.7,0.4-1.5,0.6-2.3,0.7c-0.9-0.1-1.8-0.5-2.5-1.1c-0.5-0.4-1.3-1.1-1.3-1.1h-3.4c0,0,7.5,9.4,14,9.4
		c1,0,2-0.3,2.9-0.9c0.8-0.6,1.5-1.5,1.8-2.5s0.3-2-0.1-3C241.8,74.1,241.2,73.2,240.3,72.7z"/>
	<path class="st1" d="M221,74.6L221,74.6l0,3.3l0,0c0,0,0.7,0.8,1.1,1.3c0.7,0.7,1.1,1.6,1.2,2.5c-0.1,0.8-0.3,1.6-0.7,2.2l0,0
		c0.2-0.4,0.5-0.7,0.9-1c0.4-0.2,0.8-0.3,1.3-0.3c3.9,0,4,4,3.4,5.1c0,0-0.5-1.9-3.1-1.9c-0.8,0-3.7,0.6-3.4,5.3
		c0.6,0.9,1.4,1.5,2.4,1.8c1,0.3,2,0.4,3,0.1c1-0.3,1.9-0.9,2.5-1.7c0.6-0.8,1-1.8,1-2.9C230.5,82,221,74.6,221,74.6z"/>
	<path class="st1" d="M291.3,72H288c0,0-0.8,0.7-1.3,1.1c-0.7,0.6-1.6,1-2.5,1.1c-0.8-0.1-1.6-0.3-2.3-0.7l0,0
		c0.4,0.2,0.7,0.5,1,0.9c0.2,0.4,0.3,0.8,0.3,1.3c0,3.9-4,3.9-5.1,3.3c0,0,1.9-0.5,1.9-3c0-0.8-0.6-3.6-5.3-3.4
		c-0.9,0.6-1.5,1.4-1.9,2.4c-0.3,1-0.4,2-0.1,3s0.9,1.8,1.8,2.5c0.8,0.6,1.8,0.9,2.9,0.9C283.9,81.4,291.3,72,291.3,72z"/>
	<path class="st1" d="M294,74.6c0,0-9.5,7.4-9.5,13.8c0,1,0.4,2,1,2.9c0.6,0.8,1.5,1.4,2.5,1.7c1,0.3,2,0.3,3-0.1
		c1-0.3,1.8-1,2.4-1.8c0.2-4.7-2.6-5.3-3.4-5.3c-2.6,0-3.1,1.9-3.1,1.9c-0.6-1.1-0.6-5,3.4-5.1c0.5,0,0.9,0.1,1.3,0.3
		c0.4,0.2,0.7,0.6,0.9,1l0,0c-0.4-0.7-0.6-1.5-0.7-2.2c0.1-0.9,0.5-1.8,1.2-2.5c0.4-0.5,1.1-1.3,1.1-1.3l0,0L294,74.6L294,74.6z"/>
	<path class="st1" d="M277.4,135.6c-1,0-2,0.3-2.9,0.9c-0.8,0.6-1.4,1.5-1.8,2.5c-0.3,1-0.3,2,0.1,3c0.3,1,1,1.8,1.9,2.4
		c4.8,0.2,5.3-2.6,5.3-3.4c0-2.6-1.9-3-1.9-3c1.1-0.6,5.1-0.6,5.1,3.3c0,0.5-0.1,0.9-0.3,1.3c-0.2,0.4-0.6,0.7-1,0.9l0,0
		c0.7-0.4,1.5-0.6,2.3-0.7c0.9,0.1,1.8,0.5,2.5,1.1c0.5,0.4,1.3,1.1,1.3,1.1h3.4C291.3,145,283.9,135.6,277.4,135.6z"/>
	<path class="st1" d="M292.9,137.8c-0.7-0.7-1.1-1.6-1.2-2.5c0.1-0.8,0.3-1.6,0.7-2.2l0,0c-0.2,0.4-0.5,0.7-0.9,1
		c-0.4,0.2-0.8,0.3-1.3,0.3c-3.9,0-4-4-3.4-5.1c0,0,0.5,1.9,3.1,1.9c0.8,0,3.7-0.6,3.4-5.3c-0.6-0.9-1.4-1.5-2.4-1.8
		c-1-0.3-2-0.4-3-0.1c-1,0.3-1.9,0.9-2.5,1.7c-0.6,0.8-1,1.8-1,2.9c0,6.5,9.5,13.8,9.5,13.8h0V139h0
		C294,139,293.3,138.3,292.9,137.8z"/>
	<path class="st1" d="M230.8,142.8c0.8,0.1,1.6,0.3,2.3,0.7l0,0c-0.4-0.2-0.7-0.5-1-0.9c-0.2-0.4-0.3-0.8-0.3-1.3
		c0-3.9,4-3.9,5.1-3.3c0,0-1.9,0.5-1.9,3c0,0.8,0.6,3.6,5.3,3.4c0.9-0.6,1.5-1.4,1.8-2.4c0.3-1,0.4-2,0.1-3c-0.3-1-0.9-1.8-1.8-2.5
		c-0.8-0.6-1.8-0.9-2.9-0.9c-6.5,0-14,9.4-14,9.4h3.4c0,0,0.8-0.7,1.3-1.1C229,143.3,229.9,142.9,230.8,142.8z"/>
	<path class="st1" d="M230.5,128.5c0-1-0.4-2-1-2.9c-0.6-0.8-1.5-1.4-2.5-1.7c-1-0.3-2-0.3-3,0.1c-1,0.3-1.8,1-2.4,1.8
		c-0.2,4.7,2.6,5.3,3.4,5.3c2.6,0,3.1-1.9,3.1-1.9c0.6,1.1,0.6,5-3.4,5.1c-0.5,0-0.9-0.1-1.3-0.3s-0.7-0.6-0.9-1l0,0
		c0.4,0.7,0.6,1.5,0.7,2.2c-0.1,0.9-0.5,1.8-1.2,2.5c-0.4,0.5-1.1,1.3-1.1,1.3h0v3.3h0C221,142.4,230.5,135,230.5,128.5z"/>
	<path class="st1" d="M269.2,81.8l0-9.8H246v9.8l-15.2,15H221v1.7l0,8.1l0,0v3.4l0,0l0,8.1v1.7h9.8l15.2,15V145h23.2v-10.2l15.2-15
		h9.6V96.8h-9.7L269.2,81.8z M282.6,118h-14.7c0,0,0,0.1,0,0.1c0,0,0,0.1,0,0.1c0,0,0,0.1-0.1,0.1c0,0-0.1,0.1-0.1,0.1
		c0,0-0.1,0-0.1,0c0,0,0,0-0.1,0v14.6l-9.9,9.8l-9.9-9.8v-14.6c0,0-0.1,0-0.1,0c-0.1,0-0.1,0-0.1,0c0,0-0.1,0-0.1-0.1
		c0,0-0.1-0.1-0.1-0.1s0-0.1,0-0.1c0,0,0,0,0-0.1h-14.7l-9.9-9.8l9.9-9.8h14.7c0,0,0-0.1,0-0.1c0-0.1,0-0.1,0-0.1s0-0.1,0.1-0.1
		c0,0,0.1-0.1,0.1-0.1c0,0,0.1,0,0.1,0c0,0,0,0,0.1,0V83.5l9.9-9.8l9.9,9.8v14.6c0,0,0.1,0,0.1,0c0,0,0.1,0,0.1,0c0,0,0.1,0,0.1,0.1
		c0,0,0.1,0.1,0.1,0.1c0,0,0,0.1,0,0.1c0,0,0,0,0,0.1h14.7l9.9,9.8L282.6,118z"/>
	<path class="st1" d="M247.7,98.1C247.7,98.1,247.7,98,247.7,98.1c-0.1,0-0.2,0-0.2,0c0,0-0.1,0-0.1,0.1c0,0-0.1,0.1-0.1,0.1
		s0,0.1,0,0.1c0,0,0,0,0,0.1h0.4V98.1z"/>
	<path class="st1" d="M267.5,118.5C267.5,118.5,267.5,118.5,267.5,118.5c0.1,0,0.2,0,0.2,0c0,0,0.1,0,0.1-0.1c0,0,0.1-0.1,0.1-0.1
		c0,0,0-0.1,0-0.1c0,0,0,0,0-0.1h-0.4V118.5z"/>
	<path class="st1" d="M247.3,118C247.3,118.1,247.3,118.1,247.3,118c0,0.1,0,0.2,0,0.2c0,0,0,0.1,0.1,0.1c0,0,0.1,0.1,0.1,0.1
		c0,0,0.1,0,0.1,0c0,0,0,0,0.1,0V118H247.3z"/>
	<path class="st1" d="M267.9,98.5C267.9,98.5,267.9,98.4,267.9,98.5c0-0.1,0-0.2,0-0.2c0,0,0-0.1-0.1-0.1c0,0-0.1-0.1-0.1-0.1
		c0,0-0.1,0-0.1,0c0,0,0,0-0.1,0v0.4H267.9z"/>
	<path class="st1" d="M144.8,254.5c-0.4-0.2-0.8-0.2-1.2-0.1c-0.4,0.1-0.8,0.3-1,0.6l-31.6,31.6c-0.3,0.3-0.5,0.6-0.6,1
		c-0.1,0.4,0,0.8,0.1,1.2c0.2,0.4,0.4,0.7,0.7,0.9c0.3,0.2,0.7,0.3,1.1,0.3H144c0.5,0,1.1-0.2,1.4-0.6c0.4-0.4,0.6-0.9,0.6-1.4
		v-31.6c0-0.4-0.1-0.8-0.3-1.1C145.4,254.9,145.1,254.6,144.8,254.5z"/>
	<path class="st1" d="M144.9,237.9c-0.2-0.2-0.6-0.4-0.9-0.4c-0.3,0-0.7,0.1-0.9,0.4L93.9,287c-0.1,0.1-0.2,0.3-0.3,0.4
		c-0.1,0.2-0.1,0.3-0.1,0.5c0,0.2,0,0.3,0.1,0.5c0.1,0.2,0.2,0.3,0.3,0.4c0.1,0.1,0.3,0.2,0.4,0.3c0.2,0.1,0.3,0.1,0.5,0.1
		c0.2,0,0.3,0,0.5-0.1c0.2-0.1,0.3-0.2,0.4-0.3l49.2-49.2c0.2-0.2,0.4-0.6,0.4-0.9C145.3,238.5,145.1,238.1,144.9,237.9z"/>
	<path class="st1" d="M1.3,179.5c0.4,0.2,0.8,0.2,1.2,0.1c0.4-0.1,0.8-0.3,1-0.6l31.6-31.6c0.3-0.3,0.5-0.6,0.6-1
		c0.1-0.4,0-0.8-0.1-1.2c-0.2-0.4-0.4-0.7-0.7-0.9c-0.3-0.2-0.7-0.3-1.1-0.3H2c-0.5,0-1.1,0.2-1.4,0.6C0.2,145,0,145.5,0,146l0,31.6
		c0,0.4,0.1,0.8,0.3,1.1C0.6,179.1,0.9,179.4,1.3,179.5z"/>
	<path class="st1" d="M1.1,196.1c0.1,0.1,0.3,0.2,0.4,0.3c0.2,0.1,0.3,0.1,0.5,0.1c0.2,0,0.3,0,0.5-0.1c0.2-0.1,0.3-0.2,0.4-0.3
		l49.2-49.2c0.2-0.2,0.4-0.6,0.4-0.9c0-0.3-0.1-0.7-0.4-0.9c-0.2-0.2-0.6-0.4-0.9-0.4c-0.3,0-0.7,0.1-0.9,0.4L1.1,194.3
		c-0.1,0.1-0.2,0.3-0.3,0.4s-0.1,0.3-0.1,0.5c0,0.2,0,0.3,0.1,0.5C0.9,195.9,1,196,1.1,196.1z"/>
	<path class="st1" d="M142.5,179.1c0.2,0.2,0.4,0.3,0.7,0.4c0.2,0.1,0.5,0.2,0.8,0.2c0.3,0,0.5-0.1,0.8-0.2c0.4-0.2,0.7-0.4,0.9-0.7
		c0.2-0.3,0.3-0.7,0.3-1.1V146c0-0.3-0.1-0.5-0.2-0.8c-0.1-0.2-0.3-0.5-0.4-0.7c-0.2-0.2-0.4-0.3-0.7-0.4c-0.2-0.1-0.5-0.2-0.8-0.2
		h-31.6c-0.4,0-0.8,0.1-1.1,0.3c-0.3,0.2-0.6,0.5-0.7,0.9c-0.2,0.4-0.2,0.8-0.1,1.2c0.1,0.4,0.3,0.8,0.6,1L142.5,179.1z"/>
	<path class="st1" d="M143,196.1c0.2,0.2,0.6,0.4,0.9,0.4c0.3,0,0.7-0.1,0.9-0.4c0.2-0.2,0.4-0.6,0.4-0.9c0-0.3-0.1-0.7-0.4-0.9
		l-49.2-49.2c-0.2-0.2-0.6-0.4-0.9-0.4c-0.3,0-0.7,0.1-0.9,0.4c-0.1,0.1-0.2,0.3-0.3,0.4c-0.1,0.2-0.1,0.3-0.1,0.5
		c0,0.2,0,0.3,0.1,0.5c0.1,0.2,0.2,0.3,0.3,0.4L143,196.1z"/>
	<path class="st1" d="M3.5,254.9c-0.4-0.4-0.9-0.6-1.4-0.6c-0.3,0-0.5,0.1-0.8,0.2c-0.4,0.2-0.7,0.4-0.9,0.7
		c-0.2,0.3-0.3,0.7-0.3,1.1L0,288c0,0.5,0.2,1.1,0.6,1.4C1,289.8,1.5,290,2,290h31.6c0.4,0,0.8-0.1,1.1-0.3c0.3-0.2,0.6-0.5,0.7-0.9
		c0.2-0.4,0.2-0.8,0.1-1.2c-0.1-0.4-0.3-0.8-0.6-1L3.5,254.9z"/>
	<path class="st1" d="M3,237.9c-0.2-0.2-0.6-0.4-0.9-0.4c-0.3,0-0.5,0.1-0.7,0.2c-0.2,0.1-0.4,0.3-0.5,0.6c-0.1,0.2-0.1,0.5-0.1,0.8
		c0.1,0.3,0.2,0.5,0.4,0.7l49.2,49.2c0.2,0.2,0.6,0.4,0.9,0.4c0.3,0,0.7-0.1,0.9-0.4c0.2-0.2,0.4-0.6,0.4-0.9c0-0.3-0.1-0.7-0.4-0.9
		L3,237.9z"/>
	<path class="st1" d="M74.5,231.7c-0.2-0.2-0.4-0.4-0.7-0.5c-0.3-0.1-0.5-0.2-0.8-0.2s-0.6,0.1-0.8,0.2c-0.3,0.1-0.5,0.3-0.7,0.5
		c-2.3,2.6-4.3,5.4-6,8.4c-3.7,6.2-5.8,13.2-6,20.4c0.2,7.2,2.3,14.2,6,20.4c1.7,3,3.7,5.8,6,8.4c0.2,0.2,0.4,0.4,0.7,0.5
		c0.3,0.1,0.5,0.2,0.8,0.2s0.6-0.1,0.8-0.2c0.3-0.1,0.5-0.3,0.7-0.5c2.3-2.6,4.3-5.4,6-8.4c3.7-6.2,5.8-13.2,6-20.4
		c-0.2-7.2-2.3-14.2-6-20.4C78.8,237.1,76.8,234.3,74.5,231.7z"/>
	<path class="st1" d="M71.5,202.3c0.2,0.2,0.4,0.4,0.7,0.5c0.3,0.1,0.5,0.2,0.8,0.2s0.6-0.1,0.8-0.2c0.3-0.1,0.5-0.3,0.7-0.5
		c2.3-2.6,4.3-5.4,6-8.4c3.7-6.2,5.8-13.2,6-20.4c-0.2-7.2-2.3-14.2-6-20.4c-1.7-3-3.7-5.8-6-8.4c-0.2-0.2-0.4-0.4-0.7-0.5
		c-0.3-0.1-0.5-0.2-0.8-0.2s-0.6,0.1-0.8,0.2c-0.3,0.1-0.5,0.3-0.7,0.5c-2.3,2.6-4.3,5.4-6,8.4c-3.7,6.2-5.8,13.2-6,20.4
		c0.2,7.2,2.3,14.2,6,20.4C67.2,196.9,69.2,199.7,71.5,202.3z"/>
	<path class="st1" d="M136.9,224.5c3-1.7,5.8-3.7,8.4-6c0.2-0.2,0.4-0.4,0.5-0.7c0.1-0.3,0.2-0.5,0.2-0.8c0-0.3-0.1-0.6-0.2-0.8
		c-0.1-0.3-0.3-0.5-0.5-0.7c-2.6-2.3-5.4-4.3-8.4-6c-6.2-3.7-13.2-5.8-20.4-6c-7.2,0.2-14.2,2.3-20.4,6c-3,1.7-5.8,3.7-8.4,6
		c-0.2,0.2-0.4,0.4-0.5,0.7c-0.1,0.3-0.2,0.5-0.2,0.8c0,0.3,0.1,0.6,0.2,0.8c0.1,0.3,0.3,0.5,0.5,0.7c2.6,2.3,5.4,4.3,8.4,6
		c6.2,3.7,13.2,5.8,20.4,6C123.7,230.2,130.8,228.2,136.9,224.5z"/>
	<path class="st1" d="M58.3,218.5c0.2-0.2,0.4-0.4,0.5-0.7c0.1-0.3,0.2-0.5,0.2-0.8c0-0.3-0.1-0.6-0.2-0.8c-0.1-0.3-0.3-0.5-0.5-0.7
		c-2.6-2.3-5.4-4.3-8.4-6c-6.2-3.7-13.2-5.8-20.4-6c-7.2,0.2-14.2,2.3-20.4,6c-3,1.7-5.8,3.7-8.4,6c-0.2,0.2-0.4,0.4-0.5,0.7
		C0.1,216.4,0,216.7,0,217c0,0.3,0.1,0.6,0.2,0.8c0.1,0.3,0.3,0.5,0.5,0.7c2.6,2.3,5.4,4.3,8.4,6c6.2,3.7,13.2,5.8,20.4,6
		c7.2-0.2,14.2-2.3,20.4-6C52.9,222.8,55.7,220.8,58.3,218.5z"/>
	<path class="st1" d="M68.7,217c0,0.8,0.2,1.7,0.7,2.4c0.5,0.7,1.1,1.3,1.9,1.6c0.8,0.3,1.6,0.4,2.5,0.2c0.8-0.2,1.6-0.6,2.2-1.2
		c0.6-0.6,1-1.4,1.2-2.2c0.2-0.8,0.1-1.7-0.2-2.5c-0.3-0.8-0.9-1.5-1.6-1.9c-0.7-0.5-1.5-0.7-2.4-0.7c-0.6,0-1.1,0.1-1.6,0.3
		c-0.5,0.2-1,0.5-1.4,0.9c-0.4,0.4-0.7,0.9-0.9,1.4C68.8,215.9,68.7,216.4,68.7,217z"/>
	<path class="st2" d="M62,204.6c-1.6-2.2-15.8-21.9-17.5-23.6c-1-1-2.4-1.6-3.8-1.6c-1.4,0-2.8,0.6-3.8,1.6c-1,1-1.6,2.4-1.6,3.8
		c0,1.4,0.6,2.8,1.6,3.8c1.7,1.7,21.4,15.9,23.6,17.5c0.2,0.1,0.4,0.2,0.7,0.2c0.2,0,0.5-0.1,0.6-0.3c0.2-0.2,0.3-0.4,0.3-0.6
		C62.2,205.1,62.2,204.8,62,204.6L62,204.6z"/>
	<path class="st2" d="M85.4,206c2.2-1.6,21.9-15.8,23.6-17.5c1-1,1.6-2.4,1.6-3.8c0-1.4-0.6-2.8-1.6-3.8c-1-1-2.4-1.6-3.8-1.6
		c-1.4,0-2.8,0.6-3.8,1.6c0.1-0.1-14.4,19.3-17.5,23.6c-0.1,0.2-0.2,0.4-0.2,0.7c0,0.2,0.1,0.5,0.3,0.6c0.2,0.2,0.4,0.3,0.6,0.3
		C84.9,206.2,85.2,206.2,85.4,206L85.4,206z"/>
	<path class="st2" d="M40.8,254.6c0.7,0,1.4-0.1,2.1-0.4c0.7-0.3,1.2-0.7,1.7-1.2c1.7-1.7,15.9-21.4,17.5-23.6
		c0.1-0.2,0.2-0.4,0.2-0.7c0-0.2-0.1-0.5-0.3-0.6c-0.1-0.1-0.2-0.2-0.3-0.2c-0.1-0.1-0.3-0.1-0.4-0.1c-0.2,0-0.4,0.1-0.6,0.2
		c-2.2,1.6-20.1,13.9-21.8,15.7c-2.1,2.1-3.9,7.3-1.8,9.4c0.5,0.5,1.1,0.9,1.7,1.2C39.4,254.4,40.1,254.6,40.8,254.6z"/>
	<path class="st2" d="M84,229.4c2.2,3,14.9,21.1,17.4,23.6c0.5,0.5,1.1,0.9,1.7,1.2c0.7,0.3,1.3,0.4,2.1,0.4c0.7,0,1.4-0.1,2.1-0.4
		c0.7-0.3,1.2-0.7,1.7-1.2c0.5-0.5,0.9-1.1,1.2-1.7c0.3-0.7,0.4-1.3,0.4-2.1s-0.1-1.4-0.4-2.1c-0.3-0.7-0.7-1.2-1.2-1.7
		c-1.7-1.7-21.4-15.9-23.6-17.5c-0.2-0.1-0.4-0.2-0.6-0.2h0c-0.1,0-0.3,0-0.4,0.1c-0.1,0.1-0.2,0.1-0.3,0.2
		c-0.1,0.1-0.2,0.2-0.2,0.3s-0.1,0.3-0.1,0.4C83.8,229,83.9,229.3,84,229.4z"/>
</g>
</svg>
