<?xml version="1.0" encoding="utf-8"?>
<!-- Generator: Adobe Illustrator 22.1.0, SVG Export Plug-In . SVG Version: 6.00 Build 0)  -->
<svg version="1.1" id="Слой_1" xmlns="http://www.w3.org/2000/svg" xmlns:xlink="http://www.w3.org/1999/xlink" x="0px" y="0px"
	 viewBox="0 0 318.2 73" style="enable-background:new 0 0 318.2 73;" xml:space="preserve">
<style type="text/css">
	.st0{fill:#2C3B8C;}
	.st1{fill:#6678D6;}
	.st2{fill:#E7533B;}
</style>
<g>
	<path class="st0" d="M126.4,18.4c-0.2-1-0.8-3.7-2.7-5.6c-1.9-1.9-4.6-2.6-5.6-2.7c0.2,1,0.8,3.7,2.7,5.6S125.4,18.2,126.4,18.4z"
		/>
	<path class="st0" d="M126.4,19.2c-1,0.2-3.7,0.8-5.6,2.7c-1.9,1.9-2.6,4.6-2.7,5.6c1-0.2,3.7-0.8,5.6-2.7
		C125.6,22.9,126.2,20.2,126.4,19.2z"/>
	<path class="st0" d="M109,36.6c1-0.2,3.7-0.8,5.6-2.7c1.9-1.9,2.6-4.6,2.7-5.6c-1,0.2-3.7,0.8-5.6,2.7
		C109.8,32.9,109.2,35.6,109,36.6z"/>
	<path class="st0" d="M118.1,28.3c0.2,1,0.8,3.7,2.7,5.6c1.9,1.9,4.6,2.6,5.6,2.7c-0.2-1-0.8-3.7-2.7-5.6
		C121.8,29.1,119.1,28.5,118.1,28.3z"/>
	<path class="st0" d="M109,18.4c1-0.2,3.7-0.8,5.6-2.7c1.9-1.9,2.6-4.6,2.7-5.6c-1,0.2-3.7,0.8-5.6,2.7
		C109.8,14.7,109.2,17.4,109,18.4z"/>
	<path class="st0" d="M109,19.2c0.2,1,0.8,3.7,2.7,5.6c1.9,1.9,4.6,2.6,5.6,2.7c-0.2-1-0.8-3.7-2.7-5.6C112.7,20,110,19.4,109,19.2z
		"/>
	<path class="st0" d="M109,1c0.2,1,0.8,3.7,2.7,5.6c1.9,1.9,4.6,2.6,5.6,2.7c-0.2-1-0.8-3.7-2.7-5.6C112.7,1.8,110,1.2,109,1z"/>
	<path class="st0" d="M126.4,1c-1,0.2-3.7,0.8-5.6,2.7c-1.9,1.9-2.6,4.6-2.7,5.6c1-0.2,3.7-0.8,5.6-2.7C125.6,4.7,126.2,2,126.4,1z"
		/>
	<path class="st0" d="M136.3,27.5c1-0.2,3.7-0.8,5.6-2.7c1.9-1.9,2.6-4.6,2.7-5.6c-1,0.2-3.7,0.8-5.6,2.7
		C137.1,23.8,136.5,26.5,136.3,27.5z"/>
	<path class="st0" d="M136.3,9.3c1-0.2,3.7-0.8,5.6-2.7c1.9-1.9,2.6-4.6,2.7-5.6c-1,0.2-3.7,0.8-5.6,2.7
		C137.1,5.6,136.5,8.3,136.3,9.3z"/>
	<path class="st0" d="M136.3,10.1c0.2,1,0.8,3.7,2.7,5.6c1.9,1.9,4.6,2.6,5.6,2.7c-0.2-1-0.8-3.7-2.7-5.6
		C140,10.9,137.3,10.3,136.3,10.1z"/>
	<path class="st0" d="M136.3,28.3c0.2,1,0.8,3.7,2.7,5.6c1.9,1.9,4.6,2.6,5.6,2.7c-0.2-1-0.8-3.7-2.7-5.6
		C140,29.1,137.3,28.5,136.3,28.3z"/>
	<path class="st0" d="M135.5,10.1c-1,0.2-3.7,0.8-5.6,2.7c-1.9,1.9-2.6,4.6-2.7,5.6c1-0.2,3.7-0.8,5.6-2.7
		C134.7,13.8,135.3,11.1,135.5,10.1z"/>
	<path class="st0" d="M127.2,1c0.2,1,0.8,3.7,2.7,5.6c1.9,1.9,4.6,2.6,5.6,2.7c-0.2-1-0.8-3.7-2.7-5.6C130.9,1.8,128.2,1.2,127.2,1z
		"/>
	<path class="st0" d="M127.2,19.2c0.2,1,0.8,3.7,2.7,5.6c1.9,1.9,4.6,2.6,5.6,2.7c-0.2-1-0.8-3.7-2.7-5.6
		C130.9,20,128.2,19.4,127.2,19.2z"/>
	<path class="st0" d="M127.2,36.6c1-0.2,3.7-0.8,5.6-2.7c1.9-1.9,2.6-4.6,2.7-5.6c-1,0.2-3.7,0.8-5.6,2.7
		C128,32.9,127.4,35.6,127.2,36.6z"/>
	<path class="st0" d="M247.6,17.3c0.2,0.1,0.4,0.1,0.6,0.1c0.2,0,0.4-0.1,0.5-0.3l15.4-15.4c0.1-0.1,0.2-0.3,0.3-0.5
		c0-0.2,0-0.4-0.1-0.6c-0.1-0.2-0.2-0.3-0.4-0.4c-0.2-0.1-0.4-0.2-0.5-0.2H248c-0.3,0-0.5,0.1-0.7,0.3C247.1,0.5,247,0.7,247,1v15.4
		c0,0.2,0.1,0.4,0.2,0.6C247.3,17.1,247.4,17.3,247.6,17.3L247.6,17.3z"/>
	<path class="st0" d="M247.5,25.4c0.1,0.1,0.3,0.2,0.5,0.2c0.2,0,0.3-0.1,0.5-0.2l24-24c0.1-0.1,0.1-0.1,0.1-0.2
		c0-0.1,0-0.2,0.1-0.2c0-0.1,0-0.2,0-0.2c0-0.1-0.1-0.1-0.1-0.2c-0.1-0.1-0.1-0.1-0.2-0.1c-0.1,0-0.2,0-0.2,0c-0.1,0-0.2,0-0.2,0
		c-0.1,0-0.1,0.1-0.2,0.1l-24,24c-0.1,0.1-0.2,0.3-0.2,0.5S247.4,25.3,247.5,25.4L247.5,25.4z"/>
	<path class="st0" d="M317.6,53.9c-0.2-0.1-0.4-0.1-0.6-0.1c-0.2,0-0.4,0.1-0.5,0.3l-15.4,15.4c-0.1,0.1-0.2,0.3-0.3,0.5
		c0,0.2,0,0.4,0.1,0.6c0.1,0.2,0.2,0.3,0.4,0.4c0.2,0.1,0.4,0.2,0.6,0.2h15.4c0.3,0,0.5-0.1,0.7-0.3c0.2-0.2,0.3-0.4,0.3-0.7V54.8
		c0-0.2-0.1-0.4-0.2-0.5S317.8,54,317.6,53.9z"/>
	<path class="st0" d="M317.7,45.8c-0.1-0.1-0.1-0.1-0.2-0.1c-0.1,0-0.2,0-0.2,0c-0.1,0-0.2,0-0.2,0c-0.1,0-0.1,0.1-0.2,0.1l-24,24
		c-0.1,0.1-0.2,0.3-0.2,0.5s0.1,0.3,0.2,0.5c0.1,0.1,0.3,0.2,0.5,0.2c0.2,0,0.3-0.1,0.5-0.2l24-24c0.1-0.1,0.1-0.1,0.1-0.2
		c0-0.1,0-0.2,0-0.2c0-0.1,0-0.2,0-0.2C317.8,45.9,317.8,45.9,317.7,45.8L317.7,45.8z"/>
	<path class="st0" d="M248.7,54.1c-0.1-0.1-0.2-0.2-0.3-0.2c-0.1-0.1-0.2-0.1-0.4-0.1c-0.1,0-0.3,0-0.4,0.1
		c-0.2,0.1-0.3,0.2-0.4,0.4c-0.1,0.2-0.2,0.4-0.2,0.6v15.4c0,0.1,0,0.3,0.1,0.4s0.1,0.2,0.2,0.3s0.2,0.2,0.3,0.2s0.2,0.1,0.4,0.1
		h15.4c0.2,0,0.4-0.1,0.5-0.2c0.2-0.1,0.3-0.3,0.4-0.4c0.1-0.2,0.1-0.4,0.1-0.6s-0.1-0.4-0.3-0.5L248.7,54.1z"/>
	<path class="st0" d="M248.4,45.8c-0.1-0.1-0.3-0.2-0.4-0.2c-0.2,0-0.3,0.1-0.4,0.2c-0.1,0.1-0.2,0.3-0.2,0.5c0,0.2,0.1,0.3,0.2,0.5
		l24,24c0.1,0.1,0.3,0.2,0.4,0.2c0.2,0,0.3-0.1,0.5-0.2c0.1-0.1,0.1-0.1,0.1-0.2c0-0.1,0-0.2,0-0.2c0-0.1,0-0.2,0-0.2
		c0-0.1-0.1-0.1-0.1-0.2L248.4,45.8z"/>
	<path class="st0" d="M316.5,17.1c0.2,0.2,0.4,0.3,0.7,0.3c0.1,0,0.3,0,0.4-0.1c0.2-0.1,0.3-0.2,0.4-0.4c0.1-0.2,0.2-0.4,0.2-0.6V1
		c0-0.3-0.1-0.5-0.3-0.7c-0.2-0.2-0.4-0.3-0.7-0.3h-15.4c-0.2,0-0.4,0.1-0.6,0.2c-0.2,0.1-0.3,0.3-0.4,0.4c-0.1,0.2-0.1,0.4-0.1,0.6
		c0,0.2,0.1,0.4,0.3,0.5L316.5,17.1z"/>
	<path class="st0" d="M316.8,25.4c0.1,0.1,0.3,0.2,0.4,0.2c0.1,0,0.3,0,0.4-0.1c0.1-0.1,0.2-0.2,0.2-0.3c0-0.1,0.1-0.2,0-0.4
		c0-0.1-0.1-0.2-0.2-0.3l-24-24c-0.1-0.1-0.3-0.2-0.5-0.2c-0.2,0-0.3,0.1-0.5,0.2c-0.1,0.1-0.2,0.3-0.2,0.5s0.1,0.3,0.2,0.5
		L316.8,25.4z"/>
	<path class="st0" d="M281.9,28.4c0.1,0.1,0.2,0.2,0.3,0.2s0.3,0.1,0.4,0.1s0.3,0,0.4-0.1s0.2-0.1,0.3-0.2c1.1-1.3,2.1-2.6,2.9-4.1
		c1.8-3,2.8-6.4,2.9-10c-0.1-3.5-1.1-6.9-2.9-10c-0.8-1.5-1.8-2.8-2.9-4.1c-0.1-0.1-0.2-0.2-0.3-0.2S282.8,0,282.6,0s-0.3,0-0.4,0.1
		s-0.2,0.1-0.3,0.2c-1.1,1.3-2.1,2.6-2.9,4.1c-1.8,3-2.8,6.4-2.9,10c0.1,3.5,1.1,6.9,2.9,10C279.8,25.8,280.8,27.2,281.9,28.4
		L281.9,28.4z"/>
	<path class="st0" d="M283.3,42.8c-0.1-0.1-0.2-0.2-0.3-0.2c-0.1-0.1-0.3-0.1-0.4-0.1c-0.1,0-0.3,0-0.4,0.1
		c-0.1,0.1-0.2,0.1-0.3,0.2c-1.1,1.3-2.1,2.6-2.9,4.1c-1.8,3-2.8,6.4-2.9,10c0.1,3.5,1.1,6.9,2.9,10c0.8,1.5,1.8,2.8,2.9,4.1
		c0.1,0.1,0.2,0.2,0.3,0.2c0.1,0.1,0.3,0.1,0.4,0.1c0.1,0,0.3,0,0.4-0.1c0.1-0.1,0.2-0.1,0.3-0.2c1.1-1.3,2.1-2.6,2.9-4.1
		c1.8-3,2.8-6.4,2.9-10c-0.1-3.5-1.1-6.9-2.9-10C285.4,45.4,284.5,44.1,283.3,42.8L283.3,42.8z"/>
	<path class="st0" d="M251.4,32c-1.5,0.8-2.8,1.8-4.1,2.9c-0.1,0.1-0.2,0.2-0.2,0.3c-0.1,0.1-0.1,0.3-0.1,0.4c0,0.1,0,0.3,0.1,0.4
		c0.1,0.1,0.1,0.2,0.2,0.3c1.3,1.1,2.6,2.1,4.1,2.9c3,1.8,6.4,2.8,10,2.9c3.5-0.1,6.9-1.1,10-2.9c1.5-0.8,2.8-1.8,4.1-2.9
		c0.1-0.1,0.2-0.2,0.2-0.3c0.1-0.1,0.1-0.3,0.1-0.4c0-0.1,0-0.3-0.1-0.4c-0.1-0.1-0.1-0.2-0.2-0.3c-1.3-1.1-2.6-2.1-4.1-2.9
		c-3-1.8-6.4-2.8-10-2.9C257.9,29.2,254.4,30.2,251.4,32L251.4,32z"/>
	<path class="st0" d="M289.8,34.9c-0.1,0.1-0.2,0.2-0.2,0.3c-0.1,0.1-0.1,0.3-0.1,0.4s0,0.3,0.1,0.4c0.1,0.1,0.1,0.2,0.2,0.3
		c1.3,1.1,2.6,2.1,4.1,2.9c3,1.8,6.4,2.8,10,2.9c3.5-0.1,6.9-1.1,10-2.9c1.5-0.8,2.8-1.8,4.1-2.9c0.1-0.1,0.2-0.2,0.2-0.3
		c0.1-0.1,0.1-0.3,0.1-0.4s0-0.3-0.1-0.4c-0.1-0.1-0.1-0.2-0.2-0.3c-1.3-1.1-2.6-2.1-4.1-2.9c-3-1.8-6.4-2.8-10-2.9
		c-3.5,0.1-6.9,1.1-10,2.9C292.4,32.8,291.1,33.8,289.8,34.9z"/>
	<path class="st0" d="M284.7,35.6c0-0.4-0.1-0.8-0.3-1.2c-0.2-0.3-0.6-0.6-0.9-0.8c-0.4-0.2-0.8-0.2-1.2-0.1
		c-0.4,0.1-0.8,0.3-1.1,0.6c-0.3,0.3-0.5,0.7-0.6,1.1c-0.1,0.4,0,0.8,0.1,1.2s0.4,0.7,0.8,0.9c0.3,0.2,0.7,0.4,1.2,0.4
		c0.3,0,0.5-0.1,0.8-0.2c0.3-0.1,0.5-0.3,0.7-0.5c0.2-0.2,0.3-0.4,0.5-0.7C284.7,36.2,284.7,35.9,284.7,35.6L284.7,35.6z"/>
	<path class="st1" d="M288,41.7c0.8,1.1,7.7,10.7,8.5,11.5c0.5,0.5,1.2,0.8,1.9,0.8c0.7,0,1.4-0.3,1.8-0.8c0.5-0.5,0.8-1.2,0.8-1.8
		c0-0.7-0.3-1.4-0.8-1.8c-0.8-0.8-10.4-7.7-11.5-8.5c-0.1-0.1-0.2-0.1-0.3-0.1c-0.1,0-0.2,0.1-0.3,0.1c-0.1,0.1-0.1,0.2-0.1,0.3
		C287.9,41.4,287.9,41.6,288,41.7L288,41.7z"/>
	<path class="st1" d="M276.6,41c-1.1,0.8-10.7,7.7-11.5,8.5c-0.5,0.5-0.8,1.2-0.8,1.9c0,0.7,0.3,1.4,0.8,1.9
		c0.5,0.5,1.2,0.8,1.9,0.8c0.7,0,1.4-0.3,1.9-0.8c-0.1,0,7-9.4,8.5-11.5c0.1-0.1,0.1-0.2,0.1-0.3c0-0.1-0.1-0.2-0.1-0.3
		c-0.1-0.1-0.2-0.1-0.3-0.1C276.8,40.9,276.7,40.9,276.6,41L276.6,41z"/>
	<path class="st1" d="M298.3,17.3c-0.3,0-0.7,0.1-1,0.2c-0.3,0.1-0.6,0.3-0.8,0.6c-0.8,0.8-7.7,10.4-8.5,11.5
		c-0.1,0.1-0.1,0.2-0.1,0.3c0,0.1,0.1,0.2,0.1,0.3c0,0,0.1,0.1,0.2,0.1c0.1,0,0.1,0,0.2,0c0.1,0,0.2,0,0.3-0.1
		c1.1-0.8,9.8-6.8,10.6-7.6c1-1,1.9-3.6,0.9-4.6c-0.2-0.2-0.5-0.4-0.8-0.6C299,17.3,298.7,17.3,298.3,17.3L298.3,17.3z"/>
	<path class="st1" d="M277.2,29.5c-1.1-1.5-7.3-10.3-8.5-11.5c-0.2-0.2-0.5-0.4-0.9-0.6c-0.3-0.1-0.7-0.2-1-0.2s-0.7,0.1-1,0.2
		c-0.3,0.1-0.6,0.3-0.8,0.6c-0.2,0.2-0.4,0.5-0.6,0.8c-0.1,0.3-0.2,0.7-0.2,1s0.1,0.7,0.2,1c0.1,0.3,0.3,0.6,0.6,0.8
		c0.8,0.8,10.4,7.7,11.5,8.5c0.1,0.1,0.2,0.1,0.3,0.1h0c0.1,0,0.1,0,0.2,0c0.1,0,0.1-0.1,0.2-0.1c0,0,0.1-0.1,0.1-0.2
		c0-0.1,0-0.1,0-0.2C277.4,29.7,277.3,29.6,277.2,29.5L277.2,29.5z"/>
	<path class="st2" d="M162.4,53.3c-0.1,0.1-0.1,0.2-0.2,0.2c0,0.1-0.1,0.2-0.1,0.3s0,0.2,0.1,0.3c0,0.1,0.1,0.2,0.2,0.2
		c0.1,0.1,0.3,0.2,0.5,0.2c0.2,0,0.4-0.1,0.5-0.2c0.1-0.1,0.1-0.2,0.2-0.2c0-0.1,0.1-0.2,0.1-0.3s0-0.2-0.1-0.3
		c0-0.1-0.1-0.2-0.2-0.2c-0.1-0.1-0.3-0.2-0.5-0.2C162.8,53.1,162.6,53.2,162.4,53.3L162.4,53.3z"/>
	<path class="st2" d="M161.9,52.9C161.9,52.9,161.9,52.9,161.9,52.9c0.1,0,0.1,0,0.1,0c0,0,0,0,0-0.1s0,0,0-0.1
		c-0.2-1-0.7-1.9-1.4-2.6c-0.7-0.7-1.6-1.1-2.5-1.4v0.2h-0.2c0.2,0.9,0.7,1.8,1.4,2.5C160,52.3,160.9,52.7,161.9,52.9L161.9,52.9z"
		/>
	<path class="st2" d="M164,54.7C164,54.7,164,54.7,164,54.7c-0.1,0-0.1,0-0.1,0c0,0,0,0,0,0.1c0,0,0,0,0,0.1c0.2,1,0.7,1.9,1.4,2.6
		c0.7,0.7,1.6,1.1,2.5,1.4v-0.2h0.2c-0.2-0.9-0.7-1.8-1.4-2.5C165.9,55.4,165,54.9,164,54.7L164,54.7z"/>
	<path class="st2" d="M162.1,54.9C162.1,54.9,162.1,54.8,162.1,54.9c0-0.1,0-0.1,0-0.1c0,0,0,0-0.1,0c0,0,0,0-0.1,0
		c-1,0.2-1.9,0.7-2.6,1.4c-0.7,0.7-1.1,1.6-1.4,2.5h0.2v0.2c1-0.2,1.8-0.7,2.5-1.4C161.4,56.7,161.9,55.9,162.1,54.9L162.1,54.9z"/>
	<path class="st2" d="M163.9,52.8C163.8,52.8,163.8,52.8,163.9,52.8c0,0.1,0,0.1,0,0.1c0,0,0,0,0.1,0c0,0,0,0,0.1,0
		c1-0.2,1.9-0.7,2.6-1.4c0.7-0.7,1.1-1.6,1.4-2.5h-0.2v-0.2c-1,0.2-1.8,0.7-2.5,1.4C164.5,50.9,164.1,51.8,163.9,52.8L163.9,52.8z"
		/>
	<path class="st2" d="M161.6,53.7c-0.8-0.5-1.8-0.8-2.8-0.8c-1,0-2,0.3-2.8,0.8c0,0,0,0,0,0.1c0,0,0,0,0,0.1c0,0,0,0,0,0.1
		c0,0,0,0,0,0.1c0.8,0.5,1.8,0.8,2.8,0.9c1,0,2-0.3,2.8-0.9l0,0l0,0c0,0,0,0,0,0c0,0,0,0,0-0.1C161.6,53.8,161.6,53.8,161.6,53.7
		C161.6,53.7,161.6,53.7,161.6,53.7L161.6,53.7z"/>
	<path class="st2" d="M169.9,53.7c-0.8-0.5-1.8-0.8-2.8-0.8c-1,0-2,0.3-2.8,0.8c0,0,0,0,0,0.1c0,0,0,0,0,0.1c0,0,0,0,0,0.1
		c0,0,0,0,0,0.1c0.8,0.5,1.8,0.8,2.8,0.9c1,0,2-0.3,2.8-0.9l0,0l0,0c0,0,0,0,0,0c0,0,0,0,0-0.1C170,53.8,170,53.8,169.9,53.7
		C170,53.7,170,53.7,169.9,53.7L169.9,53.7z"/>
	<path class="st2" d="M163,55.1C162.9,55.1,162.9,55.1,163,55.1c-0.1,0-0.1,0-0.1,0.1C162.3,56,162,57,162,58c0,1,0.3,2,0.9,2.8
		c0,0,0,0,0,0c0,0,0,0,0.1,0c0,0,0,0,0.1,0c0,0,0,0,0.1,0l0,0c0.5-0.8,0.8-1.8,0.9-2.8c0-1-0.3-1.9-0.9-2.8
		C163.1,55.2,163.1,55.2,163,55.1C163,55.1,163,55.1,163,55.1L163,55.1z"/>
	<path class="st2" d="M163,52.5C163,52.5,163,52.5,163,52.5c0.1,0,0.1,0,0.1,0l0,0c0.5-0.8,0.8-1.8,0.9-2.8c0-1-0.3-1.9-0.9-2.8
		c0,0,0,0-0.1,0c0,0,0,0-0.1,0c0,0,0,0-0.1,0c0,0,0,0-0.1,0c-0.5,0.8-0.8,1.8-0.9,2.8c0,1,0.3,1.9,0.9,2.8
		C162.8,52.5,162.9,52.5,163,52.5C162.9,52.5,162.9,52.5,163,52.5L163,52.5z"/>
	<path class="st2" d="M154.5,36.4c-2.3-0.1-2.6,1.3-2.6,1.7c0,1.3,0.9,1.5,0.9,1.5c-0.5,0.3-2.5,0.3-2.5-1.6c0-0.2,0-0.4,0.2-0.6
		c0.1-0.2,0.3-0.3,0.5-0.4l0,0c-0.3,0.2-0.7,0.3-1.1,0.3c-0.5,0-0.9-0.2-1.2-0.6c-0.2-0.2-0.6-0.5-0.6-0.5h-1.6c0,0,3.6,4.6,6.8,4.6
		c0.5,0,1-0.2,1.4-0.4c0.4-0.3,0.7-0.7,0.9-1.2c0.2-0.5,0.1-1,0-1.5C155.3,37.1,155,36.7,154.5,36.4L154.5,36.4z"/>
	<path class="st2" d="M145.1,37.4L145.1,37.4V39v0c0,0,0.4,0.4,0.5,0.6c0.3,0.3,0.5,0.8,0.6,1.2c0,0.4-0.1,0.8-0.3,1.1l0,0
		c0.1-0.2,0.3-0.4,0.5-0.5c0.2-0.1,0.4-0.2,0.6-0.2c1.9,0,1.9,1.9,1.6,2.5c0,0-0.2-0.9-1.5-0.9c-0.4,0-1.8,0.3-1.7,2.6
		c0.3,0.4,0.7,0.7,1.2,0.9c0.5,0.2,1,0.2,1.5,0c0.5-0.1,0.9-0.4,1.2-0.8c0.3-0.4,0.5-0.9,0.5-1.4C149.7,41,145.1,37.4,145.1,37.4z"
		/>
	<path class="st2" d="M179.4,36.1h-1.6c0,0-0.4,0.4-0.6,0.5c-0.3,0.3-0.8,0.5-1.2,0.6c-0.4,0-0.8-0.1-1.1-0.3l0,0
		c0.2,0.1,0.4,0.3,0.5,0.4c0.1,0.2,0.2,0.4,0.2,0.6c0,1.9-2,1.9-2.5,1.6c0,0,0.9-0.2,0.9-1.5c0-0.4-0.3-1.8-2.6-1.7
		c-0.4,0.3-0.7,0.7-0.9,1.2c-0.2,0.5-0.2,1,0,1.5s0.4,0.9,0.9,1.2c0.4,0.3,0.9,0.5,1.4,0.4C175.8,40.7,179.4,36.1,179.4,36.1z"/>
	<path class="st2" d="M180.7,37.4c0,0-4.6,3.6-4.6,6.8c0,0.5,0.2,1,0.5,1.4c0.3,0.4,0.7,0.7,1.2,0.8c0.5,0.1,1,0.1,1.5,0
		c0.5-0.2,0.9-0.5,1.2-0.9c0.1-2.3-1.3-2.6-1.7-2.6c-1.3,0-1.5,0.9-1.5,0.9c-0.3-0.5-0.3-2.5,1.6-2.5c0.2,0,0.4,0,0.6,0.2
		c0.2,0.1,0.4,0.3,0.5,0.5l0,0c-0.2-0.3-0.3-0.7-0.3-1.1c0-0.5,0.2-0.9,0.6-1.2c0.2-0.2,0.5-0.6,0.5-0.6l0,0L180.7,37.4L180.7,37.4z
		"/>
	<path class="st2" d="M172.6,67.1c-0.5,0-1,0.2-1.4,0.4c-0.4,0.3-0.7,0.7-0.9,1.2c-0.1,0.5-0.1,1,0,1.5c0.2,0.5,0.5,0.9,0.9,1.2
		c2.3,0.1,2.6-1.3,2.6-1.7c0-1.3-0.9-1.5-0.9-1.5c0.5-0.3,2.5-0.3,2.5,1.6c0,0.2,0,0.4-0.2,0.6c-0.1,0.2-0.3,0.3-0.5,0.4l0,0
		c0.3-0.2,0.7-0.3,1.1-0.3c0.5,0,0.9,0.2,1.2,0.6c0.2,0.2,0.6,0.5,0.6,0.5h1.6C179.4,71.7,175.8,67.1,172.6,67.1z"/>
	<path class="st2" d="M180.2,68.2c-0.3-0.3-0.5-0.8-0.6-1.2c0-0.4,0.1-0.8,0.3-1.1l0,0c-0.1,0.2-0.3,0.4-0.5,0.5
		c-0.2,0.1-0.4,0.2-0.6,0.2c-1.9,0-1.9-1.9-1.6-2.5c0,0,0.2,0.9,1.5,0.9c0.4,0,1.8-0.3,1.7-2.6c-0.3-0.4-0.7-0.7-1.2-0.9
		c-0.5-0.2-1-0.2-1.5,0c-0.5,0.1-0.9,0.4-1.2,0.8c-0.3,0.4-0.5,0.9-0.5,1.4c0,3.2,4.6,6.8,4.6,6.8h0v-1.6h0
		C180.7,68.8,180.4,68.5,180.2,68.2z"/>
	<path class="st2" d="M149.9,70.7c0.4,0,0.8,0.1,1.1,0.3l0,0c-0.2-0.1-0.4-0.3-0.5-0.4c-0.1-0.2-0.2-0.4-0.2-0.6
		c0-1.9,2-1.9,2.5-1.6c0,0-0.9,0.2-0.9,1.5c0,0.4,0.3,1.8,2.6,1.7c0.4-0.3,0.7-0.7,0.9-1.2s0.2-1,0-1.5c-0.1-0.5-0.4-0.9-0.9-1.2
		c-0.4-0.3-0.9-0.5-1.4-0.4c-3.2,0-6.8,4.6-6.8,4.6h1.6c0,0,0.4-0.4,0.6-0.5C149,70.9,149.4,70.7,149.9,70.7z"/>
	<path class="st2" d="M149.7,63.7c0-0.5-0.2-1-0.5-1.4c-0.3-0.4-0.7-0.7-1.2-0.8c-0.5-0.1-1-0.1-1.5,0c-0.5,0.2-0.9,0.5-1.2,0.9
		c-0.1,2.3,1.3,2.6,1.7,2.6c1.3,0,1.5-0.9,1.5-0.9c0.3,0.5,0.3,2.5-1.6,2.5c-0.2,0-0.4,0-0.6-0.2c-0.2-0.1-0.3-0.3-0.5-0.5l0,0
		c0.2,0.3,0.3,0.7,0.3,1.1c0,0.5-0.2,0.9-0.6,1.2c-0.2,0.2-0.5,0.6-0.5,0.6l0,0v1.6l0,0C145.1,70.5,149.7,66.9,149.7,63.7z"/>
	<path class="st2" d="M158.1,48.8C158.1,48.8,158.1,48.8,158.1,48.8c-0.1,0-0.1,0-0.1,0c0,0,0,0-0.1,0c0,0,0,0,0,0.1c0,0,0,0,0,0.1
		c0,0,0,0,0,0h0.2V48.8z"/>
	<path class="st2" d="M168.6,40.9l0-4.8h-11.3v4.8l-7.4,7.3h-4.8v0.8V53l0,0v1.7v0v3.9v0.8h4.8l7.4,7.3v5h11.3v-5l7.4-7.3h4.7V48.2
		H176L168.6,40.9z M175.2,58.6H168c0,0,0,0,0,0c0,0,0,0,0,0.1c0,0,0,0,0,0.1c0,0,0,0-0.1,0c0,0,0,0-0.1,0c0,0,0,0,0,0v7.1l-4.8,4.8
		l-4.8-4.8v-7.1c0,0,0,0,0,0c0,0,0,0-0.1,0c0,0,0,0-0.1,0c0,0,0,0,0-0.1c0,0,0,0,0-0.1c0,0,0,0,0,0h-7.2l-4.8-4.8l4.8-4.8h7.2
		c0,0,0,0,0,0c0,0,0,0,0-0.1c0,0,0,0,0-0.1c0,0,0,0,0.1,0c0,0,0,0,0.1,0c0,0,0,0,0,0v-7.1L163,37l4.8,4.8v7.1c0,0,0,0,0,0
		c0,0,0.1,0,0.1,0c0,0,0,0,0.1,0c0,0,0,0,0,0.1c0,0,0,0,0,0.1c0,0,0,0,0,0h7.2l4.8,4.8L175.2,58.6z"/>
	<path class="st2" d="M167.8,58.8C167.8,58.8,167.8,58.8,167.8,58.8c0.1,0,0.1,0,0.1,0c0,0,0,0,0.1,0c0,0,0,0,0-0.1c0,0,0,0,0-0.1
		c0,0,0,0,0,0h-0.2V58.8z"/>
	<path class="st2" d="M157.9,58.6C157.9,58.6,157.9,58.6,157.9,58.6c0,0.1,0,0.1,0,0.1c0,0,0,0,0,0.1c0,0,0,0,0.1,0c0,0,0,0,0.1,0
		c0,0,0,0,0,0v-0.2H157.9z"/>
	<path class="st2" d="M168,49.1C168,49,168,49,168,49.1c0-0.1,0-0.1,0-0.1c0,0,0,0,0-0.1c0,0,0,0-0.1,0c0,0,0,0-0.1,0c0,0,0,0,0,0
		v0.2H168z"/>
	<path class="st2" d="M16.5,56.5c-3.2,0.6-6.2,2.1-8.5,4.4c-2.3,2.3-3.8,5.3-4.4,8.5c3.2-0.6,6.2-2.1,8.5-4.4
		C14.4,62.7,15.9,59.7,16.5,56.5L16.5,56.5z"/>
	<path class="st2" d="M0,53.8v18.2c1.9-2.7,2.9-5.8,2.9-9.1S1.9,56.5,0,53.8L0,53.8z"/>
	<path class="st2" d="M0.9,73h18.2c-2.7-1.9-5.8-2.9-9.1-2.9C6.8,70.1,3.6,71.1,0.9,73L0.9,73z"/>
	<path class="st2" d="M56.5,56.5c0.6,3.2,2.1,6.2,4.4,8.5c2.3,2.3,5.3,3.8,8.5,4.4c-0.6-3.2-2.1-6.2-4.4-8.5
		C62.7,58.6,59.7,57.1,56.5,56.5L56.5,56.5z"/>
	<path class="st2" d="M73,72.1V53.8l0,0L73,72.1L73,72.1z"/>
	<path class="st2" d="M73,72.1V53.9c-1.9,2.7-2.9,5.8-2.9,9.1S71.1,69.4,73,72.1z"/>
	<path class="st2" d="M53.8,73h18.2c-2.7-1.9-5.8-2.9-9.1-2.9C59.7,70.1,56.5,71.1,53.8,73z"/>
	<path class="st2" d="M69.4,3.6c-3.2,0.6-6.2,2.1-8.5,4.4c-2.3,2.3-3.8,5.3-4.4,8.5c3.2-0.6,6.2-2.1,8.5-4.4
		C67.3,9.8,68.8,6.8,69.4,3.6L69.4,3.6z"/>
	<path class="st2" d="M73,19.2L73,19.2l0-18.2l0,0V19.2z"/>
	<path class="st2" d="M70.1,10c0.1,3.2,1.1,6.4,2.9,9.1V1C71.2,3.7,70.2,6.8,70.1,10L70.1,10z"/>
	<path class="st2" d="M72.1,0H53.8c2.7,1.9,5.8,2.9,9.1,2.9C66.2,2.9,69.4,1.9,72.1,0z"/>
	<path class="st2" d="M16.5,16.5c-0.6-3.2-2.1-6.2-4.4-8.5C9.8,5.7,6.8,4.2,3.6,3.6C4.2,6.8,5.7,9.8,8,12.1
		C10.3,14.4,13.3,15.9,16.5,16.5L16.5,16.5z"/>
	<path class="st2" d="M0,0.9v18.2c1.9-2.7,2.9-5.8,2.9-9.1S1.9,3.6,0,0.9L0,0.9z"/>
	<path class="st2" d="M19.2,0H0.9c2.7,1.9,5.8,2.9,9.1,2.9C13.3,2.9,16.5,1.9,19.2,0z"/>
	<path class="st2" d="M36.5,31.8c0,0,11.8-9.2,11.8-17.3c0-1.3-0.4-2.5-1.2-3.6S45.3,9.2,44,8.8c-1.2-0.4-2.5-0.3-3.7,0.1
		c-1.2,0.4-2.2,1.2-3,2.3c-0.3,5.9,3.2,6.6,4.2,6.6c3.2,0,3.8-2.3,3.8-2.3c0.7,1.3,0.7,6.3-4.2,6.3c-0.6,0-1.1-0.1-1.6-0.4
		c-0.5-0.3-0.9-0.7-1.1-1.2l0,0c0.5,0.9,0.8,1.8,0.8,2.8c-0.1,1.2-0.6,2.3-1.4,3.1c-0.4,0.6-1.3,1.6-1.3,1.6s-0.9-1-1.3-1.6
		c-0.8-0.9-1.3-1.9-1.4-3.1c0.1-1,0.3-1.9,0.8-2.8l0,0c-0.3,0.5-0.7,0.9-1.1,1.2c-0.5,0.3-1,0.4-1.6,0.4c-4.9,0-4.9-5-4.2-6.3
		c0,0,0.6,2.3,3.8,2.3c1,0,4.5-0.7,4.2-6.6c-0.7-1.1-1.8-1.9-3-2.3c-1.2-0.4-2.5-0.5-3.7-0.1c-1.2,0.4-2.3,1.1-3.1,2.2
		c-0.8,1-1.2,2.3-1.2,3.6C24.7,22.6,36.5,31.8,36.5,31.8z"/>
	<path class="st2" d="M36.5,41.2c0,0-11.8,9.2-11.8,17.3c0,1.3,0.4,2.5,1.2,3.6c0.8,1,1.8,1.8,3.1,2.2c1.2,0.4,2.5,0.3,3.7-0.1
		s2.2-1.2,3-2.3c0.3-5.9-3.2-6.6-4.2-6.6c-3.2,0-3.8,2.3-3.8,2.3c-0.7-1.3-0.7-6.3,4.2-6.3c0.6,0,1.1,0.1,1.6,0.4
		c0.5,0.3,0.9,0.7,1.1,1.2l0,0c-0.5-0.9-0.7-1.8-0.8-2.8c0.1-1.2,0.6-2.3,1.4-3.1c0.4-0.6,1.3-1.6,1.3-1.6s0.9,1,1.3,1.6
		c0.8,0.8,1.3,1.9,1.4,3.1c-0.1,1-0.3,1.9-0.8,2.8l0,0c0.3-0.5,0.7-0.9,1.1-1.2c0.5-0.3,1-0.4,1.6-0.4c4.9,0,4.9,5,4.2,6.3
		c0,0-0.6-2.3-3.8-2.3c-1,0-4.5,0.7-4.2,6.6c0.7,1.1,1.8,1.9,3,2.3c1.2,0.4,2.5,0.5,3.7,0.1c1.2-0.4,2.3-1.1,3.1-2.2
		c0.8-1,1.2-2.3,1.2-3.6C48.3,50.4,36.5,41.2,36.5,41.2z"/>
	<path class="st2" d="M31.8,36.5c0,0-9.2-11.8-17.3-11.8c-1.3,0-2.5,0.4-3.6,1.2c-1,0.8-1.8,1.8-2.2,3.1c-0.4,1.2-0.4,2.5,0.1,3.7
		c0.4,1.2,1.2,2.3,2.3,3c5.9,0.3,6.6-3.2,6.6-4.2c0-3.2-2.3-3.8-2.3-3.8c1.3-0.7,6.3-0.7,6.3,4.2c0,0.6-0.1,1.1-0.4,1.6
		c-0.3,0.5-0.7,0.9-1.2,1.1l0,0c0.9-0.5,1.8-0.7,2.8-0.8c1.2,0.1,2.3,0.6,3.1,1.4c0.6,0.4,1.6,1.3,1.6,1.3s-1,0.9-1.6,1.3
		c-0.9,0.8-1.9,1.3-3.1,1.4c-1-0.1-1.9-0.3-2.8-0.8l0,0c0.5,0.3,0.9,0.7,1.2,1.1c0.3,0.5,0.4,1,0.4,1.6c0,4.9-5,4.9-6.3,4.2
		c0,0,2.3-0.6,2.3-3.8c0-1-0.7-4.5-6.6-4.2c-1.1,0.7-1.9,1.8-2.3,3c-0.4,1.2-0.5,2.5-0.1,3.7c0.4,1.2,1.1,2.3,2.2,3.1
		c1,0.8,2.3,1.2,3.6,1.2C22.6,48.3,31.8,36.5,31.8,36.5z"/>
	<path class="st2" d="M41.2,36.5c0,0,9.2,11.8,17.3,11.8c1.3,0,2.5-0.4,3.6-1.2c1-0.8,1.8-1.8,2.2-3.1c0.4-1.2,0.4-2.5-0.1-3.7
		c-0.4-1.2-1.2-2.3-2.3-3c-5.9-0.3-6.6,3.2-6.6,4.2c0,3.2,2.3,3.8,2.3,3.8c-1.3,0.7-6.3,0.7-6.3-4.2c0-0.6,0.1-1.1,0.4-1.6
		c0.3-0.5,0.7-0.9,1.2-1.1l0,0c-0.9,0.5-1.8,0.8-2.8,0.8c-1.2-0.1-2.3-0.6-3.1-1.4c-0.6-0.4-1.6-1.3-1.6-1.3s1-0.9,1.6-1.3
		c0.9-0.8,1.9-1.3,3.1-1.4c1,0.1,1.9,0.3,2.8,0.8l0,0c-0.5-0.3-0.9-0.7-1.2-1.1c-0.3-0.5-0.4-1-0.4-1.6c0-4.9,5-4.9,6.3-4.2
		c0,0-2.3,0.6-2.3,3.8c0,1,0.7,4.5,6.6,4.2c1.1-0.7,1.9-1.8,2.3-3c0.4-1.2,0.5-2.5,0.1-3.7c-0.4-1.2-1.1-2.3-2.2-3.1
		c-1-0.8-2.3-1.2-3.6-1.2C50.4,24.7,41.2,36.5,41.2,36.5z"/>
	<path class="st2" d="M23.4,25.1c0.5,0.5,2.3,0.6,2.3,0.6s-0.1-1.8-0.6-2.3c-0.2-0.2-0.4-0.3-0.7-0.3c-0.3,0-0.5,0-0.8,0.1l0.4,0.9
		l-0.9-0.4C23,23.9,23,24.1,23,24.4C23.1,24.6,23.2,24.9,23.4,25.1z"/>
	<path class="st2" d="M58.1,53.1c1.9,0,3.8-0.5,5.5-1.5c1.7-1,3.1-2.4,4-4.1c1-1.7,1.4-3.6,1.4-5.5c0-1.9-0.6-3.8-1.6-5.5
		c1-1.7,1.6-3.6,1.6-5.5c0-1.9-0.4-3.9-1.4-5.6c-1-1.7-2.3-3.1-4-4.1c-1.7-1-3.6-1.5-5.5-1.5c-2.2,0-4.5,0.5-6.5,1.5
		c0.9-2,1.4-4.3,1.5-6.5c0-1.9-0.5-3.8-1.5-5.5c-1-1.7-2.4-3.1-4.1-4c-1.7-1-3.6-1.4-5.5-1.4c-1.9,0-3.8,0.6-5.5,1.6
		c-1.7-1-3.6-1.6-5.5-1.6c-1.9,0-3.9,0.4-5.5,1.4c-1.7,1-3.1,2.3-4.1,4s-1.5,3.6-1.5,5.5c0,2.2,0.5,4.5,1.5,6.5
		c-2-0.9-4.3-1.4-6.5-1.5c-1.9,0-3.8,0.5-5.5,1.5c-1.7,1-3.1,2.4-4,4.1S3.9,29.1,3.9,31c0,1.9,0.6,3.8,1.6,5.5
		c-1,1.7-1.6,3.6-1.6,5.5c0,1.9,0.4,3.9,1.4,5.5c1,1.7,2.3,3.1,4,4.1c1.7,1,3.6,1.5,5.5,1.5c2.2,0,4.5-0.5,6.5-1.5
		c-0.9,2-1.4,4.3-1.5,6.5c0,1.9,0.5,3.8,1.5,5.5c1,1.7,2.4,3.1,4.1,4c1.7,1,3.6,1.4,5.6,1.4c1.9,0,3.8-0.6,5.5-1.6
		c1.7,1,3.6,1.6,5.5,1.6c1.9,0,3.9-0.4,5.5-1.4c1.7-1,3.1-2.3,4.1-4c1-1.7,1.5-3.6,1.5-5.5c0-2.2-0.5-4.5-1.5-6.5
		C53.7,52.6,55.9,53.1,58.1,53.1L58.1,53.1z M51.8,58.1c0,1.7-0.5,3.4-1.3,4.9c-0.9,1.5-2.1,2.7-3.7,3.5c-1.5,0.8-3.2,1.2-4.9,1.2
		s-3.4-0.6-4.9-1.5L36.5,66L36,66.3c-1.5,0.9-3.1,1.4-4.9,1.5c-1.7,0.1-3.4-0.4-4.9-1.2c-1.5-0.8-2.8-2.1-3.7-3.5
		c-0.9-1.5-1.3-3.2-1.3-4.9c0.1-2.3,0.6-4.6,1.7-6.6l0.8-1.7c-0.1,0-0.2-0.1-0.3-0.2c-0.1-0.1-0.1-0.2-0.2-0.3l-1.7,0.8
		c-2.1,1-4.3,1.6-6.6,1.7c-1.7,0-3.4-0.5-4.9-1.3c-1.5-0.9-2.7-2.1-3.5-3.7c-0.8-1.5-1.2-3.2-1.2-4.9c0.1-1.7,0.6-3.4,1.5-4.9
		L7,36.5L6.7,36c-0.9-1.5-1.4-3.1-1.5-4.9c-0.1-1.7,0.4-3.4,1.2-4.9c0.8-1.5,2.1-2.8,3.5-3.6c1.5-0.9,3.2-1.3,4.9-1.3
		c2.3,0.1,4.6,0.6,6.6,1.7l1.7,0.8c0-0.1,0.1-0.2,0.2-0.3c0.1-0.1,0.2-0.1,0.3-0.2l-0.8-1.7c-1-2.1-1.6-4.3-1.7-6.6
		c0-1.7,0.5-3.4,1.3-4.9c0.9-1.5,2.1-2.7,3.7-3.5c1.5-0.8,3.2-1.2,4.9-1.2c1.7,0.1,3.4,0.6,4.9,1.5L36.5,7L37,6.7
		c1.5-0.9,3.1-1.4,4.9-1.5c1.7-0.1,3.4,0.4,4.9,1.2c1.5,0.8,2.8,2.1,3.6,3.5c0.9,1.5,1.3,3.2,1.3,4.9c-0.1,2.3-0.6,4.6-1.7,6.6
		l-0.8,1.7c0.1,0,0.2,0.1,0.3,0.2c0.1,0.1,0.1,0.2,0.2,0.3l1.7-0.8c2.1-1,4.3-1.6,6.6-1.7c1.7,0,3.4,0.5,4.9,1.3
		c1.5,0.9,2.7,2.1,3.5,3.6c0.8,1.5,1.2,3.2,1.2,4.9c-0.1,1.7-0.6,3.4-1.5,4.9L66,36.5l0.3,0.5c0.9,1.5,1.4,3.1,1.5,4.9
		c0.1,1.7-0.4,3.4-1.2,4.9c-0.8,1.5-2.1,2.8-3.5,3.6c-1.5,0.9-3.2,1.3-4.9,1.3c-2.3-0.1-4.6-0.6-6.6-1.7l-1.7-0.8
		c0,0.1-0.1,0.2-0.2,0.3c-0.1,0.1-0.2,0.1-0.3,0.2l0.8,1.7C51.2,53.6,51.8,55.8,51.8,58.1L51.8,58.1z"/>
	<path class="st2" d="M23.6,23.2c-0.1,0-0.2,0.1-0.3,0.2c-0.1,0.1-0.1,0.2-0.2,0.3l0.9,0.4L23.6,23.2z"/>
	<path class="st2" d="M49.6,47.9c-0.5-0.5-2.3-0.6-2.3-0.6s0.1,1.8,0.6,2.3c0.2,0.2,0.4,0.3,0.7,0.3c0.3,0,0.5,0,0.8-0.1l-0.4-0.9
		l0.9,0.4c0.1-0.2,0.2-0.5,0.1-0.8C49.9,48.4,49.8,48.1,49.6,47.9L49.6,47.9z"/>
	<path class="st2" d="M49.4,49.8c0.1,0,0.2-0.1,0.3-0.2c0.1-0.1,0.1-0.2,0.2-0.3l-0.9-0.4L49.4,49.8z"/>
	<path class="st2" d="M25.1,49.6c0.5-0.5,0.6-2.3,0.6-2.3s-1.8,0.1-2.3,0.6c-0.2,0.2-0.3,0.4-0.3,0.7c0,0.3,0,0.5,0.1,0.8l0.9-0.4
		l-0.4,0.9c0.2,0.1,0.5,0.2,0.8,0.1C24.6,50,24.9,49.8,25.1,49.6L25.1,49.6z"/>
	<path class="st2" d="M23.2,49.4c0,0.1,0.1,0.2,0.2,0.3c0.1,0.1,0.2,0.1,0.3,0.2l0.4-0.9L23.2,49.4z"/>
	<path class="st2" d="M47.9,23.4c-0.5,0.5-0.6,2.3-0.6,2.3s1.8-0.1,2.3-0.6c0.2-0.2,0.3-0.4,0.3-0.7c0-0.3,0-0.5-0.1-0.8l-0.9,0.4
		l0.4-0.9C49.1,23,48.9,23,48.6,23C48.4,23,48.1,23.2,47.9,23.4L47.9,23.4z"/>
	<path class="st2" d="M49.8,23.6c0-0.1-0.1-0.2-0.2-0.3c-0.1-0.1-0.2-0.1-0.3-0.2l-0.4,0.9L49.8,23.6z"/>
	<path class="st2" d="M33,0.1L33,0.1L33,0.1l0,0.1l0,0.1l0,0.1l0,0.1l0,0.1l0,0.1l0.1,0.1l0.1,0.1l0.1,0l0.1,0l0.1,0l0,0l0,0l0,0
		c0.5,0.1,0.9,0.4,1.2,0.7c0.3,0.3,0.6,0.7,0.8,1.2v0.2L35.7,3l0,0.1l0,0l0.1,0.1l0,0l0.1,0.1l0,0l0.1,0.1l0,0l0.1,0l0,0l0.1,0
		l0.1,0l0.1,0l0.1,0l0,0l0.1,0l0.1,0l0.1,0l0,0l0.1-0.1l0,0c0.1-0.1,0.2-0.3,0.3-0.4l0-0.1c0.1-0.5,0.4-0.9,0.8-1.2
		c0.4-0.3,0.8-0.6,1.3-0.7l0.1,0l0.1,0l0,0l0.1-0.1l0,0c0.1-0.1,0.2-0.2,0.2-0.3C40,0.3,40,0.1,40,0h-1.6c-0.9,0.4-1.6,1.1-2,1.9
		c-0.4-0.8-1.1-1.5-2-1.9H33L33,0.1L33,0.1z"/>
	<path class="st2" d="M40,72.9L40,72.9L40,72.9l0-0.1l0-0.1l0-0.1l0-0.1l0-0.1l0-0.1l-0.1-0.1l-0.1-0.1l-0.1,0l-0.1,0l-0.1,0l0,0
		l0,0l0,0c-0.5-0.1-0.9-0.4-1.2-0.7c-0.3-0.3-0.6-0.7-0.8-1.2v-0.2L37.3,70l0-0.1l0,0l-0.1-0.1l0,0l-0.1-0.1l0,0l-0.1-0.1l0,0
		l-0.1,0l0,0l-0.1,0l-0.1,0l-0.1,0l-0.1,0l0,0l-0.1,0l0,0l-0.1,0l0,0l-0.1,0.1l0,0c-0.1,0.1-0.2,0.3-0.3,0.4l0,0.1
		c-0.1,0.5-0.4,0.9-0.8,1.2c-0.4,0.3-0.8,0.6-1.3,0.7l-0.1,0l-0.1,0l0,0l-0.1,0.1l0,0c-0.1,0.1-0.2,0.2-0.2,0.3
		C33,72.7,33,72.9,33,73h1.6c0.9-0.4,1.6-1.1,2-1.9c0.4,0.8,1.1,1.5,2,1.9H40L40,72.9L40,72.9z"/>
	<path class="st2" d="M0.1,40L0.1,40L0.1,40l0.1,0l0.1,0l0.1,0l0.1,0l0.1,0l0.1,0l0.1-0.1l0.1-0.1l0-0.1l0-0.1l0-0.1l0,0l0,0l0,0
		c0.1-0.5,0.4-0.9,0.7-1.2c0.3-0.3,0.7-0.6,1.2-0.8h0.2L3,37.3l0.1,0l0,0l0.1-0.1l0,0l0.1-0.1l0,0l0.1-0.1l0,0l0-0.1l0,0l0-0.1
		l0-0.1l0-0.1l0-0.1l0,0l0-0.1l0-0.1l0-0.1l0,0l-0.1-0.1l0,0c-0.1-0.1-0.3-0.2-0.4-0.3l-0.1,0c-0.5-0.1-0.9-0.4-1.2-0.8
		c-0.3-0.4-0.6-0.8-0.7-1.3l0-0.1l0-0.1l0,0l-0.1-0.1l0,0c-0.1-0.1-0.2-0.2-0.3-0.2C0.3,33,0.1,33,0,33v1.6c0.5,0,1,0.2,1.4,0.6
		c0.4,0.4,0.6,0.9,0.6,1.4s-0.2,1-0.6,1.4C1,38.2,0.5,38.5,0,38.5v1.6L0.1,40L0.1,40z"/>
	<path class="st2" d="M73,40.1v-1.6l0,0L73,40.1L73,40.1z"/>
	<path class="st2" d="M73,34.5V33h0L73,34.5L73,34.5z"/>
	<path class="st2" d="M72.9,33L72.9,33L72.9,33l-0.1,0l-0.1,0l-0.1,0l-0.1,0l-0.1,0l-0.1,0l-0.1,0.1l-0.1,0.1l0,0.1l0,0.1l0,0.1l0,0
		l0,0l0,0c-0.1,0.5-0.4,0.9-0.7,1.2c-0.3,0.3-0.7,0.6-1.2,0.8h-0.2L70,35.7l-0.1,0l0,0l-0.1,0.1l0,0l-0.1,0.1l0,0l-0.1,0.1l0,0
		l0,0.1l0,0l0,0.1l0,0.1l0,0.1l0,0.1l0,0l0,0.1l0,0.1l0,0.1l0,0l0.1,0.1l0,0c0.1,0.1,0.3,0.2,0.4,0.3l0.1,0c0.5,0.1,0.9,0.4,1.2,0.8
		c0.3,0.4,0.6,0.8,0.7,1.3l0,0.1l0,0.1l0,0l0.1,0.1l0,0c0.1,0.1,0.2,0.2,0.3,0.2C72.7,40,72.9,40,73,40v-1.6c-0.5,0-1-0.2-1.4-0.6
		s-0.6-0.9-0.6-1.4s0.2-1,0.6-1.4c0.4-0.4,0.8-0.6,1.4-0.6V33L72.9,33L72.9,33z"/>
</g>
</svg>
