<?xml version="1.0" encoding="utf-8"?>
<!-- Generator: Adobe Illustrator 22.1.0, SVG Export Plug-In . SVG Version: 6.00 Build 0)  -->
<svg version="1.1" id="Слой_1" xmlns="http://www.w3.org/2000/svg" xmlns:xlink="http://www.w3.org/1999/xlink" x="0px" y="0px"
	 viewBox="0 0 365 437" style="enable-background:new 0 0 365 437;" xml:space="preserve">
<style type="text/css">
	.st0{fill:#FDD84A;}
	.st1{fill:#E7533B;}
	.st2{fill:#2C3B8C;}
	.st3{fill:#6678D6;}
</style>
<path class="st0" d="M253.1,38.9c1.7,0,3.5,0.1,5.2,0.4c-0.7-4.9-0.4-9.8,0.9-14.5c1.3-4.7,3.7-9.1,6.9-12.8
	c3.2-3.7,7.2-6.7,11.6-8.8C282.2,1.1,287.1,0,292,0h-31.3c0,1-0.2,2.1-0.6,3s-1,1.8-1.7,2.6c-0.7,0.7-1.6,1.3-2.6,1.7
	c-1,0.4-2,0.6-3,0.6c-4.4,0-26.5-3.5-26.5-7.9H219v73c0-9,3.6-17.7,10-24.1C235.4,42.5,244.1,38.9,253.1,38.9z M247.8,25.3
	c0.3,0.3,0.6,0.8,0.7,1.3c0.1,0.5,0,1-0.2,1.4c-0.2,0.5-0.5,0.8-0.9,1.1c-0.4,0.3-0.9,0.4-1.4,0.4c-0.5,0-1-0.1-1.4-0.4
	c-0.4-0.3-0.7-0.7-0.9-1.1c-0.2-0.5-0.2-1-0.2-1.4c0.1-0.5,0.3-0.9,0.7-1.3c0.5-0.5,1.1-0.7,1.8-0.7
	C246.8,24.6,247.4,24.9,247.8,25.3z M219,0h3.5c0,0.5-0.1,0.9-0.3,1.3c-0.2,0.4-0.4,0.8-0.8,1.1c-0.3,0.3-0.7,0.6-1.1,0.8
	c-0.4,0.2-0.9,0.3-1.3,0.3V0z M219,41.6V7.2c4.4,0,7.9,22.1,7.9,26.5c0,1-0.2,2.1-0.6,3c-0.4,1-1,1.8-1.7,2.6
	c-0.7,0.7-1.6,1.3-2.6,1.7C221.1,41.4,220,41.6,219,41.6z M227.5,8.5c1.6-1.6,13.3,6.3,15.3,8.2c0.5,0.5,0.8,1,1.1,1.6
	s0.4,1.3,0.4,1.9c0,0.7-0.1,1.3-0.4,1.9c-0.3,0.6-0.6,1.2-1.1,1.6c-0.5,0.5-1,0.8-1.6,1.1c-0.6,0.2-1.3,0.4-1.9,0.4
	c-0.7,0-1.3-0.1-1.9-0.4c-0.6-0.3-1.2-0.6-1.6-1.1C233.8,21.9,225.9,10.1,227.5,8.5z"/>
<path class="st0" d="M253,101.1c2.8,0,5.6-0.4,8.3-1.3l1.2-0.4c0.1-0.4,0.3-0.8,0.6-1.1c0.2-0.2,0.5-0.4,0.8-0.5
	c0.3-0.1,0.6-0.2,1-0.2c0.3,0,0.6,0.1,0.9,0.2c0.3,0.1,0.6,0.3,0.8,0.5c0.2,0.2,0.4,0.5,0.5,0.8c0.1,0.3,0.2,0.6,0.2,1
	c0,0.3-0.1,0.7-0.2,1c-0.1,0.3-0.3,0.6-0.5,0.8c-0.3,0.3-0.7,0.5-1.1,0.6l-0.4,1.2c-1.3,4.2-1.6,8.6-0.9,13c0.7,4.3,2.5,8.4,5.1,12
	c2.6,3.5,6,6.4,9.9,8.4c3.9,2,8.3,3,12.7,3c4.4,0,8.7-1,12.7-3c3.9-2,7.3-4.9,9.9-8.4c2.6-3.5,4.3-7.6,5.1-12
	c0.7-4.3,0.4-8.8-0.9-13l-0.4-1.2c-0.4-0.1-0.8-0.3-1.1-0.6c-0.2-0.2-0.4-0.5-0.5-0.8c-0.1-0.3-0.2-0.6-0.2-1s0.1-0.7,0.2-1
	c0.1-0.3,0.3-0.6,0.5-0.8c0.2-0.2,0.5-0.4,0.8-0.5c0.3-0.1,0.6-0.2,1-0.2c0.3,0,0.7,0.1,1,0.2c0.3,0.1,0.6,0.3,0.8,0.5
	c0.3,0.3,0.5,0.7,0.6,1.1l1.2,0.4c4.2,1.3,8.6,1.6,13,0.9c4.3-0.7,8.4-2.5,12-5.1c3.5-2.6,6.4-6,8.4-9.9c2-3.9,3-8.3,3-12.7
	c0-4.4-1-8.7-3-12.7c-2-3.9-4.8-7.3-8.4-9.9c-3.5-2.6-7.6-4.3-12-5.1c-4.3-0.7-8.8-0.4-13,0.9l-1.2,0.4c-0.1,0.4-0.3,0.8-0.6,1.1
	c-0.2,0.2-0.5,0.4-0.8,0.5c-0.3,0.1-0.6,0.2-1,0.2c-0.3,0-0.6-0.1-1-0.2c-0.3-0.1-0.6-0.3-0.8-0.5c-0.2-0.2-0.4-0.5-0.5-0.8
	c-0.1-0.3-0.2-0.6-0.2-1c0-0.3,0.1-0.7,0.2-1c0.1-0.3,0.3-0.6,0.5-0.8c0.3-0.3,0.7-0.5,1.1-0.6l0.4-1.2c1.3-4.2,1.6-8.6,0.9-13
	c-0.7-4.3-2.5-8.4-5.1-12c-2.6-3.5-6-6.4-9.9-8.4c-3.9-2-8.3-3-12.7-3c-4.4,0-8.7,1-12.7,3c-3.9,2-7.3,4.9-9.9,8.4s-4.3,7.6-5.1,12
	c-0.7,4.3-0.4,8.8,0.9,13l0.4,1.2c0.4,0.1,0.8,0.3,1.1,0.6c0.5,0.5,0.7,1.1,0.7,1.8c0,0.7-0.3,1.3-0.7,1.8c-0.5,0.5-1.1,0.7-1.8,0.7
	c-0.7,0-1.3-0.3-1.8-0.7c-0.3-0.3-0.5-0.7-0.6-1.1l-1.2-0.4c-3.9-1.2-7.9-1.6-11.9-1c-4,0.5-7.8,1.9-11.3,4c-3.4,2.1-6.3,5-8.6,8.4
	c-2.2,3.4-3.7,7.2-4.3,11.2c-0.6,4-0.3,8.1,0.8,12c1.1,3.9,3.1,7.5,5.7,10.5c2.6,3.1,5.9,5.5,9.6,7.2C245,100.2,249,101.1,253,101.1
	L253,101.1z M275.2,96.8c-0.9,0.9-2.2,1.5-3.5,1.4c-1.3,0-2.6-0.5-3.5-1.5c-0.9-0.9-1.5-2.2-1.5-3.5s0.5-2.6,1.4-3.5
	c1.9-1.9,13.7-9.8,15.3-8.3C285.1,83.1,277.2,94.9,275.2,96.8z M292,114.6c-2.1,0-4.1-0.8-5.6-2.3c-1.5-1.5-2.3-3.5-2.3-5.6
	c0-4.4,3.5-26.5,7.9-26.5s7.9,22.1,7.9,26.5c0,1-0.2,2.1-0.6,3c-0.4,1-1,1.8-1.7,2.6c-0.7,0.7-1.6,1.3-2.6,1.7S293,114.6,292,114.6
	L292,114.6z M288.5,73c0-0.7,0.2-1.4,0.6-2c0.4-0.6,0.9-1,1.6-1.3s1.3-0.3,2-0.2c0.7,0.1,1.3,0.5,1.8,1c0.5,0.5,0.8,1.1,1,1.8
	c0.1,0.7,0.1,1.4-0.2,2c-0.3,0.6-0.7,1.2-1.3,1.6c-0.6,0.4-1.3,0.6-1.9,0.6c-0.5,0-0.9-0.1-1.3-0.3c-0.4-0.2-0.8-0.4-1.1-0.8
	c-0.3-0.3-0.6-0.7-0.8-1.1C288.6,73.9,288.5,73.5,288.5,73z M315.8,96.8c-0.9,0.9-2.2,1.5-3.5,1.5c-1.3,0-2.6-0.5-3.5-1.5
	c-1.9-1.9-9.8-13.7-8.2-15.3c1.6-1.6,13.3,6.3,15.3,8.3c0.5,0.5,0.8,1,1.1,1.6c0.3,0.6,0.4,1.2,0.4,1.9c0,0.7-0.1,1.3-0.4,1.9
	C316.6,95.8,316.3,96.3,315.8,96.8z M325.7,65.1c2.1,0,4.1,0.8,5.6,2.3c1.5,1.5,2.3,3.5,2.3,5.6c0,2.1-0.8,4.1-2.3,5.6
	c-1.5,1.5-3.5,2.3-5.6,2.3c-4.4,0-26.5-3.5-26.5-7.9C299.2,68.6,321.4,65.1,325.7,65.1L325.7,65.1z M308.8,49.2
	c0.9-0.9,2.2-1.5,3.5-1.5c1.3,0,2.6,0.5,3.5,1.5c0.9,0.9,1.4,2.2,1.4,3.5c0,1.3-0.5,2.6-1.4,3.5c-1.9,1.9-13.7,9.8-15.3,8.2
	C298.9,62.9,306.8,51.1,308.8,49.2L308.8,49.2z M292,31.4c2.1,0,4.1,0.8,5.6,2.3c1.5,1.5,2.3,3.5,2.3,5.6c0,4.4-3.5,26.5-7.9,26.5
	s-7.9-22.1-7.9-26.5c0-2.1,0.8-4.1,2.3-5.6C287.9,32.2,289.9,31.4,292,31.4z M268.2,49.2c0.9-0.9,2.2-1.5,3.5-1.5
	c1.3,0,2.6,0.5,3.5,1.5c1.9,1.9,9.8,13.7,8.3,15.3c-1.6,1.6-13.3-6.3-15.3-8.2c-0.9-0.9-1.4-2.2-1.4-3.5
	C266.8,51.4,267.3,50.1,268.2,49.2z M258.3,65.1c4.4,0,26.5,3.5,26.5,7.9c0,4.4-22.1,7.9-26.5,7.9c-2.1,0-4.1-0.8-5.6-2.3
	c-1.5-1.5-2.3-3.5-2.3-5.6c0-2.1,0.8-4.1,2.3-5.6C254.2,65.9,256.2,65.1,258.3,65.1z"/>
<path class="st0" d="M365,3.5c-0.9,0-1.8-0.4-2.5-1s-1-1.6-1-2.5h-3.7c0,4.4-22.1,7.9-26.5,7.9c-1,0-2.1-0.2-3-0.6
	c-1-0.4-1.8-1-2.6-1.7C324.9,4.9,324.4,4,324,3c-0.4-1-0.6-2-0.6-3H292c4.9,0,9.8,1.1,14.2,3.1c4.5,2.1,8.4,5.1,11.6,8.8
	c3.2,3.7,5.5,8.1,6.9,12.8c1.3,4.7,1.7,9.7,0.9,14.5c1.7-0.3,3.5-0.4,5.2-0.4c4.7,0,9.3,1,13.6,2.9c4.3,1.9,8.2,4.6,11.4,8.1
	c3.2,3.4,5.6,7.5,7.2,11.9c1.5,4.4,2.2,9.1,1.8,13.8s-1.7,9.2-3.9,13.4c-2.2,4.1-5.2,7.8-8.9,10.7c-3.7,2.9-7.9,5-12.5,6.3
	s-9.3,1.5-13.9,0.7c0.8,4.9,0.4,9.8-0.9,14.5c-1.4,4.7-3.7,9.1-6.9,12.8c-3.2,3.7-7.2,6.7-11.6,8.8c-4.5,2.1-9.3,3.1-14.2,3.1
	c-4.9,0-9.8-1.1-14.2-3.1c-4.5-2.1-8.4-5-11.6-8.8c-3.2-3.7-5.6-8.1-6.9-12.8c-1.4-4.7-1.7-9.7-0.9-14.5c-4.9,0.7-9.8,0.4-14.6-0.9
	c-4.7-1.4-9.1-3.7-12.8-6.9c-3.7-3.2-6.7-7.2-8.8-11.6c-2.1-4.5-3.1-9.3-3.1-14.2v73h146V0l0,0V3.5z M244.3,117.1
	c0.4-0.3,0.8-0.6,1.3-0.7c0.5-0.1,1,0,1.4,0.1c0.5,0.2,0.8,0.5,1.1,0.9c0.3,0.4,0.4,0.9,0.4,1.4s-0.2,1-0.4,1.4
	c-0.3,0.4-0.7,0.7-1.1,0.9c-0.5,0.2-1,0.2-1.4,0.1c-0.5-0.1-0.9-0.3-1.3-0.7c-0.5-0.5-0.7-1.1-0.7-1.8S243.8,117.6,244.3,117.1z
	 M235.8,122.2c0.5-0.5,1-0.8,1.6-1.1c0.6-0.3,1.3-0.4,1.9-0.4c0.6,0,1.3,0.1,1.9,0.4c0.6,0.2,1.2,0.6,1.6,1.1c0.5,0.5,0.8,1,1.1,1.6
	s0.4,1.3,0.4,1.9c0,0.7-0.1,1.3-0.4,1.9c-0.3,0.6-0.6,1.1-1.1,1.6c-1.9,1.9-13.7,9.8-15.3,8.2C225.9,135.9,233.8,124.1,235.8,122.2z
	 M219,104.4c1,0,2.1,0.2,3,0.6c1,0.4,1.8,1,2.6,1.7c0.7,0.7,1.3,1.6,1.7,2.6c0.4,1,0.6,2,0.6,3c0,4.4-3.5,26.5-7.9,26.5V104.4z
	 M219,146v-3.5c0.5,0,0.9,0.1,1.3,0.3c0.4,0.2,0.8,0.4,1.1,0.8c0.3,0.3,0.6,0.7,0.8,1.1c0.2,0.4,0.3,0.9,0.3,1.3H219z M226.3,146
	c0-4.4,22.1-7.9,26.5-7.9c2.1,0,4.1,0.8,5.6,2.3c1.5,1.5,2.3,3.5,2.3,5.6H226.3z M339.7,28.9c-0.4,0.4-0.8,0.6-1.3,0.7
	c-0.5,0.1-1,0-1.4-0.1c-0.5-0.2-0.8-0.5-1.1-0.9c-0.3-0.4-0.4-0.9-0.4-1.4c0-0.5,0.2-1,0.4-1.4c0.3-0.4,0.7-0.7,1.1-0.9
	c0.5-0.2,1-0.2,1.4-0.1c0.5,0.1,0.9,0.3,1.3,0.7c0.5,0.5,0.7,1.1,0.7,1.8C340.4,27.8,340.2,28.4,339.7,28.9z M348.2,23.8
	c-0.5,0.5-1,0.8-1.6,1.1c-0.6,0.3-1.3,0.4-1.9,0.4c-0.7,0-1.3-0.1-1.9-0.4c-0.6-0.2-1.1-0.6-1.6-1.1c-0.5-0.5-0.8-1-1.1-1.6
	c-0.3-0.6-0.4-1.2-0.4-1.9c0-0.7,0.1-1.3,0.4-1.9c0.3-0.6,0.6-1.1,1.1-1.6c1.9-1.9,13.7-9.8,15.3-8.2
	C358.1,10.1,350.2,21.9,348.2,23.8z M365,104.4v34.4c-4.4,0-7.9-22.1-7.9-26.5c0-2.1,0.8-4.1,2.3-5.6
	C360.9,105.2,362.9,104.4,365,104.4L365,104.4z M348.2,122.2c1.9,1.9,9.8,13.7,8.2,15.3c-1.6,1.6-13.3-6.3-15.3-8.2
	c-0.9-0.9-1.4-2.2-1.4-3.5c0-1.3,0.5-2.6,1.4-3.5c0.9-0.9,2.2-1.5,3.5-1.5C346,120.8,347.3,121.3,348.2,122.2z M336.1,117.1
	c0.3-0.3,0.8-0.6,1.3-0.7c0.5-0.1,1,0,1.4,0.1c0.5,0.2,0.8,0.5,1.1,0.9c0.3,0.4,0.4,0.9,0.4,1.4c0,0.5-0.1,1-0.4,1.4
	c-0.3,0.4-0.7,0.7-1.1,0.9s-1,0.2-1.4,0.1c-0.5-0.1-0.9-0.3-1.3-0.7c-0.5-0.5-0.7-1.1-0.7-1.8S335.7,117.6,336.1,117.1L336.1,117.1z
	 M323.4,146c0-2.1,0.8-4.1,2.3-5.6c1.5-1.5,3.5-2.3,5.6-2.3c4.4,0,26.5,3.5,26.5,7.9H323.4z M365,146h-3.5c0-0.9,0.4-1.8,1-2.5
	s1.6-1,2.5-1V146z M365,41.6c-1,0-2.1-0.2-3-0.6c-1-0.4-1.8-1-2.6-1.7c-0.7-0.7-1.3-1.6-1.7-2.6c-0.4-1-0.6-2-0.6-3
	c0-4.4,3.5-26.5,7.9-26.5V41.6z"/>
<path class="st1" d="M146.6,164.8c0.2,0.1,0.4,0.1,0.6,0.1c0.2,0,0.4-0.1,0.5-0.3l15.8-15.8c0.1-0.1,0.2-0.3,0.3-0.5
	c0-0.2,0-0.4,0-0.6c-0.1-0.2-0.2-0.3-0.4-0.5c-0.2-0.1-0.4-0.2-0.6-0.2H147c-0.3,0-0.5,0.1-0.7,0.3c-0.2,0.2-0.3,0.4-0.3,0.7v15.8
	c0,0.2,0.1,0.4,0.2,0.6C146.3,164.6,146.4,164.7,146.6,164.8z"/>
<path class="st1" d="M146.6,173.1c0.1,0.1,0.3,0.2,0.5,0.2c0.2,0,0.3-0.1,0.5-0.2l24.6-24.6c0.1-0.1,0.1-0.1,0.1-0.2
	c0-0.1,0.1-0.2,0.1-0.3c0-0.1,0-0.2-0.1-0.3c0-0.1-0.1-0.2-0.1-0.2c-0.1-0.1-0.1-0.1-0.2-0.1c-0.1,0-0.2,0-0.3,0s-0.2,0-0.3,0.1
	c-0.1,0-0.2,0.1-0.2,0.1l-24.6,24.6c-0.1,0.1-0.2,0.3-0.2,0.5S146.4,172.9,146.6,173.1z"/>
<path class="st1" d="M218.4,202.2c-0.2-0.1-0.4-0.1-0.6-0.1c-0.2,0-0.4,0.1-0.5,0.3l-15.8,15.8c-0.1,0.1-0.2,0.3-0.3,0.5
	c0,0.2,0,0.4,0.1,0.6c0.1,0.2,0.2,0.3,0.4,0.5c0.2,0.1,0.4,0.2,0.6,0.2H218c0.3,0,0.5-0.1,0.7-0.3c0.2-0.2,0.3-0.4,0.3-0.7v-15.8
	c0-0.2-0.1-0.4-0.2-0.6C218.7,202.4,218.6,202.3,218.4,202.2z"/>
<path class="st1" d="M218.4,193.9c-0.1-0.1-0.1-0.1-0.2-0.1c-0.1,0-0.2,0-0.2,0c-0.1,0-0.2,0-0.3,0c-0.1,0-0.2,0.1-0.2,0.1
	l-24.6,24.6c-0.1,0.1-0.2,0.3-0.2,0.5c0,0.2,0.1,0.3,0.2,0.5c0.1,0.1,0.3,0.2,0.5,0.2c0.2,0,0.3-0.1,0.5-0.2l24.6-24.6
	c0.1-0.1,0.1-0.1,0.1-0.2c0-0.1,0.1-0.2,0.1-0.2c0-0.1,0-0.2-0.1-0.3C218.6,194.1,218.5,194,218.4,193.9z"/>
<path class="st1" d="M147.7,202.5c-0.1-0.1-0.2-0.2-0.3-0.2c-0.1-0.1-0.3-0.1-0.4-0.1c-0.1,0-0.3,0-0.4,0.1
	c-0.2,0.1-0.3,0.2-0.4,0.4c-0.1,0.2-0.2,0.4-0.2,0.6V219c0,0.1,0,0.3,0.1,0.4c0.1,0.1,0.1,0.2,0.2,0.3c0.1,0.1,0.2,0.2,0.3,0.2
	c0.1,0.1,0.3,0.1,0.4,0.1h15.8c0.2,0,0.4-0.1,0.6-0.2c0.2-0.1,0.3-0.3,0.4-0.5c0.1-0.2,0.1-0.4,0-0.6c0-0.2-0.1-0.4-0.3-0.5
	L147.7,202.5z"/>
<path class="st1" d="M147.5,193.9c-0.1-0.1-0.3-0.2-0.5-0.2c-0.2,0-0.3,0.1-0.5,0.2c-0.1,0.1-0.2,0.3-0.2,0.5s0.1,0.3,0.2,0.5
	l24.6,24.6c0.1,0.1,0.3,0.2,0.5,0.2c0.2,0,0.3-0.1,0.5-0.2c0.1-0.1,0.1-0.1,0.1-0.2c0-0.1,0.1-0.2,0.1-0.3c0-0.1,0-0.2-0.1-0.2
	c0-0.1-0.1-0.2-0.1-0.2L147.5,193.9z"/>
<path class="st1" d="M217.3,164.5c0.2,0.2,0.4,0.3,0.7,0.3c0.1,0,0.3,0,0.4-0.1c0.2-0.1,0.3-0.2,0.5-0.4c0.1-0.2,0.2-0.4,0.2-0.6
	V148c0-0.3-0.1-0.5-0.3-0.7c-0.2-0.2-0.4-0.3-0.7-0.3h-15.8c-0.2,0-0.4,0.1-0.6,0.2c-0.2,0.1-0.3,0.3-0.4,0.5
	c-0.1,0.2-0.1,0.4-0.1,0.6c0,0.2,0.1,0.4,0.3,0.5L217.3,164.5z"/>
<path class="st1" d="M217.5,173.1c0.1,0.1,0.3,0.2,0.5,0.2c0.1,0,0.3,0,0.4-0.1c0.1-0.1,0.2-0.2,0.2-0.3c0.1-0.1,0.1-0.3,0-0.4
	c0-0.1-0.1-0.2-0.2-0.3l-24.6-24.6c-0.1-0.1-0.3-0.2-0.5-0.2c-0.2,0-0.3,0.1-0.5,0.2c-0.1,0.1-0.2,0.3-0.2,0.5s0.1,0.3,0.2,0.5
	L217.5,173.1z"/>
<path class="st1" d="M181.8,176.1c0.1,0.1,0.2,0.2,0.3,0.2c0.1,0.1,0.3,0.1,0.4,0.1s0.3,0,0.4-0.1s0.2-0.1,0.3-0.2
	c1.1-1.3,2.1-2.7,3-4.2c1.8-3.1,2.9-6.6,3-10.2c-0.1-3.6-1.1-7.1-3-10.2c-0.8-1.5-1.8-2.9-3-4.2c-0.1-0.1-0.2-0.2-0.3-0.2
	s-0.3-0.1-0.4-0.1s-0.3,0-0.4,0.1c-0.1,0.1-0.2,0.1-0.3,0.2c-1.1,1.3-2.1,2.7-3,4.2c-1.8,3.1-2.9,6.6-3,10.2c0.1,3.6,1.1,7.1,3,10.2
	C179.6,173.4,180.6,174.8,181.8,176.1z"/>
<path class="st1" d="M183.3,190.9c-0.1-0.1-0.2-0.2-0.3-0.2c-0.1-0.1-0.3-0.1-0.4-0.1s-0.3,0-0.4,0.1c-0.1,0.1-0.2,0.1-0.3,0.2
	c-1.1,1.3-2.1,2.7-3,4.2c-1.8,3.1-2.9,6.6-3,10.2c0.1,3.6,1.1,7.1,3,10.2c0.8,1.5,1.8,2.9,3,4.2c0.1,0.1,0.2,0.2,0.3,0.2
	c0.1,0.1,0.3,0.1,0.4,0.1s0.3,0,0.4-0.1c0.1-0.1,0.2-0.1,0.3-0.2c1.1-1.3,2.1-2.7,3-4.2c1.8-3.1,2.9-6.6,3-10.2
	c-0.1-3.6-1.1-7.1-3-10.2C185.4,193.6,184.4,192.2,183.3,190.9z"/>
<path class="st1" d="M150.5,179.8c-1.5,0.8-2.9,1.8-4.2,3c-0.1,0.1-0.2,0.2-0.2,0.3c0,0.1-0.1,0.3-0.1,0.4c0,0.1,0,0.3,0.1,0.4
	c0.1,0.1,0.1,0.2,0.2,0.3c1.3,1.1,2.7,2.1,4.2,3c3.1,1.9,6.6,2.9,10.2,3c3.6-0.1,7.1-1.1,10.2-3c1.5-0.9,2.9-1.9,4.2-3
	c0.1-0.1,0.2-0.2,0.2-0.3c0.1-0.1,0.1-0.3,0.1-0.4c0-0.1,0-0.3-0.1-0.4c-0.1-0.1-0.1-0.2-0.2-0.3c-1.3-1.1-2.7-2.1-4.2-3
	c-3.1-1.9-6.6-2.9-10.2-3C157.1,176.9,153.6,177.9,150.5,179.8z"/>
<path class="st1" d="M189.9,182.8c-0.1,0.1-0.2,0.2-0.2,0.3c-0.1,0.1-0.1,0.3-0.1,0.4c0,0.1,0,0.3,0.1,0.4c0.1,0.1,0.1,0.2,0.2,0.3
	c1.3,1.1,2.7,2.1,4.2,3c3.1,1.9,6.6,2.9,10.2,3c3.6-0.1,7.1-1.1,10.2-3c1.5-0.8,2.9-1.8,4.2-3c0.1-0.1,0.2-0.2,0.2-0.3
	c0.1-0.1,0.1-0.3,0.1-0.4c0-0.1,0-0.3-0.1-0.4c-0.1-0.1-0.1-0.2-0.2-0.3c-1.3-1.1-2.7-2.1-4.2-3c-3.1-1.8-6.6-2.9-10.2-3
	c-3.6,0.1-7.1,1.1-10.2,3C192.6,180.6,191.2,181.6,189.9,182.8z"/>
<path class="st1" d="M184.6,183.5c0-0.4-0.1-0.8-0.4-1.2c-0.2-0.4-0.6-0.6-1-0.8c-0.4-0.2-0.8-0.2-1.2-0.1c-0.4,0.1-0.8,0.3-1.1,0.6
	c-0.3,0.3-0.5,0.7-0.6,1.1c-0.1,0.4,0,0.8,0.1,1.2c0.2,0.4,0.4,0.7,0.8,1c0.3,0.2,0.8,0.4,1.2,0.4c0.3,0,0.6-0.1,0.8-0.2
	c0.3-0.1,0.5-0.3,0.7-0.5c0.2-0.2,0.4-0.4,0.5-0.7C184.6,184.1,184.6,183.8,184.6,183.5z"/>
<path class="st1" d="M188,189.7c0.8,1.1,7.9,11,8.7,11.8c0.5,0.5,1.2,0.8,1.9,0.8c0.7,0,1.4-0.3,1.9-0.8c0.5-0.5,0.8-1.2,0.8-1.9
	c0-0.7-0.3-1.4-0.8-1.9c-0.8-0.9-10.7-7.9-11.8-8.7c-0.1-0.1-0.2-0.1-0.3-0.1c-0.1,0-0.2,0.1-0.3,0.1c-0.1,0.1-0.1,0.2-0.1,0.3
	S187.9,189.6,188,189.7L188,189.7z"/>
<path class="st1" d="M176.3,189c-1.1,0.8-11,7.9-11.8,8.7c-0.5,0.5-0.8,1.2-0.8,1.9s0.3,1.4,0.8,1.9c0.5,0.5,1.2,0.8,1.9,0.8
	c0.7,0,1.4-0.3,1.9-0.8c-0.1,0.1,7.2-9.7,8.7-11.8c0.1-0.1,0.1-0.2,0.1-0.3s-0.1-0.2-0.1-0.3c-0.1-0.1-0.2-0.1-0.3-0.1
	C176.5,188.9,176.4,188.9,176.3,189L176.3,189z"/>
<path class="st1" d="M198.6,164.7c-0.3,0-0.7,0.1-1,0.2c-0.3,0.1-0.6,0.3-0.9,0.6c-0.8,0.9-7.9,10.7-8.7,11.8
	c-0.1,0.1-0.1,0.2-0.1,0.3c0,0.1,0.1,0.2,0.2,0.3c0,0,0.1,0.1,0.2,0.1c0.1,0,0.1,0,0.2,0c0.1,0,0.2,0,0.3-0.1
	c1.1-0.8,10.1-7,10.9-7.8c1-1,2-3.7,0.9-4.7c-0.2-0.3-0.5-0.4-0.9-0.6C199.3,164.8,199,164.7,198.6,164.7z"/>
<path class="st1" d="M177,177.3c-1.1-1.5-7.5-10.5-8.7-11.8c-0.3-0.2-0.6-0.4-0.9-0.6c-0.3-0.1-0.7-0.2-1-0.2s-0.7,0.1-1,0.2
	c-0.3,0.1-0.6,0.3-0.9,0.6c-0.3,0.2-0.4,0.5-0.6,0.9c-0.1,0.3-0.2,0.7-0.2,1c0,0.4,0.1,0.7,0.2,1c0.1,0.3,0.3,0.6,0.6,0.9
	c0.8,0.9,10.7,7.9,11.8,8.7c0.1,0.1,0.2,0.1,0.3,0.1l0,0c0.1,0,0.1,0,0.2,0c0.1,0,0.1-0.1,0.2-0.1c0.1,0,0.1-0.1,0.1-0.2
	c0-0.1,0-0.1,0-0.2C177.1,177.5,177.1,177.4,177,177.3z"/>
<path class="st2" d="M254.7,253.7c-0.4-2.1-1.7-7.5-5.6-11.5c-3.9-3.9-9.4-5.2-11.5-5.6c0.4,2.1,1.7,7.5,5.6,11.5
	S252.6,253.3,254.7,253.7z"/>
<path class="st2" d="M254.7,255.3c-2.1,0.4-7.5,1.7-11.5,5.6c-3.9,3.9-5.2,9.4-5.6,11.5c2.1-0.4,7.5-1.7,11.5-5.6
	C253,262.8,254.3,257.4,254.7,255.3z"/>
<path class="st2" d="M219,291c2.1-0.4,7.6-1.7,11.5-5.6c3.9-3.9,5.2-9.4,5.6-11.5c-2.1,0.4-7.5,1.7-11.5,5.6
	C220.7,283.5,219.4,288.9,219,291z"/>
<path class="st2" d="M237.6,273.9c0.4,2.1,1.7,7.5,5.6,11.5s9.4,5.2,11.5,5.6c-0.4-2.1-1.7-7.5-5.6-11.5
	C245.2,275.6,239.7,274.3,237.6,273.9z"/>
<path class="st2" d="M219,253.7c2.1-0.4,7.6-1.7,11.5-5.6c3.9-3.9,5.2-9.4,5.6-11.5c-2.1,0.4-7.5,1.7-11.5,5.6
	C220.7,246.2,219.4,251.6,219,253.7z"/>
<path class="st2" d="M219,255.3c0.4,2.1,1.7,7.5,5.6,11.5c3.9,3.9,9.4,5.2,11.5,5.6c-0.4-2.1-1.7-7.5-5.6-11.5
	C226.6,257,221.1,255.7,219,255.3z"/>
<path class="st2" d="M219,218c0.4,2.1,1.7,7.5,5.6,11.5c3.9,3.9,9.4,5.2,11.5,5.6c-0.4-2.1-1.7-7.5-5.6-11.5
	C226.5,219.7,221.1,218.4,219,218z"/>
<path class="st2" d="M254.7,218c-2.1,0.4-7.5,1.7-11.5,5.6c-3.9,3.9-5.2,9.4-5.6,11.5c2.1-0.4,7.5-1.7,11.5-5.6
	C253,225.5,254.3,220.1,254.7,218z"/>
<path class="st2" d="M274.9,272.4c2.1-0.4,7.5-1.7,11.5-5.6c3.9-3.9,5.2-9.4,5.6-11.5c-2.1,0.4-7.5,1.7-11.5,5.6
	C276.6,264.8,275.3,270.3,274.9,272.4z"/>
<path class="st2" d="M274.9,235.1c2.1-0.4,7.5-1.7,11.5-5.6c3.9-3.9,5.2-9.4,5.6-11.5c-2.1,0.4-7.5,1.7-11.5,5.6
	C276.6,227.5,275.3,233,274.9,235.1z"/>
<path class="st2" d="M274.9,236.6c0.4,2.1,1.7,7.5,5.6,11.5c3.9,3.9,9.4,5.2,11.5,5.6c-0.4-2.1-1.7-7.5-5.6-11.5
	C282.5,238.3,277,237,274.9,236.6z"/>
<path class="st2" d="M274.9,273.9c0.4,2.1,1.7,7.5,5.6,11.5c3.9,3.9,9.4,5.2,11.5,5.6c-0.4-2.1-1.7-7.5-5.6-11.5
	C282.5,275.6,277,274.3,274.9,273.9z"/>
<path class="st2" d="M273.4,236.6c-2.1,0.4-7.5,1.7-11.5,5.6c-3.9,3.9-5.2,9.4-5.6,11.5c2.1-0.4,7.5-1.7,11.5-5.6
	C271.7,244.2,273,238.7,273.4,236.6z"/>
<path class="st2" d="M256.3,218c0.4,2.1,1.7,7.5,5.6,11.5c3.9,3.9,9.4,5.2,11.5,5.6c-0.4-2.1-1.7-7.5-5.6-11.5
	C263.8,219.7,258.4,218.4,256.3,218z"/>
<path class="st2" d="M256.3,255.3c0.4,2.1,1.7,7.5,5.6,11.5c3.9,3.9,9.4,5.2,11.5,5.6c-0.4-2.1-1.7-7.5-5.6-11.5
	C263.8,257,258.4,255.7,256.3,255.3z"/>
<path class="st2" d="M256.3,291c2.1-0.4,7.5-1.7,11.5-5.6c3.9-3.9,5.2-9.4,5.6-11.5c-2.1,0.4-7.5,1.7-11.5,5.6
	C258,283.5,256.7,288.9,256.3,291z"/>
<path class="st2" d="M71,361.4c-0.3,0.3-0.5,0.6-0.7,1c-0.1,0.4-0.2,0.8-0.2,1.2c0,0.4,0.1,0.8,0.2,1.2c0.2,0.4,0.4,0.7,0.7,1
	c0.6,0.6,1.4,0.9,2.2,0.9c0.8,0,1.6-0.3,2.2-0.9c0.3-0.3,0.5-0.6,0.7-1c0.1-0.4,0.2-0.8,0.2-1.2c0-0.4-0.1-0.8-0.2-1.2
	c-0.2-0.4-0.4-0.7-0.7-1c-0.6-0.6-1.4-0.9-2.2-0.9C72.4,360.5,71.6,360.8,71,361.4z"/>
<path class="st2" d="M68.8,359.9c0.1,0,0.2,0,0.3,0c0.1,0,0.2-0.1,0.3-0.2c0.1-0.1,0.1-0.2,0.2-0.3s0-0.2,0-0.3
	c-0.9-4-2.8-7.6-5.7-10.5c-2.9-2.8-6.5-4.7-10.4-5.6v0.9h-0.9c0.9,3.9,2.8,7.5,5.6,10.3C61.2,357.1,64.8,359.1,68.8,359.9z"/>
<path class="st2" d="M77.6,367.2c-0.1,0-0.2,0-0.3,0c-0.1,0-0.2,0.1-0.3,0.2c-0.1,0.1-0.1,0.2-0.2,0.3s0,0.2,0,0.3
	c0.9,4,2.8,7.6,5.6,10.5c2.9,2.7,6.5,4.7,10.4,5.6v-0.9h0.9c-0.9-3.9-2.8-7.5-5.6-10.3C85.2,370,81.6,368,77.6,367.2z"/>
<path class="st2" d="M69.5,367.9c0-0.1,0-0.2,0-0.3s-0.1-0.2-0.2-0.3c-0.1-0.1-0.2-0.1-0.3-0.2c-0.1,0-0.2,0-0.3,0
	c-4,0.9-7.7,2.8-10.6,5.6c-2.8,2.9-4.7,6.4-5.6,10.3h0.9v0.9c3.9-0.9,7.5-2.8,10.4-5.6C66.7,375.5,68.7,371.8,69.5,367.9z"/>
<path class="st2" d="M76.8,359.2c0,0.1,0,0.2,0,0.3s0.1,0.2,0.2,0.3c0.1,0.1,0.2,0.1,0.3,0.2c0.1,0,0.2,0,0.3,0
	c4-0.9,7.7-2.8,10.6-5.6c2.8-2.9,4.7-6.4,5.6-10.3h-0.9v-0.9c-3.9,0.9-7.5,2.8-10.4,5.6C79.7,351.6,77.7,355.2,76.8,359.2z"/>
<path class="st2" d="M67.4,363c-3.4-2.2-7.4-3.3-11.4-3.4c-4.1,0.1-8.1,1.3-11.5,3.5c-0.1,0.1-0.2,0.1-0.2,0.2
	c0,0.1-0.1,0.2-0.1,0.3c0,0.1,0,0.2,0.1,0.3c0.1,0.1,0.1,0.2,0.2,0.2c3.4,2.2,7.4,3.4,11.5,3.5c4.1-0.1,8.1-1.3,11.5-3.5l0.1-0.1v0
	c0.1-0.1,0.1-0.1,0.1-0.2c0-0.1,0.1-0.2,0.1-0.2s0-0.2-0.1-0.2c0-0.1-0.1-0.1-0.1-0.2L67.4,363z"/>
<path class="st2" d="M101.8,363c-3.4-2.1-7.4-3.3-11.4-3.4c-4.1,0.1-8.1,1.3-11.5,3.5c-0.1,0.1-0.2,0.1-0.2,0.2
	c0,0.1-0.1,0.2-0.1,0.3c0,0.1,0,0.2,0.1,0.3c0,0.1,0.1,0.2,0.2,0.2c3.4,2.2,7.4,3.4,11.5,3.5c4.1-0.1,8.1-1.3,11.5-3.5l0.1-0.1v0
	c0.1-0.1,0.1-0.1,0.1-0.2c0-0.1,0.1-0.2,0.1-0.2c0-0.1,0-0.2-0.1-0.2c0-0.1-0.1-0.1-0.1-0.2L101.8,363z"/>
<path class="st2" d="M73.2,368.9c-0.1,0-0.2,0-0.3,0.1c-0.1,0-0.2,0.1-0.2,0.2c-2.2,3.4-3.4,7.3-3.5,11.4c0.1,4,1.3,8,3.5,11.4
	c0,0.1,0.1,0.1,0.2,0.2c0.1,0,0.2,0.1,0.3,0.1c0.1,0,0.2,0,0.3,0s0.2-0.1,0.2-0.1l0.1-0.1c2.2-3.4,3.4-7.3,3.5-11.4
	c-0.1-4-1.3-8-3.5-11.4c0-0.1-0.1-0.2-0.2-0.2C73.4,368.9,73.3,368.9,73.2,368.9z"/>
<path class="st2" d="M73.2,358.2c0.1,0,0.2,0,0.2,0c0.1,0,0.1-0.1,0.2-0.1l0.1-0.1c2.2-3.4,3.4-7.3,3.5-11.4c-0.1-4-1.3-8-3.5-11.4
	c0-0.1-0.1-0.2-0.2-0.2s-0.2-0.1-0.3-0.1c-0.1,0-0.2,0-0.3,0.1s-0.2,0.1-0.2,0.2c-2.2,3.4-3.4,7.3-3.5,11.4c0.1,4,1.3,8,3.5,11.4
	c0,0.1,0.1,0.2,0.2,0.2S73.1,358.2,73.2,358.2z"/>
<path class="st2" d="M38.7,292.3c-9.5-0.5-10.7,5.2-10.7,6.8c0,5.2,3.8,6.1,3.8,6.1c-2.2,1.1-10.2,1.1-10.2-6.7
	c0-0.9,0.2-1.8,0.7-2.6c0.5-0.8,1.1-1.4,1.9-1.8l-0.1,0c-1.4,0.8-2.9,1.2-4.5,1.3c-1.9-0.2-3.7-1-5-2.3c-0.9-0.7-2.5-2.1-2.5-2.1
	H5.3c0,0,14.9,18.9,27.9,18.9c2.1,0,4.1-0.6,5.8-1.8c1.7-1.2,2.9-2.9,3.5-4.9c0.6-2,0.6-4.1-0.1-6C41.7,295.1,40.4,293.5,38.7,292.3
	z"/>
<path class="st2" d="M0,296.3L0,296.3v6.7v0c0,0,1.5,1.6,2.2,2.5c1.3,1.4,2.1,3.1,2.3,5c-0.1,1.6-0.5,3.1-1.3,4.5l0,0.1
	c0.4-0.8,1.1-1.5,1.9-1.9c0.8-0.5,1.7-0.7,2.6-0.6c7.9,0,7.9,8,6.8,10.1c0,0-0.9-3.7-6.1-3.7c-1.6,0-7.3,1.1-6.9,10.6
	c1.2,1.7,2.9,3,4.8,3.7c1.9,0.7,4.1,0.7,6,0.1c2-0.6,3.7-1.8,4.9-3.5c1.2-1.7,1.9-3.7,1.9-5.7C19,311,0,296.3,0,296.3z"/>
<path class="st2" d="M140.7,291H134c0,0-1.6,1.4-2.5,2.1c-1.4,1.3-3.1,2.1-5,2.3c-1.6-0.1-3.1-0.5-4.5-1.3l-0.1,0
	c0.8,0.4,1.5,1,1.9,1.8c0.5,0.8,0.7,1.7,0.7,2.6c0,7.8-8,7.8-10.2,6.7c0,0,3.8-0.9,3.8-6.1c0-1.6-1.2-7.3-10.7-6.8
	c-1.7,1.1-3,2.8-3.7,4.8c-0.7,1.9-0.7,4.1-0.1,6c0.6,2,1.8,3.7,3.5,4.9c1.7,1.2,3.7,1.9,5.8,1.8C125.8,309.9,140.7,291,140.7,291z"
	/>
<path class="st2" d="M146,296.3c0,0-19,14.8-19,27.7c0,2.1,0.7,4.1,1.9,5.7c1.2,1.7,3,2.9,4.9,3.5c2,0.6,4.1,0.6,6-0.1
	s3.6-2,4.8-3.7c0.5-9.4-5.3-10.6-6.9-10.6c-5.2,0-6.1,3.7-6.1,3.7c-1.2-2.1-1.1-10.1,6.8-10.1c0.9,0,1.8,0.2,2.6,0.7
	s1.4,1.1,1.8,1.9l0-0.1c-0.8-1.4-1.2-2.9-1.3-4.5c0.2-1.9,1-3.6,2.3-5c0.7-0.9,2.2-2.5,2.2-2.5l0,0L146,296.3L146,296.3z"/>
<path class="st2" d="M112.8,418.1c-2.1,0-4.1,0.6-5.8,1.8s-2.9,2.9-3.5,4.9c-0.6,2-0.6,4.1,0.1,6c0.7,1.9,2,3.6,3.7,4.8
	c9.5,0.5,10.7-5.2,10.7-6.8c0-5.2-3.8-6.1-3.8-6.1c2.2-1.1,10.2-1.1,10.2,6.7c0,0.9-0.2,1.8-0.7,2.6c-0.5,0.8-1.1,1.4-1.9,1.8l0.1,0
	c1.4-0.8,2.9-1.2,4.5-1.3c1.9,0.2,3.7,1,5,2.3c0.9,0.7,2.5,2.1,2.5,2.1h6.7C140.7,437,125.8,418.1,112.8,418.1z"/>
<path class="st2" d="M143.8,422.6c-1.3-1.4-2.1-3.1-2.3-5c0.1-1.6,0.5-3.1,1.3-4.5l0-0.1c-0.4,0.8-1.1,1.5-1.8,1.9
	c-0.8,0.5-1.7,0.7-2.6,0.7c-7.9,0-7.9-8-6.8-10.1c0,0,0.9,3.7,6.1,3.7c1.6,0,7.3-1.1,6.9-10.6c-1.2-1.7-2.9-3-4.8-3.7
	c-1.9-0.7-4.1-0.7-6-0.1c-2,0.6-3.7,1.8-4.9,3.5c-1.2,1.7-1.9,3.7-1.9,5.7c0,12.9,19,27.7,19,27.7h0v-6.7h0
	C146,425.1,144.5,423.5,143.8,422.6z"/>
<path class="st2" d="M19.6,432.6c1.6,0.1,3.1,0.5,4.5,1.3l0.1,0c-0.8-0.4-1.5-1-1.9-1.8c-0.5-0.8-0.7-1.7-0.7-2.6
	c0-7.8,8-7.8,10.2-6.7c0,0-3.8,0.9-3.8,6.1c0,1.6,1.1,7.3,10.7,6.8c1.7-1.2,3-2.8,3.7-4.8c0.7-1.9,0.7-4.1,0.1-6
	c-0.6-2-1.8-3.7-3.5-4.9s-3.7-1.9-5.8-1.8c-13,0-27.9,18.8-27.9,18.9H12c0,0,1.6-1.4,2.5-2.1C15.9,433.6,17.7,432.8,19.6,432.6z"/>
<path class="st2" d="M19,404.1c0-2.1-0.7-4.1-1.9-5.7c-1.2-1.7-3-2.9-4.9-3.5c-2-0.6-4.1-0.6-6,0.1c-1.9,0.7-3.6,2-4.8,3.7
	c-0.5,9.4,5.3,10.6,6.9,10.6c5.2,0,6.1-3.7,6.1-3.7c1.2,2.1,1.1,10.1-6.8,10.1c-0.9,0-1.8-0.2-2.6-0.7c-0.8-0.5-1.4-1.1-1.9-1.9
	l0,0.1c0.8,1.4,1.2,2.9,1.3,4.5c-0.2,1.9-1,3.6-2.3,5c-0.7,0.9-2.2,2.5-2.2,2.5l0,0v6.7l0,0C0,431.7,19,417,19,404.1z"/>
<path class="st3" d="M96.3,310.5V291H50v19.5l-30.4,30.1H0v3.4v16.1v0v6.9v0v16.1v3.4h19.7L50,416.6V437h46.3v-20.4l30.4-30.1H146
	v-45.9h-19.3L96.3,310.5z M123.2,383.1H93.8c0,0.1,0,0.2,0,0.2c0,0.1,0,0.2,0,0.3c0,0.1-0.1,0.2-0.2,0.3c-0.1,0.1-0.2,0.1-0.3,0.2
	s-0.2,0-0.3,0c0,0-0.1,0-0.2,0v29.1l-19.7,19.5l-19.7-19.5V384c-0.1,0-0.2,0-0.2,0c-0.1,0-0.2,0-0.3,0c-0.1,0-0.2-0.1-0.3-0.2
	c-0.1-0.1-0.1-0.2-0.2-0.3c0-0.1,0-0.2,0-0.3c0,0,0-0.1,0-0.2H23.2L3.5,363.5L23.2,344h29.4c0-0.1,0-0.2,0-0.2c0-0.1,0-0.2,0-0.3
	c0-0.1,0.1-0.2,0.2-0.3c0.1-0.1,0.2-0.1,0.3-0.2s0.2,0,0.3,0c0,0,0.1,0,0.2,0V314l19.7-19.5L92.9,314v29.2c0.1,0,0.2,0,0.2,0
	c0.1,0,0.2,0,0.3,0c0.1,0,0.2,0.1,0.3,0.2c0.1,0.1,0.1,0.2,0.2,0.3c0,0.1,0,0.2,0,0.3c0,0,0,0.1,0,0.2h29.4l19.7,19.6L123.2,383.1z"
	/>
<path class="st3" d="M53.5,343.1c-0.1,0-0.2,0-0.2,0c-0.1,0-0.2,0-0.3,0c-0.1,0-0.2,0.1-0.3,0.2c-0.1,0.1-0.1,0.2-0.2,0.3
	c0,0.1,0,0.2,0,0.3c0,0,0,0.1,0,0.2h0.9V343.1z"/>
<path class="st3" d="M92.9,384c0.1,0,0.2,0,0.2,0c0.1,0,0.2,0,0.3,0s0.2-0.1,0.3-0.2c0.1-0.1,0.1-0.2,0.2-0.3c0-0.1,0-0.2,0-0.3
	c0,0,0-0.1,0-0.2h-0.9V384z"/>
<path class="st3" d="M52.6,383.1c0,0.1,0,0.2,0,0.2c0,0.1,0,0.2,0,0.3c0,0.1,0.1,0.2,0.2,0.3c0.1,0.1,0.2,0.1,0.3,0.2
	c0.1,0,0.2,0,0.3,0c0,0,0.1,0,0.2,0v-0.9H52.6z"/>
<path class="st3" d="M93.8,344c0-0.1,0-0.2,0-0.2c0-0.1,0-0.2,0-0.3c0-0.1-0.1-0.2-0.2-0.3c-0.1-0.1-0.2-0.1-0.3-0.2
	c-0.1,0-0.2,0-0.3,0c0,0-0.1,0-0.2,0v0.9H93.8z"/>
</svg>
