<?xml version="1.0" encoding="utf-8"?>
<!-- Generator: Adobe Illustrator 22.1.0, SVG Export Plug-In . SVG Version: 6.00 Build 0)  -->
<svg version="1.1" id="Слой_1" xmlns="http://www.w3.org/2000/svg" xmlns:xlink="http://www.w3.org/1999/xlink" x="0px" y="0px"
	 viewBox="0 0 45.4 46.1" style="enable-background:new 0 0 45.4 46.1;" xml:space="preserve">
<style type="text/css">
	.st0{fill:#2C3B8C;}
</style>
<path class="st0" d="M3.7,0H1.7h0l0,0L3.7,0L3.7,0z"/>
<path class="st0" d="M43.8,0L43.8,0h-2.1l0,0L43.8,0L43.8,0z"/>
<path class="st0" d="M29.8,0H15.4v0L29.8,0L29.8,0z"/>
<path class="st0" d="M23.3,23.9c0.2-0.2,0.3-0.4,0.3-0.7s-0.1-0.5-0.3-0.7c-0.1-0.1-0.2-0.2-0.3-0.2c-0.1,0-0.2-0.1-0.4-0.1
	c-0.1,0-0.3,0-0.4,0.1c-0.1,0-0.2,0.1-0.3,0.2c-0.2,0.2-0.3,0.4-0.3,0.7s0.1,0.5,0.3,0.7c0.1,0.1,0.2,0.2,0.3,0.2
	c0.1,0,0.2,0.1,0.4,0.1c0.1,0,0.3,0,0.4-0.1C23.1,24,23.2,24,23.3,23.9z"/>
<path class="st0" d="M24,24.3C24,24.3,23.9,24.3,24,24.3c-0.1,0-0.2,0-0.2,0.1c0,0,0,0.1,0,0.1c0,0,0,0.1,0,0.1
	c0.3,1.2,0.9,2.4,1.8,3.3c0.9,0.9,2,1.5,3.2,1.8v-0.3h0.3c-0.3-1.2-0.9-2.4-1.7-3.3C26.4,25.2,25.3,24.6,24,24.3z"/>
<path class="st0" d="M21.3,22C21.3,22,21.3,22,21.3,22c0.1,0,0.2,0,0.2-0.1s0,0,0-0.1c0,0,0-0.1,0-0.1c-0.3-1.2-0.9-2.4-1.8-3.3
	c-0.9-0.9-2-1.5-3.2-1.8V17h-0.3c0.3,1.2,0.9,2.3,1.7,3.3C18.9,21.2,20,21.8,21.3,22z"/>
<path class="st0" d="M23.8,21.8C23.8,21.8,23.8,21.9,23.8,21.8c0,0.1,0,0.2,0.1,0.2c0,0,0,0,0.1,0c0,0,0.1,0,0.1,0
	c1.2-0.3,2.4-0.9,3.3-1.8c0.9-0.9,1.5-2,1.7-3.3h-0.3v-0.3c-1.2,0.3-2.3,0.9-3.2,1.8C24.7,19.4,24.1,20.6,23.8,21.8z"/>
<path class="st0" d="M21.5,24.6C21.5,24.5,21.5,24.5,21.5,24.6c0-0.1,0-0.2-0.1-0.2c0,0,0,0-0.1,0c0,0-0.1,0-0.1,0
	c-1.2,0.3-2.4,0.9-3.3,1.8c-0.9,0.9-1.5,2-1.7,3.3h0.3v0.3c1.2-0.3,2.3-0.9,3.2-1.8C20.6,27,21.2,25.8,21.5,24.6z"/>
<path class="st0" d="M24.4,23.4c1.1,0.7,2.3,1.1,3.6,1.1c1.3,0,2.5-0.4,3.6-1.1c0,0,0,0,0.1-0.1c0,0,0-0.1,0-0.1c0,0,0-0.1,0-0.1
	c0,0,0-0.1-0.1-0.1c-1.1-0.7-2.3-1.1-3.6-1.1c-1.3,0-2.5,0.4-3.6,1.1l0,0l0,0c0,0-0.1,0.1-0.1,0.1C24.3,23.2,24.3,23.3,24.4,23.4
	L24.4,23.4z"/>
<path class="st0" d="M13.8,23.4c1.1,0.7,2.3,1.1,3.6,1.1c1.3,0,2.5-0.4,3.6-1.1c0,0,0,0,0.1-0.1c0,0,0-0.1,0-0.1c0,0,0-0.1,0-0.1
	c0,0,0-0.1-0.1-0.1c-1.1-0.7-2.3-1.1-3.6-1.1c-1.3,0-2.5,0.4-3.6,1.1l0,0l0,0c0,0-0.1,0.1-0.1,0.1C13.6,23.2,13.7,23.3,13.8,23.4
	L13.8,23.4z"/>
<path class="st0" d="M22.6,21.5C22.7,21.5,22.7,21.5,22.6,21.5c0.1,0,0.1-0.1,0.2-0.1c0.7-1.1,1.1-2.3,1.1-3.6
	c0-1.3-0.4-2.5-1.1-3.6c0,0,0,0-0.1-0.1c0,0-0.1,0-0.1,0c0,0-0.1,0-0.1,0c0,0-0.1,0-0.1,0l0,0c-0.7,1.1-1.1,2.3-1.1,3.6
	c0,1.3,0.4,2.5,1.1,3.6C22.5,21.4,22.5,21.5,22.6,21.5C22.6,21.5,22.6,21.5,22.6,21.5z"/>
<path class="st0" d="M22.6,24.9C22.6,24.9,22.6,24.9,22.6,24.9c-0.1,0-0.1,0-0.1,0.1l0,0c-0.7,1.1-1.1,2.3-1.1,3.6
	c0,1.3,0.4,2.5,1.1,3.6c0,0,0,0,0.1,0.1c0,0,0.1,0,0.1,0s0.1,0,0.1,0c0,0,0.1,0,0.1-0.1c0.7-1.1,1.1-2.3,1.1-3.6
	c0-1.3-0.4-2.5-1.1-3.6C22.8,24.9,22.8,24.9,22.6,24.9C22.7,24.9,22.7,24.9,22.6,24.9z"/>
<path class="st0" d="M35.1,40.1c-0.6,0-1.3,0.2-1.8,0.6c-0.5,0.4-0.9,0.9-1.1,1.5c-0.2,0.6-0.2,1.3,0,1.9c0.2,0.6,0.6,1.1,1.2,1.5
	c3,0.1,3.3-1.6,3.3-2.1c0-1.6-1.2-1.9-1.2-1.9c0.7-0.4,3.2-0.3,3.2,2.1c0,0.3-0.1,0.6-0.2,0.8c-0.1,0.2-0.4,0.4-0.6,0.6l0,0
	c0.4-0.2,0.9-0.4,1.4-0.4c0.6,0.1,1.1,0.3,1.6,0.7c0.3,0.2,0.8,0.7,0.8,0.7h2.1C43.8,46.1,39.1,40.1,35.1,40.1z"/>
<path class="st0" d="M44.7,41.5c-0.4-0.4-0.7-1-0.7-1.6c0-0.5,0.2-1,0.4-1.4l0,0c-0.1,0.3-0.3,0.5-0.6,0.6c-0.2,0.1-0.5,0.2-0.8,0.2
	c-2.4,0-2.5-2.5-2.1-3.2c0,0,0.3,1.2,1.9,1.2c0.5,0,2.3-0.4,2.1-3.3c-0.4-0.5-0.9-0.9-1.5-1.2c-0.6-0.2-1.3-0.2-1.9,0
	c-0.6,0.2-1.2,0.6-1.5,1.1c-0.4,0.5-0.6,1.2-0.6,1.8c0,4.1,5.9,8.7,5.9,8.7l0,0v-2.1l0,0C45.4,42.3,45,41.8,44.7,41.5z"/>
<path class="st0" d="M10.3,40.1c-4.1,0-8.7,6-8.7,6h2.1c0,0,0.5-0.5,0.8-0.7c0.4-0.4,1-0.7,1.6-0.7c0.5,0,1,0.2,1.4,0.4l0,0
	c-0.3-0.1-0.5-0.3-0.6-0.6c-0.1-0.2-0.2-0.5-0.2-0.8c0-2.5,2.5-2.5,3.2-2.1c0,0-1.2,0.3-1.2,1.9c0,0.5,0.4,2.3,3.3,2.1
	c0.5-0.4,0.9-0.9,1.2-1.5c0.2-0.6,0.2-1.3,0-1.9c-0.2-0.6-0.6-1.2-1.1-1.5C11.6,40.4,11,40.1,10.3,40.1L10.3,40.1z"/>
<path class="st0" d="M5.9,35.7c0-0.6-0.2-1.3-0.6-1.8C5,33.4,4.4,33,3.8,32.8c-0.6-0.2-1.3-0.2-1.9,0C1.3,33,0.8,33.4,0.4,34
	c-0.1,3,1.6,3.3,2.1,3.3c1.6,0,1.9-1.2,1.9-1.2c0.4,0.7,0.3,3.2-2.1,3.2c-0.3,0-0.6-0.1-0.8-0.2C1.3,39,1.1,38.8,1,38.5l0,0
	C1.2,39,1.4,39.5,1.4,40c-0.1,0.6-0.3,1.1-0.7,1.6C0.5,41.8,0,42.3,0,42.3l0,0v2.1l0,0C0,44.4,5.9,39.8,5.9,35.7z"/>
<path class="st0" d="M10.3,6c0.6,0,1.3-0.2,1.8-0.6C12.6,5,13,4.4,13.2,3.8c0.2-0.6,0.2-1.3,0-1.9C13,1.3,12.6,0.8,12,0.4
	c-3-0.1-3.3,1.6-3.3,2.1c0,1.6,1.2,1.9,1.2,1.9C9.2,4.8,6.7,4.8,6.7,2.4c0-0.3,0.1-0.6,0.2-0.8C7.1,1.3,7.3,1.1,7.5,1l0,0
	C7.1,1.2,6.6,1.4,6.1,1.4C5.5,1.3,5,1.1,4.5,0.7C4.2,0.5,3.7,0,3.7,0H1.7C1.7,0,6.3,6,10.3,6z"/>
<path class="st0" d="M0.7,4.6c0.4,0.4,0.7,1,0.7,1.6c0,0.5-0.2,1-0.4,1.4l0,0C1.1,7.3,1.3,7.1,1.5,7c0.2-0.1,0.5-0.2,0.8-0.2
	c2.4,0,2.5,2.5,2.1,3.2c0,0-0.3-1.2-1.9-1.2c-0.5,0-2.3,0.4-2.1,3.3c0.4,0.5,0.9,0.9,1.5,1.2c0.6,0.2,1.3,0.2,1.9,0
	c0.6-0.2,1.2-0.6,1.5-1.1c0.4-0.5,0.6-1.2,0.6-1.8C5.9,6.3,0,1.7,0,1.7h0v2.1h0C0,3.8,0.5,4.3,0.7,4.6z"/>
<path class="st0" d="M39.3,1.4c-0.5,0-1-0.2-1.4-0.4l0,0c0.3,0.1,0.5,0.3,0.6,0.6c0.1,0.2,0.2,0.5,0.2,0.8c0,2.5-2.5,2.5-3.2,2.1
	c0,0,1.2-0.3,1.2-1.9c0-0.5-0.4-2.3-3.3-2.1c-0.5,0.4-0.9,0.9-1.2,1.5c-0.2,0.6-0.2,1.3,0,1.9c0.2,0.6,0.6,1.2,1.1,1.5
	c0.5,0.4,1.1,0.6,1.8,0.6c4,0,8.7-5.9,8.7-6h-2.1c0,0-0.5,0.5-0.8,0.7C40.5,1.1,39.9,1.3,39.3,1.4z"/>
<path class="st0" d="M39.5,10.4c0,0.6,0.2,1.3,0.6,1.8c0.4,0.5,0.9,0.9,1.5,1.1c0.6,0.2,1.3,0.2,1.9,0c0.6-0.2,1.1-0.6,1.5-1.2
	c0.1-3-1.6-3.3-2.1-3.3c-1.6,0-1.9,1.2-1.9,1.2c-0.4-0.7-0.3-3.2,2.1-3.2c0.3,0,0.6,0.1,0.8,0.2c0.2,0.1,0.4,0.4,0.6,0.6l0,0
	c-0.2-0.4-0.4-0.9-0.4-1.4c0.1-0.6,0.3-1.1,0.7-1.6c0.2-0.3,0.7-0.8,0.7-0.8h0V1.7h0C45.4,1.7,39.5,6.3,39.5,10.4z"/>
<path class="st0" d="M15.4,39.9l0,6.2h14.4v-6.2l9.4-9.5h6.1v-1.1l0-5.1l0,0v-2.2l0,0l0-5.1v-1.1h-6.1l-9.4-9.5V0H15.4v6.4L6,15.9H0
	v14.5h6L15.4,39.9z M7.1,17h9.1c0,0,0-0.1,0-0.1c0,0,0-0.1,0-0.1c0,0,0-0.1,0-0.1c0,0,0,0,0.1,0c0,0,0.1,0,0.1,0c0,0,0,0,0.1,0V7.5
	l6.1-6.2l6.1,6.2v9.2c0,0,0.1,0,0.1,0c0,0,0.1,0,0.1,0c0,0,0.1,0,0.1,0c0,0,0,0.1,0,0.1c0,0,0,0.1,0,0.1c0,0,0,0,0,0.1h9.1l6.1,6.2
	l-6.1,6.2h-9.1c0,0,0,0.1,0,0.1c0,0,0,0.1,0,0.1s0,0.1,0,0.1c0,0,0,0-0.1,0c0,0-0.1,0-0.1,0c0,0,0,0-0.1,0v9.2L22.6,45l-6.1-6.2
	v-9.2c0,0-0.1,0-0.1,0c0,0-0.1,0-0.1,0c0,0-0.1,0-0.1,0c0,0,0,0,0-0.1c0,0,0-0.1,0-0.1c0,0,0,0,0-0.1H7.1L1,23.2L7.1,17z"/>
<path class="st0" d="M28.8,29.6C28.8,29.6,28.8,29.6,28.8,29.6c0.1,0,0.1,0,0.2,0c0,0,0.1,0,0.1,0c0,0,0-0.1,0-0.1s0-0.1,0-0.1
	c0,0,0,0,0-0.1h-0.3V29.6z"/>
<path class="st0" d="M16.5,16.7C16.5,16.7,16.5,16.7,16.5,16.7c-0.1,0-0.1,0-0.2,0c0,0-0.1,0-0.1,0c0,0,0,0.1,0,0.1c0,0,0,0.1,0,0.1
	c0,0,0,0,0,0.1h0.3V16.7z"/>
<path class="st0" d="M29.1,17C29.1,17,29.1,17,29.1,17c0-0.1,0-0.1,0-0.2c0,0,0-0.1,0-0.1c0,0,0,0-0.1,0c0,0-0.1,0-0.1,0
	c0,0,0,0-0.1,0V17H29.1z"/>
<path class="st0" d="M16.2,29.4C16.2,29.4,16.2,29.4,16.2,29.4c0,0.1,0,0.1,0,0.2c0,0,0,0.1,0,0.1s0,0,0.1,0c0,0,0.1,0,0.1,0
	c0,0,0,0,0.1,0v-0.3H16.2z"/>
</svg>
