<?xml version="1.0" encoding="utf-8"?>
<!-- Generator: Adobe Illustrator 22.1.0, SVG Export Plug-In . SVG Version: 6.00 Build 0)  -->
<svg version="1.1" id="Слой_1" xmlns="http://www.w3.org/2000/svg" xmlns:xlink="http://www.w3.org/1999/xlink" x="0px" y="0px"
	 viewBox="0 0 73 73" style="enable-background:new 0 0 73 73;" xml:space="preserve">
<style type="text/css">
	.st0{fill:#E7533B;}
</style>
<g>
	<g>
		<path class="st0" d="M17.1,19.4c0.9,0,1.7,0.1,2.6,0.2c-0.4-2.4-0.2-4.9,0.5-7.3C20.8,10,22,7.8,23.6,6s3.6-3.4,5.8-4.4
			C31.6,0.5,34,0,36.5,0H20.8c0,0.5-0.1,1-0.3,1.5C20.3,2,20,2.4,19.7,2.8c-0.4,0.4-0.8,0.7-1.3,0.9c-0.5,0.2-1,0.3-1.5,0.3
			C14.7,4,3.6,2.2,3.6,0H0v36.5c0-4.5,1.8-8.9,5-12S12.5,19.5,17.1,19.4z M14.4,12.7c0.2,0.2,0.3,0.4,0.3,0.6c0,0.2,0,0.5-0.1,0.7
			c-0.1,0.2-0.3,0.4-0.5,0.6c-0.2,0.1-0.4,0.2-0.7,0.2s-0.5-0.1-0.7-0.2c-0.2-0.1-0.4-0.3-0.5-0.6c-0.1-0.2-0.1-0.5-0.1-0.7
			c0-0.2,0.2-0.5,0.3-0.6c0.2-0.2,0.6-0.4,0.9-0.4C13.9,12.3,14.2,12.4,14.4,12.7z M0,0h1.8c0,0.2,0,0.5-0.1,0.7
			C1.5,0.9,1.4,1.1,1.2,1.2C1.1,1.4,0.9,1.5,0.7,1.6C0.5,1.7,0.2,1.8,0,1.8V0z M0,20.8V3.6c2.2,0,4,11.1,4,13.2c0,0.5-0.1,1-0.3,1.5
			s-0.5,0.9-0.9,1.3C2.4,20,2,20.3,1.5,20.5C1,20.7,0.5,20.8,0,20.8z M4.3,4.3c0.8-0.8,6.7,3.2,7.6,4.1c0.2,0.2,0.4,0.5,0.5,0.8
			c0.1,0.3,0.2,0.6,0.2,1c0,0.3-0.1,0.7-0.2,1c-0.1,0.3-0.3,0.6-0.5,0.8c-0.2,0.2-0.5,0.4-0.8,0.5c-0.3,0.1-0.6,0.2-1,0.2
			c-0.3,0-0.7-0.1-1-0.2c-0.3-0.1-0.6-0.3-0.8-0.5C7.4,10.9,3.5,5.1,4.3,4.3z"/>
		<path class="st0" d="M17,50.5c1.4,0,2.8-0.2,4.2-0.6l0.6-0.2c0-0.2,0.2-0.4,0.3-0.6c0.1-0.1,0.3-0.2,0.4-0.3
			c0.2-0.1,0.3-0.1,0.5-0.1c0.2,0,0.3,0,0.5,0.1c0.2,0.1,0.3,0.2,0.4,0.3c0.1,0.1,0.2,0.3,0.3,0.4c0.1,0.2,0.1,0.3,0.1,0.5
			c0,0.2,0,0.3-0.1,0.5c-0.1,0.2-0.2,0.3-0.3,0.4c-0.2,0.2-0.4,0.3-0.6,0.3l-0.2,0.6c-0.7,2.1-0.8,4.3-0.4,6.5
			c0.4,2.2,1.2,4.2,2.5,6c1.3,1.8,3,3.2,5,4.2c2,1,4.1,1.5,6.3,1.5c2.2,0,4.4-0.5,6.3-1.5c2-1,3.7-2.4,5-4.2c1.3-1.8,2.2-3.8,2.5-6
			c0.4-2.2,0.2-4.4-0.4-6.5l-0.2-0.6c-0.2,0-0.4-0.2-0.6-0.3c-0.1-0.1-0.2-0.3-0.3-0.4c-0.1-0.2-0.1-0.3-0.1-0.5
			c0-0.2,0-0.3,0.1-0.5c0.1-0.2,0.2-0.3,0.3-0.4c0.1-0.1,0.3-0.2,0.4-0.3c0.2-0.1,0.3-0.1,0.5-0.1s0.3,0,0.5,0.1
			c0.2,0.1,0.3,0.2,0.4,0.3c0.1,0.2,0.3,0.4,0.3,0.6l0.6,0.2c2.1,0.7,4.3,0.8,6.5,0.4c2.2-0.4,4.2-1.2,6-2.5c1.8-1.3,3.2-3,4.2-5
			c1-2,1.5-4.1,1.5-6.3c0-2.2-0.5-4.4-1.5-6.3s-2.4-3.7-4.2-5c-1.8-1.3-3.8-2.2-6-2.5c-2.2-0.4-4.4-0.2-6.5,0.4l-0.6,0.2
			c0,0.2-0.2,0.4-0.3,0.6c-0.1,0.1-0.3,0.2-0.4,0.3c-0.2,0.1-0.3,0.1-0.5,0.1s-0.3,0-0.5-0.1c-0.2-0.1-0.3-0.2-0.4-0.3
			c-0.1-0.1-0.2-0.3-0.3-0.4c-0.1-0.2-0.1-0.3-0.1-0.5c0-0.2,0-0.3,0.1-0.5c0.1-0.2,0.2-0.3,0.3-0.4c0.2-0.1,0.4-0.3,0.6-0.3
			l0.2-0.6c0.7-2.1,0.8-4.3,0.4-6.5c-0.4-2.2-1.2-4.2-2.5-6c-1.3-1.8-3-3.2-5-4.2c-2-1-4.1-1.5-6.3-1.5c-2.2,0-4.4,0.5-6.3,1.5
			c-2,1-3.7,2.4-5,4.2c-1.3,1.8-2.2,3.8-2.5,6c-0.4,2.2-0.2,4.4,0.4,6.5l0.2,0.6c0.2,0,0.4,0.2,0.6,0.3c0.2,0.2,0.4,0.6,0.4,0.9
			c0,0.3-0.1,0.6-0.4,0.9c-0.2,0.2-0.6,0.4-0.9,0.4c-0.3,0-0.6-0.1-0.9-0.4c-0.1-0.2-0.3-0.4-0.3-0.6l-0.6-0.2c-1.9-0.6-4-0.8-6-0.5
			c-2,0.3-3.9,0.9-5.6,2c-1.7,1.1-3.2,2.5-4.3,4.2c-1.1,1.7-1.8,3.6-2.1,5.6c-0.3,2-0.2,4,0.4,6c0.6,1.9,1.5,3.7,2.8,5.3
			c1.3,1.5,2.9,2.8,4.8,3.6C13,50.1,15,50.5,17,50.5L17,50.5z M28.1,48.4c-0.5,0.5-1.1,0.7-1.8,0.7c-0.7,0-1.3-0.3-1.8-0.7
			c-0.5-0.5-0.7-1.1-0.7-1.8c0-0.7,0.3-1.3,0.7-1.8c1-1,6.8-4.9,7.6-4.1C33,41.6,29.1,47.4,28.1,48.4z M36.5,57.3
			c-1,0-2.1-0.4-2.8-1.2c-0.7-0.7-1.2-1.7-1.2-2.8c0-2.2,1.8-13.2,4-13.2c2.2,0,4,11.1,4,13.2c0,0.5-0.1,1-0.3,1.5
			c-0.2,0.5-0.5,0.9-0.9,1.3S38.5,56.8,38,57C37.5,57.2,37,57.3,36.5,57.3L36.5,57.3z M34.7,36.5c0-0.3,0.1-0.7,0.3-1
			s0.5-0.5,0.8-0.6c0.3-0.1,0.7-0.2,1-0.1c0.3,0.1,0.7,0.2,0.9,0.5c0.2,0.2,0.4,0.6,0.5,0.9c0.1,0.3,0,0.7-0.1,1
			c-0.1,0.3-0.4,0.6-0.6,0.8c-0.3,0.2-0.6,0.3-1,0.3c-0.2,0-0.5,0-0.7-0.1c-0.2-0.1-0.4-0.2-0.6-0.4c-0.2-0.2-0.3-0.4-0.4-0.6
			C34.8,37,34.7,36.7,34.7,36.5z M48.4,48.4c-0.5,0.5-1.1,0.7-1.8,0.7c-0.7,0-1.3-0.3-1.8-0.7c-1-1-4.9-6.8-4.1-7.6
			c0.8-0.8,6.7,3.2,7.6,4.1c0.2,0.2,0.4,0.5,0.5,0.8c0.1,0.3,0.2,0.6,0.2,1c0,0.3-0.1,0.6-0.2,0.9C48.8,47.9,48.6,48.2,48.4,48.4z
			 M53.4,32.5c1,0,2.1,0.4,2.8,1.2c0.7,0.7,1.2,1.7,1.2,2.8c0,1-0.4,2.1-1.2,2.8c-0.7,0.7-1.7,1.2-2.8,1.2c-2.2,0-13.2-1.8-13.2-4
			C40.1,34.3,51.2,32.5,53.4,32.5L53.4,32.5z M44.9,24.6c0.5-0.5,1.1-0.7,1.8-0.7s1.3,0.3,1.8,0.7c0.5,0.5,0.7,1.1,0.7,1.8
			s-0.3,1.3-0.7,1.8c-1,1-6.8,4.9-7.6,4.1C40,31.4,43.9,25.6,44.9,24.6L44.9,24.6z M36.5,15.7c1,0,2.1,0.4,2.8,1.2
			c0.7,0.7,1.2,1.7,1.2,2.8c0,2.2-1.8,13.2-4,13.2c-2.2,0-4-11.1-4-13.2c0-1,0.4-2.1,1.2-2.8C34.4,16.1,35.5,15.7,36.5,15.7z
			 M24.6,24.6c0.5-0.5,1.1-0.7,1.8-0.7s1.3,0.3,1.8,0.7c1,1,4.9,6.8,4.1,7.6c-0.8,0.8-6.7-3.2-7.6-4.1c-0.5-0.5-0.7-1.1-0.7-1.8
			C23.9,25.7,24.1,25.1,24.6,24.6z M19.6,32.5c2.2,0,13.2,1.8,13.2,4c0,2.2-11.1,4-13.2,4c-1,0-2.1-0.4-2.8-1.2
			c-0.7-0.7-1.2-1.7-1.2-2.8c0-1,0.4-2.1,1.2-2.8C17.6,33,18.6,32.5,19.6,32.5z"/>
		<path class="st0" d="M73,1.8c-0.5,0-0.9-0.2-1.2-0.5c-0.3-0.3-0.5-0.8-0.5-1.2h-1.9c0,2.2-11.1,4-13.2,4c-0.5,0-1-0.1-1.5-0.3
			c-0.5-0.2-0.9-0.5-1.3-0.9S52.7,2,52.5,1.5c-0.2-0.5-0.3-1-0.3-1.5H36.5c2.5,0,4.9,0.5,7.1,1.6c2.2,1,4.2,2.5,5.8,4.4
			c1.6,1.9,2.8,4.1,3.5,6.4c0.7,2.4,0.8,4.8,0.5,7.3c0.9-0.1,1.7-0.2,2.6-0.2c2.3,0,4.7,0.5,6.8,1.4c2.2,0.9,4.1,2.3,5.7,4
			c1.6,1.7,2.8,3.8,3.6,6c0.8,2.2,1.1,4.6,0.9,6.9c-0.2,2.3-0.8,4.6-1.9,6.7c-1.1,2.1-2.6,3.9-4.5,5.4c-1.8,1.5-4,2.5-6.2,3.1
			c-2.3,0.6-4.6,0.7-7,0.4c0.4,2.4,0.2,4.9-0.5,7.3C52.2,63,51,65.2,49.4,67c-1.6,1.9-3.6,3.4-5.8,4.4c-2.2,1-4.7,1.6-7.1,1.6
			c-2.5,0-4.9-0.5-7.1-1.6c-2.2-1-4.2-2.5-5.8-4.4c-1.6-1.9-2.8-4.1-3.5-6.4c-0.7-2.4-0.8-4.8-0.5-7.3c-2.4,0.4-4.9,0.2-7.3-0.5
			C10,52.2,7.8,51,5.9,49.4c-1.9-1.6-3.4-3.6-4.4-5.8C0.5,41.4,0,39,0,36.5V73h73V0h0V1.8z M12.7,58.6c0.2-0.2,0.4-0.3,0.6-0.3
			c0.2,0,0.5,0,0.7,0.1c0.2,0.1,0.4,0.3,0.6,0.5c0.1,0.2,0.2,0.4,0.2,0.7s-0.1,0.5-0.2,0.7c-0.1,0.2-0.3,0.4-0.6,0.5
			c-0.2,0.1-0.5,0.1-0.7,0.1c-0.2,0-0.5-0.2-0.6-0.3c-0.2-0.2-0.4-0.6-0.4-0.9S12.4,58.8,12.7,58.6z M8.4,61.1
			c0.2-0.2,0.5-0.4,0.8-0.5c0.3-0.1,0.6-0.2,1-0.2c0.3,0,0.7,0.1,1,0.2c0.3,0.1,0.6,0.3,0.8,0.5c0.2,0.2,0.4,0.5,0.5,0.8
			c0.1,0.3,0.2,0.6,0.2,1c0,0.3-0.1,0.7-0.2,1c-0.1,0.3-0.3,0.6-0.5,0.8c-1,1-6.8,4.9-7.6,4.1C3.5,67.9,7.4,62.1,8.4,61.1z M0,52.2
			c0.5,0,1,0.1,1.5,0.3C2,52.7,2.4,53,2.8,53.3c0.4,0.4,0.7,0.8,0.9,1.3c0.2,0.5,0.3,1,0.3,1.5c0,2.2-1.8,13.2-4,13.2V52.2z M0,73
			v-1.8c0.2,0,0.5,0,0.7,0.1c0.2,0.1,0.4,0.2,0.6,0.4c0.2,0.2,0.3,0.4,0.4,0.6c0.1,0.2,0.1,0.4,0.1,0.7H0z M3.6,73
			c0-2.2,11.1-4,13.2-4c1,0,2.1,0.4,2.8,1.2c0.7,0.7,1.2,1.7,1.2,2.8H3.6z M60.3,14.4c-0.2,0.2-0.4,0.3-0.6,0.3
			c-0.2,0-0.5,0-0.7-0.1c-0.2-0.1-0.4-0.3-0.6-0.5c-0.1-0.2-0.2-0.4-0.2-0.7c0-0.2,0.1-0.5,0.2-0.7c0.1-0.2,0.3-0.4,0.6-0.5
			c0.2-0.1,0.5-0.1,0.7-0.1c0.2,0,0.5,0.2,0.6,0.3c0.2,0.2,0.4,0.6,0.4,0.9C60.7,13.9,60.6,14.2,60.3,14.4z M64.6,11.9
			c-0.2,0.2-0.5,0.4-0.8,0.5c-0.3,0.1-0.6,0.2-0.9,0.2c-0.3,0-0.6-0.1-0.9-0.2c-0.3-0.1-0.6-0.3-0.8-0.5c-0.2-0.2-0.4-0.5-0.5-0.8
			c-0.1-0.3-0.2-0.6-0.2-0.9c0-0.3,0.1-0.6,0.2-0.9s0.3-0.6,0.5-0.8c1-1,6.8-4.9,7.6-4.1C69.5,5.1,65.6,10.9,64.6,11.9z M73,52.2
			v17.2c-2.2,0-4-11.1-4-13.2c0-1,0.4-2.1,1.2-2.8C70.9,52.6,71.9,52.2,73,52.2L73,52.2z M64.6,61.1c1,1,4.9,6.8,4.1,7.6
			c-0.8,0.8-6.7-3.2-7.6-4.1c-0.5-0.5-0.7-1.1-0.7-1.8c0-0.7,0.3-1.3,0.7-1.8c0.5-0.5,1.1-0.7,1.8-0.7
			C63.5,60.4,64.1,60.6,64.6,61.1z M58.6,58.6c0.2-0.2,0.4-0.3,0.6-0.3c0.2,0,0.5,0,0.7,0.1c0.2,0.1,0.4,0.3,0.6,0.5
			c0.1,0.2,0.2,0.4,0.2,0.7s-0.1,0.5-0.2,0.7c-0.1,0.2-0.3,0.4-0.6,0.5c-0.2,0.1-0.5,0.1-0.7,0.1c-0.2,0-0.5-0.2-0.6-0.3
			c-0.2-0.2-0.4-0.6-0.4-0.9S58.3,58.8,58.6,58.6L58.6,58.6z M52.2,73c0-1,0.4-2.1,1.2-2.8c0.7-0.7,1.7-1.2,2.8-1.2
			c2.2,0,13.2,1.8,13.2,4H52.2z M73,73h-1.8c0-0.5,0.2-0.9,0.5-1.2c0.3-0.3,0.8-0.5,1.2-0.5V73z M73,20.8c-0.5,0-1-0.1-1.5-0.3
			c-0.5-0.2-0.9-0.5-1.3-0.9c-0.4-0.4-0.7-0.8-0.9-1.3c-0.2-0.5-0.3-1-0.3-1.5c0-2.2,1.8-13.2,4-13.2V20.8z"/>
	</g>
</g>
</svg>
